<?xml version="1.0" encoding="utf-8"?>
<!-- Generator: Adobe Illustrator 19.0.0, SVG Export Plug-In . SVG Version: 6.00 Build 0)  -->
<svg version="1.1" xmlns="http://www.w3.org/2000/svg" xmlns:xlink="http://www.w3.org/1999/xlink" x="0px" y="0px"
	 viewBox="0 0 1000 1000" style="enable-background:new 0 0 1000 1000;" xml:space="preserve">
<style type="text/css">
	.st0{display:none;}
	.st1{display:inline;}
	.st2{fill:#1A1A1A;}
	.st3{fill:#333333;}
	.st4{display:inline;fill:none;stroke:#7AC943;stroke-width:25;stroke-linejoin:bevel;stroke-miterlimit:10;}
	.st5{display:inline;fill:#FF0000;stroke:#FF0000;stroke-width:11;stroke-miterlimit:10;}
	.st6{display:inline;fill:#FF0000;stroke:#FFFFFF;stroke-width:11;stroke-miterlimit:10;}
	.st7{display:inline;fill:#FF0000;stroke:#F2F2F2;stroke-width:11;stroke-miterlimit:10;}
	.st8{fill:none;}
	.st9{fill:#CCCCCC;}
	.st10{display:inline;fill:none;}
	.st11{display:inline;fill:url(#XMLID_181_);}
	.st12{display:inline;fill:#F2F2F2;}
	.st13{fill:#4D4D4D;stroke:#333333;stroke-width:5;stroke-miterlimit:10;}
</style>
<g id="Base" class="st0">
	<g id="XMLID_2_" class="st1">
		<path id="XMLID_48_" class="st2" d="M500,972.5c-63.8,0-125.7-12.5-183.9-37.1c-56.3-23.8-106.8-57.9-150.2-101.3
			S88.4,740.2,64.6,683.9C40,625.7,27.5,563.8,27.5,500c0-63.8,12.5-125.7,37.1-183.9c23.8-56.3,57.9-106.8,101.3-150.2
			s93.9-77.5,150.2-101.3C374.3,40,436.2,27.5,500,27.5c63.8,0,125.7,12.5,183.9,37.1c56.3,23.8,106.8,57.9,150.2,101.3
			s77.5,93.9,101.3,150.2c24.6,58.2,37.1,120.1,37.1,183.9c0,63.8-12.5,125.7-37.1,183.9c-23.8,56.3-57.9,106.8-101.3,150.2
			s-93.9,77.5-150.2,101.3C625.7,960,563.8,972.5,500,972.5z"/>
		<path id="XMLID_39_" class="st3" d="M500,55c60.1,0,118.4,11.8,173.2,34.9c53,22.4,100.6,54.5,141.5,95.4
			c40.9,40.9,73,88.5,95.4,141.5C933.2,381.6,945,439.9,945,500s-11.8,118.4-34.9,173.2c-22.4,53-54.5,100.6-95.4,141.5
			c-40.9,40.9-88.5,73-141.5,95.4C618.4,933.2,560.1,945,500,945s-118.4-11.8-173.2-34.9c-53-22.4-100.6-54.5-141.5-95.4
			c-40.9-40.9-73-88.5-95.4-141.5C66.8,618.4,55,560.1,55,500s11.8-118.4,34.9-173.2c22.4-53,54.5-100.6,95.4-141.5
			s88.5-73,141.5-95.4C381.6,66.8,439.9,55,500,55 M500,0C223.9,0,0,223.9,0,500s223.9,500,500,500s500-223.9,500-500S776.1,0,500,0
			L500,0z"/>
	</g>
	<path id="XMLID_8_" class="st4" d="M363.4,279.2c68.3,42.9,114.4,124,114.4,217.1c0,76.9-31.5,145.7-81.1,191.5"/>
	<line id="XMLID_6_" class="st5" x1="337.1" y1="318.8" x2="365.2" y2="265"/>
	<line id="XMLID_9_" class="st6" x1="397.7" y1="383" x2="442.6" y2="352"/>
	<line id="XMLID_16_" class="st6" x1="403.5" y1="378.7" x2="448.4" y2="347.7"/>
	<line id="XMLID_11_" class="st6" x1="434.4" y1="531.1" x2="486" y2="544.3"/>
	<line id="XMLID_12_" class="st6" x1="371.2" y1="651.7" x2="409.3" y2="693.3"/>
	<line id="XMLID_13_" class="st6" x1="342.9" y1="672.5" x2="367.8" y2="724.2"/>
	<path id="XMLID_30_" class="st4" d="M570.3,646.2c-25.8-41.3-40.9-91.4-40.9-145.3c0-54.5,15.4-105.1,41.7-146.6"/>
	<line id="XMLID_25_" class="st7" x1="674.1" y1="683.2" x2="645.1" y2="738.6"/>
	<line id="XMLID_23_" class="st5" x1="605.8" y1="621.7" x2="559.6" y2="653.5"/>
	<line id="XMLID_22_" class="st6" x1="579.3" y1="563.1" x2="526.2" y2="576.9"/>
	<line id="XMLID_29_" class="st6" x1="572.6" y1="479.1" x2="518" y2="474.9"/>
	<line id="XMLID_28_" class="st6" x1="589.2" y1="409.5" x2="539.1" y2="387.2"/>
	<line id="XMLID_17_" class="st6" x1="640.2" y1="340.4" x2="600.4" y2="298.3"/>
	<line id="XMLID_15_" class="st5" x1="668.1" y1="319.7" x2="642.5" y2="266.6"/>
	<g id="XMLID_68_" class="st1">
		<rect id="XMLID_141_" x="339.4" y="215.7" class="st8" width="136" height="59"/>
		<path id="XMLID_67_" class="st9" d="M390.9,247.2v4.2h-23.7c0-1.1,0.1-2.1,0.5-3.1c0.6-1.6,1.6-3.2,2.9-4.8
			c1.3-1.6,3.2-3.4,5.7-5.4c3.9-3.2,6.5-5.7,7.9-7.6c1.4-1.9,2.1-3.6,2.1-5.3c0-1.7-0.6-3.2-1.9-4.4s-2.9-1.8-4.9-1.8
			c-2.1,0-3.8,0.6-5.1,1.9s-1.9,3-1.9,5.3l-4.5-0.5c0.3-3.4,1.5-5.9,3.5-7.7c2-1.8,4.7-2.6,8.1-2.6c3.4,0,6.2,1,8.2,2.9s3,4.3,3,7.1
			c0,1.4-0.3,2.8-0.9,4.2c-0.6,1.4-1.6,2.8-2.9,4.4c-1.4,1.5-3.6,3.6-6.8,6.3c-2.6,2.2-4.3,3.7-5.1,4.5c-0.7,0.8-1.4,1.6-1.9,2.4
			H390.9z"/>
		<path id="XMLID_136_" class="st9" d="M409.7,251.5v-8.6h-15.5v-4l16.3-23.2h3.6v23.2h4.8v4h-4.8v8.6H409.7z M409.7,238.9v-16.1
			l-11.2,16.1H409.7z"/>
		<path id="XMLID_139_" class="st9" d="M423.4,242.1l4.6-0.4c0.3,2.2,1.1,3.9,2.4,5.1c1.2,1.1,2.7,1.7,4.5,1.7
			c2.1,0,3.9-0.8,5.4-2.4c1.5-1.6,2.2-3.7,2.2-6.3c0-2.5-0.7-4.5-2.1-5.9c-1.4-1.4-3.3-2.2-5.5-2.2c-1.4,0-2.7,0.3-3.8,1
			c-1.1,0.6-2,1.5-2.7,2.5l-4.1-0.5l3.5-18.4h17.8v4.2h-14.3l-1.9,9.6c2.1-1.5,4.4-2.2,6.8-2.2c3.1,0,5.8,1.1,7.9,3.2
			c2.1,2.2,3.2,4.9,3.2,8.3c0,3.2-0.9,6-2.8,8.4c-2.3,2.9-5.4,4.3-9.4,4.3c-3.3,0-5.9-0.9-8-2.7
			C424.9,247.5,423.7,245.1,423.4,242.1z"/>
	</g>
	<g id="XMLID_66_" class="st1">
		<rect id="XMLID_134_" x="595.6" y="214.3" class="st8" width="107.1" height="47.3"/>
		<path id="XMLID_37_" class="st9" d="M627.9,250.1h-4.4v-28c-1.1,1-2.4,2-4.2,3c-1.7,1-3.3,1.8-4.6,2.3v-4.2
			c2.5-1.2,4.6-2.6,6.4-4.2c1.8-1.6,3.1-3.2,3.9-4.8h2.8V250.1z"/>
		<path id="XMLID_130_" class="st9" d="M652,250.1h-4.4v-28c-1.1,1-2.4,2-4.2,3c-1.7,1-3.3,1.8-4.6,2.3v-4.2
			c2.5-1.2,4.6-2.6,6.4-4.2c1.8-1.6,3.1-3.2,3.9-4.8h2.8V250.1z"/>
		<path id="XMLID_132_" class="st9" d="M663.3,240.8l4.6-0.4c0.3,2.2,1.1,3.9,2.4,5.1c1.2,1.1,2.7,1.7,4.5,1.7
			c2.1,0,3.9-0.8,5.4-2.4c1.5-1.6,2.2-3.7,2.2-6.3c0-2.5-0.7-4.5-2.1-5.9c-1.4-1.4-3.3-2.2-5.5-2.2c-1.4,0-2.7,0.3-3.8,1
			c-1.1,0.6-2,1.5-2.7,2.5l-4.1-0.5l3.5-18.4h17.8v4.2H671l-1.9,9.6c2.1-1.5,4.4-2.2,6.8-2.2c3.1,0,5.8,1.1,7.9,3.2
			c2.1,2.2,3.2,4.9,3.2,8.3c0,3.2-0.9,6-2.8,8.4c-2.3,2.9-5.4,4.3-9.4,4.3c-3.3,0-5.9-0.9-8-2.7
			C664.7,246.2,663.6,243.8,663.3,240.8z"/>
	</g>
	<g id="XMLID_36_" class="st1">
		<rect id="XMLID_128_" x="295.4" y="391" class="st8" width="136" height="59"/>
		<path id="XMLID_35_" class="st9" d="M346.8,422.6v4.2h-23.7c0-1.1,0.1-2.1,0.5-3.1c0.6-1.6,1.6-3.2,2.9-4.8
			c1.3-1.6,3.2-3.4,5.7-5.4c3.9-3.2,6.5-5.7,7.9-7.6c1.4-1.9,2.1-3.6,2.1-5.3c0-1.7-0.6-3.2-1.9-4.4s-2.9-1.8-4.9-1.8
			c-2.1,0-3.8,0.6-5.1,1.9s-1.9,3-1.9,5.3l-4.5-0.5c0.3-3.4,1.5-5.9,3.5-7.7c2-1.8,4.7-2.6,8.1-2.6c3.4,0,6.2,1,8.2,2.9s3,4.3,3,7.1
			c0,1.4-0.3,2.8-0.9,4.2c-0.6,1.4-1.6,2.8-2.9,4.4c-1.4,1.5-3.6,3.6-6.8,6.3c-2.6,2.2-4.3,3.7-5.1,4.5c-0.7,0.8-1.4,1.6-1.9,2.4
			H346.8z"/>
		<path id="XMLID_122_" class="st9" d="M351.5,409.1c0-4.2,0.4-7.6,1.3-10.2c0.9-2.6,2.2-4.6,3.9-6c1.7-1.4,3.9-2.1,6.5-2.1
			c1.9,0,3.6,0.4,5.1,1.2c1.4,0.8,2.6,1.9,3.6,3.3c0.9,1.5,1.7,3.2,2.2,5.3c0.5,2.1,0.8,4.9,0.8,8.5c0,4.2-0.4,7.6-1.3,10.2
			c-0.9,2.6-2.2,4.6-3.9,6c-1.7,1.4-3.9,2.1-6.5,2.1c-3.5,0-6.2-1.2-8.1-3.7C352.7,420.7,351.5,415.9,351.5,409.1z M356,409.1
			c0,5.9,0.7,9.8,2.1,11.7c1.4,1.9,3.1,2.9,5.1,2.9c2,0,3.7-1,5.1-2.9c1.4-2,2.1-5.9,2.1-11.7c0-5.9-0.7-9.8-2.1-11.7
			c-1.4-1.9-3.1-2.9-5.1-2.9c-2,0-3.6,0.9-4.8,2.6C356.8,399.2,356,403.3,356,409.1z"/>
		<path id="XMLID_125_" class="st9" d="M379.3,409.1c0-4.2,0.4-7.6,1.3-10.2c0.9-2.6,2.2-4.6,3.9-6c1.7-1.4,3.9-2.1,6.5-2.1
			c1.9,0,3.6,0.4,5.1,1.2c1.4,0.8,2.6,1.9,3.6,3.3c0.9,1.5,1.7,3.2,2.2,5.3c0.5,2.1,0.8,4.9,0.8,8.5c0,4.2-0.4,7.6-1.3,10.2
			c-0.9,2.6-2.2,4.6-3.9,6c-1.7,1.4-3.9,2.1-6.5,2.1c-3.5,0-6.2-1.2-8.1-3.7C380.5,420.7,379.3,415.9,379.3,409.1z M383.9,409.1
			c0,5.9,0.7,9.8,2.1,11.7c1.4,1.9,3.1,2.9,5.1,2.9c2,0,3.7-1,5.1-2.9c1.4-2,2.1-5.9,2.1-11.7c0-5.9-0.7-9.8-2.1-11.7
			c-1.4-1.9-3.1-2.9-5.1-2.9c-2,0-3.6,0.9-4.8,2.6C384.6,399.2,383.9,403.3,383.9,409.1z"/>
	</g>
	<g id="XMLID_33_" class="st1">
		<rect id="XMLID_120_" x="328.4" y="514.4" class="st8" width="98.7" height="37.5"/>
		<path id="XMLID_21_" class="st9" d="M354.6,550.2h-4.4v-28c-1.1,1-2.4,2-4.2,3c-1.7,1-3.3,1.8-4.6,2.3v-4.2
			c2.5-1.2,4.6-2.6,6.4-4.2c1.8-1.6,3.1-3.2,3.9-4.8h2.8V550.2z"/>
		<path id="XMLID_115_" class="st9" d="M365.9,540.8l4.6-0.4c0.3,2.2,1.1,3.9,2.4,5.1c1.2,1.1,2.7,1.7,4.5,1.7
			c2.1,0,3.9-0.8,5.4-2.4s2.2-3.7,2.2-6.3c0-2.5-0.7-4.5-2.1-5.9c-1.4-1.4-3.3-2.2-5.5-2.2c-1.4,0-2.7,0.3-3.8,1
			c-1.1,0.6-2,1.5-2.7,2.5l-4.1-0.5l3.5-18.4h17.8v4.2h-14.3l-1.9,9.6c2.1-1.5,4.4-2.2,6.8-2.2c3.1,0,5.8,1.1,7.9,3.2
			s3.2,4.9,3.2,8.3c0,3.2-0.9,6-2.8,8.4c-2.3,2.9-5.4,4.3-9.4,4.3c-3.3,0-5.9-0.9-8-2.7C367.4,546.2,366.2,543.8,365.9,540.8z"/>
		<path id="XMLID_117_" class="st9" d="M393.7,532.5c0-4.2,0.4-7.6,1.3-10.2c0.9-2.6,2.2-4.6,3.9-6c1.7-1.4,3.9-2.1,6.5-2.1
			c1.9,0,3.6,0.4,5.1,1.2c1.4,0.8,2.6,1.9,3.6,3.3c0.9,1.5,1.7,3.2,2.2,5.3c0.5,2.1,0.8,4.9,0.8,8.5c0,4.2-0.4,7.6-1.3,10.2
			c-0.9,2.6-2.2,4.6-3.9,6c-1.7,1.4-3.9,2.1-6.5,2.1c-3.5,0-6.2-1.2-8.1-3.7C394.9,544.1,393.7,539.2,393.7,532.5z M398.2,532.5
			c0,5.9,0.7,9.8,2.1,11.7c1.4,1.9,3.1,2.9,5.1,2.9c2,0,3.7-1,5.1-2.9c1.4-2,2.1-5.9,2.1-11.7c0-5.9-0.7-9.8-2.1-11.7
			c-1.4-1.9-3.1-2.9-5.1-2.9c-2,0-3.6,0.9-4.8,2.6C399,522.6,398.2,526.6,398.2,532.5z"/>
	</g>
	<g id="XMLID_20_" class="st1">
		<rect id="XMLID_113_" x="285.4" y="580.6" class="st8" width="136" height="59"/>
		<path id="XMLID_19_" class="st9" d="M330.3,616.4h-4.4v-28c-1.1,1-2.4,2-4.2,3c-1.7,1-3.3,1.8-4.6,2.3v-4.2
			c2.5-1.2,4.6-2.6,6.4-4.2c1.8-1.6,3.1-3.2,3.9-4.8h2.8V616.4z"/>
		<path id="XMLID_107_" class="st9" d="M341.5,598.7c0-4.2,0.4-7.6,1.3-10.2c0.9-2.6,2.2-4.6,3.9-6c1.7-1.4,3.9-2.1,6.5-2.1
			c1.9,0,3.6,0.4,5.1,1.2c1.4,0.8,2.6,1.9,3.6,3.3c0.9,1.5,1.7,3.2,2.2,5.3s0.8,4.9,0.8,8.5c0,4.2-0.4,7.6-1.3,10.2
			c-0.9,2.6-2.2,4.6-3.9,6c-1.7,1.4-3.9,2.1-6.5,2.1c-3.5,0-6.2-1.2-8.1-3.7C342.7,610.3,341.5,605.5,341.5,598.7z M346,598.7
			c0,5.9,0.7,9.8,2.1,11.7c1.4,1.9,3.1,2.9,5.1,2.9c2,0,3.7-1,5.1-2.9c1.4-2,2.1-5.9,2.1-11.7c0-5.9-0.7-9.8-2.1-11.7
			c-1.4-1.9-3.1-2.9-5.1-2.9c-2,0-3.6,0.9-4.8,2.6C346.8,588.8,346,592.9,346,598.7z"/>
		<path id="XMLID_110_" class="st9" d="M369.3,598.7c0-4.2,0.4-7.6,1.3-10.2c0.9-2.6,2.2-4.6,3.9-6c1.7-1.4,3.9-2.1,6.5-2.1
			c1.9,0,3.6,0.4,5.1,1.2c1.4,0.8,2.6,1.9,3.6,3.3c0.9,1.5,1.7,3.2,2.2,5.3s0.8,4.9,0.8,8.5c0,4.2-0.4,7.6-1.3,10.2
			c-0.9,2.6-2.2,4.6-3.9,6c-1.7,1.4-3.9,2.1-6.5,2.1c-3.5,0-6.2-1.2-8.1-3.7C370.5,610.3,369.3,605.5,369.3,598.7z M373.9,598.7
			c0,5.9,0.7,9.8,2.1,11.7c1.4,1.9,3.1,2.9,5.1,2.9c2,0,3.7-1,5.1-2.9c1.4-2,2.1-5.9,2.1-11.7c0-5.9-0.7-9.8-2.1-11.7
			c-1.4-1.9-3.1-2.9-5.1-2.9c-2,0-3.6,0.9-4.8,2.6C374.6,588.8,373.9,592.9,373.9,598.7z"/>
	</g>
	<g id="XMLID_18_" class="st1">
		<rect id="XMLID_105_" x="300.4" y="468.5" class="st8" width="68" height="59"/>
		<path id="XMLID_45_" class="st9" d="M316.2,473.6c0-1.5,0.5-2.8,1.6-3.9c1.1-1.1,2.4-1.6,3.9-1.6c1.5,0,2.9,0.5,3.9,1.6
			s1.6,2.4,1.6,3.9c0,1.5-0.5,2.8-1.6,3.9c-1.1,1.1-2.4,1.6-3.9,1.6c-1.5,0-2.8-0.5-3.9-1.6C316.7,476.4,316.2,475.1,316.2,473.6z
			 M318.4,473.6c0,0.9,0.3,1.7,1,2.4c0.7,0.7,1.5,1,2.4,1c0.9,0,1.7-0.3,2.4-1c0.7-0.7,1-1.5,1-2.4c0-0.9-0.3-1.7-1-2.4
			c-0.7-0.7-1.5-1-2.4-1c-0.9,0-1.7,0.3-2.4,1C318.7,471.8,318.4,472.6,318.4,473.6z"/>
		<path id="XMLID_103_" class="st9" d="M333.4,497.9v-29.3h19.8v3.5h-15.9v9.1h13.8v3.5h-13.8v13.3H333.4z"/>
	</g>
	<g id="XMLID_46_" class="st1">
		<rect id="XMLID_100_" x="420.5" y="785" class="st8" width="155" height="76"/>
		<path id="XMLID_14_" class="st9" d="M428.5,813c0-13.4,3-23.9,9-31.5c6-7.6,13.7-11.4,23.2-11.4c6.2,0,11.8,1.8,16.8,5.3
			c5,3.6,8.8,8.5,11.4,14.9c2.6,6.4,3.9,13.6,3.9,21.7c0,8.2-1.4,15.5-4.1,22c-2.8,6.5-6.7,11.4-11.7,14.7c-5,3.3-10.5,5-16.3,5
			c-6.3,0-12-1.8-17-5.5c-5-3.7-8.8-8.7-11.3-15S428.5,820.1,428.5,813z M437.7,813.1c0,9.7,2.2,17.4,6.5,23s9.8,8.4,16.4,8.4
			c6.7,0,12.2-2.8,16.5-8.5c4.3-5.7,6.5-13.7,6.5-24.1c0-6.6-0.9-12.3-2.8-17.2c-1.9-4.9-4.6-8.7-8.1-11.4c-3.6-2.7-7.6-4-12-4
			c-6.3,0-11.7,2.6-16.3,7.8S437.7,801,437.7,813.1z"/>
		<path id="XMLID_96_" class="st9" d="M505.9,852.3v-80.7h8.9v80.7H505.9z"/>
		<path id="XMLID_98_" class="st9" d="M530.1,852.3v-80.7h8.9v71.2h33.1v9.5H530.1z"/>
	</g>
	<g id="XMLID_7_" class="st1">
		<rect id="XMLID_93_" x="353.2" y="740.6" class="st8" width="78.4" height="59"/>
		<path id="XMLID_65_" class="st9" d="M366.9,745.3V741h23.2v3.4c-2.3,2.4-4.5,5.6-6.8,9.7c-2.2,4-4,8.2-5.2,12.4
			c-0.9,3-1.4,6.3-1.7,9.8h-4.5c0-2.8,0.6-6.2,1.7-10.2c1.1-4,2.6-7.8,4.6-11.5s4.1-6.8,6.3-9.4H366.9z"/>
		<path id="XMLID_91_" class="st9" d="M394.5,767l4.6-0.4c0.3,2.2,1.1,3.9,2.4,5.1s2.7,1.7,4.5,1.7c2.1,0,3.9-0.8,5.4-2.4
			c1.5-1.6,2.2-3.7,2.2-6.3c0-2.5-0.7-4.5-2.1-5.9c-1.4-1.4-3.3-2.2-5.5-2.2c-1.4,0-2.7,0.3-3.8,1c-1.1,0.6-2,1.5-2.7,2.5l-4.1-0.5
			l3.5-18.4h17.8v4.2h-14.3l-1.9,9.6c2.1-1.5,4.4-2.2,6.8-2.2c3.1,0,5.8,1.1,7.9,3.2c2.1,2.2,3.2,4.9,3.2,8.3c0,3.2-0.9,6-2.8,8.4
			c-2.3,2.9-5.4,4.3-9.4,4.3c-3.3,0-5.9-0.9-8-2.7C395.9,772.4,394.8,770,394.5,767z"/>
	</g>
	<g id="XMLID_64_" class="st1">
		<rect id="XMLID_89_" x="584.1" y="745.6" class="st8" width="78.4" height="59"/>
		<path id="XMLID_63_" class="st9" d="M611.5,763.7c0-4.2,0.4-7.6,1.3-10.2c0.9-2.6,2.2-4.6,3.9-6c1.7-1.4,3.9-2.1,6.5-2.1
			c1.9,0,3.6,0.4,5.1,1.2s2.6,1.9,3.6,3.3s1.7,3.2,2.2,5.3s0.8,4.9,0.8,8.5c0,4.2-0.4,7.6-1.3,10.2s-2.2,4.6-3.9,6
			c-1.7,1.4-3.9,2.1-6.5,2.1c-3.5,0-6.2-1.2-8.1-3.7C612.7,775.3,611.5,770.4,611.5,763.7z M616,763.7c0,5.9,0.7,9.8,2.1,11.7
			c1.4,1.9,3.1,2.9,5.1,2.9s3.7-1,5.1-2.9c1.4-2,2.1-5.9,2.1-11.7c0-5.9-0.7-9.8-2.1-11.7c-1.4-1.9-3.1-2.9-5.1-2.9
			c-2,0-3.6,0.9-4.8,2.6C616.7,753.8,616,757.8,616,763.7z"/>
	</g>
	<g id="XMLID_62_" class="st1">
		<rect id="XMLID_86_" x="596.1" y="579.6" class="st8" width="91.9" height="59"/>
		<path id="XMLID_61_" class="st9" d="M639.4,611.1v4.2h-23.7c0-1.1,0.1-2.1,0.5-3.1c0.6-1.6,1.6-3.2,2.9-4.8
			c1.3-1.6,3.2-3.4,5.7-5.4c3.9-3.2,6.5-5.7,7.9-7.6s2.1-3.6,2.1-5.3c0-1.7-0.6-3.2-1.9-4.4s-2.9-1.8-4.9-1.8
			c-2.1,0-3.8,0.6-5.1,1.9s-1.9,3-1.9,5.3l-4.5-0.5c0.3-3.4,1.5-5.9,3.5-7.7s4.7-2.6,8.1-2.6c3.4,0,6.2,1,8.2,2.9s3,4.3,3,7.1
			c0,1.4-0.3,2.8-0.9,4.2c-0.6,1.4-1.6,2.8-2.9,4.4c-1.4,1.5-3.6,3.6-6.8,6.3c-2.6,2.2-4.3,3.7-5.1,4.5s-1.4,1.6-1.9,2.4H639.4z"/>
		<path id="XMLID_83_" class="st9" d="M644.1,597.7c0-4.2,0.4-7.6,1.3-10.2c0.9-2.6,2.2-4.6,3.9-6c1.7-1.4,3.9-2.1,6.5-2.1
			c1.9,0,3.6,0.4,5.1,1.2s2.6,1.9,3.6,3.3s1.7,3.2,2.2,5.3s0.8,4.9,0.8,8.5c0,4.2-0.4,7.6-1.3,10.2s-2.2,4.6-3.9,6
			c-1.7,1.4-3.9,2.1-6.5,2.1c-3.5,0-6.2-1.2-8.1-3.7C645.3,609.3,644.1,604.4,644.1,597.7z M648.6,597.7c0,5.9,0.7,9.8,2.1,11.7
			c1.4,1.9,3.1,2.9,5.1,2.9s3.7-1,5.1-2.9c1.4-2,2.1-5.9,2.1-11.7c0-5.9-0.7-9.8-2.1-11.7c-1.4-1.9-3.1-2.9-5.1-2.9
			c-2,0-3.6,0.9-4.8,2.6C649.4,587.8,648.6,591.8,648.6,597.7z"/>
	</g>
	<g id="XMLID_60_" class="st1">
		<rect id="XMLID_81_" x="564.2" y="464" class="st8" width="91.9" height="59"/>
		<path id="XMLID_59_" class="st9" d="M607.2,472.7l-4.4,0.3c-0.4-1.7-0.9-3-1.7-3.8c-1.2-1.3-2.7-1.9-4.4-1.9
			c-1.4,0-2.6,0.4-3.7,1.2c-1.4,1-2.5,2.5-3.3,4.4c-0.8,1.9-1.2,4.7-1.2,8.3c1.1-1.6,2.4-2.8,3.9-3.6c1.5-0.8,3.1-1.2,4.8-1.2
			c2.9,0,5.4,1.1,7.5,3.2c2.1,2.2,3.1,4.9,3.1,8.4c0,2.2-0.5,4.3-1.5,6.3s-2.3,3.4-4,4.4c-1.7,1-3.6,1.5-5.8,1.5c-3.7,0-6.6-1.3-9-4
			c-2.3-2.7-3.5-7.1-3.5-13.3c0-6.9,1.3-11.9,3.8-15.1c2.2-2.7,5.2-4.1,9-4.1c2.8,0,5.1,0.8,6.9,2.4
			C605.8,467.8,606.9,469.9,607.2,472.7z M589.3,488.2c0,1.5,0.3,3,1,4.3c0.6,1.4,1.5,2.4,2.7,3.2c1.2,0.7,2.4,1.1,3.6,1.1
			c1.9,0,3.5-0.7,4.8-2.2c1.3-1.5,2-3.5,2-6.1c0-2.5-0.7-4.4-2-5.8c-1.3-1.4-3-2.1-5-2.1c-2,0-3.7,0.7-5.1,2.1
			C590,484,589.3,485.8,589.3,488.2z"/>
		<path id="XMLID_78_" class="st9" d="M612.2,482.1c0-4.2,0.4-7.6,1.3-10.2c0.9-2.6,2.2-4.6,3.9-6c1.7-1.4,3.9-2.1,6.5-2.1
			c1.9,0,3.6,0.4,5.1,1.2c1.4,0.8,2.6,1.9,3.6,3.3c0.9,1.5,1.7,3.2,2.2,5.3c0.5,2.1,0.8,4.9,0.8,8.5c0,4.2-0.4,7.6-1.3,10.2
			c-0.9,2.6-2.2,4.6-3.9,6c-1.7,1.4-3.9,2.1-6.5,2.1c-3.5,0-6.2-1.2-8.1-3.7C613.4,493.7,612.2,488.8,612.2,482.1z M616.7,482.1
			c0,5.9,0.7,9.8,2.1,11.7c1.4,1.9,3.1,2.9,5.1,2.9c2,0,3.7-1,5.1-2.9s2.1-5.9,2.1-11.7c0-5.9-0.7-9.8-2.1-11.7
			c-1.4-1.9-3.1-2.9-5.1-2.9c-2,0-3.6,0.9-4.8,2.6C617.5,472.2,616.7,476.2,616.7,482.1z"/>
	</g>
	<g id="XMLID_58_" class="st1">
		<rect id="XMLID_75_" x="591" y="355.7" class="st8" width="108.1" height="59"/>
		<path id="XMLID_55_" class="st9" d="M622,391.5h-4.4v-28c-1.1,1-2.4,2-4.2,3c-1.7,1-3.3,1.8-4.6,2.3v-4.2c2.5-1.2,4.6-2.6,6.4-4.2
			c1.8-1.6,3.1-3.2,3.9-4.8h2.8V391.5z"/>
		<path id="XMLID_57_" class="st9" d="M633.2,373.9c0-4.2,0.4-7.6,1.3-10.2c0.9-2.6,2.2-4.6,3.9-6c1.7-1.4,3.9-2.1,6.5-2.1
			c1.9,0,3.6,0.4,5.1,1.2c1.4,0.8,2.6,1.9,3.6,3.3c0.9,1.5,1.7,3.2,2.2,5.3c0.5,2.1,0.8,4.9,0.8,8.5c0,4.2-0.4,7.6-1.3,10.2
			c-0.9,2.6-2.2,4.6-3.9,6c-1.7,1.4-3.9,2.1-6.5,2.1c-3.5,0-6.2-1.2-8.1-3.7C634.4,385.4,633.2,380.6,633.2,373.9z M637.7,373.9
			c0,5.9,0.7,9.8,2.1,11.7c1.4,1.9,3.1,2.9,5.1,2.9c2,0,3.7-1,5.1-2.9s2.1-5.9,2.1-11.7c0-5.9-0.7-9.8-2.1-11.7
			c-1.4-1.9-3.1-2.9-5.1-2.9c-2,0-3.6,0.9-4.8,2.6C638.5,364,637.7,368,637.7,373.9z"/>
		<path id="XMLID_72_" class="st9" d="M661,373.9c0-4.2,0.4-7.6,1.3-10.2c0.9-2.6,2.2-4.6,3.9-6c1.7-1.4,3.9-2.1,6.5-2.1
			c1.9,0,3.6,0.4,5.1,1.2c1.4,0.8,2.6,1.9,3.6,3.3c0.9,1.5,1.7,3.2,2.2,5.3c0.5,2.1,0.8,4.9,0.8,8.5c0,4.2-0.4,7.6-1.3,10.2
			c-0.9,2.6-2.2,4.6-3.9,6c-1.7,1.4-3.9,2.1-6.5,2.1c-3.5,0-6.2-1.2-8.1-3.7C662.2,385.4,661,380.6,661,373.9z M665.5,373.9
			c0,5.9,0.7,9.8,2.1,11.7c1.4,1.9,3.1,2.9,5.1,2.9c2,0,3.7-1,5.1-2.9s2.1-5.9,2.1-11.7c0-5.9-0.7-9.8-2.1-11.7
			c-1.4-1.9-3.1-2.9-5.1-2.9c-2,0-3.6,0.9-4.8,2.6C666.3,364,665.5,368,665.5,373.9z"/>
	</g>
	<g id="XMLID_38_" class="st1">
		<rect id="XMLID_54_" x="659.1" y="439" class="st8" width="27.9" height="135"/>
		<path id="XMLID_26_" class="st9" d="M662.5,468.4V439h11.1c1.9,0,3.4,0.1,4.5,0.3c1.4,0.2,2.6,0.7,3.6,1.4c1,0.7,1.8,1.6,2.4,2.8
			c0.6,1.2,0.9,2.5,0.9,4c0,2.5-0.8,4.6-2.4,6.3c-1.6,1.7-4.5,2.6-8.6,2.6h-7.5v11.9H662.5z M666.4,453h7.6c2.5,0,4.3-0.5,5.3-1.4
			c1.1-0.9,1.6-2.2,1.6-3.9c0-1.2-0.3-2.3-0.9-3.2c-0.6-0.9-1.4-1.5-2.5-1.7c-0.7-0.2-1.9-0.3-3.6-0.3h-7.5V453z"/>
		<path id="XMLID_50_" class="st9" d="M661.2,498.9l3.7-0.3c0.2,1.5,0.6,2.7,1.2,3.6c0.6,0.9,1.6,1.7,3,2.3c1.3,0.6,2.8,0.9,4.5,0.9
			c1.5,0,2.8-0.2,3.9-0.7c1.1-0.4,2-1,2.5-1.8s0.8-1.6,0.8-2.5c0-0.9-0.3-1.7-0.8-2.4c-0.5-0.7-1.4-1.3-2.6-1.7
			c-0.8-0.3-2.5-0.8-5.2-1.4s-4.6-1.3-5.7-1.8c-1.4-0.7-2.4-1.6-3.1-2.7c-0.7-1.1-1-2.3-1-3.7c0-1.5,0.4-2.9,1.3-4.2
			s2.1-2.3,3.7-2.9c1.6-0.7,3.4-1,5.4-1c2.2,0,4.1,0.4,5.8,1.1c1.7,0.7,2.9,1.7,3.8,3.1s1.4,2.9,1.4,4.6l-3.7,0.3
			c-0.2-1.9-0.9-3.3-2-4.2c-1.2-0.9-2.9-1.4-5.1-1.4c-2.3,0-4.1,0.4-5.1,1.3c-1.1,0.9-1.6,1.9-1.6,3.1c0,1.1,0.4,1.9,1.1,2.6
			c0.7,0.7,2.7,1.4,5.9,2.1c3.2,0.7,5.3,1.3,6.5,1.9c1.7,0.8,3,1.8,3.8,3c0.8,1.2,1.2,2.6,1.2,4.2c0,1.6-0.4,3-1.3,4.4
			c-0.9,1.4-2.2,2.5-3.9,3.2c-1.7,0.8-3.6,1.2-5.7,1.2c-2.7,0-4.9-0.4-6.7-1.2c-1.8-0.8-3.2-1.9-4.2-3.5
			C661.8,502.6,661.2,500.9,661.2,498.9z"/>
		<path id="XMLID_52_" class="st9" d="M671.1,548.4V519h3.9v29.3H671.1z"/>
	</g>
	<line id="XMLID_24_" class="st10" x1="478" y1="529" x2="478" y2="473"/>
</g>
<g id="Needles" class="st0">
	<linearGradient id="XMLID_181_" gradientUnits="userSpaceOnUse" x1="175" y1="506.4319" x2="478.0003" y2="506.4319">
		<stop  offset="0" style="stop-color:#FFFFFF"/>
		<stop  offset="1" style="stop-color:#DBDBDB"/>
	</linearGradient>
	<polyline id="XMLID_27_" class="st11" points="478,511 175,532.6 175,480.3 477.7,501.9 	"/>
	<polyline id="XMLID_3_" class="st12" points="524,501.9 827,480.3 827,532.6 524.3,511 	"/>
</g>
<g id="Top">
	<path id="XMLID_5_" class="st13" d="M302.9,98.8l0.1,802.5c0,0-246.1-111.9-246.1-401.3S302.9,98.8,302.9,98.8z"/>
	<path id="XMLID_4_" class="st13" d="M697,99.8l-0.1,802.5c0,0,246.1-111.9,246.1-401.3S697,99.8,697,99.8z"/>
	<g id="XMLID_42_">
		<rect id="XMLID_163_" x="185.7" y="291.9" class="st8" width="69.3" height="401.1"/>
		<path id="XMLID_44_" class="st9" d="M217.7,342v-44.2h-16.5v-5.9h39.7v5.9h-16.6V342H217.7z"/>
		<path id="XMLID_155_" class="st9" d="M202.5,454v-50.1h36.2v5.9h-29.6v15.3h27.7v5.9h-27.7v17.1h30.8v5.9H202.5z"/>
		<path id="XMLID_157_" class="st9" d="M196.4,566v-50.1h10l11.9,35.5c1.1,3.3,1.9,5.8,2.4,7.4c0.6-1.8,1.5-4.5,2.7-8l12-34.9h8.9
			V566h-6.4v-41.9L223.2,566h-6l-14.5-42.7V566H196.4z"/>
		<path id="XMLID_159_" class="st9" d="M203,678v-50.1h18.9c3.3,0,5.9,0.2,7.6,0.5c2.5,0.4,4.5,1.2,6.2,2.3c1.7,1.2,3,2.8,4,4.8
			c1,2.1,1.5,4.4,1.5,6.8c0,4.3-1.4,7.9-4.1,10.8c-2.7,3-7.6,4.4-14.7,4.4h-12.9V678H203z M209.7,651.7h13c4.3,0,7.3-0.8,9.1-2.4
			c1.8-1.6,2.7-3.8,2.7-6.7c0-2.1-0.5-3.9-1.6-5.4s-2.5-2.5-4.2-3c-1.1-0.3-3.2-0.4-6.2-0.4h-12.8V651.7z"/>
	</g>
	<g id="XMLID_43_">
		<rect id="XMLID_153_" x="734.3" y="268" class="st8" width="69.3" height="466.4"/>
		<path id="XMLID_69_" class="st9" d="M751.1,318.1V268H770c3.3,0,5.9,0.2,7.6,0.5c2.5,0.4,4.5,1.2,6.2,2.3c1.7,1.2,3,2.8,4,4.8
			c1,2.1,1.5,4.4,1.5,6.8c0,4.3-1.4,7.9-4.1,10.8c-2.7,3-7.6,4.4-14.7,4.4h-12.9v20.4H751.1z M757.7,291.8h13c4.3,0,7.3-0.8,9.1-2.4
			c1.8-1.6,2.7-3.8,2.7-6.7c0-2.1-0.5-3.9-1.6-5.4c-1.1-1.5-2.5-2.5-4.2-3c-1.1-0.3-3.2-0.4-6.2-0.4h-12.8V291.8z"/>
		<path id="XMLID_144_" class="st9" d="M749.2,419.1V369h22.2c4.5,0,7.9,0.5,10.2,1.4c2.3,0.9,4.2,2.5,5.6,4.8
			c1.4,2.3,2.1,4.8,2.1,7.6c0,3.6-1.2,6.6-3.5,9c-2.3,2.4-5.9,4-10.7,4.6c1.8,0.8,3.1,1.7,4,2.5c1.9,1.8,3.8,4,5.5,6.7l8.7,13.6H785
			l-6.6-10.4c-1.9-3-3.5-5.3-4.8-6.9c-1.3-1.6-2.4-2.7-3.4-3.3c-1-0.6-2-1.1-3-1.3c-0.8-0.2-2-0.2-3.7-0.2h-7.7v22.3H749.2z
			 M755.9,391.1h14.3c3,0,5.4-0.3,7.1-0.9c1.7-0.6,3-1.6,3.9-3c0.9-1.4,1.3-2.9,1.3-4.5c0-2.4-0.9-4.3-2.6-5.8
			c-1.7-1.5-4.4-2.3-8.2-2.3h-15.9V391.1z"/>
		<path id="XMLID_147_" class="st9" d="M751.2,520.1V470h36.2v5.9h-29.6v15.3h27.7v5.9h-27.7v17.1h30.8v5.9H751.2z"/>
		<path id="XMLID_149_" class="st9" d="M748.8,605l6.3-0.5c0.3,2.5,1,4.6,2.1,6.2c1.1,1.6,2.8,2.9,5,3.9c2.3,1,4.8,1.5,7.7,1.5
			c2.5,0,4.8-0.4,6.7-1.1s3.4-1.8,4.3-3.1c0.9-1.3,1.4-2.7,1.4-4.3c0-1.6-0.5-2.9-1.4-4.1c-0.9-1.2-2.4-2.2-4.5-3
			c-1.3-0.5-4.3-1.3-8.9-2.4c-4.6-1.1-7.8-2.1-9.7-3.1c-2.4-1.3-4.2-2.8-5.3-4.7c-1.2-1.9-1.8-3.9-1.8-6.2c0-2.5,0.7-4.9,2.2-7.1
			c1.4-2.2,3.5-3.9,6.3-5c2.8-1.1,5.8-1.7,9.2-1.7c3.7,0,7,0.6,9.8,1.8c2.8,1.2,5,3,6.5,5.3s2.3,5,2.5,7.9l-6.4,0.5
			c-0.3-3.2-1.5-5.6-3.5-7.2c-2-1.6-4.9-2.4-8.7-2.4c-4,0-6.9,0.7-8.8,2.2c-1.8,1.5-2.8,3.2-2.8,5.3c0,1.8,0.6,3.3,1.9,4.4
			c1.3,1.2,4.6,2.4,10,3.6c5.4,1.2,9.1,2.3,11.1,3.2c2.9,1.3,5.1,3,6.5,5.1c1.4,2.1,2.1,4.4,2.1,7.1c0,2.7-0.8,5.2-2.3,7.5
			c-1.5,2.4-3.7,4.2-6.6,5.5c-2.9,1.3-6.1,2-9.7,2c-4.5,0-8.3-0.7-11.4-2c-3.1-1.3-5.5-3.3-7.2-6S748.9,608.3,748.8,605z"/>
		<path id="XMLID_151_" class="st9" d="M748.8,706l6.3-0.5c0.3,2.5,1,4.6,2.1,6.2c1.1,1.6,2.8,2.9,5,3.9c2.3,1,4.8,1.5,7.7,1.5
			c2.5,0,4.8-0.4,6.7-1.1s3.4-1.8,4.3-3.1c0.9-1.3,1.4-2.7,1.4-4.3c0-1.6-0.5-2.9-1.4-4.1c-0.9-1.2-2.4-2.2-4.5-3
			c-1.3-0.5-4.3-1.3-8.9-2.4c-4.6-1.1-7.8-2.1-9.7-3.1c-2.4-1.3-4.2-2.8-5.3-4.7c-1.2-1.9-1.8-3.9-1.8-6.2c0-2.5,0.7-4.9,2.2-7.1
			c1.4-2.2,3.5-3.9,6.3-5c2.8-1.1,5.8-1.7,9.2-1.7c3.7,0,7,0.6,9.8,1.8c2.8,1.2,5,3,6.5,5.3s2.3,5,2.5,7.9l-6.4,0.5
			c-0.3-3.2-1.5-5.6-3.5-7.2c-2-1.6-4.9-2.4-8.7-2.4c-4,0-6.9,0.7-8.8,2.2c-1.8,1.5-2.8,3.2-2.8,5.3c0,1.8,0.6,3.3,1.9,4.4
			c1.3,1.2,4.6,2.4,10,3.6c5.4,1.2,9.1,2.3,11.1,3.2c2.9,1.3,5.1,3,6.5,5.1c1.4,2.1,2.1,4.4,2.1,7.1c0,2.7-0.8,5.2-2.3,7.5
			c-1.5,2.4-3.7,4.2-6.6,5.5c-2.9,1.3-6.1,2-9.7,2c-4.5,0-8.3-0.7-11.4-2c-3.1-1.3-5.5-3.3-7.2-6S748.9,709.3,748.8,706z"/>
	</g>
	<g id="XMLID_10_">
	</g>
	<g id="XMLID_41_">
	</g>
	<g id="XMLID_164_">
	</g>
	<g id="XMLID_168_">
	</g>
	<g id="XMLID_169_">
	</g>
	<g id="XMLID_170_">
	</g>
	<g id="XMLID_171_">
	</g>
	<g id="XMLID_172_">
	</g>
	<g id="XMLID_173_">
	</g>
	<g id="XMLID_174_">
	</g>
	<g id="XMLID_175_">
	</g>
	<g id="XMLID_176_">
	</g>
	<g id="XMLID_177_">
	</g>
	<g id="XMLID_178_">
	</g>
	<g id="XMLID_179_">
	</g>
</g>
</svg>
