<?xml version="1.0" encoding="utf-8"?>
<!-- Generator: Adobe Illustrator 19.0.0, SVG Export Plug-In . SVG Version: 6.00 Build 0)  -->
<svg version="1.1" xmlns="http://www.w3.org/2000/svg" xmlns:xlink="http://www.w3.org/1999/xlink" x="0px" y="0px"
	 viewBox="0 0 279.4 279.4" style="enable-background:new 0 0 279.4 279.4;" xml:space="preserve">
<style type="text/css">
	.st0{display:none;}
	.st1{display:inline;}
	.st2{fill:#212121;}
	.st3{fill:url(#path7250_2_);stroke:#010101;}
	.st4{fill:#010101;}
	.st5{fill:url(#path7183_2_);}
	.st6{fill:none;stroke:#010101;stroke-width:0.6;}
	.st7{fill:none;stroke:#010101;stroke-width:0.3;}
	.st8{fill:none;stroke:url(#path7220_2_);stroke-width:0.8342;}
	.st9{fill:#1A1A1A;stroke:url(#circle7224_2_);}
	.st10{fill:url(#circle7226_2_);stroke:#010101;stroke-width:0.8594;}
	.st11{fill:none;stroke:#FFFFFF;}
	.st12{fill:url(#circle7254_2_);stroke:#010101;stroke-width:0.5;}
	.st13{fill:url(#circle7261_2_);stroke:#010101;stroke-width:0.5;}
	.st14{fill:url(#circle7268_2_);stroke:#010101;stroke-width:0.5;}
	.st15{display:inline;fill:none;stroke:#FFFFFF;stroke-width:4;}
	.st16{fill:none;}
	.st17{fill:#B46027;}
	.st18{display:inline;fill:none;stroke:#FFFFFF;}
	.st19{display:inline;fill:#FFFFFF;}
	.st20{display:inline;fill:none;stroke:#FFFFFF;stroke-width:2;}
	.st21{fill:#FFFFFF;}
	.st22{fill:#F15A29;}
	.st23{fill:#58595B;}
	.st24{fill:#202020;}
	.st25{fill:#353535;}
	.st26{fill:none;stroke:#FFFFFF;stroke-width:3;}
	.st27{fill:none;stroke:#000000;stroke-width:3;}
	.st28{fill:#D7DF23;stroke:#D7DF23;stroke-miterlimit:10;}
	.st29{fill:#D7DF23;stroke:#D7DF23;}
	.st30{fill:none;stroke:#FFFFFF;stroke-width:1.5;}
</style>
<g id="Base" class="st0">
	<g id="Background" class="st1">
		<path id="circle8194_1_" class="st2" d="M140.7,8.5C68.1,8.5,9.2,67.4,9.2,140c0,72.6,58.9,131.5,131.5,131.5
			c72.6,0,131.5-58.9,131.5-131.5C272.1,67.4,213.3,8.5,140.7,8.5z"/>
		
			<radialGradient id="path7250_2_" cx="771.468" cy="446.2323" r="279.7212" gradientTransform="matrix(-0.8277 0 0 0.8277 778.2643 -229.6243)" gradientUnits="userSpaceOnUse">
			<stop  offset="0" style="stop-color:#969696"/>
			<stop  offset="1" style="stop-color:#010101"/>
		</radialGradient>
		<path id="path7250_1_" class="st3" d="M139.8,0.5L139.8,0.5C62.9,0.5,0.5,62.9,0.5,139.7c0,76.9,62.4,139.3,139.3,139.3
			c76.8,0,139.2-62.4,139.2-139.3C278.9,62.9,216.7,0.5,139.8,0.5L139.8,0.5z M263.9,139.8c0,68.5-55.6,124.1-124.1,124.1
			c-68.5,0-124.1-55.6-124.1-124.1c0-68.5,55.6-124.1,124.1-124.1C208.3,15.6,263.9,71.1,263.9,139.8z"/>
	</g>
	<g id="Knob" class="st1">
		<polygon id="rect7162_1_" class="st4" points="15.7,253.3 29.4,267 60.2,236.2 46.5,222.5 		"/>
		
			<radialGradient id="path7183_2_" cx="703.9766" cy="963.1224" r="37.4708" gradientTransform="matrix(-0.3579 -0.2721 -0.2611 0.3434 531.1324 100.6965)" gradientUnits="userSpaceOnUse">
			<stop  offset="0" style="stop-color:#5E5F5F"/>
			<stop  offset="1" style="stop-color:#272727"/>
		</radialGradient>
		<path id="path7183_1_" class="st5" d="M9.2,254.2v5.5h37.6v-5.5c0-10.4-8.4-18.8-18.8-18.8C17.6,235.4,9.2,243.9,9.2,254.2
			L9.2,254.2z"/>
		<path id="path7185_1_" class="st6" d="M28.3,235.4v5.3"/>
		<g id="g7187_1_" transform="matrix(1.9999996,0,0,1.9999996,-39.145782,-371.62038)">
			<path id="path7190_1_" class="st7" d="M32.3,303.5v2.7"/>
			<path id="path7192_1_" class="st7" d="M30.9,303.8v2.7"/>
			<path id="path7194_1_" class="st7" d="M29.3,304.5v2.7"/>
			<path id="path7197_1_" class="st7" d="M27.8,305.3v2.7"/>
			<path id="path7199_1_" class="st7" d="M26.7,306.4v2.7"/>
			<path id="path7201_1_" class="st7" d="M25.5,308.1v2.7"/>
		</g>
		<g id="g7203_1_" transform="matrix(-1.9999996,0,0,1.9999996,1326.5078,-370.77607)">
			<path id="path7206_1_" class="st7" d="M647.8,303.1v3.1"/>
			<path id="path7208_1_" class="st7" d="M646.3,303.5v2.9"/>
			<path id="path7211_1_" class="st7" d="M644.8,304.1v2.9"/>
			<path id="path7213_1_" class="st7" d="M643.3,305.3v2.7"/>
			<path id="path7215_1_" class="st7" d="M642.1,306.4v2.7"/>
			<path id="path7218_1_" class="st7" d="M641,308.1v2.7"/>
		</g>
		
			<radialGradient id="path7220_2_" cx="1177.3214" cy="1242.9751" r="36.3276" gradientTransform="matrix(-0.4878 0 0 0.3149 602.2567 -144.4484)" gradientUnits="userSpaceOnUse">
			<stop  offset="0" style="stop-color:#5E5F5F"/>
			<stop  offset="1" style="stop-color:#272727"/>
		</radialGradient>
		<path id="path7220_1_" class="st8" d="M9.7,253.4v5.3h36.5v-5.3c0-10.1-8.2-18.3-18.3-18.3C17.7,235.1,9.7,243.4,9.7,253.4z"/>
		<g id="g7222_1_" transform="matrix(1.9999996,0,0,1.9999996,-35.222901,-365.00075)">
			
				<linearGradient id="circle7224_2_" gradientUnits="userSpaceOnUse" x1="285.9546" y1="406.2796" x2="355.4523" y2="406.2796" gradientTransform="matrix(-1.0024 0 0 1.0024 326.9245 -95.3053)">
				<stop  offset="0" style="stop-color:#202020"/>
				<stop  offset="1" style="stop-color:#5E5E5E"/>
			</linearGradient>
			<path id="circle7224_1_" class="st9" d="M31.6,303.1c-4.9,0-8.9,4-8.9,8.9c0,4.9,4,8.9,8.9,8.9c4.9,0,8.9-4,8.9-8.9
				C40.5,307.1,36.5,303.1,31.6,303.1z"/>
			
				<radialGradient id="circle7226_2_" cx="280.7698" cy="404.9035" r="32.1978" gradientTransform="matrix(-1.0024 0 0 1.0024 313.0163 -93.9268)" gradientUnits="userSpaceOnUse">
				<stop  offset="0" style="stop-color:#191919"/>
				<stop  offset="1" style="stop-color:#010101;stop-opacity:0"/>
			</radialGradient>
			<circle id="circle7226_1_" class="st10" cx="31.6" cy="311.9" r="7.6"/>
		</g>
		<circle class="st11" cx="28" cy="259.7" r="15.3"/>
	</g>
	<g id="Screws" class="st1">
		<g id="g7252_1_" transform="matrix(1.9999996,0,0,1.9999996,269.41922,-370.73392)">
			
				<radialGradient id="circle7254_2_" cx="-108.2473" cy="291.9502" r="25.0266" gradientTransform="matrix(-1.0024 0 0 1.0024 -115.7326 -94.0876)" gradientUnits="userSpaceOnUse">
				<stop  offset="0" style="stop-color:#BCB8AE"/>
				<stop  offset="1" style="stop-color:#605B50"/>
			</radialGradient>
			<path id="circle7254_1_" class="st12" d="M-7.2,192.4c-3.4,0-6.1,2.7-6.1,6.1c0,3.4,2.7,6.1,6.1,6.1c3.4,0,6.1-2.7,6.1-6.1
				C-1.1,195.2-3.8,192.4-7.2,192.4z"/>
			<path id="path7257_1_" class="st4" d="M-8.9,194.9l2.1,2.4l2.7-1.2l0.5,0.9l-2.2,2l1.1,2.9l-0.9,0.5l-2-2.3l-2.8,1.1l-0.5-0.9
				l2.2-1.9l-1.2-3L-8.9,194.9z"/>
		</g>
		<g id="g7259_1_" transform="matrix(1.9999996,0,0,-1.9999996,269.4192,-0.63523096)">
			
				<radialGradient id="circle7261_2_" cx="-108.2473" cy="-433.0105" r="25.0303" gradientTransform="matrix(-1.0024 0 0 1.0024 -115.7325 306.7443)" gradientUnits="userSpaceOnUse">
				<stop  offset="0" style="stop-color:#BCB8AE"/>
				<stop  offset="1" style="stop-color:#605B50"/>
			</radialGradient>
			<path id="circle7261_1_" class="st13" d="M-7.2-133.4c-3.4,0-6.1,2.7-6.1,6.1c0,3.4,2.7,6.1,6.1,6.1c3.4,0,6.1-2.7,6.1-6.1
				C-1.1-130.7-3.8-133.4-7.2-133.4z"/>
			<path id="path7264_1_" class="st4" d="M-8.9-131l2.1,2.4l2.7-1.2l0.5,0.9l-2.2,2l1.1,2.9l-0.9,0.5l-2-2.3l-2.8,1.1l-0.5-0.9
				l2.2-1.9l-1.2-3L-8.9-131z"/>
		</g>
		<g id="g7266_1_" transform="matrix(-1.9999996,0,0,1.9999996,786.56235,-370.7339)">
			
				<radialGradient id="circle7268_2_" cx="358.1868" cy="291.9502" r="25.0462" gradientTransform="matrix(-1.0024 0 0 1.0024 740.0603 -94.0876)" gradientUnits="userSpaceOnUse">
				<stop  offset="0" style="stop-color:#BCB8AE"/>
				<stop  offset="1" style="stop-color:#605B50"/>
			</radialGradient>
			<path id="circle7268_1_" class="st14" d="M381,192.4c-3.4,0-6.1,2.7-6.1,6.1c0,3.4,2.7,6.1,6.1,6.1c3.4,0,6.1-2.7,6.1-6.1
				C387.1,195.2,384.4,192.4,381,192.4z"/>
			<path id="path7271_1_" class="st4" d="M379.3,194.9l2.1,2.4l2.7-1.2l0.5,0.9l-2.2,2l1.1,2.9l-0.9,0.5l-2-2.3l-2.8,1.1l-0.5-0.9
				l2.2-1.9l-1.2-3L379.3,194.9z"/>
		</g>
	</g>
	<circle class="st15" cx="139.7" cy="139.7" r="124.2"/>
	<g class="st1">
		<rect x="14.1" y="255.1" class="st16" width="27.6" height="13.2"/>
		<path class="st17" d="M17.5,258.7c0-0.7,0.1-1.3,0.3-1.8c0.2-0.4,0.4-0.7,0.7-1s0.6-0.5,0.9-0.6c0.4-0.2,1-0.3,1.5-0.3
			c1.1,0,1.9,0.3,2.5,1s0.9,1.6,0.9,2.7c0,1.2-0.3,2.1-0.9,2.7c-0.6,0.7-1.5,1-2.5,1c-1.1,0-1.9-0.3-2.5-1
			C17.8,260.8,17.5,259.9,17.5,258.7z M19,258.7c0,0.8,0.2,1.4,0.6,1.8c0.4,0.4,0.8,0.6,1.4,0.6s1-0.2,1.4-0.6
			c0.4-0.4,0.6-1,0.6-1.9c0-0.8-0.2-1.4-0.5-1.8s-0.8-0.6-1.4-0.6s-1.1,0.2-1.4,0.6C19.2,257.2,19,257.9,19,258.7z"/>
		<path class="st17" d="M25.6,255.1h2.9c0.6,0,1,0,1.3,0.1c0.3,0,0.5,0.1,0.7,0.3s0.4,0.3,0.5,0.6c0.1,0.2,0.2,0.5,0.2,0.8
			c0,0.3-0.1,0.6-0.3,0.9s-0.4,0.5-0.7,0.6c0.4,0.1,0.8,0.3,1,0.6s0.4,0.7,0.4,1.1c0,0.3-0.1,0.6-0.2,1c-0.2,0.3-0.4,0.6-0.6,0.7
			c-0.3,0.2-0.6,0.3-1,0.3c-0.2,0-0.8,0-1.7,0h-2.4V255.1z M27,256.3v1.7H28c0.6,0,0.9,0,1,0c0.2,0,0.4-0.1,0.6-0.3
			c0.1-0.1,0.2-0.3,0.2-0.6c0-0.2-0.1-0.4-0.2-0.5c-0.1-0.1-0.3-0.2-0.5-0.3c-0.1,0-0.6,0-1.2,0H27z M27,259.2v1.9h1.3
			c0.5,0,0.9,0,1,0c0.2,0,0.4-0.1,0.5-0.3c0.1-0.2,0.2-0.4,0.2-0.6c0-0.2-0.1-0.4-0.2-0.5s-0.3-0.3-0.5-0.3s-0.6-0.1-1.3-0.1H27z"/>
		<path class="st17" d="M32.4,259.9l1.4-0.1c0.1,0.5,0.3,0.8,0.5,1s0.6,0.3,1,0.3c0.5,0,0.8-0.1,1.1-0.3c0.2-0.2,0.4-0.4,0.4-0.7
			c0-0.2,0-0.3-0.1-0.4c-0.1-0.1-0.3-0.2-0.5-0.3c-0.2-0.1-0.6-0.2-1.2-0.3c-0.8-0.2-1.3-0.4-1.6-0.7c-0.4-0.4-0.7-0.9-0.7-1.4
			c0-0.4,0.1-0.7,0.3-1c0.2-0.3,0.5-0.6,0.9-0.7s0.9-0.2,1.4-0.2c0.9,0,1.6,0.2,2,0.6s0.7,0.9,0.7,1.6l-1.4,0.1
			c-0.1-0.4-0.2-0.6-0.4-0.8c-0.2-0.2-0.5-0.2-0.9-0.2c-0.4,0-0.7,0.1-1,0.3c-0.2,0.1-0.2,0.3-0.2,0.4c0,0.2,0.1,0.3,0.2,0.4
			c0.2,0.2,0.6,0.3,1.3,0.5s1.2,0.3,1.6,0.5c0.3,0.2,0.6,0.4,0.8,0.7c0.2,0.3,0.3,0.7,0.3,1.1c0,0.4-0.1,0.8-0.3,1.2s-0.6,0.6-1,0.8
			c-0.4,0.2-0.9,0.3-1.6,0.3c-0.9,0-1.6-0.2-2.1-0.6C32.8,261.4,32.5,260.7,32.4,259.9z"/>
	</g>
</g>
<g id="Center" class="st0">
	<circle class="st18" cx="139.7" cy="139.7" r="5.3"/>
	<path class="st1" d="M151.1,47.1c0,0-1,9.4-11.1,9.4c-9.3,0-11.1-9.4-11.1-9.4l11.1-1.5L151.1,47.1z"/>
	<path class="st1" d="M47,128.9c0,0,9.4,1,9.4,11.1c0,9.3-9.4,11.1-9.4,11.1L45.5,140L47,128.9z"/>
	<circle class="st19" cx="139.7" cy="159.7" r="2.5"/>
	<circle class="st19" cx="151.7" cy="139.7" r="2.5"/>
	<circle class="st19" cx="127.7" cy="139.7" r="2.5"/>
	<circle class="st19" cx="115.7" cy="139.7" r="2.5"/>
	<circle class="st19" cx="103.7" cy="139.7" r="2.5"/>
	<circle class="st19" cx="91.7" cy="139.7" r="2.5"/>
	<circle class="st19" cx="79.7" cy="139.7" r="2.5"/>
	<circle class="st19" cx="163.7" cy="139.7" r="2.5"/>
	<circle class="st19" cx="175.7" cy="139.7" r="2.5"/>
	<circle class="st19" cx="187.7" cy="139.7" r="2.5"/>
	<circle class="st19" cx="199.7" cy="139.7" r="2.5"/>
	<circle class="st19" cx="139.7" cy="179.7" r="2.5"/>
	<circle class="st19" cx="139.7" cy="119.7" r="2.5"/>
	<circle class="st19" cx="139.7" cy="99.7" r="2.5"/>
	<line class="st20" x1="200.2" y1="171.8" x2="206.4" y2="173.2"/>
	<line class="st20" x1="190" y1="202.8" x2="195.8" y2="205.4"/>
	<line class="st20" x1="199.9" y1="107.1" x2="206.1" y2="105.7"/>
	<line class="st20" x1="189.5" y1="76.2" x2="195.3" y2="73.6"/>
	<g class="st1">
		<path class="st21" d="M107,210.5v-6.4h0.9l3.4,5.1v-5.1h0.8v6.4h-0.9l-3.4-5.1v5.1H107z"/>
		<path class="st21" d="M112.8,210.5l2.5-6.4h0.9l2.6,6.4h-1l-0.8-2h-2.7l-0.7,2H112.8z M114.6,207.9h2.2l-0.7-1.8
			c-0.2-0.5-0.4-1-0.5-1.3c-0.1,0.4-0.2,0.8-0.3,1.2L114.6,207.9z"/>
		<path class="st21" d="M120.6,210.5l-2.5-6.4h0.9l1.7,4.7c0.1,0.4,0.2,0.7,0.3,1.1c0.1-0.4,0.2-0.7,0.3-1.1l1.7-4.7h0.9l-2.5,6.4
			H120.6z"/>
	</g>
	<g class="st1">
		<path class="st21" d="M162.4,120.5v-0.8l2.7,0v2.4c-0.4,0.3-0.9,0.6-1.3,0.8c-0.4,0.2-0.9,0.3-1.4,0.3c-0.6,0-1.2-0.1-1.7-0.4
			c-0.5-0.3-0.9-0.7-1.2-1.2c-0.3-0.5-0.4-1.1-0.4-1.7c0-0.6,0.1-1.2,0.4-1.8c0.3-0.5,0.6-0.9,1.1-1.2s1.1-0.4,1.7-0.4
			c0.5,0,0.9,0.1,1.3,0.2c0.4,0.2,0.7,0.4,0.9,0.6s0.4,0.6,0.5,1.1l-0.8,0.2c-0.1-0.3-0.2-0.6-0.4-0.8s-0.3-0.3-0.6-0.5
			c-0.3-0.1-0.6-0.2-0.9-0.2c-0.4,0-0.7,0.1-1,0.2c-0.3,0.1-0.5,0.3-0.7,0.5c-0.2,0.2-0.3,0.4-0.4,0.6c-0.2,0.4-0.2,0.8-0.2,1.3
			c0,0.6,0.1,1.1,0.3,1.4c0.2,0.4,0.5,0.7,0.9,0.9c0.4,0.2,0.8,0.3,1.2,0.3c0.4,0,0.7-0.1,1.1-0.2c0.4-0.1,0.6-0.3,0.8-0.5v-1.2
			H162.4z"/>
		<path class="st21" d="M166.1,120.9l0.8-0.1c0,0.3,0.1,0.6,0.3,0.8c0.1,0.2,0.4,0.4,0.6,0.5c0.3,0.1,0.6,0.2,1,0.2
			c0.3,0,0.6,0,0.9-0.1c0.3-0.1,0.4-0.2,0.6-0.4c0.1-0.2,0.2-0.4,0.2-0.6c0-0.2-0.1-0.4-0.2-0.5c-0.1-0.2-0.3-0.3-0.6-0.4
			c-0.2-0.1-0.6-0.2-1.1-0.3c-0.6-0.1-1-0.3-1.2-0.4c-0.3-0.2-0.5-0.4-0.7-0.6c-0.2-0.2-0.2-0.5-0.2-0.8c0-0.3,0.1-0.6,0.3-0.9
			c0.2-0.3,0.5-0.5,0.8-0.6s0.7-0.2,1.2-0.2c0.5,0,0.9,0.1,1.3,0.2c0.4,0.2,0.6,0.4,0.8,0.7s0.3,0.6,0.3,1l-0.8,0.1
			c0-0.4-0.2-0.7-0.4-0.9s-0.6-0.3-1.1-0.3c-0.5,0-0.9,0.1-1.1,0.3c-0.2,0.2-0.4,0.4-0.4,0.7c0,0.2,0.1,0.4,0.3,0.6
			c0.2,0.1,0.6,0.3,1.3,0.5c0.7,0.2,1.2,0.3,1.4,0.4c0.4,0.2,0.7,0.4,0.8,0.7c0.2,0.3,0.3,0.6,0.3,0.9c0,0.3-0.1,0.7-0.3,1
			c-0.2,0.3-0.5,0.5-0.8,0.7c-0.4,0.2-0.8,0.3-1.2,0.3c-0.6,0-1.1-0.1-1.5-0.3c-0.4-0.2-0.7-0.4-0.9-0.8
			C166.2,121.7,166.1,121.4,166.1,120.9z"/>
	</g>
</g>
<g id="Nav_Flag" class="st0">
	<g class="st1">
		<rect x="128.7" y="205.8" class="st21" width="21.3" height="4.3"/>
		<polygon class="st22" points="128.7,210.1 131.5,210.1 134.1,205.8 131.3,205.8 		"/>
		<polygon class="st22" points="134.1,210.1 136.8,210.1 139.4,205.8 136.6,205.8 		"/>
		<polygon class="st22" points="139.4,210.2 142.1,210.2 144.7,205.9 142,205.9 		"/>
		<polygon class="st22" points="144.7,210.1 147.4,210.1 150,205.8 147.3,205.8 		"/>
	</g>
	<g class="st1">
		<rect x="128.8" y="201.5" class="st23" width="21.3" height="4.3"/>
		<g>
			<path class="st21" d="M137.9,205.2v-2.4h-0.8v-0.5h2.3v0.5h-0.8v2.4H137.9z"/>
			<path class="st21" d="M139.5,203.8c0-0.3,0-0.5,0.1-0.7c0.1-0.1,0.2-0.3,0.3-0.4s0.2-0.2,0.4-0.3c0.2-0.1,0.4-0.1,0.6-0.1
				c0.4,0,0.8,0.1,1,0.4s0.4,0.6,0.4,1.1c0,0.5-0.1,0.8-0.4,1.1s-0.6,0.4-1,0.4c-0.4,0-0.8-0.1-1-0.4S139.5,204.2,139.5,203.8z
				 M140.1,203.8c0,0.3,0.1,0.6,0.2,0.7s0.3,0.3,0.6,0.3s0.4-0.1,0.6-0.2s0.2-0.4,0.2-0.7c0-0.3-0.1-0.6-0.2-0.7s-0.3-0.2-0.6-0.2
				s-0.4,0.1-0.6,0.2S140.1,203.4,140.1,203.8z"/>
		</g>
	</g>
	<g class="st1">
		<rect x="128.8" y="210.1" class="st23" width="21.3" height="4.3"/>
		<g>
			<path class="st21" d="M134.2,213.8v-2.9h2v0.5h-1.4v0.7h1.2v0.5h-1.2v1.2H134.2z"/>
			<path class="st21" d="M136.6,213.8v-2.9h1.2c0.3,0,0.5,0,0.7,0.1s0.2,0.1,0.3,0.3s0.1,0.3,0.1,0.5c0,0.2-0.1,0.4-0.2,0.5
				s-0.3,0.2-0.6,0.3c0.1,0.1,0.2,0.2,0.3,0.2s0.2,0.2,0.3,0.5l0.3,0.6h-0.7l-0.4-0.6c-0.1-0.2-0.3-0.4-0.3-0.4s-0.1-0.1-0.2-0.1
				s-0.2,0-0.3,0h-0.1v1.2H136.6z M137.2,212.1h0.4c0.3,0,0.5,0,0.5,0s0.1-0.1,0.2-0.1s0.1-0.1,0.1-0.2c0-0.1,0-0.2-0.1-0.2
				s-0.1-0.1-0.2-0.1c0,0-0.2,0-0.4,0h-0.5V212.1z"/>
			<path class="st21" d="M139.4,212.4c0-0.3,0-0.5,0.1-0.7c0.1-0.1,0.2-0.3,0.3-0.4s0.2-0.2,0.4-0.3c0.2-0.1,0.4-0.1,0.6-0.1
				c0.4,0,0.8,0.1,1,0.4s0.4,0.6,0.4,1.1c0,0.5-0.1,0.8-0.4,1.1s-0.6,0.4-1,0.4c-0.4,0-0.8-0.1-1-0.4S139.4,212.8,139.4,212.4z
				 M140,212.4c0,0.3,0.1,0.6,0.2,0.7s0.3,0.3,0.6,0.3s0.4-0.1,0.6-0.2s0.2-0.4,0.2-0.7c0-0.3-0.1-0.6-0.2-0.7s-0.3-0.2-0.6-0.2
				s-0.4,0.1-0.6,0.2S140,212,140,212.4z"/>
			<path class="st21" d="M142.6,213.8v-2.9h0.9l0.5,2l0.5-2h0.9v2.9h-0.5v-2.3l-0.6,2.3h-0.6l-0.6-2.3v2.3H142.6z"/>
		</g>
	</g>
</g>
<g id="Nav_Mask">
	<rect x="128.8" y="201.5" width="21.4" height="4.3"/>
	<rect x="128.8" y="210.1" width="21.4" height="4.3"/>
	<rect x="128.8" y="197.1" class="st24" width="21.4" height="4.3"/>
	<rect x="128.8" y="214.4" class="st24" width="21.4" height="4.3"/>
</g>
<g id="GS_Flag" class="st0">
	<g class="st1">
		<rect x="174.5" y="117.6" class="st21" width="21.3" height="4.3"/>
		<polygon class="st22" points="174.5,121.9 177.2,121.9 179.8,117.6 177.1,117.6 		"/>
		<polygon class="st22" points="179.8,121.9 182.6,121.9 185.1,117.6 182.4,117.6 		"/>
		<polygon class="st22" points="185.1,121.9 187.9,121.9 190.5,117.6 187.7,117.6 		"/>
		<polygon class="st22" points="190.5,121.9 193.2,121.9 195.8,117.6 193,117.6 		"/>
	</g>
	<g class="st1">
		<rect x="174.5" y="113.3" class="st25" width="21.3" height="4.3"/>
	</g>
</g>
<g id="GS_Mask">
	<rect x="174.5" y="113.3" width="21.4" height="4.3"/>
	<rect x="174.4" y="121.9" width="21.4" height="4.3"/>
	<rect x="174.5" y="109" class="st24" width="21.4" height="4.3"/>
	<rect x="174.5" y="126.2" class="st24" width="21.4" height="4.3"/>
</g>
<g id="Horiz_Needle" class="st0">
	<g class="st1">
		<line class="st26" x1="50.9" y1="139.7" x2="199.7" y2="139.7"/>
		<line class="st27" x1="50.9" y1="139.7" x2="66.7" y2="139.7"/>
	</g>
	<line class="st20" x1="203.5" y1="139.4" x2="209.8" y2="139.4"/>
	<path class="st19" d="M139.7,48.3"/>
</g>
<g id="Vert_Needle" class="st0">
	<g class="st1">
		<line class="st26" x1="139.7" y1="50.9" x2="139.7" y2="199.7"/>
		<line class="st27" x1="139.7" y1="50.9" x2="139.7" y2="66.7"/>
	</g>
</g>
<g id="Arrow_1_" class="st0">
	<g class="st1">
		<polygon class="st28" points="135.5,56 139.8,48.6 144.1,56 		"/>
		<line class="st29" x1="139.8" y1="55.2" x2="139.7" y2="47.1"/>
	</g>
</g>
<g id="Ring" class="st0">
	<circle class="st18" cx="139.7" cy="139.7" r="93.8"/>
	<g id="_x39_0_deg" class="st1">
		<line class="st26" x1="139.7" y1="39.3" x2="139.7" y2="45.9"/>
		<line class="st26" x1="39.3" y1="139.7" x2="45.9" y2="139.7"/>
		<line class="st26" x1="139.7" y1="240.1" x2="139.7" y2="233.5"/>
		<line class="st26" x1="240.1" y1="139.7" x2="233.5" y2="139.7"/>
	</g>
	<g id="_x33_0_deg" class="st1">
		<line class="st30" x1="88.2" y1="50.5" x2="92.8" y2="58.5"/>
		<line class="st30" x1="50.5" y1="88.2" x2="58.5" y2="92.8"/>
		<path class="st30" d="M45.9,139.7"/>
		<line class="st30" x1="50.5" y1="191.2" x2="58.5" y2="186.6"/>
		<line class="st30" x1="88.2" y1="228.9" x2="92.8" y2="220.9"/>
		<line class="st30" x1="191.2" y1="228.9" x2="186.6" y2="220.9"/>
		<line class="st30" x1="228.9" y1="191.2" x2="220.9" y2="186.6"/>
		<line class="st30" x1="228.9" y1="88.2" x2="220.9" y2="92.8"/>
		<line class="st30" x1="191.2" y1="50.5" x2="186.6" y2="58.5"/>
	</g>
	<g id="_x31_0_deg" class="st1">
		<line class="st30" x1="121" y1="33.6" x2="123.4" y2="47.4"/>
		<line class="st30" x1="102.9" y1="38.5" x2="107.6" y2="51.6"/>
		<line class="st30" x1="70.5" y1="57.2" x2="79.4" y2="67.9"/>
		<line class="st30" x1="57.2" y1="70.5" x2="67.9" y2="79.5"/>
		<line class="st30" x1="38.5" y1="102.9" x2="51.6" y2="107.7"/>
		<line class="st30" x1="33.6" y1="121" x2="47.4" y2="123.5"/>
		<line class="st30" x1="33.6" y1="158.4" x2="47.4" y2="156"/>
		<line class="st30" x1="38.5" y1="176.6" x2="51.6" y2="171.8"/>
		<line class="st30" x1="57.2" y1="209" x2="67.9" y2="200"/>
		<line class="st30" x1="70.5" y1="222.2" x2="79.5" y2="211.6"/>
		<line class="st30" x1="102.9" y1="240.9" x2="107.7" y2="227.8"/>
		<line class="st30" x1="121" y1="245.8" x2="123.5" y2="232.1"/>
		<line class="st30" x1="158.4" y1="245.8" x2="156" y2="232.1"/>
		<line class="st30" x1="176.6" y1="240.9" x2="171.8" y2="227.8"/>
		<line class="st30" x1="209" y1="222.2" x2="200" y2="211.5"/>
		<line class="st30" x1="222.2" y1="209" x2="211.6" y2="200"/>
		<line class="st30" x1="240.9" y1="176.6" x2="227.8" y2="171.8"/>
		<line class="st30" x1="245.8" y1="158.4" x2="232.1" y2="156"/>
		<line class="st30" x1="245.8" y1="121" x2="232.1" y2="123.4"/>
		<line class="st30" x1="240.9" y1="102.9" x2="227.8" y2="107.6"/>
		<line class="st30" x1="222.2" y1="70.5" x2="211.5" y2="79.4"/>
		<line class="st30" x1="209" y1="57.2" x2="200" y2="67.9"/>
		<line class="st30" x1="176.6" y1="38.5" x2="171.8" y2="51.6"/>
		<line class="st30" x1="158.4" y1="33.6" x2="156" y2="47.4"/>
	</g>
	<g id="_x35__deg" class="st1">
		<line class="st30" x1="139.8" y1="40.5" x2="139.7" y2="45.9"/>
		<line class="st30" x1="131.1" y1="40.9" x2="131.6" y2="46.3"/>
		<line class="st30" x1="122.5" y1="42" x2="123.5" y2="47.4"/>
		<line class="st30" x1="114.1" y1="43.9" x2="115.5" y2="49.1"/>
		<line class="st30" x1="105.8" y1="46.5" x2="107.7" y2="51.6"/>
		<line class="st30" x1="97.8" y1="49.8" x2="100.1" y2="54.7"/>
		<line class="st30" x1="90.1" y1="53.8" x2="92.8" y2="58.5"/>
		<line class="st30" x1="82.8" y1="58.4" x2="85.9" y2="62.9"/>
		<line class="st30" x1="76" y1="63.7" x2="79.5" y2="67.9"/>
		<line class="st30" x1="69.6" y1="69.5" x2="73.4" y2="73.4"/>
		<line class="st30" x1="63.7" y1="75.9" x2="67.9" y2="79.4"/>
		<line class="st30" x1="58.5" y1="82.8" x2="62.9" y2="85.9"/>
		<line class="st30" x1="53.8" y1="90.1" x2="58.5" y2="92.8"/>
		<line class="st30" x1="49.8" y1="97.7" x2="54.7" y2="100.1"/>
		<line class="st30" x1="46.5" y1="105.7" x2="51.6" y2="107.6"/>
		<line class="st30" x1="43.9" y1="114" x2="49.1" y2="115.4"/>
		<line class="st30" x1="42" y1="122.4" x2="47.4" y2="123.4"/>
		<line class="st30" x1="40.9" y1="131" x2="46.3" y2="131.5"/>
		<line class="st30" x1="40.5" y1="139.7" x2="45.9" y2="139.7"/>
		<line class="st30" x1="40.9" y1="148.3" x2="46.3" y2="147.9"/>
		<line class="st30" x1="42" y1="156.9" x2="47.4" y2="156"/>
		<line class="st30" x1="43.9" y1="165.4" x2="49.1" y2="164"/>
		<line class="st30" x1="46.5" y1="173.6" x2="51.6" y2="171.8"/>
		<line class="st30" x1="49.8" y1="181.6" x2="54.7" y2="179.3"/>
		<line class="st30" x1="53.8" y1="189.3" x2="58.5" y2="186.6"/>
		<line class="st30" x1="58.4" y1="196.6" x2="62.9" y2="193.5"/>
		<line class="st30" x1="63.7" y1="203.5" x2="67.9" y2="200"/>
		<line class="st30" x1="69.5" y1="209.8" x2="73.4" y2="206"/>
		<line class="st30" x1="75.9" y1="215.7" x2="79.4" y2="211.5"/>
		<line class="st30" x1="82.8" y1="221" x2="85.9" y2="216.5"/>
		<line class="st30" x1="90.1" y1="225.6" x2="92.8" y2="220.9"/>
		<line class="st30" x1="97.7" y1="229.6" x2="100.1" y2="224.7"/>
		<line class="st30" x1="105.7" y1="232.9" x2="107.6" y2="227.8"/>
		<line class="st30" x1="114" y1="235.6" x2="115.4" y2="230.3"/>
		<line class="st30" x1="122.4" y1="237.4" x2="123.4" y2="232.1"/>
		<line class="st30" x1="131" y1="238.6" x2="131.5" y2="233.1"/>
		<line class="st30" x1="139.7" y1="238.9" x2="139.7" y2="233.5"/>
		<line class="st30" x1="148.3" y1="238.6" x2="147.9" y2="233.1"/>
		<line class="st30" x1="156.9" y1="237.4" x2="156" y2="232.1"/>
		<line class="st30" x1="165.4" y1="235.6" x2="164" y2="230.3"/>
		<line class="st30" x1="173.6" y1="233" x2="171.8" y2="227.9"/>
		<line class="st30" x1="181.6" y1="229.7" x2="179.3" y2="224.7"/>
		<line class="st30" x1="189.3" y1="225.7" x2="186.6" y2="221"/>
		<line class="st30" x1="196.6" y1="221" x2="193.5" y2="216.6"/>
		<line class="st30" x1="203.5" y1="215.8" x2="200" y2="211.6"/>
		<line class="st30" x1="209.8" y1="209.9" x2="206" y2="206.1"/>
		<line class="st30" x1="215.7" y1="203.5" x2="211.5" y2="200"/>
		<line class="st30" x1="221" y1="196.7" x2="216.5" y2="193.5"/>
		<line class="st30" x1="225.6" y1="189.4" x2="220.9" y2="186.6"/>
		<line class="st30" x1="229.6" y1="181.7" x2="224.7" y2="179.4"/>
		<line class="st30" x1="232.9" y1="173.7" x2="227.8" y2="171.8"/>
		<line class="st30" x1="235.5" y1="165.4" x2="230.3" y2="164"/>
		<line class="st30" x1="237.4" y1="157" x2="232.1" y2="156"/>
		<line class="st30" x1="238.6" y1="148.4" x2="233.1" y2="147.9"/>
		<line class="st30" x1="238.9" y1="139.8" x2="233.5" y2="139.7"/>
		<line class="st30" x1="238.6" y1="131.1" x2="233.1" y2="131.6"/>
		<line class="st30" x1="237.4" y1="122.5" x2="232.1" y2="123.5"/>
		<line class="st30" x1="235.6" y1="114.1" x2="230.3" y2="115.5"/>
		<line class="st30" x1="233" y1="105.8" x2="227.8" y2="107.7"/>
		<line class="st30" x1="229.7" y1="97.8" x2="224.7" y2="100.1"/>
		<line class="st30" x1="225.7" y1="90.1" x2="220.9" y2="92.9"/>
		<line class="st30" x1="221" y1="82.8" x2="216.6" y2="86"/>
		<line class="st30" x1="215.8" y1="76" x2="211.6" y2="79.5"/>
		<line class="st30" x1="209.9" y1="69.6" x2="206" y2="73.4"/>
		<line class="st30" x1="203.5" y1="63.7" x2="200" y2="67.9"/>
		<line class="st30" x1="196.7" y1="58.5" x2="193.5" y2="62.9"/>
		<line class="st30" x1="189.4" y1="53.8" x2="186.6" y2="58.5"/>
		<line class="st30" x1="181.7" y1="49.8" x2="179.4" y2="54.7"/>
		<line class="st30" x1="173.7" y1="46.5" x2="171.8" y2="51.6"/>
		<line class="st30" x1="165.4" y1="43.9" x2="164" y2="49.1"/>
		<line class="st30" x1="157" y1="42" x2="156" y2="47.4"/>
		<line class="st30" x1="148.4" y1="40.9" x2="147.9" y2="46.3"/>
	</g>
	<g id="Labels" class="st1">
		<g>
			<rect x="131.1" y="23.5" class="st16" width="17.8" height="15"/>
			<path class="st21" d="M135.1,35.7V23.5h2.4l5,8.1v-8.1h2.3v12.2h-2.5l-4.9-7.9v7.9H135.1z"/>
		</g>
		<g>
			<rect x="74.5" y="37.9" transform="matrix(0.866 -0.5 0.5 0.866 -11.2421 48.8866)" class="st16" width="22.2" height="15"/>
			<path class="st21" d="M78.8,51.1l1.2-0.9c0.6,0.6,1.1,1,1.7,1.1c0.5,0.1,1.1,0,1.6-0.3c0.6-0.4,1-0.9,1.2-1.5
				c0.2-0.7,0.1-1.3-0.3-1.9c-0.3-0.6-0.8-1-1.4-1.1c-0.6-0.2-1.2-0.1-1.8,0.3c-0.2,0.1-0.5,0.4-0.8,0.7l-0.5-1.2
				c0.1,0,0.2-0.1,0.2-0.1c0.6-0.3,1-0.7,1.2-1.3c0.3-0.5,0.2-1.1-0.1-1.7c-0.3-0.5-0.7-0.8-1.2-0.9s-1,0-1.5,0.3
				c-0.5,0.3-0.8,0.7-1,1.2s-0.1,1.1,0.2,1.8L76,45.9c-0.3-1-0.4-1.8-0.1-2.6c0.3-0.8,0.8-1.4,1.7-1.9c0.6-0.3,1.2-0.5,1.8-0.5
				s1.2,0.1,1.7,0.4c0.5,0.3,0.9,0.7,1.2,1.1c0.3,0.5,0.4,0.9,0.4,1.5c0,0.5-0.2,1-0.6,1.5c0.7-0.2,1.4-0.2,2,0.1
				c0.6,0.3,1.1,0.7,1.5,1.4c0.5,0.9,0.6,1.9,0.3,2.9c-0.3,1-1,1.8-2,2.4c-0.9,0.5-1.9,0.7-2.8,0.5C80.1,52.4,79.4,51.9,78.8,51.1z"
				/>
			<path class="st21" d="M87,46.4l1.2-0.9c0.6,0.6,1.1,1,1.7,1.1c0.5,0.1,1.1,0,1.6-0.3c0.6-0.4,1-0.9,1.2-1.5
				c0.2-0.7,0.1-1.3-0.3-1.9c-0.3-0.6-0.8-1-1.4-1.1c-0.6-0.2-1.2-0.1-1.8,0.3c-0.2,0.1-0.5,0.4-0.8,0.7l-0.5-1.2
				c0.1,0,0.2-0.1,0.2-0.1c0.6-0.3,1-0.7,1.2-1.3s0.2-1.1-0.1-1.7c-0.3-0.5-0.7-0.8-1.2-0.9c-0.5-0.1-1,0-1.5,0.3
				c-0.5,0.3-0.8,0.7-1,1.2c-0.2,0.5-0.1,1.1,0.2,1.8l-1.4,0.5c-0.3-1-0.4-1.8-0.1-2.6s0.8-1.4,1.7-1.9c0.6-0.3,1.2-0.5,1.8-0.5
				c0.6,0,1.2,0.1,1.7,0.4c0.5,0.3,0.9,0.7,1.2,1.1c0.3,0.5,0.4,0.9,0.4,1.5c0,0.5-0.2,1-0.6,1.5c0.7-0.2,1.4-0.2,2,0.1
				c0.6,0.3,1.1,0.7,1.5,1.4c0.5,0.9,0.6,1.9,0.3,2.9c-0.3,1-1,1.8-2,2.4c-0.9,0.5-1.9,0.7-2.8,0.5C88.3,47.7,87.6,47.2,87,46.4z"/>
		</g>
		<g>
			<rect x="34" y="77.6" transform="matrix(0.5 -0.866 0.866 0.5 -50.8617 82.1364)" class="st16" width="23.5" height="15"/>
			<path class="st21" d="M42.6,93.4l0.6-1.4c0.8,0.3,1.5,0.3,2,0.2c0.5-0.2,0.9-0.5,1.2-1c0.4-0.6,0.4-1.2,0.3-1.9
				c-0.2-0.7-0.6-1.2-1.2-1.5c-0.6-0.3-1.2-0.4-1.8-0.3c-0.6,0.2-1.1,0.5-1.4,1.1c-0.1,0.2-0.3,0.6-0.4,1l-1.1-0.8
				c0.1-0.1,0.1-0.1,0.1-0.2c0.3-0.6,0.5-1.1,0.4-1.7c0-0.6-0.3-1.1-0.9-1.4c-0.5-0.3-1-0.3-1.5-0.2c-0.5,0.1-0.9,0.5-1.2,1
				c-0.3,0.5-0.4,1-0.3,1.5c0.1,0.5,0.5,1,1,1.5l-1,1.2c-0.8-0.7-1.2-1.4-1.4-2.2c-0.2-0.8,0-1.7,0.5-2.5c0.3-0.6,0.8-1,1.3-1.4
				c0.5-0.3,1.1-0.5,1.7-0.5c0.6,0,1.1,0.1,1.6,0.4c0.5,0.3,0.8,0.6,1,1.1c0.2,0.5,0.3,1,0.3,1.6c0.5-0.5,1.1-0.9,1.7-0.9
				c0.7-0.1,1.3,0.1,2,0.5c0.9,0.5,1.5,1.3,1.8,2.4c0.3,1,0.1,2.1-0.5,3.1c-0.5,0.9-1.3,1.5-2.2,1.8C44.5,93.9,43.6,93.8,42.6,93.4z
				"/>
			<path class="st21" d="M44.9,83.8c-1.2-0.7-2.2-1.4-2.8-2.1c-0.6-0.7-1-1.4-1.1-2.2c-0.1-0.7,0-1.5,0.5-2.3c0.3-0.6,0.7-1,1.2-1.3
				c0.5-0.3,1-0.5,1.6-0.5c0.6,0,1.2,0.1,1.9,0.3s1.6,0.6,2.6,1.2c1.2,0.7,2.2,1.4,2.8,2.1c0.6,0.7,1,1.4,1.1,2.2
				c0.1,0.7,0,1.5-0.5,2.3c-0.6,1-1.4,1.6-2.5,1.8C48.5,85.4,46.9,84.9,44.9,83.8z M45.7,82.5c1.7,1,3,1.5,3.8,1.4
				c0.8-0.1,1.4-0.4,1.7-1c0.3-0.6,0.3-1.3,0-2s-1.4-1.6-3.1-2.6c-1.7-1-3-1.5-3.8-1.4c-0.8,0.1-1.4,0.4-1.7,1
				c-0.3,0.6-0.4,1.2-0.1,1.9C42.9,80.6,44,81.5,45.7,82.5z"/>
		</g>
		<g>
			<rect x="23.5" y="130.6" class="st16" width="15" height="17.8"/>
			<path class="st21" d="M35.7,144.5l-12.2,2.9v-2.5l8.4-1.8l-8.4-2.2v-2.9l8.5-2.1l-8.5-1.9v-2.5l12.2,3v2.6l-9.1,2.4l9.1,2.4
				V144.5z"/>
		</g>
		<g>
			<rect x="32.7" y="186.3" transform="matrix(-0.5 -0.866 0.866 -0.5 -99.749 330.0908)" class="st16" width="25.4" height="15"/>
			<path class="st21" d="M48.7,193l1.2-0.7l4,7c-0.3,0.2-0.6,0.3-1,0.4c-0.6,0.1-1.2,0.1-1.9,0c-0.7-0.1-1.5-0.4-2.6-0.8
				c-1.6-0.6-2.8-0.9-3.6-1s-1.4,0-1.9,0.3c-0.5,0.3-0.8,0.7-1,1.3c-0.1,0.6,0,1.2,0.3,1.7c0.4,0.6,0.8,1,1.4,1.2
				c0.6,0.2,1.2,0,1.9-0.3l0.6,1.4c-1,0.5-2,0.6-2.9,0.3c-0.9-0.3-1.6-0.9-2.2-1.9c-0.6-1-0.8-2-0.5-2.9c0.2-0.9,0.7-1.6,1.6-2.1
				c0.4-0.2,0.9-0.4,1.4-0.5s1.1,0,1.8,0.1c0.7,0.1,1.7,0.4,3,0.9c1.1,0.4,1.8,0.6,2.2,0.7c0.4,0.1,0.7,0.1,1,0.1L48.7,193z"/>
			<path class="st21" d="M46.8,186.7l-2.5,1.5l2.6,4.6l-1.2,0.7l-9.6-0.9l-0.6-1.1l6.8-3.9l-0.8-1.4l1.2-0.7l0.8,1.4l2.5-1.5
				L46.8,186.7z M43,188.9l-4.8,2.7l6.7,0.6L43,188.9z"/>
		</g>
		<g>
			<rect x="70.7" y="226.2" transform="matrix(-0.866 -0.5 0.5 -0.866 41.9494 478.7241)" class="st16" width="28.7" height="15"/>
			<path class="st21" d="M87.5,231.4l0.7-1.2l7,4c-0.2,0.3-0.4,0.6-0.7,0.8c-0.5,0.4-1,0.7-1.7,0.9c-0.7,0.2-1.5,0.4-2.6,0.6
				c-1.7,0.3-2.9,0.6-3.6,0.9c-0.7,0.3-1.2,0.7-1.5,1.2c-0.3,0.5-0.4,1.1-0.2,1.6c0.2,0.6,0.5,1,1.1,1.4c0.6,0.4,1.2,0.5,1.8,0.3
				c0.6-0.2,1.1-0.6,1.5-1.2l1.3,0.9c-0.7,0.9-1.4,1.5-2.3,1.7c-0.9,0.2-1.8,0-2.8-0.6c-1-0.6-1.6-1.3-1.9-2.2
				c-0.3-0.9-0.2-1.8,0.3-2.6c0.2-0.4,0.6-0.8,1-1.1s0.9-0.6,1.6-0.8c0.7-0.2,1.7-0.5,3.1-0.7c1.2-0.2,1.9-0.4,2.3-0.5
				s0.7-0.2,1-0.4L87.5,231.4z"/>
			<path class="st21" d="M81.9,226.5l1.3,0.7l-4.8,8.2c0.5-0.1,1.1-0.2,1.7-0.2c0.7,0,1.3,0,1.7,0.1l-0.7,1.3
				c-0.9-0.1-1.8,0-2.6,0.1c-0.8,0.2-1.5,0.4-2,0.7l-0.8-0.5L81.9,226.5z"/>
		</g>
		<g>
			<rect x="130.6" y="240.9" class="st16" width="17.8" height="15"/>
			<path class="st21" d="M144.5,247.7l-2.4,0.2c-0.1-0.8-0.4-1.4-0.9-1.8c-0.4-0.4-1-0.6-1.8-0.6c-0.8,0-1.4,0.2-1.8,0.5
				c-0.4,0.3-0.6,0.7-0.6,1.2c0,0.3,0.1,0.5,0.3,0.7c0.2,0.2,0.5,0.4,0.9,0.5c0.3,0.1,0.9,0.3,2,0.5c1.3,0.3,2.2,0.7,2.8,1.2
				c0.7,0.7,1.1,1.5,1.1,2.4c0,0.6-0.2,1.2-0.5,1.7c-0.4,0.5-0.9,1-1.5,1.2c-0.7,0.3-1.5,0.4-2.4,0.4c-1.5,0-2.7-0.3-3.4-1
				c-0.8-0.7-1.2-1.6-1.2-2.7l2.5-0.1c0.1,0.6,0.3,1.1,0.7,1.3c0.3,0.3,0.9,0.4,1.6,0.4c0.7,0,1.3-0.1,1.7-0.4
				c0.3-0.2,0.4-0.4,0.4-0.8c0-0.3-0.1-0.5-0.4-0.7c-0.3-0.3-1.1-0.5-2.3-0.8s-2.1-0.6-2.7-0.9c-0.6-0.3-1-0.7-1.3-1.2
				c-0.3-0.5-0.5-1.2-0.5-1.9c0-0.7,0.2-1.3,0.6-2s0.9-1.1,1.6-1.4c0.7-0.3,1.6-0.4,2.6-0.4c1.5,0,2.7,0.4,3.5,1.1
				S144.3,246.4,144.5,247.7z"/>
		</g>
		<g>
			<rect x="180.9" y="226.5" transform="matrix(-0.866 0.5 -0.5 -0.866 478.724 339.7645)" class="st16" width="25.9" height="15"/>
			<path class="st21" d="M194.2,228.4l1.3-0.7l4.8,8.2c0.1-0.5,0.4-1,0.7-1.6c0.3-0.6,0.7-1.1,1-1.5l0.7,1.3
				c-0.5,0.8-0.9,1.5-1.2,2.3c-0.3,0.8-0.4,1.5-0.3,2.1l-0.8,0.5L194.2,228.4z"/>
			<path class="st21" d="M192.5,233.1l-1.3,0.9c-0.5-0.6-1-1-1.6-1.1c-0.6-0.1-1.1,0-1.6,0.3c-0.6,0.4-1,0.9-1.2,1.6
				c-0.2,0.7,0,1.5,0.4,2.2c0.4,0.7,1,1.2,1.6,1.4c0.7,0.2,1.3,0.1,2-0.3c0.4-0.2,0.7-0.6,1-0.9c0.2-0.4,0.3-0.8,0.4-1.2l1.3-0.5
				l2.1,6l-5.2,3l-0.7-1.2l4.2-2.4l-1.1-3.2c-0.4,0.8-0.9,1.4-1.6,1.8c-0.9,0.5-1.9,0.7-2.9,0.4c-1-0.3-1.8-0.9-2.4-1.9
				c-0.5-1-0.7-1.9-0.6-3c0.2-1.2,0.9-2.2,2-2.9c1-0.6,1.9-0.7,2.8-0.5C191.1,231.7,191.9,232.2,192.5,233.1z"/>
		</g>
		<g>
			<rect x="220.7" y="186.8" transform="matrix(-0.5 0.866 -0.866 -0.5 518.903 89.0704)" class="st16" width="26.1" height="15"/>
			<path class="st21" d="M231.2,189.3l0.7-1.3l8.2,4.8c-0.1-0.5-0.2-1.1-0.2-1.7c0-0.7,0-1.3,0.1-1.7l1.3,0.7
				c-0.1,0.9,0,1.8,0.1,2.6c0.2,0.8,0.4,1.5,0.7,2l-0.5,0.8L231.2,189.3z"/>
			<path class="st21" d="M226.6,200.2l-1.2-0.7l4-7c0.3,0.2,0.6,0.4,0.8,0.7c0.4,0.5,0.7,1,0.9,1.7s0.4,1.5,0.6,2.6
				c0.3,1.7,0.6,2.9,0.9,3.6c0.3,0.7,0.7,1.2,1.2,1.5c0.5,0.3,1.1,0.4,1.6,0.2c0.6-0.2,1-0.5,1.4-1.1c0.4-0.6,0.5-1.2,0.3-1.8
				c-0.2-0.6-0.6-1.1-1.2-1.5l0.9-1.3c0.9,0.7,1.5,1.4,1.7,2.3c0.2,0.9,0,1.8-0.6,2.8c-0.6,1-1.3,1.6-2.2,1.9
				c-0.9,0.3-1.8,0.2-2.6-0.3c-0.4-0.2-0.8-0.6-1.1-1c-0.3-0.4-0.6-0.9-0.8-1.6c-0.2-0.7-0.5-1.7-0.7-3.1c-0.2-1.2-0.4-1.9-0.5-2.3
				c-0.1-0.4-0.2-0.7-0.4-1L226.6,200.2z"/>
		</g>
		<g>
			<rect x="240.9" y="131.1" class="st16" width="15" height="17.8"/>
			<path class="st21" d="M243.8,135.6h12.2v9h-2.1V138h-2.7v6.1h-2.1V138h-3.3v6.8h-2V135.6z"/>
		</g>
		<g>
			<rect x="225.1" y="78.1" transform="matrix(0.5 0.866 -0.866 0.5 191.1389 -159.8665)" class="st16" width="17.8" height="15"/>
			<path class="st21" d="M239.8,86.6l-0.8-1.2c0.4-0.4,0.7-0.8,0.8-1.1c0.2-0.6,0.1-1.1-0.2-1.6c-0.2-0.4-0.6-0.7-1-0.9
				c-0.5-0.2-1.2-0.3-1.9-0.2c-0.7,0.1-1.6,0.4-2.6,1c0.7,0,1.2,0.2,1.7,0.5c0.5,0.3,0.9,0.7,1.2,1.2c0.5,0.9,0.6,1.8,0.3,2.8
				c-0.3,1-0.9,1.8-1.9,2.3c-0.7,0.4-1.4,0.6-2.1,0.6c-0.7,0-1.4-0.1-2-0.4s-1.1-0.8-1.4-1.4c-0.6-1.1-0.7-2.2-0.3-3.3
				c0.4-1.1,1.5-2.2,3.3-3.3c2-1.2,3.7-1.7,5.1-1.4c1.2,0.2,2.1,0.8,2.7,2c0.5,0.8,0.6,1.6,0.5,2.4C241,85.3,240.5,86,239.8,86.6z
				 M232.2,84c-0.4,0.3-0.8,0.6-1.1,1c-0.3,0.4-0.5,0.9-0.5,1.3c0,0.5,0.1,0.9,0.3,1.3c0.3,0.5,0.8,0.9,1.5,1c0.7,0.1,1.4,0,2.1-0.4
				c0.7-0.4,1.2-0.9,1.4-1.6s0.1-1.2-0.2-1.8c-0.3-0.6-0.8-1-1.5-1.1C233.5,83.4,232.8,83.6,232.2,84z"/>
		</g>
		<g>
			<rect x="185.4" y="38.2" transform="matrix(0.866 0.5 -0.5 0.866 48.8831 -91.0379)" class="st16" width="17.8" height="15"/>
			<path class="st21" d="M190.2,45l1.4,0.6c-0.3,0.8-0.3,1.5-0.2,2c0.2,0.5,0.5,0.9,1,1.2c0.6,0.4,1.2,0.4,1.9,0.3
				c0.7-0.2,1.2-0.6,1.5-1.2c0.3-0.6,0.4-1.2,0.3-1.8c-0.2-0.6-0.5-1.1-1.1-1.4c-0.2-0.1-0.6-0.3-1-0.4l0.8-1.1
				c0.1,0.1,0.1,0.1,0.2,0.1c0.6,0.3,1.1,0.5,1.7,0.4c0.6,0,1.1-0.3,1.4-0.9c0.3-0.5,0.3-1,0.2-1.5c-0.1-0.5-0.5-0.9-1-1.2
				c-0.5-0.3-1-0.4-1.5-0.3c-0.5,0.1-1,0.5-1.5,1l-1.2-1c0.7-0.8,1.4-1.2,2.2-1.4s1.7,0,2.5,0.5c0.6,0.3,1,0.8,1.4,1.3
				c0.3,0.5,0.5,1.1,0.5,1.7c0,0.6-0.1,1.1-0.4,1.6c-0.3,0.5-0.6,0.8-1.1,1c-0.5,0.2-1,0.3-1.6,0.3c0.5,0.5,0.9,1.1,0.9,1.7
				s-0.1,1.3-0.5,2c-0.5,0.9-1.3,1.5-2.4,1.8c-1,0.3-2.1,0.1-3.1-0.5c-0.9-0.5-1.5-1.3-1.8-2.2C189.7,46.8,189.7,45.9,190.2,45z"/>
		</g>
	</g>
</g>
</svg>
