<?xml version="1.0" encoding="utf-8"?>
<!-- Generator: Adobe Illustrator 19.0.0, SVG Export Plug-In . SVG Version: 6.00 Build 0)  -->
<svg version="1.1" xmlns="http://www.w3.org/2000/svg" xmlns:xlink="http://www.w3.org/1999/xlink" x="0px" y="0px"
	 viewBox="0 0 279.4 279.4" style="enable-background:new 0 0 279.4 279.4;" xml:space="preserve">
<style type="text/css">
	.st0{display:none;}
	.st1{display:inline;fill:#212121;}
	.st2{display:inline;fill:url(#path7250_2_);stroke:#010101;}
	.st3{display:inline;}
	.st4{fill:url(#circle7254_2_);stroke:#010101;stroke-width:0.5;}
	.st5{fill:#010101;}
	.st6{fill:url(#circle7261_2_);stroke:#010101;stroke-width:0.5;}
	.st7{fill:url(#circle7268_2_);stroke:#010101;stroke-width:0.5;}
	.st8{fill:none;stroke:#FFFFFF;stroke-width:4;}
	.st9{display:inline;fill:none;stroke:#FFFFFF;}
	.st10{display:inline;fill:#FFFFFF;}
	.st11{display:inline;fill:none;stroke:#FFFFFF;stroke-width:2;}
	.st12{fill:#FFFFFF;}
	.st13{fill:#F15A29;}
	.st14{display:inline;fill:#58595B;}
	.st15{display:inline;fill:#202020;}
	.st16{display:inline;fill:#F15A29;}
	.st17{fill:#353535;}
	.st18{fill:none;stroke:#FFFFFF;stroke-width:3;}
	.st19{fill:none;stroke:#000000;stroke-width:3;}
	.st20{fill:#D7DF23;stroke:#D7DF23;stroke-miterlimit:10;}
	.st21{fill:#D7DF23;stroke:#D7DF23;}
	.st22{fill:none;stroke:#FFFFFF;stroke-width:1.5;}
	.st23{fill:none;}
</style>
<g id="Base" class="st0">
	<g id="Background">
		<path id="circle8194_1_" class="st1" d="M140.7,8.5C68.1,8.5,9.2,67.4,9.2,140c0,72.6,58.9,131.5,131.5,131.5
			c72.6,0,131.5-58.9,131.5-131.5C272.1,67.4,213.3,8.5,140.7,8.5z"/>
		
			<radialGradient id="path7250_2_" cx="771.468" cy="446.2323" r="279.7212" gradientTransform="matrix(-0.8277 0 0 0.8277 778.2643 -229.6243)" gradientUnits="userSpaceOnUse">
			<stop  offset="0" style="stop-color:#969696"/>
			<stop  offset="1" style="stop-color:#010101"/>
		</radialGradient>
		<path id="path7250_1_" class="st2" d="M139.8,0.5L139.8,0.5C62.9,0.5,0.5,62.9,0.5,139.7c0,76.9,62.4,139.3,139.3,139.3
			c76.8,0,139.2-62.4,139.2-139.3C278.9,62.9,216.7,0.5,139.8,0.5L139.8,0.5z M263.9,139.8c0,68.5-55.6,124.1-124.1,124.1
			c-68.5,0-124.1-55.6-124.1-124.1c0-68.5,55.6-124.1,124.1-124.1C208.3,15.6,263.9,71.1,263.9,139.8z"/>
	</g>
	<g id="Knob">
	</g>
	<g id="Screws">
		<g id="g7252_1_" transform="matrix(1.9999996,0,0,1.9999996,269.41922,-370.73392)" class="st3">
			
				<radialGradient id="circle7254_2_" cx="-108.2473" cy="291.9502" r="25.0266" gradientTransform="matrix(-1.0024 0 0 1.0024 -115.7326 -94.0876)" gradientUnits="userSpaceOnUse">
				<stop  offset="0" style="stop-color:#BCB8AE"/>
				<stop  offset="1" style="stop-color:#605B50"/>
			</radialGradient>
			<path id="circle7254_1_" class="st4" d="M-7.2,192.4c-3.4,0-6.1,2.7-6.1,6.1c0,3.4,2.7,6.1,6.1,6.1c3.4,0,6.1-2.7,6.1-6.1
				C-1.1,195.2-3.8,192.4-7.2,192.4z"/>
			<path id="path7257_1_" class="st5" d="M-8.9,194.9l2.1,2.4l2.7-1.2l0.5,0.9l-2.2,2l1.1,2.9l-0.9,0.5l-2-2.3l-2.8,1.1l-0.5-0.9
				l2.2-1.9l-1.2-3L-8.9,194.9z"/>
		</g>
		<g id="g7259_1_" transform="matrix(1.9999996,0,0,-1.9999996,269.4192,-0.63523096)" class="st3">
			
				<radialGradient id="circle7261_2_" cx="-108.2473" cy="-433.0105" r="25.0303" gradientTransform="matrix(-1.0024 0 0 1.0024 -115.7325 306.7443)" gradientUnits="userSpaceOnUse">
				<stop  offset="0" style="stop-color:#BCB8AE"/>
				<stop  offset="1" style="stop-color:#605B50"/>
			</radialGradient>
			<path id="circle7261_1_" class="st6" d="M-7.2-133.4c-3.4,0-6.1,2.7-6.1,6.1c0,3.4,2.7,6.1,6.1,6.1c3.4,0,6.1-2.7,6.1-6.1
				C-1.1-130.7-3.8-133.4-7.2-133.4z"/>
			<path id="path7264_1_" class="st5" d="M-8.9-131l2.1,2.4l2.7-1.2l0.5,0.9l-2.2,2l1.1,2.9l-0.9,0.5l-2-2.3l-2.8,1.1l-0.5-0.9
				l2.2-1.9l-1.2-3L-8.9-131z"/>
		</g>
		<g id="g7266_1_" transform="matrix(-1.9999996,0,0,1.9999996,786.56235,-370.7339)" class="st3">
			
				<radialGradient id="circle7268_2_" cx="358.1868" cy="291.9502" r="25.0462" gradientTransform="matrix(-1.0024 0 0 1.0024 740.0603 -94.0876)" gradientUnits="userSpaceOnUse">
				<stop  offset="0" style="stop-color:#BCB8AE"/>
				<stop  offset="1" style="stop-color:#605B50"/>
			</radialGradient>
			<path id="circle7268_1_" class="st7" d="M381,192.4c-3.4,0-6.1,2.7-6.1,6.1c0,3.4,2.7,6.1,6.1,6.1c3.4,0,6.1-2.7,6.1-6.1
				C387.1,195.2,384.4,192.4,381,192.4z"/>
			<path id="path7271_1_" class="st5" d="M379.3,194.9l2.1,2.4l2.7-1.2l0.5,0.9l-2.2,2l1.1,2.9l-0.9,0.5l-2-2.3l-2.8,1.1l-0.5-0.9
				l2.2-1.9l-1.2-3L379.3,194.9z"/>
		</g>
	</g>
	<circle class="st8" cx="139.7" cy="139.7" r="124.2"/>
</g>
<g id="Center" class="st0">
	<circle class="st9" cx="139.7" cy="139.7" r="5.3"/>
	<path class="st3" d="M151.1,47.1c0,0-1,9.4-11.1,9.4c-9.3,0-11.1-9.4-11.1-9.4l11.1-1.5L151.1,47.1z"/>
	<path class="st3" d="M47,128.9c0,0,9.4,1,9.4,11.1c0,9.3-9.4,11.1-9.4,11.1L45.5,140L47,128.9z"/>
	<circle class="st10" cx="139.7" cy="159.7" r="2.5"/>
	<circle class="st10" cx="151.7" cy="139.7" r="2.5"/>
	<circle class="st10" cx="127.7" cy="139.7" r="2.5"/>
	<circle class="st10" cx="115.7" cy="139.7" r="2.5"/>
	<circle class="st10" cx="103.7" cy="139.7" r="2.5"/>
	<circle class="st10" cx="91.7" cy="139.7" r="2.5"/>
	<circle class="st10" cx="79.7" cy="139.7" r="2.5"/>
	<circle class="st10" cx="163.7" cy="139.7" r="2.5"/>
	<circle class="st10" cx="175.7" cy="139.7" r="2.5"/>
	<circle class="st10" cx="187.7" cy="139.7" r="2.5"/>
	<circle class="st10" cx="199.7" cy="139.7" r="2.5"/>
	<circle class="st10" cx="139.7" cy="179.7" r="2.5"/>
	<circle class="st10" cx="139.7" cy="119.7" r="2.5"/>
	<circle class="st10" cx="139.7" cy="99.7" r="2.5"/>
	<line class="st11" x1="200.2" y1="171.8" x2="206.4" y2="173.2"/>
	<line class="st11" x1="190" y1="202.8" x2="195.8" y2="205.4"/>
	<line class="st11" x1="199.9" y1="107.1" x2="206.1" y2="105.7"/>
	<line class="st11" x1="189.5" y1="76.2" x2="195.3" y2="73.6"/>
	<g class="st3">
		<path class="st12" d="M94.8,219.7v-8.6h1.2l4.5,6.7v-6.7h1.1v8.6h-1.2l-4.5-6.8v6.8H94.8z"/>
		<path class="st12" d="M102.5,219.7l3.3-8.6h1.2l3.5,8.6h-1.3l-1-2.6h-3.6l-0.9,2.6H102.5z M105,216.2h2.9l-0.9-2.4
			c-0.3-0.7-0.5-1.3-0.6-1.8c-0.1,0.6-0.3,1.1-0.5,1.6L105,216.2z"/>
		<path class="st12" d="M113,219.7l-3.3-8.6h1.2l2.2,6.2c0.2,0.5,0.3,1,0.5,1.4c0.1-0.5,0.3-0.9,0.5-1.4l2.3-6.2h1.2l-3.4,8.6H113z"
			/>
	</g>
	<g class="st3">
		<path class="st12" d="M169.4,94.8v-1l3.6,0V97c-0.6,0.4-1.1,0.8-1.7,1s-1.2,0.3-1.8,0.3c-0.8,0-1.6-0.2-2.3-0.5s-1.2-0.9-1.6-1.6
			s-0.5-1.4-0.5-2.3c0-0.8,0.2-1.6,0.5-2.3s0.9-1.3,1.5-1.6s1.4-0.5,2.3-0.5c0.6,0,1.2,0.1,1.7,0.3s0.9,0.5,1.2,0.8s0.5,0.8,0.7,1.4
			l-1,0.3c-0.1-0.4-0.3-0.8-0.5-1s-0.5-0.5-0.8-0.6s-0.8-0.2-1.2-0.2c-0.5,0-1,0.1-1.3,0.2s-0.7,0.4-0.9,0.6s-0.4,0.5-0.5,0.8
			c-0.2,0.5-0.3,1.1-0.3,1.7c0,0.8,0.1,1.4,0.4,1.9s0.6,0.9,1.2,1.1s1,0.4,1.6,0.4c0.5,0,1-0.1,1.4-0.3s0.8-0.4,1.1-0.6v-1.6H169.4z
			"/>
		<path class="st12" d="M174.4,95.4l1.1-0.1c0.1,0.4,0.2,0.8,0.4,1.1s0.5,0.5,0.9,0.7s0.8,0.3,1.3,0.3c0.4,0,0.8-0.1,1.1-0.2
			s0.6-0.3,0.7-0.5s0.2-0.5,0.2-0.7c0-0.3-0.1-0.5-0.2-0.7s-0.4-0.4-0.8-0.5c-0.2-0.1-0.7-0.2-1.5-0.4s-1.3-0.4-1.7-0.5
			c-0.4-0.2-0.7-0.5-0.9-0.8s-0.3-0.7-0.3-1.1c0-0.4,0.1-0.8,0.4-1.2s0.6-0.7,1.1-0.9s1-0.3,1.6-0.3c0.6,0,1.2,0.1,1.7,0.3
			s0.9,0.5,1.1,0.9s0.4,0.8,0.4,1.4l-1.1,0.1c-0.1-0.5-0.3-1-0.6-1.2s-0.8-0.4-1.5-0.4c-0.7,0-1.2,0.1-1.5,0.4s-0.5,0.6-0.5,0.9
			c0,0.3,0.1,0.6,0.3,0.8c0.2,0.2,0.8,0.4,1.7,0.6s1.6,0.4,1.9,0.5c0.5,0.2,0.9,0.5,1.1,0.9s0.4,0.8,0.4,1.2c0,0.5-0.1,0.9-0.4,1.3
			s-0.6,0.7-1.1,0.9s-1,0.3-1.7,0.3c-0.8,0-1.4-0.1-2-0.3s-0.9-0.6-1.2-1S174.4,96,174.4,95.4z"/>
	</g>
</g>
<g id="Nav_Flag" class="st0">
	<g class="st3">
		<rect x="119.6" y="211.4" class="st12" width="41.9" height="8.5"/>
		<polygon class="st13" points="119.6,219.8 125,219.8 130.1,211.4 124.7,211.4 		"/>
		<polygon class="st13" points="130.1,219.8 135.5,219.8 140.6,211.3 135.2,211.3 		"/>
		<polygon class="st13" points="140.6,219.9 145.9,219.9 151,211.4 145.6,211.4 		"/>
		<polygon class="st13" points="151,219.8 156.4,219.8 161.5,211.4 156.1,211.4 		"/>
	</g>
	<rect x="119.8" y="202.8" class="st14" width="41.9" height="8.6"/>
	<rect x="119.7" y="219.8" class="st14" width="41.8" height="8.4"/>
	<g class="st3">
		<path class="st12" d="M135.4,226.6v-5.6h3.9v1h-2.7v1.3h2.3v1h-2.3v2.4H135.4z"/>
		<path class="st12" d="M140.2,226.6v-5.6h2.4c0.6,0,1,0.1,1.3,0.2c0.3,0.1,0.5,0.3,0.7,0.5c0.2,0.3,0.2,0.6,0.2,0.9
			c0,0.4-0.1,0.8-0.4,1c-0.2,0.3-0.6,0.4-1.1,0.5c0.2,0.1,0.4,0.3,0.6,0.5c0.2,0.2,0.4,0.5,0.6,0.9l0.7,1.1h-1.4l-0.8-1.2
			c-0.3-0.4-0.5-0.7-0.6-0.8c-0.1-0.1-0.2-0.2-0.3-0.2c-0.1,0-0.3-0.1-0.6-0.1h-0.2v2.3H140.2z M141.3,223.3h0.8c0.5,0,0.9,0,1-0.1
			c0.1,0,0.2-0.1,0.3-0.2c0.1-0.1,0.1-0.3,0.1-0.4c0-0.2-0.1-0.3-0.2-0.5c-0.1-0.1-0.2-0.2-0.4-0.2c-0.1,0-0.4,0-0.8,0h-0.9V223.3z"
			/>
		<path class="st12" d="M145.6,223.8c0-0.6,0.1-1.1,0.3-1.4c0.1-0.3,0.3-0.5,0.5-0.8s0.5-0.4,0.7-0.5c0.4-0.1,0.8-0.2,1.2-0.2
			c0.8,0,1.5,0.3,2,0.8s0.7,1.2,0.7,2.1c0,0.9-0.2,1.6-0.7,2.1c-0.5,0.5-1.2,0.8-2,0.8c-0.8,0-1.5-0.3-2-0.8
			C145.8,225.4,145.6,224.7,145.6,223.8z M146.8,223.8c0,0.6,0.1,1.1,0.4,1.4c0.3,0.3,0.7,0.5,1.1,0.5c0.5,0,0.8-0.2,1.1-0.5
			c0.3-0.3,0.4-0.8,0.4-1.5c0-0.6-0.1-1.1-0.4-1.4c-0.3-0.3-0.7-0.5-1.1-0.5c-0.5,0-0.8,0.2-1.1,0.5S146.8,223.1,146.8,223.8z"/>
		<path class="st12" d="M151.9,226.6v-5.6h1.7l1,3.8l1-3.8h1.7v5.6h-1.1v-4.4l-1.1,4.4h-1.1l-1.1-4.4v4.4H151.9z"/>
	</g>
	<g class="st3">
		<path class="st12" d="M143,209.8v-4.7h-1.7v-1h4.5v1h-1.7v4.7H143z"/>
		<path class="st12" d="M146.1,207.1c0-0.6,0.1-1.1,0.3-1.4c0.1-0.3,0.3-0.5,0.5-0.8s0.5-0.4,0.7-0.5c0.4-0.1,0.8-0.2,1.2-0.2
			c0.8,0,1.5,0.3,2,0.8s0.7,1.2,0.7,2.1c0,0.9-0.2,1.6-0.7,2.1c-0.5,0.5-1.2,0.8-2,0.8c-0.8,0-1.5-0.3-2-0.8
			C146.4,208.7,146.1,207.9,146.1,207.1z M147.3,207c0,0.6,0.1,1.1,0.4,1.4c0.3,0.3,0.7,0.5,1.1,0.5c0.5,0,0.8-0.2,1.1-0.5
			c0.3-0.3,0.4-0.8,0.4-1.5c0-0.6-0.1-1.1-0.4-1.4s-0.7-0.5-1.1-0.5c-0.5,0-0.8,0.2-1.1,0.5S147.3,206.4,147.3,207z"/>
	</g>
	<polygon class="st10" points="125,210.1 128.4,204.3 131.7,210.1 	"/>
	<polygon class="st10" points="131.6,221.1 128.2,226.9 124.9,221.1 	"/>
</g>
<g id="Nav_Mask" class="st0">
	<rect x="119.7" y="194.3" class="st15" width="42" height="8.5"/>
	<rect x="119.7" y="228.3" class="st15" width="42" height="8.5"/>
</g>
<g id="GS_Flag">
	<g class="st0">
		<rect x="153.2" y="107.7" class="st10" width="40" height="8.1"/>
		<polygon class="st16" points="153.2,115.7 158.4,115.7 163.2,107.7 158.1,107.7 		"/>
		<polygon class="st16" points="163.2,115.7 168.3,115.7 173.2,107.6 168,107.6 		"/>
		<polygon class="st16" points="173.2,115.8 178.3,115.8 183.2,107.7 178,107.7 		"/>
		<polygon class="st16" points="183.2,115.7 188.3,115.7 193.1,107.6 188,107.6 		"/>
	</g>
	<g>
		<rect x="153.2" y="107.7" class="st17" width="40" height="8.1"/>
	</g>
</g>
<g id="GS_Mask" class="st0">
	<rect x="153.2" y="99.6" class="st3" width="40.1" height="8.1"/>
	<rect x="153.2" y="99.6" class="st15" width="40.1" height="8.1"/>
	<rect x="153.2" y="123.9" class="st15" width="40.1" height="8.1"/>
</g>
<g id="Horiz_Needle" class="st0">
	<g class="st3">
		<line class="st18" x1="50.9" y1="139.7" x2="199.7" y2="139.7"/>
		<line class="st19" x1="50.9" y1="139.7" x2="66.7" y2="139.7"/>
	</g>
	<line class="st11" x1="203.5" y1="139.4" x2="209.8" y2="139.4"/>
	<path class="st10" d="M139.7,48.3"/>
</g>
<g id="Vert_Needle" class="st0">
	<g class="st3">
		<line class="st18" x1="139.7" y1="50.9" x2="139.7" y2="199.7"/>
		<line class="st19" x1="139.7" y1="50.9" x2="139.7" y2="66.7"/>
	</g>
</g>
<g id="Arrow_1_" class="st0">
	<g class="st3">
		<polygon class="st20" points="135.5,56 139.8,48.6 144.1,56 		"/>
		<line class="st21" x1="139.8" y1="55.2" x2="139.7" y2="47.1"/>
	</g>
</g>
<g id="Ring" class="st0">
	<circle class="st9" cx="139.7" cy="139.7" r="93.8"/>
	<g id="_x39_0_deg" class="st3">
		<line class="st18" x1="139.7" y1="39.3" x2="139.7" y2="45.9"/>
		<line class="st18" x1="39.3" y1="139.7" x2="45.9" y2="139.7"/>
		<line class="st18" x1="139.7" y1="240.1" x2="139.7" y2="233.5"/>
		<line class="st18" x1="240.1" y1="139.7" x2="233.5" y2="139.7"/>
	</g>
	<g id="_x33_0_deg" class="st3">
		<line class="st22" x1="88.2" y1="50.5" x2="92.8" y2="58.5"/>
		<line class="st22" x1="50.5" y1="88.2" x2="58.5" y2="92.8"/>
		<path class="st22" d="M45.9,139.7"/>
		<line class="st22" x1="50.5" y1="191.2" x2="58.5" y2="186.6"/>
		<line class="st22" x1="88.2" y1="228.9" x2="92.8" y2="220.9"/>
		<line class="st22" x1="191.2" y1="228.9" x2="186.6" y2="220.9"/>
		<line class="st22" x1="228.9" y1="191.2" x2="220.9" y2="186.6"/>
		<line class="st22" x1="228.9" y1="88.2" x2="220.9" y2="92.8"/>
		<line class="st22" x1="191.2" y1="50.5" x2="186.6" y2="58.5"/>
	</g>
	<g id="_x31_0_deg" class="st3">
		<line class="st22" x1="121" y1="33.6" x2="123.4" y2="47.4"/>
		<line class="st22" x1="102.9" y1="38.5" x2="107.6" y2="51.6"/>
		<line class="st22" x1="70.5" y1="57.2" x2="79.4" y2="67.9"/>
		<line class="st22" x1="57.2" y1="70.5" x2="67.9" y2="79.5"/>
		<line class="st22" x1="38.5" y1="102.9" x2="51.6" y2="107.7"/>
		<line class="st22" x1="33.6" y1="121" x2="47.4" y2="123.5"/>
		<line class="st22" x1="33.6" y1="158.4" x2="47.4" y2="156"/>
		<line class="st22" x1="38.5" y1="176.6" x2="51.6" y2="171.8"/>
		<line class="st22" x1="57.2" y1="209" x2="67.9" y2="200"/>
		<line class="st22" x1="70.5" y1="222.2" x2="79.5" y2="211.6"/>
		<line class="st22" x1="102.9" y1="240.9" x2="107.7" y2="227.8"/>
		<line class="st22" x1="121" y1="245.8" x2="123.5" y2="232.1"/>
		<line class="st22" x1="158.4" y1="245.8" x2="156" y2="232.1"/>
		<line class="st22" x1="176.6" y1="240.9" x2="171.8" y2="227.8"/>
		<line class="st22" x1="209" y1="222.2" x2="200" y2="211.5"/>
		<line class="st22" x1="222.2" y1="209" x2="211.6" y2="200"/>
		<line class="st22" x1="240.9" y1="176.6" x2="227.8" y2="171.8"/>
		<line class="st22" x1="245.8" y1="158.4" x2="232.1" y2="156"/>
		<line class="st22" x1="245.8" y1="121" x2="232.1" y2="123.4"/>
		<line class="st22" x1="240.9" y1="102.9" x2="227.8" y2="107.6"/>
		<line class="st22" x1="222.2" y1="70.5" x2="211.5" y2="79.4"/>
		<line class="st22" x1="209" y1="57.2" x2="200" y2="67.9"/>
		<line class="st22" x1="176.6" y1="38.5" x2="171.8" y2="51.6"/>
		<line class="st22" x1="158.4" y1="33.6" x2="156" y2="47.4"/>
	</g>
	<g id="_x35__deg" class="st3">
		<line class="st22" x1="139.8" y1="40.5" x2="139.7" y2="45.9"/>
		<line class="st22" x1="131.1" y1="40.9" x2="131.6" y2="46.3"/>
		<line class="st22" x1="122.5" y1="42" x2="123.5" y2="47.4"/>
		<line class="st22" x1="114.1" y1="43.9" x2="115.5" y2="49.1"/>
		<line class="st22" x1="105.8" y1="46.5" x2="107.7" y2="51.6"/>
		<line class="st22" x1="97.8" y1="49.8" x2="100.1" y2="54.7"/>
		<line class="st22" x1="90.1" y1="53.8" x2="92.8" y2="58.5"/>
		<line class="st22" x1="82.8" y1="58.4" x2="85.9" y2="62.9"/>
		<line class="st22" x1="76" y1="63.7" x2="79.5" y2="67.9"/>
		<line class="st22" x1="69.6" y1="69.5" x2="73.4" y2="73.4"/>
		<line class="st22" x1="63.7" y1="75.9" x2="67.9" y2="79.4"/>
		<line class="st22" x1="58.5" y1="82.8" x2="62.9" y2="85.9"/>
		<line class="st22" x1="53.8" y1="90.1" x2="58.5" y2="92.8"/>
		<line class="st22" x1="49.8" y1="97.7" x2="54.7" y2="100.1"/>
		<line class="st22" x1="46.5" y1="105.7" x2="51.6" y2="107.6"/>
		<line class="st22" x1="43.9" y1="114" x2="49.1" y2="115.4"/>
		<line class="st22" x1="42" y1="122.4" x2="47.4" y2="123.4"/>
		<line class="st22" x1="40.9" y1="131" x2="46.3" y2="131.5"/>
		<line class="st22" x1="40.5" y1="139.7" x2="45.9" y2="139.7"/>
		<line class="st22" x1="40.9" y1="148.3" x2="46.3" y2="147.9"/>
		<line class="st22" x1="42" y1="156.9" x2="47.4" y2="156"/>
		<line class="st22" x1="43.9" y1="165.4" x2="49.1" y2="164"/>
		<line class="st22" x1="46.5" y1="173.6" x2="51.6" y2="171.8"/>
		<line class="st22" x1="49.8" y1="181.6" x2="54.7" y2="179.3"/>
		<line class="st22" x1="53.8" y1="189.3" x2="58.5" y2="186.6"/>
		<line class="st22" x1="58.4" y1="196.6" x2="62.9" y2="193.5"/>
		<line class="st22" x1="63.7" y1="203.5" x2="67.9" y2="200"/>
		<line class="st22" x1="69.5" y1="209.8" x2="73.4" y2="206"/>
		<line class="st22" x1="75.9" y1="215.7" x2="79.4" y2="211.5"/>
		<line class="st22" x1="82.8" y1="221" x2="85.9" y2="216.5"/>
		<line class="st22" x1="90.1" y1="225.6" x2="92.8" y2="220.9"/>
		<line class="st22" x1="97.7" y1="229.6" x2="100.1" y2="224.7"/>
		<line class="st22" x1="105.7" y1="232.9" x2="107.6" y2="227.8"/>
		<line class="st22" x1="114" y1="235.6" x2="115.4" y2="230.3"/>
		<line class="st22" x1="122.4" y1="237.4" x2="123.4" y2="232.1"/>
		<line class="st22" x1="131" y1="238.6" x2="131.5" y2="233.1"/>
		<line class="st22" x1="139.7" y1="238.9" x2="139.7" y2="233.5"/>
		<line class="st22" x1="148.3" y1="238.6" x2="147.9" y2="233.1"/>
		<line class="st22" x1="156.9" y1="237.4" x2="156" y2="232.1"/>
		<line class="st22" x1="165.4" y1="235.6" x2="164" y2="230.3"/>
		<line class="st22" x1="173.6" y1="233" x2="171.8" y2="227.9"/>
		<line class="st22" x1="181.6" y1="229.7" x2="179.3" y2="224.7"/>
		<line class="st22" x1="189.3" y1="225.7" x2="186.6" y2="221"/>
		<line class="st22" x1="196.6" y1="221" x2="193.5" y2="216.6"/>
		<line class="st22" x1="203.5" y1="215.8" x2="200" y2="211.6"/>
		<line class="st22" x1="209.8" y1="209.9" x2="206" y2="206.1"/>
		<line class="st22" x1="215.7" y1="203.5" x2="211.5" y2="200"/>
		<line class="st22" x1="221" y1="196.7" x2="216.5" y2="193.5"/>
		<line class="st22" x1="225.6" y1="189.4" x2="220.9" y2="186.6"/>
		<line class="st22" x1="229.6" y1="181.7" x2="224.7" y2="179.4"/>
		<line class="st22" x1="232.9" y1="173.7" x2="227.8" y2="171.8"/>
		<line class="st22" x1="235.5" y1="165.4" x2="230.3" y2="164"/>
		<line class="st22" x1="237.4" y1="157" x2="232.1" y2="156"/>
		<line class="st22" x1="238.6" y1="148.4" x2="233.1" y2="147.9"/>
		<line class="st22" x1="238.9" y1="139.8" x2="233.5" y2="139.7"/>
		<line class="st22" x1="238.6" y1="131.1" x2="233.1" y2="131.6"/>
		<line class="st22" x1="237.4" y1="122.5" x2="232.1" y2="123.5"/>
		<line class="st22" x1="235.6" y1="114.1" x2="230.3" y2="115.5"/>
		<line class="st22" x1="233" y1="105.8" x2="227.8" y2="107.7"/>
		<line class="st22" x1="229.7" y1="97.8" x2="224.7" y2="100.1"/>
		<line class="st22" x1="225.7" y1="90.1" x2="220.9" y2="92.9"/>
		<line class="st22" x1="221" y1="82.8" x2="216.6" y2="86"/>
		<line class="st22" x1="215.8" y1="76" x2="211.6" y2="79.5"/>
		<line class="st22" x1="209.9" y1="69.6" x2="206" y2="73.4"/>
		<line class="st22" x1="203.5" y1="63.7" x2="200" y2="67.9"/>
		<line class="st22" x1="196.7" y1="58.5" x2="193.5" y2="62.9"/>
		<line class="st22" x1="189.4" y1="53.8" x2="186.6" y2="58.5"/>
		<line class="st22" x1="181.7" y1="49.8" x2="179.4" y2="54.7"/>
		<line class="st22" x1="173.7" y1="46.5" x2="171.8" y2="51.6"/>
		<line class="st22" x1="165.4" y1="43.9" x2="164" y2="49.1"/>
		<line class="st22" x1="157" y1="42" x2="156" y2="47.4"/>
		<line class="st22" x1="148.4" y1="40.9" x2="147.9" y2="46.3"/>
	</g>
	<g id="Labels" class="st3">
		<g>
			<rect x="131.1" y="23.5" class="st23" width="17.8" height="15"/>
			<path class="st12" d="M135.1,35.7V23.5h2.4l5,8.1v-8.1h2.3v12.2h-2.5l-4.9-7.9v7.9H135.1z"/>
		</g>
		<g>
			<rect x="74.5" y="37.9" transform="matrix(0.866 -0.5 0.5 0.866 -11.2421 48.8866)" class="st23" width="22.2" height="15"/>
			<path class="st12" d="M78.8,51.1l1.2-0.9c0.6,0.6,1.1,1,1.7,1.1c0.5,0.1,1.1,0,1.6-0.3c0.6-0.4,1-0.9,1.2-1.5
				c0.2-0.7,0.1-1.3-0.3-1.9c-0.3-0.6-0.8-1-1.4-1.1c-0.6-0.2-1.2-0.1-1.8,0.3c-0.2,0.1-0.5,0.4-0.8,0.7l-0.5-1.2
				c0.1,0,0.2-0.1,0.2-0.1c0.6-0.3,1-0.7,1.2-1.3c0.3-0.5,0.2-1.1-0.1-1.7c-0.3-0.5-0.7-0.8-1.2-0.9s-1,0-1.5,0.3
				c-0.5,0.3-0.8,0.7-1,1.2s-0.1,1.1,0.2,1.8L76,45.9c-0.3-1-0.4-1.8-0.1-2.6c0.3-0.8,0.8-1.4,1.7-1.9c0.6-0.3,1.2-0.5,1.8-0.5
				s1.2,0.1,1.7,0.4c0.5,0.3,0.9,0.7,1.2,1.1c0.3,0.5,0.4,0.9,0.4,1.5c0,0.5-0.2,1-0.6,1.5c0.7-0.2,1.4-0.2,2,0.1
				c0.6,0.3,1.1,0.7,1.5,1.4c0.5,0.9,0.6,1.9,0.3,2.9c-0.3,1-1,1.8-2,2.4c-0.9,0.5-1.9,0.7-2.8,0.5C80.1,52.4,79.4,51.9,78.8,51.1z"
				/>
			<path class="st12" d="M87,46.4l1.2-0.9c0.6,0.6,1.1,1,1.7,1.1c0.5,0.1,1.1,0,1.6-0.3c0.6-0.4,1-0.9,1.2-1.5
				c0.2-0.7,0.1-1.3-0.3-1.9c-0.3-0.6-0.8-1-1.4-1.1c-0.6-0.2-1.2-0.1-1.8,0.3c-0.2,0.1-0.5,0.4-0.8,0.7l-0.5-1.2
				c0.1,0,0.2-0.1,0.2-0.1c0.6-0.3,1-0.7,1.2-1.3s0.2-1.1-0.1-1.7c-0.3-0.5-0.7-0.8-1.2-0.9c-0.5-0.1-1,0-1.5,0.3
				c-0.5,0.3-0.8,0.7-1,1.2c-0.2,0.5-0.1,1.1,0.2,1.8l-1.4,0.5c-0.3-1-0.4-1.8-0.1-2.6s0.8-1.4,1.7-1.9c0.6-0.3,1.2-0.5,1.8-0.5
				c0.6,0,1.2,0.1,1.7,0.4c0.5,0.3,0.9,0.7,1.2,1.1c0.3,0.5,0.4,0.9,0.4,1.5c0,0.5-0.2,1-0.6,1.5c0.7-0.2,1.4-0.2,2,0.1
				c0.6,0.3,1.1,0.7,1.5,1.4c0.5,0.9,0.6,1.9,0.3,2.9c-0.3,1-1,1.8-2,2.4c-0.9,0.5-1.9,0.7-2.8,0.5C88.3,47.7,87.6,47.2,87,46.4z"/>
		</g>
		<g>
			<rect x="34" y="77.6" transform="matrix(0.5 -0.866 0.866 0.5 -50.8617 82.1364)" class="st23" width="23.5" height="15"/>
			<path class="st12" d="M42.6,93.4l0.6-1.4c0.8,0.3,1.5,0.3,2,0.2c0.5-0.2,0.9-0.5,1.2-1c0.4-0.6,0.4-1.2,0.3-1.9
				c-0.2-0.7-0.6-1.2-1.2-1.5c-0.6-0.3-1.2-0.4-1.8-0.3c-0.6,0.2-1.1,0.5-1.4,1.1c-0.1,0.2-0.3,0.6-0.4,1l-1.1-0.8
				c0.1-0.1,0.1-0.1,0.1-0.2c0.3-0.6,0.5-1.1,0.4-1.7c0-0.6-0.3-1.1-0.9-1.4c-0.5-0.3-1-0.3-1.5-0.2c-0.5,0.1-0.9,0.5-1.2,1
				c-0.3,0.5-0.4,1-0.3,1.5c0.1,0.5,0.5,1,1,1.5l-1,1.2c-0.8-0.7-1.2-1.4-1.4-2.2c-0.2-0.8,0-1.7,0.5-2.5c0.3-0.6,0.8-1,1.3-1.4
				c0.5-0.3,1.1-0.5,1.7-0.5c0.6,0,1.1,0.1,1.6,0.4c0.5,0.3,0.8,0.6,1,1.1c0.2,0.5,0.3,1,0.3,1.6c0.5-0.5,1.1-0.9,1.7-0.9
				c0.7-0.1,1.3,0.1,2,0.5c0.9,0.5,1.5,1.3,1.8,2.4c0.3,1,0.1,2.1-0.5,3.1c-0.5,0.9-1.3,1.5-2.2,1.8C44.5,93.9,43.6,93.8,42.6,93.4z
				"/>
			<path class="st12" d="M44.9,83.8c-1.2-0.7-2.2-1.4-2.8-2.1c-0.6-0.7-1-1.4-1.1-2.2c-0.1-0.7,0-1.5,0.5-2.3c0.3-0.6,0.7-1,1.2-1.3
				c0.5-0.3,1-0.5,1.6-0.5c0.6,0,1.2,0.1,1.9,0.3s1.6,0.6,2.6,1.2c1.2,0.7,2.2,1.4,2.8,2.1c0.6,0.7,1,1.4,1.1,2.2
				c0.1,0.7,0,1.5-0.5,2.3c-0.6,1-1.4,1.6-2.5,1.8C48.5,85.4,46.9,84.9,44.9,83.8z M45.7,82.5c1.7,1,3,1.5,3.8,1.4
				c0.8-0.1,1.4-0.4,1.7-1c0.3-0.6,0.3-1.3,0-2s-1.4-1.6-3.1-2.6c-1.7-1-3-1.5-3.8-1.4c-0.8,0.1-1.4,0.4-1.7,1
				c-0.3,0.6-0.4,1.2-0.1,1.9C42.9,80.6,44,81.5,45.7,82.5z"/>
		</g>
		<g>
			<rect x="23.5" y="130.6" class="st23" width="15" height="17.8"/>
			<path class="st12" d="M35.7,144.5l-12.2,2.9v-2.5l8.4-1.8l-8.4-2.2v-2.9l8.5-2.1l-8.5-1.9v-2.5l12.2,3v2.6l-9.1,2.4l9.1,2.4
				V144.5z"/>
		</g>
		<g>
			<rect x="32.7" y="186.3" transform="matrix(-0.5 -0.866 0.866 -0.5 -99.749 330.0908)" class="st23" width="25.4" height="15"/>
			<path class="st12" d="M48.7,193l1.2-0.7l4,7c-0.3,0.2-0.6,0.3-1,0.4c-0.6,0.1-1.2,0.1-1.9,0c-0.7-0.1-1.5-0.4-2.6-0.8
				c-1.6-0.6-2.8-0.9-3.6-1s-1.4,0-1.9,0.3c-0.5,0.3-0.8,0.7-1,1.3c-0.1,0.6,0,1.2,0.3,1.7c0.4,0.6,0.8,1,1.4,1.2
				c0.6,0.2,1.2,0,1.9-0.3l0.6,1.4c-1,0.5-2,0.6-2.9,0.3c-0.9-0.3-1.6-0.9-2.2-1.9c-0.6-1-0.8-2-0.5-2.9c0.2-0.9,0.7-1.6,1.6-2.1
				c0.4-0.2,0.9-0.4,1.4-0.5s1.1,0,1.8,0.1c0.7,0.1,1.7,0.4,3,0.9c1.1,0.4,1.8,0.6,2.2,0.7c0.4,0.1,0.7,0.1,1,0.1L48.7,193z"/>
			<path class="st12" d="M46.8,186.7l-2.5,1.5l2.6,4.6l-1.2,0.7l-9.6-0.9l-0.6-1.1l6.8-3.9l-0.8-1.4l1.2-0.7l0.8,1.4l2.5-1.5
				L46.8,186.7z M43,188.9l-4.8,2.7l6.7,0.6L43,188.9z"/>
		</g>
		<g>
			<rect x="70.7" y="226.2" transform="matrix(-0.866 -0.5 0.5 -0.866 41.9494 478.7241)" class="st23" width="28.7" height="15"/>
			<path class="st12" d="M87.5,231.4l0.7-1.2l7,4c-0.2,0.3-0.4,0.6-0.7,0.8c-0.5,0.4-1,0.7-1.7,0.9c-0.7,0.2-1.5,0.4-2.6,0.6
				c-1.7,0.3-2.9,0.6-3.6,0.9c-0.7,0.3-1.2,0.7-1.5,1.2c-0.3,0.5-0.4,1.1-0.2,1.6c0.2,0.6,0.5,1,1.1,1.4c0.6,0.4,1.2,0.5,1.8,0.3
				c0.6-0.2,1.1-0.6,1.5-1.2l1.3,0.9c-0.7,0.9-1.4,1.5-2.3,1.7c-0.9,0.2-1.8,0-2.8-0.6c-1-0.6-1.6-1.3-1.9-2.2
				c-0.3-0.9-0.2-1.8,0.3-2.6c0.2-0.4,0.6-0.8,1-1.1s0.9-0.6,1.6-0.8c0.7-0.2,1.7-0.5,3.1-0.7c1.2-0.2,1.9-0.4,2.3-0.5
				s0.7-0.2,1-0.4L87.5,231.4z"/>
			<path class="st12" d="M81.9,226.5l1.3,0.7l-4.8,8.2c0.5-0.1,1.1-0.2,1.7-0.2c0.7,0,1.3,0,1.7,0.1l-0.7,1.3
				c-0.9-0.1-1.8,0-2.6,0.1c-0.8,0.2-1.5,0.4-2,0.7l-0.8-0.5L81.9,226.5z"/>
		</g>
		<g>
			<rect x="130.6" y="240.9" class="st23" width="17.8" height="15"/>
			<path class="st12" d="M144.5,247.7l-2.4,0.2c-0.1-0.8-0.4-1.4-0.9-1.8c-0.4-0.4-1-0.6-1.8-0.6c-0.8,0-1.4,0.2-1.8,0.5
				c-0.4,0.3-0.6,0.7-0.6,1.2c0,0.3,0.1,0.5,0.3,0.7c0.2,0.2,0.5,0.4,0.9,0.5c0.3,0.1,0.9,0.3,2,0.5c1.3,0.3,2.2,0.7,2.8,1.2
				c0.7,0.7,1.1,1.5,1.1,2.4c0,0.6-0.2,1.2-0.5,1.7c-0.4,0.5-0.9,1-1.5,1.2c-0.7,0.3-1.5,0.4-2.4,0.4c-1.5,0-2.7-0.3-3.4-1
				c-0.8-0.7-1.2-1.6-1.2-2.7l2.5-0.1c0.1,0.6,0.3,1.1,0.7,1.3c0.3,0.3,0.9,0.4,1.6,0.4c0.7,0,1.3-0.1,1.7-0.4
				c0.3-0.2,0.4-0.4,0.4-0.8c0-0.3-0.1-0.5-0.4-0.7c-0.3-0.3-1.1-0.5-2.3-0.8s-2.1-0.6-2.7-0.9c-0.6-0.3-1-0.7-1.3-1.2
				c-0.3-0.5-0.5-1.2-0.5-1.9c0-0.7,0.2-1.3,0.6-2s0.9-1.1,1.6-1.4c0.7-0.3,1.6-0.4,2.6-0.4c1.5,0,2.7,0.4,3.5,1.1
				S144.3,246.4,144.5,247.7z"/>
		</g>
		<g>
			<rect x="180.9" y="226.5" transform="matrix(-0.866 0.5 -0.5 -0.866 478.724 339.7645)" class="st23" width="25.9" height="15"/>
			<path class="st12" d="M194.2,228.4l1.3-0.7l4.8,8.2c0.1-0.5,0.4-1,0.7-1.6c0.3-0.6,0.7-1.1,1-1.5l0.7,1.3
				c-0.5,0.8-0.9,1.5-1.2,2.3c-0.3,0.8-0.4,1.5-0.3,2.1l-0.8,0.5L194.2,228.4z"/>
			<path class="st12" d="M192.5,233.1l-1.3,0.9c-0.5-0.6-1-1-1.6-1.1c-0.6-0.1-1.1,0-1.6,0.3c-0.6,0.4-1,0.9-1.2,1.6
				c-0.2,0.7,0,1.5,0.4,2.2c0.4,0.7,1,1.2,1.6,1.4c0.7,0.2,1.3,0.1,2-0.3c0.4-0.2,0.7-0.6,1-0.9c0.2-0.4,0.3-0.8,0.4-1.2l1.3-0.5
				l2.1,6l-5.2,3l-0.7-1.2l4.2-2.4l-1.1-3.2c-0.4,0.8-0.9,1.4-1.6,1.8c-0.9,0.5-1.9,0.7-2.9,0.4c-1-0.3-1.8-0.9-2.4-1.9
				c-0.5-1-0.7-1.9-0.6-3c0.2-1.2,0.9-2.2,2-2.9c1-0.6,1.9-0.7,2.8-0.5C191.1,231.7,191.9,232.2,192.5,233.1z"/>
		</g>
		<g>
			<rect x="220.7" y="186.8" transform="matrix(-0.5 0.866 -0.866 -0.5 518.903 89.0704)" class="st23" width="26.1" height="15"/>
			<path class="st12" d="M231.2,189.3l0.7-1.3l8.2,4.8c-0.1-0.5-0.2-1.1-0.2-1.7c0-0.7,0-1.3,0.1-1.7l1.3,0.7
				c-0.1,0.9,0,1.8,0.1,2.6c0.2,0.8,0.4,1.5,0.7,2l-0.5,0.8L231.2,189.3z"/>
			<path class="st12" d="M226.6,200.2l-1.2-0.7l4-7c0.3,0.2,0.6,0.4,0.8,0.7c0.4,0.5,0.7,1,0.9,1.7s0.4,1.5,0.6,2.6
				c0.3,1.7,0.6,2.9,0.9,3.6c0.3,0.7,0.7,1.2,1.2,1.5c0.5,0.3,1.1,0.4,1.6,0.2c0.6-0.2,1-0.5,1.4-1.1c0.4-0.6,0.5-1.2,0.3-1.8
				c-0.2-0.6-0.6-1.1-1.2-1.5l0.9-1.3c0.9,0.7,1.5,1.4,1.7,2.3c0.2,0.9,0,1.8-0.6,2.8c-0.6,1-1.3,1.6-2.2,1.9
				c-0.9,0.3-1.8,0.2-2.6-0.3c-0.4-0.2-0.8-0.6-1.1-1c-0.3-0.4-0.6-0.9-0.8-1.6c-0.2-0.7-0.5-1.7-0.7-3.1c-0.2-1.2-0.4-1.9-0.5-2.3
				c-0.1-0.4-0.2-0.7-0.4-1L226.6,200.2z"/>
		</g>
		<g>
			<rect x="240.9" y="131.1" class="st23" width="15" height="17.8"/>
			<path class="st12" d="M243.8,135.6h12.2v9h-2.1V138h-2.7v6.1h-2.1V138h-3.3v6.8h-2V135.6z"/>
		</g>
		<g>
			<rect x="225.1" y="78.1" transform="matrix(0.5 0.866 -0.866 0.5 191.1389 -159.8665)" class="st23" width="17.8" height="15"/>
			<path class="st12" d="M239.8,86.6l-0.8-1.2c0.4-0.4,0.7-0.8,0.8-1.1c0.2-0.6,0.1-1.1-0.2-1.6c-0.2-0.4-0.6-0.7-1-0.9
				c-0.5-0.2-1.2-0.3-1.9-0.2c-0.7,0.1-1.6,0.4-2.6,1c0.7,0,1.2,0.2,1.7,0.5c0.5,0.3,0.9,0.7,1.2,1.2c0.5,0.9,0.6,1.8,0.3,2.8
				c-0.3,1-0.9,1.8-1.9,2.3c-0.7,0.4-1.4,0.6-2.1,0.6c-0.7,0-1.4-0.1-2-0.4s-1.1-0.8-1.4-1.4c-0.6-1.1-0.7-2.2-0.3-3.3
				c0.4-1.1,1.5-2.2,3.3-3.3c2-1.2,3.7-1.7,5.1-1.4c1.2,0.2,2.1,0.8,2.7,2c0.5,0.8,0.6,1.6,0.5,2.4C241,85.3,240.5,86,239.8,86.6z
				 M232.2,84c-0.4,0.3-0.8,0.6-1.1,1c-0.3,0.4-0.5,0.9-0.5,1.3c0,0.5,0.1,0.9,0.3,1.3c0.3,0.5,0.8,0.9,1.5,1c0.7,0.1,1.4,0,2.1-0.4
				c0.7-0.4,1.2-0.9,1.4-1.6s0.1-1.2-0.2-1.8c-0.3-0.6-0.8-1-1.5-1.1C233.5,83.4,232.8,83.6,232.2,84z"/>
		</g>
		<g>
			<rect x="185.4" y="38.2" transform="matrix(0.866 0.5 -0.5 0.866 48.8831 -91.0379)" class="st23" width="17.8" height="15"/>
			<path class="st12" d="M190.2,45l1.4,0.6c-0.3,0.8-0.3,1.5-0.2,2c0.2,0.5,0.5,0.9,1,1.2c0.6,0.4,1.2,0.4,1.9,0.3
				c0.7-0.2,1.2-0.6,1.5-1.2c0.3-0.6,0.4-1.2,0.3-1.8c-0.2-0.6-0.5-1.1-1.1-1.4c-0.2-0.1-0.6-0.3-1-0.4l0.8-1.1
				c0.1,0.1,0.1,0.1,0.2,0.1c0.6,0.3,1.1,0.5,1.7,0.4c0.6,0,1.1-0.3,1.4-0.9c0.3-0.5,0.3-1,0.2-1.5c-0.1-0.5-0.5-0.9-1-1.2
				c-0.5-0.3-1-0.4-1.5-0.3c-0.5,0.1-1,0.5-1.5,1l-1.2-1c0.7-0.8,1.4-1.2,2.2-1.4s1.7,0,2.5,0.5c0.6,0.3,1,0.8,1.4,1.3
				c0.3,0.5,0.5,1.1,0.5,1.7c0,0.6-0.1,1.1-0.4,1.6c-0.3,0.5-0.6,0.8-1.1,1c-0.5,0.2-1,0.3-1.6,0.3c0.5,0.5,0.9,1.1,0.9,1.7
				s-0.1,1.3-0.5,2c-0.5,0.9-1.3,1.5-2.4,1.8c-1,0.3-2.1,0.1-3.1-0.5c-0.9-0.5-1.5-1.3-1.8-2.2C189.7,46.8,189.7,45.9,190.2,45z"/>
		</g>
	</g>
</g>
</svg>
