<?xml version="1.0" encoding="UTF-8" standalone="no"?>
<!-- Generator: Adobe Illustrator 19.0.0, SVG Export Plug-In . SVG Version: 6.00 Build 0)  -->

<svg
   xmlns:dc="http://purl.org/dc/elements/1.1/"
   xmlns:cc="http://creativecommons.org/ns#"
   xmlns:rdf="http://www.w3.org/1999/02/22-rdf-syntax-ns#"
   xmlns:svg="http://www.w3.org/2000/svg"
   xmlns="http://www.w3.org/2000/svg"
   xmlns:sodipodi="http://sodipodi.sourceforge.net/DTD/sodipodi-0.dtd"
   xmlns:inkscape="http://www.inkscape.org/namespaces/inkscape"
   version="1.1"
   x="0px"
   y="0px"
   viewBox="0 0 279.4 279.4"
   style="enable-background:new 0 0 279.4 279.4;"
   xml:space="preserve"
   id="svg2"
   inkscape:version="0.91 r13725"
   sodipodi:docname="two-axis-vor-arrow.svg"><metadata
     id="metadata564"><rdf:RDF><cc:Work
         rdf:about=""><dc:format>image/svg+xml</dc:format><dc:type
           rdf:resource="http://purl.org/dc/dcmitype/StillImage" /></cc:Work></rdf:RDF></metadata><defs
     id="defs562" /><sodipodi:namedview
     pagecolor="#ffffff"
     bordercolor="#666666"
     borderopacity="1"
     objecttolerance="10"
     gridtolerance="10"
     guidetolerance="10"
     inkscape:pageopacity="0"
     inkscape:pageshadow="2"
     inkscape:window-width="1920"
     inkscape:window-height="1137"
     id="namedview560"
     showgrid="false"
     inkscape:zoom="2.3890795"
     inkscape:cx="111.69849"
     inkscape:cy="184.79954"
     inkscape:window-x="0"
     inkscape:window-y="30"
     inkscape:window-maximized="1"
     inkscape:current-layer="svg2" /><style
     type="text/css"
     id="style4">
	.st0{fill:#212121;}
	.st1{fill:url(#path7250_2_);stroke:#010101;}
	.st2{fill:#010101;}
	.st3{fill:url(#path7183_2_);}
	.st4{fill:none;stroke:#010101;stroke-width:0.6;}
	.st5{fill:none;stroke:#010101;stroke-width:0.3;}
	.st6{fill:none;stroke:url(#path7220_2_);stroke-width:0.8342;}
	.st7{fill:#1A1A1A;stroke:url(#circle7224_2_);}
	.st8{fill:url(#circle7226_2_);stroke:#010101;stroke-width:0.8594;}
	.st9{fill:none;stroke:#FFFFFF;}
	.st10{fill:url(#circle7254_2_);stroke:#010101;stroke-width:0.5;}
	.st11{fill:url(#circle7261_2_);stroke:#010101;stroke-width:0.5;}
	.st12{fill:url(#circle7268_2_);stroke:#010101;stroke-width:0.5;}
	.st13{fill:none;stroke:#FFFFFF;stroke-width:4;}
	.st14{fill:none;}
	.st15{fill:#B46027;}
	.st16{fill:#FFFFFF;}
	.st17{fill:none;stroke:#FFFFFF;stroke-width:2;}
	.st18{display:none;}
	.st19{display:inline;}
	.st20{fill:#F15A29;}
	.st21{fill:#58595B;}
	.st22{display:inline;fill:#202020;}
	.st23{fill:#353535;}
	.st24{fill:none;stroke:#FFFFFF;stroke-width:3;}
	.st25{fill:none;stroke:#000000;stroke-width:3;}
	.st26{display:inline;fill:none;stroke:#FFFFFF;stroke-width:2;}
	.st27{display:inline;fill:#FFFFFF;}
	.st28{fill:#D7DF23;stroke:#D7DF23;stroke-miterlimit:10;}
	.st29{fill:#D7DF23;stroke:#D7DF23;}
	.st30{display:inline;fill:none;stroke:#FFFFFF;}
	.st31{fill:none;stroke:#FFFFFF;stroke-width:1.5;}
</style><g
     id="Nav_Flag"
     class="st18"><g
       class="st19"
       id="g154"><rect
         x="128.7"
         y="205.8"
         class="st16"
         width="21.3"
         height="4.3"
         id="rect156" /><polygon
         class="st20"
         points="128.7,210.1 131.5,210.1 134.1,205.8 131.3,205.8   "
         id="polygon158" /><polygon
         class="st20"
         points="134.1,210.1 136.8,210.1 139.4,205.8 136.6,205.8   "
         id="polygon160" /><polygon
         class="st20"
         points="139.4,210.2 142.1,210.2 144.7,205.9 142,205.9   "
         id="polygon162" /><polygon
         class="st20"
         points="144.7,210.1 147.4,210.1 150,205.8 147.3,205.8   "
         id="polygon164" /></g><g
       class="st19"
       id="g166"><rect
         x="128.8"
         y="201.5"
         class="st21"
         width="21.3"
         height="4.3"
         id="rect168" /><g
         id="g170"><path
           class="st16"
           d="M137.9,205.2v-2.4h-0.8v-0.5h2.3v0.5h-0.8v2.4H137.9z"
           id="path172" /><path
           class="st16"
           d="M139.5,203.8c0-0.3,0-0.5,0.1-0.7c0.1-0.1,0.2-0.3,0.3-0.4s0.2-0.2,0.4-0.3c0.2-0.1,0.4-0.1,0.6-0.1     c0.4,0,0.8,0.1,1,0.4s0.4,0.6,0.4,1.1c0,0.5-0.1,0.8-0.4,1.1s-0.6,0.4-1,0.4c-0.4,0-0.8-0.1-1-0.4S139.5,204.2,139.5,203.8z      M140.1,203.8c0,0.3,0.1,0.6,0.2,0.7s0.3,0.3,0.6,0.3s0.4-0.1,0.6-0.2s0.2-0.4,0.2-0.7c0-0.3-0.1-0.6-0.2-0.7s-0.3-0.2-0.6-0.2     s-0.4,0.1-0.6,0.2S140.1,203.4,140.1,203.8z"
           id="path174" /></g></g><g
       class="st19"
       id="g176"><rect
         x="128.8"
         y="210.1"
         class="st21"
         width="21.3"
         height="4.3"
         id="rect178" /><g
         id="g180"><path
           class="st16"
           d="M134.2,213.8v-2.9h2v0.5h-1.4v0.7h1.2v0.5h-1.2v1.2H134.2z"
           id="path182" /><path
           class="st16"
           d="M136.6,213.8v-2.9h1.2c0.3,0,0.5,0,0.7,0.1s0.2,0.1,0.3,0.3s0.1,0.3,0.1,0.5c0,0.2-0.1,0.4-0.2,0.5     s-0.3,0.2-0.6,0.3c0.1,0.1,0.2,0.2,0.3,0.2s0.2,0.2,0.3,0.5l0.3,0.6h-0.7l-0.4-0.6c-0.1-0.2-0.3-0.4-0.3-0.4s-0.1-0.1-0.2-0.1     s-0.2,0-0.3,0h-0.1v1.2H136.6z M137.2,212.1h0.4c0.3,0,0.5,0,0.5,0s0.1-0.1,0.2-0.1s0.1-0.1,0.1-0.2c0-0.1,0-0.2-0.1-0.2     s-0.1-0.1-0.2-0.1c0,0-0.2,0-0.4,0h-0.5V212.1z"
           id="path184" /><path
           class="st16"
           d="M139.4,212.4c0-0.3,0-0.5,0.1-0.7c0.1-0.1,0.2-0.3,0.3-0.4s0.2-0.2,0.4-0.3c0.2-0.1,0.4-0.1,0.6-0.1     c0.4,0,0.8,0.1,1,0.4s0.4,0.6,0.4,1.1c0,0.5-0.1,0.8-0.4,1.1s-0.6,0.4-1,0.4c-0.4,0-0.8-0.1-1-0.4S139.4,212.8,139.4,212.4z      M140,212.4c0,0.3,0.1,0.6,0.2,0.7s0.3,0.3,0.6,0.3s0.4-0.1,0.6-0.2s0.2-0.4,0.2-0.7c0-0.3-0.1-0.6-0.2-0.7s-0.3-0.2-0.6-0.2     s-0.4,0.1-0.6,0.2S140,212,140,212.4z"
           id="path186" /><path
           class="st16"
           d="M142.6,213.8v-2.9h0.9l0.5,2l0.5-2h0.9v2.9h-0.5v-2.3l-0.6,2.3h-0.6l-0.6-2.3v2.3H142.6z"
           id="path188" /></g></g></g><g
     id="Nav_Mask"
     class="st18"><rect
       x="128.8"
       y="201.5"
       class="st19"
       width="21.4"
       height="4.3"
       id="rect191" /><rect
       x="128.8"
       y="210.1"
       class="st19"
       width="21.4"
       height="4.3"
       id="rect193" /><rect
       x="128.8"
       y="197.1"
       class="st22"
       width="21.4"
       height="4.3"
       id="rect195" /><rect
       x="128.8"
       y="214.4"
       class="st22"
       width="21.4"
       height="4.3"
       id="rect197" /></g><g
     id="GS_Flag"
     class="st18"><g
       class="st19"
       id="g200"><rect
         x="174.5"
         y="117.6"
         class="st16"
         width="21.3"
         height="4.3"
         id="rect202" /><polygon
         class="st20"
         points="174.5,121.9 177.2,121.9 179.8,117.6 177.1,117.6   "
         id="polygon204" /><polygon
         class="st20"
         points="179.8,121.9 182.6,121.9 185.1,117.6 182.4,117.6   "
         id="polygon206" /><polygon
         class="st20"
         points="185.1,121.9 187.9,121.9 190.5,117.6 187.7,117.6   "
         id="polygon208" /><polygon
         class="st20"
         points="190.5,121.9 193.2,121.9 195.8,117.6 193,117.6   "
         id="polygon210" /></g><g
       class="st19"
       id="g212"><rect
         x="174.5"
         y="113.3"
         class="st23"
         width="21.3"
         height="4.3"
         id="rect214" /></g></g><g
     id="GS_Mask"
     class="st18"><rect
       x="174.5"
       y="113.3"
       class="st19"
       width="21.4"
       height="4.3"
       id="rect217" /><rect
       x="174.4"
       y="121.9"
       class="st19"
       width="21.4"
       height="4.3"
       id="rect219" /><rect
       x="174.5"
       y="109"
       class="st22"
       width="21.4"
       height="4.3"
       id="rect221" /><rect
       x="174.5"
       y="126.2"
       class="st22"
       width="21.4"
       height="4.3"
       id="rect223" /></g><g
     id="Horiz_Needle"
     class="st18"><g
       class="st19"
       id="g226"><line
         class="st24"
         x1="50.9"
         y1="139.7"
         x2="199.7"
         y2="139.7"
         id="line228" /><line
         class="st25"
         x1="50.9"
         y1="139.7"
         x2="66.7"
         y2="139.7"
         id="line230" /></g><line
       class="st26"
       x1="203.5"
       y1="139.4"
       x2="209.8"
       y2="139.4"
       id="line232" /><path
       class="st27"
       d="M139.7,48.3"
       id="path234" /></g><g
     id="Vert_Needle"
     class="st18"><g
       class="st19"
       id="g237"><line
         class="st24"
         x1="139.7"
         y1="50.9"
         x2="139.7"
         y2="199.7"
         id="line239" /><line
         class="st25"
         x1="139.7"
         y1="50.9"
         x2="139.7"
         y2="66.7"
         id="line241" /></g></g><g
     id="Arrow_1_"><g
       id="g244"><polygon
         class="st28"
         points="135.5,56 139.8,48.6 144.1,56   "
         id="polygon246" /><line
         class="st29"
         x1="139.8"
         y1="55.2"
         x2="139.7"
         y2="47.1"
         id="line248" /></g></g><g
     id="Ring"
     class="st18"><circle
       class="st30"
       cx="139.7"
       cy="139.7"
       r="93.8"
       id="circle251" /><g
       id="_x39_0_deg"
       class="st19"><line
         class="st24"
         x1="139.7"
         y1="39.3"
         x2="139.7"
         y2="45.9"
         id="line254" /><line
         class="st24"
         x1="39.3"
         y1="139.7"
         x2="45.9"
         y2="139.7"
         id="line256" /><line
         class="st24"
         x1="139.7"
         y1="240.1"
         x2="139.7"
         y2="233.5"
         id="line258" /><line
         class="st24"
         x1="240.1"
         y1="139.7"
         x2="233.5"
         y2="139.7"
         id="line260" /></g><g
       id="_x33_0_deg"
       class="st19"><line
         class="st31"
         x1="88.2"
         y1="50.5"
         x2="92.8"
         y2="58.5"
         id="line263" /><line
         class="st31"
         x1="50.5"
         y1="88.2"
         x2="58.5"
         y2="92.8"
         id="line265" /><path
         class="st31"
         d="M45.9,139.7"
         id="path267" /><line
         class="st31"
         x1="50.5"
         y1="191.2"
         x2="58.5"
         y2="186.6"
         id="line269" /><line
         class="st31"
         x1="88.2"
         y1="228.9"
         x2="92.8"
         y2="220.9"
         id="line271" /><line
         class="st31"
         x1="191.2"
         y1="228.9"
         x2="186.6"
         y2="220.9"
         id="line273" /><line
         class="st31"
         x1="228.9"
         y1="191.2"
         x2="220.9"
         y2="186.6"
         id="line275" /><line
         class="st31"
         x1="228.9"
         y1="88.2"
         x2="220.9"
         y2="92.8"
         id="line277" /><line
         class="st31"
         x1="191.2"
         y1="50.5"
         x2="186.6"
         y2="58.5"
         id="line279" /></g><g
       id="_x31_0_deg"
       class="st19"><line
         class="st31"
         x1="121"
         y1="33.6"
         x2="123.4"
         y2="47.4"
         id="line282" /><line
         class="st31"
         x1="102.9"
         y1="38.5"
         x2="107.6"
         y2="51.6"
         id="line284" /><line
         class="st31"
         x1="70.5"
         y1="57.2"
         x2="79.4"
         y2="67.9"
         id="line286" /><line
         class="st31"
         x1="57.2"
         y1="70.5"
         x2="67.9"
         y2="79.5"
         id="line288" /><line
         class="st31"
         x1="38.5"
         y1="102.9"
         x2="51.6"
         y2="107.7"
         id="line290" /><line
         class="st31"
         x1="33.6"
         y1="121"
         x2="47.4"
         y2="123.5"
         id="line292" /><line
         class="st31"
         x1="33.6"
         y1="158.4"
         x2="47.4"
         y2="156"
         id="line294" /><line
         class="st31"
         x1="38.5"
         y1="176.6"
         x2="51.6"
         y2="171.8"
         id="line296" /><line
         class="st31"
         x1="57.2"
         y1="209"
         x2="67.9"
         y2="200"
         id="line298" /><line
         class="st31"
         x1="70.5"
         y1="222.2"
         x2="79.5"
         y2="211.6"
         id="line300" /><line
         class="st31"
         x1="102.9"
         y1="240.9"
         x2="107.7"
         y2="227.8"
         id="line302" /><line
         class="st31"
         x1="121"
         y1="245.8"
         x2="123.5"
         y2="232.1"
         id="line304" /><line
         class="st31"
         x1="158.4"
         y1="245.8"
         x2="156"
         y2="232.1"
         id="line306" /><line
         class="st31"
         x1="176.6"
         y1="240.9"
         x2="171.8"
         y2="227.8"
         id="line308" /><line
         class="st31"
         x1="209"
         y1="222.2"
         x2="200"
         y2="211.5"
         id="line310" /><line
         class="st31"
         x1="222.2"
         y1="209"
         x2="211.6"
         y2="200"
         id="line312" /><line
         class="st31"
         x1="240.9"
         y1="176.6"
         x2="227.8"
         y2="171.8"
         id="line314" /><line
         class="st31"
         x1="245.8"
         y1="158.4"
         x2="232.1"
         y2="156"
         id="line316" /><line
         class="st31"
         x1="245.8"
         y1="121"
         x2="232.1"
         y2="123.4"
         id="line318" /><line
         class="st31"
         x1="240.9"
         y1="102.9"
         x2="227.8"
         y2="107.6"
         id="line320" /><line
         class="st31"
         x1="222.2"
         y1="70.5"
         x2="211.5"
         y2="79.4"
         id="line322" /><line
         class="st31"
         x1="209"
         y1="57.2"
         x2="200"
         y2="67.9"
         id="line324" /><line
         class="st31"
         x1="176.6"
         y1="38.5"
         x2="171.8"
         y2="51.6"
         id="line326" /><line
         class="st31"
         x1="158.4"
         y1="33.6"
         x2="156"
         y2="47.4"
         id="line328" /></g><g
       id="_x35__deg"
       class="st19"><line
         class="st31"
         x1="139.8"
         y1="40.5"
         x2="139.7"
         y2="45.9"
         id="line331" /><line
         class="st31"
         x1="131.1"
         y1="40.9"
         x2="131.6"
         y2="46.3"
         id="line333" /><line
         class="st31"
         x1="122.5"
         y1="42"
         x2="123.5"
         y2="47.4"
         id="line335" /><line
         class="st31"
         x1="114.1"
         y1="43.9"
         x2="115.5"
         y2="49.1"
         id="line337" /><line
         class="st31"
         x1="105.8"
         y1="46.5"
         x2="107.7"
         y2="51.6"
         id="line339" /><line
         class="st31"
         x1="97.8"
         y1="49.8"
         x2="100.1"
         y2="54.7"
         id="line341" /><line
         class="st31"
         x1="90.1"
         y1="53.8"
         x2="92.8"
         y2="58.5"
         id="line343" /><line
         class="st31"
         x1="82.8"
         y1="58.4"
         x2="85.9"
         y2="62.9"
         id="line345" /><line
         class="st31"
         x1="76"
         y1="63.7"
         x2="79.5"
         y2="67.9"
         id="line347" /><line
         class="st31"
         x1="69.6"
         y1="69.5"
         x2="73.4"
         y2="73.4"
         id="line349" /><line
         class="st31"
         x1="63.7"
         y1="75.9"
         x2="67.9"
         y2="79.4"
         id="line351" /><line
         class="st31"
         x1="58.5"
         y1="82.8"
         x2="62.9"
         y2="85.9"
         id="line353" /><line
         class="st31"
         x1="53.8"
         y1="90.1"
         x2="58.5"
         y2="92.8"
         id="line355" /><line
         class="st31"
         x1="49.8"
         y1="97.7"
         x2="54.7"
         y2="100.1"
         id="line357" /><line
         class="st31"
         x1="46.5"
         y1="105.7"
         x2="51.6"
         y2="107.6"
         id="line359" /><line
         class="st31"
         x1="43.9"
         y1="114"
         x2="49.1"
         y2="115.4"
         id="line361" /><line
         class="st31"
         x1="42"
         y1="122.4"
         x2="47.4"
         y2="123.4"
         id="line363" /><line
         class="st31"
         x1="40.9"
         y1="131"
         x2="46.3"
         y2="131.5"
         id="line365" /><line
         class="st31"
         x1="40.5"
         y1="139.7"
         x2="45.9"
         y2="139.7"
         id="line367" /><line
         class="st31"
         x1="40.9"
         y1="148.3"
         x2="46.3"
         y2="147.9"
         id="line369" /><line
         class="st31"
         x1="42"
         y1="156.9"
         x2="47.4"
         y2="156"
         id="line371" /><line
         class="st31"
         x1="43.9"
         y1="165.4"
         x2="49.1"
         y2="164"
         id="line373" /><line
         class="st31"
         x1="46.5"
         y1="173.6"
         x2="51.6"
         y2="171.8"
         id="line375" /><line
         class="st31"
         x1="49.8"
         y1="181.6"
         x2="54.7"
         y2="179.3"
         id="line377" /><line
         class="st31"
         x1="53.8"
         y1="189.3"
         x2="58.5"
         y2="186.6"
         id="line379" /><line
         class="st31"
         x1="58.4"
         y1="196.6"
         x2="62.9"
         y2="193.5"
         id="line381" /><line
         class="st31"
         x1="63.7"
         y1="203.5"
         x2="67.9"
         y2="200"
         id="line383" /><line
         class="st31"
         x1="69.5"
         y1="209.8"
         x2="73.4"
         y2="206"
         id="line385" /><line
         class="st31"
         x1="75.9"
         y1="215.7"
         x2="79.4"
         y2="211.5"
         id="line387" /><line
         class="st31"
         x1="82.8"
         y1="221"
         x2="85.9"
         y2="216.5"
         id="line389" /><line
         class="st31"
         x1="90.1"
         y1="225.6"
         x2="92.8"
         y2="220.9"
         id="line391" /><line
         class="st31"
         x1="97.7"
         y1="229.6"
         x2="100.1"
         y2="224.7"
         id="line393" /><line
         class="st31"
         x1="105.7"
         y1="232.9"
         x2="107.6"
         y2="227.8"
         id="line395" /><line
         class="st31"
         x1="114"
         y1="235.6"
         x2="115.4"
         y2="230.3"
         id="line397" /><line
         class="st31"
         x1="122.4"
         y1="237.4"
         x2="123.4"
         y2="232.1"
         id="line399" /><line
         class="st31"
         x1="131"
         y1="238.6"
         x2="131.5"
         y2="233.1"
         id="line401" /><line
         class="st31"
         x1="139.7"
         y1="238.9"
         x2="139.7"
         y2="233.5"
         id="line403" /><line
         class="st31"
         x1="148.3"
         y1="238.6"
         x2="147.9"
         y2="233.1"
         id="line405" /><line
         class="st31"
         x1="156.9"
         y1="237.4"
         x2="156"
         y2="232.1"
         id="line407" /><line
         class="st31"
         x1="165.4"
         y1="235.6"
         x2="164"
         y2="230.3"
         id="line409" /><line
         class="st31"
         x1="173.6"
         y1="233"
         x2="171.8"
         y2="227.9"
         id="line411" /><line
         class="st31"
         x1="181.6"
         y1="229.7"
         x2="179.3"
         y2="224.7"
         id="line413" /><line
         class="st31"
         x1="189.3"
         y1="225.7"
         x2="186.6"
         y2="221"
         id="line415" /><line
         class="st31"
         x1="196.6"
         y1="221"
         x2="193.5"
         y2="216.6"
         id="line417" /><line
         class="st31"
         x1="203.5"
         y1="215.8"
         x2="200"
         y2="211.6"
         id="line419" /><line
         class="st31"
         x1="209.8"
         y1="209.9"
         x2="206"
         y2="206.1"
         id="line421" /><line
         class="st31"
         x1="215.7"
         y1="203.5"
         x2="211.5"
         y2="200"
         id="line423" /><line
         class="st31"
         x1="221"
         y1="196.7"
         x2="216.5"
         y2="193.5"
         id="line425" /><line
         class="st31"
         x1="225.6"
         y1="189.4"
         x2="220.9"
         y2="186.6"
         id="line427" /><line
         class="st31"
         x1="229.6"
         y1="181.7"
         x2="224.7"
         y2="179.4"
         id="line429" /><line
         class="st31"
         x1="232.9"
         y1="173.7"
         x2="227.8"
         y2="171.8"
         id="line431" /><line
         class="st31"
         x1="235.5"
         y1="165.4"
         x2="230.3"
         y2="164"
         id="line433" /><line
         class="st31"
         x1="237.4"
         y1="157"
         x2="232.1"
         y2="156"
         id="line435" /><line
         class="st31"
         x1="238.6"
         y1="148.4"
         x2="233.1"
         y2="147.9"
         id="line437" /><line
         class="st31"
         x1="238.9"
         y1="139.8"
         x2="233.5"
         y2="139.7"
         id="line439" /><line
         class="st31"
         x1="238.6"
         y1="131.1"
         x2="233.1"
         y2="131.6"
         id="line441" /><line
         class="st31"
         x1="237.4"
         y1="122.5"
         x2="232.1"
         y2="123.5"
         id="line443" /><line
         class="st31"
         x1="235.6"
         y1="114.1"
         x2="230.3"
         y2="115.5"
         id="line445" /><line
         class="st31"
         x1="233"
         y1="105.8"
         x2="227.8"
         y2="107.7"
         id="line447" /><line
         class="st31"
         x1="229.7"
         y1="97.8"
         x2="224.7"
         y2="100.1"
         id="line449" /><line
         class="st31"
         x1="225.7"
         y1="90.1"
         x2="220.9"
         y2="92.9"
         id="line451" /><line
         class="st31"
         x1="221"
         y1="82.8"
         x2="216.6"
         y2="86"
         id="line453" /><line
         class="st31"
         x1="215.8"
         y1="76"
         x2="211.6"
         y2="79.5"
         id="line455" /><line
         class="st31"
         x1="209.9"
         y1="69.6"
         x2="206"
         y2="73.4"
         id="line457" /><line
         class="st31"
         x1="203.5"
         y1="63.7"
         x2="200"
         y2="67.9"
         id="line459" /><line
         class="st31"
         x1="196.7"
         y1="58.5"
         x2="193.5"
         y2="62.9"
         id="line461" /><line
         class="st31"
         x1="189.4"
         y1="53.8"
         x2="186.6"
         y2="58.5"
         id="line463" /><line
         class="st31"
         x1="181.7"
         y1="49.8"
         x2="179.4"
         y2="54.7"
         id="line465" /><line
         class="st31"
         x1="173.7"
         y1="46.5"
         x2="171.8"
         y2="51.6"
         id="line467" /><line
         class="st31"
         x1="165.4"
         y1="43.9"
         x2="164"
         y2="49.1"
         id="line469" /><line
         class="st31"
         x1="157"
         y1="42"
         x2="156"
         y2="47.4"
         id="line471" /><line
         class="st31"
         x1="148.4"
         y1="40.9"
         x2="147.9"
         y2="46.3"
         id="line473" /></g><g
       id="Labels"
       class="st19"><g
         id="g476"><rect
           x="131.1"
           y="23.5"
           class="st14"
           width="17.8"
           height="15"
           id="rect478" /><path
           class="st16"
           d="M135.1,35.7V23.5h2.4l5,8.1v-8.1h2.3v12.2h-2.5l-4.9-7.9v7.9H135.1z"
           id="path480" /></g><g
         id="g482"><rect
           x="74.5"
           y="37.9"
           transform="matrix(0.866 -0.5 0.5 0.866 -11.2421 48.8866)"
           class="st14"
           width="22.2"
           height="15"
           id="rect484" /><path
           class="st16"
           d="M78.8,51.1l1.2-0.9c0.6,0.6,1.1,1,1.7,1.1c0.5,0.1,1.1,0,1.6-0.3c0.6-0.4,1-0.9,1.2-1.5     c0.2-0.7,0.1-1.3-0.3-1.9c-0.3-0.6-0.8-1-1.4-1.1c-0.6-0.2-1.2-0.1-1.8,0.3c-0.2,0.1-0.5,0.4-0.8,0.7l-0.5-1.2     c0.1,0,0.2-0.1,0.2-0.1c0.6-0.3,1-0.7,1.2-1.3c0.3-0.5,0.2-1.1-0.1-1.7c-0.3-0.5-0.7-0.8-1.2-0.9s-1,0-1.5,0.3     c-0.5,0.3-0.8,0.7-1,1.2s-0.1,1.1,0.2,1.8L76,45.9c-0.3-1-0.4-1.8-0.1-2.6c0.3-0.8,0.8-1.4,1.7-1.9c0.6-0.3,1.2-0.5,1.8-0.5     s1.2,0.1,1.7,0.4c0.5,0.3,0.9,0.7,1.2,1.1c0.3,0.5,0.4,0.9,0.4,1.5c0,0.5-0.2,1-0.6,1.5c0.7-0.2,1.4-0.2,2,0.1     c0.6,0.3,1.1,0.7,1.5,1.4c0.5,0.9,0.6,1.9,0.3,2.9c-0.3,1-1,1.8-2,2.4c-0.9,0.5-1.9,0.7-2.8,0.5C80.1,52.4,79.4,51.9,78.8,51.1z"
           id="path486" /><path
           class="st16"
           d="M87,46.4l1.2-0.9c0.6,0.6,1.1,1,1.7,1.1c0.5,0.1,1.1,0,1.6-0.3c0.6-0.4,1-0.9,1.2-1.5     c0.2-0.7,0.1-1.3-0.3-1.9c-0.3-0.6-0.8-1-1.4-1.1c-0.6-0.2-1.2-0.1-1.8,0.3c-0.2,0.1-0.5,0.4-0.8,0.7l-0.5-1.2     c0.1,0,0.2-0.1,0.2-0.1c0.6-0.3,1-0.7,1.2-1.3s0.2-1.1-0.1-1.7c-0.3-0.5-0.7-0.8-1.2-0.9c-0.5-0.1-1,0-1.5,0.3     c-0.5,0.3-0.8,0.7-1,1.2c-0.2,0.5-0.1,1.1,0.2,1.8l-1.4,0.5c-0.3-1-0.4-1.8-0.1-2.6s0.8-1.4,1.7-1.9c0.6-0.3,1.2-0.5,1.8-0.5     c0.6,0,1.2,0.1,1.7,0.4c0.5,0.3,0.9,0.7,1.2,1.1c0.3,0.5,0.4,0.9,0.4,1.5c0,0.5-0.2,1-0.6,1.5c0.7-0.2,1.4-0.2,2,0.1     c0.6,0.3,1.1,0.7,1.5,1.4c0.5,0.9,0.6,1.9,0.3,2.9c-0.3,1-1,1.8-2,2.4c-0.9,0.5-1.9,0.7-2.8,0.5C88.3,47.7,87.6,47.2,87,46.4z"
           id="path488" /></g><g
         id="g490"><rect
           x="34"
           y="77.6"
           transform="matrix(0.5 -0.866 0.866 0.5 -50.8617 82.1364)"
           class="st14"
           width="23.5"
           height="15"
           id="rect492" /><path
           class="st16"
           d="M42.6,93.4l0.6-1.4c0.8,0.3,1.5,0.3,2,0.2c0.5-0.2,0.9-0.5,1.2-1c0.4-0.6,0.4-1.2,0.3-1.9     c-0.2-0.7-0.6-1.2-1.2-1.5c-0.6-0.3-1.2-0.4-1.8-0.3c-0.6,0.2-1.1,0.5-1.4,1.1c-0.1,0.2-0.3,0.6-0.4,1l-1.1-0.8     c0.1-0.1,0.1-0.1,0.1-0.2c0.3-0.6,0.5-1.1,0.4-1.7c0-0.6-0.3-1.1-0.9-1.4c-0.5-0.3-1-0.3-1.5-0.2c-0.5,0.1-0.9,0.5-1.2,1     c-0.3,0.5-0.4,1-0.3,1.5c0.1,0.5,0.5,1,1,1.5l-1,1.2c-0.8-0.7-1.2-1.4-1.4-2.2c-0.2-0.8,0-1.7,0.5-2.5c0.3-0.6,0.8-1,1.3-1.4     c0.5-0.3,1.1-0.5,1.7-0.5c0.6,0,1.1,0.1,1.6,0.4c0.5,0.3,0.8,0.6,1,1.1c0.2,0.5,0.3,1,0.3,1.6c0.5-0.5,1.1-0.9,1.7-0.9     c0.7-0.1,1.3,0.1,2,0.5c0.9,0.5,1.5,1.3,1.8,2.4c0.3,1,0.1,2.1-0.5,3.1c-0.5,0.9-1.3,1.5-2.2,1.8C44.5,93.9,43.6,93.8,42.6,93.4z     "
           id="path494" /><path
           class="st16"
           d="M44.9,83.8c-1.2-0.7-2.2-1.4-2.8-2.1c-0.6-0.7-1-1.4-1.1-2.2c-0.1-0.7,0-1.5,0.5-2.3c0.3-0.6,0.7-1,1.2-1.3     c0.5-0.3,1-0.5,1.6-0.5c0.6,0,1.2,0.1,1.9,0.3s1.6,0.6,2.6,1.2c1.2,0.7,2.2,1.4,2.8,2.1c0.6,0.7,1,1.4,1.1,2.2     c0.1,0.7,0,1.5-0.5,2.3c-0.6,1-1.4,1.6-2.5,1.8C48.5,85.4,46.9,84.9,44.9,83.8z M45.7,82.5c1.7,1,3,1.5,3.8,1.4     c0.8-0.1,1.4-0.4,1.7-1c0.3-0.6,0.3-1.3,0-2s-1.4-1.6-3.1-2.6c-1.7-1-3-1.5-3.8-1.4c-0.8,0.1-1.4,0.4-1.7,1     c-0.3,0.6-0.4,1.2-0.1,1.9C42.9,80.6,44,81.5,45.7,82.5z"
           id="path496" /></g><g
         id="g498"><rect
           x="23.5"
           y="130.6"
           class="st14"
           width="15"
           height="17.8"
           id="rect500" /><path
           class="st16"
           d="M35.7,144.5l-12.2,2.9v-2.5l8.4-1.8l-8.4-2.2v-2.9l8.5-2.1l-8.5-1.9v-2.5l12.2,3v2.6l-9.1,2.4l9.1,2.4     V144.5z"
           id="path502" /></g><g
         id="g504"><rect
           x="32.7"
           y="186.3"
           transform="matrix(-0.5 -0.866 0.866 -0.5 -99.749 330.0908)"
           class="st14"
           width="25.4"
           height="15"
           id="rect506" /><path
           class="st16"
           d="M48.7,193l1.2-0.7l4,7c-0.3,0.2-0.6,0.3-1,0.4c-0.6,0.1-1.2,0.1-1.9,0c-0.7-0.1-1.5-0.4-2.6-0.8     c-1.6-0.6-2.8-0.9-3.6-1s-1.4,0-1.9,0.3c-0.5,0.3-0.8,0.7-1,1.3c-0.1,0.6,0,1.2,0.3,1.7c0.4,0.6,0.8,1,1.4,1.2     c0.6,0.2,1.2,0,1.9-0.3l0.6,1.4c-1,0.5-2,0.6-2.9,0.3c-0.9-0.3-1.6-0.9-2.2-1.9c-0.6-1-0.8-2-0.5-2.9c0.2-0.9,0.7-1.6,1.6-2.1     c0.4-0.2,0.9-0.4,1.4-0.5s1.1,0,1.8,0.1c0.7,0.1,1.7,0.4,3,0.9c1.1,0.4,1.8,0.6,2.2,0.7c0.4,0.1,0.7,0.1,1,0.1L48.7,193z"
           id="path508" /><path
           class="st16"
           d="M46.8,186.7l-2.5,1.5l2.6,4.6l-1.2,0.7l-9.6-0.9l-0.6-1.1l6.8-3.9l-0.8-1.4l1.2-0.7l0.8,1.4l2.5-1.5     L46.8,186.7z M43,188.9l-4.8,2.7l6.7,0.6L43,188.9z"
           id="path510" /></g><g
         id="g512"><rect
           x="70.7"
           y="226.2"
           transform="matrix(-0.866 -0.5 0.5 -0.866 41.9494 478.7241)"
           class="st14"
           width="28.7"
           height="15"
           id="rect514" /><path
           class="st16"
           d="M87.5,231.4l0.7-1.2l7,4c-0.2,0.3-0.4,0.6-0.7,0.8c-0.5,0.4-1,0.7-1.7,0.9c-0.7,0.2-1.5,0.4-2.6,0.6     c-1.7,0.3-2.9,0.6-3.6,0.9c-0.7,0.3-1.2,0.7-1.5,1.2c-0.3,0.5-0.4,1.1-0.2,1.6c0.2,0.6,0.5,1,1.1,1.4c0.6,0.4,1.2,0.5,1.8,0.3     c0.6-0.2,1.1-0.6,1.5-1.2l1.3,0.9c-0.7,0.9-1.4,1.5-2.3,1.7c-0.9,0.2-1.8,0-2.8-0.6c-1-0.6-1.6-1.3-1.9-2.2     c-0.3-0.9-0.2-1.8,0.3-2.6c0.2-0.4,0.6-0.8,1-1.1s0.9-0.6,1.6-0.8c0.7-0.2,1.7-0.5,3.1-0.7c1.2-0.2,1.9-0.4,2.3-0.5     s0.7-0.2,1-0.4L87.5,231.4z"
           id="path516" /><path
           class="st16"
           d="M81.9,226.5l1.3,0.7l-4.8,8.2c0.5-0.1,1.1-0.2,1.7-0.2c0.7,0,1.3,0,1.7,0.1l-0.7,1.3     c-0.9-0.1-1.8,0-2.6,0.1c-0.8,0.2-1.5,0.4-2,0.7l-0.8-0.5L81.9,226.5z"
           id="path518" /></g><g
         id="g520"><rect
           x="130.6"
           y="240.9"
           class="st14"
           width="17.8"
           height="15"
           id="rect522" /><path
           class="st16"
           d="M144.5,247.7l-2.4,0.2c-0.1-0.8-0.4-1.4-0.9-1.8c-0.4-0.4-1-0.6-1.8-0.6c-0.8,0-1.4,0.2-1.8,0.5     c-0.4,0.3-0.6,0.7-0.6,1.2c0,0.3,0.1,0.5,0.3,0.7c0.2,0.2,0.5,0.4,0.9,0.5c0.3,0.1,0.9,0.3,2,0.5c1.3,0.3,2.2,0.7,2.8,1.2     c0.7,0.7,1.1,1.5,1.1,2.4c0,0.6-0.2,1.2-0.5,1.7c-0.4,0.5-0.9,1-1.5,1.2c-0.7,0.3-1.5,0.4-2.4,0.4c-1.5,0-2.7-0.3-3.4-1     c-0.8-0.7-1.2-1.6-1.2-2.7l2.5-0.1c0.1,0.6,0.3,1.1,0.7,1.3c0.3,0.3,0.9,0.4,1.6,0.4c0.7,0,1.3-0.1,1.7-0.4     c0.3-0.2,0.4-0.4,0.4-0.8c0-0.3-0.1-0.5-0.4-0.7c-0.3-0.3-1.1-0.5-2.3-0.8s-2.1-0.6-2.7-0.9c-0.6-0.3-1-0.7-1.3-1.2     c-0.3-0.5-0.5-1.2-0.5-1.9c0-0.7,0.2-1.3,0.6-2s0.9-1.1,1.6-1.4c0.7-0.3,1.6-0.4,2.6-0.4c1.5,0,2.7,0.4,3.5,1.1     S144.3,246.4,144.5,247.7z"
           id="path524" /></g><g
         id="g526"><rect
           x="180.9"
           y="226.5"
           transform="matrix(-0.866 0.5 -0.5 -0.866 478.724 339.7645)"
           class="st14"
           width="25.9"
           height="15"
           id="rect528" /><path
           class="st16"
           d="M194.2,228.4l1.3-0.7l4.8,8.2c0.1-0.5,0.4-1,0.7-1.6c0.3-0.6,0.7-1.1,1-1.5l0.7,1.3     c-0.5,0.8-0.9,1.5-1.2,2.3c-0.3,0.8-0.4,1.5-0.3,2.1l-0.8,0.5L194.2,228.4z"
           id="path530" /><path
           class="st16"
           d="M192.5,233.1l-1.3,0.9c-0.5-0.6-1-1-1.6-1.1c-0.6-0.1-1.1,0-1.6,0.3c-0.6,0.4-1,0.9-1.2,1.6     c-0.2,0.7,0,1.5,0.4,2.2c0.4,0.7,1,1.2,1.6,1.4c0.7,0.2,1.3,0.1,2-0.3c0.4-0.2,0.7-0.6,1-0.9c0.2-0.4,0.3-0.8,0.4-1.2l1.3-0.5     l2.1,6l-5.2,3l-0.7-1.2l4.2-2.4l-1.1-3.2c-0.4,0.8-0.9,1.4-1.6,1.8c-0.9,0.5-1.9,0.7-2.9,0.4c-1-0.3-1.8-0.9-2.4-1.9     c-0.5-1-0.7-1.9-0.6-3c0.2-1.2,0.9-2.2,2-2.9c1-0.6,1.9-0.7,2.8-0.5C191.1,231.7,191.9,232.2,192.5,233.1z"
           id="path532" /></g><g
         id="g534"><rect
           x="220.7"
           y="186.8"
           transform="matrix(-0.5 0.866 -0.866 -0.5 518.903 89.0704)"
           class="st14"
           width="26.1"
           height="15"
           id="rect536" /><path
           class="st16"
           d="M231.2,189.3l0.7-1.3l8.2,4.8c-0.1-0.5-0.2-1.1-0.2-1.7c0-0.7,0-1.3,0.1-1.7l1.3,0.7     c-0.1,0.9,0,1.8,0.1,2.6c0.2,0.8,0.4,1.5,0.7,2l-0.5,0.8L231.2,189.3z"
           id="path538" /><path
           class="st16"
           d="M226.6,200.2l-1.2-0.7l4-7c0.3,0.2,0.6,0.4,0.8,0.7c0.4,0.5,0.7,1,0.9,1.7s0.4,1.5,0.6,2.6     c0.3,1.7,0.6,2.9,0.9,3.6c0.3,0.7,0.7,1.2,1.2,1.5c0.5,0.3,1.1,0.4,1.6,0.2c0.6-0.2,1-0.5,1.4-1.1c0.4-0.6,0.5-1.2,0.3-1.8     c-0.2-0.6-0.6-1.1-1.2-1.5l0.9-1.3c0.9,0.7,1.5,1.4,1.7,2.3c0.2,0.9,0,1.8-0.6,2.8c-0.6,1-1.3,1.6-2.2,1.9     c-0.9,0.3-1.8,0.2-2.6-0.3c-0.4-0.2-0.8-0.6-1.1-1c-0.3-0.4-0.6-0.9-0.8-1.6c-0.2-0.7-0.5-1.7-0.7-3.1c-0.2-1.2-0.4-1.9-0.5-2.3     c-0.1-0.4-0.2-0.7-0.4-1L226.6,200.2z"
           id="path540" /></g><g
         id="g542"><rect
           x="240.9"
           y="131.1"
           class="st14"
           width="15"
           height="17.8"
           id="rect544" /><path
           class="st16"
           d="M243.8,135.6h12.2v9h-2.1V138h-2.7v6.1h-2.1V138h-3.3v6.8h-2V135.6z"
           id="path546" /></g><g
         id="g548"><rect
           x="225.1"
           y="78.1"
           transform="matrix(0.5 0.866 -0.866 0.5 191.1389 -159.8665)"
           class="st14"
           width="17.8"
           height="15"
           id="rect550" /><path
           class="st16"
           d="M239.8,86.6l-0.8-1.2c0.4-0.4,0.7-0.8,0.8-1.1c0.2-0.6,0.1-1.1-0.2-1.6c-0.2-0.4-0.6-0.7-1-0.9     c-0.5-0.2-1.2-0.3-1.9-0.2c-0.7,0.1-1.6,0.4-2.6,1c0.7,0,1.2,0.2,1.7,0.5c0.5,0.3,0.9,0.7,1.2,1.2c0.5,0.9,0.6,1.8,0.3,2.8     c-0.3,1-0.9,1.8-1.9,2.3c-0.7,0.4-1.4,0.6-2.1,0.6c-0.7,0-1.4-0.1-2-0.4s-1.1-0.8-1.4-1.4c-0.6-1.1-0.7-2.2-0.3-3.3     c0.4-1.1,1.5-2.2,3.3-3.3c2-1.2,3.7-1.7,5.1-1.4c1.2,0.2,2.1,0.8,2.7,2c0.5,0.8,0.6,1.6,0.5,2.4C241,85.3,240.5,86,239.8,86.6z      M232.2,84c-0.4,0.3-0.8,0.6-1.1,1c-0.3,0.4-0.5,0.9-0.5,1.3c0,0.5,0.1,0.9,0.3,1.3c0.3,0.5,0.8,0.9,1.5,1c0.7,0.1,1.4,0,2.1-0.4     c0.7-0.4,1.2-0.9,1.4-1.6s0.1-1.2-0.2-1.8c-0.3-0.6-0.8-1-1.5-1.1C233.5,83.4,232.8,83.6,232.2,84z"
           id="path552" /></g><g
         id="g554"><rect
           x="185.4"
           y="38.2"
           transform="matrix(0.866 0.5 -0.5 0.866 48.8831 -91.0379)"
           class="st14"
           width="17.8"
           height="15"
           id="rect556" /><path
           class="st16"
           d="M190.2,45l1.4,0.6c-0.3,0.8-0.3,1.5-0.2,2c0.2,0.5,0.5,0.9,1,1.2c0.6,0.4,1.2,0.4,1.9,0.3     c0.7-0.2,1.2-0.6,1.5-1.2c0.3-0.6,0.4-1.2,0.3-1.8c-0.2-0.6-0.5-1.1-1.1-1.4c-0.2-0.1-0.6-0.3-1-0.4l0.8-1.1     c0.1,0.1,0.1,0.1,0.2,0.1c0.6,0.3,1.1,0.5,1.7,0.4c0.6,0,1.1-0.3,1.4-0.9c0.3-0.5,0.3-1,0.2-1.5c-0.1-0.5-0.5-0.9-1-1.2     c-0.5-0.3-1-0.4-1.5-0.3c-0.5,0.1-1,0.5-1.5,1l-1.2-1c0.7-0.8,1.4-1.2,2.2-1.4s1.7,0,2.5,0.5c0.6,0.3,1,0.8,1.4,1.3     c0.3,0.5,0.5,1.1,0.5,1.7c0,0.6-0.1,1.1-0.4,1.6c-0.3,0.5-0.6,0.8-1.1,1c-0.5,0.2-1,0.3-1.6,0.3c0.5,0.5,0.9,1.1,0.9,1.7     s-0.1,1.3-0.5,2c-0.5,0.9-1.3,1.5-2.4,1.8c-1,0.3-2.1,0.1-3.1-0.5c-0.9-0.5-1.5-1.3-1.8-2.2C189.7,46.8,189.7,45.9,190.2,45z"
           id="path558" /></g></g></g></svg>