<?xml version="1.0" encoding="utf-8"?>
<!-- Generator: Adobe Illustrator 19.0.0, SVG Export Plug-In . SVG Version: 6.00 Build 0)  -->
<svg version="1.1" xmlns="http://www.w3.org/2000/svg" xmlns:xlink="http://www.w3.org/1999/xlink" x="0px" y="0px"
	 viewBox="-218 243.2 174.1 306.8" style="enable-background:new -218 243.2 174.1 306.8;" xml:space="preserve">
<style type="text/css">
	.st0{display:none;}
	.st1{display:inline;}
	.st2{fill:#3C3C3C;}
	.st3{display:inline;enable-background:new    ;}
	.st4{fill:#EAEAEB;}
	.st5{clip-path:url(#SVGID_2_);}
	.st6{fill:#3C4391;}
	.st7{fill:#4EABE0;}
	.st8{fill:#FFFFFF;}
	.st9{fill:#292929;}
	.st10{fill:#161616;}
	.st11{display:inline;fill:#DBDBDB;}
	.st12{clip-path:url(#SVGID_4_);}
</style>
<g id="Base" xmlns:cc="http://creativecommons.org/ns#" xmlns:dc="http://purl.org/dc/elements/1.1/" xmlns:svg="http://www.w3.org/2000/svg" xmlns:rdf="http://www.w3.org/1999/02/22-rdf-syntax-ns#" class="st0">
	<g id="g4154" transform="translate(132.2987,0)" class="st1">
		<path id="path4156" class="st2" d="M-184.9,550h-156.6c-4.8,0-8.8-3.9-8.8-8.8V252c0-4.8,3.9-8.8,8.8-8.8h156.6
			c4.8,0,8.8,3.9,8.8,8.8l0,289.3C-176.2,546.1-180.1,550-184.9,550"/>
	</g>
	<g class="st3">
		<path class="st4" d="M-173,289.9h1.4v6.2c0,1.1-0.1,1.9-0.4,2.6s-0.7,1.2-1.3,1.5c-0.6,0.4-1.5,0.6-2.5,0.6c-1,0-1.8-0.2-2.5-0.5
			s-1.1-0.8-1.4-1.5s-0.4-1.6-0.4-2.7v-6.2h1.4v6.2c0,0.9,0.1,1.6,0.3,2.1c0.2,0.4,0.5,0.8,0.9,1c0.4,0.2,0.9,0.4,1.5,0.4
			c1,0,1.8-0.2,2.2-0.7s0.7-1.4,0.7-2.7V289.9z"/>
	</g>
	<g class="st3">
		<path class="st4" d="M-169.2,300.7v-10.7h4.1c0.7,0,1.3,0,1.6,0.1c0.5,0.1,1,0.3,1.3,0.5s0.6,0.6,0.9,1c0.2,0.4,0.3,0.9,0.3,1.5
			c0,0.9-0.3,1.7-0.9,2.3s-1.6,0.9-3.1,0.9h-2.8v4.4H-169.2z M-167.8,295h2.8c0.9,0,1.6-0.2,2-0.5s0.6-0.8,0.6-1.4
			c0-0.4-0.1-0.8-0.3-1.2c-0.2-0.3-0.5-0.5-0.9-0.6c-0.2-0.1-0.7-0.1-1.3-0.1h-2.7V295z"/>
	</g>
	<g class="st3">
		<path class="st4" d="M-177.3,379.4h-1.3V371c-0.3,0.3-0.7,0.6-1.2,0.9c-0.5,0.3-1,0.5-1.4,0.7v-1.3c0.7-0.3,1.4-0.8,1.9-1.3
			s0.9-1,1.2-1.4h0.8V379.4z"/>
	</g>
	<g class="st3">
		<path class="st4" d="M-173.9,374.1c0-1.3,0.1-2.3,0.4-3.1c0.3-0.8,0.6-1.4,1.2-1.8s1.2-0.6,1.9-0.6c0.6,0,1.1,0.1,1.5,0.3
			c0.4,0.2,0.8,0.6,1.1,1s0.5,1,0.7,1.6s0.2,1.5,0.2,2.5c0,1.3-0.1,2.3-0.4,3.1c-0.3,0.8-0.6,1.4-1.2,1.8s-1.2,0.6-2,0.6
			c-1,0-1.8-0.4-2.4-1.1C-173.6,377.5-173.9,376.1-173.9,374.1z M-172.6,374.1c0,1.8,0.2,2.9,0.6,3.5c0.4,0.6,0.9,0.9,1.5,0.9
			s1.1-0.3,1.5-0.9s0.6-1.8,0.6-3.5c0-1.8-0.2-2.9-0.6-3.5s-0.9-0.9-1.5-0.9c-0.6,0-1.1,0.3-1.5,0.8
			C-172.4,371.1-172.6,372.3-172.6,374.1z"/>
	</g>
	<g class="st3">
		<path class="st4" d="M-165.3,370.5c0-0.6,0.2-1,0.6-1.4s0.9-0.6,1.4-0.6c0.6,0,1,0.2,1.4,0.6s0.6,0.9,0.6,1.4s-0.2,1-0.6,1.4
			s-0.9,0.6-1.4,0.6c-0.6,0-1-0.2-1.4-0.6S-165.3,371-165.3,370.5z M-164.5,370.5c0,0.3,0.1,0.6,0.4,0.9c0.2,0.2,0.5,0.4,0.9,0.4
			c0.3,0,0.6-0.1,0.9-0.4c0.2-0.2,0.4-0.5,0.4-0.9s-0.1-0.6-0.4-0.9c-0.2-0.2-0.5-0.4-0.9-0.4c-0.3,0-0.6,0.1-0.9,0.4
			C-164.4,369.8-164.5,370.1-164.5,370.5z"/>
	</g>
	<g id="g4230" class="st1">
		<g>
			<defs>
				<rect id="SVGID_1_" x="-218" y="243.2" width="174.1" height="306.8"/>
			</defs>
			<clipPath id="SVGID_2_">
				<use xlink:href="#SVGID_1_"  style="overflow:visible;"/>
			</clipPath>
			<g id="g4232" class="st5">
				<path id="path4238" class="st6" d="M-103.2,378.4h-39V287h39V378.4z"/>
				<path id="path4240" class="st7" d="M-97.9,417.2h-44.3v-46.8h44.3V417.2z"/>
				<path id="path4242" class="st8" d="M-94.1,510.2h-48V416h48C-94.1,416-94.1,510.2-94.1,510.2z"/>
				<g id="g4244" transform="translate(60.6493,28.433)">
					<path id="path4246" class="st9" d="M-202.8,486h-3.2c-6.2,0-11.2-5.1-11.2-11.3v-205c0-6.2,5.1-11.3,11.3-11.3h3.2
						c6.2,0,11.3,5.1,11.3,11.3v205C-191.6,481-196.7,486-202.8,486"/>
				</g>
			</g>
		</g>
	</g>
	<g class="st3">
		<path class="st4" d="M-176.4,425.5v1.3h-7.1c0-0.3,0-0.6,0.2-0.9c0.2-0.5,0.5-1,0.9-1.4s1-1,1.7-1.6c1.2-1,2-1.7,2.4-2.3
			c0.4-0.6,0.6-1.1,0.6-1.6c0-0.5-0.2-1-0.6-1.3c-0.4-0.4-0.9-0.5-1.5-0.5c-0.6,0-1.1,0.2-1.5,0.6s-0.6,0.9-0.6,1.6l-1.4-0.1
			c0.1-1,0.4-1.8,1-2.3c0.6-0.5,1.4-0.8,2.4-0.8c1,0,1.8,0.3,2.4,0.9s0.9,1.3,0.9,2.1c0,0.4-0.1,0.9-0.3,1.3
			c-0.2,0.4-0.5,0.9-0.9,1.3s-1.1,1.1-2,1.9c-0.8,0.7-1.3,1.1-1.5,1.4s-0.4,0.5-0.6,0.7H-176.4z"/>
	</g>
	<g class="st3">
		<path class="st4" d="M-175,421.5c0-1.3,0.1-2.3,0.4-3.1c0.3-0.8,0.6-1.4,1.2-1.8s1.2-0.6,1.9-0.6c0.6,0,1.1,0.1,1.5,0.3
			c0.4,0.2,0.8,0.6,1.1,1c0.3,0.4,0.5,1,0.7,1.6c0.2,0.6,0.2,1.5,0.2,2.5c0,1.3-0.1,2.3-0.4,3.1s-0.6,1.4-1.2,1.8
			c-0.5,0.4-1.2,0.6-2,0.6c-1,0-1.8-0.4-2.4-1.1C-174.6,425-175,423.5-175,421.5z M-173.6,421.5c0,1.8,0.2,2.9,0.6,3.5
			c0.4,0.6,0.9,0.9,1.5,0.9s1.1-0.3,1.5-0.9s0.6-1.8,0.6-3.5c0-1.8-0.2-2.9-0.6-3.5c-0.4-0.6-0.9-0.9-1.5-0.9
			c-0.6,0-1.1,0.3-1.5,0.8C-173.4,418.5-173.6,419.7-173.6,421.5z"/>
	</g>
	<g class="st3">
		<path class="st4" d="M-166.3,417.9c0-0.6,0.2-1,0.6-1.4c0.4-0.4,0.9-0.6,1.4-0.6c0.6,0,1,0.2,1.4,0.6c0.4,0.4,0.6,0.9,0.6,1.4
			c0,0.6-0.2,1-0.6,1.4c-0.4,0.4-0.9,0.6-1.4,0.6c-0.6,0-1-0.2-1.4-0.6S-166.3,418.5-166.3,417.9z M-165.5,417.9
			c0,0.3,0.1,0.6,0.4,0.9c0.2,0.2,0.5,0.4,0.9,0.4c0.3,0,0.6-0.1,0.9-0.4c0.2-0.2,0.4-0.5,0.4-0.9s-0.1-0.6-0.4-0.9
			c-0.2-0.2-0.5-0.4-0.9-0.4c-0.3,0-0.6,0.1-0.9,0.4C-165.4,417.3-165.5,417.6-165.5,417.9z"/>
	</g>
	<g id="g4252" class="st1">
		<g>
			<g id="g4254">
				<g id="g4260" transform="translate(106.332,135.0997)">
					<path id="path4262" class="st9" d="M-191.4,246h-14.4c-2.1,0-3.8-1.7-3.8-3.8v-86.7c0-2.1,1.7-3.8,3.8-3.8h14.4
						c2.1,0,3.8,1.7,3.8,3.8v86.7C-187.7,244.3-189.4,246-191.4,246"/>
				</g>
				<g id="g4264" transform="translate(106.332,104.5997)">
					<path id="path4266" class="st9" d="M-191.4,314.7h-9.1c-2.1,0-3.8-1.7-3.8-3.8v-43.1c0-2.1,1.7-3.8,3.8-3.8h9.1
						c2.1,0,3.8,1.7,3.8,3.8v43.1C-187.7,313-189.4,314.7-191.4,314.7"/>
				</g>
				<g id="g4268" transform="translate(106.332,43.8497)">
					<path id="path4270" class="st9" d="M-191.4,451.3h-5.3c-2.1,0-3.8-1.7-3.8-3.8v-113c0-2.1,1.7-3.8,3.8-3.8h5.3
						c2.1,0,3.8,1.7,3.8,3.8v113C-187.7,449.7-189.4,451.3-191.4,451.3"/>
				</g>
			</g>
		</g>
	</g>
	<g class="st3">
		<path class="st8" d="M-123.3,313.3h-1.1v-7c-0.3,0.3-0.6,0.5-1,0.8c-0.4,0.3-0.8,0.4-1.2,0.6v-1.1c0.6-0.3,1.2-0.6,1.6-1
			s0.8-0.8,1-1.2h0.7V313.3z"/>
	</g>
	<g class="st3">
		<path class="st8" d="M-123.9,325.8v-2.1h-3.9v-1l4.1-5.8h0.9v5.8h1.2v1h-1.2v2.1H-123.9z M-123.9,322.7v-4l-2.8,4H-123.9z"/>
	</g>
	<g class="st3">
		<path class="st8" d="M-127.4,333.9c0-1.1,0.1-1.9,0.3-2.6c0.2-0.6,0.5-1.1,1-1.5c0.4-0.4,1-0.5,1.6-0.5c0.5,0,0.9,0.1,1.3,0.3
			s0.7,0.5,0.9,0.8c0.2,0.4,0.4,0.8,0.6,1.3c0.1,0.5,0.2,1.2,0.2,2.1c0,1-0.1,1.9-0.3,2.5s-0.5,1.1-1,1.5c-0.4,0.4-1,0.5-1.6,0.5
			c-0.9,0-1.5-0.3-2-0.9C-127.1,336.8-127.4,335.6-127.4,333.9z M-126.3,333.9c0,1.5,0.2,2.4,0.5,2.9s0.8,0.7,1.3,0.7
			s0.9-0.2,1.3-0.7s0.5-1.5,0.5-2.9c0-1.5-0.2-2.5-0.5-2.9s-0.8-0.7-1.3-0.7c-0.5,0-0.9,0.2-1.2,0.6
			C-126.1,331.4-126.3,332.4-126.3,333.9z"/>
	</g>
	<g class="st3">
		<path class="st8" d="M-123.3,384.9h-1.1v-7c-0.3,0.3-0.6,0.5-1,0.8c-0.4,0.3-0.8,0.4-1.2,0.6v-1.1c0.6-0.3,1.2-0.6,1.6-1
			s0.8-0.8,1-1.2h0.7V384.9z"/>
	</g>
	<g class="st3">
		<path class="st8" d="M-121.7,396.3v1.1h-5.9c0-0.3,0-0.5,0.1-0.8c0.2-0.4,0.4-0.8,0.7-1.2c0.3-0.4,0.8-0.8,1.4-1.4
			c1-0.8,1.6-1.4,2-1.9s0.5-0.9,0.5-1.3c0-0.4-0.2-0.8-0.5-1.1c-0.3-0.3-0.7-0.4-1.2-0.4c-0.5,0-1,0.2-1.3,0.5s-0.5,0.8-0.5,1.3
			l-1.1-0.1c0.1-0.8,0.4-1.5,0.9-1.9c0.5-0.4,1.2-0.7,2-0.7c0.9,0,1.5,0.2,2,0.7c0.5,0.5,0.8,1.1,0.8,1.8c0,0.4-0.1,0.7-0.2,1.1
			s-0.4,0.7-0.7,1.1c-0.3,0.4-0.9,0.9-1.7,1.6c-0.7,0.6-1.1,0.9-1.3,1.1c-0.2,0.2-0.3,0.4-0.5,0.6H-121.7z"/>
	</g>
	<g class="st3">
		<path class="st8" d="M-127.4,405.5c0-1.1,0.1-1.9,0.3-2.6c0.2-0.6,0.5-1.1,1-1.5c0.4-0.3,1-0.5,1.6-0.5c0.5,0,0.9,0.1,1.3,0.3
			s0.7,0.5,0.9,0.8c0.2,0.4,0.4,0.8,0.6,1.3c0.1,0.5,0.2,1.2,0.2,2.1c0,1-0.1,1.9-0.3,2.5c-0.2,0.6-0.5,1.1-1,1.5
			c-0.4,0.4-1,0.5-1.6,0.5c-0.9,0-1.5-0.3-2-0.9C-127.1,408.4-127.4,407.1-127.4,405.5z M-126.3,405.5c0,1.5,0.2,2.4,0.5,2.9
			s0.8,0.7,1.3,0.7s0.9-0.2,1.3-0.7s0.5-1.5,0.5-2.9c0-1.5-0.2-2.5-0.5-2.9s-0.8-0.7-1.3-0.7c-0.5,0-0.9,0.2-1.2,0.6
			C-126.1,403-126.3,404-126.3,405.5z"/>
	</g>
	<g class="st3">
		<path class="st10" d="M-123.3,450.5h-1.1v-7c-0.3,0.3-0.6,0.5-1,0.8c-0.4,0.3-0.8,0.4-1.2,0.6v-1.1c0.6-0.3,1.2-0.6,1.6-1
			s0.8-0.8,1-1.2h0.7V450.5z"/>
	</g>
	<g class="st3">
		<path class="st10" d="M-127.4,458.5c0-1.1,0.1-1.9,0.3-2.6c0.2-0.6,0.5-1.1,1-1.5c0.4-0.3,1-0.5,1.6-0.5c0.5,0,0.9,0.1,1.3,0.3
			s0.7,0.5,0.9,0.8c0.2,0.4,0.4,0.8,0.6,1.3c0.1,0.5,0.2,1.2,0.2,2.1c0,1-0.1,1.9-0.3,2.5c-0.2,0.6-0.5,1.1-1,1.5
			c-0.4,0.4-1,0.5-1.6,0.5c-0.9,0-1.5-0.3-2-0.9C-127.1,461.4-127.4,460.2-127.4,458.5z M-126.3,458.5c0,1.5,0.2,2.4,0.5,2.9
			s0.8,0.7,1.3,0.7s0.9-0.2,1.3-0.7s0.5-1.5,0.5-2.9c0-1.5-0.2-2.5-0.5-2.9s-0.8-0.7-1.3-0.7c-0.5,0-0.9,0.2-1.2,0.6
			C-126.1,456.1-126.3,457.1-126.3,458.5z"/>
	</g>
	<g class="st3">
		<path class="st10" d="M-127.4,471c0-1.1,0.1-1.9,0.3-2.6c0.2-0.6,0.5-1.1,1-1.5c0.4-0.3,1-0.5,1.6-0.5c0.5,0,0.9,0.1,1.3,0.3
			s0.7,0.5,0.9,0.8c0.2,0.4,0.4,0.8,0.6,1.3c0.1,0.5,0.2,1.2,0.2,2.1c0,1-0.1,1.9-0.3,2.5c-0.2,0.6-0.5,1.1-1,1.5
			c-0.4,0.4-1,0.5-1.6,0.5c-0.9,0-1.5-0.3-2-0.9C-127.1,473.9-127.4,472.7-127.4,471z M-126.3,471c0,1.5,0.2,2.4,0.5,2.9
			s0.8,0.7,1.3,0.7s0.9-0.2,1.3-0.7s0.5-1.5,0.5-2.9c0-1.5-0.2-2.5-0.5-2.9s-0.8-0.7-1.3-0.7c-0.5,0-0.9,0.2-1.2,0.6
			C-126.1,468.6-126.3,469.6-126.3,471z"/>
	</g>
	<g class="st1">
		<path class="st8" d="M-206,301.9l-3-11.5h1.6l1.7,7.5c0.2,0.8,0.3,1.6,0.5,2.3c0.3-1.2,0.5-1.9,0.5-2.1l2.2-7.7h1.8l1.6,5.8
			c0.4,1.4,0.7,2.8,0.9,4.1c0.1-0.7,0.3-1.6,0.6-2.5l1.8-7.4h1.5l-3.1,11.5h-1.5l-2.4-8.7c-0.2-0.7-0.3-1.2-0.4-1.3
			c-0.1,0.5-0.2,1-0.3,1.3l-2.4,8.7H-206z"/>
		<path class="st8" d="M-202.4,317.9v-11.5h1.5v11.5H-202.4z"/>
		<path class="st8" d="M-206.2,333.9v-11.5h1.6l6,9v-9h1.5v11.5h-1.6l-6-9v9H-206.2z"/>
		<path class="st8" d="M-201.3,345.5v-1.3l4.9,0v4.3c-0.7,0.6-1.5,1-2.3,1.3c-0.8,0.3-1.6,0.4-2.4,0.4c-1.1,0-2.1-0.2-3.1-0.7
			c-0.9-0.5-1.6-1.2-2.1-2.1c-0.5-0.9-0.7-1.9-0.7-3.1c0-1.1,0.2-2.2,0.7-3.1c0.5-1,1.1-1.7,2-2.2s1.9-0.7,3-0.7
			c0.8,0,1.6,0.1,2.2,0.4c0.7,0.3,1.2,0.6,1.6,1.1c0.4,0.5,0.7,1.1,0.9,1.9l-1.4,0.4c-0.2-0.6-0.4-1-0.6-1.4
			c-0.3-0.3-0.6-0.6-1.1-0.8c-0.5-0.2-1-0.3-1.6-0.3c-0.7,0-1.3,0.1-1.8,0.3c-0.5,0.2-0.9,0.5-1.2,0.8c-0.3,0.3-0.6,0.7-0.7,1.1
			c-0.3,0.7-0.4,1.5-0.4,2.3c0,1,0.2,1.9,0.5,2.6s0.9,1.2,1.5,1.5c0.7,0.3,1.4,0.5,2.1,0.5c0.7,0,1.3-0.1,1.9-0.4
			c0.6-0.3,1.1-0.5,1.4-0.8v-2.1H-201.3z"/>
		<path class="st8" d="M-205.2,370.4v-11.5h7.7v1.4h-6.2v3.5h5.4v1.4h-5.4v5.2H-205.2z"/>
		<path class="st8" d="M-204.9,386.4v-11.5h1.5V385h5.6v1.4H-204.9z"/>
		<path class="st8" d="M-207,402.4l4.4-11.5h1.6l4.7,11.5h-1.7l-1.3-3.5h-4.8l-1.3,3.5H-207z M-203.7,397.7h3.9l-1.2-3.2
			c-0.4-1-0.6-1.8-0.8-2.4c-0.1,0.7-0.4,1.5-0.6,2.2L-203.7,397.7z"/>
		<path class="st8" d="M-205.8,418.4v-11.5h4.3c0.8,0,1.3,0,1.7,0.1c0.6,0.1,1,0.3,1.4,0.5c0.4,0.3,0.7,0.6,0.9,1.1
			c0.2,0.5,0.3,1,0.3,1.6c0,1-0.3,1.8-0.9,2.5c-0.6,0.7-1.7,1-3.4,1h-2.9v4.7H-205.8z M-204.3,412.4h3c1,0,1.7-0.2,2.1-0.5
			c0.4-0.4,0.6-0.9,0.6-1.5c0-0.5-0.1-0.9-0.4-1.2s-0.6-0.6-1-0.7c-0.3-0.1-0.7-0.1-1.4-0.1h-2.9V412.4z"/>
		<path class="st8" d="M-206.3,430.7l1.4-0.1c0.1,0.6,0.2,1,0.5,1.4c0.2,0.4,0.6,0.7,1.2,0.9c0.5,0.2,1.1,0.3,1.8,0.3
			c0.6,0,1.1-0.1,1.5-0.3c0.4-0.2,0.8-0.4,1-0.7c0.2-0.3,0.3-0.6,0.3-1c0-0.4-0.1-0.7-0.3-0.9c-0.2-0.3-0.6-0.5-1-0.7
			c-0.3-0.1-1-0.3-2-0.6c-1.1-0.3-1.8-0.5-2.2-0.7c-0.5-0.3-1-0.6-1.2-1.1c-0.3-0.4-0.4-0.9-0.4-1.4c0-0.6,0.2-1.1,0.5-1.6
			s0.8-0.9,1.4-1.1c0.6-0.3,1.3-0.4,2.1-0.4c0.8,0,1.6,0.1,2.2,0.4s1.1,0.7,1.5,1.2c0.3,0.5,0.5,1.1,0.6,1.8l-1.5,0.1
			c-0.1-0.7-0.3-1.3-0.8-1.6c-0.5-0.4-1.1-0.6-2-0.6c-0.9,0-1.6,0.2-2,0.5c-0.4,0.3-0.6,0.7-0.6,1.2c0,0.4,0.1,0.8,0.4,1
			c0.3,0.3,1.1,0.5,2.3,0.8c1.2,0.3,2.1,0.5,2.5,0.7c0.7,0.3,1.2,0.7,1.5,1.2c0.3,0.5,0.5,1,0.5,1.6c0,0.6-0.2,1.2-0.5,1.7
			c-0.3,0.5-0.9,1-1.5,1.3c-0.7,0.3-1.4,0.4-2.2,0.4c-1,0-1.9-0.2-2.6-0.5c-0.7-0.3-1.3-0.8-1.6-1.4S-206.3,431.5-206.3,430.7z"/>
	</g>
</g>
<g id="Indicator" class="st0">
	<rect x="-156.6" y="298.5" class="st11" width="25.7" height="8.2"/>
</g>
<g id="Handle">
	<g id="g4278">
		<g>
			<defs>
				<rect id="SVGID_3_" x="-218" y="243.2" width="174.1" height="306.8"/>
			</defs>
			<clipPath id="SVGID_4_">
				<use xlink:href="#SVGID_3_"  style="overflow:visible;"/>
			</clipPath>
			<g id="g4280" class="st12">
				<g id="g4286" transform="translate(129.832,193.183)">
					<path id="path4288" class="st8" d="M-185.5,115.3H-274c-6.2,0-11.3-5.1-11.3-11.3v-2c0-6.2,5.1-11.3,11.3-11.3h88.4
						c6.2,0,11.3,5.1,11.3,11.3v2C-174.3,110.3-179.4,115.3-185.5,115.3"/>
				</g>
			</g>
		</g>
	</g>
</g>
</svg>
