<?xml version="1.0" encoding="UTF-8" standalone="no"?>
<svg
   xmlns:dc="http://purl.org/dc/elements/1.1/"
   xmlns:cc="http://creativecommons.org/ns#"
   xmlns:rdf="http://www.w3.org/1999/02/22-rdf-syntax-ns#"
   xmlns:svg="http://www.w3.org/2000/svg"
   xmlns="http://www.w3.org/2000/svg"
   viewBox="0 0 174.12375 306.78625"
   height="306.78625"
   width="174.12375"
   xml:space="preserve"
   version="1.1"
   id="svg4136"><metadata
     id="metadata4142"><rdf:RDF><cc:Work
         rdf:about=""><dc:format>image/svg+xml</dc:format><dc:type
           rdf:resource="http://purl.org/dc/dcmitype/StillImage" /><dc:title></dc:title></cc:Work></rdf:RDF></metadata><defs
     id="defs4140"><clipPath
       id="clipPath4150"
       clipPathUnits="userSpaceOnUse"><path
         id="path4152"
         d="m 0,245.429 139.299,0 L 139.299,0 0,0 0,245.429 Z" /></clipPath><clipPath
       id="clipPath4166"
       clipPathUnits="userSpaceOnUse"><path
         id="path4168"
         d="m 0,245.429 139.299,0 L 139.299,0 0,0 0,245.429 Z" /></clipPath><clipPath
       id="clipPath4234"
       clipPathUnits="userSpaceOnUse"><path
         id="path4236"
         d="m 0,245.429 139.299,0 L 139.299,0 0,0 0,245.429 Z" /></clipPath><clipPath
       id="clipPath4256"
       clipPathUnits="userSpaceOnUse"><path
         id="path4258"
         d="m 0,245.429 139.299,0 L 139.299,0 0,0 0,245.429 Z" /></clipPath><clipPath
       id="clipPath4282"
       clipPathUnits="userSpaceOnUse"><path
         id="path4284"
         d="m 0,245.429 139.299,0 L 139.299,0 0,0 0,245.429 Z" /></clipPath></defs><g
     transform="matrix(1.25,0,0,-1.25,0,306.78625)"
     id="g4144"><g
       id="g4146"><g
         clip-path="url(#clipPath4150)"
         id="g4148"><g
           transform="translate(132.2987,0)"
           id="g4154"><path
             id="path4156"
             style="fill:#3c3c3c;fill-opacity:1;fill-rule:nonzero;stroke:none"
             d="m 0,0 -125.299,0 c -3.866,0 -7,3.134 -7,7 l 0,231.429 c 0,3.866 3.134,7 7,7 l 125.299,0 c 3.866,0 7,-3.134 7,-7 L 7,7 C 7,3.134 3.866,0 0,0" /></g><text
           id="text4158"
           style="font-variant:normal;font-weight:normal;font-stretch:normal;font-size:12px;font-family:Arial;-inkscape-font-specification:ArialMT;writing-mode:tb-rl;fill:#ffffff;fill-opacity:1;fill-rule:nonzero;stroke:none"
           transform="matrix(1,0,0,-1,7.54,181.4701)"><tspan
             id="tspan4160"
             y="0 12 24 36"
             x="0">WING</tspan></text>
</g></g><g
       id="g4162"><g
         clip-path="url(#clipPath4166)"
         id="g4164"><text
           id="text4170"
           style="font-variant:normal;font-weight:normal;font-stretch:normal;font-size:12px;font-family:Arial;-inkscape-font-specification:ArialMT;writing-mode:tb-rl;fill:#ffffff;fill-opacity:1;fill-rule:nonzero;stroke:none"
           transform="matrix(1,0,0,-1,7.54,130.1361)"><tspan
             id="tspan4172"
             y="0 12 24 36 48"
             x="0">FLAPS</tspan></text>
<g
           transform="translate(127.595,242.2293)"
           id="g4174"><path
             id="path4176"
             style="fill:#4d4c4e;fill-opacity:1;fill-rule:nonzero;stroke:none"
             d="m 0,0 c 5.01,0 9.072,-4.062 9.072,-9.072 0,-5.011 -4.062,-9.073 -9.072,-9.073 -5.01,0 -9.072,4.062 -9.072,9.073 C -9.072,-4.062 -5.01,0 0,0" /></g><g
           transform="translate(127.595,242.2293)"
           id="g4178"><path
             id="path4180"
             style="fill:none;stroke:#292929;stroke-width:0.5;stroke-linecap:butt;stroke-linejoin:miter;stroke-miterlimit:4;stroke-dasharray:none;stroke-opacity:1"
             d="m 0,0 c 5.01,0 9.072,-4.062 9.072,-9.072 0,-5.011 -4.062,-9.073 -9.072,-9.073 -5.01,0 -9.072,4.062 -9.072,9.073 C -9.072,-4.062 -5.01,0 0,0 Z" /></g><g
           transform="translate(130.1591,238.758)"
           id="g4182"><path
             id="path4184"
             style="fill:#292929;fill-opacity:1;fill-rule:nonzero;stroke:none"
             d="m 0,0 -3.169,-3.562 -4.122,1.699 -0.76,-1.247 3.316,-3.019 -1.635,-4.316 1.243,-0.758 3.085,3.431 4.206,-1.568 0.76,1.246 -3.4,2.889 1.72,4.446 L 0,0 Z" /></g><g
           transform="translate(12.1128,242.2293)"
           id="g4186"><path
             id="path4188"
             style="fill:#4d4c4e;fill-opacity:1;fill-rule:nonzero;stroke:none"
             d="m 0,0 c 5.01,0 9.072,-4.062 9.072,-9.072 0,-5.011 -4.062,-9.073 -9.072,-9.073 -5.01,0 -9.072,4.062 -9.072,9.073 C -9.072,-4.062 -5.01,0 0,0" /></g><g
           transform="translate(12.1128,242.2293)"
           id="g4190"><path
             id="path4192"
             style="fill:none;stroke:#292929;stroke-width:0.5;stroke-linecap:butt;stroke-linejoin:miter;stroke-miterlimit:4;stroke-dasharray:none;stroke-opacity:1"
             d="m 0,0 c 5.01,0 9.072,-4.062 9.072,-9.072 0,-5.011 -4.062,-9.073 -9.072,-9.073 -5.01,0 -9.072,4.062 -9.072,9.073 C -9.072,-4.062 -5.01,0 0,0 Z" /></g><g
           transform="translate(14.6769,238.758)"
           id="g4194"><path
             id="path4196"
             style="fill:#292929;fill-opacity:1;fill-rule:nonzero;stroke:none"
             d="m 0,0 -3.169,-3.562 -4.122,1.699 -0.76,-1.247 3.316,-3.019 -1.635,-4.316 1.243,-0.758 3.085,3.431 4.206,-1.568 0.76,1.246 -3.4,2.889 1.72,4.446 L 0,0 Z" /></g><g
           transform="translate(127.3904,20.2293)"
           id="g4198"><path
             id="path4200"
             style="fill:#4d4c4e;fill-opacity:1;fill-rule:nonzero;stroke:none"
             d="m 0,0 c 5.01,0 9.072,-4.062 9.072,-9.072 0,-5.011 -4.062,-9.073 -9.072,-9.073 -5.01,0 -9.072,4.062 -9.072,9.073 C -9.072,-4.062 -5.01,0 0,0" /></g><g
           transform="translate(127.3904,20.2293)"
           id="g4202"><path
             id="path4204"
             style="fill:none;stroke:#292929;stroke-width:0.5;stroke-linecap:butt;stroke-linejoin:miter;stroke-miterlimit:4;stroke-dasharray:none;stroke-opacity:1"
             d="m 0,0 c 5.01,0 9.072,-4.062 9.072,-9.072 0,-5.011 -4.062,-9.073 -9.072,-9.073 -5.01,0 -9.072,4.062 -9.072,9.073 C -9.072,-4.062 -5.01,0 0,0 Z" /></g><g
           transform="translate(129.9545,16.758)"
           id="g4206"><path
             id="path4208"
             style="fill:#292929;fill-opacity:1;fill-rule:nonzero;stroke:none"
             d="m 0,0 -3.169,-3.562 -4.122,1.699 -0.76,-1.247 3.316,-3.019 -1.635,-4.316 1.243,-0.758 3.085,3.431 4.206,-1.568 0.76,1.246 -3.4,2.889 1.72,4.446 L 0,0 Z" /></g><g
           transform="translate(11.9082,20.2293)"
           id="g4210"><path
             id="path4212"
             style="fill:#4d4c4e;fill-opacity:1;fill-rule:nonzero;stroke:none"
             d="m 0,0 c 5.01,0 9.072,-4.062 9.072,-9.072 0,-5.011 -4.062,-9.073 -9.072,-9.073 -5.01,0 -9.072,4.062 -9.072,9.073 C -9.072,-4.062 -5.01,0 0,0" /></g><g
           transform="translate(11.9082,20.2293)"
           id="g4214"><path
             id="path4216"
             style="fill:none;stroke:#292929;stroke-width:0.5;stroke-linecap:butt;stroke-linejoin:miter;stroke-miterlimit:4;stroke-dasharray:none;stroke-opacity:1"
             d="m 0,0 c 5.01,0 9.072,-4.062 9.072,-9.072 0,-5.011 -4.062,-9.073 -9.072,-9.073 -5.01,0 -9.072,4.062 -9.072,9.073 C -9.072,-4.062 -5.01,0 0,0 Z" /></g><g
           transform="translate(14.4723,16.758)"
           id="g4218"><path
             id="path4220"
             style="fill:#292929;fill-opacity:1;fill-rule:nonzero;stroke:none"
             d="m 0,0 -3.169,-3.562 -4.122,1.699 -0.76,-1.247 3.316,-3.019 -1.635,-4.316 1.243,-0.758 3.085,3.431 4.206,-1.568 0.76,1.246 -3.4,2.889 1.72,4.446 L 0,0 Z" /></g><path
           id="path4222"
           style="fill:#d0d0d0;fill-opacity:1;fill-rule:nonzero;stroke:none"
           d="m 69.649,193.183 -20.567,0 0,5.417 20.567,0 0,-5.417 z" /></g></g><text
       id="text4224"
       style="font-variant:normal;font-weight:normal;font-stretch:normal;font-size:12px;font-family:Arial;-inkscape-font-specification:ArialMT;writing-mode:lr-tb;fill:#eaeaeb;fill-opacity:1;fill-rule:nonzero;stroke:none"
       transform="matrix(1,0,0,-1,29.415,199.4663)"><tspan
         id="tspan4226"
         y="0"
         x="0 8.6639996">UP</tspan><tspan
         id="tspan4228"
         y="62.952"
         x="-1.332 5.3400002 12.012">10°</tspan></text>
<g
       id="g4230"><g
         clip-path="url(#clipPath4234)"
         id="g4232"><path
           id="path4238"
           style="fill:#3c4391;fill-opacity:1;fill-rule:nonzero;stroke:none"
           d="m 91.832,137.272 -31.183,0 0,73.161 31.183,0 0,-73.161 z" /><path
           id="path4240"
           style="fill:#4eabe0;fill-opacity:1;fill-rule:nonzero;stroke:none"
           d="m 96.082,106.266 -35.433,0 0,37.417 35.433,0 0,-37.417 z" /><path
           id="path4242"
           style="fill:#ffffff;fill-opacity:1;fill-rule:nonzero;stroke:none"
           d="m 99.082,31.85 -38.433,0 0,75.313 38.433,0 0,-75.313 z" /><g
           transform="translate(60.6493,28.433)"
           id="g4244"><path
             id="path4246"
             style="fill:#292929;fill-opacity:1;fill-rule:nonzero;stroke:none"
             d="m 0,0 -2.567,0 c -4.95,0 -9,4.05 -9,9 l 0,164 c 0,4.95 4.05,9 9,9 L 0,182 c 4.95,0 9,-4.05 9,-9 L 9,9 C 9,4.05 4.95,0 0,0" /></g></g></g><text
       id="text4248"
       style="font-variant:normal;font-weight:normal;font-stretch:normal;font-size:12px;font-family:Arial;-inkscape-font-specification:ArialMT;writing-mode:lr-tb;fill:#eaeaeb;fill-opacity:1;fill-rule:nonzero;stroke:none"
       transform="matrix(1,0,0,-1,27.2485,98.5708)"><tspan
         id="tspan4250"
         y="0"
         x="0 6.6719999 13.344">20°</tspan></text>
<g
       id="g4252"><g
         clip-path="url(#clipPath4256)"
         id="g4254"><g
           transform="translate(106.332,135.0997)"
           id="g4260"><path
             id="path4262"
             style="fill:#292929;fill-opacity:1;fill-rule:nonzero;stroke:none"
             d="m 0,0 -11.5,0 c -1.65,0 -3,1.35 -3,3 l 0,69.333 c 0,1.65 1.35,3 3,3 l 11.5,0 c 1.65,0 3,-1.35 3,-3 L 3,3 C 3,1.35 1.65,0 0,0" /></g><g
           transform="translate(106.332,104.5997)"
           id="g4264"><path
             id="path4266"
             style="fill:#292929;fill-opacity:1;fill-rule:nonzero;stroke:none"
             d="m 0,0 -7.25,0 c -1.65,0 -3,1.35 -3,3 l 0,34.51 c 0,1.65 1.35,3 3,3 l 7.25,0 c 1.65,0 3,-1.35 3,-3 L 3,3 C 3,1.35 1.65,0 0,0" /></g><g
           transform="translate(106.332,43.8497)"
           id="g4268"><path
             id="path4270"
             style="fill:#292929;fill-opacity:1;fill-rule:nonzero;stroke:none"
             d="m 0,0 -4.25,0 c -1.65,0 -3,1.35 -3,3 l 0,90.37 c 0,1.65 1.35,3 3,3 l 4.25,0 c 1.65,0 3,-1.35 3,-3 L 3,3 C 3,1.35 1.65,0 0,0" /></g></g></g><text
       id="text4272"
       style="font-variant:normal;font-weight:normal;font-stretch:normal;font-size:10px;font-family:Arial;-inkscape-font-specification:ArialMT;writing-mode:tb-rl;fill:#343434;fill-opacity:1;fill-rule:nonzero;stroke:none"
       transform="matrix(1,0,0,-1,75.6216,189.3526)"><tspan
         id="tspan4274"
         y="0 10 20 57.25 67.25 77.25"
         x="0">140120</tspan><tspan
         id="tspan4276"
         y="109.72 119.72 129.72"
         x="0">100</tspan></text>
<g
       id="g4278"><g
         clip-path="url(#clipPath4282)"
         id="g4280"><g
           transform="translate(129.832,193.183)"
           id="g4286"><path
             id="path4288"
             style="fill:#ffffff;fill-opacity:1;fill-rule:nonzero;stroke:none"
             d="m 0,0 -70.75,0 c -4.95,0 -9,4.05 -9,9 l 0,1.625 c 0,4.95 4.05,9 9,9 l 70.75,0 c 4.95,0 9,-4.05 9,-9 L 9,9 C 9,4.05 4.95,0 0,0" /></g></g></g></g></svg>