<?xml version="1.0" encoding="utf-8"?>
<!-- Generator: Adobe Illustrator 19.0.0, SVG Export Plug-In . SVG Version: 6.00 Build 0)  -->
<svg version="1.1" xmlns="http://www.w3.org/2000/svg" xmlns:xlink="http://www.w3.org/1999/xlink" x="0px" y="0px"
	 viewBox="0 0 1000 1000" style="enable-background:new 0 0 1000 1000;" xml:space="preserve">
<style type="text/css">
	.st0{display:none;}
	.st1{display:inline;}
	.st2{fill:#1A1A1A;}
	.st3{fill:#333333;}
	.st4{display:inline;fill:none;stroke:#7AC943;stroke-width:25;stroke-linejoin:bevel;stroke-miterlimit:10;}
	.st5{display:inline;fill:#FF0000;stroke:#F2F2F2;stroke-width:11;stroke-miterlimit:10;}
	.st6{display:inline;fill:#FF0000;stroke:#FFFFFF;stroke-width:11;stroke-miterlimit:10;}
	.st7{display:inline;fill:#FF0000;stroke:#FFFFFF;stroke-width:7;stroke-miterlimit:10;}
	.st8{fill:none;}
	.st9{fill:#CCCCCC;}
	.st10{display:inline;fill:url(#XMLID_139_);}
	.st11{display:inline;fill:#F2F2F2;}
	.st12{fill:#4D4D4D;stroke:#333333;stroke-width:5;stroke-miterlimit:10;}
</style>
<g id="Base" class="st0">
	<g id="XMLID_2_" class="st1">
		<path id="XMLID_48_" class="st2" d="M500,972.5c-63.8,0-125.7-12.5-183.9-37.1c-56.3-23.8-106.8-57.9-150.2-101.3
			S88.4,740.2,64.6,683.9C40,625.7,27.5,563.8,27.5,500c0-63.8,12.5-125.7,37.1-183.9c23.8-56.3,57.9-106.8,101.3-150.2
			s93.9-77.5,150.2-101.3C374.3,40,436.2,27.5,500,27.5c63.8,0,125.7,12.5,183.9,37.1c56.3,23.8,106.8,57.9,150.2,101.3
			s77.5,93.9,101.3,150.2c24.6,58.2,37.1,120.1,37.1,183.9c0,63.8-12.5,125.7-37.1,183.9c-23.8,56.3-57.9,106.8-101.3,150.2
			s-93.9,77.5-150.2,101.3C625.7,960,563.8,972.5,500,972.5z"/>
		<path id="XMLID_39_" class="st3" d="M500,55c60.1,0,118.4,11.8,173.2,34.9c53,22.4,100.6,54.5,141.5,95.4
			c40.9,40.9,73,88.5,95.4,141.5C933.2,381.6,945,439.9,945,500s-11.8,118.4-34.9,173.2c-22.4,53-54.5,100.6-95.4,141.5
			c-40.9,40.9-88.5,73-141.5,95.4C618.4,933.2,560.1,945,500,945s-118.4-11.8-173.2-34.9c-53-22.4-100.6-54.5-141.5-95.4
			c-40.9-40.9-73-88.5-95.4-141.5C66.8,618.4,55,560.1,55,500s11.8-118.4,34.9-173.2c22.4-53,54.5-100.6,95.4-141.5
			s88.5-73,141.5-95.4C381.6,66.8,439.9,55,500,55 M500,0C223.9,0,0,223.9,0,500s223.9,500,500,500s500-223.9,500-500S776.1,0,500,0
			L500,0z"/>
	</g>
	<path id="XMLID_32_" class="st4" d="M469.5,415c6.4,25.8,9,53.3,7.3,81.6c-1,16.5-3.4,32.6-7.1,48"/>
	<line id="XMLID_6_" class="st5" x1="337.1" y1="318.8" x2="365.2" y2="265"/>
	<line id="XMLID_9_" class="st6" x1="397.7" y1="383" x2="442.6" y2="352"/>
	<line id="XMLID_16_" class="st6" x1="403.5" y1="378.7" x2="448.4" y2="347.7"/>
	<line id="XMLID_11_" class="st6" x1="416.3" y1="593.7" x2="464.1" y2="617.3"/>
	<line id="XMLID_13_" class="st6" x1="342.9" y1="672.5" x2="367.8" y2="724.2"/>
	<line id="XMLID_29_" class="st6" x1="578.7" y1="486.1" x2="523.9" y2="485.8"/>
	<line id="XMLID_17_" class="st6" x1="601.3" y1="369" x2="551.5" y2="339.5"/>
	<line id="XMLID_21_" class="st7" x1="571.2" y1="417.5" x2="537.8" y2="409.5"/>
	<line id="XMLID_23_" class="st6" x1="601.3" y1="590" x2="551.5" y2="619.5"/>
	<line id="XMLID_22_" class="st7" x1="571.2" y1="541.5" x2="537.8" y2="549.5"/>
	<line id="XMLID_25_" class="st6" x1="671.8" y1="665.5" x2="650.7" y2="719.4"/>
	<line id="XMLID_24_" class="st7" x1="618.2" y1="645.8" x2="596.8" y2="672.7"/>
	<line id="XMLID_15_" class="st6" x1="664.1" y1="310.7" x2="638.5" y2="257.6"/>
	<line id="XMLID_3_" class="st6" x1="436.9" y1="479.1" x2="490.2" y2="479"/>
	<g id="XMLID_68_" class="st1">
		<rect id="XMLID_109_" x="318.4" y="208.5" class="st8" width="136" height="59"/>
		<path id="XMLID_67_" class="st9" d="M374.9,213.2V209h23.2v3.4c-2.3,2.4-4.5,5.6-6.8,9.7c-2.2,4-4,8.2-5.2,12.4
			c-0.9,3-1.4,6.3-1.7,9.8h-4.5c0-2.8,0.6-6.2,1.7-10.2c1.1-4,2.6-7.8,4.6-11.5c2-3.7,4.1-6.8,6.3-9.4H374.9z"/>
	</g>
	<g id="XMLID_66_" class="st1">
		<rect id="XMLID_107_" x="571.3" y="201" class="st8" width="107.1" height="47.3"/>
		<path id="XMLID_37_" class="st9" d="M594.9,231v-9.8h-9.7v-4.1h9.7v-9.7h4.2v9.7h9.7v4.1h-9.7v9.8H594.9z"/>
		<path id="XMLID_101_" class="st9" d="M636.5,209.8l-4.4,0.3c-0.4-1.7-0.9-3-1.7-3.8c-1.2-1.3-2.7-1.9-4.4-1.9
			c-1.4,0-2.6,0.4-3.7,1.2c-1.4,1-2.5,2.5-3.3,4.4c-0.8,1.9-1.2,4.7-1.2,8.3c1.1-1.6,2.4-2.8,3.9-3.6s3.1-1.2,4.8-1.2
			c2.9,0,5.4,1.1,7.5,3.2c2.1,2.2,3.1,4.9,3.1,8.4c0,2.2-0.5,4.3-1.5,6.3c-1,1.9-2.3,3.4-4,4.4s-3.6,1.5-5.8,1.5c-3.7,0-6.6-1.3-9-4
			c-2.3-2.7-3.5-7.1-3.5-13.3c0-6.9,1.3-11.9,3.8-15.1c2.2-2.7,5.2-4.1,9-4.1c2.8,0,5.1,0.8,6.9,2.4
			C635.1,204.8,636.1,207,636.5,209.8z M618.6,225.2c0,1.5,0.3,3,1,4.3c0.6,1.4,1.5,2.4,2.7,3.2c1.2,0.7,2.4,1.1,3.6,1.1
			c1.9,0,3.5-0.7,4.8-2.2c1.3-1.5,2-3.5,2-6.1c0-2.5-0.7-4.4-2-5.8c-1.3-1.4-3-2.1-5-2.1c-2,0-3.7,0.7-5.1,2.1
			C619.2,221,618.6,222.9,618.6,225.2z"/>
		<path id="XMLID_104_" class="st9" d="M641.5,219.1c0-4.2,0.4-7.6,1.3-10.2c0.9-2.6,2.2-4.6,3.9-6c1.7-1.4,3.9-2.1,6.5-2.1
			c1.9,0,3.6,0.4,5.1,1.2c1.4,0.8,2.6,1.9,3.6,3.3c0.9,1.5,1.7,3.2,2.2,5.3c0.5,2.1,0.8,4.9,0.8,8.5c0,4.2-0.4,7.6-1.3,10.2
			c-0.9,2.6-2.2,4.6-3.9,6c-1.7,1.4-3.9,2.1-6.5,2.1c-3.5,0-6.2-1.2-8.1-3.7C642.7,230.7,641.5,225.9,641.5,219.1z M646,219.1
			c0,5.9,0.7,9.8,2.1,11.7c1.4,1.9,3.1,2.9,5.1,2.9s3.7-1,5.1-2.9c1.4-2,2.1-5.9,2.1-11.7c0-5.9-0.7-9.8-2.1-11.7
			c-1.4-1.9-3.1-2.9-5.1-2.9c-2,0-3.6,0.9-4.8,2.6C646.8,209.2,646,213.3,646,219.1z"/>
	</g>
	<g id="XMLID_36_" class="st1">
		<rect id="XMLID_99_" x="309.7" y="378.7" class="st8" width="136" height="42.3"/>
		<path id="XMLID_35_" class="st9" d="M388.7,387.5l-4.4,0.3c-0.4-1.7-0.9-3-1.7-3.8c-1.2-1.3-2.7-1.9-4.4-1.9
			c-1.4,0-2.6,0.4-3.7,1.2c-1.4,1-2.5,2.5-3.3,4.4c-0.8,1.9-1.2,4.7-1.2,8.3c1.1-1.6,2.4-2.8,3.9-3.6c1.5-0.8,3.1-1.2,4.8-1.2
			c2.9,0,5.4,1.1,7.5,3.2c2.1,2.2,3.1,4.9,3.1,8.4c0,2.2-0.5,4.3-1.5,6.3c-1,1.9-2.3,3.4-4,4.4c-1.7,1-3.6,1.5-5.8,1.5
			c-3.7,0-6.6-1.3-9-4c-2.3-2.7-3.5-7.1-3.5-13.3c0-6.9,1.3-11.9,3.8-15.1c2.2-2.7,5.2-4.1,9-4.1c2.8,0,5.1,0.8,6.9,2.4
			C387.2,382.5,388.3,384.7,388.7,387.5z M370.7,402.9c0,1.5,0.3,3,1,4.3c0.6,1.4,1.5,2.4,2.7,3.2c1.2,0.7,2.4,1.1,3.6,1.1
			c1.9,0,3.5-0.7,4.8-2.2c1.3-1.5,2-3.5,2-6.1c0-2.5-0.7-4.4-2-5.8c-1.3-1.4-3-2.1-5-2.1c-2,0-3.7,0.7-5.1,2.1
			C371.4,398.8,370.7,400.6,370.7,402.9z"/>
	</g>
	<g id="XMLID_33_" class="st1">
		<rect id="XMLID_96_" x="337.1" y="544.4" class="st8" width="98.7" height="37.5"/>
		<path id="XMLID_19_" class="st9" d="M388.7,580.2v-8.6h-15.5v-4l16.3-23.2h3.6v23.2h4.8v4h-4.8v8.6H388.7z M388.7,567.6v-16.1
			l-11.2,16.1H388.7z"/>
	</g>
	<g id="XMLID_18_" class="st1">
		<rect id="XMLID_93_" x="309.2" y="436.3" class="st8" width="84" height="114"/>
		<path id="XMLID_14_" class="st9" d="M328.8,465.7v-29.3h3.9v29.3H328.8z"/>
		<path id="XMLID_82_" class="st9" d="M339.5,465.7v-29.3h4l15.4,23v-23h3.7v29.3h-4l-15.4-23.1v23.1H339.5z"/>
		<path id="XMLID_84_" class="st9" d="M369.7,465.7v-4.1h4.1v4.1H369.7z"/>
		<path id="XMLID_86_" class="st9" d="M322.5,514.9v-29.3h3.9v12.1h15.3v-12.1h3.9v29.3h-3.9v-13.8h-15.3v13.8H322.5z"/>
		<path id="XMLID_88_" class="st9" d="M350.9,516.7l3.5,0.5c0.1,1.1,0.6,1.9,1.2,2.4c0.9,0.7,2.1,1,3.7,1c1.7,0,3-0.3,3.9-1
			c0.9-0.7,1.5-1.6,1.8-2.8c0.2-0.7,0.3-2.3,0.3-4.6c-1.6,1.9-3.5,2.8-5.9,2.8c-2.9,0-5.2-1.1-6.8-3.2c-1.6-2.1-2.4-4.6-2.4-7.6
			c0-2,0.4-3.9,1.1-5.6c0.7-1.7,1.8-3,3.2-4c1.4-0.9,3-1.4,4.9-1.4c2.5,0,4.6,1,6.2,3v-2.6h3.3V512c0,3.3-0.3,5.7-1,7
			c-0.7,1.4-1.7,2.5-3.2,3.3c-1.5,0.8-3.3,1.2-5.4,1.2c-2.5,0-4.6-0.6-6.1-1.7C351.6,520.7,350.8,519,350.9,516.7z M353.9,503.9
			c0,2.8,0.6,4.8,1.7,6.1c1.1,1.3,2.5,1.9,4.2,1.9c1.7,0,3-0.6,4.2-1.9s1.7-3.3,1.7-6c0-2.6-0.6-4.6-1.7-5.9c-1.2-1.3-2.5-2-4.2-2
			c-1.6,0-3,0.7-4.1,2C354.4,499.4,353.9,501.3,353.9,503.9z"/>
		<path id="XMLID_91_" class="st9" d="M375.4,514.9v-4.1h4.1v4.1H375.4z"/>
	</g>
	<g id="XMLID_7_" class="st1">
		<rect id="XMLID_80_" x="353.2" y="740.6" class="st8" width="78.4" height="59"/>
		<path id="XMLID_65_" class="st9" d="M380.6,766.9l4.4-0.6c0.5,2.5,1.4,4.3,2.6,5.4c1.2,1.1,2.7,1.6,4.4,1.6c2.1,0,3.8-0.7,5.2-2.1
			c1.4-1.4,2.1-3.2,2.1-5.3c0-2-0.7-3.7-2-5s-3-2-5-2c-0.8,0-1.9,0.2-3.1,0.5l0.5-3.9c0.3,0,0.5,0,0.7,0c1.9,0,3.6-0.5,5.1-1.5
			c1.5-1,2.2-2.5,2.2-4.5c0-1.6-0.5-2.9-1.6-4c-1.1-1.1-2.5-1.6-4.2-1.6c-1.7,0-3.1,0.5-4.3,1.6c-1.1,1.1-1.9,2.7-2.2,4.8l-4.4-0.8
			c0.5-2.9,1.8-5.2,3.7-6.8s4.3-2.4,7.1-2.4c2,0,3.8,0.4,5.4,1.3c1.6,0.8,2.9,2,3.8,3.4c0.9,1.4,1.3,3,1.3,4.6c0,1.5-0.4,3-1.2,4.2
			s-2.1,2.3-3.7,3c2.1,0.5,3.8,1.5,4.9,3s1.8,3.5,1.8,5.8c0,3.1-1.1,5.8-3.4,7.9c-2.3,2.2-5.2,3.3-8.6,3.3c-3.1,0-5.7-0.9-7.8-2.8
			C382.1,772.3,380.9,769.9,380.6,766.9z"/>
	</g>
	<g id="XMLID_64_" class="st1">
		<rect id="XMLID_78_" x="584.1" y="745.6" class="st8" width="78.4" height="59"/>
		<path id="XMLID_63_" class="st9" d="M588.8,770.6v-4.4h13.5v4.4H588.8z"/>
		<path id="XMLID_72_" class="st9" d="M628.7,754.3l-4.4,0.3c-0.4-1.7-0.9-3-1.7-3.8c-1.2-1.3-2.7-1.9-4.4-1.9
			c-1.4,0-2.6,0.4-3.7,1.2c-1.4,1-2.5,2.5-3.3,4.4c-0.8,1.9-1.2,4.7-1.2,8.3c1.1-1.6,2.4-2.8,3.9-3.6c1.5-0.8,3.1-1.2,4.8-1.2
			c2.9,0,5.4,1.1,7.5,3.2s3.1,4.9,3.1,8.4c0,2.2-0.5,4.3-1.5,6.3s-2.3,3.4-4,4.4c-1.7,1-3.6,1.5-5.8,1.5c-3.7,0-6.6-1.3-9-4
			c-2.3-2.7-3.5-7.1-3.5-13.3c0-6.9,1.3-11.9,3.8-15.1c2.2-2.7,5.2-4.1,9-4.1c2.8,0,5.1,0.8,6.9,2.4
			C627.3,749.4,628.3,751.6,628.7,754.3z M610.8,769.8c0,1.5,0.3,3,1,4.3c0.6,1.4,1.5,2.4,2.7,3.2c1.2,0.7,2.4,1.1,3.6,1.1
			c1.9,0,3.5-0.7,4.8-2.2c1.3-1.5,2-3.5,2-6.1c0-2.5-0.7-4.4-2-5.8s-3-2.1-5-2.1c-2,0-3.7,0.7-5.1,2.1
			C611.4,765.6,610.8,767.5,610.8,769.8z"/>
		<path id="XMLID_75_" class="st9" d="M633.7,763.7c0-4.2,0.4-7.6,1.3-10.2s2.2-4.6,3.9-6c1.7-1.4,3.9-2.1,6.5-2.1
			c1.9,0,3.6,0.4,5.1,1.2c1.4,0.8,2.6,1.9,3.6,3.3c0.9,1.5,1.7,3.2,2.2,5.3s0.8,4.9,0.8,8.5c0,4.2-0.4,7.6-1.3,10.2
			c-0.9,2.6-2.2,4.6-3.9,6s-3.9,2.1-6.5,2.1c-3.5,0-6.2-1.2-8.1-3.7C634.9,775.3,633.7,770.4,633.7,763.7z M638.2,763.7
			c0,5.9,0.7,9.8,2.1,11.7s3.1,2.9,5.1,2.9c2,0,3.7-1,5.1-2.9s2.1-5.9,2.1-11.7c0-5.9-0.7-9.8-2.1-11.7c-1.4-1.9-3.1-2.9-5.1-2.9
			c-2,0-3.6,0.9-4.8,2.6C639,753.8,638.2,757.8,638.2,763.7z"/>
	</g>
	<g id="XMLID_62_" class="st1">
		<rect id="XMLID_70_" x="606.1" y="564.2" class="st8" width="91.9" height="59"/>
		<path id="XMLID_55_" class="st9" d="M626.4,590.5l4.4-0.6c0.5,2.5,1.4,4.3,2.6,5.4s2.7,1.6,4.4,1.6c2.1,0,3.8-0.7,5.2-2.1
			s2.1-3.2,2.1-5.3c0-2-0.7-3.7-2-5c-1.3-1.3-3-2-5-2c-0.8,0-1.9,0.2-3.1,0.5l0.5-3.9c0.3,0,0.5,0,0.7,0c1.9,0,3.6-0.5,5.1-1.5
			c1.5-1,2.2-2.5,2.2-4.5c0-1.6-0.5-2.9-1.6-4c-1.1-1.1-2.5-1.6-4.2-1.6c-1.7,0-3.1,0.5-4.3,1.6c-1.1,1.1-1.9,2.7-2.2,4.8l-4.4-0.8
			c0.5-2.9,1.8-5.2,3.7-6.8c1.9-1.6,4.3-2.4,7.1-2.4c2,0,3.8,0.4,5.4,1.3c1.6,0.8,2.9,2,3.8,3.4s1.3,3,1.3,4.6c0,1.5-0.4,3-1.2,4.2
			s-2.1,2.3-3.7,3c2.1,0.5,3.8,1.5,4.9,3s1.8,3.5,1.8,5.8c0,3.1-1.1,5.8-3.4,7.9c-2.3,2.2-5.2,3.3-8.6,3.3c-3.1,0-5.8-0.9-7.8-2.8
			S626.7,593.5,626.4,590.5z"/>
		<path id="XMLID_57_" class="st9" d="M654.1,582.3c0-4.2,0.4-7.6,1.3-10.2c0.9-2.6,2.2-4.6,3.9-6s3.9-2.1,6.5-2.1
			c1.9,0,3.6,0.4,5.1,1.2c1.4,0.8,2.6,1.9,3.6,3.3c0.9,1.5,1.7,3.2,2.2,5.3c0.5,2.1,0.8,4.9,0.8,8.5c0,4.2-0.4,7.6-1.3,10.2
			c-0.9,2.6-2.2,4.6-3.9,6c-1.7,1.4-3.9,2.1-6.5,2.1c-3.5,0-6.2-1.2-8.1-3.7C655.3,593.9,654.1,589,654.1,582.3z M658.7,582.3
			c0,5.9,0.7,9.8,2.1,11.7c1.4,1.9,3.1,2.9,5.1,2.9c2,0,3.7-1,5.1-2.9s2.1-5.9,2.1-11.7c0-5.9-0.7-9.8-2.1-11.7s-3.1-2.9-5.1-2.9
			c-2,0-3.6,0.9-4.8,2.6C659.4,572.4,658.7,576.4,658.7,582.3z"/>
	</g>
	<g id="XMLID_60_" class="st1">
		<rect id="XMLID_54_" x="593.2" y="469.1" class="st8" width="31.7" height="39.2"/>
		<path id="XMLID_51_" class="st9" d="M597.2,487.2c0-4.2,0.4-7.6,1.3-10.2c0.9-2.6,2.2-4.6,3.9-6c1.7-1.4,3.9-2.1,6.5-2.1
			c1.9,0,3.6,0.4,5.1,1.2c1.4,0.8,2.6,1.9,3.6,3.3c0.9,1.5,1.7,3.2,2.2,5.3c0.5,2.1,0.8,4.9,0.8,8.5c0,4.2-0.4,7.6-1.3,10.2
			c-0.9,2.6-2.2,4.6-3.9,6c-1.7,1.4-3.9,2.1-6.5,2.1c-3.5,0-6.2-1.2-8.1-3.7C598.4,498.8,597.2,494,597.2,487.2z M601.7,487.2
			c0,5.9,0.7,9.8,2.1,11.7c1.4,1.9,3.1,2.9,5.1,2.9c2,0,3.7-1,5.1-2.9s2.1-5.9,2.1-11.7c0-5.9-0.7-9.8-2.1-11.7
			c-1.4-1.9-3.1-2.9-5.1-2.9c-2,0-3.6,0.9-4.8,2.6C602.4,477.3,601.7,481.4,601.7,487.2z"/>
	</g>
	<g id="XMLID_58_" class="st1">
		<rect id="XMLID_50_" x="598" y="370.4" class="st8" width="108.1" height="59"/>
		<path id="XMLID_12_" class="st9" d="M626.4,396.7l4.4-0.6c0.5,2.5,1.4,4.3,2.6,5.4c1.2,1.1,2.7,1.6,4.4,1.6c2.1,0,3.8-0.7,5.2-2.1
			c1.4-1.4,2.1-3.2,2.1-5.3c0-2-0.7-3.7-2-5c-1.3-1.3-3-2-5-2c-0.8,0-1.9,0.2-3.1,0.5l0.5-3.9c0.3,0,0.5,0,0.7,0
			c1.9,0,3.6-0.5,5.1-1.5s2.2-2.5,2.2-4.5c0-1.6-0.5-2.9-1.6-4c-1.1-1.1-2.5-1.6-4.2-1.6c-1.7,0-3.1,0.5-4.3,1.6s-1.9,2.7-2.2,4.8
			l-4.4-0.8c0.5-2.9,1.8-5.2,3.7-6.8c1.9-1.6,4.3-2.4,7.1-2.4c2,0,3.8,0.4,5.4,1.3c1.6,0.8,2.9,2,3.8,3.4c0.9,1.4,1.3,3,1.3,4.6
			c0,1.5-0.4,3-1.2,4.2s-2.1,2.3-3.7,3c2.1,0.5,3.8,1.5,4.9,3s1.8,3.5,1.8,5.8c0,3.1-1.1,5.8-3.4,7.9s-5.2,3.3-8.6,3.3
			c-3.1,0-5.7-0.9-7.8-2.8C627.8,402.1,626.7,399.7,626.4,396.7z"/>
		<path id="XMLID_45_" class="st9" d="M654.1,388.5c0-4.2,0.4-7.6,1.3-10.2c0.9-2.6,2.2-4.6,3.9-6c1.7-1.4,3.9-2.1,6.5-2.1
			c1.9,0,3.6,0.4,5.1,1.2c1.4,0.8,2.6,1.9,3.6,3.3c0.9,1.5,1.7,3.2,2.2,5.3c0.5,2.1,0.8,4.9,0.8,8.5c0,4.2-0.4,7.6-1.3,10.2
			c-0.9,2.6-2.2,4.6-3.9,6c-1.7,1.4-3.9,2.1-6.5,2.1c-3.5,0-6.2-1.2-8.1-3.7C655.3,400.1,654.1,395.2,654.1,388.5z M658.7,388.5
			c0,5.9,0.7,9.8,2.1,11.7c1.4,1.9,3.1,2.9,5.1,2.9s3.7-1,5.1-2.9c1.4-2,2.1-5.9,2.1-11.7c0-5.9-0.7-9.8-2.1-11.7
			c-1.4-1.9-3.1-2.9-5.1-2.9c-2,0-3.6,0.9-4.8,2.6C659.4,378.6,658.7,382.6,658.7,388.5z"/>
	</g>
	<g id="XMLID_8_" class="st1">
		<rect id="XMLID_30_" x="392.4" y="458.8" class="st8" width="33.5" height="42.3"/>
		<path id="XMLID_26_" class="st9" d="M397.3,485.2l4.6-0.4c0.3,2.2,1.1,3.9,2.4,5.1c1.2,1.1,2.7,1.7,4.5,1.7c2.1,0,3.9-0.8,5.4-2.4
			c1.5-1.6,2.2-3.7,2.2-6.3c0-2.5-0.7-4.5-2.1-5.9c-1.4-1.4-3.3-2.2-5.5-2.2c-1.4,0-2.7,0.3-3.8,1c-1.1,0.6-2,1.5-2.7,2.5l-4.1-0.5
			l3.5-18.4h17.8v4.2h-14.3l-1.9,9.6c2.1-1.5,4.4-2.2,6.8-2.2c3.1,0,5.8,1.1,7.9,3.2c2.1,2.2,3.2,4.9,3.2,8.3c0,3.2-0.9,6-2.8,8.4
			c-2.3,2.9-5.4,4.3-9.4,4.3c-3.3,0-5.9-0.9-8-2.7C398.8,490.7,397.6,488.2,397.3,485.2z"/>
	</g>
</g>
<g id="Needles" class="st0">
	<linearGradient id="XMLID_139_" gradientUnits="userSpaceOnUse" x1="161" y1="504.4319" x2="464.0003" y2="504.4319">
		<stop  offset="0" style="stop-color:#FFFFFF"/>
		<stop  offset="1" style="stop-color:#DBDBDB"/>
	</linearGradient>
	<polyline id="XMLID_27_" class="st10" points="464,509 161,530.6 161,478.3 463.7,499.9 	"/>
	<polyline id="XMLID_20_" class="st11" points="510,499.9 813,478.3 813,530.6 510.3,509 	"/>
</g>
<g id="Top">
	<path id="XMLID_5_" class="st12" d="M302.9,98.8l0.1,802.5c0,0-246.1-111.9-246.1-401.3S302.9,98.8,302.9,98.8z"/>
	<path id="XMLID_4_" class="st12" d="M697,99.8l-0.1,802.5c0,0,246.1-111.9,246.1-401.3S697,99.8,697,99.8z"/>
	<g id="XMLID_42_">
		<rect id="XMLID_124_" x="185.7" y="340.2" class="st8" width="69.3" height="306.3"/>
		<path id="XMLID_44_" class="st9" d="M219.2,397.5L197,340.2h8.2l14.9,41.6c1.2,3.3,2.2,6.5,3,9.4c0.9-3.1,1.9-6.3,3.1-9.4
			l15.5-41.6h7.7l-22.4,57.3H219.2z"/>
		<path id="XMLID_119_" class="st9" d="M193.5,509.5l22-57.3h8.2l23.4,57.3h-8.6l-6.7-17.3h-23.9l-6.3,17.3H193.5z M210.1,485.9
			h19.4l-6-15.9c-1.8-4.8-3.2-8.8-4.1-11.9c-0.7,3.7-1.8,7.3-3.1,10.9L210.1,485.9z"/>
		<path id="XMLID_122_" class="st9" d="M238.5,601.4l7.6,1.9c-1.6,6.2-4.4,11-8.6,14.2c-4.1,3.3-9.2,4.9-15.1,4.9
			c-6.2,0-11.2-1.3-15.1-3.8c-3.9-2.5-6.8-6.2-8.8-10.9c-2-4.8-3-9.9-3-15.4c0-6,1.1-11.2,3.4-15.6c2.3-4.4,5.5-7.8,9.7-10.1
			c4.2-2.3,8.8-3.5,13.9-3.5c5.7,0,10.5,1.5,14.5,4.4c3.9,2.9,6.6,7,8.2,12.3l-7.5,1.8c-1.3-4.2-3.3-7.2-5.8-9.1
			c-2.5-1.9-5.7-2.9-9.5-2.9c-4.4,0-8.1,1.1-11,3.2c-3,2.1-5,4.9-6.2,8.5c-1.2,3.6-1.8,7.2-1.8,11c0,4.9,0.7,9.1,2.1,12.8
			c1.4,3.6,3.6,6.3,6.6,8.1c3,1.8,6.2,2.7,9.7,2.7c4.2,0,7.8-1.2,10.8-3.7C235.4,609.8,237.4,606.2,238.5,601.4z"/>
	</g>
	<g id="XMLID_43_">
		<rect id="XMLID_117_" x="734.3" y="334.9" class="st8" width="69.3" height="306.5"/>
		<path id="XMLID_69_" class="st9" d="M742.2,392.2l22-57.3h8.2l23.4,57.3h-8.6l-6.7-17.3h-23.9l-6.3,17.3H742.2z M758.7,368.7h19.4
			l-6-15.9c-1.8-4.8-3.2-8.8-4.1-11.9c-0.7,3.7-1.8,7.3-3.1,10.9L758.7,368.7z"/>
		<path id="XMLID_112_" class="st9" d="M741.6,504.2v-57.3H753l13.6,40.5c1.3,3.8,2.2,6.6,2.7,8.5c0.7-2.1,1.7-5.1,3-9.2l13.7-39.8
			h10.2v57.3H789v-47.9l-16.6,47.9h-6.8l-16.6-48.7v48.7H741.6z"/>
		<path id="XMLID_114_" class="st9" d="M749.2,616.2v-57.3h21.6c3.8,0,6.7,0.2,8.7,0.5c2.8,0.5,5.2,1.4,7.1,2.7
			c1.9,1.3,3.4,3.2,4.6,5.5c1.2,2.4,1.7,5,1.7,7.8c0,4.9-1.5,9-4.6,12.4c-3.1,3.4-8.7,5.1-16.8,5.1h-14.7v23.3H749.2z M756.8,586.2
			h14.8c4.9,0,8.4-0.9,10.4-2.7c2.1-1.8,3.1-4.4,3.1-7.7c0-2.4-0.6-4.4-1.8-6.2c-1.2-1.7-2.8-2.8-4.8-3.4c-1.3-0.3-3.6-0.5-7.1-0.5
			h-14.6V586.2z"/>
	</g>
	<g id="XMLID_10_">
	</g>
	<g id="XMLID_41_">
	</g>
	<g id="XMLID_125_">
	</g>
	<g id="XMLID_126_">
	</g>
	<g id="XMLID_127_">
	</g>
	<g id="XMLID_128_">
	</g>
	<g id="XMLID_129_">
	</g>
	<g id="XMLID_130_">
	</g>
	<g id="XMLID_131_">
	</g>
	<g id="XMLID_132_">
	</g>
	<g id="XMLID_133_">
	</g>
	<g id="XMLID_134_">
	</g>
	<g id="XMLID_135_">
	</g>
	<g id="XMLID_136_">
	</g>
	<g id="XMLID_137_">
	</g>
</g>
</svg>
