<?xml version="1.0" encoding="utf-8"?>
<!-- Generator: Adobe Illustrator 19.0.0, SVG Export Plug-In . SVG Version: 6.00 Build 0)  -->
<svg version="1.1" xmlns="http://www.w3.org/2000/svg" xmlns:xlink="http://www.w3.org/1999/xlink" x="0px" y="0px"
	 viewBox="0 0 279.4 279.4" style="enable-background:new 0 0 279.4 279.4;" xml:space="preserve">
<style type="text/css">
	.st0{fill:url(#circle8194_2_);}
	.st1{fill:#010101;}
	.st2{fill:url(#path7183_2_);}
	.st3{fill:none;stroke:#010101;stroke-width:0.6;}
	.st4{fill:none;stroke:#010101;stroke-width:0.3;}
	.st5{fill:none;stroke:url(#path7220_2_);stroke-width:0.8342;}
	.st6{fill:#1A1A1A;stroke:url(#circle7224_2_);}
	.st7{fill:url(#circle7226_2_);stroke:#010101;stroke-width:0.8594;}
	.st8{fill:url(#path7183_4_);}
	.st9{fill:none;stroke:url(#path7220_4_);stroke-width:0.8342;}
	.st10{fill:#1A1A1A;stroke:url(#circle7224_4_);}
	.st11{fill:url(#circle7226_4_);stroke:#010101;stroke-width:0.8594;}
	.st12{fill:url(#path7250_2_);stroke:#010101;}
	.st13{fill:url(#circle7254_2_);stroke:#010101;stroke-width:0.5;}
	.st14{fill:url(#circle7268_3_);stroke:#010101;stroke-width:0.5;}
	.st15{fill:#5E5F5F;stroke:#010101;stroke-width:0.5;}
	.st16{display:none;}
	.st17{display:inline;}
	.st18{fill:#F47A21;}
	.st19{fill:none;}
	.st20{fill:#F47921;}
	.st21{fill:#FFFFFF;}
	.st22{fill:none;stroke:#FFFFFF;stroke-width:0.5;}
	.st23{fill:none;stroke:#FFFFFF;stroke-miterlimit:10;}
	.st24{fill:none;stroke:#FFFFFF;stroke-width:3;stroke-miterlimit:10;}
	.st25{fill:#EF3C26;}
	.st26{fill:none;stroke:#FFFFFF;stroke-width:2;stroke-miterlimit:10;}
</style>
<g id="Base">
	<g id="layer12_1_">
		<g id="g10746_1_">
			
				<radialGradient id="circle8194_2_" cx="265.2211" cy="37.4489" r="262.4776" gradientTransform="matrix(-0.3702 1.3296 -1.7104 -0.4763 255.7532 -261.1515)" gradientUnits="userSpaceOnUse">
				<stop  offset="0" style="stop-color:#2D2E2D"/>
				<stop  offset="1" style="stop-color:#010101"/>
			</radialGradient>
			<path id="circle8194_1_" class="st0" d="M140.3,8.3c72.6,0,131.5,58.9,131.5,131.5c0,72.6-58.9,131.5-131.5,131.5
				c-72.6,0-131.5-58.9-131.5-131.5C8.8,67.1,67.7,8.3,140.3,8.3z"/>
		</g>
		<g>
			<polygon id="rect7162_3_" class="st1" points="15.3,253.3 29,267 59.8,236.2 46.1,222.5 			"/>
			
				<radialGradient id="path7183_2_" cx="1120.3472" cy="1287.5039" r="37.4709" gradientTransform="matrix(-0.3579 -0.2721 -0.2611 0.3434 764.449 102.5983)" gradientUnits="userSpaceOnUse">
				<stop  offset="0" style="stop-color:#5E5F5F"/>
				<stop  offset="1" style="stop-color:#272727"/>
			</radialGradient>
			<path id="path7183_3_" class="st2" d="M8.8,254.2v5.5h37.6v-5.5c0-10.4-8.4-18.8-18.8-18.8C17.2,235.4,8.8,243.9,8.8,254.2
				L8.8,254.2z"/>
			<path id="path7185_3_" class="st3" d="M27.9,235.4v5.3"/>
			<g id="g7187_3_" transform="matrix(1.9999996,0,0,1.9999996,-39.145782,-371.62038)">
				<path id="path7190_3_" class="st4" d="M32.1,303.5v2.7"/>
				<path id="path7192_3_" class="st4" d="M30.7,303.8v2.7"/>
				<path id="path7194_3_" class="st4" d="M29.1,304.5v2.7"/>
				<path id="path7197_3_" class="st4" d="M27.6,305.3v2.7"/>
				<path id="path7199_3_" class="st4" d="M26.5,306.4v2.7"/>
				<path id="path7201_3_" class="st4" d="M25.3,308.1v2.7"/>
			</g>
			<g id="g7203_3_" transform="matrix(-1.9999996,0,0,1.9999996,1326.5078,-370.77607)">
				<path id="path7206_3_" class="st4" d="M648,303.1v3.1"/>
				<path id="path7208_3_" class="st4" d="M646.5,303.5v2.9"/>
				<path id="path7211_3_" class="st4" d="M645,304.1v2.9"/>
				<path id="path7213_3_" class="st4" d="M643.5,305.3v2.7"/>
				<path id="path7215_3_" class="st4" d="M642.3,306.4v2.7"/>
				<path id="path7218_3_" class="st4" d="M641.2,308.1v2.7"/>
			</g>
			
				<radialGradient id="path7220_2_" cx="1640.234" cy="1209.5995" r="36.3277" gradientTransform="matrix(-0.4878 0 0 0.3149 827.667 -133.9384)" gradientUnits="userSpaceOnUse">
				<stop  offset="0" style="stop-color:#5E5F5F"/>
				<stop  offset="1" style="stop-color:#272727"/>
			</radialGradient>
			<path id="path7220_3_" class="st5" d="M9.3,253.4v5.3h36.5v-5.3c0-10.1-8.2-18.3-18.3-18.3C17.4,235.1,9.3,243.4,9.3,253.4z"/>
			<g id="g7222_3_" transform="matrix(1.9999996,0,0,1.9999996,-35.222901,-365.00075)">
				
					<linearGradient id="circle7224_2_" gradientUnits="userSpaceOnUse" x1="390.8806" y1="406.2979" x2="460.3783" y2="406.2979" gradientTransform="matrix(-1.0024 0 0 1.0024 431.9031 -95.3237)">
					<stop  offset="0" style="stop-color:#202020"/>
					<stop  offset="1" style="stop-color:#5E5E5E"/>
				</linearGradient>
				<path id="circle7224_3_" class="st6" d="M31.4,303.1c-4.9,0-8.9,4-8.9,8.9c0,4.9,4,8.9,8.9,8.9c4.9,0,8.9-4,8.9-8.9
					C40.3,307.1,36.3,303.1,31.4,303.1z"/>
				
					<radialGradient id="circle7226_2_" cx="385.6958" cy="404.9218" r="32.1977" gradientTransform="matrix(-1.0024 0 0 1.0024 417.9949 -93.9453)" gradientUnits="userSpaceOnUse">
					<stop  offset="0" style="stop-color:#191919"/>
					<stop  offset="1" style="stop-color:#010101;stop-opacity:0"/>
				</radialGradient>
				<circle id="circle7226_3_" class="st7" cx="31.4" cy="311.9" r="7.6"/>
			</g>
		</g>
		<g>
			
				<rect id="rect7162_1_" x="232.3" y="222.9" transform="matrix(0.707 -0.7072 0.7072 0.707 -102.1466 242.8577)" class="st1" width="19.4" height="43.6"/>
			
				<radialGradient id="path7183_4_" cx="748.7811" cy="993.086" r="37.4709" gradientTransform="matrix(0.3579 -0.2721 0.2611 0.3434 -274.9788 102.5983)" gradientUnits="userSpaceOnUse">
				<stop  offset="0" style="stop-color:#5E5F5F"/>
				<stop  offset="1" style="stop-color:#272727"/>
			</radialGradient>
			<path id="path7183_1_" class="st8" d="M270.8,254.2v5.5h-37.6v-5.5c0-10.4,8.4-18.8,18.8-18.8
				C262.5,235.4,270.8,243.9,270.8,254.2L270.8,254.2z"/>
			<path id="path7185_1_" class="st3" d="M251.8,235.4v5.3"/>
			<g id="g7187_1_" transform="matrix(1.9999996,0,0,1.9999996,-39.145782,-371.62038)">
				<path id="path7190_1_" class="st4" d="M146.9,303.5v2.7"/>
				<path id="path7192_1_" class="st4" d="M148.2,303.8v2.7"/>
				<path id="path7194_1_" class="st4" d="M149.9,304.5v2.7"/>
				<path id="path7197_1_" class="st4" d="M151.3,305.3v2.7"/>
				<path id="path7199_1_" class="st4" d="M152.5,306.4v2.7"/>
				<path id="path7201_1_" class="st4" d="M153.6,308.1v2.7"/>
			</g>
			<g id="g7203_1_" transform="matrix(-1.9999996,0,0,1.9999996,1326.5078,-370.77607)">
				<path id="path7206_1_" class="st4" d="M538.7,303.1v3.1"/>
				<path id="path7208_1_" class="st4" d="M540.2,303.5v2.9"/>
				<path id="path7211_1_" class="st4" d="M541.7,304.1v2.9"/>
				<path id="path7213_1_" class="st4" d="M543.2,305.3v2.7"/>
				<path id="path7215_1_" class="st4" d="M544.4,306.4v2.7"/>
				<path id="path7218_1_" class="st4" d="M545.5,308.1v2.7"/>
			</g>
			
				<radialGradient id="path7220_4_" cx="1210.0248" cy="1209.5995" r="36.3277" gradientTransform="matrix(0.4878 0 0 0.3149 -338.1967 -133.9384)" gradientUnits="userSpaceOnUse">
				<stop  offset="0" style="stop-color:#5E5F5F"/>
				<stop  offset="1" style="stop-color:#272727"/>
			</radialGradient>
			<path id="path7220_1_" class="st9" d="M270.4,253.4v5.3h-36.5v-5.3c0-10.1,8.2-18.3,18.3-18.3
				C262.3,235.1,270.4,243.4,270.4,253.4z"/>
			<g id="g7222_1_" transform="matrix(1.9999996,0,0,1.9999996,-35.222901,-365.00075)">
				
					<linearGradient id="circle7224_4_" gradientUnits="userSpaceOnUse" x1="286.2041" y1="406.2979" x2="355.7019" y2="406.2979" gradientTransform="matrix(1.0024 0 0 1.0024 -151.9454 -95.3237)">
					<stop  offset="0" style="stop-color:#202020"/>
					<stop  offset="1" style="stop-color:#5E5E5E"/>
				</linearGradient>
				<path id="circle7224_1_" class="st10" d="M143.6,303.1c4.9,0,8.9,4,8.9,8.9c0,4.9-4,8.9-8.9,8.9c-4.9,0-8.9-4-8.9-8.9
					C134.8,307.1,138.7,303.1,143.6,303.1z"/>
				
					<radialGradient id="circle7226_4_" cx="281.019" cy="404.9218" r="32.1978" gradientTransform="matrix(1.0024 0 0 1.0024 -138.0369 -93.9453)" gradientUnits="userSpaceOnUse">
					<stop  offset="0" style="stop-color:#191919"/>
					<stop  offset="1" style="stop-color:#010101;stop-opacity:0"/>
				</radialGradient>
				<circle id="circle7226_1_" class="st11" cx="143.6" cy="311.9" r="7.6"/>
			</g>
		</g>
	</g>
	<g id="airspeedIndicatorFg_1_">
		<g id="g7150_1_" transform="matrix(0.5000001,0,0,0.5000001,-134.70902,185.34998)">
			<g id="g7160_1_">
				
					<radialGradient id="path7250_2_" cx="1824.8569" cy="515.3777" r="279.7209" gradientTransform="matrix(0.8277 0 0 0.8277 -961.5752 -517.8337)" gradientUnits="userSpaceOnUse">
					<stop  offset="0" style="stop-color:#969696"/>
					<stop  offset="1" style="stop-color:#010101"/>
				</radialGradient>
				<path id="path7250_1_" class="st12" d="M548.8-369.7c-153.8,0-278.3,124.7-278.3,278.4c0,153.8,124.7,278.5,278.3,278.5
					c153.8,0,278.5-124.7,278.5-278.5C827.3-245,702.6-369.7,548.8-369.7L548.8-369.7L548.8-369.7z M548.8-339.4
					C685.8-339.4,797-228.2,797-91.2c0,137-111.2,248.3-248.3,248.3c-137,0-248.3-111.2-248.3-248.3
					C300.5-228.4,411.7-339.4,548.8-339.4z"/>
			</g>
		</g>
	</g>
	<g id="g7252_1_" transform="matrix(1.9999996,0,0,1.9999996,269.41922,-370.73392)">
		
			<radialGradient id="circle7254_2_" cx="-108.2835" cy="291.9685" r="25.0267" gradientTransform="matrix(1.0024 0 0 1.0024 -13.9304 -94.106)" gradientUnits="userSpaceOnUse">
			<stop  offset="0" style="stop-color:#BCB8AE"/>
			<stop  offset="1" style="stop-color:#605B50"/>
		</radialGradient>
		<circle id="circle7254_1_" class="st13" cx="-122.5" cy="198.5" r="6.1"/>
		<path id="path7257_1_" class="st1" d="M-120.8,194.9l-2.1,2.4l-2.7-1.2l-0.5,0.9l2.2,2l-1.1,2.9l0.9,0.5l2-2.3l2.8,1.1l0.5-0.9
			l-2.2-1.9l1.2-3L-120.8,194.9z"/>
	</g>
	<g id="g7266_1_" transform="matrix(-1.9999996,0,0,1.9999996,786.56235,-370.7339)">
		
			<radialGradient id="circle7268_3_" cx="358.2227" cy="291.9685" r="25.0463" gradientTransform="matrix(1.0024 0 0 1.0024 -93.2542 -94.106)" gradientUnits="userSpaceOnUse">
			<stop  offset="0" style="stop-color:#BCB8AE"/>
			<stop  offset="1" style="stop-color:#605B50"/>
		</radialGradient>
		<path id="circle7268_1_" class="st14" d="M265.8,192.4c3.4,0,6.1,2.7,6.1,6.1c0,3.4-2.7,6.1-6.1,6.1c-3.4,0-6.1-2.7-6.1-6.1
			C259.8,195.2,262.5,192.4,265.8,192.4z"/>
		<path id="path7271_1_" class="st1" d="M267.6,194.9l-2.1,2.4l-2.7-1.2l-0.5,0.9l2.2,2l-1.1,2.9l0.9,0.5l2-2.3l2.8,1.1l0.5-0.9
			l-2.2-1.9l1.2-3L267.6,194.9z"/>
	</g>
	<g id="g7266_2_" transform="matrix(-1.9999996,0,0,1.9999996,786.56235,-370.7339)">
		<circle id="circle7268_2_" class="st15" cx="323.5" cy="244.8" r="2.4"/>
		<path id="path7271_2_" class="st1" d="M324.2,243.3l-0.9,1l-1.1-0.5l-0.2,0.3l0.9,0.8l-0.4,1.2l0.4,0.2l0.8-0.9l1.1,0.4l0.2-0.4
			l-0.9-0.8l0.5-1.2L324.2,243.3z"/>
	</g>
	<g id="g7266_4_" transform="matrix(-1.9999996,0,0,1.9999996,786.56235,-370.7339)">
		<circle id="circle7268_4_" class="st15" cx="311.4" cy="265.6" r="2.4"/>
		<path id="path7271_4_" class="st1" d="M312.1,264.1l-0.9,1l-1.1-0.5l-0.2,0.4l0.9,0.8l-0.4,1.2l0.4,0.2l0.8-0.9l1.1,0.4l0.2-0.4
			l-0.9-0.8l0.5-1.2L312.1,264.1z"/>
	</g>
	<g id="g7266_5_" transform="matrix(-1.9999996,0,0,1.9999996,786.56235,-370.7339)">
		<circle id="circle7268_5_" class="st15" cx="335.5" cy="265.6" r="2.4"/>
		<path id="path7271_5_" class="st1" d="M336.2,264.1l-0.9,1l-1.1-0.5L334,265l0.9,0.8l-0.4,1.2l0.4,0.2l0.8-0.9l1.1,0.4l0.2-0.4
			l-0.9-0.8l0.5-1.2L336.2,264.1z"/>
	</g>
</g>
<g id="Bug_knob" class="st16">
	<g class="st17">
		<g>
			<g>
				<path class="st18" d="M251.4,247.1c4.9,0,5.3,0.3,5.3,1.4c0,0.7-1.9,10.2-1.9,10.2h-2.4l-0.4-4.4h-0.7V247.1z"/>
			</g>
		</g>
		<g>
			<g>
				<path class="st18" d="M252,247.1c-4.9,0-5.3,0.3-5.3,1.4c0,0.7,1.9,10.2,1.9,10.2h2.4l0.4-4.4h0.7V247.1z"/>
			</g>
		</g>
	</g>
	<g class="st17">
		<rect x="235.7" y="260.8" class="st19" width="32.1" height="8.5"/>
		<path class="st20" d="M242.4,267.2v-6.4h1.3v2.5h2.5v-2.5h1.3v6.4h-1.3v-2.8h-2.5v2.8H242.4z"/>
		<path class="st20" d="M248.9,260.8h2.4c0.5,0,0.9,0,1.2,0.1c0.4,0.1,0.7,0.3,1,0.6c0.3,0.3,0.5,0.6,0.6,1c0.1,0.4,0.2,0.9,0.2,1.5
			c0,0.5-0.1,1-0.2,1.4c-0.2,0.5-0.4,0.8-0.7,1.1c-0.2,0.2-0.5,0.4-0.9,0.5c-0.3,0.1-0.7,0.1-1.2,0.1h-2.4V260.8z M250.2,261.9v4.3
			h1c0.4,0,0.6,0,0.8-0.1c0.2-0.1,0.4-0.1,0.5-0.3s0.3-0.3,0.3-0.6c0.1-0.3,0.1-0.7,0.1-1.2s0-0.9-0.1-1.1s-0.2-0.5-0.4-0.6
			c-0.2-0.1-0.4-0.3-0.6-0.3c-0.2,0-0.5-0.1-1.1-0.1H250.2z"/>
		<path class="st20" d="M258.4,264.9v-1.1h2.8v2.6c-0.3,0.3-0.7,0.5-1.2,0.7c-0.5,0.2-1,0.3-1.6,0.3c-0.7,0-1.3-0.1-1.8-0.4
			c-0.5-0.3-0.9-0.7-1.1-1.2c-0.3-0.5-0.4-1.1-0.4-1.7c0-0.7,0.1-1.3,0.4-1.8s0.7-0.9,1.2-1.2c0.4-0.2,0.9-0.3,1.5-0.3
			c0.8,0,1.4,0.2,1.9,0.5c0.4,0.3,0.7,0.8,0.9,1.4l-1.3,0.2c-0.1-0.3-0.3-0.6-0.5-0.8c-0.3-0.2-0.6-0.3-0.9-0.3
			c-0.6,0-1,0.2-1.4,0.5c-0.3,0.4-0.5,0.9-0.5,1.6c0,0.8,0.2,1.3,0.5,1.7c0.3,0.4,0.8,0.6,1.3,0.6c0.3,0,0.5-0.1,0.8-0.2
			c0.3-0.1,0.5-0.2,0.7-0.4v-0.8H258.4z"/>
	</g>
</g>
<g id="Calib_knob" class="st16">
	<g class="st17">
		<rect x="10.9" y="255.7" class="st19" width="32.1" height="8.5"/>
		<path class="st21" d="M15.1,262.1v-6.4h2.1c0.8,0,1.3,0,1.5,0.1c0.4,0.1,0.7,0.3,0.9,0.6c0.2,0.3,0.4,0.7,0.4,1.3
			c0,0.4-0.1,0.7-0.2,1s-0.3,0.5-0.5,0.6c-0.2,0.2-0.4,0.3-0.7,0.3c-0.3,0.1-0.8,0.1-1.3,0.1h-0.8v2.4H15.1z M16.4,256.8v1.8h0.7
			c0.5,0,0.9,0,1-0.1s0.3-0.2,0.4-0.3c0.1-0.1,0.1-0.3,0.1-0.5c0-0.2-0.1-0.4-0.2-0.6c-0.1-0.2-0.3-0.2-0.5-0.3c-0.2,0-0.5,0-0.9,0
			H16.4z"/>
		<path class="st21" d="M21.1,255.7h1.3v3.5c0,0.6,0,0.9,0,1.1c0.1,0.3,0.2,0.5,0.4,0.6c0.2,0.2,0.5,0.2,0.9,0.2
			c0.4,0,0.6-0.1,0.8-0.2c0.2-0.2,0.3-0.3,0.3-0.6s0.1-0.6,0.1-1.1v-3.6h1.3v3.4c0,0.8,0,1.3-0.1,1.6c-0.1,0.3-0.2,0.6-0.4,0.8
			c-0.2,0.2-0.4,0.4-0.8,0.5c-0.3,0.1-0.7,0.2-1.2,0.2c-0.6,0-1.1-0.1-1.4-0.2c-0.3-0.1-0.6-0.3-0.8-0.6c-0.2-0.2-0.3-0.5-0.4-0.7
			c-0.1-0.4-0.1-0.9-0.1-1.6V255.7z"/>
		<path class="st21" d="M27.3,260l1.3-0.1c0.1,0.4,0.2,0.7,0.5,0.9c0.2,0.2,0.5,0.3,0.9,0.3c0.4,0,0.7-0.1,0.9-0.3
			c0.2-0.2,0.3-0.4,0.3-0.6c0-0.2,0-0.3-0.1-0.4c-0.1-0.1-0.2-0.2-0.5-0.3c-0.2-0.1-0.5-0.1-1-0.3c-0.7-0.2-1.2-0.4-1.5-0.6
			c-0.4-0.4-0.6-0.8-0.6-1.3c0-0.3,0.1-0.6,0.3-0.9c0.2-0.3,0.5-0.5,0.8-0.7c0.3-0.1,0.8-0.2,1.3-0.2c0.8,0,1.4,0.2,1.8,0.5
			c0.4,0.4,0.6,0.8,0.6,1.4l-1.3,0.1c-0.1-0.3-0.2-0.6-0.4-0.7c-0.2-0.1-0.5-0.2-0.8-0.2c-0.4,0-0.7,0.1-0.9,0.2
			c-0.1,0.1-0.2,0.2-0.2,0.4c0,0.2,0.1,0.3,0.2,0.4c0.2,0.1,0.6,0.3,1.2,0.4c0.6,0.2,1.1,0.3,1.4,0.5c0.3,0.2,0.5,0.4,0.7,0.7
			c0.2,0.3,0.3,0.6,0.3,1c0,0.4-0.1,0.7-0.3,1c-0.2,0.3-0.5,0.6-0.9,0.7c-0.4,0.2-0.8,0.2-1.4,0.2c-0.8,0-1.4-0.2-1.9-0.6
			C27.6,261.3,27.4,260.7,27.3,260z"/>
		<path class="st21" d="M33.6,262.1v-6.4h1.3v2.5h2.5v-2.5h1.3v6.4h-1.3v-2.8h-2.5v2.8H33.6z"/>
	</g>
	<g class="st17">
		<g>
			<path class="st22" d="M26.9,246.9c0,0,6.4-0.6,9.3,4.9"/>
			<g>
				<polygon class="st21" points="37,253.7 34.7,251.4 36.1,251.6 37,250.5 				"/>
			</g>
		</g>
	</g>
	<g class="st17">
		<g>
			<path class="st22" d="M27,246.9c0,0-6.4-0.6-9.3,4.9"/>
			<g>
				<polygon class="st21" points="16.9,253.7 17,250.5 17.8,251.6 19.2,251.4 				"/>
			</g>
		</g>
	</g>
</g>
<g id="Guides" class="st16">
</g>
<g id="Ring" class="st16">
	<g id="_x31_0_deg_ticks_1_" class="st17">
		<line class="st23" x1="139.7" y1="27.1" x2="139.7" y2="41.2"/>
		<line class="st23" x1="120.2" y1="28.8" x2="122.6" y2="42.7"/>
		<line class="st23" x1="101.2" y1="33.9" x2="106" y2="47.1"/>
		<line class="st23" x1="83.4" y1="42.2" x2="90.5" y2="54.4"/>
		<line class="st23" x1="67.3" y1="53.4" x2="76.4" y2="64.2"/>
		<line class="st23" x1="53.5" y1="67.3" x2="64.3" y2="76.3"/>
		<line class="st23" x1="42.2" y1="83.4" x2="54.4" y2="90.4"/>
		<line class="st23" x1="33.9" y1="101.1" x2="47.1" y2="106"/>
		<line class="st23" x1="28.8" y1="120.1" x2="42.7" y2="122.5"/>
		<line class="st23" x1="27.1" y1="139.6" x2="41.2" y2="139.6"/>
		<line class="st23" x1="28.8" y1="159.2" x2="42.7" y2="156.7"/>
		<line class="st23" x1="33.9" y1="178.1" x2="47.1" y2="173.3"/>
		<line class="st23" x1="42.2" y1="195.9" x2="54.4" y2="188.9"/>
		<line class="st23" x1="53.4" y1="212" x2="64.2" y2="203"/>
		<line class="st23" x1="67.3" y1="225.9" x2="76.3" y2="215.1"/>
		<line class="st23" x1="83.4" y1="237.2" x2="90.4" y2="225"/>
		<line class="st23" x1="101.1" y1="245.5" x2="106" y2="232.2"/>
		<line class="st23" x1="120.1" y1="250.5" x2="122.5" y2="236.7"/>
		<line class="st23" x1="139.7" y1="252.3" x2="139.7" y2="238.2"/>
		<line class="st23" x1="159.2" y1="250.6" x2="156.8" y2="236.7"/>
		<line class="st23" x1="178.2" y1="245.5" x2="173.3" y2="232.2"/>
		<line class="st23" x1="195.9" y1="237.2" x2="188.9" y2="225"/>
		<line class="st23" x1="212" y1="225.9" x2="203" y2="215.1"/>
		<line class="st23" x1="225.9" y1="212.1" x2="215.1" y2="203"/>
		<line class="st23" x1="237.2" y1="196" x2="225" y2="189"/>
		<line class="st23" x1="245.5" y1="178.2" x2="232.2" y2="173.4"/>
		<line class="st23" x1="250.6" y1="159.3" x2="236.7" y2="156.8"/>
		<line class="st23" x1="252.3" y1="139.7" x2="238.2" y2="139.7"/>
		<line class="st23" x1="250.6" y1="120.2" x2="236.7" y2="122.6"/>
		<line class="st23" x1="245.5" y1="101.2" x2="232.3" y2="106"/>
		<line class="st23" x1="237.2" y1="83.4" x2="225" y2="90.5"/>
		<line class="st23" x1="226" y1="67.3" x2="215.2" y2="76.4"/>
		<line class="st23" x1="212.1" y1="53.5" x2="203" y2="64.2"/>
		<line class="st23" x1="196" y1="42.2" x2="189" y2="54.4"/>
		<line class="st23" x1="178.2" y1="33.9" x2="173.4" y2="47.1"/>
		<line class="st23" x1="159.3" y1="28.8" x2="156.8" y2="42.7"/>
		<line class="st23" x1="139.7" y1="27.1" x2="139.7" y2="41.2"/>
	</g>
	<g id="_x33_0_deg_ticks" class="st17">
		<line class="st24" x1="139.7" y1="27.1" x2="139.7" y2="44.4"/>
		<line class="st24" x1="83.4" y1="42.2" x2="92.1" y2="57.2"/>
		<line class="st24" x1="42.2" y1="83.4" x2="57.2" y2="92"/>
		<line class="st24" x1="27.1" y1="139.6" x2="44.5" y2="139.6"/>
		<line class="st24" x1="42.2" y1="195.9" x2="57.2" y2="187.3"/>
		<line class="st24" x1="83.4" y1="237.2" x2="92" y2="222.1"/>
		<line class="st24" x1="139.7" y1="252.3" x2="139.7" y2="234.9"/>
		<line class="st24" x1="196" y1="237.2" x2="187.3" y2="222.2"/>
		<line class="st24" x1="237.2" y1="196" x2="222.1" y2="187.3"/>
		<line class="st24" x1="252.3" y1="139.7" x2="234.9" y2="139.7"/>
		<line class="st24" x1="237.2" y1="83.4" x2="222.2" y2="92.1"/>
		<line class="st24" x1="196" y1="42.2" x2="187.3" y2="57.2"/>
	</g>
	<g id="_x35__deg_ticks" class="st17">
		<line class="st23" x1="139.7" y1="27.1" x2="139.7" y2="35.7"/>
		<line class="st23" x1="129.9" y1="27.5" x2="130.7" y2="36.1"/>
		<line class="st23" x1="120.2" y1="28.8" x2="121.7" y2="37.3"/>
		<line class="st23" x1="110.6" y1="30.9" x2="112.8" y2="39.3"/>
		<line class="st23" x1="101.2" y1="33.9" x2="104.2" y2="42"/>
		<line class="st23" x1="92.1" y1="37.6" x2="95.8" y2="45.5"/>
		<line class="st23" x1="83.4" y1="42.2" x2="87.7" y2="49.6"/>
		<line class="st23" x1="75.1" y1="47.4" x2="80.1" y2="54.5"/>
		<line class="st23" x1="67.3" y1="53.4" x2="72.9" y2="60"/>
		<line class="st23" x1="60.1" y1="60" x2="66.2" y2="66.2"/>
		<line class="st23" x1="53.5" y1="67.3" x2="60.1" y2="72.8"/>
		<line class="st23" x1="47.5" y1="75.1" x2="54.6" y2="80"/>
		<line class="st23" x1="42.2" y1="83.4" x2="49.7" y2="87.7"/>
		<line class="st23" x1="37.7" y1="92.1" x2="45.5" y2="95.7"/>
		<line class="st23" x1="33.9" y1="101.1" x2="42" y2="104.1"/>
		<line class="st23" x1="30.9" y1="110.5" x2="39.3" y2="112.7"/>
		<line class="st23" x1="28.8" y1="120.1" x2="37.3" y2="121.6"/>
		<line class="st23" x1="27.5" y1="129.8" x2="36.1" y2="130.6"/>
		<line class="st23" x1="27.1" y1="139.6" x2="35.7" y2="139.6"/>
		<line class="st23" x1="27.5" y1="149.5" x2="36.1" y2="148.7"/>
		<line class="st23" x1="28.8" y1="159.2" x2="37.3" y2="157.7"/>
		<line class="st23" x1="30.9" y1="168.8" x2="39.3" y2="166.5"/>
		<line class="st23" x1="33.9" y1="178.2" x2="42" y2="175.2"/>
		<line class="st23" x1="37.6" y1="187.2" x2="45.5" y2="183.6"/>
		<line class="st23" x1="42.2" y1="195.9" x2="49.6" y2="191.6"/>
		<line class="st23" x1="47.4" y1="204.2" x2="54.5" y2="199.3"/>
		<line class="st23" x1="53.4" y1="212" x2="60" y2="206.5"/>
		<line class="st23" x1="60.1" y1="219.3" x2="66.2" y2="213.2"/>
		<line class="st23" x1="67.3" y1="225.9" x2="72.8" y2="219.3"/>
		<line class="st23" x1="75.1" y1="231.9" x2="80" y2="224.8"/>
		<line class="st23" x1="83.4" y1="237.2" x2="87.7" y2="229.7"/>
		<line class="st23" x1="92.1" y1="241.7" x2="95.7" y2="233.9"/>
		<line class="st23" x1="101.1" y1="245.5" x2="104.1" y2="237.3"/>
		<line class="st23" x1="110.5" y1="248.4" x2="112.7" y2="240.1"/>
		<line class="st23" x1="120.1" y1="250.5" x2="121.6" y2="242"/>
		<line class="st23" x1="129.8" y1="251.8" x2="130.6" y2="243.2"/>
		<line class="st23" x1="139.7" y1="252.3" x2="139.7" y2="243.6"/>
		<line class="st23" x1="149.5" y1="251.8" x2="148.7" y2="243.2"/>
		<line class="st23" x1="159.2" y1="250.6" x2="157.7" y2="242.1"/>
		<line class="st23" x1="168.8" y1="248.4" x2="166.6" y2="240.1"/>
		<line class="st23" x1="178.2" y1="245.5" x2="175.2" y2="237.4"/>
		<line class="st23" x1="187.2" y1="241.7" x2="183.6" y2="233.9"/>
		<line class="st23" x1="196" y1="237.2" x2="191.6" y2="229.7"/>
		<line class="st23" x1="204.2" y1="231.9" x2="199.3" y2="224.8"/>
		<line class="st23" x1="212" y1="225.9" x2="206.5" y2="219.3"/>
		<line class="st23" x1="219.3" y1="219.3" x2="213.2" y2="213.2"/>
		<line class="st23" x1="225.9" y1="212.1" x2="219.3" y2="206.5"/>
		<line class="st23" x1="231.9" y1="204.3" x2="224.8" y2="199.3"/>
		<line class="st23" x1="237.2" y1="196" x2="229.7" y2="191.7"/>
		<line class="st23" x1="241.7" y1="187.3" x2="233.9" y2="183.6"/>
		<line class="st23" x1="245.5" y1="178.2" x2="237.4" y2="175.3"/>
		<line class="st23" x1="248.4" y1="168.8" x2="240.1" y2="166.6"/>
		<line class="st23" x1="250.6" y1="159.3" x2="242" y2="157.8"/>
		<line class="st23" x1="251.8" y1="149.5" x2="243.2" y2="148.8"/>
		<line class="st23" x1="252.3" y1="139.7" x2="243.6" y2="139.7"/>
		<line class="st23" x1="251.8" y1="129.9" x2="243.2" y2="130.7"/>
		<line class="st23" x1="250.6" y1="120.2" x2="242.1" y2="121.7"/>
		<line class="st23" x1="248.4" y1="110.6" x2="240.1" y2="112.8"/>
		<line class="st23" x1="245.5" y1="101.2" x2="237.4" y2="104.2"/>
		<line class="st23" x1="241.7" y1="92.1" x2="233.9" y2="95.8"/>
		<line class="st23" x1="237.2" y1="83.4" x2="229.7" y2="87.7"/>
		<line class="st23" x1="231.9" y1="75.1" x2="224.9" y2="80.1"/>
		<line class="st23" x1="226" y1="67.3" x2="219.3" y2="72.9"/>
		<line class="st23" x1="219.3" y1="60.1" x2="213.2" y2="66.2"/>
		<line class="st23" x1="212.1" y1="53.4" x2="206.5" y2="60.1"/>
		<line class="st23" x1="204.3" y1="47.5" x2="199.3" y2="54.5"/>
		<line class="st23" x1="196" y1="42.2" x2="191.7" y2="49.7"/>
		<line class="st23" x1="187.3" y1="37.6" x2="183.6" y2="45.5"/>
		<line class="st23" x1="178.2" y1="33.9" x2="175.3" y2="42"/>
		<line class="st23" x1="168.9" y1="30.9" x2="166.6" y2="39.3"/>
		<line class="st23" x1="159.3" y1="28.8" x2="157.8" y2="37.3"/>
		<line class="st23" x1="149.5" y1="27.5" x2="148.8" y2="36.1"/>
	</g>
	<g id="Labels" class="st17">
		<g>
			<rect x="122.7" y="47.4" class="st19" width="34" height="21.2"/>
			<path class="st21" d="M133.1,63.8V47.4h3.2l6.7,11v-11h3.1v16.5h-3.3l-6.6-10.7v10.7H133.1z"/>
		</g>
		<g>
			<rect x="81.8" y="58.3" transform="matrix(0.866 -0.5 0.5 0.866 -21.2179 58.6535)" class="st19" width="34" height="21.2"/>
			<path class="st21" d="M89.3,76.2l2.5-1.8c0.5,0.6,1,1,1.6,1.2c0.6,0.1,1.1,0.1,1.7-0.2c0.6-0.3,0.9-0.8,1.1-1.5s0-1.3-0.4-2.1
				c-0.4-0.7-0.9-1.1-1.5-1.3c-0.6-0.2-1.2-0.1-1.7,0.2c-0.4,0.2-0.7,0.5-1.1,0.9l-1-2.4c0.8-0.4,1.2-0.9,1.4-1.5
				c0.2-0.6,0.1-1.1-0.2-1.7c-0.3-0.5-0.6-0.8-1.1-0.9C90,65,89.5,65,89,65.3c-0.5,0.3-0.8,0.7-0.9,1.2C88,67,88,67.6,88.3,68.3
				l-2.8,1c-0.3-1-0.5-1.8-0.4-2.5c0.1-0.7,0.3-1.4,0.8-2.1c0.5-0.7,1.1-1.2,1.9-1.7c1.3-0.8,2.7-1,4-0.6c1.1,0.3,1.9,0.9,2.4,1.8
				c0.7,1.3,0.6,2.6-0.3,4.2c0.9-0.3,1.8-0.3,2.6,0c0.8,0.3,1.5,0.9,2,1.8c0.7,1.3,0.9,2.6,0.5,4c-0.4,1.4-1.3,2.5-2.7,3.3
				c-1.3,0.7-2.6,1-3.9,0.7C91.2,78,90.1,77.3,89.3,76.2z"/>
			<path class="st21" d="M100.4,69.8l2.5-1.8c0.5,0.6,1,1,1.6,1.2c0.6,0.1,1.1,0.1,1.7-0.2c0.6-0.3,0.9-0.8,1.1-1.5s0-1.3-0.4-2.1
				c-0.4-0.7-0.9-1.1-1.5-1.3c-0.6-0.2-1.2-0.1-1.7,0.2c-0.4,0.2-0.7,0.5-1.1,0.9l-1-2.4c0.8-0.4,1.2-0.9,1.4-1.5
				c0.2-0.6,0.1-1.1-0.2-1.7c-0.3-0.5-0.6-0.8-1.1-0.9c-0.4-0.1-0.9,0-1.4,0.2c-0.5,0.3-0.8,0.7-0.9,1.2c-0.1,0.5-0.1,1.1,0.2,1.8
				l-2.8,1c-0.3-1-0.5-1.8-0.4-2.5c0.1-0.7,0.3-1.4,0.8-2.1c0.5-0.7,1.1-1.2,1.9-1.7c1.3-0.8,2.7-1,4-0.6c1.1,0.3,1.9,0.9,2.4,1.8
				c0.7,1.3,0.6,2.6-0.3,4.2c0.9-0.3,1.8-0.3,2.6,0c0.8,0.3,1.5,0.9,2,1.8c0.7,1.3,0.9,2.6,0.5,4c-0.4,1.4-1.3,2.5-2.7,3.3
				c-1.3,0.7-2.6,1-3.9,0.7C102.2,71.6,101.2,70.9,100.4,69.8z"/>
		</g>
		<g>
			<rect x="51.9" y="88.2" transform="matrix(0.5 -0.866 0.866 0.5 -51.1173 109.11)" class="st19" width="34" height="21.2"/>
			<path class="st21" d="M64.3,109.9l1.2-2.8c0.7,0.3,1.4,0.4,1.9,0.2c0.6-0.2,1-0.5,1.3-1c0.3-0.6,0.4-1.2,0.2-1.8
				s-0.7-1.2-1.4-1.6c-0.7-0.4-1.3-0.5-2-0.4c-0.6,0.1-1.1,0.5-1.4,1c-0.2,0.3-0.4,0.8-0.5,1.4l-2.1-1.6c0.4-0.7,0.6-1.4,0.5-2
				c-0.1-0.6-0.5-1-1-1.4c-0.5-0.3-0.9-0.4-1.4-0.2c-0.5,0.1-0.8,0.4-1.1,0.9c-0.3,0.5-0.3,1-0.2,1.5c0.1,0.5,0.5,1,1.1,1.4
				l-1.9,2.3c-0.8-0.7-1.3-1.3-1.6-2c-0.3-0.7-0.4-1.4-0.4-2.2c0.1-0.8,0.3-1.6,0.8-2.4c0.8-1.3,1.8-2.2,3.1-2.5
				c1.1-0.3,2.1-0.1,3,0.4c1.3,0.7,1.9,2,1.8,3.8c0.6-0.7,1.4-1.1,2.3-1.3c0.9-0.1,1.8,0,2.6,0.5c1.3,0.7,2.1,1.8,2.4,3.2
				c0.4,1.4,0.1,2.8-0.6,4.2c-0.7,1.3-1.7,2.1-3,2.6C66.8,110.5,65.6,110.4,64.3,109.9z"/>
			<path class="st21" d="M62.9,88c0.8-1.4,1.9-2.2,3.3-2.4c1.7-0.3,3.9,0.4,6.6,2c2.7,1.6,4.4,3.1,5,4.8c0.5,1.3,0.4,2.7-0.4,4.1
				c-0.8,1.4-2,2.2-3.5,2.4c-1.6,0.2-3.7-0.4-6.4-2c-2.7-1.5-4.3-3.1-5-4.7C61.9,90.7,62.1,89.4,62.9,88z M65.1,89.3
				c-0.2,0.3-0.3,0.7-0.2,1.1c0.1,0.4,0.3,0.8,0.8,1.3c0.6,0.6,1.7,1.4,3.4,2.3s2.9,1.5,3.6,1.7c0.7,0.2,1.3,0.2,1.6,0.1
				c0.4-0.1,0.6-0.4,0.8-0.7c0.2-0.3,0.3-0.7,0.2-1.1c-0.1-0.4-0.3-0.8-0.8-1.3c-0.6-0.6-1.7-1.4-3.4-2.3s-2.9-1.5-3.6-1.7
				c-0.7-0.2-1.3-0.2-1.6-0.1S65.3,89,65.1,89.3z"/>
		</g>
		<g>
			<rect x="47.4" y="122.7" class="st19" width="21.2" height="34"/>
			<path class="st21" d="M63.8,146.5l-16.5,3.9V147l11.3-2.5l-11.3-3v-4l11.5-2.9l-11.5-2.5v-3.3l16.5,4v3.5l-12.3,3.3l12.3,3.3
				V146.5z"/>
		</g>
		<g>
			<rect x="51.9" y="169.9" transform="matrix(-0.5 -0.866 0.866 -0.5 -52.9414 330.4839)" class="st19" width="34" height="21.2"/>
			<path class="st21" d="M72.1,180l2.5-1.5l5.5,9.6c-1,0.4-2.1,0.7-3.3,0.6c-1.2,0-2.9-0.4-5.2-1.1c-1.9-0.6-3.1-0.9-3.6-0.9
				c-0.8-0.1-1.4,0.1-2,0.4c-0.6,0.4-1,0.8-1.1,1.3c-0.1,0.5,0,1.1,0.3,1.6c0.3,0.6,0.8,0.9,1.3,1.1s1.2,0,2-0.4l1.3,2.9
				c-1.6,0.7-3,0.8-4.1,0.3c-1.1-0.5-2.1-1.4-2.8-2.6c-0.8-1.4-1.1-2.7-0.8-4s1-2.2,2.1-2.8c0.6-0.4,1.3-0.6,2-0.7
				c0.7-0.1,1.5-0.1,2.5,0c0.6,0.1,1.6,0.3,2.9,0.7c1.3,0.4,2.1,0.6,2.5,0.7c0.4,0.1,0.8,0.1,1.1,0.1L72.1,180z"/>
			<path class="st21" d="M70.5,171.4l-2.9,1.7l3.4,5.8l-2.4,1.4l-12.6-1l-1.3-2.3l9-5.2l-1-1.8l2.4-1.4l1,1.8l2.9-1.7L70.5,171.4z
				 M65.2,174.4l-4.9,2.8l6.8,0.5L65.2,174.4z"/>
		</g>
		<g>
			<rect x="81.8" y="199.8" transform="matrix(-0.866 -0.5 0.5 -0.866 79.2144 442.0862)" class="st19" width="34" height="21.2"/>
			<path class="st21" d="M105,207.2l2.7,1.6l-5.9,10.3c1.5-0.4,3.1-0.4,4.7,0l-1.4,2.5c-0.8-0.2-1.9-0.2-3.1,0
				c-1.2,0.2-2.2,0.6-3,1.3l-2.2-1.3L105,207.2z"/>
			<path class="st21" d="M90.2,202l1.5-2.5l9.6,5.5c-0.7,0.9-1.5,1.6-2.5,2.2c-1,0.6-2.7,1.1-5,1.6c-1.9,0.4-3.1,0.8-3.6,1
				c-0.7,0.3-1.2,0.8-1.5,1.3c-0.4,0.6-0.5,1.2-0.3,1.7c0.1,0.5,0.5,0.9,1.1,1.3c0.6,0.3,1.1,0.4,1.7,0.3c0.5-0.1,1.1-0.6,1.6-1.4
				l2.6,1.8c-1,1.4-2.2,2.2-3.4,2.4c-1.2,0.2-2.5-0.1-3.8-0.9c-1.4-0.8-2.3-1.8-2.7-3.1s-0.2-2.4,0.4-3.5c0.4-0.6,0.8-1.2,1.4-1.6
				c0.6-0.4,1.3-0.8,2.1-1.2c0.6-0.2,1.5-0.5,2.8-0.8c1.3-0.3,2.2-0.5,2.5-0.6c0.4-0.1,0.7-0.3,1-0.4L90.2,202z"/>
		</g>
		<g>
			<rect x="122.7" y="210.8" class="st19" width="34" height="21.2"/>
			<path class="st21" d="M146.5,220.9l-3.2,0.3c-0.2-1.1-0.6-1.9-1.2-2.4c-0.6-0.5-1.4-0.8-2.4-0.8c-1.1,0-1.9,0.2-2.4,0.7
				s-0.8,1-0.8,1.6c0,0.4,0.1,0.7,0.3,1c0.2,0.3,0.6,0.5,1.2,0.7c0.4,0.1,1.3,0.4,2.7,0.7c1.8,0.4,3,1,3.8,1.6c1,0.9,1.5,2,1.5,3.3
				c0,0.8-0.2,1.6-0.7,2.4c-0.5,0.7-1.2,1.3-2.1,1.7c-0.9,0.4-2,0.6-3.2,0.6c-2.1,0-3.6-0.5-4.7-1.4c-1-0.9-1.6-2.1-1.6-3.6l3.3-0.1
				c0.1,0.8,0.4,1.5,0.9,1.8s1.2,0.6,2.1,0.6c1,0,1.7-0.2,2.3-0.6c0.4-0.3,0.5-0.6,0.5-1c0-0.4-0.2-0.7-0.5-1
				c-0.4-0.4-1.4-0.7-3.1-1.1s-2.8-0.8-3.6-1.2c-0.8-0.4-1.4-1-1.8-1.7c-0.4-0.7-0.7-1.6-0.7-2.6c0-0.9,0.3-1.8,0.8-2.7
				s1.3-1.4,2.2-1.8c1-0.4,2.2-0.6,3.6-0.6c2.1,0,3.7,0.5,4.8,1.4C145.6,217.6,146.3,219,146.5,220.9z"/>
		</g>
		<g>
			
				<rect x="163.6" y="199.8" transform="matrix(-0.866 0.5 -0.5 -0.866 442.1058 302.3956)" class="st19" width="34" height="21.2"/>
			<path class="st21" d="M180.8,203.5l2.7-1.6l5.9,10.3c0.5-1.5,1.2-2.9,2.3-4.1l1.4,2.5c-0.6,0.6-1.1,1.5-1.6,2.7
				c-0.5,1.1-0.6,2.2-0.4,3.3l-2.2,1.3L180.8,203.5z"/>
			<path class="st21" d="M178.8,209.5l-2.6,1.9c-0.4-0.6-0.9-0.9-1.5-1.1c-0.6-0.1-1.1-0.1-1.6,0.2c-0.6,0.3-0.9,0.8-1,1.5
				c-0.1,0.7,0.1,1.5,0.6,2.4c0.5,0.9,1.1,1.4,1.7,1.6c0.6,0.2,1.3,0.1,1.9-0.2c0.8-0.5,1.3-1.2,1.5-2.3l2.4-1l2.9,8.2l-7.2,4.2
				l-1.5-2.6l5.2-3l-1-2.7c-0.4,0.7-1,1.2-1.6,1.5c-1.2,0.7-2.5,0.9-3.8,0.5c-1.4-0.4-2.4-1.3-3.2-2.7c-0.7-1.2-0.9-2.4-0.8-3.7
				c0.2-1.8,1.1-3.2,2.8-4.1c1.3-0.8,2.6-1,3.8-0.8C176.9,207.7,178,208.4,178.8,209.5z"/>
		</g>
		<g>
			<rect x="193.5" y="169.9" transform="matrix(-0.5 0.866 -0.866 -0.5 472.0049 88.5423)" class="st19" width="34" height="21.2"/>
			<path class="st21" d="M207.2,174.4l1.6-2.7l10.3,5.9c-0.4-1.5-0.4-3.1,0-4.7l2.5,1.4c-0.2,0.8-0.2,1.9,0,3.1
				c0.2,1.2,0.6,2.2,1.3,3l-1.3,2.2L207.2,174.4z"/>
			<path class="st21" d="M202.1,189.2l-2.5-1.5l5.5-9.6c0.9,0.7,1.6,1.5,2.2,2.5s1.1,2.7,1.6,5c0.4,1.9,0.8,3.1,1,3.6
				c0.3,0.7,0.8,1.2,1.3,1.5c0.6,0.4,1.2,0.5,1.7,0.3c0.5-0.1,0.9-0.5,1.3-1.1c0.3-0.6,0.4-1.1,0.3-1.7c-0.1-0.5-0.6-1.1-1.4-1.6
				l1.8-2.6c1.4,1,2.2,2.2,2.4,3.4c0.2,1.2-0.1,2.5-0.9,3.8c-0.8,1.4-1.8,2.3-3.1,2.7c-1.2,0.4-2.4,0.2-3.5-0.4
				c-0.6-0.4-1.2-0.8-1.6-1.4c-0.4-0.6-0.8-1.3-1.2-2.1c-0.2-0.6-0.5-1.5-0.8-2.8s-0.5-2.2-0.6-2.5c-0.1-0.4-0.3-0.7-0.4-1
				L202.1,189.2z"/>
		</g>
		<g>
			<rect x="210.8" y="122.7" class="st19" width="21.2" height="34"/>
			<path class="st21" d="M215.5,133.7H232v12.2h-2.8V137h-3.6v8.3h-2.8V137h-4.5v9.2h-2.8V133.7z"/>
		</g>
		<g>
			<rect x="193.5" y="88.2" transform="matrix(0.5 0.866 -0.866 0.5 190.8068 -132.8371)" class="st19" width="34" height="21.2"/>
			<path class="st21" d="M218.7,100.1l-1.8-2.5c0.5-0.4,0.8-0.8,0.9-1.2c0.1-0.4,0-0.8-0.2-1.3c-0.3-0.6-0.9-0.9-1.6-1
				c-0.7-0.1-2,0.3-3.7,1.1c1.2,0.2,2.1,0.8,2.7,1.8c0.7,1.1,0.8,2.4,0.4,3.7c-0.4,1.3-1.3,2.4-2.7,3.2c-1.5,0.8-2.9,1.1-4.3,0.7
				c-1.4-0.3-2.5-1.2-3.2-2.5c-0.8-1.4-1-2.9-0.4-4.5c0.6-1.6,2.1-3.1,4.7-4.6c2.6-1.5,4.8-2.1,6.5-1.8c1.7,0.3,3,1.2,3.9,2.8
				c0.6,1.1,0.8,2.2,0.6,3.2C220.4,98.3,219.8,99.3,218.7,100.1z M209.2,97.4c-0.9,0.5-1.5,1.1-1.7,1.8c-0.2,0.7-0.2,1.3,0.1,1.8
				c0.3,0.5,0.7,0.8,1.3,0.9c0.6,0.1,1.3-0.1,2.2-0.6c0.9-0.5,1.5-1.1,1.7-1.7c0.2-0.6,0.2-1.2-0.1-1.7c-0.3-0.5-0.8-0.9-1.4-1
				C210.7,96.8,210,96.9,209.2,97.4z"/>
		</g>
		<g>
			<rect x="163.6" y="58.3" transform="matrix(0.866 0.5 -0.5 0.866 58.6492 -81.0372)" class="st19" width="34" height="21.2"/>
			<path class="st21" d="M175,67.5l2.8,1.2c-0.3,0.7-0.4,1.4-0.2,1.9c0.2,0.6,0.5,1,1,1.3c0.6,0.3,1.2,0.4,1.8,0.2s1.2-0.7,1.6-1.4
				c0.4-0.7,0.5-1.3,0.4-2c-0.1-0.6-0.5-1.1-1-1.4c-0.3-0.2-0.8-0.4-1.4-0.5l1.6-2.1c0.7,0.4,1.4,0.6,2,0.5c0.6-0.1,1-0.5,1.4-1
				c0.3-0.5,0.4-0.9,0.2-1.4c-0.1-0.4-0.4-0.8-0.9-1.1c-0.5-0.3-1-0.3-1.5-0.2c-0.5,0.1-1,0.5-1.4,1.1l-2.3-1.9
				c0.7-0.8,1.3-1.3,2-1.6c0.7-0.3,1.4-0.4,2.2-0.4c0.8,0.1,1.6,0.3,2.4,0.8c1.3,0.8,2.2,1.8,2.5,3.1c0.3,1.1,0.1,2.1-0.4,3
				c-0.7,1.3-2,1.9-3.8,1.8c0.7,0.6,1.1,1.4,1.3,2.3c0.1,0.9,0,1.8-0.5,2.6c-0.7,1.3-1.8,2.1-3.2,2.4c-1.4,0.4-2.8,0.1-4.2-0.6
				c-1.3-0.7-2.1-1.7-2.6-3C174.4,70,174.5,68.8,175,67.5z"/>
		</g>
	</g>
</g>
<g id="Overlay">
	<polygon class="st25" points="144.7,18 139.7,41 134.7,18 	"/>
	<polygon class="st25" points="18,134.6 41,139.6 18,144.7 	"/>
	<polygon class="st25" points="134.6,261.4 139.7,238.3 144.7,261.4 	"/>
	<polygon class="st25" points="261.4,144.7 238.3,139.7 261.4,134.7 	"/>
	<polygon class="st25" points="57,49.8 60.1,60 49.9,57 	"/>
	<polygon class="st25" points="49.9,222.4 60.1,219.3 57,229.5 	"/>
	<polygon class="st25" points="222.4,229.5 219.3,219.3 229.5,222.4 	"/>
	<polygon class="st25" points="229.5,57 219.3,60.1 222.4,49.9 	"/>
	<line class="st26" x1="139.4" y1="191.6" x2="139.4" y2="235.4"/>
	<g>
		<rect x="115.6" y="179.3" class="st19" width="48.3" height="9.5"/>
		<path class="st21" d="M118.8,187.2l-2.8-7.9h1.7l2,5.8l1.9-5.8h1.7l-2.8,7.9H118.8z"/>
		<path class="st21" d="M130.4,187.2h-1.7l-0.7-1.8h-3.1l-0.6,1.8h-1.7l3.1-7.9h1.7L130.4,187.2z M127.5,184.1l-1.1-2.9l-1.1,2.9
			H127.5z"/>
		<path class="st21" d="M136.3,184.3l1.5,0.5c-0.2,0.9-0.6,1.5-1.2,1.9s-1.2,0.6-2.1,0.6c-1,0-1.9-0.4-2.6-1.1c-0.7-0.7-1-1.7-1-2.9
			c0-1.3,0.3-2.3,1-3.1c0.7-0.7,1.6-1.1,2.7-1.1c1,0,1.7,0.3,2.3,0.9c0.4,0.3,0.6,0.8,0.8,1.5l-1.6,0.4c-0.1-0.4-0.3-0.7-0.6-1
			c-0.3-0.2-0.7-0.4-1.1-0.4c-0.6,0-1.1,0.2-1.4,0.6c-0.4,0.4-0.5,1.1-0.5,2c0,1,0.2,1.7,0.5,2.1s0.8,0.6,1.4,0.6
			c0.4,0,0.8-0.1,1.1-0.4C135.9,185.3,136.2,184.9,136.3,184.3z"/>
		<path class="st21" d="M139.2,179.3h1.6v4.3c0,0.7,0,1.1,0.1,1.3c0.1,0.3,0.2,0.6,0.5,0.8s0.6,0.3,1,0.3c0.5,0,0.8-0.1,1-0.3
			s0.4-0.4,0.4-0.7c0-0.3,0.1-0.7,0.1-1.3v-4.4h1.6v4.1c0,0.9,0,1.6-0.1,2c-0.1,0.4-0.2,0.7-0.5,1c-0.2,0.3-0.5,0.5-0.9,0.6
			s-0.9,0.2-1.5,0.2c-0.8,0-1.3-0.1-1.7-0.3s-0.7-0.4-0.9-0.7c-0.2-0.3-0.4-0.6-0.4-0.9c-0.1-0.5-0.2-1.1-0.2-2V179.3z"/>
		<path class="st21" d="M147.1,179.3h1.6v4.3c0,0.7,0,1.1,0.1,1.3c0.1,0.3,0.2,0.6,0.5,0.8s0.6,0.3,1,0.3c0.5,0,0.8-0.1,1-0.3
			s0.4-0.4,0.4-0.7c0-0.3,0.1-0.7,0.1-1.3v-4.4h1.6v4.1c0,0.9,0,1.6-0.1,2c-0.1,0.4-0.2,0.7-0.5,1c-0.2,0.3-0.5,0.5-0.9,0.6
			s-0.9,0.2-1.5,0.2c-0.8,0-1.3-0.1-1.7-0.3s-0.7-0.4-0.9-0.7c-0.2-0.3-0.4-0.6-0.4-0.9c-0.1-0.5-0.2-1.1-0.2-2V179.3z"/>
		<path class="st21" d="M155.1,187.2v-7.9h2.4l1.4,5.4l1.4-5.4h2.4v7.9h-1.5V181l-1.6,6.2h-1.5l-1.6-6.2v6.2H155.1z"/>
	</g>
	<g>
		<path class="st21" d="M139.2,122.8l1.1-0.5l-0.1,0.5h1.1c0,0,1.6-0.2,2.3,1.9c0.3,1.1,0,8,0,8h32.6v9c0,0-12.4,3-32.6,2.9
			l-1.4,17.6l8.6,1.9l0.1,5.9h-9.5l-0.3,1.9h-0.6h-1.4"/>
		<path class="st21" d="M140.2,122.3h-1.1v0.5h-1.1c0,0-1.6-0.2-2.3,1.9c-0.3,1.1,0,8,0,8h-32.6v9c0,0,12.4,3,32.6,2.9l1.4,17.6
			l-8.6,1.9l-0.1,5.9h9.5l0.3,1.9h0.6h1.4"/>
	</g>
	<path id="path6414-8-9_1_" class="st21" d="M139.7,40.5c-0.3,0-0.6,2.4-0.9,4.8l-5.7,70.8l6.5,6.6l6.5-6.6l-5.7-70.8
		C140.3,42.8,140.1,40.5,139.7,40.5z"/>
</g>
<g id="Bug" class="st16">
	<g class="st17">
		<g>
			<g>
				<path class="st18" d="M139,17.8c8.6,0.1,9.4,0.5,9.4,2.4c0,1.2-3.3,18.1-3.3,18.1h-4.2l-0.7-7.8H139V17.8z"/>
			</g>
		</g>
		<g>
			<g>
				<path class="st18" d="M140.1,17.8c-8.6,0.1-9.4,0.5-9.4,2.4c0,1.2,3.3,18.1,3.3,18.1h4.2l0.7-7.8h1.2V17.8z"/>
			</g>
		</g>
	</g>
</g>
</svg>
