<?xml version="1.0" encoding="utf-8"?>
<!-- Generator: Adobe Illustrator 19.0.0, SVG Export Plug-In . SVG Version: 6.00 Build 0)  -->
<svg version="1.1" xmlns="http://www.w3.org/2000/svg" xmlns:xlink="http://www.w3.org/1999/xlink" x="0px" y="0px"
	 viewBox="0 0 1000 1000" style="enable-background:new 0 0 1000 1000;" xml:space="preserve">
<style type="text/css">
	.st0{display:none;}
	.st1{display:inline;}
	.st2{fill:#1A1A1A;}
	.st3{fill:#333333;}
	.st4{display:inline;fill:none;stroke:#FF1D25;stroke-width:20;stroke-miterlimit:10;}
	.st5{display:inline;fill:none;stroke:#7AC943;stroke-width:39;stroke-miterlimit:10;}
	.st6{display:inline;fill:none;stroke:#FFFFFF;stroke-width:6;stroke-miterlimit:10;}
	.st7{display:inline;fill:none;stroke:#F2F2F2;stroke-width:5;stroke-miterlimit:10;}
	.st8{display:inline;fill:none;stroke:#F2F2F2;stroke-width:7;stroke-miterlimit:10;}
	.st9{fill:none;}
	.st10{fill:#CCCCCC;}
	.st11{display:inline;fill:none;stroke:#E6E6E6;stroke-width:6;stroke-miterlimit:10;}
	.st12{fill:#F2F2F2;stroke:#F2F2F2;stroke-miterlimit:10;}
	.st13{fill:#4D4D4D;stroke:#333333;stroke-width:5;stroke-miterlimit:10;}
	.st14{fill:#E6E6E6;stroke:#333333;stroke-width:5;stroke-miterlimit:10;}
</style>
<g id="Layer_1" class="st0">
	<g id="XMLID_2_" class="st1">
		<path id="XMLID_48_" class="st2" d="M500,972.5c-63.8,0-125.7-12.5-183.9-37.1c-56.3-23.8-106.8-57.9-150.2-101.3
			S88.4,740.2,64.6,683.9C40,625.7,27.5,563.8,27.5,500c0-63.8,12.5-125.7,37.1-183.9c23.8-56.3,57.9-106.8,101.3-150.2
			s93.9-77.5,150.2-101.3C374.3,40,436.2,27.5,500,27.5c63.8,0,125.7,12.5,183.9,37.1c56.3,23.8,106.8,57.9,150.2,101.3
			s77.5,93.9,101.3,150.2c24.6,58.2,37.1,120.1,37.1,183.9c0,63.8-12.5,125.7-37.1,183.9c-23.8,56.3-57.9,106.8-101.3,150.2
			s-93.9,77.5-150.2,101.3C625.7,960,563.8,972.5,500,972.5z"/>
		<path id="XMLID_39_" class="st3" d="M500,55c60.1,0,118.4,11.8,173.2,34.9c53,22.4,100.6,54.5,141.5,95.4
			c40.9,40.9,73,88.5,95.4,141.5C933.2,381.6,945,439.9,945,500s-11.8,118.4-34.9,173.2c-22.4,53-54.5,100.6-95.4,141.5
			c-40.9,40.9-88.5,73-141.5,95.4C618.4,933.2,560.1,945,500,945s-118.4-11.8-173.2-34.9c-53-22.4-100.6-54.5-141.5-95.4
			c-40.9-40.9-73-88.5-95.4-141.5C66.8,618.4,55,560.1,55,500s11.8-118.4,34.9-173.2c22.4-53,54.5-100.6,95.4-141.5
			s88.5-73,141.5-95.4C381.6,66.8,439.9,55,500,55 M500,0C223.9,0,0,223.9,0,500s223.9,500,500,500s500-223.9,500-500S776.1,0,500,0
			L500,0z"/>
	</g>
	<line id="XMLID_64_" class="st4" x1="346.9" y1="227.7" x2="246.3" y2="411"/>
	<path id="XMLID_28_" class="st5" d="M672.9,722.4c-72.1-40.5-122.7-114.9-130.2-201.6"/>
	<line id="XMLID_3_" class="st6" x1="522" y1="486" x2="563" y2="486"/>
	<line id="XMLID_17_" class="st6" x1="523.2" y1="524.4" x2="563.5" y2="518.7"/>
	<line id="XMLID_18_" class="st6" x1="529.2" y1="562.3" x2="582.2" y2="547.1"/>
	<line id="XMLID_19_" class="st6" x1="540.6" y1="598.9" x2="578.1" y2="582.3"/>
	<line id="XMLID_21_" class="st6" x1="557.1" y1="633.7" x2="591.8" y2="611.9"/>
	<line id="XMLID_22_" class="st6" x1="578.2" y1="665.7" x2="609.6" y2="639.4"/>
	<line id="XMLID_23_" class="st6" x1="603.6" y1="694.6" x2="631" y2="664.1"/>
	<line id="XMLID_24_" class="st6" x1="632.7" y1="719.6" x2="655.6" y2="685.6"/>
	<line id="XMLID_25_" class="st6" x1="665.1" y1="740.3" x2="687.9" y2="693.5"/>
	<line id="XMLID_7_" class="st6" x1="526.4" y1="448.2" x2="567" y2="453.9"/>
	<line id="XMLID_8_" class="st6" x1="536" y1="411.4" x2="575.5" y2="422.7"/>
	<line id="XMLID_11_" class="st6" x1="550.7" y1="376.3" x2="604" y2="400.1"/>
	<line id="XMLID_12_" class="st6" x1="570.1" y1="343.6" x2="604.9" y2="365.3"/>
	<line id="XMLID_13_" class="st6" x1="593.9" y1="313.9" x2="625.3" y2="340.3"/>
	<line id="XMLID_14_" class="st6" x1="621.5" y1="287.8" x2="649" y2="318.3"/>
	<line id="XMLID_15_" class="st6" x1="652.5" y1="265.8" x2="675.5" y2="299.8"/>
	<line id="XMLID_38_" class="st7" x1="450" y1="485.5" x2="495" y2="485.5"/>
	<line id="XMLID_55_" class="st7" x1="448.8" y1="515" x2="493.5" y2="520.1"/>
	<line id="XMLID_56_" class="st8" x1="435" y1="541.9" x2="497.4" y2="556.4"/>
	<line id="XMLID_57_" class="st7" x1="436.4" y1="572.5" x2="478.8" y2="587.5"/>
	<line id="XMLID_58_" class="st7" x1="425.4" y1="599.9" x2="465.9" y2="619.6"/>
	<line id="XMLID_59_" class="st7" x1="411.4" y1="625.8" x2="449.4" y2="650"/>
	<line id="XMLID_60_" class="st8" x1="386.9" y1="643.8" x2="437.3" y2="684.6"/>
	<line id="XMLID_61_" class="st7" x1="375.1" y1="672.1" x2="406.6" y2="704.2"/>
	<line id="XMLID_62_" class="st7" x1="353.2" y1="691.9" x2="380.9" y2="727.4"/>
	<line id="XMLID_45_" class="st7" x1="447.9" y1="456.1" x2="492.6" y2="451"/>
	<line id="XMLID_46_" class="st8" x1="433.7" y1="429.1" x2="495.1" y2="415"/>
	<line id="XMLID_49_" class="st7" x1="433.8" y1="398.9" x2="476.2" y2="383.9"/>
	<line id="XMLID_50_" class="st7" x1="421.9" y1="371.9" x2="462.4" y2="352.2"/>
	<line id="XMLID_51_" class="st7" x1="407.1" y1="346.4" x2="445.1" y2="322.3"/>
	<line id="XMLID_52_" class="st8" x1="381.9" y1="328.9" x2="432.1" y2="288.3"/>
	<line id="XMLID_53_" class="st7" x1="369.4" y1="301.3" x2="400.9" y2="269.2"/>
	<line id="XMLID_54_" class="st7" x1="346.9" y1="282.2" x2="374.6" y2="246.7"/>
	<g id="XMLID_36_" class="st1">
		<rect id="XMLID_126_" x="600.8" y="197.8" class="st9" width="86.7" height="65.3"/>
		<path id="XMLID_10_" class="st10" d="M633.2,240.7h-5.3v-33.6c-1.3,1.2-2.9,2.4-5,3.6c-2.1,1.2-3.9,2.1-5.6,2.7v-5.1
			c2.9-1.4,5.5-3.1,7.7-5c2.2-2,3.8-3.9,4.7-5.7h3.4V240.7z"/>
		<path id="XMLID_123_" class="st10" d="M647.5,230.8l5.1-0.5c0.4,2.4,1.2,4.1,2.5,5.2c1.2,1.1,2.8,1.6,4.7,1.6c1.6,0,3-0.4,4.3-1.1
			c1.2-0.7,2.2-1.7,3-3c0.8-1.2,1.4-2.9,2-5s0.8-4.3,0.8-6.4c0-0.2,0-0.6,0-1.1c-1.1,1.7-2.5,3-4.3,4.1c-1.8,1-3.8,1.6-5.9,1.6
			c-3.6,0-6.6-1.3-9-3.9s-3.7-6-3.7-10.2c0-4.4,1.3-7.9,3.9-10.5c2.6-2.7,5.8-4,9.7-4c2.8,0,5.3,0.8,7.7,2.3
			c2.3,1.5,4.1,3.6,5.3,6.4s1.8,6.8,1.8,12.1c0,5.5-0.6,9.9-1.8,13.1c-1.2,3.3-3,5.7-5.3,7.4c-2.4,1.7-5.1,2.5-8.3,2.5
			c-3.4,0-6.1-0.9-8.2-2.8C649.2,236.8,647.9,234.2,647.5,230.8z M669.1,211.8c0-3-0.8-5.4-2.4-7.2c-1.6-1.8-3.5-2.7-5.8-2.7
			c-2.3,0-4.4,1-6.1,2.9c-1.7,1.9-2.6,4.4-2.6,7.4c0,2.7,0.8,5,2.5,6.7c1.7,1.7,3.7,2.6,6.1,2.6c2.4,0,4.4-0.9,6-2.6
			C668.3,217.2,669.1,214.9,669.1,211.8z"/>
	</g>
	<g id="XMLID_6_" class="st1">
		<rect id="XMLID_121_" x="593.9" y="384.4" class="st9" width="86.7" height="65.3"/>
		<path id="XMLID_27_" class="st10" d="M626.2,427.4H621v-33.6c-1.3,1.2-2.9,2.4-5,3.6c-2.1,1.2-3.9,2.1-5.6,2.7v-5.1
			c2.9-1.4,5.5-3.1,7.7-5c2.2-2,3.8-3.9,4.7-5.7h3.4V427.4z"/>
		<path id="XMLID_119_" class="st10" d="M639.7,416.2l5.5-0.5c0.4,2.7,1.4,4.7,2.9,6.1c1.5,1.4,3.3,2,5.4,2c2.5,0,4.7-1,6.4-2.9
			c1.8-1.9,2.6-4.5,2.6-7.6c0-3-0.8-5.4-2.5-7.1c-1.7-1.7-3.9-2.6-6.6-2.6c-1.7,0-3.2,0.4-4.6,1.2c-1.4,0.8-2.4,1.8-3.2,3l-5-0.6
			l4.2-22.1h21.4v5h-17.1l-2.3,11.5c2.6-1.8,5.3-2.7,8.1-2.7c3.8,0,6.9,1.3,9.5,3.9c2.6,2.6,3.9,5.9,3.9,10c0,3.9-1.1,7.2-3.4,10.1
			c-2.8,3.5-6.5,5.2-11.3,5.2c-3.9,0-7.1-1.1-9.6-3.3C641.5,422.7,640.1,419.8,639.7,416.2z"/>
	</g>
	<g id="XMLID_26_" class="st1">
		<rect id="XMLID_117_" x="578.2" y="514.4" class="st9" width="86.7" height="65.3"/>
		<path id="XMLID_30_" class="st10" d="M610.5,557.4h-5.3v-33.6c-1.3,1.2-2.9,2.4-5,3.6s-3.9,2.1-5.6,2.7v-5.1
			c2.9-1.4,5.5-3.1,7.7-5s3.8-3.9,4.7-5.7h3.4V557.4z"/>
		<path id="XMLID_114_" class="st10" d="M624,536.2c0-5.1,0.5-9.2,1.6-12.3s2.6-5.5,4.7-7.2s4.7-2.5,7.8-2.5c2.3,0,4.3,0.5,6.1,1.4
			s3.2,2.3,4.3,4s2,3.9,2.7,6.4s1,5.9,1,10.2c0,5-0.5,9.1-1.6,12.2s-2.6,5.5-4.6,7.2s-4.7,2.5-7.8,2.5c-4.1,0-7.4-1.5-9.8-4.5
			C625.4,550.1,624,544.3,624,536.2z M629.4,536.2c0,7.1,0.8,11.7,2.5,14.1s3.7,3.5,6.1,3.5s4.5-1.2,6.1-3.5s2.5-7,2.5-14.1
			c0-7.1-0.8-11.8-2.5-14.1s-3.7-3.5-6.2-3.5c-2.4,0-4.4,1-5.8,3.1C630.3,524.3,629.4,529.2,629.4,536.2z"/>
	</g>
	<g id="XMLID_29_" class="st1">
		<rect id="XMLID_112_" x="591.9" y="587" class="st9" width="86.7" height="65.3"/>
		<path id="XMLID_33_" class="st10" d="M621,618.7l5.5-0.5c0.4,2.7,1.4,4.7,2.9,6.1c1.5,1.4,3.3,2,5.4,2c2.5,0,4.7-1,6.4-2.9
			c1.8-1.9,2.6-4.5,2.6-7.6c0-3-0.8-5.4-2.5-7.1c-1.7-1.7-3.9-2.6-6.6-2.6c-1.7,0-3.2,0.4-4.6,1.2c-1.4,0.8-2.4,1.8-3.2,3l-5-0.6
			l4.2-22.1h21.4v5h-17.1l-2.3,11.5c2.6-1.8,5.3-2.7,8.1-2.7c3.8,0,6.9,1.3,9.5,3.9c2.6,2.6,3.9,5.9,3.9,10c0,3.9-1.1,7.2-3.4,10.1
			c-2.8,3.5-6.5,5.2-11.3,5.2c-3.9,0-7.1-1.1-9.6-3.3C622.8,625.2,621.4,622.3,621,618.7z"/>
	</g>
	<g id="XMLID_32_" class="st1">
		<rect id="XMLID_110_" x="632.2" y="631.5" class="st9" width="86.7" height="65.3"/>
		<path id="XMLID_63_" class="st10" d="M661.4,653.2c0-5.1,0.5-9.2,1.6-12.3c1-3.1,2.6-5.5,4.7-7.2c2.1-1.7,4.7-2.5,7.8-2.5
			c2.3,0,4.3,0.5,6.1,1.4c1.7,0.9,3.2,2.3,4.3,4c1.1,1.7,2,3.9,2.7,6.4c0.6,2.5,1,5.9,1,10.2c0,5-0.5,9.1-1.6,12.2
			c-1,3.1-2.6,5.5-4.6,7.2c-2.1,1.7-4.7,2.5-7.8,2.5c-4.1,0-7.4-1.5-9.8-4.5C662.8,667.1,661.4,661.3,661.4,653.2z M666.8,653.2
			c0,7.1,0.8,11.7,2.5,14.1c1.7,2.3,3.7,3.5,6.1,3.5s4.5-1.2,6.1-3.5s2.5-7,2.5-14.1c0-7.1-0.8-11.8-2.5-14.1
			c-1.7-2.3-3.7-3.5-6.2-3.5c-2.4,0-4.4,1-5.8,3.1C667.7,641.3,666.8,646.2,666.8,653.2z"/>
	</g>
	<g id="XMLID_44_" class="st1">
		<rect id="XMLID_107_" x="313.1" y="370.4" class="st9" width="69.3" height="268.2"/>
		<path id="XMLID_65_" class="st10" d="M327.9,426.3v-55.8h40.4v6.6h-33v17.1h30.9v6.6h-30.9v19h34.3v6.6H327.9z"/>
		<path id="XMLID_103_" class="st10" d="M349.5,489.4v-6.6l23.7,0v20.7c-3.6,2.9-7.4,5.1-11.2,6.5c-3.9,1.5-7.8,2.2-11.9,2.2
			c-5.5,0-10.5-1.2-14.9-3.5c-4.5-2.3-7.9-5.7-10.1-10.2s-3.4-9.4-3.4-14.9c0-5.4,1.1-10.5,3.4-15.2c2.3-4.7,5.5-8.2,9.8-10.5
			s9.2-3.4,14.7-3.4c4,0,7.7,0.7,10.9,2c3.3,1.3,5.8,3.1,7.7,5.5c1.9,2.3,3.3,5.4,4.2,9.1l-6.7,1.8c-0.8-2.8-1.9-5.1-3.1-6.7
			c-1.2-1.6-3-2.9-5.3-3.9c-2.3-1-4.9-1.5-7.7-1.5c-3.4,0-6.3,0.5-8.8,1.5c-2.5,1-4.5,2.4-6,4.1c-1.5,1.7-2.7,3.5-3.5,5.5
			c-1.4,3.5-2.1,7.2-2.1,11.2c0,5,0.9,9.1,2.6,12.5s4.2,5.8,7.5,7.5s6.8,2.4,10.4,2.4c3.2,0,6.3-0.6,9.4-1.8c3-1.2,5.4-2.5,6.9-3.9
			v-10.4H349.5z"/>
		<path id="XMLID_105_" class="st10" d="M344.8,596.3V547h-18.4v-6.6h44.3v6.6h-18.5v49.2H344.8z"/>
	</g>
	<g id="XMLID_43_" class="st1">
		<rect id="XMLID_101_" x="554.5" y="751.4" class="st9" width="126.4" height="48.6"/>
		<path id="XMLID_67_" class="st10" d="M583.5,777.6v-5l18.2,0v15.9c-2.8,2.2-5.7,3.9-8.6,5c-3,1.1-6,1.7-9.1,1.7
			c-4.2,0-8.1-0.9-11.5-2.7c-3.4-1.8-6-4.4-7.8-7.8s-2.6-7.2-2.6-11.5c0-4.2,0.9-8.1,2.6-11.7c1.7-3.6,4.3-6.3,7.5-8.1
			s7.1-2.6,11.3-2.6c3.1,0,5.9,0.5,8.4,1.5c2.5,1,4.5,2.4,5.9,4.2c1.4,1.8,2.5,4.1,3.3,7l-5.1,1.4c-0.6-2.2-1.4-3.9-2.4-5.2
			c-1-1.3-2.3-2.3-4.1-3c-1.8-0.8-3.8-1.1-5.9-1.1c-2.6,0-4.8,0.4-6.7,1.2c-1.9,0.8-3.4,1.8-4.6,3.1c-1.2,1.3-2.1,2.7-2.7,4.2
			c-1.1,2.7-1.6,5.5-1.6,8.6c0,3.8,0.7,7,2,9.6s3.2,4.5,5.8,5.7s5.2,1.9,8,1.9c2.5,0,4.9-0.5,7.2-1.4s4.1-2,5.3-3v-8H583.5z"/>
		<path id="XMLID_96_" class="st10" d="M605.4,794.4l16.5-42.9h6.1l17.6,42.9h-6.5l-5-13h-18l-4.7,13H605.4z M617.8,776.8h14.6
			l-4.5-11.9c-1.4-3.6-2.4-6.6-3-8.9c-0.5,2.8-1.3,5.5-2.3,8.2L617.8,776.8z"/>
		<path id="XMLID_99_" class="st10" d="M649.9,794.4v-42.9h5.7v37.9h21.2v5.1H649.9z"/>
	</g>
	<g id="XMLID_66_" class="st1">
		<rect id="XMLID_94_" x="555.1" y="813.4" class="st9" width="126.4" height="48.6"/>
		<path id="XMLID_70_" class="st10" d="M579.7,856.4v-42.9h5.7v17.6h22.3v-17.6h5.7v42.9h-5.7v-20.2h-22.3v20.2H579.7z"/>
		<path id="XMLID_91_" class="st10" d="M623,856.4v-42.9h19c3.8,0,6.7,0.4,8.7,1.2s3.6,2.1,4.8,4.1c1.2,2,1.8,4.1,1.8,6.5
			c0,3-1,5.6-3,7.7c-2,2.1-5,3.4-9.1,4c1.5,0.7,2.6,1.4,3.4,2.1c1.7,1.5,3.2,3.4,4.7,5.7l7.5,11.7h-7.1l-5.7-8.9
			c-1.7-2.6-3-4.6-4.1-5.9c-1.1-1.4-2-2.3-2.9-2.9s-1.7-0.9-2.6-1.1c-0.6-0.1-1.7-0.2-3.2-0.2h-6.6v19.1H623z M628.7,832.4h12.2
			c2.6,0,4.6-0.3,6.1-0.8s2.6-1.4,3.3-2.6s1.1-2.5,1.1-3.9c0-2-0.7-3.7-2.2-5c-1.5-1.3-3.8-2-7-2h-13.6V832.4z"/>
	</g>
	<line id="XMLID_68_" class="st11" x1="552" y1="804" x2="685" y2="804"/>
	<g id="XMLID_69_" class="st1">
		<rect id="XMLID_89_" x="341.1" y="748.7" class="st9" width="119.1" height="107.3"/>
		<path id="XMLID_73_" class="st10" d="M369.4,784.1v4.7h-26.5c0-1.2,0.2-2.3,0.6-3.4c0.7-1.8,1.8-3.6,3.2-5.3
			c1.5-1.8,3.6-3.8,6.4-6.1c4.4-3.6,7.3-6.4,8.8-8.5c1.5-2.1,2.3-4.1,2.3-5.9c0-2-0.7-3.6-2.1-4.9s-3.2-2-5.5-2
			c-2.4,0-4.3,0.7-5.7,2.1s-2.1,3.4-2.2,5.9l-5.1-0.5c0.3-3.8,1.6-6.6,3.9-8.6c2.3-2,5.3-3,9.1-3c3.8,0,6.9,1.1,9.1,3.2
			s3.4,4.8,3.4,7.9c0,1.6-0.3,3.2-1,4.7c-0.7,1.5-1.7,3.2-3.3,4.9c-1.5,1.7-4.1,4.1-7.6,7.1c-3,2.5-4.8,4.2-5.7,5
			c-0.8,0.9-1.5,1.8-2.1,2.7H369.4z"/>
		<path id="XMLID_75_" class="st10" d="M374.7,778.3l5.2-0.4c0.4,2.5,1.3,4.4,2.7,5.7c1.4,1.3,3.1,1.9,5,1.9c2.4,0,4.4-0.9,6-2.7
			c1.6-1.8,2.5-4.2,2.5-7.1c0-2.8-0.8-5-2.4-6.6c-1.6-1.6-3.6-2.4-6.2-2.4c-1.6,0-3,0.4-4.3,1.1c-1.3,0.7-2.3,1.7-3,2.8l-4.6-0.6
			l3.9-20.6h19.9v4.7h-16l-2.2,10.8c2.4-1.7,4.9-2.5,7.6-2.5c3.5,0,6.5,1.2,8.9,3.6c2.4,2.4,3.6,5.5,3.6,9.4c0,3.6-1.1,6.8-3.2,9.4
			c-2.6,3.2-6.1,4.9-10.5,4.9c-3.6,0-6.6-1-8.9-3.1C376.3,784.4,375,781.7,374.7,778.3z"/>
		<path id="XMLID_77_" class="st10" d="M407,755.6c0-2.1,0.7-3.9,2.2-5.4c1.5-1.5,3.3-2.2,5.3-2.2c2.1,0,3.9,0.7,5.4,2.2
			s2.2,3.3,2.2,5.4c0,2.1-0.7,3.9-2.2,5.4c-1.5,1.5-3.3,2.2-5.4,2.2c-2.1,0-3.9-0.7-5.3-2.2C407.7,759.5,407,757.7,407,755.6z
			 M410,755.6c0,1.3,0.5,2.4,1.4,3.3s2,1.4,3.3,1.4c1.3,0,2.3-0.5,3.2-1.4s1.4-2,1.4-3.3c0-1.3-0.5-2.4-1.4-3.3s-2-1.4-3.2-1.4
			c-1.3,0-2.4,0.5-3.3,1.4S410,754.4,410,755.6z"/>
		<path id="XMLID_80_" class="st10" d="M430.5,788.8v-40.1h27v4.7h-21.7v12.4h18.8v4.7h-18.8v18.2H430.5z"/>
		<path id="XMLID_82_" class="st10" d="M358.3,846.8v-40.1h13.8c3.1,0,5.5,0.2,7.1,0.6c2.3,0.5,4.3,1.5,5.9,2.9
			c2.1,1.8,3.7,4.1,4.7,6.8c1,2.8,1.6,6,1.6,9.5c0,3-0.4,5.7-1.1,8.1s-1.6,4.3-2.7,5.8c-1.1,1.5-2.3,2.8-3.7,3.6
			c-1.3,0.9-2.9,1.6-4.8,2c-1.9,0.5-4,0.7-6.4,0.7H358.3z M363.6,842.1h8.6c2.6,0,4.7-0.2,6.2-0.7s2.7-1.2,3.6-2.1
			c1.3-1.3,2.2-2.9,2.9-5.1c0.7-2.1,1.1-4.7,1.1-7.7c0-4.2-0.7-7.4-2.1-9.7c-1.4-2.3-3-3.8-5-4.5c-1.4-0.5-3.7-0.8-6.9-0.8h-8.4
			V842.1z"/>
		<path id="XMLID_85_" class="st10" d="M399.6,846.8v-40.1h5.3v40.1H399.6z"/>
		<path id="XMLID_87_" class="st10" d="M425.7,846.8l-15.5-40.1h5.7l10.4,29.1c0.8,2.3,1.5,4.5,2.1,6.6c0.6-2.2,1.3-4.4,2.2-6.6
			l10.8-29.1h5.4l-15.7,40.1H425.7z"/>
	</g>
</g>
<g id="Needles" class="st0">
	<polyline id="XMLID_72_" class="st12" points="484.8,491 181.5,512.6 181.5,460.3 484.4,481.9 	"/>
	<polyline id="XMLID_71_" class="st12" points="530.7,481.9 833.5,460.3 833.5,512.6 530.9,491 	"/>
</g>
<g id="Top">
	<path id="XMLID_5_" class="st13" d="M302.9,98.8l0.1,802.5c0,0-246.1-111.9-246.1-401.3S302.9,98.8,302.9,98.8z"/>
	<path id="XMLID_4_" class="st13" d="M697,99.8l-0.1,802.5c0,0,246.1-111.9,246.1-401.3S697,99.8,697,99.8z"/>
	<g id="XMLID_16_">
		<rect id="XMLID_143_" x="717.6" y="288.6" class="st9" width="69.3" height="369.7"/>
		<path id="XMLID_42_" class="st10" d="M733.1,350.2v-61.6h41.5v7.3h-33.4v19.1h28.9v7.3h-28.9v28H733.1z"/>
		<path id="XMLID_137_" class="st10" d="M768.3,386.6h8.1v35.6c0,6.2-0.7,11.1-2.1,14.7c-1.4,3.6-3.9,6.6-7.6,8.9
			c-3.7,2.3-8.4,3.4-14.4,3.4c-5.8,0-10.5-1-14.2-3c-3.7-2-6.3-4.9-7.9-8.6c-1.6-3.8-2.4-8.9-2.4-15.4v-35.6h8.1v35.5
			c0,5.3,0.5,9.3,1.5,11.8c1,2.5,2.7,4.5,5.1,5.9c2.4,1.4,5.4,2.1,8.9,2.1c6,0,10.3-1.4,12.8-4.1c2.5-2.7,3.8-7.9,3.8-15.7V386.6z"
			/>
		<path id="XMLID_139_" class="st10" d="M730.4,546.2v-61.6h44.5v7.3h-36.4v18.9h34.1v7.2h-34.1v21h37.8v7.3H730.4z"/>
		<path id="XMLID_141_" class="st10" d="M736.3,644.2v-61.6h8.1v54.3h30.3v7.3H736.3z"/>
	</g>
	<g id="XMLID_41_">
		<rect id="XMLID_135_" x="776.1" y="288.6" class="st9" width="82.5" height="369.7"/>
		<path id="XMLID_37_" class="st10" d="M798.1,350.2v-61.6h41.5v7.3h-33.4v19.1h28.9v7.3h-28.9v28H798.1z"/>
		<path id="XMLID_128_" class="st10" d="M799.7,448.2v-61.6h8.1v54.3h30.3v7.3H799.7z"/>
		<path id="XMLID_130_" class="st10" d="M788,516.2c0-10.2,2.7-18.2,8.2-24c5.5-5.8,12.6-8.7,21.2-8.7c5.7,0,10.8,1.4,15.4,4.1
			c4.6,2.7,8,6.5,10.4,11.4c2.4,4.9,3.6,10.4,3.6,16.5c0,6.2-1.3,11.8-3.8,16.8c-2.5,4.9-6.1,8.7-10.7,11.2
			c-4.6,2.5-9.6,3.8-14.9,3.8c-5.8,0-11-1.4-15.5-4.2c-4.6-2.8-8-6.6-10.4-11.5C789.2,526.7,788,521.6,788,516.2z M796.4,516.3
			c0,7.4,2,13.3,6,17.5c4,4.3,9,6.4,15,6.4c6.1,0,11.2-2.2,15.1-6.5c4-4.3,5.9-10.4,5.9-18.4c0-5-0.8-9.4-2.5-13.1
			c-1.7-3.7-4.2-6.6-7.4-8.7c-3.3-2.1-6.9-3.1-11-3.1c-5.8,0-10.7,2-14.9,5.9C798.5,500.4,796.4,507,796.4,516.3z"/>
		<path id="XMLID_133_" class="st10" d="M794.1,644.2l-16.3-61.6h8.4l9.4,40.4c1,4.2,1.9,8.4,2.6,12.6c1.6-6.6,2.5-10.4,2.8-11.4
			l11.7-41.6h9.8l8.8,31.2c2.2,7.7,3.8,15,4.8,21.8c0.8-3.9,1.8-8.4,3.1-13.4l9.7-39.6h8.2l-16.9,61.6h-7.9l-13-46.9
			c-1.1-3.9-1.7-6.3-1.9-7.2c-0.6,2.8-1.2,5.2-1.8,7.2l-13.1,46.9H794.1z"/>
	</g>
	<circle id="XMLID_35_" class="st14" cx="180" cy="500" r="44"/>
	<g id="XMLID_9_">
	</g>
	<g id="XMLID_20_">
	</g>
	<g id="XMLID_144_">
	</g>
	<g id="XMLID_145_">
	</g>
	<g id="XMLID_146_">
	</g>
	<g id="XMLID_147_">
	</g>
	<g id="XMLID_148_">
	</g>
	<g id="XMLID_149_">
	</g>
	<g id="XMLID_150_">
	</g>
	<g id="XMLID_151_">
	</g>
	<g id="XMLID_152_">
	</g>
	<g id="XMLID_153_">
	</g>
	<g id="XMLID_154_">
	</g>
	<g id="XMLID_155_">
	</g>
	<g id="XMLID_156_">
	</g>
</g>
</svg>
