<?xml version="1.0" encoding="utf-8"?>
<!-- Generator: Adobe Illustrator 19.0.0, SVG Export Plug-In . SVG Version: 6.00 Build 0)  -->
<svg version="1.1" xmlns="http://www.w3.org/2000/svg" xmlns:xlink="http://www.w3.org/1999/xlink" x="0px" y="0px"
	 viewBox="0 0 279.4 279.4" style="enable-background:new 0 0 279.4 279.4;" xml:space="preserve">
<style type="text/css">
	.st0{fill:url(#circle8194_2_);}
	.st1{fill:url(#path7250_2_);stroke:#010101;}
	.st2{fill:url(#circle7254_5_);stroke:#010101;stroke-width:0.5;}
	.st3{fill:#010101;}
	.st4{fill:url(#circle7261_2_);stroke:#010101;stroke-width:0.5;}
	.st5{fill:url(#circle7268_2_);stroke:#010101;stroke-width:0.5;}
	.st6{fill:url(#circle7254_6_);stroke:#010101;stroke-width:0.5;}
	.st7{fill:none;stroke:#9CCE78;stroke-width:22;stroke-miterlimit:10;}
	.st8{fill:none;stroke:#FFFFFF;stroke-miterlimit:10;}
	.st9{fill:none;stroke:#F26B5F;stroke-width:4;stroke-miterlimit:10;}
	.st10{fill:#FFFFFF;}
	.st11{fill:#414042;stroke:#010101;stroke-width:0.5;}
	.st12{display:none;fill:none;stroke:#414042;stroke-width:9;}
	.st13{fill:#414042;}
	.st14{fill:#E6E7E8;}
	.st15{fill:#58595B;}
	.st16{fill:none;stroke:#FFFFFF;stroke-width:3;stroke-miterlimit:10;}
	.st17{display:none;}
	.st18{display:inline;}
	.st19{fill:#FFFFFF;stroke:#333333;stroke-width:0.375;stroke-linejoin:round;}
</style>
<g id="Base">
	<g id="layer12_1_">
		<g id="g10746_1_">
			
				<radialGradient id="circle8194_2_" cx="265.3323" cy="37.7594" r="262.4776" gradientTransform="matrix(-0.3702 1.3296 -1.7104 -0.4763 255.7532 -261.1515)" gradientUnits="userSpaceOnUse">
				<stop  offset="0" style="stop-color:#2D2E2D"/>
				<stop  offset="1" style="stop-color:#010101"/>
			</radialGradient>
			<path id="circle8194_1_" class="st0" d="M139.7,8.3c72.6,0,131.5,58.9,131.5,131.5c0,72.6-58.9,131.5-131.5,131.5
				c-72.6,0-131.5-58.9-131.5-131.5C8.2,67.1,67.1,8.3,139.7,8.3z"/>
		</g>
	</g>
	<g id="airspeedIndicatorFg_1_">
		<g id="g7150_1_" transform="matrix(0.5000001,0,0,0.5000001,-134.70902,185.34998)">
			<g id="g7160_1_">
				
					<radialGradient id="path7250_2_" cx="1824.8569" cy="515.3777" r="279.7209" gradientTransform="matrix(0.8277 0 0 0.8277 -961.5752 -517.8337)" gradientUnits="userSpaceOnUse">
					<stop  offset="0" style="stop-color:#969696"/>
					<stop  offset="1" style="stop-color:#010101"/>
				</radialGradient>
				<path id="path7250_1_" class="st1" d="M548.8-369.7c-153.8,0-278.3,124.7-278.3,278.4c0,153.8,124.7,278.5,278.3,278.5
					c153.8,0,278.5-124.7,278.5-278.5C827.3-245,702.6-369.7,548.8-369.7L548.8-369.7L548.8-369.7z M548.8-339.4
					C685.8-339.4,797-228.2,797-91.2c0,137-111.2,248.3-248.3,248.3c-137,0-248.3-111.2-248.3-248.3
					C300.5-228.4,411.7-339.4,548.8-339.4z"/>
			</g>
		</g>
	</g>
	<g id="Screws">
		<g id="g7252_1_" transform="matrix(1.9999996,0,0,1.9999996,269.41922,-370.73392)">
			
				<radialGradient id="circle7254_5_" cx="-108.2835" cy="291.9685" r="25.0267" gradientTransform="matrix(1.0024 0 0 1.0024 -13.9304 -94.106)" gradientUnits="userSpaceOnUse">
				<stop  offset="0" style="stop-color:#BCB8AE"/>
				<stop  offset="1" style="stop-color:#605B50"/>
			</radialGradient>
			<circle id="circle7254_1_" class="st2" cx="-122.5" cy="198.5" r="6.1"/>
			<path id="path7257_1_" class="st3" d="M-120.8,194.9l-2.1,2.4l-2.7-1.2l-0.5,0.9l2.2,2l-1.1,2.9l0.9,0.5l2-2.3l2.8,1.1l0.5-0.9
				l-2.2-1.9l1.2-3L-120.8,194.9z"/>
		</g>
		<g id="g7259_1_" transform="matrix(1.9999996,0,0,-1.9999996,269.4192,-0.63523096)">
			
				<radialGradient id="circle7261_2_" cx="-108.2835" cy="-433.0288" r="25.0304" gradientTransform="matrix(1.0024 0 0 1.0024 -13.9304 306.7627)" gradientUnits="userSpaceOnUse">
				<stop  offset="0" style="stop-color:#BCB8AE"/>
				<stop  offset="1" style="stop-color:#605B50"/>
			</radialGradient>
			<circle id="circle7261_1_" class="st4" cx="-122.5" cy="-127.3" r="6.1"/>
			<path id="path7264_1_" class="st3" d="M-120.8-131l-2.1,2.4l-2.7-1.2l-0.5,0.9l2.2,2l-1.1,2.9l0.9,0.5l2-2.3l2.8,1.1l0.5-0.9
				l-2.2-1.9l1.2-3L-120.8-131z"/>
		</g>
		<g id="g7266_1_" transform="matrix(-1.9999996,0,0,1.9999996,786.56235,-370.7339)">
			
				<radialGradient id="circle7268_2_" cx="358.2227" cy="291.9685" r="25.0463" gradientTransform="matrix(1.0024 0 0 1.0024 -93.2542 -94.106)" gradientUnits="userSpaceOnUse">
				<stop  offset="0" style="stop-color:#BCB8AE"/>
				<stop  offset="1" style="stop-color:#605B50"/>
			</radialGradient>
			<path id="circle7268_1_" class="st5" d="M265.8,192.4c3.4,0,6.1,2.7,6.1,6.1c0,3.4-2.7,6.1-6.1,6.1c-3.4,0-6.1-2.7-6.1-6.1
				C259.8,195.2,262.5,192.4,265.8,192.4z"/>
			<path id="path7271_1_" class="st3" d="M267.6,194.9l-2.1,2.4l-2.7-1.2l-0.5,0.9l2.2,2l-1.1,2.9l0.9,0.5l2-2.3l2.8,1.1l0.5-0.9
				l-2.2-1.9l1.2-3L267.6,194.9z"/>
		</g>
		<g id="g7252_2_" transform="matrix(1.9999996,0,0,1.9999996,269.41922,-370.73392)">
			
				<radialGradient id="circle7254_6_" cx="6.7794" cy="407.7267" r="25.0265" gradientTransform="matrix(1.0024 0 0 1.0024 -13.9304 -94.106)" gradientUnits="userSpaceOnUse">
				<stop  offset="0" style="stop-color:#BCB8AE"/>
				<stop  offset="1" style="stop-color:#605B50"/>
			</radialGradient>
			<path id="circle7254_2_" class="st6" d="M-7.2,308.5c3.4,0,6.1,2.7,6.1,6.1c0,3.4-2.7,6.1-6.1,6.1c-3.4,0-6.1-2.7-6.1-6.1
				C-13.2,311.2-10.5,308.5-7.2,308.5z"/>
			<path id="path7257_2_" class="st3" d="M-5.4,310.9l-2.1,2.4l-2.7-1.2l-0.5,0.9l2.2,2l-1.1,2.9l0.9,0.5l2-2.3l2.8,1.1l0.5-0.9
				l-2.2-1.9l1.2-3L-5.4,310.9z"/>
		</g>
	</g>
</g>
<g id="Arcs">
	<path class="st7" d="M186.1,49c22.2,11.4,39.7,30.8,48.7,54.3"/>
</g>
<g id="Thin_TIcks">
	<line class="st8" x1="36.2" y1="199.2" x2="55.7" y2="188"/>
	<line class="st8" x1="29.7" y1="186.2" x2="50.4" y2="177.4"/>
	<line class="st8" x1="24.9" y1="172.4" x2="46.5" y2="166.2"/>
	<line class="st8" x1="21.7" y1="158.2" x2="44" y2="154.7"/>
	<line class="st8" x1="20.3" y1="143.7" x2="42.8" y2="142.9"/>
	<line class="st8" x1="20.7" y1="129.1" x2="43.2" y2="131.1"/>
	<line class="st8" x1="22.9" y1="114.7" x2="44.9" y2="119.4"/>
	<line class="st8" x1="26.8" y1="100.6" x2="48.1" y2="108"/>
	<line class="st8" x1="32.4" y1="87.2" x2="52.7" y2="97"/>
	<line class="st8" x1="39.6" y1="74.5" x2="58.5" y2="86.8"/>
	<line class="st8" x1="48.3" y1="62.8" x2="65.6" y2="77.3"/>
	<line class="st8" x1="58.4" y1="52.2" x2="73.7" y2="68.7"/>
	<line class="st8" x1="69.6" y1="43" x2="82.9" y2="61.2"/>
	<line class="st8" x1="81.9" y1="35.2" x2="92.9" y2="54.8"/>
	<line class="st8" x1="95.1" y1="28.9" x2="103.5" y2="49.8"/>
	<line class="st8" x1="108.9" y1="24.3" x2="114.8" y2="46"/>
	<line class="st8" x1="123.2" y1="21.4" x2="126.4" y2="43.7"/>
	<line class="st8" x1="137.8" y1="20.3" x2="138.2" y2="42.8"/>
	<line class="st8" x1="152.3" y1="20.9" x2="150" y2="43.3"/>
	<line class="st8" x1="166.7" y1="23.4" x2="161.7" y2="45.3"/>
	<line class="st8" x1="180.7" y1="27.5" x2="173" y2="48.7"/>
	<line class="st8" x1="194" y1="33.4" x2="183.8" y2="53.4"/>
	<line class="st8" x1="206.6" y1="40.8" x2="194" y2="59.4"/>
	<line class="st8" x1="218.2" y1="49.7" x2="203.4" y2="66.7"/>
	<line class="st8" x1="228.5" y1="59.9" x2="211.8" y2="75"/>
	<line class="st8" x1="237.6" y1="71.3" x2="219.2" y2="84.2"/>
	<line class="st8" x1="245.2" y1="83.8" x2="225.3" y2="94.3"/>
	<line class="st9" x1="251.2" y1="97" x2="224.5" y2="107.3"/>
	<line class="st8" x1="255.6" y1="110.9" x2="233.7" y2="116.4"/>
	<line class="st8" x1="258.2" y1="125.3" x2="235.9" y2="128"/>
	<line class="st8" x1="259.1" y1="139.8" x2="236.6" y2="139.8"/>
	<line class="st8" x1="258.2" y1="154.4" x2="235.8" y2="151.7"/>
	<line class="st8" x1="255.5" y1="168.7" x2="233.7" y2="163.3"/>
	<line class="st8" x1="251.1" y1="182.6" x2="230.1" y2="174.6"/>
	<line class="st8" x1="245" y1="195.9" x2="225.2" y2="185.3"/>
	<line class="st8" x1="237.4" y1="208.3" x2="219" y2="195.4"/>
</g>
<g id="Labels">
	<g>
		<path class="st10" d="M127.3,97.8v-8.6h3.8c0.8,0,1.3,0.1,1.7,0.2s0.7,0.4,1,0.8s0.4,0.8,0.4,1.3c0,0.6-0.2,1.1-0.6,1.5
			s-1,0.7-1.8,0.8c0.3,0.1,0.5,0.3,0.7,0.4c0.3,0.3,0.6,0.7,0.9,1.1l1.5,2.3h-1.4l-1.1-1.8c-0.3-0.5-0.6-0.9-0.8-1.2
			s-0.4-0.5-0.6-0.6s-0.3-0.2-0.5-0.2c-0.1,0-0.3,0-0.6,0h-1.3v3.8H127.3z M128.5,93h2.4c0.5,0,0.9-0.1,1.2-0.2s0.5-0.3,0.7-0.5
			s0.2-0.5,0.2-0.8c0-0.4-0.1-0.7-0.4-1s-0.8-0.4-1.4-0.4h-2.7V93z"/>
		<path class="st10" d="M136,97.8v-8.6h3.2c0.6,0,1,0,1.3,0.1c0.4,0.1,0.8,0.2,1.1,0.4s0.5,0.5,0.7,0.8s0.3,0.7,0.3,1.2
			c0,0.7-0.2,1.3-0.7,1.9s-1.3,0.8-2.5,0.8h-2.2v3.5H136z M137.1,93.3h2.2c0.7,0,1.3-0.1,1.6-0.4s0.5-0.7,0.5-1.2
			c0-0.4-0.1-0.7-0.3-0.9s-0.4-0.4-0.7-0.5c-0.2-0.1-0.5-0.1-1.1-0.1h-2.2V93.3z"/>
		<path class="st10" d="M143.9,97.8v-8.6h1.7l2,6.1c0.2,0.6,0.3,1,0.4,1.3c0.1-0.3,0.3-0.8,0.5-1.4l2.1-6h1.5v8.6H151v-7.2l-2.5,7.2
			h-1l-2.5-7.3v7.3H143.9z"/>
	</g>
	<g>
		<path class="st10" d="M131.1,106.2l1.5-2.2l-1.4-2h0.9l0.6,1c0.1,0.2,0.2,0.3,0.3,0.5c0.1-0.2,0.2-0.3,0.3-0.5l0.7-1h0.8l-1.4,2
			l1.5,2.2h-0.9l-0.9-1.3l-0.2-0.3l-1.1,1.6H131.1z"/>
		<path class="st10" d="M138,106.2h-0.7v-4.5c-0.2,0.2-0.4,0.3-0.7,0.5s-0.5,0.3-0.7,0.4v-0.7c0.4-0.2,0.7-0.4,1-0.7
			s0.5-0.5,0.6-0.8h0.5V106.2z"/>
		<path class="st10" d="M139.8,103.4c0-0.7,0.1-1.2,0.2-1.6s0.3-0.7,0.6-1s0.6-0.3,1-0.3c0.3,0,0.6,0.1,0.8,0.2s0.4,0.3,0.6,0.5
			s0.3,0.5,0.4,0.9s0.1,0.8,0.1,1.4c0,0.7-0.1,1.2-0.2,1.6s-0.3,0.7-0.6,1s-0.6,0.3-1,0.3c-0.6,0-1-0.2-1.3-0.6
			C140,105.2,139.8,104.4,139.8,103.4z M140.6,103.4c0,0.9,0.1,1.6,0.3,1.9s0.5,0.5,0.8,0.5s0.6-0.2,0.8-0.5s0.3-0.9,0.3-1.9
			c0-0.9-0.1-1.6-0.3-1.9s-0.5-0.5-0.8-0.5c-0.3,0-0.6,0.1-0.8,0.4C140.7,101.8,140.6,102.4,140.6,103.4z"/>
		<path class="st10" d="M144.3,103.4c0-0.7,0.1-1.2,0.2-1.6s0.3-0.7,0.6-1s0.6-0.3,1-0.3c0.3,0,0.6,0.1,0.8,0.2s0.4,0.3,0.6,0.5
			s0.3,0.5,0.4,0.9s0.1,0.8,0.1,1.4c0,0.7-0.1,1.2-0.2,1.6s-0.3,0.7-0.6,1s-0.6,0.3-1,0.3c-0.6,0-1-0.2-1.3-0.6
			C144.5,105.2,144.3,104.4,144.3,103.4z M145,103.4c0,0.9,0.1,1.6,0.3,1.9s0.5,0.5,0.8,0.5s0.6-0.2,0.8-0.5s0.3-0.9,0.3-1.9
			c0-0.9-0.1-1.6-0.3-1.9s-0.5-0.5-0.8-0.5c-0.3,0-0.6,0.1-0.8,0.4C145.1,101.8,145,102.4,145,103.4z"/>
	</g>
	<g id="g7252_3_" transform="matrix(1.9999996,0,0,1.9999996,269.41922,-370.73392)">
		<circle id="circle7254_3_" class="st11" cx="-49.8" cy="254.3" r="2.8"/>
		<path id="path7257_3_" class="st3" d="M-49.1,252.6l-1,1.1l-1.2-0.5l-0.2,0.4l1,0.9l-0.5,1.3l0.4,0.2l0.9-1.1l1.3,0.5l0.2-0.4
			l-1-0.9l0.5-1.4L-49.1,252.6z"/>
	</g>
	<g id="g7252_4_" transform="matrix(1.9999996,0,0,1.9999996,269.41922,-370.73392)">
		<circle id="circle7254_4_" class="st11" cx="-80.3" cy="254.3" r="2.8"/>
		<path id="path7257_4_" class="st3" d="M-79.6,252.6l-1,1.1l-1.2-0.5l-0.2,0.4l1,0.9l-0.5,1.3l0.4,0.2l0.9-1.1l1.3,0.5l0.2-0.4
			l-1-0.9l0.5-1.4L-79.6,252.6z"/>
	</g>
</g>
<g id="Hours">
	<rect x="94.9" y="177.3" class="st12" width="89.5" height="21"/>
	<g>
		<rect x="95.2" y="177.6" class="st13" width="17.4" height="21"/>
		<path d="M112.3,177.8v20.5H95.4v-20.5H112.3 M112.8,177.3H94.9v21.5h17.9V177.3L112.8,177.3z"/>
	</g>
	<g>
		<rect x="113.1" y="177.6" class="st13" width="17.4" height="21"/>
		<path d="M130.2,177.8v20.5h-16.9v-20.5H130.2 M130.7,177.3h-17.9v21.5h17.9V177.3L130.7,177.3z"/>
	</g>
	<g>
		<rect x="131" y="177.6" class="st13" width="17.4" height="21"/>
		<path d="M148.1,177.8v20.5h-16.9v-20.5H148.1 M148.6,177.3h-17.9v21.5h17.9V177.3L148.6,177.3z"/>
	</g>
	<g>
		<rect x="148.9" y="177.6" class="st13" width="17.4" height="21"/>
		<path d="M166,177.8v20.5h-16.9v-20.5H166 M166.5,177.3h-17.9v21.5h17.9V177.3L166.5,177.3z"/>
	</g>
	<g>
		<rect x="166.8" y="177.6" class="st14" width="17.4" height="21"/>
		<path d="M183.9,177.8v20.5H167v-20.5H183.9 M184.4,177.3h-17.9v21.5h17.9V177.3L184.4,177.3z"/>
	</g>
	<g>
		<path class="st14" d="M100.3,191.2l2.1-0.3c0.1,0.6,0.3,1,0.5,1.3s0.7,0.5,1.1,0.5c0.5,0,0.8-0.2,1.1-0.6c0.3-0.4,0.5-0.9,0.5-1.5
			c0-0.6-0.1-1.1-0.4-1.4s-0.7-0.5-1.1-0.5c-0.3,0-0.6,0.1-1,0.2l0.2-1.9c0.6,0,1-0.1,1.4-0.4c0.3-0.3,0.5-0.7,0.5-1.2
			c0-0.4-0.1-0.7-0.3-1c-0.2-0.2-0.5-0.4-0.9-0.4c-0.4,0-0.7,0.1-1,0.4s-0.4,0.7-0.5,1.2l-2-0.4c0.1-0.7,0.4-1.3,0.6-1.8
			c0.3-0.4,0.7-0.8,1.2-1.1s1.1-0.4,1.7-0.4c1.1,0,1.9,0.4,2.6,1.1c0.5,0.6,0.8,1.3,0.8,2.1c0,1.1-0.5,2-1.6,2.6
			c0.7,0.2,1.2,0.5,1.6,1c0.4,0.5,0.6,1.2,0.6,1.9c0,1.1-0.4,2-1.1,2.8s-1.6,1.1-2.7,1.1c-1,0-1.9-0.3-2.6-1
			C100.8,193.1,100.4,192.2,100.3,191.2z"/>
	</g>
	<g>
		<path class="st14" d="M123.9,194.5h-2.2v-8.9c-0.8,0.8-1.7,1.4-2.8,1.8v-2.2c0.6-0.2,1.2-0.6,1.9-1.2s1.1-1.2,1.4-2h1.8V194.5z"/>
	</g>
	<g>
		<path class="st14" d="M140.5,194.5V192h-4.7v-2.1l5-7.9h1.8v7.8h1.4v2.1h-1.4v2.5H140.5z M140.5,189.9v-4.2l-2.6,4.2H140.5z"/>
	</g>
	<g>
		<path class="st14" d="M159.7,194.5h-2.2v-8.9c-0.8,0.8-1.7,1.4-2.8,1.8v-2.2c0.6-0.2,1.2-0.6,1.9-1.2s1.1-1.2,1.4-2h1.8V194.5z"/>
	</g>
	<g>
		<path d="M172,185.7l2.2-0.2c0.1,0.5,0.2,1,0.6,1.3c0.3,0.3,0.7,0.5,1.1,0.5c0.5,0,0.8-0.2,1.2-0.6s0.5-1,0.5-1.8
			c0-0.8-0.2-1.3-0.5-1.7s-0.7-0.6-1.2-0.6c-0.6,0-1.2,0.3-1.7,0.9l-1.8-0.3l1.1-6.4h5.8v2.2h-4.1l-0.3,2.1c0.5-0.3,1-0.4,1.5-0.4
			c1,0,1.8,0.4,2.5,1.1c0.7,0.8,1,1.8,1,3c0,1-0.3,1.9-0.8,2.7c-0.7,1.1-1.8,1.6-3.1,1.6c-1.1,0-1.9-0.3-2.6-0.9
			S172.1,186.8,172,185.7z"/>
	</g>
	<g>
		<path class="st15" d="M184.5,177.3v21.8H94.9v-21.8H184.5 M190.5,171.3h-6H94.9h-6v6v21.8v6h6h89.5h6v-6v-21.8V171.3L190.5,171.3z
			"/>
	</g>
</g>
<g id="Thick_Ticks">
	<line class="st16" x1="36.2" y1="199.2" x2="62.5" y2="184.1"/>
	<line class="st16" x1="20.8" y1="129.1" x2="51" y2="131.7"/>
	<line class="st16" x1="48.4" y1="62.8" x2="71.6" y2="82.3"/>
	<line class="st16" x1="109" y1="24.4" x2="116.8" y2="53.6"/>
	<line class="st16" x1="180.7" y1="27.6" x2="170.3" y2="56.1"/>
	<line class="st16" x1="237.6" y1="71.4" x2="212.8" y2="88.8"/>
	<line class="st16" x1="259.1" y1="139.9" x2="228.7" y2="139.9"/>
	<line class="st16" x1="237.4" y1="208.4" x2="212.5" y2="191"/>
</g>
<g id="Numbers">
	<g>
		<path class="st10" d="M58.6,136.5l3.3-0.3c0.1,0.7,0.4,1.3,0.8,1.8s1,0.7,1.6,0.7c0.7,0,1.3-0.3,1.7-0.8s0.7-1.4,0.7-2.5
			c0-1.1-0.2-1.8-0.7-2.4s-1.1-0.8-1.8-0.8c-0.9,0-1.8,0.4-2.5,1.3l-2.7-0.4l1.7-8.9h8.7v3.1h-6.2l-0.5,2.9c0.7-0.4,1.5-0.6,2.2-0.6
			c1.5,0,2.7,0.5,3.7,1.6s1.5,2.4,1.5,4.1c0,1.4-0.4,2.7-1.2,3.8c-1.1,1.5-2.7,2.3-4.7,2.3c-1.6,0-2.9-0.4-3.9-1.3
			S58.8,138,58.6,136.5z"/>
	</g>
	<g>
		<path class="st10" d="M83.2,101.1h-3.3V88.7c-1.2,1.1-2.6,2-4.3,2.5v-3c0.9-0.3,1.8-0.8,2.8-1.6s1.7-1.7,2.1-2.7h2.7V101.1z"/>
		<path class="st10" d="M93.7,83.8c1.7,0,3,0.6,3.9,1.8c1.1,1.4,1.7,3.7,1.7,7c0,3.3-0.6,5.6-1.7,7c-0.9,1.2-2.2,1.8-3.9,1.8
			c-1.7,0-3-0.6-4-1.9s-1.5-3.6-1.5-6.9c0-3.2,0.6-5.6,1.7-7C90.7,84.4,92,83.8,93.7,83.8z M93.7,86.6c-0.4,0-0.8,0.1-1.1,0.4
			s-0.6,0.7-0.7,1.4c-0.2,0.9-0.3,2.3-0.3,4.3s0.1,3.4,0.3,4.2s0.5,1.3,0.8,1.5s0.7,0.4,1.1,0.4s0.8-0.1,1.1-0.4s0.6-0.7,0.7-1.4
			c0.2-0.8,0.3-2.3,0.3-4.3s-0.1-3.4-0.3-4.2s-0.5-1.3-0.8-1.5S94.1,86.6,93.7,86.6z"/>
	</g>
	<g>
		<path class="st10" d="M114.8,77h-3.3V64.6c-1.2,1.1-2.6,2-4.3,2.5v-3c0.9-0.3,1.8-0.8,2.8-1.6s1.7-1.7,2.1-2.7h2.7V77z"/>
		<path class="st10" d="M119.8,72.5l3.3-0.3c0.1,0.7,0.4,1.3,0.8,1.8s1,0.7,1.6,0.7c0.7,0,1.3-0.3,1.7-0.8s0.7-1.4,0.7-2.5
			c0-1.1-0.2-1.8-0.7-2.4s-1.1-0.8-1.8-0.8c-0.9,0-1.8,0.4-2.5,1.3l-2.7-0.4l1.7-8.9h8.7v3.1h-6.2l-0.5,2.9c0.7-0.4,1.5-0.6,2.3-0.6
			c1.5,0,2.7,0.5,3.7,1.6s1.5,2.4,1.5,4.1c0,1.4-0.4,2.7-1.2,3.8c-1.1,1.5-2.7,2.3-4.7,2.3c-1.6,0-2.9-0.4-3.9-1.3
			S120,74,119.8,72.5z"/>
	</g>
	<g>
		<path class="st10" d="M162.6,76.7v3.1h-11.5c0.1-1.2,0.5-2.3,1.1-3.3s1.9-2.4,3.7-4.1c1.5-1.4,2.4-2.3,2.7-2.8
			c0.5-0.7,0.7-1.4,0.7-2c0-0.7-0.2-1.3-0.6-1.7s-0.9-0.6-1.6-0.6c-0.7,0-1.2,0.2-1.6,0.6s-0.6,1.1-0.7,2.1l-3.3-0.3
			c0.2-1.8,0.8-3.1,1.8-3.9c1-0.8,2.3-1.2,3.9-1.2c1.7,0,3,0.5,4,1.4c1,0.9,1.5,2.1,1.5,3.4c0,0.8-0.1,1.5-0.4,2.2s-0.7,1.4-1.3,2.2
			c-0.4,0.5-1.1,1.2-2.2,2.2s-1.7,1.6-2,1.9s-0.5,0.6-0.7,0.9H162.6z"/>
		<path class="st10" d="M170.4,62.5c1.7,0,3,0.6,3.9,1.8c1.1,1.4,1.7,3.7,1.7,7c0,3.3-0.6,5.6-1.7,7c-0.9,1.2-2.2,1.8-3.9,1.8
			c-1.7,0-3-0.6-4-1.9s-1.5-3.6-1.5-6.9c0-3.2,0.6-5.6,1.7-7C167.5,63.1,168.8,62.5,170.4,62.5z M170.4,65.3c-0.4,0-0.8,0.1-1.1,0.4
			s-0.6,0.7-0.7,1.4c-0.2,0.9-0.3,2.3-0.3,4.3s0.1,3.4,0.3,4.2s0.5,1.3,0.8,1.5s0.7,0.4,1.1,0.4s0.8-0.1,1.1-0.4s0.6-0.7,0.7-1.4
			c0.2-0.8,0.3-2.3,0.3-4.3s-0.1-3.4-0.3-4.2s-0.5-1.3-0.8-1.5S170.8,65.3,170.4,65.3z"/>
	</g>
	<g>
		<path class="st10" d="M193.3,103.2v3.1h-11.5c0.1-1.2,0.5-2.3,1.1-3.3s1.9-2.4,3.7-4.1c1.5-1.4,2.4-2.3,2.7-2.8
			c0.5-0.7,0.7-1.4,0.7-2c0-0.7-0.2-1.3-0.6-1.7s-0.9-0.6-1.6-0.6c-0.7,0-1.2,0.2-1.6,0.6s-0.6,1.1-0.7,2.1l-3.3-0.3
			c0.2-1.8,0.8-3.1,1.8-3.9s2.3-1.2,3.9-1.2c1.7,0,3,0.5,4,1.4s1.5,2.1,1.5,3.4c0,0.8-0.1,1.5-0.4,2.2s-0.7,1.4-1.3,2.2
			c-0.4,0.5-1.1,1.2-2.2,2.2s-1.7,1.6-2,1.9s-0.5,0.6-0.7,0.9H193.3z"/>
		<path class="st10" d="M195.6,101.9l3.3-0.3c0.1,0.7,0.4,1.3,0.8,1.8s1,0.7,1.6,0.7c0.7,0,1.3-0.3,1.7-0.8s0.7-1.4,0.7-2.5
			c0-1.1-0.2-1.8-0.7-2.4s-1.1-0.8-1.8-0.8c-0.9,0-1.8,0.4-2.5,1.3l-2.7-0.4l1.7-8.9h8.7v3.1h-6.2l-0.5,2.9c0.7-0.4,1.5-0.6,2.3-0.6
			c1.5,0,2.7,0.5,3.7,1.6s1.5,2.4,1.5,4.1c0,1.4-0.4,2.7-1.2,3.8c-1.1,1.5-2.7,2.3-4.7,2.3c-1.6,0-2.9-0.4-3.9-1.3
			S195.8,103.3,195.6,101.9z"/>
	</g>
	<g>
		<path class="st10" d="M197.7,144.3l3.2-0.4c0.1,0.8,0.4,1.4,0.8,1.9s1,0.6,1.6,0.6c0.7,0,1.3-0.3,1.7-0.8s0.7-1.2,0.7-2.1
			c0-0.8-0.2-1.5-0.7-2s-1-0.7-1.6-0.7c-0.4,0-0.9,0.1-1.5,0.2l0.4-2.7c0.9,0,1.6-0.2,2-0.6s0.7-1,0.7-1.6c0-0.6-0.2-1-0.5-1.4
			s-0.8-0.5-1.4-0.5c-0.6,0-1,0.2-1.4,0.6s-0.6,1-0.7,1.7l-3-0.5c0.2-1,0.5-1.9,1-2.5s1-1.1,1.8-1.5s1.6-0.5,2.6-0.5
			c1.6,0,2.9,0.5,3.9,1.5c0.8,0.8,1.2,1.8,1.2,2.9c0,1.5-0.8,2.7-2.5,3.6c1,0.2,1.8,0.7,2.4,1.4s0.9,1.6,0.9,2.7
			c0,1.5-0.6,2.8-1.7,3.9s-2.5,1.6-4.1,1.6c-1.6,0-2.8-0.4-3.9-1.3S197.9,145.7,197.7,144.3z"/>
		<path class="st10" d="M216.8,131.6c1.7,0,3,0.6,3.9,1.8c1.1,1.4,1.7,3.7,1.7,7c0,3.3-0.6,5.6-1.7,7c-0.9,1.2-2.2,1.8-3.9,1.8
			c-1.7,0-3-0.6-4-1.9s-1.5-3.6-1.5-6.9c0-3.2,0.6-5.6,1.7-7C213.8,132.2,215.1,131.6,216.8,131.6z M216.8,134.3
			c-0.4,0-0.8,0.1-1.1,0.4s-0.6,0.7-0.7,1.4c-0.2,0.9-0.3,2.3-0.3,4.3s0.1,3.4,0.3,4.2s0.5,1.3,0.8,1.5s0.7,0.4,1.1,0.4
			s0.8-0.1,1.1-0.4s0.6-0.7,0.7-1.4c0.2-0.8,0.3-2.3,0.3-4.3s-0.1-3.4-0.3-4.2s-0.5-1.3-0.8-1.5S217.2,134.3,216.8,134.3z"/>
	</g>
</g>
<g id="Needle" class="st17">
	<g id="airspeedIndicatorHand_1_" class="st18">
		<g id="g9030_1_">
			<g id="g17727-5_1_" transform="matrix(0.9999893,0,0,0.9999893,-313.92232,-7.1287224)">
				<path id="path6414-8-9_1_" class="st19" d="M453.6,32c-0.4,0-0.8,4-1.2,8.3l-7.7,121.5l8.9,11.3l8.9-11.3l-7.7-121.5
					C454.3,36.1,454.1,32,453.6,32z"/>
			</g>
		</g>
	</g>
</g>
<g id="Guides">
	<g>
	</g>
	<g>
	</g>
	<g>
	</g>
	<g>
	</g>
	<g>
	</g>
	<g>
	</g>
</g>
</svg>
