<?xml version="1.0" encoding="utf-8"?>
<!-- Generator: Adobe Illustrator 19.0.0, SVG Export Plug-In . SVG Version: 6.00 Build 0)  -->
<svg version="1.1" xmlns="http://www.w3.org/2000/svg" xmlns:xlink="http://www.w3.org/1999/xlink" x="0px" y="0px"
	 viewBox="0 0 594.7 197.3" style="enable-background:new 0 0 594.7 197.3;" xml:space="preserve">
<style type="text/css">
	.st0{fill:#282828;stroke:#E5E5E5;stroke-width:2;stroke-miterlimit:10;}
	.st1{fill:#282828;}
	.st2{fill:none;}
	.st3{fill:#FFFFFF;}
	.st4{display:none;}
	.st5{display:inline;fill:#3F403F;stroke:#000000;stroke-miterlimit:10;}
	.st6{display:inline;}
	.st7{fill:none;stroke:#000000;stroke-width:1.5;stroke-miterlimit:10;stroke-dasharray:1.4991,1.4991;}
	.st8{fill:#3F403F;stroke:#000000;stroke-width:2;stroke-miterlimit:10;}
	.st9{fill:none;stroke:#000000;stroke-width:1.5;stroke-miterlimit:10;stroke-dasharray:1.5946,1.5946;}
	.st10{fill:#3F403F;stroke:#000000;stroke-miterlimit:10;}
	.st11{fill:none;stroke:#000000;stroke-width:1.5;stroke-miterlimit:10;stroke-dasharray:1.4914,1.4914;}
	.st12{display:inline;fill:none;stroke:#F7941E;stroke-width:0.5;stroke-linecap:round;stroke-miterlimit:10;}
	.st13{fill:#FFFFFF;stroke:#FFFFFF;stroke-miterlimit:10;}
	.st14{fill:none;stroke:#6D6E71;stroke-miterlimit:10;}
	.st15{fill:#6D6E71;}
	.st16{fill:#F7941E;}
</style>
<g id="Layer_14">
</g>
<g id="Layer_1">
	<path id="XMLID_814_" class="st0" d="M590.7,196.3H4c-1.7,0-3-1.2-3-2.5V3.5C1,2.2,2.3,1,4,1h586.7c1.7,0,3,1.2,3,2.5v190.2
		C593.7,195.2,592.3,196.3,590.7,196.3z"/>
</g>
<g id="Base">
	<path class="st1" d="M576.7,93.3c0,4.6-3.7,8.3-8.3,8.3H24.9c-4.6,0-8.3-3.7-8.3-8.3V37.1c0-4.6,3.7-8.3,8.3-8.3h543.5
		c4.6,0,8.3,3.7,8.3,8.3V93.3z"/>
	<path d="M576.7,90.6c0,4.4-3.6,8-8,8H24.6c-4.4,0-8-3.6-8-8V36.8c0-4.4,3.6-8,8-8h544.1c4.4,0,8,3.6,8,8V90.6z"/>
</g>
<g id="Labels">
	<g>
		<rect x="43.1" y="106.3" class="st2" width="42" height="17.3"/>
		<path class="st3" d="M49.5,111.8l1.7,0.5c-0.3,0.9-0.7,1.6-1.3,2.1c-0.6,0.5-1.4,0.7-2.3,0.7c-1.1,0-2.1-0.4-2.8-1.2
			s-1.1-1.8-1.1-3.2c0-1.4,0.4-2.5,1.1-3.3s1.7-1.2,2.9-1.2c1,0,1.9,0.3,2.6,0.9c0.4,0.4,0.7,0.9,0.9,1.6l-1.7,0.4
			c-0.1-0.4-0.3-0.8-0.6-1.1c-0.3-0.3-0.7-0.4-1.2-0.4c-0.6,0-1.2,0.2-1.5,0.7c-0.4,0.5-0.6,1.2-0.6,2.2c0,1.1,0.2,1.9,0.6,2.3
			c0.4,0.5,0.9,0.7,1.5,0.7c0.5,0,0.9-0.1,1.2-0.4C49.1,112.8,49.3,112.4,49.5,111.8z"/>
		<path class="st3" d="M52.3,110.7c0-0.9,0.1-1.6,0.4-2.2c0.2-0.4,0.5-0.8,0.8-1.2c0.3-0.3,0.7-0.6,1.1-0.8c0.5-0.2,1.2-0.3,1.9-0.3
			c1.3,0,2.3,0.4,3,1.2c0.8,0.8,1.1,1.9,1.1,3.3c0,1.4-0.4,2.5-1.1,3.3c-0.8,0.8-1.8,1.2-3,1.2c-1.3,0-2.3-0.4-3-1.2
			S52.3,112,52.3,110.7z M54.1,110.6c0,1,0.2,1.7,0.7,2.2c0.4,0.5,1,0.8,1.7,0.8s1.3-0.2,1.7-0.7c0.4-0.5,0.7-1.2,0.7-2.2
			c0-1-0.2-1.7-0.6-2.2c-0.4-0.5-1-0.7-1.7-0.7s-1.3,0.2-1.7,0.7S54.1,109.6,54.1,110.6z"/>
		<path class="st3" d="M61.9,114.9v-8.6h2.6l1.6,5.9l1.5-5.9h2.6v8.6h-1.6v-6.8l-1.7,6.8h-1.7l-1.7-6.8v6.8H61.9z"/>
		<path class="st3" d="M71.9,114.9v-8.6h2.6l1.6,5.9l1.5-5.9h2.6v8.6h-1.6v-6.8l-1.7,6.8h-1.7l-1.7-6.8v6.8H71.9z"/>
	</g>
	<g>
		<rect x="191.7" y="106.3" class="st2" width="42" height="17.3"/>
		<path class="st3" d="M192.1,112.1l1.7-0.2c0.1,0.6,0.3,1,0.6,1.2c0.3,0.3,0.7,0.4,1.3,0.4c0.6,0,1-0.1,1.3-0.4
			c0.3-0.2,0.4-0.5,0.4-0.8c0-0.2-0.1-0.4-0.2-0.5c-0.1-0.1-0.3-0.3-0.6-0.4c-0.2-0.1-0.7-0.2-1.4-0.4c-0.9-0.2-1.6-0.5-2-0.8
			c-0.5-0.5-0.8-1-0.8-1.7c0-0.4,0.1-0.8,0.4-1.2s0.6-0.7,1.1-0.9c0.5-0.2,1-0.3,1.7-0.3c1.1,0,1.9,0.2,2.4,0.7s0.8,1.1,0.9,1.9
			l-1.7,0.1c-0.1-0.4-0.2-0.8-0.5-1c-0.2-0.2-0.6-0.3-1.1-0.3c-0.5,0-0.9,0.1-1.2,0.3c-0.2,0.1-0.3,0.3-0.3,0.5
			c0,0.2,0.1,0.4,0.3,0.5c0.2,0.2,0.7,0.4,1.6,0.6c0.8,0.2,1.5,0.4,1.9,0.6c0.4,0.2,0.7,0.5,0.9,0.9c0.2,0.4,0.3,0.8,0.3,1.4
			c0,0.5-0.1,1-0.4,1.4c-0.3,0.4-0.7,0.7-1.2,1s-1.1,0.3-1.9,0.3c-1.1,0-1.9-0.3-2.5-0.8C192.5,113.8,192.2,113.1,192.1,112.1z"/>
		<path class="st3" d="M202.5,114.9v-7.1h-2.5v-1.5h6.8v1.5h-2.5v7.1H202.5z"/>
		<path class="st3" d="M207.9,106.3h3.4c0.7,0,1.2,0,1.5,0.1c0.3,0.1,0.6,0.2,0.9,0.4c0.3,0.2,0.5,0.4,0.7,0.7
			c0.2,0.3,0.3,0.6,0.3,1c0,0.4-0.1,0.8-0.3,1.1c-0.2,0.3-0.5,0.6-0.9,0.8c0.5,0.2,0.9,0.4,1.2,0.8c0.3,0.4,0.4,0.8,0.4,1.3
			c0,0.4-0.1,0.8-0.3,1.1c-0.2,0.4-0.4,0.7-0.7,0.9c-0.3,0.2-0.7,0.4-1.2,0.4c-0.3,0-1,0.1-2.1,0.1h-2.9V106.3z M209.6,107.8v2h1.1
			c0.7,0,1.1,0,1.3,0c0.3,0,0.5-0.1,0.7-0.3c0.2-0.2,0.3-0.4,0.3-0.7c0-0.3-0.1-0.5-0.2-0.6s-0.4-0.3-0.7-0.3c-0.2,0-0.7,0-1.5,0
			H209.6z M209.6,111.2v2.3h1.6c0.6,0,1,0,1.2-0.1c0.3,0,0.5-0.2,0.6-0.3c0.2-0.2,0.2-0.4,0.2-0.7c0-0.3-0.1-0.5-0.2-0.7
			c-0.1-0.2-0.3-0.3-0.5-0.4c-0.2-0.1-0.7-0.1-1.5-0.1H209.6z"/>
		<path class="st3" d="M218.8,114.9v-3.6l-3.1-5h2l2,3.4l2-3.4h2l-3.2,5v3.6H218.8z"/>
	</g>
	<g>
		<rect x="354.9" y="106.3" class="st2" width="42" height="17.3"/>
		<path class="st3" d="M361.2,111.8l1.7,0.5c-0.3,0.9-0.7,1.6-1.3,2.1c-0.6,0.5-1.4,0.7-2.3,0.7c-1.1,0-2.1-0.4-2.8-1.2
			c-0.7-0.8-1.1-1.8-1.1-3.2c0-1.4,0.4-2.5,1.1-3.3c0.7-0.8,1.7-1.2,2.9-1.2c1,0,1.9,0.3,2.6,0.9c0.4,0.4,0.7,0.9,0.9,1.6l-1.7,0.4
			c-0.1-0.4-0.3-0.8-0.6-1.1c-0.3-0.3-0.7-0.4-1.2-0.4c-0.6,0-1.2,0.2-1.5,0.7c-0.4,0.5-0.6,1.2-0.6,2.2c0,1.1,0.2,1.9,0.6,2.3
			c0.4,0.5,0.9,0.7,1.5,0.7c0.5,0,0.9-0.1,1.2-0.4C360.8,112.8,361.1,112.4,361.2,111.8z"/>
		<path class="st3" d="M364,110.7c0-0.9,0.1-1.6,0.4-2.2c0.2-0.4,0.5-0.8,0.8-1.2c0.3-0.3,0.7-0.6,1.1-0.8c0.5-0.2,1.2-0.3,1.8-0.3
			c1.3,0,2.3,0.4,3,1.2c0.8,0.8,1.1,1.9,1.1,3.3c0,1.4-0.4,2.5-1.1,3.3c-0.8,0.8-1.8,1.2-3,1.2c-1.3,0-2.3-0.4-3-1.2
			C364.4,113.1,364,112,364,110.7z M365.8,110.6c0,1,0.2,1.7,0.7,2.2c0.4,0.5,1,0.8,1.7,0.8s1.3-0.2,1.7-0.7
			c0.4-0.5,0.7-1.2,0.7-2.2c0-1-0.2-1.7-0.6-2.2c-0.4-0.5-1-0.7-1.7-0.7s-1.3,0.2-1.7,0.7C366,108.9,365.8,109.6,365.8,110.6z"/>
		<path class="st3" d="M373.7,114.9v-8.6h2.6l1.6,5.9l1.5-5.9h2.6v8.6h-1.6v-6.8l-1.7,6.8H377l-1.7-6.8v6.8H373.7z"/>
		<path class="st3" d="M383.7,114.9v-8.6h2.6l1.6,5.9l1.5-5.9h2.6v8.6h-1.6v-6.8l-1.7,6.8H387l-1.7-6.8v6.8H383.7z"/>
	</g>
	<g>
		<rect x="458" y="103.3" class="st2" width="42" height="11.2"/>
		<path class="st3" d="M458.4,109.1l1.7-0.2c0.1,0.6,0.3,1,0.6,1.2c0.3,0.3,0.7,0.4,1.3,0.4c0.6,0,1-0.1,1.3-0.4
			c0.3-0.2,0.4-0.5,0.4-0.8c0-0.2-0.1-0.4-0.2-0.5c-0.1-0.1-0.3-0.3-0.6-0.4c-0.2-0.1-0.7-0.2-1.4-0.4c-0.9-0.2-1.6-0.5-2-0.8
			c-0.5-0.5-0.8-1-0.8-1.7c0-0.4,0.1-0.8,0.4-1.2s0.6-0.7,1.1-0.9c0.5-0.2,1-0.3,1.7-0.3c1.1,0,1.9,0.2,2.4,0.7
			c0.5,0.5,0.8,1.1,0.9,1.9l-1.7,0.1c-0.1-0.4-0.2-0.8-0.5-1c-0.2-0.2-0.6-0.3-1.1-0.3c-0.5,0-0.9,0.1-1.2,0.3
			c-0.2,0.1-0.3,0.3-0.3,0.5c0,0.2,0.1,0.4,0.3,0.5c0.2,0.2,0.7,0.4,1.6,0.6c0.8,0.2,1.5,0.4,1.9,0.6c0.4,0.2,0.7,0.5,0.9,0.9
			c0.2,0.4,0.3,0.8,0.3,1.4c0,0.5-0.1,1-0.4,1.4s-0.7,0.7-1.2,1c-0.5,0.2-1.1,0.3-1.9,0.3c-1.1,0-1.9-0.3-2.5-0.8
			C458.9,110.8,458.5,110.1,458.4,109.1z"/>
		<path class="st3" d="M468.8,111.9v-7.1h-2.5v-1.5h6.8v1.5h-2.5v7.1H468.8z"/>
		<path class="st3" d="M474.2,103.4h3.4c0.7,0,1.2,0,1.5,0.1s0.6,0.2,0.9,0.4c0.3,0.2,0.5,0.4,0.7,0.7c0.2,0.3,0.3,0.6,0.3,1
			c0,0.4-0.1,0.8-0.3,1.1c-0.2,0.3-0.5,0.6-0.9,0.8c0.5,0.2,0.9,0.4,1.2,0.8c0.3,0.4,0.4,0.8,0.4,1.3c0,0.4-0.1,0.8-0.3,1.1
			c-0.2,0.4-0.4,0.7-0.7,0.9c-0.3,0.2-0.7,0.4-1.2,0.4c-0.3,0-1,0.1-2.1,0.1h-2.9V103.4z M475.9,104.8v2h1.1c0.7,0,1.1,0,1.3,0
			c0.3,0,0.5-0.1,0.7-0.3c0.2-0.2,0.3-0.4,0.3-0.7c0-0.3-0.1-0.5-0.2-0.6s-0.4-0.3-0.7-0.3c-0.2,0-0.7,0-1.5,0H475.9z M475.9,108.2
			v2.3h1.6c0.6,0,1,0,1.2-0.1c0.3,0,0.5-0.2,0.6-0.3c0.2-0.2,0.2-0.4,0.2-0.7c0-0.3-0.1-0.5-0.2-0.7c-0.1-0.2-0.3-0.3-0.5-0.4
			s-0.7-0.1-1.5-0.1H475.9z"/>
		<path class="st3" d="M485.1,111.9v-3.6l-3.1-5h2l2,3.4l2-3.4h2l-3.2,5v3.6H485.1z"/>
	</g>
	<g>
		<rect x="33.1" y="131" class="st2" width="25.3" height="23.3"/>
		<path class="st3" d="M33.8,138.4V131h2.3c0.5,0,0.9,0,1.2,0.1c0.4,0.1,0.6,0.4,0.8,0.7c0.2,0.3,0.3,0.8,0.3,1.3
			c0,0.7-0.2,1.2-0.5,1.6c-0.3,0.4-0.9,0.6-1.8,0.6h-1.6v3H33.8z M34.6,134.5h1.6c0.5,0,0.9-0.1,1.1-0.3s0.3-0.6,0.3-1
			c0-0.3-0.1-0.5-0.2-0.8S37.2,132,37,132c-0.2-0.1-0.5-0.1-0.9-0.1h-1.6V134.5z"/>
		<path class="st3" d="M43.4,131h0.8v4.3c0,0.7-0.1,1.3-0.2,1.8s-0.4,0.8-0.8,1.1c-0.4,0.3-0.8,0.4-1.4,0.4c-0.8,0-1.4-0.2-1.8-0.7
			c-0.4-0.5-0.6-1.3-0.6-2.5V131h0.8v4.3c0,0.7,0.1,1.2,0.2,1.5c0.1,0.3,0.3,0.5,0.5,0.7c0.2,0.2,0.5,0.2,0.9,0.2
			c0.6,0,1-0.2,1.3-0.5c0.3-0.3,0.4-1,0.4-1.9V131z"/>
		<path class="st3" d="M45.6,138.4V131h0.8v6.6h3v0.9H45.6z"/>
		<path class="st3" d="M50.3,138.4V131h0.8v6.6h3v0.9H50.3z"/>
		<path class="st3" d="M35.3,150.9v-6.6h-2v-0.9h4.8v0.9h-2v6.6H35.3z"/>
		<path class="st3" d="M39,150.9v-7.4h4.4v0.9h-3.6v2.3h3.4v0.9h-3.4v2.5h3.7v0.9H39z"/>
		<path class="st3" d="M44.4,148.5l0.8-0.1c0,0.4,0.1,0.7,0.3,1c0.1,0.2,0.3,0.4,0.6,0.6s0.6,0.2,0.9,0.2c0.5,0,0.9-0.1,1.1-0.4
			c0.3-0.2,0.4-0.5,0.4-0.9c0-0.2,0-0.4-0.1-0.6c-0.1-0.2-0.2-0.3-0.4-0.4s-0.6-0.3-1.3-0.4c-0.6-0.2-1-0.3-1.2-0.5
			c-0.2-0.2-0.4-0.4-0.6-0.7c-0.1-0.3-0.2-0.6-0.2-0.9c0-0.6,0.2-1.1,0.6-1.5c0.4-0.4,0.9-0.6,1.6-0.6c0.5,0,0.9,0.1,1.2,0.3
			c0.3,0.2,0.6,0.4,0.8,0.8c0.2,0.3,0.3,0.7,0.3,1.2l-0.8,0.1c0-0.5-0.2-0.8-0.4-1.1s-0.6-0.3-1-0.3c-0.5,0-0.8,0.1-1,0.3
			c-0.2,0.2-0.4,0.5-0.4,0.8c0,0.3,0.1,0.5,0.3,0.7s0.6,0.3,1.2,0.5c0.6,0.2,1,0.3,1.3,0.4c0.4,0.2,0.7,0.4,0.8,0.7
			c0.2,0.3,0.3,0.7,0.3,1.1c0,0.4-0.1,0.8-0.3,1.2s-0.5,0.6-0.8,0.8c-0.3,0.2-0.8,0.3-1.2,0.3c-0.8,0-1.4-0.2-1.8-0.7
			C44.6,149.9,44.4,149.3,44.4,148.5z"/>
		<path class="st3" d="M51.9,150.9v-6.6h-2v-0.9h4.8v0.9h-2v6.6H51.9z"/>
	</g>
	<g>
		<rect x="38.9" y="178.9" class="st2" width="19.6" height="9.1"/>
		<path class="st3" d="M39.3,182.8c0-1.3,0.3-2.2,0.8-2.9s1.3-1,2.1-1c0.5,0,1,0.2,1.5,0.5c0.4,0.3,0.8,0.7,1.1,1.3s0.4,1.3,0.4,2.1
			c0,1.1-0.3,2-0.8,2.7c-0.6,0.8-1.3,1.1-2.2,1.1c-0.9,0-1.6-0.4-2.2-1.2C39.6,184.6,39.3,183.8,39.3,182.8z M40.1,182.8
			c0,0.9,0.2,1.6,0.6,2.1s0.9,0.8,1.5,0.8c0.6,0,1.1-0.3,1.5-0.8c0.4-0.5,0.6-1.3,0.6-2.3c0-0.6-0.1-1.2-0.3-1.7
			c-0.2-0.4-0.4-0.7-0.7-0.9c-0.3-0.2-0.7-0.3-1-0.3c-0.6,0-1.1,0.3-1.5,0.8S40.1,181.7,40.1,182.8z"/>
		<path class="st3" d="M46.2,186.4v-7.4h4.1v0.9H47v2.3h2.9v0.9H47v3.4H46.2z"/>
		<path class="st3" d="M51.4,186.4v-7.4h4.1v0.9h-3.3v2.3h2.9v0.9h-2.9v3.4H51.4z"/>
	</g>
	<g>
		<rect x="176.8" y="170.9" class="st2" width="32.6" height="9.1"/>
		<path class="st3" d="M181.8,175.7l0.8,0.2c-0.2,0.8-0.5,1.5-0.9,1.9c-0.4,0.4-1,0.6-1.6,0.6c-0.6,0-1-0.1-1.4-0.4
			c-0.4-0.3-0.7-0.7-1-1.3s-0.4-1.3-0.4-2.2c0-0.8,0.1-1.5,0.4-2.1c0.3-0.6,0.6-1,1-1.3c0.4-0.3,0.9-0.4,1.5-0.4
			c0.6,0,1.1,0.2,1.5,0.5c0.4,0.4,0.7,0.9,0.9,1.6l-0.8,0.2c-0.3-1-0.8-1.5-1.6-1.5c-0.4,0-0.8,0.1-1.1,0.3c-0.3,0.2-0.5,0.5-0.7,1
			c-0.2,0.4-0.3,1-0.3,1.7c0,1,0.2,1.8,0.5,2.3s0.8,0.8,1.4,0.8c0.4,0,0.8-0.2,1.1-0.5C181.5,176.8,181.7,176.4,181.8,175.7z"/>
		<path class="st3" d="M183.6,178.3v-7.4h0.8v3.1h3.2v-3.1h0.8v7.4h-0.8v-3.5h-3.2v3.5H183.6z"/>
		<path class="st3" d="M189.1,178.3l2.4-7.4h0.9l2.5,7.4h-0.9l-0.7-2.3h-2.6l-0.7,2.3H189.1z M190.9,175.3h2.1l-0.6-2.1
			c-0.2-0.6-0.3-1.1-0.4-1.5c-0.1,0.5-0.2,1-0.3,1.4L190.9,175.3z"/>
		<path class="st3" d="M195.5,178.3v-7.4h0.8l3.2,5.9v-5.9h0.8v7.4h-0.8l-3.2-5.9v5.9H195.5z"/>
	</g>
	<g>
		<rect x="238.2" y="178.9" class="st2" width="40.7" height="9.1"/>
		<path class="st3" d="M238.9,186.4v-7.4h2.3c0.5,0,0.9,0,1.2,0.1c0.4,0.1,0.6,0.4,0.8,0.7c0.2,0.3,0.3,0.8,0.3,1.3
			c0,0.7-0.2,1.2-0.5,1.6c-0.3,0.4-0.9,0.6-1.8,0.6h-1.6v3H238.9z M239.7,182.5h1.6c0.5,0,0.9-0.1,1.1-0.3s0.3-0.6,0.3-1
			c0-0.3-0.1-0.5-0.2-0.8s-0.3-0.4-0.4-0.4c-0.2-0.1-0.5-0.1-0.9-0.1h-1.6V182.5z"/>
		<path class="st3" d="M248.5,178.9h0.8v4.3c0,0.7-0.1,1.3-0.2,1.8s-0.4,0.8-0.8,1.1c-0.4,0.3-0.8,0.4-1.4,0.4
			c-0.8,0-1.4-0.2-1.8-0.7c-0.4-0.5-0.6-1.3-0.6-2.5v-4.3h0.8v4.3c0,0.7,0.1,1.2,0.2,1.5c0.1,0.3,0.3,0.5,0.5,0.7
			c0.2,0.2,0.5,0.2,0.9,0.2c0.6,0,1-0.2,1.3-0.5c0.3-0.3,0.4-1,0.4-1.9V178.9z"/>
		<path class="st3" d="M250.6,186.4v-7.4h0.8v6.6h3v0.9H250.6z"/>
		<path class="st3" d="M255.4,186.4v-7.4h0.8v6.6h3v0.9H255.4z"/>
		<path class="st3" d="M265.9,185.5v0.9h-4c0-0.4,0.1-0.8,0.3-1.2c0.2-0.4,0.6-1,1.2-1.6c0.7-0.7,1.2-1.2,1.4-1.6
			c0.2-0.4,0.3-0.7,0.3-1.1c0-0.4-0.1-0.7-0.3-0.9c-0.2-0.2-0.5-0.4-0.8-0.4c-0.3,0-0.6,0.1-0.9,0.4s-0.3,0.6-0.3,1.1l-0.8-0.1
			c0.1-0.7,0.3-1.3,0.6-1.6c0.4-0.4,0.8-0.5,1.4-0.5c0.6,0,1.1,0.2,1.4,0.6c0.3,0.4,0.5,0.9,0.5,1.4c0,0.5-0.1,0.9-0.4,1.4
			c-0.3,0.4-0.7,1-1.4,1.7c-0.4,0.5-0.7,0.8-0.9,0.9c-0.1,0.2-0.2,0.3-0.3,0.5H265.9z"/>
		<path class="st3" d="M266.7,184.4l0.8-0.1c0.1,0.5,0.2,0.8,0.4,1.1s0.5,0.3,0.7,0.3c0.4,0,0.7-0.2,0.9-0.5
			c0.3-0.3,0.4-0.8,0.4-1.3c0-0.5-0.1-0.9-0.4-1.2s-0.6-0.4-0.9-0.4c-0.2,0-0.4,0.1-0.6,0.2s-0.4,0.3-0.5,0.5l-0.7-0.1l0.6-3.8h3
			v0.9H268l-0.3,2c0.4-0.3,0.7-0.5,1.2-0.5c0.5,0,1,0.2,1.3,0.7c0.4,0.4,0.6,1,0.6,1.8c0,0.7-0.2,1.4-0.6,1.9
			c-0.4,0.5-0.9,0.8-1.5,0.8c-0.5,0-1-0.2-1.3-0.6S266.7,185.1,266.7,184.4z"/>
		<path class="st3" d="M271.7,186.4v-7.4h0.8v3.7l3-3.7h1.1l-2.6,3l2.7,4.4h-1.1l-2.2-3.8l-1,1.2v2.6H271.7z"/>
	</g>
	<g>
		<rect x="324" y="130.1" class="st2" width="27.6" height="23.3"/>
		<path class="st3" d="M324.7,137.6v-7.4h2.3c0.5,0,0.9,0,1.2,0.1c0.4,0.1,0.6,0.4,0.8,0.7c0.2,0.3,0.3,0.8,0.3,1.3
			c0,0.7-0.2,1.2-0.5,1.6s-0.9,0.6-1.8,0.6h-1.6v3H324.7z M325.5,133.7h1.6c0.5,0,0.9-0.1,1.1-0.3c0.2-0.2,0.3-0.6,0.3-1
			c0-0.3-0.1-0.5-0.2-0.8s-0.3-0.4-0.4-0.4c-0.2-0.1-0.5-0.1-0.9-0.1h-1.6V133.7z"/>
		<path class="st3" d="M334.4,130.1h0.8v4.3c0,0.7-0.1,1.3-0.2,1.8c-0.1,0.5-0.4,0.8-0.8,1.1c-0.4,0.3-0.8,0.4-1.4,0.4
			c-0.8,0-1.4-0.2-1.8-0.7s-0.6-1.3-0.6-2.5v-4.3h0.8v4.3c0,0.7,0.1,1.2,0.2,1.5c0.1,0.3,0.3,0.5,0.5,0.7s0.5,0.2,0.9,0.2
			c0.6,0,1-0.2,1.3-0.5c0.3-0.3,0.4-1,0.4-1.9V130.1z"/>
		<path class="st3" d="M336.5,137.6v-7.4h0.8v6.6h3v0.9H336.5z"/>
		<path class="st3" d="M341.2,137.6v-7.4h0.8v6.6h3v0.9H341.2z"/>
		<path class="st3" d="M324.9,150.1v-7.4h0.8v7.4H324.9z"/>
		<path class="st3" d="M327.1,150.1v-7.4h2.1c0.5,0,0.9,0,1.2,0.1c0.4,0.1,0.7,0.3,0.9,0.6c0.3,0.3,0.5,0.7,0.6,1.2s0.2,1,0.2,1.7
			c0,0.8-0.1,1.6-0.4,2.1s-0.6,1-1,1.2c-0.4,0.2-0.9,0.4-1.5,0.4H327.1z M327.9,149.2h1.3c0.5,0,0.9-0.1,1.2-0.3s0.5-0.4,0.6-0.8
			c0.2-0.5,0.3-1.1,0.3-1.8c0-0.8-0.1-1.3-0.3-1.8c-0.2-0.4-0.5-0.7-0.8-0.9c-0.2-0.1-0.6-0.1-1-0.1h-1.3V149.2z"/>
		<path class="st3" d="M333.2,150.1v-7.4h4.4v0.9H334v2.3h3.4v0.9H334v2.5h3.7v0.9H333.2z"/>
		<path class="st3" d="M338.9,150.1v-7.4h0.8l3.2,5.9v-5.9h0.8v7.4h-0.8l-3.2-5.9v5.9H338.9z"/>
		<path class="st3" d="M346.6,150.1v-6.6h-2v-0.9h4.8v0.9h-2v6.6H346.6z"/>
	</g>
	<g>
		<rect x="420.3" y="150.7" class="st2" width="27.6" height="8.6"/>
		<path class="st3" d="M422.5,158.1v-6.6h-2v-0.9h4.8v0.9h-2v6.6H422.5z"/>
		<path class="st3" d="M426.3,158.1v-7.4h0.8v7.4H426.3z"/>
		<path class="st3" d="M428.5,158.1v-7.4h1.2l1.4,5.3l0.3,1.1c0.1-0.3,0.2-0.7,0.3-1.2l1.5-5.2h1.1v7.4h-0.8v-6.2l-1.8,6.2h-0.7
			l-1.8-6.3v6.3H428.5z"/>
		<path class="st3" d="M435.6,158.1v-7.4h4.4v0.9h-3.6v2.3h3.4v0.9h-3.4v2.5h3.7v0.9H435.6z"/>
		<path class="st3" d="M441.3,158.1v-7.4h2.7c0.6,0,1,0.1,1.3,0.2c0.3,0.1,0.5,0.4,0.7,0.7c0.2,0.3,0.3,0.7,0.3,1.1
			c0,0.6-0.1,1-0.4,1.4c-0.3,0.3-0.7,0.6-1.3,0.7c0.2,0.1,0.4,0.3,0.5,0.4c0.2,0.3,0.5,0.6,0.6,0.9l1.1,2h-1l-0.8-1.5
			c-0.3-0.6-0.6-1-0.7-1.2s-0.3-0.4-0.5-0.4c-0.2-0.1-0.4-0.1-0.6-0.1h-0.9v3.3H441.3z M442.1,153.9h1.7c0.4,0,0.7,0,0.9-0.1
			c0.2-0.1,0.4-0.2,0.5-0.4c0.1-0.2,0.2-0.4,0.2-0.7c0-0.4-0.1-0.7-0.3-0.9c-0.2-0.2-0.5-0.3-1-0.3h-1.9V153.9z"/>
	</g>
	<g>
		<rect x="445.1" y="170.3" class="st2" width="27.6" height="8.6"/>
		<path class="st3" d="M445.7,177.7v-7.4h1.2l1.4,5.3l0.3,1.1c0.1-0.3,0.2-0.7,0.3-1.2l1.5-5.2h1.1v7.4h-0.8v-6.2l-1.8,6.2h-0.7
			l-1.8-6.3v6.3H445.7z"/>
		<path class="st3" d="M452.6,174.1c0-1.3,0.3-2.2,0.8-2.9c0.6-0.7,1.3-1,2.1-1c0.5,0,1,0.2,1.5,0.5c0.4,0.3,0.8,0.7,1.1,1.3
			s0.4,1.3,0.4,2.1c0,1.1-0.3,2-0.8,2.7c-0.6,0.8-1.3,1.1-2.2,1.1c-0.9,0-1.6-0.4-2.2-1.2C452.9,176,452.6,175.1,452.6,174.1z
			 M453.5,174.1c0,0.9,0.2,1.6,0.6,2.1c0.4,0.5,0.9,0.8,1.5,0.8c0.6,0,1.1-0.3,1.5-0.8c0.4-0.5,0.6-1.3,0.6-2.3
			c0-0.6-0.1-1.2-0.3-1.7c-0.2-0.4-0.4-0.7-0.7-0.9c-0.3-0.2-0.7-0.3-1-0.3c-0.6,0-1.1,0.3-1.5,0.8
			C453.7,172.3,453.5,173.1,453.5,174.1z"/>
		<path class="st3" d="M459.5,177.7v-7.4h2.1c0.5,0,0.9,0,1.2,0.1c0.4,0.1,0.7,0.3,0.9,0.6c0.3,0.3,0.5,0.7,0.6,1.2s0.2,1,0.2,1.7
			c0,0.8-0.1,1.6-0.4,2.1s-0.6,1-1,1.2c-0.4,0.2-0.9,0.4-1.5,0.4H459.5z M460.3,176.9h1.3c0.5,0,0.9-0.1,1.2-0.3s0.5-0.4,0.6-0.8
			c0.2-0.5,0.3-1.1,0.3-1.8c0-0.8-0.1-1.3-0.3-1.8c-0.2-0.4-0.5-0.7-0.8-0.9c-0.2-0.1-0.6-0.1-1-0.1h-1.3V176.9z"/>
		<path class="st3" d="M465.7,177.7v-7.4h4.4v0.9h-3.6v2.3h3.4v0.9h-3.4v2.5h3.7v0.9H465.7z"/>
	</g>
	<g>
		<rect x="509.4" y="178" class="st2" width="45.6" height="8.6"/>
		<path class="st3" d="M510,185.4V178h2.3c0.5,0,0.9,0,1.2,0.1c0.4,0.1,0.6,0.4,0.8,0.7c0.2,0.3,0.3,0.8,0.3,1.3
			c0,0.7-0.2,1.2-0.5,1.6s-0.9,0.6-1.8,0.6h-1.6v3H510z M510.8,181.5h1.6c0.5,0,0.9-0.1,1.1-0.3c0.2-0.2,0.3-0.6,0.3-1
			c0-0.3-0.1-0.5-0.2-0.8s-0.3-0.4-0.4-0.4c-0.2-0.1-0.5-0.1-0.9-0.1h-1.6V181.5z"/>
		<path class="st3" d="M519.7,178h0.8v4.3c0,0.7-0.1,1.3-0.2,1.8c-0.1,0.5-0.4,0.8-0.8,1.1c-0.4,0.3-0.8,0.4-1.4,0.4
			c-0.8,0-1.4-0.2-1.8-0.7s-0.6-1.3-0.6-2.5V178h0.8v4.3c0,0.7,0.1,1.2,0.2,1.5c0.1,0.3,0.3,0.5,0.5,0.7s0.5,0.2,0.9,0.2
			c0.6,0,1-0.2,1.3-0.5c0.3-0.3,0.4-1,0.4-1.9V178z"/>
		<path class="st3" d="M521.8,185.4V178h0.8v6.6h3v0.9H521.8z"/>
		<path class="st3" d="M526.5,185.4V178h0.8v6.6h3v0.9H526.5z"/>
		<path class="st3" d="M533.2,181.8c0-1.3,0.3-2.2,0.8-2.9c0.6-0.7,1.3-1,2.1-1c0.5,0,1,0.2,1.5,0.5c0.4,0.3,0.8,0.7,1.1,1.3
			s0.4,1.3,0.4,2.1c0,1.1-0.3,2-0.8,2.7c-0.6,0.8-1.3,1.1-2.2,1.1c-0.9,0-1.6-0.4-2.2-1.2C533.4,183.6,533.2,182.8,533.2,181.8z
			 M534,181.8c0,0.9,0.2,1.6,0.6,2.1c0.4,0.5,0.9,0.8,1.5,0.8c0.6,0,1.1-0.3,1.5-0.8c0.4-0.5,0.6-1.3,0.6-2.3c0-0.6-0.1-1.2-0.3-1.7
			c-0.2-0.4-0.4-0.7-0.7-0.9c-0.3-0.2-0.7-0.3-1-0.3c-0.6,0-1.1,0.3-1.5,0.8C534.2,179.9,534,180.7,534,181.8z"/>
		<path class="st3" d="M540,185.4V178h2.3c0.5,0,0.8,0.1,1.1,0.2s0.5,0.4,0.7,0.7c0.2,0.3,0.3,0.6,0.3,1c0,0.3-0.1,0.6-0.2,0.9
			s-0.4,0.5-0.6,0.7c0.4,0.1,0.6,0.3,0.8,0.7s0.3,0.7,0.3,1.1c0,0.5-0.1,0.8-0.3,1.2c-0.2,0.3-0.4,0.6-0.7,0.7
			c-0.3,0.2-0.7,0.2-1.3,0.2H540z M540.8,181.1h1.3c0.3,0,0.6,0,0.7-0.1c0.2-0.1,0.4-0.2,0.5-0.4c0.1-0.2,0.2-0.4,0.2-0.7
			c0-0.3-0.1-0.5-0.2-0.7s-0.2-0.3-0.4-0.4c-0.2-0.1-0.5-0.1-0.9-0.1h-1.2V181.1z M540.8,184.5h1.5c0.3,0,0.6,0,0.7-0.1
			c0.2-0.1,0.4-0.2,0.5-0.4c0.1-0.2,0.2-0.5,0.2-0.8c0-0.3-0.1-0.5-0.2-0.7s-0.3-0.3-0.5-0.4c-0.2-0.1-0.5-0.1-0.9-0.1h-1.4V184.5z"
			/>
		<path class="st3" d="M545.4,183l0.8-0.1c0,0.4,0.1,0.7,0.3,1c0.1,0.2,0.3,0.4,0.6,0.6c0.3,0.1,0.6,0.2,0.9,0.2
			c0.5,0,0.9-0.1,1.1-0.4c0.3-0.2,0.4-0.5,0.4-0.9c0-0.2,0-0.4-0.1-0.6s-0.2-0.3-0.4-0.4s-0.6-0.3-1.3-0.4c-0.6-0.2-1-0.3-1.2-0.5
			c-0.2-0.2-0.4-0.4-0.6-0.7c-0.1-0.3-0.2-0.6-0.2-0.9c0-0.6,0.2-1.1,0.6-1.5c0.4-0.4,0.9-0.6,1.6-0.6c0.5,0,0.8,0.1,1.2,0.3
			c0.3,0.2,0.6,0.4,0.8,0.8s0.3,0.7,0.3,1.2l-0.8,0.1c0-0.5-0.2-0.8-0.4-1.1c-0.2-0.2-0.6-0.3-1-0.3c-0.5,0-0.8,0.1-1,0.3
			c-0.2,0.2-0.4,0.5-0.4,0.8c0,0.3,0.1,0.5,0.3,0.7s0.6,0.3,1.2,0.5c0.6,0.2,1,0.3,1.3,0.4c0.4,0.2,0.7,0.4,0.8,0.7
			c0.2,0.3,0.3,0.7,0.3,1.1c0,0.4-0.1,0.8-0.3,1.2c-0.2,0.3-0.5,0.6-0.8,0.8c-0.3,0.2-0.8,0.3-1.2,0.3c-0.8,0-1.4-0.2-1.8-0.7
			S545.4,183.8,545.4,183z"/>
	</g>
	<g>
		<rect x="23.1" y="18.7" class="st2" width="59.6" height="7.2"/>
		<path class="st3" d="M23.4,25l1.3-6.3h2.2c0.5,0,0.8,0,1,0c0.3,0,0.6,0.1,0.8,0.3c0.2,0.1,0.4,0.3,0.5,0.5
			c0.1,0.2,0.2,0.5,0.2,0.7c0,0.3-0.1,0.7-0.3,0.9c-0.2,0.3-0.5,0.5-0.9,0.6c0.3,0.1,0.6,0.2,0.8,0.5s0.3,0.5,0.3,0.8
			c0,0.4-0.1,0.7-0.3,1.1c-0.2,0.3-0.5,0.6-0.9,0.7S27,25,26.4,25H23.4z M24.9,24h1.2c0.5,0,0.9,0,1.1-0.1c0.2-0.1,0.3-0.2,0.4-0.3
			c0.1-0.2,0.2-0.3,0.2-0.5c0-0.2-0.1-0.4-0.2-0.5c-0.2-0.1-0.4-0.2-0.8-0.2h-1.5L24.9,24z M25.5,21.3h1c0.4,0,0.8,0,1-0.1
			c0.2-0.1,0.3-0.2,0.4-0.3c0.1-0.1,0.1-0.3,0.1-0.5c0-0.2,0-0.3-0.1-0.4s-0.2-0.2-0.4-0.2c-0.1,0-0.3,0-0.7,0h-1L25.5,21.3z"/>
		<path class="st3" d="M29.8,25l1.3-6.3h4.7l-0.2,1.1h-3.4l-0.3,1.4h3.3l-0.2,1.1h-3.3L31.2,24h3.7L34.7,25H29.8z"/>
		<path class="st3" d="M40.7,25h-1.2l-1.7-4.2L36.9,25h-1.2l1.3-6.3h1.2l1.7,4.2l0.9-4.2H42L40.7,25z"/>
		<path class="st3" d="M42,25l1.3-6.3H45c0.5,0,0.8,0,0.9,0c0.3,0,0.5,0.1,0.7,0.2c0.2,0.1,0.4,0.2,0.6,0.3s0.3,0.3,0.4,0.5
			s0.2,0.4,0.3,0.7C48,20.7,48,21,48,21.3c0,0.7-0.1,1.3-0.4,1.8c-0.3,0.5-0.6,0.9-1,1.3c-0.3,0.2-0.7,0.4-1.2,0.5
			C45.2,25,44.8,25,44.2,25H42z M43.5,24h0.7c0.5,0,0.8,0,1-0.1c0.2-0.1,0.4-0.2,0.6-0.3c0.3-0.2,0.5-0.5,0.6-0.9
			c0.2-0.4,0.3-0.8,0.3-1.4c0-0.4-0.1-0.8-0.2-1s-0.3-0.4-0.5-0.4c-0.1-0.1-0.4-0.1-0.8-0.1h-0.8L43.5,24z"/>
		<path class="st3" d="M48.3,25l1.3-6.3h1.3L49.6,25H48.3z"/>
		<path class="st3" d="M51.8,25h-1.7l2.8-3.2l-1.6-3.1h1.4l0.6,1.2c0,0,0.2,0.3,0.4,0.9c0,0,0,0.1,0.1,0.1c0.3-0.4,0.6-0.8,0.9-1
			l1-1.1h1.6L54.4,22l1.5,3h-1.5L54,24.1c-0.2-0.5-0.4-0.9-0.5-1.1c-0.1,0.2-0.4,0.5-0.9,1L51.8,25z"/>
		<path class="st3" d="M55.9,25.1l3.1-6.5h0.9l-3.1,6.5H55.9z"/>
		<path class="st3" d="M59.1,25l1.3-6.3h1.3l-0.6,2.7l2.9-2.7h1.7l-2.8,2.5L65,25h-1.5L62,22l-1.2,1.1L60.4,25H59.1z"/>
		<path class="st3" d="M65.4,25l1.3-6.3H68L66.7,25H65.4z"/>
		<path class="st3" d="M72.9,25h-1.2L70,20.8L69.1,25h-1.2l1.3-6.3h1.2l1.7,4.2l0.9-4.2h1.2L72.9,25z"/>
		<path class="st3" d="M77.7,21.7h2.8L80,24.4c-0.3,0.2-0.7,0.4-1.2,0.5c-0.5,0.1-1,0.2-1.5,0.2c-0.8,0-1.4-0.2-1.8-0.5
			c-0.6-0.5-0.9-1.2-0.9-2.1c0-0.6,0.1-1.2,0.4-1.8c0.3-0.7,0.7-1.2,1.2-1.6s1.2-0.6,1.9-0.6s1.3,0.2,1.7,0.5s0.7,0.8,0.9,1.5
			l-1.2,0.1c-0.1-0.4-0.3-0.6-0.5-0.8c-0.2-0.2-0.5-0.3-0.9-0.3c-0.4,0-0.8,0.1-1.2,0.3s-0.6,0.6-0.8,1c-0.2,0.5-0.3,1-0.3,1.5
			c0,0.5,0.1,0.9,0.4,1.2c0.2,0.3,0.6,0.4,1.1,0.4c0.3,0,0.6,0,0.9-0.1c0.3-0.1,0.5-0.2,0.8-0.3l0.2-0.9h-1.6L77.7,21.7z"/>
	</g>
</g>
<g id="Outer_Knob_R" class="st4">
	<path class="st5" d="M557.6,134.9c0,15.9-12.9,28.8-28.8,28.8c-15.9,0-28.8-12.9-28.8-28.8c0-15.9,12.9-28.8,28.8-28.8
		C544.7,106.1,557.6,119,557.6,134.9z"/>
	<g class="st6">
		<g>
			<path class="st7" d="M558.3,134.9c0,16.3-13.2,29.6-29.6,29.6c-16.3,0-29.6-13.2-29.6-29.6c0-16.3,13.2-29.6,29.6-29.6
				C545.1,105.3,558.3,118.6,558.3,134.9z"/>
		</g>
	</g>
</g>
<g id="Inner_Knob_R" class="st4">
	<g class="st6">
		<path class="st8" d="M548.1,134.9c0,10.7-8.7,19.4-19.4,19.4c-10.7,0-19.4-8.7-19.4-19.4c0-10.7,8.7-19.4,19.4-19.4
			C539.5,115.5,548.1,124.2,548.1,134.9z"/>
		<g>
			<path class="st9" d="M549.1,134.9c0,11.2-9.1,20.3-20.3,20.3c-11.2,0-20.3-9.1-20.3-20.3c0-11.2,9.1-20.3,20.3-20.3
				C540,114.6,549.1,123.7,549.1,134.9z"/>
		</g>
	</g>
</g>
<g id="Outer_Knob_L" class="st4">
	<g class="st6">
		<g>
			<path class="st7" d="M287.2,135.6c0,16.3-13.2,29.6-29.6,29.6c-16.3,0-29.6-13.2-29.6-29.6c0-16.3,13.2-29.6,29.6-29.6
				C273.9,106,287.2,119.2,287.2,135.6z"/>
		</g>
	</g>
	<path class="st5" d="M286.4,135.6c0,15.9-12.9,28.8-28.8,28.8c-15.9,0-28.8-12.9-28.8-28.8c0-15.9,12.9-28.8,28.8-28.8
		C273.5,106.7,286.4,119.7,286.4,135.6z"/>
</g>
<g id="Inner_Knob_L" class="st4">
	<g class="st6">
		<path class="st8" d="M277,135.6c0,10.7-8.7,19.4-19.4,19.4c-10.7,0-19.4-8.7-19.4-19.4c0-10.7,8.7-19.4,19.4-19.4
			C268.3,116.2,277,124.8,277,135.6z"/>
		<g>
			<path class="st9" d="M277.9,135.6c0,11.2-9.1,20.3-20.3,20.3c-11.2,0-20.3-9.1-20.3-20.3c0-11.2,9.1-20.3,20.3-20.3
				C268.8,115.3,277.9,124.3,277.9,135.6z"/>
		</g>
	</g>
</g>
<g id="Ident_Knob_copy" class="st4">
	<g class="st6">
		<circle class="st10" cx="75.1" cy="162.3" r="16.1"/>
		<g>
			<path class="st11" d="M91.7,162.3c0,9.2-7.4,16.6-16.6,16.6s-16.6-7.4-16.6-16.6c0-9.2,7.4-16.6,16.6-16.6S91.7,153.1,91.7,162.3
				z"/>
		</g>
	</g>
</g>
<g id="Ident_Knob" class="st4">
	<circle class="st5" cx="370.9" cy="162.3" r="16.1"/>
	<g class="st6">
		<path class="st11" d="M387.5,162.3c0,9.2-7.4,16.6-16.6,16.6c-9.2,0-16.6-7.4-16.6-16.6c0-9.2,7.4-16.6,16.6-16.6
			C380.1,145.7,387.5,153.1,387.5,162.3z"/>
	</g>
</g>
<g id="LCD" class="st4">
	<line class="st12" x1="305.2" y1="37" x2="305.2" y2="90"/>
</g>
<g id="Nav_Button" class="st4">
	<g id="Switch_2_" class="st6">
		<path class="st13" d="M447.9,143c0,1.1-0.9,2-2,2h-28.1c-1.1,0-2-0.9-2-2v-14.8c0-1.1,0.9-2,2-2h28.1c1.1,0,2,0.9,2,2V143z"/>
		<g>
			<g>
				<line class="st14" x1="424" y1="135.6" x2="439.7" y2="135.6"/>
				<g>
					<polygon class="st15" points="425.1,139.3 418.6,135.6 425.1,131.8 					"/>
				</g>
				<g>
					<polygon class="st15" points="438.6,139.3 445.1,135.6 438.6,131.8 					"/>
				</g>
			</g>
		</g>
	</g>
</g>
<g id="Comm_Button" class="st4">
	<g id="Switch_3_" class="st6">
		<path class="st13" d="M179.7,143c0,1.1-0.9,2-2,2h-28.1c-1.1,0-2-0.9-2-2v-14.8c0-1.1,0.9-2,2-2h28.1c1.1,0,2,0.9,2,2V143z"/>
		<g>
			<g>
				<line class="st14" x1="155.7" y1="135.6" x2="171.5" y2="135.6"/>
				<g>
					<polygon class="st15" points="156.8,139.3 150.4,135.6 156.8,131.8 					"/>
				</g>
				<g>
					<polygon class="st15" points="170.4,139.3 176.8,135.6 170.4,131.8 					"/>
				</g>
			</g>
		</g>
	</g>
</g>
<g id="Text" class="st4">
	<g class="st6">
		<rect x="44.4" y="37" class="st2" width="117.2" height="31.3"/>
		<path class="st16" d="M50.7,37.2v1.5l-2.7,2.6h-1.5v-1.7l2.7-2.4H50.7z M50.8,61.6l1,1l-1,1h-2.9l-1-1l1-1H50.8z M53,38v10.5l-1,1
			l-1-1V38l1-1L53,38z M53,50.9v10.5l-1,1l-1-1V50.9l1-1L53,50.9z M56,61.6l1,1l-1,1h-2.9l-1-1l1-1H56z"/>
		<path class="st16" d="M63.3,38v1.9l-1,1l-1-1V38l1-1L63.3,38z M63.4,50.9v10.5l-1,1l-1-1V50.9l1-1L63.4,50.9z M73.9,35.8l1,1l-1,1
			H63.6l-1-1l1-1H73.9z M74,48.6l1,1l-1,1H63.6l-1-1l1-1H74z M74,61.6l1,1l-1,1H63.6l-1-1l1-1H74z M76.2,38v10.5l-1,1l-1-1V38l1-1
			L76.2,38z"/>
		<path class="st16" d="M92,48.8l1,1l-1,1H81.6l-1-1l1-1H92z M92.1,35.8l1,1l-1,1H81.7l-1-1l1-1H92.1z M92.2,61.6l1,1l-1,1H81.8
			l-1-1l1-1H92.2z M94.4,38v10.5l-1,1l-1-1V38l1-1L94.4,38z M94.4,50.9v10.5l-1,1l-1-1V50.9l1-1L94.4,50.9z"/>
		<path class="st16" d="M100.7,60.3v2.1h-2v-2.1H100.7z"/>
		<path class="st16" d="M106.9,38v10.5l-1,1l-1-1V38l1-1L106.9,38z M107,59.5v1.9l-1,1l-1-1v-1.9l1-1L107,59.5z M117.5,35.8l1,1
			l-1,1h-10.4l-1-1l1-1H117.5z M117.6,48.6l1,1l-1,1h-10.4l-1-1l1-1H117.6z M117.6,61.6l1,1l-1,1h-10.4l-1-1l1-1H117.6z M119.8,50.9
			v10.5l-1,1l-1-1V50.9l1-1L119.8,50.9z"/>
		<path class="st16" d="M126.1,38.2v10.5l-1,1l-1-1V38.2l1-1L126.1,38.2z M126.1,51.1v10.5l-1,1l-1-1V51.1l1-1L126.1,51.1z
			 M136.7,36l1,1l-1,1h-10.4l-1-1l1-1H136.7z M136.8,61.8l1,1l-1,1h-10.4l-1-1l1-1H136.8z M131.4,50.6l0.5,1.5l-3.4,8.5l-1.3,0.7
			l-0.5-1.6l3.4-8.4L131.4,50.6z M135.9,38.8l0.5,1.5l-3.4,8.5l-1.3,0.7l-0.5-1.6l3.4-8.4L135.9,38.8z M139,38.2v10.5l-1,1l-1-1
			V38.2l1-1L139,38.2z M139,51.1v10.5l-1,1l-1-1V51.1l1-1L139,51.1z"/>
	</g>
	<g class="st6">
		<rect x="183.4" y="37" class="st2" width="117.2" height="31.3"/>
		<path class="st16" d="M189.7,37.2v1.5l-2.7,2.6h-1.5v-1.7l2.7-2.4H189.7z M189.8,61.6l1,1l-1,1h-2.9l-1-1l1-1H189.8z M192,38v10.5
			l-1,1l-1-1V38l1-1L192,38z M192,50.9v10.5l-1,1l-1-1V50.9l1-1L192,50.9z M195,61.6l1,1l-1,1h-2.9l-1-1l1-1H195z"/>
		<path class="st16" d="M204.5,37.2v1.5l-2.7,2.6h-1.5v-1.7l2.7-2.4H204.5z M204.5,61.6l1,1l-1,1h-2.9l-1-1l1-1H204.5z M206.8,38
			v10.5l-1,1l-1-1V38l1-1L206.8,38z M206.8,50.9v10.5l-1,1l-1-1V50.9l1-1L206.8,50.9z M209.8,61.6l1,1l-1,1h-2.9l-1-1l1-1H209.8z"/>
		<path class="st16" d="M217.1,38v10.5l-1,1l-1-1V38l1-1L217.1,38z M217.1,50.9v10.5l-1,1l-1-1V50.9l1-1L217.1,50.9z M227.7,35.8
			l1,1l-1,1h-10.4l-1-1l1-1H227.7z M227.8,48.8l1,1l-1,1h-10.4l-1-1l1-1H227.8z M227.8,61.6l1,1l-1,1h-10.4l-1-1l1-1H227.8z M230,38
			v10.5l-1,1l-1-1V38l1-1L230,38z M230,50.9v10.5l-1,1l-1-1V50.9l1-1L230,50.9z"/>
		<path class="st16" d="M236.3,60.3v2.1h-2v-2.1H236.3z"/>
		<path class="st16" d="M252,48.8l1,1l-1,1h-10.4l-1-1l1-1H252z M252.1,35.8l1,1l-1,1h-10.4l-1-1l1-1H252.1z M252.2,61.6l1,1l-1,1
			h-10.4l-1-1l1-1H252.2z M254.4,38v10.5l-1,1l-1-1V38l1-1L254.4,38z M254.4,50.9v10.5l-1,1l-1-1V50.9l1-1L254.4,50.9z"/>
		<path class="st16" d="M260.7,38.3v10.5l-1,1l-1-1V38.3l1-1L260.7,38.3z M260.7,51.1v10.5l-1,1l-1-1V51.1l1-1L260.7,51.1z
			 M271.3,36l1,1l-1,1h-10.4l-1-1l1-1H271.3z M271.4,61.8l1,1l-1,1H261l-1-1l1-1H271.4z M266,50.6l0.5,1.5l-3.4,8.5l-1.3,0.7
			l-0.5-1.6l3.4-8.4L266,50.6z M270.5,38.8l0.5,1.5l-3.4,8.5l-1.3,0.7l-0.5-1.6l3.4-8.4L270.5,38.8z M273.6,38.3v10.5l-1,1l-1-1
			V38.3l1-1L273.6,38.3z M273.6,51.1v10.5l-1,1l-1-1V51.1l1-1L273.6,51.1z"/>
	</g>
	<g class="st6">
		<rect x="320.4" y="37" class="st2" width="117.2" height="31.3"/>
		<path class="st16" d="M326.7,37.2v1.5l-2.7,2.6h-1.5v-1.7l2.7-2.4H326.7z M326.8,61.6l1,1l-1,1h-2.9l-1-1l1-1H326.8z M329,38v10.5
			l-1,1l-1-1V38l1-1L329,38z M329,50.9v10.5l-1,1l-1-1V50.9l1-1L329,50.9z M332,61.6l1,1l-1,1h-2.9l-1-1l1-1H332z"/>
		<path class="st16" d="M341.5,37.2v1.5l-2.7,2.6h-1.5v-1.7l2.7-2.4H341.5z M341.5,61.6l1,1l-1,1h-2.9l-1-1l1-1H341.5z M343.8,38
			v10.5l-1,1l-1-1V38l1-1L343.8,38z M343.8,50.9v10.5l-1,1l-1-1V50.9l1-1L343.8,50.9z M346.8,61.6l1,1l-1,1h-2.9l-1-1l1-1H346.8z"/>
		<path class="st16" d="M363.5,48.8l1,1l-1,1h-10.4l-1-1l1-1H363.5z M363.7,35.8l1,1l-1,1h-10.4l-1-1l1-1H363.7z M363.8,61.6l1,1
			l-1,1h-10.4l-1-1l1-1H363.8z M366,38v10.5l-1,1l-1-1V38l1-1L366,38z M366,50.9v10.5l-1,1l-1-1V50.9l1-1L366,50.9z"/>
		<path class="st16" d="M372.3,60.3v2.1h-2v-2.1H372.3z"/>
		<path class="st16" d="M378.5,38.2v10.5l-1,1l-1-1V38.2l1-1L378.5,38.2z M378.5,51.1v10.5l-1,1l-1-1V51.1l1-1L378.5,51.1z
			 M389.1,36l1,1l-1,1h-10.4l-1-1l1-1H389.1z M389.2,61.8l1,1l-1,1h-10.4l-1-1l1-1H389.2z M383.8,50.6l0.5,1.5l-3.4,8.5l-1.3,0.7
			l-0.5-1.6l3.4-8.4L383.8,50.6z M388.3,38.8l0.5,1.5l-3.4,8.5l-1.3,0.7l-0.5-1.6l3.4-8.4L388.3,38.8z M391.4,38.2v10.5l-1,1l-1-1
			V38.2l1-1L391.4,38.2z M391.4,51.1v10.5l-1,1l-1-1V51.1l1-1L391.4,51.1z"/>
		<path class="st16" d="M397.7,38.2v10.5l-1,1l-1-1V38.2l1-1L397.7,38.2z M397.7,51.1v10.5l-1,1l-1-1V51.1l1-1L397.7,51.1z
			 M408.3,36l1,1l-1,1h-10.4l-1-1l1-1H408.3z M408.3,61.8l1,1l-1,1H398l-1-1l1-1H408.3z M403,50.6l0.5,1.5l-3.4,8.5l-1.3,0.7
			l-0.5-1.6l3.4-8.4L403,50.6z M407.5,38.8l0.5,1.5l-3.4,8.5l-1.3,0.7l-0.5-1.6l3.4-8.4L407.5,38.8z M410.6,38.2v10.5l-1,1l-1-1
			V38.2l1-1L410.6,38.2z M410.6,51.1v10.5l-1,1l-1-1V51.1l1-1L410.6,51.1z"/>
	</g>
	<g class="st6">
		<rect x="437.7" y="37" class="st2" width="117.2" height="31.3"/>
		<path class="st16" d="M443.9,37.2v1.5l-2.7,2.6h-1.5v-1.7l2.7-2.4H443.9z M444,61.6l1,1l-1,1h-2.9l-1-1l1-1H444z M446.2,38v10.5
			l-1,1l-1-1V38l1-1L446.2,38z M446.2,50.9v10.5l-1,1l-1-1V50.9l1-1L446.2,50.9z M449.3,61.6l1,1l-1,1h-2.9l-1-1l1-1H449.3z"/>
		<path class="st16" d="M458.7,37.2v1.5l-2.7,2.6h-1.5v-1.7l2.7-2.4H458.7z M458.8,61.6l1,1l-1,1h-2.9l-1-1l1-1H458.8z M461,38v10.5
			l-1,1l-1-1V38l1-1L461,38z M461,50.9v10.5l-1,1l-1-1V50.9l1-1L461,50.9z M464,61.6l1,1l-1,1h-2.9l-1-1l1-1H464z"/>
		<path class="st16" d="M480.8,35.8l1,1l-1,1h-10.4l-1-1l1-1H480.8z M483.1,38v10.5l-1,1l-1-1V38l1-1L483.1,38z M483.1,50.9v10.5
			l-1,1l-1-1V50.9l1-1L483.1,50.9z"/>
		<path class="st16" d="M489.3,60.3v2.1h-2v-2.1H489.3z"/>
		<path class="st16" d="M495.6,38v10.5l-1,1l-1-1V38l1-1L495.6,38z M495.6,50.9v10.5l-1,1l-1-1V50.9l1-1L495.6,50.9z M506.2,35.8
			l1,1l-1,1h-10.4l-1-1l1-1H506.2z M506.3,48.8l1,1l-1,1h-10.4l-1-1l1-1H506.3z M506.3,61.6l1,1l-1,1h-10.4l-1-1l1-1H506.3z
			 M508.5,38v10.5l-1,1l-1-1V38l1-1L508.5,38z M508.5,50.9v10.5l-1,1l-1-1V50.9l1-1L508.5,50.9z"/>
		<path class="st16" d="M514.8,38.3v10.5l-1,1l-1-1V38.3l1-1L514.8,38.3z M514.8,51.1v10.5l-1,1l-1-1V51.1l1-1L514.8,51.1z
			 M525.4,36l1,1l-1,1H515l-1-1l1-1H525.4z M525.4,61.8l1,1l-1,1H515l-1-1l1-1H525.4z M520.1,50.6l0.5,1.5l-3.4,8.5l-1.3,0.7
			l-0.5-1.6l3.4-8.4L520.1,50.6z M524.6,38.8l0.5,1.5l-3.4,8.5l-1.3,0.7l-0.5-1.6l3.4-8.4L524.6,38.8z M527.6,38.3v10.5l-1,1l-1-1
			V38.3l1-1L527.6,38.3z M527.6,51.1v10.5l-1,1l-1-1V51.1l1-1L527.6,51.1z"/>
	</g>
</g>
</svg>
