<?xml version="1.0" encoding="UTF-8" standalone="no"?>
<!-- Generator: Adobe Illustrator 19.0.0, SVG Export Plug-In . SVG Version: 6.00 Build 0)  -->

<svg
   xmlns:dc="http://purl.org/dc/elements/1.1/"
   xmlns:cc="http://creativecommons.org/ns#"
   xmlns:rdf="http://www.w3.org/1999/02/22-rdf-syntax-ns#"
   xmlns:svg="http://www.w3.org/2000/svg"
   xmlns="http://www.w3.org/2000/svg"
   xmlns:sodipodi="http://sodipodi.sourceforge.net/DTD/sodipodi-0.dtd"
   xmlns:inkscape="http://www.inkscape.org/namespaces/inkscape"
   version="1.1"
   x="0px"
   y="0px"
   viewBox="0 0 33.099998 19.799999"
   xml:space="preserve"
   id="svg4332"
   inkscape:version="0.91 r13725"
   sodipodi:docname="radio-nav-button.svg"
   width="33.099998"
   height="19.799999"><metadata
     id="metadata4704"><rdf:RDF><cc:Work
         rdf:about=""><dc:format>image/svg+xml</dc:format><dc:type
           rdf:resource="http://purl.org/dc/dcmitype/StillImage" /><dc:title></dc:title></cc:Work></rdf:RDF></metadata><defs
     id="defs4702" /><sodipodi:namedview
     pagecolor="#ffffff"
     bordercolor="#666666"
     borderopacity="1"
     objecttolerance="10"
     gridtolerance="10"
     guidetolerance="10"
     inkscape:pageopacity="0"
     inkscape:pageshadow="2"
     inkscape:window-width="2560"
     inkscape:window-height="1474"
     id="namedview4700"
     showgrid="false"
     fit-margin-top="0"
     fit-margin-left="0"
     fit-margin-right="0"
     fit-margin-bottom="0"
     inkscape:zoom="1.0358164"
     inkscape:cx="-244.42029"
     inkscape:cy="46.849998"
     inkscape:window-x="0"
     inkscape:window-y="60"
     inkscape:window-maximized="1"
     inkscape:current-layer="svg4332" /><style
     type="text/css"
     id="style4334">
	.st0{display:none;}
	.st1{display:inline;fill:#282828;stroke:#E5E5E5;stroke-width:2;stroke-miterlimit:10;}
	.st2{display:inline;fill:#282828;}
	.st3{display:inline;}
	.st4{fill:none;}
	.st5{fill:#FFFFFF;}
	.st6{display:inline;fill:#3F403F;stroke:#000000;stroke-miterlimit:10;}
	.st7{fill:none;stroke:#000000;stroke-width:1.5;stroke-miterlimit:10;stroke-dasharray:1.4991,1.4991;}
	.st8{fill:#3F403F;stroke:#000000;stroke-width:2;stroke-miterlimit:10;}
	.st9{fill:none;stroke:#000000;stroke-width:1.5;stroke-miterlimit:10;stroke-dasharray:1.5946,1.5946;}
	.st10{fill:#3F403F;stroke:#000000;stroke-miterlimit:10;}
	.st11{fill:none;stroke:#000000;stroke-width:1.5;stroke-miterlimit:10;stroke-dasharray:1.4914,1.4914;}
	.st12{display:inline;fill:none;stroke:#F7941E;stroke-width:0.5;stroke-linecap:round;stroke-miterlimit:10;}
	.st13{fill:#FFFFFF;stroke:#FFFFFF;stroke-miterlimit:10;}
	.st14{fill:none;stroke:#6D6E71;stroke-miterlimit:10;}
	.st15{fill:#6D6E71;}
	.st16{fill:#F7941E;}
</style><g
     id="Layer_1"
     class="st0"
     style="display:none"
     transform="translate(-415.3,-125.7)"><path
       id="XMLID_814_"
       class="st1"
       d="M 590.7,196.3 4,196.3 c -1.7,0 -3,-1.2 -3,-2.5 L 1,3.5 C 1,2.2 2.3,1 4,1 l 586.7,0 c 1.7,0 3,1.2 3,2.5 l 0,190.2 c 0,1.5 -1.4,2.6 -3,2.6 z"
       inkscape:connector-curvature="0"
       style="display:inline;fill:#282828;stroke:#e5e5e5;stroke-width:2;stroke-miterlimit:10" /></g><g
     id="Base"
     class="st0"
     style="display:none"
     transform="translate(-415.3,-125.7)"><path
       class="st2"
       d="m 576.7,93.3 c 0,4.6 -3.7,8.3 -8.3,8.3 l -543.5,0 c -4.6,0 -8.3,-3.7 -8.3,-8.3 l 0,-56.2 c 0,-4.6 3.7,-8.3 8.3,-8.3 l 543.5,0 c 4.6,0 8.3,3.7 8.3,8.3 l 0,56.2 z"
       id="path4339"
       inkscape:connector-curvature="0"
       style="display:inline;fill:#282828" /><path
       class="st3"
       d="m 576.7,90.6 c 0,4.4 -3.6,8 -8,8 l -544.1,0 c -4.4,0 -8,-3.6 -8,-8 l 0,-53.8 c 0,-4.4 3.6,-8 8,-8 l 544.1,0 c 4.4,0 8,3.6 8,8 l 0,53.8 z"
       id="path4341"
       inkscape:connector-curvature="0"
       style="display:inline" /></g><g
     id="Labels"
     class="st0"
     style="display:none"
     transform="translate(-415.3,-125.7)"><g
       class="st3"
       id="g4344"
       style="display:inline"><rect
         x="43.099998"
         y="106.3"
         class="st4"
         width="42"
         height="17.299999"
         id="rect4346"
         style="fill:none" /><path
         class="st5"
         d="m 49.5,111.8 1.7,0.5 c -0.3,0.9 -0.7,1.6 -1.3,2.1 -0.6,0.5 -1.4,0.7 -2.3,0.7 -1.1,0 -2.1,-0.4 -2.8,-1.2 -0.7,-0.8 -1.1,-1.8 -1.1,-3.2 0,-1.4 0.4,-2.5 1.1,-3.3 0.7,-0.8 1.7,-1.2 2.9,-1.2 1,0 1.9,0.3 2.6,0.9 0.4,0.4 0.7,0.9 0.9,1.6 l -1.7,0.4 c -0.1,-0.4 -0.3,-0.8 -0.6,-1.1 -0.3,-0.3 -0.7,-0.4 -1.2,-0.4 -0.6,0 -1.2,0.2 -1.5,0.7 -0.4,0.5 -0.6,1.2 -0.6,2.2 0,1.1 0.2,1.9 0.6,2.3 0.4,0.5 0.9,0.7 1.5,0.7 0.5,0 0.9,-0.1 1.2,-0.4 0.2,-0.3 0.4,-0.7 0.6,-1.3 z"
         id="path4348"
         inkscape:connector-curvature="0"
         style="fill:#ffffff" /><path
         class="st5"
         d="m 52.3,110.7 c 0,-0.9 0.1,-1.6 0.4,-2.2 0.2,-0.4 0.5,-0.8 0.8,-1.2 0.3,-0.3 0.7,-0.6 1.1,-0.8 0.5,-0.2 1.2,-0.3 1.9,-0.3 1.3,0 2.3,0.4 3,1.2 0.8,0.8 1.1,1.9 1.1,3.3 0,1.4 -0.4,2.5 -1.1,3.3 -0.8,0.8 -1.8,1.2 -3,1.2 -1.3,0 -2.3,-0.4 -3,-1.2 -0.7,-0.8 -1.2,-2 -1.2,-3.3 z m 1.8,-0.1 c 0,1 0.2,1.7 0.7,2.2 0.4,0.5 1,0.8 1.7,0.8 0.7,0 1.3,-0.2 1.7,-0.7 0.4,-0.5 0.7,-1.2 0.7,-2.2 0,-1 -0.2,-1.7 -0.6,-2.2 -0.4,-0.5 -1,-0.7 -1.7,-0.7 -0.7,0 -1.3,0.2 -1.7,0.7 -0.4,0.5 -0.8,1.1 -0.8,2.1 z"
         id="path4350"
         inkscape:connector-curvature="0"
         style="fill:#ffffff" /><path
         class="st5"
         d="m 61.9,114.9 0,-8.6 2.6,0 1.6,5.9 1.5,-5.9 2.6,0 0,8.6 -1.6,0 0,-6.8 -1.7,6.8 -1.7,0 -1.7,-6.8 0,6.8 -1.6,0 z"
         id="path4352"
         inkscape:connector-curvature="0"
         style="fill:#ffffff" /><path
         class="st5"
         d="m 71.9,114.9 0,-8.6 2.6,0 1.6,5.9 1.5,-5.9 2.6,0 0,8.6 -1.6,0 0,-6.8 -1.7,6.8 -1.7,0 -1.7,-6.8 0,6.8 -1.6,0 z"
         id="path4354"
         inkscape:connector-curvature="0"
         style="fill:#ffffff" /></g><g
       class="st3"
       id="g4356"
       style="display:inline"><rect
         x="191.7"
         y="106.3"
         class="st4"
         width="42"
         height="17.299999"
         id="rect4358"
         style="fill:none" /><path
         class="st5"
         d="m 192.1,112.1 1.7,-0.2 c 0.1,0.6 0.3,1 0.6,1.2 0.3,0.3 0.7,0.4 1.3,0.4 0.6,0 1,-0.1 1.3,-0.4 0.3,-0.2 0.4,-0.5 0.4,-0.8 0,-0.2 -0.1,-0.4 -0.2,-0.5 -0.1,-0.1 -0.3,-0.3 -0.6,-0.4 -0.2,-0.1 -0.7,-0.2 -1.4,-0.4 -0.9,-0.2 -1.6,-0.5 -2,-0.8 -0.5,-0.5 -0.8,-1 -0.8,-1.7 0,-0.4 0.1,-0.8 0.4,-1.2 0.3,-0.4 0.6,-0.7 1.1,-0.9 0.5,-0.2 1,-0.3 1.7,-0.3 1.1,0 1.9,0.2 2.4,0.7 0.5,0.5 0.8,1.1 0.9,1.9 l -1.7,0.1 c -0.1,-0.4 -0.2,-0.8 -0.5,-1 -0.2,-0.2 -0.6,-0.3 -1.1,-0.3 -0.5,0 -0.9,0.1 -1.2,0.3 -0.2,0.1 -0.3,0.3 -0.3,0.5 0,0.2 0.1,0.4 0.3,0.5 0.2,0.2 0.7,0.4 1.6,0.6 0.8,0.2 1.5,0.4 1.9,0.6 0.4,0.2 0.7,0.5 0.9,0.9 0.2,0.4 0.3,0.8 0.3,1.4 0,0.5 -0.1,1 -0.4,1.4 -0.3,0.4 -0.7,0.7 -1.2,1 -0.5,0.3 -1.1,0.3 -1.9,0.3 -1.1,0 -1.9,-0.3 -2.5,-0.8 -0.6,-0.4 -0.9,-1.1 -1,-2.1 z"
         id="path4360"
         inkscape:connector-curvature="0"
         style="fill:#ffffff" /><path
         class="st5"
         d="m 202.5,114.9 0,-7.1 -2.5,0 0,-1.5 6.8,0 0,1.5 -2.5,0 0,7.1 -1.8,0 z"
         id="path4362"
         inkscape:connector-curvature="0"
         style="fill:#ffffff" /><path
         class="st5"
         d="m 207.9,106.3 3.4,0 c 0.7,0 1.2,0 1.5,0.1 0.3,0.1 0.6,0.2 0.9,0.4 0.3,0.2 0.5,0.4 0.7,0.7 0.2,0.3 0.3,0.6 0.3,1 0,0.4 -0.1,0.8 -0.3,1.1 -0.2,0.3 -0.5,0.6 -0.9,0.8 0.5,0.2 0.9,0.4 1.2,0.8 0.3,0.4 0.4,0.8 0.4,1.3 0,0.4 -0.1,0.8 -0.3,1.1 -0.2,0.4 -0.4,0.7 -0.7,0.9 -0.3,0.2 -0.7,0.4 -1.2,0.4 -0.3,0 -1,0.1 -2.1,0.1 l -2.9,0 0,-8.7 z m 1.7,1.5 0,2 1.1,0 c 0.7,0 1.1,0 1.3,0 0.3,0 0.5,-0.1 0.7,-0.3 0.2,-0.2 0.3,-0.4 0.3,-0.7 0,-0.3 -0.1,-0.5 -0.2,-0.6 -0.1,-0.1 -0.4,-0.3 -0.7,-0.3 -0.2,0 -0.7,0 -1.5,0 l -1,0 z m 0,3.4 0,2.3 1.6,0 c 0.6,0 1,0 1.2,-0.1 0.3,0 0.5,-0.2 0.6,-0.3 0.2,-0.2 0.2,-0.4 0.2,-0.7 0,-0.3 -0.1,-0.5 -0.2,-0.7 -0.1,-0.2 -0.3,-0.3 -0.5,-0.4 -0.2,-0.1 -0.7,-0.1 -1.5,-0.1 l -1.4,0 z"
         id="path4364"
         inkscape:connector-curvature="0"
         style="fill:#ffffff" /><path
         class="st5"
         d="m 218.8,114.9 0,-3.6 -3.1,-5 2,0 2,3.4 2,-3.4 2,0 -3.2,5 0,3.6 -1.7,0 z"
         id="path4366"
         inkscape:connector-curvature="0"
         style="fill:#ffffff" /></g><g
       class="st3"
       id="g4368"
       style="display:inline"><rect
         x="354.89999"
         y="106.3"
         class="st4"
         width="42"
         height="17.299999"
         id="rect4370"
         style="fill:none" /><path
         class="st5"
         d="m 361.2,111.8 1.7,0.5 c -0.3,0.9 -0.7,1.6 -1.3,2.1 -0.6,0.5 -1.4,0.7 -2.3,0.7 -1.1,0 -2.1,-0.4 -2.8,-1.2 -0.7,-0.8 -1.1,-1.8 -1.1,-3.2 0,-1.4 0.4,-2.5 1.1,-3.3 0.7,-0.8 1.7,-1.2 2.9,-1.2 1,0 1.9,0.3 2.6,0.9 0.4,0.4 0.7,0.9 0.9,1.6 l -1.7,0.4 c -0.1,-0.4 -0.3,-0.8 -0.6,-1.1 -0.3,-0.3 -0.7,-0.4 -1.2,-0.4 -0.6,0 -1.2,0.2 -1.5,0.7 -0.4,0.5 -0.6,1.2 -0.6,2.2 0,1.1 0.2,1.9 0.6,2.3 0.4,0.5 0.9,0.7 1.5,0.7 0.5,0 0.9,-0.1 1.2,-0.4 0.2,-0.3 0.5,-0.7 0.6,-1.3 z"
         id="path4372"
         inkscape:connector-curvature="0"
         style="fill:#ffffff" /><path
         class="st5"
         d="m 364,110.7 c 0,-0.9 0.1,-1.6 0.4,-2.2 0.2,-0.4 0.5,-0.8 0.8,-1.2 0.3,-0.3 0.7,-0.6 1.1,-0.8 0.5,-0.2 1.2,-0.3 1.8,-0.3 1.3,0 2.3,0.4 3,1.2 0.8,0.8 1.1,1.9 1.1,3.3 0,1.4 -0.4,2.5 -1.1,3.3 -0.8,0.8 -1.8,1.2 -3,1.2 -1.3,0 -2.3,-0.4 -3,-1.2 -0.7,-0.9 -1.1,-2 -1.1,-3.3 z m 1.8,-0.1 c 0,1 0.2,1.7 0.7,2.2 0.4,0.5 1,0.8 1.7,0.8 0.7,0 1.3,-0.2 1.7,-0.7 0.4,-0.5 0.7,-1.2 0.7,-2.2 0,-1 -0.2,-1.7 -0.6,-2.2 -0.4,-0.5 -1,-0.7 -1.7,-0.7 -0.7,0 -1.3,0.2 -1.7,0.7 -0.6,0.4 -0.8,1.1 -0.8,2.1 z"
         id="path4374"
         inkscape:connector-curvature="0"
         style="fill:#ffffff" /><path
         class="st5"
         d="m 373.7,114.9 0,-8.6 2.6,0 1.6,5.9 1.5,-5.9 2.6,0 0,8.6 -1.6,0 0,-6.8 -1.7,6.8 -1.7,0 -1.7,-6.8 0,6.8 -1.6,0 z"
         id="path4376"
         inkscape:connector-curvature="0"
         style="fill:#ffffff" /><path
         class="st5"
         d="m 383.7,114.9 0,-8.6 2.6,0 1.6,5.9 1.5,-5.9 2.6,0 0,8.6 -1.6,0 0,-6.8 -1.7,6.8 -1.7,0 -1.7,-6.8 0,6.8 -1.6,0 z"
         id="path4378"
         inkscape:connector-curvature="0"
         style="fill:#ffffff" /></g><g
       class="st3"
       id="g4380"
       style="display:inline"><rect
         x="458"
         y="103.3"
         class="st4"
         width="42"
         height="11.2"
         id="rect4382"
         style="fill:none" /><path
         class="st5"
         d="m 458.4,109.1 1.7,-0.2 c 0.1,0.6 0.3,1 0.6,1.2 0.3,0.3 0.7,0.4 1.3,0.4 0.6,0 1,-0.1 1.3,-0.4 0.3,-0.2 0.4,-0.5 0.4,-0.8 0,-0.2 -0.1,-0.4 -0.2,-0.5 -0.1,-0.1 -0.3,-0.3 -0.6,-0.4 -0.2,-0.1 -0.7,-0.2 -1.4,-0.4 -0.9,-0.2 -1.6,-0.5 -2,-0.8 -0.5,-0.5 -0.8,-1 -0.8,-1.7 0,-0.4 0.1,-0.8 0.4,-1.2 0.3,-0.4 0.6,-0.7 1.1,-0.9 0.5,-0.2 1,-0.3 1.7,-0.3 1.1,0 1.9,0.2 2.4,0.7 0.5,0.5 0.8,1.1 0.9,1.9 l -1.7,0.1 c -0.1,-0.4 -0.2,-0.8 -0.5,-1 -0.2,-0.2 -0.6,-0.3 -1.1,-0.3 -0.5,0 -0.9,0.1 -1.2,0.3 -0.2,0.1 -0.3,0.3 -0.3,0.5 0,0.2 0.1,0.4 0.3,0.5 0.2,0.2 0.7,0.4 1.6,0.6 0.8,0.2 1.5,0.4 1.9,0.6 0.4,0.2 0.7,0.5 0.9,0.9 0.2,0.4 0.3,0.8 0.3,1.4 0,0.5 -0.1,1 -0.4,1.4 -0.3,0.4 -0.7,0.7 -1.2,1 -0.5,0.2 -1.1,0.3 -1.9,0.3 -1.1,0 -1.9,-0.3 -2.5,-0.8 -0.5,-0.4 -0.9,-1.1 -1,-2.1 z"
         id="path4384"
         inkscape:connector-curvature="0"
         style="fill:#ffffff" /><path
         class="st5"
         d="m 468.8,111.9 0,-7.1 -2.5,0 0,-1.5 6.8,0 0,1.5 -2.5,0 0,7.1 -1.8,0 z"
         id="path4386"
         inkscape:connector-curvature="0"
         style="fill:#ffffff" /><path
         class="st5"
         d="m 474.2,103.4 3.4,0 c 0.7,0 1.2,0 1.5,0.1 0.3,0.1 0.6,0.2 0.9,0.4 0.3,0.2 0.5,0.4 0.7,0.7 0.2,0.3 0.3,0.6 0.3,1 0,0.4 -0.1,0.8 -0.3,1.1 -0.2,0.3 -0.5,0.6 -0.9,0.8 0.5,0.2 0.9,0.4 1.2,0.8 0.3,0.4 0.4,0.8 0.4,1.3 0,0.4 -0.1,0.8 -0.3,1.1 -0.2,0.4 -0.4,0.7 -0.7,0.9 -0.3,0.2 -0.7,0.4 -1.2,0.4 -0.3,0 -1,0.1 -2.1,0.1 l -2.9,0 0,-8.7 z m 1.7,1.4 0,2 1.1,0 c 0.7,0 1.1,0 1.3,0 0.3,0 0.5,-0.1 0.7,-0.3 0.2,-0.2 0.3,-0.4 0.3,-0.7 0,-0.3 -0.1,-0.5 -0.2,-0.6 -0.1,-0.1 -0.4,-0.3 -0.7,-0.3 -0.2,0 -0.7,0 -1.5,0 l -1,0 z m 0,3.4 0,2.3 1.6,0 c 0.6,0 1,0 1.2,-0.1 0.3,0 0.5,-0.2 0.6,-0.3 0.2,-0.2 0.2,-0.4 0.2,-0.7 0,-0.3 -0.1,-0.5 -0.2,-0.7 -0.1,-0.2 -0.3,-0.3 -0.5,-0.4 -0.2,-0.1 -0.7,-0.1 -1.5,-0.1 l -1.4,0 z"
         id="path4388"
         inkscape:connector-curvature="0"
         style="fill:#ffffff" /><path
         class="st5"
         d="m 485.1,111.9 0,-3.6 -3.1,-5 2,0 2,3.4 2,-3.4 2,0 -3.2,5 0,3.6 -1.7,0 z"
         id="path4390"
         inkscape:connector-curvature="0"
         style="fill:#ffffff" /></g><g
       class="st3"
       id="g4392"
       style="display:inline"><rect
         x="33.099998"
         y="131"
         class="st4"
         width="25.299999"
         height="23.299999"
         id="rect4394"
         style="fill:none" /><path
         class="st5"
         d="m 33.8,138.4 0,-7.4 2.3,0 c 0.5,0 0.9,0 1.2,0.1 0.4,0.1 0.6,0.4 0.8,0.7 0.2,0.3 0.3,0.8 0.3,1.3 0,0.7 -0.2,1.2 -0.5,1.6 -0.3,0.4 -0.9,0.6 -1.8,0.6 l -1.6,0 0,3 -0.7,0 z m 0.8,-3.9 1.6,0 c 0.5,0 0.9,-0.1 1.1,-0.3 0.2,-0.2 0.3,-0.6 0.3,-1 0,-0.3 -0.1,-0.5 -0.2,-0.8 -0.1,-0.3 -0.2,-0.4 -0.4,-0.4 -0.2,-0.1 -0.5,-0.1 -0.9,-0.1 l -1.6,0 0,2.6 z"
         id="path4396"
         inkscape:connector-curvature="0"
         style="fill:#ffffff" /><path
         class="st5"
         d="m 43.4,131 0.8,0 0,4.3 c 0,0.7 -0.1,1.3 -0.2,1.8 -0.1,0.5 -0.4,0.8 -0.8,1.1 -0.4,0.3 -0.8,0.4 -1.4,0.4 -0.8,0 -1.4,-0.2 -1.8,-0.7 -0.4,-0.5 -0.6,-1.3 -0.6,-2.5 l 0,-4.4 0.8,0 0,4.3 c 0,0.7 0.1,1.2 0.2,1.5 0.1,0.3 0.3,0.5 0.5,0.7 0.2,0.2 0.5,0.2 0.9,0.2 0.6,0 1,-0.2 1.3,-0.5 0.3,-0.3 0.4,-1 0.4,-1.9 l 0,-4.3 z"
         id="path4398"
         inkscape:connector-curvature="0"
         style="fill:#ffffff" /><path
         class="st5"
         d="m 45.6,138.4 0,-7.4 0.8,0 0,6.6 3,0 0,0.9 -3.8,0 z"
         id="path4400"
         inkscape:connector-curvature="0"
         style="fill:#ffffff" /><path
         class="st5"
         d="m 50.3,138.4 0,-7.4 0.8,0 0,6.6 3,0 0,0.9 -3.8,0 z"
         id="path4402"
         inkscape:connector-curvature="0"
         style="fill:#ffffff" /><path
         class="st5"
         d="m 35.3,150.9 0,-6.6 -2,0 0,-0.9 4.8,0 0,0.9 -2,0 0,6.6 -0.8,0 z"
         id="path4404"
         inkscape:connector-curvature="0"
         style="fill:#ffffff" /><path
         class="st5"
         d="m 39,150.9 0,-7.4 4.4,0 0,0.9 -3.6,0 0,2.3 3.4,0 0,0.9 -3.4,0 0,2.5 3.7,0 0,0.9 -4.5,0 z"
         id="path4406"
         inkscape:connector-curvature="0"
         style="fill:#ffffff" /><path
         class="st5"
         d="m 44.4,148.5 0.8,-0.1 c 0,0.4 0.1,0.7 0.3,1 0.1,0.2 0.3,0.4 0.6,0.6 0.3,0.2 0.6,0.2 0.9,0.2 0.5,0 0.9,-0.1 1.1,-0.4 0.3,-0.2 0.4,-0.5 0.4,-0.9 0,-0.2 0,-0.4 -0.1,-0.6 -0.1,-0.2 -0.2,-0.3 -0.4,-0.4 -0.2,-0.1 -0.6,-0.3 -1.3,-0.4 -0.6,-0.2 -1,-0.3 -1.2,-0.5 -0.2,-0.2 -0.4,-0.4 -0.6,-0.7 -0.1,-0.3 -0.2,-0.6 -0.2,-0.9 0,-0.6 0.2,-1.1 0.6,-1.5 0.4,-0.4 0.9,-0.6 1.6,-0.6 0.5,0 0.9,0.1 1.2,0.3 0.3,0.2 0.6,0.4 0.8,0.8 0.2,0.3 0.3,0.7 0.3,1.2 l -0.8,0.1 c 0,-0.5 -0.2,-0.8 -0.4,-1.1 -0.2,-0.3 -0.6,-0.3 -1,-0.3 -0.5,0 -0.8,0.1 -1,0.3 -0.2,0.2 -0.4,0.5 -0.4,0.8 0,0.3 0.1,0.5 0.3,0.7 0.2,0.2 0.6,0.3 1.2,0.5 0.6,0.2 1,0.3 1.3,0.4 0.4,0.2 0.7,0.4 0.8,0.7 0.2,0.3 0.3,0.7 0.3,1.1 0,0.4 -0.1,0.8 -0.3,1.2 -0.2,0.4 -0.5,0.6 -0.8,0.8 -0.3,0.2 -0.8,0.3 -1.2,0.3 -0.8,0 -1.4,-0.2 -1.8,-0.7 -0.8,-0.5 -1,-1.1 -1,-1.9 z"
         id="path4408"
         inkscape:connector-curvature="0"
         style="fill:#ffffff" /><path
         class="st5"
         d="m 51.9,150.9 0,-6.6 -2,0 0,-0.9 4.8,0 0,0.9 -2,0 0,6.6 -0.8,0 z"
         id="path4410"
         inkscape:connector-curvature="0"
         style="fill:#ffffff" /></g><g
       class="st3"
       id="g4412"
       style="display:inline"><rect
         x="38.900002"
         y="178.89999"
         class="st4"
         width="19.6"
         height="9.1000004"
         id="rect4414"
         style="fill:none" /><path
         class="st5"
         d="m 39.3,182.8 c 0,-1.3 0.3,-2.2 0.8,-2.9 0.5,-0.7 1.3,-1 2.1,-1 0.5,0 1,0.2 1.5,0.5 0.4,0.3 0.8,0.7 1.1,1.3 0.3,0.6 0.4,1.3 0.4,2.1 0,1.1 -0.3,2 -0.8,2.7 -0.6,0.8 -1.3,1.1 -2.2,1.1 -0.9,0 -1.6,-0.4 -2.2,-1.2 -0.4,-0.8 -0.7,-1.6 -0.7,-2.6 z m 0.8,0 c 0,0.9 0.2,1.6 0.6,2.1 0.4,0.5 0.9,0.8 1.5,0.8 0.6,0 1.1,-0.3 1.5,-0.8 0.4,-0.5 0.6,-1.3 0.6,-2.3 0,-0.6 -0.1,-1.2 -0.3,-1.7 -0.2,-0.4 -0.4,-0.7 -0.7,-0.9 -0.3,-0.2 -0.7,-0.3 -1,-0.3 -0.6,0 -1.1,0.3 -1.5,0.8 -0.4,0.5 -0.7,1.2 -0.7,2.3 z"
         id="path4416"
         inkscape:connector-curvature="0"
         style="fill:#ffffff" /><path
         class="st5"
         d="m 46.2,186.4 0,-7.4 4.1,0 0,0.9 -3.3,0 0,2.3 2.9,0 0,0.9 -2.9,0 0,3.4 -0.8,0 z"
         id="path4418"
         inkscape:connector-curvature="0"
         style="fill:#ffffff" /><path
         class="st5"
         d="m 51.4,186.4 0,-7.4 4.1,0 0,0.9 -3.3,0 0,2.3 2.9,0 0,0.9 -2.9,0 0,3.4 -0.8,0 z"
         id="path4420"
         inkscape:connector-curvature="0"
         style="fill:#ffffff" /></g><g
       class="st3"
       id="g4422"
       style="display:inline"><rect
         x="176.8"
         y="170.89999"
         class="st4"
         width="32.599998"
         height="9.1000004"
         id="rect4424"
         style="fill:none" /><path
         class="st5"
         d="m 181.8,175.7 0.8,0.2 c -0.2,0.8 -0.5,1.5 -0.9,1.9 -0.4,0.4 -1,0.6 -1.6,0.6 -0.6,0 -1,-0.1 -1.4,-0.4 -0.4,-0.3 -0.7,-0.7 -1,-1.3 -0.3,-0.6 -0.4,-1.3 -0.4,-2.2 0,-0.8 0.1,-1.5 0.4,-2.1 0.3,-0.6 0.6,-1 1,-1.3 0.4,-0.3 0.9,-0.4 1.5,-0.4 0.6,0 1.1,0.2 1.5,0.5 0.4,0.4 0.7,0.9 0.9,1.6 l -0.8,0.2 c -0.3,-1 -0.8,-1.5 -1.6,-1.5 -0.4,0 -0.8,0.1 -1.1,0.3 -0.3,0.2 -0.5,0.5 -0.7,1 -0.2,0.4 -0.3,1 -0.3,1.7 0,1 0.2,1.8 0.5,2.3 0.3,0.5 0.8,0.8 1.4,0.8 0.4,0 0.8,-0.2 1.1,-0.5 0.4,-0.3 0.6,-0.7 0.7,-1.4 z"
         id="path4426"
         inkscape:connector-curvature="0"
         style="fill:#ffffff" /><path
         class="st5"
         d="m 183.6,178.3 0,-7.4 0.8,0 0,3.1 3.2,0 0,-3.1 0.8,0 0,7.4 -0.8,0 0,-3.5 -3.2,0 0,3.5 -0.8,0 z"
         id="path4428"
         inkscape:connector-curvature="0"
         style="fill:#ffffff" /><path
         class="st5"
         d="m 189.1,178.3 2.4,-7.4 0.9,0 2.5,7.4 -0.9,0 -0.7,-2.3 -2.6,0 -0.7,2.3 -0.9,0 z m 1.8,-3 2.1,0 -0.6,-2.1 c -0.2,-0.6 -0.3,-1.1 -0.4,-1.5 -0.1,0.5 -0.2,1 -0.3,1.4 l -0.8,2.2 z"
         id="path4430"
         inkscape:connector-curvature="0"
         style="fill:#ffffff" /><path
         class="st5"
         d="m 195.5,178.3 0,-7.4 0.8,0 3.2,5.9 0,-5.9 0.8,0 0,7.4 -0.8,0 -3.2,-5.9 0,5.9 -0.8,0 z"
         id="path4432"
         inkscape:connector-curvature="0"
         style="fill:#ffffff" /></g><g
       class="st3"
       id="g4434"
       style="display:inline"><rect
         x="238.2"
         y="178.89999"
         class="st4"
         width="40.700001"
         height="9.1000004"
         id="rect4436"
         style="fill:none" /><path
         class="st5"
         d="m 238.9,186.4 0,-7.4 2.3,0 c 0.5,0 0.9,0 1.2,0.1 0.4,0.1 0.6,0.4 0.8,0.7 0.2,0.3 0.3,0.8 0.3,1.3 0,0.7 -0.2,1.2 -0.5,1.6 -0.3,0.4 -0.9,0.6 -1.8,0.6 l -1.6,0 0,3 -0.7,0 z m 0.8,-3.9 1.6,0 c 0.5,0 0.9,-0.1 1.1,-0.3 0.2,-0.2 0.3,-0.6 0.3,-1 0,-0.3 -0.1,-0.5 -0.2,-0.8 -0.1,-0.3 -0.3,-0.4 -0.4,-0.4 -0.2,-0.1 -0.5,-0.1 -0.9,-0.1 l -1.6,0 0,2.6 z"
         id="path4438"
         inkscape:connector-curvature="0"
         style="fill:#ffffff" /><path
         class="st5"
         d="m 248.5,178.9 0.8,0 0,4.3 c 0,0.7 -0.1,1.3 -0.2,1.8 -0.1,0.5 -0.4,0.8 -0.8,1.1 -0.4,0.3 -0.8,0.4 -1.4,0.4 -0.8,0 -1.4,-0.2 -1.8,-0.7 -0.4,-0.5 -0.6,-1.3 -0.6,-2.5 l 0,-4.3 0.8,0 0,4.3 c 0,0.7 0.1,1.2 0.2,1.5 0.1,0.3 0.3,0.5 0.5,0.7 0.2,0.2 0.5,0.2 0.9,0.2 0.6,0 1,-0.2 1.3,-0.5 0.3,-0.3 0.4,-1 0.4,-1.9 l 0,-4.4 z"
         id="path4440"
         inkscape:connector-curvature="0"
         style="fill:#ffffff" /><path
         class="st5"
         d="m 250.6,186.4 0,-7.4 0.8,0 0,6.6 3,0 0,0.9 -3.8,0 z"
         id="path4442"
         inkscape:connector-curvature="0"
         style="fill:#ffffff" /><path
         class="st5"
         d="m 255.4,186.4 0,-7.4 0.8,0 0,6.6 3,0 0,0.9 -3.8,0 z"
         id="path4444"
         inkscape:connector-curvature="0"
         style="fill:#ffffff" /><path
         class="st5"
         d="m 265.9,185.5 0,0.9 -4,0 c 0,-0.4 0.1,-0.8 0.3,-1.2 0.2,-0.4 0.6,-1 1.2,-1.6 0.7,-0.7 1.2,-1.2 1.4,-1.6 0.2,-0.4 0.3,-0.7 0.3,-1.1 0,-0.4 -0.1,-0.7 -0.3,-0.9 -0.2,-0.2 -0.5,-0.4 -0.8,-0.4 -0.3,0 -0.6,0.1 -0.9,0.4 -0.3,0.3 -0.3,0.6 -0.3,1.1 L 262,181 c 0.1,-0.7 0.3,-1.3 0.6,-1.6 0.4,-0.4 0.8,-0.5 1.4,-0.5 0.6,0 1.1,0.2 1.4,0.6 0.3,0.4 0.5,0.9 0.5,1.4 0,0.5 -0.1,0.9 -0.4,1.4 -0.3,0.4 -0.7,1 -1.4,1.7 -0.4,0.5 -0.7,0.8 -0.9,0.9 -0.1,0.2 -0.2,0.3 -0.3,0.5 l 3,0 z"
         id="path4446"
         inkscape:connector-curvature="0"
         style="fill:#ffffff" /><path
         class="st5"
         d="m 266.7,184.4 0.8,-0.1 c 0.1,0.5 0.2,0.8 0.4,1.1 0.2,0.3 0.5,0.3 0.7,0.3 0.4,0 0.7,-0.2 0.9,-0.5 0.3,-0.3 0.4,-0.8 0.4,-1.3 0,-0.5 -0.1,-0.9 -0.4,-1.2 -0.3,-0.3 -0.6,-0.4 -0.9,-0.4 -0.2,0 -0.4,0.1 -0.6,0.2 -0.2,0.1 -0.4,0.3 -0.5,0.5 l -0.7,-0.1 0.6,-3.8 3,0 0,0.9 -2.4,0 -0.3,2 c 0.4,-0.3 0.7,-0.5 1.2,-0.5 0.5,0 1,0.2 1.3,0.7 0.4,0.4 0.6,1 0.6,1.8 0,0.7 -0.2,1.4 -0.6,1.9 -0.4,0.5 -0.9,0.8 -1.5,0.8 -0.5,0 -1,-0.2 -1.3,-0.6 -0.3,-0.4 -0.7,-1 -0.7,-1.7 z"
         id="path4448"
         inkscape:connector-curvature="0"
         style="fill:#ffffff" /><path
         class="st5"
         d="m 271.7,186.4 0,-7.4 0.8,0 0,3.7 3,-3.7 1.1,0 -2.6,3 2.7,4.4 -1.1,0 -2.2,-3.8 -1,1.2 0,2.6 -0.7,0 z"
         id="path4450"
         inkscape:connector-curvature="0"
         style="fill:#ffffff" /></g><g
       class="st3"
       id="g4452"
       style="display:inline"><rect
         x="324"
         y="130.10001"
         class="st4"
         width="27.6"
         height="23.299999"
         id="rect4454"
         style="fill:none" /><path
         class="st5"
         d="m 324.7,137.6 0,-7.4 2.3,0 c 0.5,0 0.9,0 1.2,0.1 0.4,0.1 0.6,0.4 0.8,0.7 0.2,0.3 0.3,0.8 0.3,1.3 0,0.7 -0.2,1.2 -0.5,1.6 -0.3,0.4 -0.9,0.6 -1.8,0.6 l -1.6,0 0,3 -0.7,0 z m 0.8,-3.9 1.6,0 c 0.5,0 0.9,-0.1 1.1,-0.3 0.2,-0.2 0.3,-0.6 0.3,-1 0,-0.3 -0.1,-0.5 -0.2,-0.8 -0.1,-0.3 -0.3,-0.4 -0.4,-0.4 -0.2,-0.1 -0.5,-0.1 -0.9,-0.1 l -1.6,0 0,2.6 z"
         id="path4456"
         inkscape:connector-curvature="0"
         style="fill:#ffffff" /><path
         class="st5"
         d="m 334.4,130.1 0.8,0 0,4.3 c 0,0.7 -0.1,1.3 -0.2,1.8 -0.1,0.5 -0.4,0.8 -0.8,1.1 -0.4,0.3 -0.8,0.4 -1.4,0.4 -0.8,0 -1.4,-0.2 -1.8,-0.7 -0.4,-0.5 -0.6,-1.3 -0.6,-2.5 l 0,-4.3 0.8,0 0,4.3 c 0,0.7 0.1,1.2 0.2,1.5 0.1,0.3 0.3,0.5 0.5,0.7 0.2,0.2 0.5,0.2 0.9,0.2 0.6,0 1,-0.2 1.3,-0.5 0.3,-0.3 0.4,-1 0.4,-1.9 l 0,-4.4 z"
         id="path4458"
         inkscape:connector-curvature="0"
         style="fill:#ffffff" /><path
         class="st5"
         d="m 336.5,137.6 0,-7.4 0.8,0 0,6.6 3,0 0,0.9 -3.8,0 z"
         id="path4460"
         inkscape:connector-curvature="0"
         style="fill:#ffffff" /><path
         class="st5"
         d="m 341.2,137.6 0,-7.4 0.8,0 0,6.6 3,0 0,0.9 -3.8,0 z"
         id="path4462"
         inkscape:connector-curvature="0"
         style="fill:#ffffff" /><path
         class="st5"
         d="m 324.9,150.1 0,-7.4 0.8,0 0,7.4 -0.8,0 z"
         id="path4464"
         inkscape:connector-curvature="0"
         style="fill:#ffffff" /><path
         class="st5"
         d="m 327.1,150.1 0,-7.4 2.1,0 c 0.5,0 0.9,0 1.2,0.1 0.4,0.1 0.7,0.3 0.9,0.6 0.3,0.3 0.5,0.7 0.6,1.2 0.1,0.5 0.2,1 0.2,1.7 0,0.8 -0.1,1.6 -0.4,2.1 -0.3,0.5 -0.6,1 -1,1.2 -0.4,0.2 -0.9,0.4 -1.5,0.4 l -2.1,0 z m 0.8,-0.9 1.3,0 c 0.5,0 0.9,-0.1 1.2,-0.3 0.3,-0.2 0.5,-0.4 0.6,-0.8 0.2,-0.5 0.3,-1.1 0.3,-1.8 0,-0.8 -0.1,-1.3 -0.3,-1.8 -0.2,-0.4 -0.5,-0.7 -0.8,-0.9 -0.2,-0.1 -0.6,-0.1 -1,-0.1 l -1.3,0 0,5.7 z"
         id="path4466"
         inkscape:connector-curvature="0"
         style="fill:#ffffff" /><path
         class="st5"
         d="m 333.2,150.1 0,-7.4 4.4,0 0,0.9 -3.6,0 0,2.3 3.4,0 0,0.9 -3.4,0 0,2.5 3.7,0 0,0.9 -4.5,0 z"
         id="path4468"
         inkscape:connector-curvature="0"
         style="fill:#ffffff" /><path
         class="st5"
         d="m 338.9,150.1 0,-7.4 0.8,0 3.2,5.9 0,-5.9 0.8,0 0,7.4 -0.8,0 -3.2,-5.9 0,5.9 -0.8,0 z"
         id="path4470"
         inkscape:connector-curvature="0"
         style="fill:#ffffff" /><path
         class="st5"
         d="m 346.6,150.1 0,-6.6 -2,0 0,-0.9 4.8,0 0,0.9 -2,0 0,6.6 -0.8,0 z"
         id="path4472"
         inkscape:connector-curvature="0"
         style="fill:#ffffff" /></g><g
       class="st3"
       id="g4474"
       style="display:inline"><rect
         x="420.29999"
         y="150.7"
         class="st4"
         width="27.6"
         height="8.6000004"
         id="rect4476"
         style="fill:none" /><path
         class="st5"
         d="m 422.5,158.1 0,-6.6 -2,0 0,-0.9 4.8,0 0,0.9 -2,0 0,6.6 -0.8,0 z"
         id="path4478"
         inkscape:connector-curvature="0"
         style="fill:#ffffff" /><path
         class="st5"
         d="m 426.3,158.1 0,-7.4 0.8,0 0,7.4 -0.8,0 z"
         id="path4480"
         inkscape:connector-curvature="0"
         style="fill:#ffffff" /><path
         class="st5"
         d="m 428.5,158.1 0,-7.4 1.2,0 1.4,5.3 0.3,1.1 c 0.1,-0.3 0.2,-0.7 0.3,-1.2 l 1.5,-5.2 1.1,0 0,7.4 -0.8,0 0,-6.2 -1.8,6.2 -0.7,0 -1.8,-6.3 0,6.3 -0.7,0 z"
         id="path4482"
         inkscape:connector-curvature="0"
         style="fill:#ffffff" /><path
         class="st5"
         d="m 435.6,158.1 0,-7.4 4.4,0 0,0.9 -3.6,0 0,2.3 3.4,0 0,0.9 -3.4,0 0,2.5 3.7,0 0,0.9 -4.5,0 z"
         id="path4484"
         inkscape:connector-curvature="0"
         style="fill:#ffffff" /><path
         class="st5"
         d="m 441.3,158.1 0,-7.4 2.7,0 c 0.6,0 1,0.1 1.3,0.2 0.3,0.1 0.5,0.4 0.7,0.7 0.2,0.3 0.3,0.7 0.3,1.1 0,0.6 -0.1,1 -0.4,1.4 -0.3,0.3 -0.7,0.6 -1.3,0.7 0.2,0.1 0.4,0.3 0.5,0.4 0.2,0.3 0.5,0.6 0.6,0.9 l 1.1,2 -1,0 -0.8,-1.5 c -0.3,-0.6 -0.6,-1 -0.7,-1.2 -0.1,-0.2 -0.3,-0.4 -0.5,-0.4 -0.2,-0.1 -0.4,-0.1 -0.6,-0.1 l -0.9,0 0,3.3 -1,0 z m 0.8,-4.2 1.7,0 c 0.4,0 0.7,0 0.9,-0.1 0.2,-0.1 0.4,-0.2 0.5,-0.4 0.1,-0.2 0.2,-0.4 0.2,-0.7 0,-0.4 -0.1,-0.7 -0.3,-0.9 -0.2,-0.2 -0.5,-0.3 -1,-0.3 l -1.9,0 0,2.4 z"
         id="path4486"
         inkscape:connector-curvature="0"
         style="fill:#ffffff" /></g><g
       class="st3"
       id="g4488"
       style="display:inline"><rect
         x="445.10001"
         y="170.3"
         class="st4"
         width="27.6"
         height="8.6000004"
         id="rect4490"
         style="fill:none" /><path
         class="st5"
         d="m 445.7,177.7 0,-7.4 1.2,0 1.4,5.3 0.3,1.1 c 0.1,-0.3 0.2,-0.7 0.3,-1.2 l 1.5,-5.2 1.1,0 0,7.4 -0.8,0 0,-6.2 -1.8,6.2 -0.7,0 -1.8,-6.3 0,6.3 -0.7,0 z"
         id="path4492"
         inkscape:connector-curvature="0"
         style="fill:#ffffff" /><path
         class="st5"
         d="m 452.6,174.1 c 0,-1.3 0.3,-2.2 0.8,-2.9 0.6,-0.7 1.3,-1 2.1,-1 0.5,0 1,0.2 1.5,0.5 0.4,0.3 0.8,0.7 1.1,1.3 0.3,0.6 0.4,1.3 0.4,2.1 0,1.1 -0.3,2 -0.8,2.7 -0.6,0.8 -1.3,1.1 -2.2,1.1 -0.9,0 -1.6,-0.4 -2.2,-1.2 -0.4,-0.7 -0.7,-1.6 -0.7,-2.6 z m 0.9,0 c 0,0.9 0.2,1.6 0.6,2.1 0.4,0.5 0.9,0.8 1.5,0.8 0.6,0 1.1,-0.3 1.5,-0.8 0.4,-0.5 0.6,-1.3 0.6,-2.3 0,-0.6 -0.1,-1.2 -0.3,-1.7 -0.2,-0.4 -0.4,-0.7 -0.7,-0.9 -0.3,-0.2 -0.7,-0.3 -1,-0.3 -0.6,0 -1.1,0.3 -1.5,0.8 -0.5,0.5 -0.7,1.3 -0.7,2.3 z"
         id="path4494"
         inkscape:connector-curvature="0"
         style="fill:#ffffff" /><path
         class="st5"
         d="m 459.5,177.7 0,-7.4 2.1,0 c 0.5,0 0.9,0 1.2,0.1 0.4,0.1 0.7,0.3 0.9,0.6 0.3,0.3 0.5,0.7 0.6,1.2 0.1,0.5 0.2,1 0.2,1.7 0,0.8 -0.1,1.6 -0.4,2.1 -0.3,0.5 -0.6,1 -1,1.2 -0.4,0.2 -0.9,0.4 -1.5,0.4 l -2.1,0 z m 0.8,-0.8 1.3,0 c 0.5,0 0.9,-0.1 1.2,-0.3 0.3,-0.2 0.5,-0.4 0.6,-0.8 0.2,-0.5 0.3,-1.1 0.3,-1.8 0,-0.8 -0.1,-1.3 -0.3,-1.8 -0.2,-0.4 -0.5,-0.7 -0.8,-0.9 -0.2,-0.1 -0.6,-0.1 -1,-0.1 l -1.3,0 0,5.7 z"
         id="path4496"
         inkscape:connector-curvature="0"
         style="fill:#ffffff" /><path
         class="st5"
         d="m 465.7,177.7 0,-7.4 4.4,0 0,0.9 -3.6,0 0,2.3 3.4,0 0,0.9 -3.4,0 0,2.5 3.7,0 0,0.9 -4.5,0 z"
         id="path4498"
         inkscape:connector-curvature="0"
         style="fill:#ffffff" /></g><g
       class="st3"
       id="g4500"
       style="display:inline"><rect
         x="509.39999"
         y="178"
         class="st4"
         width="45.599998"
         height="8.6000004"
         id="rect4502"
         style="fill:none" /><path
         class="st5"
         d="m 510,185.4 0,-7.4 2.3,0 c 0.5,0 0.9,0 1.2,0.1 0.4,0.1 0.6,0.4 0.8,0.7 0.2,0.3 0.3,0.8 0.3,1.3 0,0.7 -0.2,1.2 -0.5,1.6 -0.3,0.4 -0.9,0.6 -1.8,0.6 l -1.6,0 0,3 -0.7,0 z m 0.8,-3.9 1.6,0 c 0.5,0 0.9,-0.1 1.1,-0.3 0.2,-0.2 0.3,-0.6 0.3,-1 0,-0.3 -0.1,-0.5 -0.2,-0.8 -0.1,-0.3 -0.3,-0.4 -0.4,-0.4 -0.2,-0.1 -0.5,-0.1 -0.9,-0.1 l -1.6,0 0,2.6 z"
         id="path4504"
         inkscape:connector-curvature="0"
         style="fill:#ffffff" /><path
         class="st5"
         d="m 519.7,178 0.8,0 0,4.3 c 0,0.7 -0.1,1.3 -0.2,1.8 -0.1,0.5 -0.4,0.8 -0.8,1.1 -0.4,0.3 -0.8,0.4 -1.4,0.4 -0.8,0 -1.4,-0.2 -1.8,-0.7 -0.4,-0.5 -0.6,-1.3 -0.6,-2.5 l 0,-4.4 0.8,0 0,4.3 c 0,0.7 0.1,1.2 0.2,1.5 0.1,0.3 0.3,0.5 0.5,0.7 0.2,0.2 0.5,0.2 0.9,0.2 0.6,0 1,-0.2 1.3,-0.5 0.3,-0.3 0.4,-1 0.4,-1.9 l 0,-4.3 z"
         id="path4506"
         inkscape:connector-curvature="0"
         style="fill:#ffffff" /><path
         class="st5"
         d="m 521.8,185.4 0,-7.4 0.8,0 0,6.6 3,0 0,0.9 -3.8,0 z"
         id="path4508"
         inkscape:connector-curvature="0"
         style="fill:#ffffff" /><path
         class="st5"
         d="m 526.5,185.4 0,-7.4 0.8,0 0,6.6 3,0 0,0.9 -3.8,0 z"
         id="path4510"
         inkscape:connector-curvature="0"
         style="fill:#ffffff" /><path
         class="st5"
         d="m 533.2,181.8 c 0,-1.3 0.3,-2.2 0.8,-2.9 0.6,-0.7 1.3,-1 2.1,-1 0.5,0 1,0.2 1.5,0.5 0.4,0.3 0.8,0.7 1.1,1.3 0.3,0.6 0.4,1.3 0.4,2.1 0,1.1 -0.3,2 -0.8,2.7 -0.6,0.8 -1.3,1.1 -2.2,1.1 -0.9,0 -1.6,-0.4 -2.2,-1.2 -0.5,-0.8 -0.7,-1.6 -0.7,-2.6 z m 0.8,0 c 0,0.9 0.2,1.6 0.6,2.1 0.4,0.5 0.9,0.8 1.5,0.8 0.6,0 1.1,-0.3 1.5,-0.8 0.4,-0.5 0.6,-1.3 0.6,-2.3 0,-0.6 -0.1,-1.2 -0.3,-1.7 -0.2,-0.4 -0.4,-0.7 -0.7,-0.9 -0.3,-0.2 -0.7,-0.3 -1,-0.3 -0.6,0 -1.1,0.3 -1.5,0.8 -0.5,0.4 -0.7,1.2 -0.7,2.3 z"
         id="path4512"
         inkscape:connector-curvature="0"
         style="fill:#ffffff" /><path
         class="st5"
         d="m 540,185.4 0,-7.4 2.3,0 c 0.5,0 0.8,0.1 1.1,0.2 0.3,0.1 0.5,0.4 0.7,0.7 0.2,0.3 0.3,0.6 0.3,1 0,0.3 -0.1,0.6 -0.2,0.9 -0.1,0.3 -0.4,0.5 -0.6,0.7 0.4,0.1 0.6,0.3 0.8,0.7 0.2,0.4 0.3,0.7 0.3,1.1 0,0.5 -0.1,0.8 -0.3,1.2 -0.2,0.3 -0.4,0.6 -0.7,0.7 -0.3,0.2 -0.7,0.2 -1.3,0.2 l -2.4,0 z m 0.8,-4.3 1.3,0 c 0.3,0 0.6,0 0.7,-0.1 0.2,-0.1 0.4,-0.2 0.5,-0.4 0.1,-0.2 0.2,-0.4 0.2,-0.7 0,-0.3 -0.1,-0.5 -0.2,-0.7 -0.1,-0.2 -0.2,-0.3 -0.4,-0.4 -0.2,-0.1 -0.5,-0.1 -0.9,-0.1 l -1.2,0 0,2.4 z m 0,3.4 1.5,0 c 0.3,0 0.6,0 0.7,-0.1 0.2,-0.1 0.4,-0.2 0.5,-0.4 0.1,-0.2 0.2,-0.5 0.2,-0.8 0,-0.3 -0.1,-0.5 -0.2,-0.7 -0.1,-0.2 -0.3,-0.3 -0.5,-0.4 -0.2,-0.1 -0.5,-0.1 -0.9,-0.1 l -1.4,0 0,2.5 z"
         id="path4514"
         inkscape:connector-curvature="0"
         style="fill:#ffffff" /><path
         class="st5"
         d="m 545.4,183 0.8,-0.1 c 0,0.4 0.1,0.7 0.3,1 0.1,0.2 0.3,0.4 0.6,0.6 0.3,0.1 0.6,0.2 0.9,0.2 0.5,0 0.9,-0.1 1.1,-0.4 0.3,-0.2 0.4,-0.5 0.4,-0.9 0,-0.2 0,-0.4 -0.1,-0.6 -0.1,-0.2 -0.2,-0.3 -0.4,-0.4 -0.2,-0.1 -0.6,-0.3 -1.3,-0.4 -0.6,-0.2 -1,-0.3 -1.2,-0.5 -0.2,-0.2 -0.4,-0.4 -0.6,-0.7 -0.1,-0.3 -0.2,-0.6 -0.2,-0.9 0,-0.6 0.2,-1.1 0.6,-1.5 0.4,-0.4 0.9,-0.6 1.6,-0.6 0.5,0 0.8,0.1 1.2,0.3 0.3,0.2 0.6,0.4 0.8,0.8 0.2,0.4 0.3,0.7 0.3,1.2 l -0.8,0.1 c 0,-0.5 -0.2,-0.8 -0.4,-1.1 -0.2,-0.2 -0.6,-0.3 -1,-0.3 -0.5,0 -0.8,0.1 -1,0.3 -0.2,0.2 -0.4,0.5 -0.4,0.8 0,0.3 0.1,0.5 0.3,0.7 0.2,0.2 0.6,0.3 1.2,0.5 0.6,0.2 1,0.3 1.3,0.4 0.4,0.2 0.7,0.4 0.8,0.7 0.2,0.3 0.3,0.7 0.3,1.1 0,0.4 -0.1,0.8 -0.3,1.2 -0.2,0.3 -0.5,0.6 -0.8,0.8 -0.3,0.2 -0.8,0.3 -1.2,0.3 -0.8,0 -1.4,-0.2 -1.8,-0.7 -0.4,-0.5 -1,-1.1 -1,-1.9 z"
         id="path4516"
         inkscape:connector-curvature="0"
         style="fill:#ffffff" /></g><g
       class="st3"
       id="g4518"
       style="display:inline"><rect
         x="23.1"
         y="18.700001"
         class="st4"
         width="59.599998"
         height="7.1999998"
         id="rect4520"
         style="fill:none" /><path
         class="st5"
         d="m 23.4,25 1.3,-6.3 2.2,0 c 0.5,0 0.8,0 1,0 0.3,0 0.6,0.1 0.8,0.3 0.2,0.1 0.4,0.3 0.5,0.5 0.1,0.2 0.2,0.5 0.2,0.7 0,0.3 -0.1,0.7 -0.3,0.9 -0.2,0.3 -0.5,0.5 -0.9,0.6 0.3,0.1 0.6,0.2 0.8,0.5 0.2,0.3 0.3,0.5 0.3,0.8 0,0.4 -0.1,0.7 -0.3,1.1 -0.2,0.3 -0.5,0.6 -0.9,0.7 C 27.7,24.9 27,25 26.4,25 l -3,0 z m 1.5,-1 1.2,0 c 0.5,0 0.9,0 1.1,-0.1 0.2,-0.1 0.3,-0.2 0.4,-0.3 0.1,-0.2 0.2,-0.3 0.2,-0.5 0,-0.2 -0.1,-0.4 -0.2,-0.5 -0.2,-0.1 -0.4,-0.2 -0.8,-0.2 l -1.5,0 -0.4,1.6 z m 0.6,-2.7 1,0 c 0.4,0 0.8,0 1,-0.1 0.2,-0.1 0.3,-0.2 0.4,-0.3 0.1,-0.1 0.1,-0.3 0.1,-0.5 0,-0.2 0,-0.3 -0.1,-0.4 -0.1,-0.1 -0.2,-0.2 -0.4,-0.2 -0.1,0 -0.3,0 -0.7,0 l -1,0 -0.3,1.5 z"
         id="path4522"
         inkscape:connector-curvature="0"
         style="fill:#ffffff" /><path
         class="st5"
         d="m 29.8,25 1.3,-6.3 4.7,0 -0.2,1.1 -3.4,0 -0.3,1.4 3.3,0 -0.2,1.1 -3.3,0 -0.5,1.7 3.7,0 -0.2,1 -4.9,0 z"
         id="path4524"
         inkscape:connector-curvature="0"
         style="fill:#ffffff" /><path
         class="st5"
         d="m 40.7,25 -1.2,0 -1.7,-4.2 -0.9,4.2 -1.2,0 1.3,-6.3 1.2,0 1.7,4.2 0.9,-4.2 1.2,0 -1.3,6.3 z"
         id="path4526"
         inkscape:connector-curvature="0"
         style="fill:#ffffff" /><path
         class="st5"
         d="m 42,25 1.3,-6.3 1.7,0 c 0.5,0 0.8,0 0.9,0 0.3,0 0.5,0.1 0.7,0.2 0.2,0.1 0.4,0.2 0.6,0.3 0.2,0.1 0.3,0.3 0.4,0.5 0.1,0.2 0.2,0.4 0.3,0.7 0.1,0.3 0.1,0.6 0.1,0.9 0,0.7 -0.1,1.3 -0.4,1.8 -0.3,0.5 -0.6,0.9 -1,1.3 -0.3,0.2 -0.7,0.4 -1.2,0.5 C 45.2,25 44.8,25 44.2,25 L 42,25 Z m 1.5,-1 0.7,0 c 0.5,0 0.8,0 1,-0.1 0.2,-0.1 0.4,-0.2 0.6,-0.3 0.3,-0.2 0.5,-0.5 0.6,-0.9 0.2,-0.4 0.3,-0.8 0.3,-1.4 0,-0.4 -0.1,-0.8 -0.2,-1 -0.1,-0.2 -0.3,-0.4 -0.5,-0.4 -0.1,-0.1 -0.4,-0.1 -0.8,-0.1 l -0.8,0 -0.9,4.2 z"
         id="path4528"
         inkscape:connector-curvature="0"
         style="fill:#ffffff" /><path
         class="st5"
         d="m 48.3,25 1.3,-6.3 1.3,0 -1.3,6.3 -1.3,0 z"
         id="path4530"
         inkscape:connector-curvature="0"
         style="fill:#ffffff" /><path
         class="st5"
         d="m 51.8,25 -1.7,0 2.8,-3.2 -1.6,-3.1 1.4,0 0.6,1.2 c 0,0 0.2,0.3 0.4,0.9 0,0 0,0.1 0.1,0.1 0.3,-0.4 0.6,-0.8 0.9,-1 l 1,-1.1 1.6,0 -2.9,3.2 1.5,3 -1.5,0 -0.4,-0.9 c -0.2,-0.5 -0.4,-0.9 -0.5,-1.1 -0.1,0.2 -0.4,0.5 -0.9,1 l -0.8,1 z"
         id="path4532"
         inkscape:connector-curvature="0"
         style="fill:#ffffff" /><path
         class="st5"
         d="m 55.9,25.1 3.1,-6.5 0.9,0 -3.1,6.5 -0.9,0 z"
         id="path4534"
         inkscape:connector-curvature="0"
         style="fill:#ffffff" /><path
         class="st5"
         d="m 59.1,25 1.3,-6.3 1.3,0 -0.6,2.7 2.9,-2.7 1.7,0 -2.8,2.5 2.1,3.8 -1.5,0 -1.5,-3 -1.2,1.1 -0.4,1.9 -1.3,0 z"
         id="path4536"
         inkscape:connector-curvature="0"
         style="fill:#ffffff" /><path
         class="st5"
         d="m 65.4,25 1.3,-6.3 1.3,0 -1.3,6.3 -1.3,0 z"
         id="path4538"
         inkscape:connector-curvature="0"
         style="fill:#ffffff" /><path
         class="st5"
         d="m 72.9,25 -1.2,0 -1.7,-4.2 -0.9,4.2 -1.2,0 1.3,-6.3 1.2,0 1.7,4.2 0.9,-4.2 1.2,0 -1.3,6.3 z"
         id="path4540"
         inkscape:connector-curvature="0"
         style="fill:#ffffff" /><path
         class="st5"
         d="m 77.7,21.7 2.8,0 -0.5,2.7 c -0.3,0.2 -0.7,0.4 -1.2,0.5 -0.5,0.1 -1,0.2 -1.5,0.2 -0.8,0 -1.4,-0.2 -1.8,-0.5 -0.6,-0.5 -0.9,-1.2 -0.9,-2.1 0,-0.6 0.1,-1.2 0.4,-1.8 0.3,-0.7 0.7,-1.2 1.2,-1.6 0.5,-0.4 1.2,-0.6 1.9,-0.6 0.7,0 1.3,0.2 1.7,0.5 0.4,0.3 0.7,0.8 0.9,1.5 l -1.2,0.1 C 79.4,20.2 79.2,20 79,19.8 c -0.2,-0.2 -0.5,-0.3 -0.9,-0.3 -0.4,0 -0.8,0.1 -1.2,0.3 -0.4,0.2 -0.6,0.6 -0.8,1 -0.2,0.5 -0.3,1 -0.3,1.5 0,0.5 0.1,0.9 0.4,1.2 0.2,0.3 0.6,0.4 1.1,0.4 0.3,0 0.6,0 0.9,-0.1 0.3,-0.1 0.5,-0.2 0.8,-0.3 l 0.2,-0.9 -1.6,0 0.1,-0.9 z"
         id="path4542"
         inkscape:connector-curvature="0"
         style="fill:#ffffff" /></g></g><g
     id="Outer_Knob_R"
     class="st0"
     style="display:none"
     transform="translate(-415.3,-125.7)"><path
       class="st6"
       d="m 557.6,134.9 c 0,15.9 -12.9,28.8 -28.8,28.8 -15.9,0 -28.8,-12.9 -28.8,-28.8 0,-15.9 12.9,-28.8 28.8,-28.8 15.9,0 28.8,12.9 28.8,28.8 z"
       id="path4545"
       inkscape:connector-curvature="0"
       style="display:inline;fill:#3f403f;stroke:#000000;stroke-miterlimit:10" /><g
       class="st3"
       id="g4547"
       style="display:inline"><g
         id="g4549"><path
           class="st7"
           d="m 558.3,134.9 c 0,16.3 -13.2,29.6 -29.6,29.6 -16.3,0 -29.6,-13.2 -29.6,-29.6 0,-16.3 13.2,-29.6 29.6,-29.6 16.4,0 29.6,13.3 29.6,29.6 z"
           id="path4551"
           inkscape:connector-curvature="0"
           style="fill:none;stroke:#000000;stroke-width:1.5;stroke-miterlimit:10;stroke-dasharray:1.4991, 1.4991" /></g></g></g><g
     id="Inner_Knob_R"
     class="st0"
     style="display:none"
     transform="translate(-415.3,-125.7)"><g
       class="st3"
       id="g4554"
       style="display:inline"><path
         class="st8"
         d="m 548.1,134.9 c 0,10.7 -8.7,19.4 -19.4,19.4 -10.7,0 -19.4,-8.7 -19.4,-19.4 0,-10.7 8.7,-19.4 19.4,-19.4 10.8,0 19.4,8.7 19.4,19.4 z"
         id="path4556"
         inkscape:connector-curvature="0"
         style="fill:#3f403f;stroke:#000000;stroke-width:2;stroke-miterlimit:10" /><g
         id="g4558"><path
           class="st9"
           d="m 549.1,134.9 c 0,11.2 -9.1,20.3 -20.3,20.3 -11.2,0 -20.3,-9.1 -20.3,-20.3 0,-11.2 9.1,-20.3 20.3,-20.3 11.2,0 20.3,9.1 20.3,20.3 z"
           id="path4560"
           inkscape:connector-curvature="0"
           style="fill:none;stroke:#000000;stroke-width:1.5;stroke-miterlimit:10;stroke-dasharray:1.5946, 1.5946" /></g></g></g><g
     id="Outer_Knob_L"
     class="st0"
     style="display:none"
     transform="translate(-415.3,-125.7)"><g
       class="st3"
       id="g4563"
       style="display:inline"><g
         id="g4565"><path
           class="st7"
           d="m 287.2,135.6 c 0,16.3 -13.2,29.6 -29.6,29.6 -16.3,0 -29.6,-13.2 -29.6,-29.6 0,-16.3 13.2,-29.6 29.6,-29.6 16.3,0 29.6,13.2 29.6,29.6 z"
           id="path4567"
           inkscape:connector-curvature="0"
           style="fill:none;stroke:#000000;stroke-width:1.5;stroke-miterlimit:10;stroke-dasharray:1.4991, 1.4991" /></g></g><path
       class="st6"
       d="m 286.4,135.6 c 0,15.9 -12.9,28.8 -28.8,28.8 -15.9,0 -28.8,-12.9 -28.8,-28.8 0,-15.9 12.9,-28.8 28.8,-28.8 15.9,-0.1 28.8,12.9 28.8,28.8 z"
       id="path4569"
       inkscape:connector-curvature="0"
       style="display:inline;fill:#3f403f;stroke:#000000;stroke-miterlimit:10" /></g><g
     id="Inner_Knob_L"
     class="st0"
     style="display:none"
     transform="translate(-415.3,-125.7)"><g
       class="st3"
       id="g4572"
       style="display:inline"><path
         class="st8"
         d="m 277,135.6 c 0,10.7 -8.7,19.4 -19.4,19.4 -10.7,0 -19.4,-8.7 -19.4,-19.4 0,-10.7 8.7,-19.4 19.4,-19.4 10.7,0 19.4,8.6 19.4,19.4 z"
         id="path4574"
         inkscape:connector-curvature="0"
         style="fill:#3f403f;stroke:#000000;stroke-width:2;stroke-miterlimit:10" /><g
         id="g4576"><path
           class="st9"
           d="m 277.9,135.6 c 0,11.2 -9.1,20.3 -20.3,20.3 -11.2,0 -20.3,-9.1 -20.3,-20.3 0,-11.2 9.1,-20.3 20.3,-20.3 11.2,0 20.3,9 20.3,20.3 z"
           id="path4578"
           inkscape:connector-curvature="0"
           style="fill:none;stroke:#000000;stroke-width:1.5;stroke-miterlimit:10;stroke-dasharray:1.5946, 1.5946" /></g></g></g><g
     id="Ident_Knob_copy"
     class="st0"
     style="display:none"
     transform="translate(-415.3,-125.7)"><g
       class="st3"
       id="g4581"
       style="display:inline"><circle
         class="st10"
         cx="75.099998"
         cy="162.3"
         r="16.1"
         id="circle4583"
         style="fill:#3f403f;stroke:#000000;stroke-miterlimit:10" /><g
         id="g4585"><path
           class="st11"
           d="m 91.7,162.3 c 0,9.2 -7.4,16.6 -16.6,16.6 -9.2,0 -16.6,-7.4 -16.6,-16.6 0,-9.2 7.4,-16.6 16.6,-16.6 9.2,0 16.6,7.4 16.6,16.6 z"
           id="path4587"
           inkscape:connector-curvature="0"
           style="fill:none;stroke:#000000;stroke-width:1.5;stroke-miterlimit:10;stroke-dasharray:1.4914, 1.4914" /></g></g></g><g
     id="Ident_Knob"
     class="st0"
     style="display:none"
     transform="translate(-415.3,-125.7)"><circle
       class="st6"
       cx="370.89999"
       cy="162.3"
       r="16.1"
       id="circle4590"
       style="display:inline;fill:#3f403f;stroke:#000000;stroke-miterlimit:10" /><g
       class="st3"
       id="g4592"
       style="display:inline"><path
         class="st11"
         d="m 387.5,162.3 c 0,9.2 -7.4,16.6 -16.6,16.6 -9.2,0 -16.6,-7.4 -16.6,-16.6 0,-9.2 7.4,-16.6 16.6,-16.6 9.2,0 16.6,7.4 16.6,16.6 z"
         id="path4594"
         inkscape:connector-curvature="0"
         style="fill:none;stroke:#000000;stroke-width:1.5;stroke-miterlimit:10;stroke-dasharray:1.4914, 1.4914" /></g></g><g
     id="LCD"
     class="st0"
     style="display:none"
     transform="translate(-415.3,-125.7)"><line
       class="st12"
       x1="305.20001"
       y1="37"
       x2="305.20001"
       y2="90"
       id="line4597"
       style="display:inline;fill:none;stroke:#f7941e;stroke-width:0.5;stroke-linecap:round;stroke-miterlimit:10" /></g><g
     id="Nav_Button"
     transform="translate(-415.3,-125.7)"><g
       id="Switch_2_"><path
         class="st13"
         d="m 447.9,143 c 0,1.1 -0.9,2 -2,2 l -28.1,0 c -1.1,0 -2,-0.9 -2,-2 l 0,-14.8 c 0,-1.1 0.9,-2 2,-2 l 28.1,0 c 1.1,0 2,0.9 2,2 l 0,14.8 z"
         id="path4601"
         inkscape:connector-curvature="0"
         style="fill:#ffffff;stroke:#ffffff;stroke-miterlimit:10" /><g
         id="g4603"><g
           id="g4605"><line
             class="st14"
             x1="424"
             y1="135.60001"
             x2="439.70001"
             y2="135.60001"
             id="line4607"
             style="fill:none;stroke:#6d6e71;stroke-miterlimit:10" /><g
             id="g4609"><polygon
               class="st15"
               points="425.1,139.3 418.6,135.6 425.1,131.8 "
               id="polygon4611"
               style="fill:#6d6e71" /></g><g
             id="g4613"><polygon
               class="st15"
               points="438.6,139.3 445.1,135.6 438.6,131.8 "
               id="polygon4615"
               style="fill:#6d6e71" /></g></g></g></g></g><g
     id="Comm_Button"
     class="st0"
     style="display:none"
     transform="translate(-415.3,-125.7)"><g
       id="Switch_3_"
       class="st3"
       style="display:inline"><path
         class="st13"
         d="m 179.7,143 c 0,1.1 -0.9,2 -2,2 l -28.1,0 c -1.1,0 -2,-0.9 -2,-2 l 0,-14.8 c 0,-1.1 0.9,-2 2,-2 l 28.1,0 c 1.1,0 2,0.9 2,2 l 0,14.8 z"
         id="path4619"
         inkscape:connector-curvature="0"
         style="fill:#ffffff;stroke:#ffffff;stroke-miterlimit:10" /><g
         id="g4621"><g
           id="g4623"><line
             class="st14"
             x1="155.7"
             y1="135.60001"
             x2="171.5"
             y2="135.60001"
             id="line4625"
             style="fill:none;stroke:#6d6e71;stroke-miterlimit:10" /><g
             id="g4627"><polygon
               class="st15"
               points="156.8,139.3 150.4,135.6 156.8,131.8 "
               id="polygon4629"
               style="fill:#6d6e71" /></g><g
             id="g4631"><polygon
               class="st15"
               points="170.4,139.3 176.8,135.6 170.4,131.8 "
               id="polygon4633"
               style="fill:#6d6e71" /></g></g></g></g></g><g
     id="Text"
     class="st0"
     style="display:none"
     transform="translate(-415.3,-125.7)"><g
       class="st3"
       id="g4636"
       style="display:inline"><rect
         x="44.400002"
         y="37"
         class="st4"
         width="117.2"
         height="31.299999"
         id="rect4638"
         style="fill:none" /><path
         class="st16"
         d="m 50.7,37.2 0,1.5 -2.7,2.6 -1.5,0 0,-1.7 2.7,-2.4 1.5,0 z m 0.1,24.4 1,1 -1,1 -2.9,0 -1,-1 1,-1 2.9,0 z M 53,38 l 0,10.5 -1,1 -1,-1 0,-10.5 1,-1 1,1 z m 0,12.9 0,10.5 -1,1 -1,-1 0,-10.5 1,-1 1,1 z m 3,10.7 1,1 -1,1 -2.9,0 -1,-1 1,-1 2.9,0 z"
         id="path4640"
         inkscape:connector-curvature="0"
         style="fill:#f7941e" /><path
         class="st16"
         d="m 63.3,38 0,1.9 -1,1 -1,-1 0,-1.9 1,-1 1,1 z m 0.1,12.9 0,10.5 -1,1 -1,-1 0,-10.5 1,-1 1,1 z m 10.5,-15.1 1,1 -1,1 -10.3,0 -1,-1 1,-1 10.3,0 z m 0.1,12.8 1,1 -1,1 -10.4,0 -1,-1 1,-1 10.4,0 z m 0,13 1,1 -1,1 -10.4,0 -1,-1 1,-1 10.4,0 z m 2.2,-23.6 0,10.5 -1,1 -1,-1 0,-10.5 1,-1 1,1 z"
         id="path4642"
         inkscape:connector-curvature="0"
         style="fill:#f7941e" /><path
         class="st16"
         d="m 92,48.8 1,1 -1,1 -10.4,0 -1,-1 1,-1 10.4,0 z m 0.1,-13 1,1 -1,1 -10.4,0 -1,-1 1,-1 10.4,0 z m 0.1,25.8 1,1 -1,1 -10.4,0 -1,-1 1,-1 10.4,0 z m 2.2,-23.6 0,10.5 -1,1 -1,-1 0,-10.5 1,-1 1,1 z m 0,12.9 0,10.5 -1,1 -1,-1 0,-10.5 1,-1 1,1 z"
         id="path4644"
         inkscape:connector-curvature="0"
         style="fill:#f7941e" /><path
         class="st16"
         d="m 100.7,60.3 0,2.1 -2,0 0,-2.1 2,0 z"
         id="path4646"
         inkscape:connector-curvature="0"
         style="fill:#f7941e" /><path
         class="st16"
         d="m 106.9,38 0,10.5 -1,1 -1,-1 0,-10.5 1,-1 1,1 z m 0.1,21.5 0,1.9 -1,1 -1,-1 0,-1.9 1,-1 1,1 z m 10.5,-23.7 1,1 -1,1 -10.4,0 -1,-1 1,-1 10.4,0 z m 0.1,12.8 1,1 -1,1 -10.4,0 -1,-1 1,-1 10.4,0 z m 0,13 1,1 -1,1 -10.4,0 -1,-1 1,-1 10.4,0 z m 2.2,-10.7 0,10.5 -1,1 -1,-1 0,-10.5 1,-1 1,1 z"
         id="path4648"
         inkscape:connector-curvature="0"
         style="fill:#f7941e" /><path
         class="st16"
         d="m 126.1,38.2 0,10.5 -1,1 -1,-1 0,-10.5 1,-1 1,1 z m 0,12.9 0,10.5 -1,1 -1,-1 0,-10.5 1,-1 1,1 z m 10.6,-15.1 1,1 -1,1 -10.4,0 -1,-1 1,-1 10.4,0 z m 0.1,25.8 1,1 -1,1 -10.4,0 -1,-1 1,-1 10.4,0 z m -5.4,-11.2 0.5,1.5 -3.4,8.5 -1.3,0.7 -0.5,-1.6 3.4,-8.4 1.3,-0.7 z m 4.5,-11.8 0.5,1.5 -3.4,8.5 -1.3,0.7 -0.5,-1.6 3.4,-8.4 1.3,-0.7 z m 3.1,-0.6 0,10.5 -1,1 -1,-1 0,-10.5 1,-1 1,1 z m 0,12.9 0,10.5 -1,1 -1,-1 0,-10.5 1,-1 1,1 z"
         id="path4650"
         inkscape:connector-curvature="0"
         style="fill:#f7941e" /></g><g
       class="st3"
       id="g4652"
       style="display:inline"><rect
         x="183.39999"
         y="37"
         class="st4"
         width="117.2"
         height="31.299999"
         id="rect4654"
         style="fill:none" /><path
         class="st16"
         d="m 189.7,37.2 0,1.5 -2.7,2.6 -1.5,0 0,-1.7 2.7,-2.4 1.5,0 z m 0.1,24.4 1,1 -1,1 -2.9,0 -1,-1 1,-1 2.9,0 z M 192,38 l 0,10.5 -1,1 -1,-1 0,-10.5 1,-1 1,1 z m 0,12.9 0,10.5 -1,1 -1,-1 0,-10.5 1,-1 1,1 z m 3,10.7 1,1 -1,1 -2.9,0 -1,-1 1,-1 2.9,0 z"
         id="path4656"
         inkscape:connector-curvature="0"
         style="fill:#f7941e" /><path
         class="st16"
         d="m 204.5,37.2 0,1.5 -2.7,2.6 -1.5,0 0,-1.7 2.7,-2.4 1.5,0 z m 0,24.4 1,1 -1,1 -2.9,0 -1,-1 1,-1 2.9,0 z m 2.3,-23.6 0,10.5 -1,1 -1,-1 0,-10.5 1,-1 1,1 z m 0,12.9 0,10.5 -1,1 -1,-1 0,-10.5 1,-1 1,1 z m 3,10.7 1,1 -1,1 -2.9,0 -1,-1 1,-1 2.9,0 z"
         id="path4658"
         inkscape:connector-curvature="0"
         style="fill:#f7941e" /><path
         class="st16"
         d="m 217.1,38 0,10.5 -1,1 -1,-1 0,-10.5 1,-1 1,1 z m 0,12.9 0,10.5 -1,1 -1,-1 0,-10.5 1,-1 1,1 z m 10.6,-15.1 1,1 -1,1 -10.4,0 -1,-1 1,-1 10.4,0 z m 0.1,13 1,1 -1,1 -10.4,0 -1,-1 1,-1 10.4,0 z m 0,12.8 1,1 -1,1 -10.4,0 -1,-1 1,-1 10.4,0 z M 230,38 l 0,10.5 -1,1 -1,-1 0,-10.5 1,-1 1,1 z m 0,12.9 0,10.5 -1,1 -1,-1 0,-10.5 1,-1 1,1 z"
         id="path4660"
         inkscape:connector-curvature="0"
         style="fill:#f7941e" /><path
         class="st16"
         d="m 236.3,60.3 0,2.1 -2,0 0,-2.1 2,0 z"
         id="path4662"
         inkscape:connector-curvature="0"
         style="fill:#f7941e" /><path
         class="st16"
         d="m 252,48.8 1,1 -1,1 -10.4,0 -1,-1 1,-1 10.4,0 z m 0.1,-13 1,1 -1,1 -10.4,0 -1,-1 1,-1 10.4,0 z m 0.1,25.8 1,1 -1,1 -10.4,0 -1,-1 1,-1 10.4,0 z m 2.2,-23.6 0,10.5 -1,1 -1,-1 0,-10.5 1,-1 1,1 z m 0,12.9 0,10.5 -1,1 -1,-1 0,-10.5 1,-1 1,1 z"
         id="path4664"
         inkscape:connector-curvature="0"
         style="fill:#f7941e" /><path
         class="st16"
         d="m 260.7,38.3 0,10.5 -1,1 -1,-1 0,-10.5 1,-1 1,1 z m 0,12.8 0,10.5 -1,1 -1,-1 0,-10.5 1,-1 1,1 z m 10.6,-15.1 1,1 -1,1 -10.4,0 -1,-1 1,-1 10.4,0 z m 0.1,25.8 1,1 -1,1 -10.4,0 -1,-1 1,-1 10.4,0 z m -5.4,-11.2 0.5,1.5 -3.4,8.5 -1.3,0.7 -0.5,-1.6 3.4,-8.4 1.3,-0.7 z m 4.5,-11.8 0.5,1.5 -3.4,8.5 -1.3,0.7 -0.5,-1.6 3.4,-8.4 1.3,-0.7 z m 3.1,-0.5 0,10.5 -1,1 -1,-1 0,-10.5 1,-1 1,1 z m 0,12.8 0,10.5 -1,1 -1,-1 0,-10.5 1,-1 1,1 z"
         id="path4666"
         inkscape:connector-curvature="0"
         style="fill:#f7941e" /></g><g
       class="st3"
       id="g4668"
       style="display:inline"><rect
         x="320.39999"
         y="37"
         class="st4"
         width="117.2"
         height="31.299999"
         id="rect4670"
         style="fill:none" /><path
         class="st16"
         d="m 326.7,37.2 0,1.5 -2.7,2.6 -1.5,0 0,-1.7 2.7,-2.4 1.5,0 z m 0.1,24.4 1,1 -1,1 -2.9,0 -1,-1 1,-1 2.9,0 z M 329,38 l 0,10.5 -1,1 -1,-1 0,-10.5 1,-1 1,1 z m 0,12.9 0,10.5 -1,1 -1,-1 0,-10.5 1,-1 1,1 z m 3,10.7 1,1 -1,1 -2.9,0 -1,-1 1,-1 2.9,0 z"
         id="path4672"
         inkscape:connector-curvature="0"
         style="fill:#f7941e" /><path
         class="st16"
         d="m 341.5,37.2 0,1.5 -2.7,2.6 -1.5,0 0,-1.7 2.7,-2.4 1.5,0 z m 0,24.4 1,1 -1,1 -2.9,0 -1,-1 1,-1 2.9,0 z m 2.3,-23.6 0,10.5 -1,1 -1,-1 0,-10.5 1,-1 1,1 z m 0,12.9 0,10.5 -1,1 -1,-1 0,-10.5 1,-1 1,1 z m 3,10.7 1,1 -1,1 -2.9,0 -1,-1 1,-1 2.9,0 z"
         id="path4674"
         inkscape:connector-curvature="0"
         style="fill:#f7941e" /><path
         class="st16"
         d="m 363.5,48.8 1,1 -1,1 -10.4,0 -1,-1 1,-1 10.4,0 z m 0.2,-13 1,1 -1,1 -10.4,0 -1,-1 1,-1 10.4,0 z m 0.1,25.8 1,1 -1,1 -10.4,0 -1,-1 1,-1 10.4,0 z M 366,38 l 0,10.5 -1,1 -1,-1 0,-10.5 1,-1 1,1 z m 0,12.9 0,10.5 -1,1 -1,-1 0,-10.5 1,-1 1,1 z"
         id="path4676"
         inkscape:connector-curvature="0"
         style="fill:#f7941e" /><path
         class="st16"
         d="m 372.3,60.3 0,2.1 -2,0 0,-2.1 2,0 z"
         id="path4678"
         inkscape:connector-curvature="0"
         style="fill:#f7941e" /><path
         class="st16"
         d="m 378.5,38.2 0,10.5 -1,1 -1,-1 0,-10.5 1,-1 1,1 z m 0,12.9 0,10.5 -1,1 -1,-1 0,-10.5 1,-1 1,1 z m 10.6,-15.1 1,1 -1,1 -10.4,0 -1,-1 1,-1 10.4,0 z m 0.1,25.8 1,1 -1,1 -10.4,0 -1,-1 1,-1 10.4,0 z m -5.4,-11.2 0.5,1.5 -3.4,8.5 -1.3,0.7 -0.5,-1.6 3.4,-8.4 1.3,-0.7 z m 4.5,-11.8 0.5,1.5 -3.4,8.5 -1.3,0.7 -0.5,-1.6 3.4,-8.4 1.3,-0.7 z m 3.1,-0.6 0,10.5 -1,1 -1,-1 0,-10.5 1,-1 1,1 z m 0,12.9 0,10.5 -1,1 -1,-1 0,-10.5 1,-1 1,1 z"
         id="path4680"
         inkscape:connector-curvature="0"
         style="fill:#f7941e" /><path
         class="st16"
         d="m 397.7,38.2 0,10.5 -1,1 -1,-1 0,-10.5 1,-1 1,1 z m 0,12.9 0,10.5 -1,1 -1,-1 0,-10.5 1,-1 1,1 z m 10.6,-15.1 1,1 -1,1 -10.4,0 -1,-1 1,-1 10.4,0 z m 0,25.8 1,1 -1,1 -10.3,0 -1,-1 1,-1 10.3,0 z m -5.3,-11.2 0.5,1.5 -3.4,8.5 -1.3,0.7 -0.5,-1.6 3.4,-8.4 1.3,-0.7 z m 4.5,-11.8 0.5,1.5 -3.4,8.5 -1.3,0.7 -0.5,-1.6 3.4,-8.4 1.3,-0.7 z m 3.1,-0.6 0,10.5 -1,1 -1,-1 0,-10.5 1,-1 1,1 z m 0,12.9 0,10.5 -1,1 -1,-1 0,-10.5 1,-1 1,1 z"
         id="path4682"
         inkscape:connector-curvature="0"
         style="fill:#f7941e" /></g><g
       class="st3"
       id="g4684"
       style="display:inline"><rect
         x="437.70001"
         y="37"
         class="st4"
         width="117.2"
         height="31.299999"
         id="rect4686"
         style="fill:none" /><path
         class="st16"
         d="m 443.9,37.2 0,1.5 -2.7,2.6 -1.5,0 0,-1.7 2.7,-2.4 1.5,0 z m 0.1,24.4 1,1 -1,1 -2.9,0 -1,-1 1,-1 2.9,0 z m 2.2,-23.6 0,10.5 -1,1 -1,-1 0,-10.5 1,-1 1,1 z m 0,12.9 0,10.5 -1,1 -1,-1 0,-10.5 1,-1 1,1 z m 3.1,10.7 1,1 -1,1 -2.9,0 -1,-1 1,-1 2.9,0 z"
         id="path4688"
         inkscape:connector-curvature="0"
         style="fill:#f7941e" /><path
         class="st16"
         d="m 458.7,37.2 0,1.5 -2.7,2.6 -1.5,0 0,-1.7 2.7,-2.4 1.5,0 z m 0.1,24.4 1,1 -1,1 -2.9,0 -1,-1 1,-1 2.9,0 z M 461,38 l 0,10.5 -1,1 -1,-1 0,-10.5 1,-1 1,1 z m 0,12.9 0,10.5 -1,1 -1,-1 0,-10.5 1,-1 1,1 z m 3,10.7 1,1 -1,1 -2.9,0 -1,-1 1,-1 2.9,0 z"
         id="path4690"
         inkscape:connector-curvature="0"
         style="fill:#f7941e" /><path
         class="st16"
         d="m 480.8,35.8 1,1 -1,1 -10.4,0 -1,-1 1,-1 10.4,0 z m 2.3,2.2 0,10.5 -1,1 -1,-1 0,-10.5 1,-1 1,1 z m 0,12.9 0,10.5 -1,1 -1,-1 0,-10.5 1,-1 1,1 z"
         id="path4692"
         inkscape:connector-curvature="0"
         style="fill:#f7941e" /><path
         class="st16"
         d="m 489.3,60.3 0,2.1 -2,0 0,-2.1 2,0 z"
         id="path4694"
         inkscape:connector-curvature="0"
         style="fill:#f7941e" /><path
         class="st16"
         d="m 495.6,38 0,10.5 -1,1 -1,-1 0,-10.5 1,-1 1,1 z m 0,12.9 0,10.5 -1,1 -1,-1 0,-10.5 1,-1 1,1 z m 10.6,-15.1 1,1 -1,1 -10.4,0 -1,-1 1,-1 10.4,0 z m 0.1,13 1,1 -1,1 -10.4,0 -1,-1 1,-1 10.4,0 z m 0,12.8 1,1 -1,1 -10.4,0 -1,-1 1,-1 10.4,0 z m 2.2,-23.6 0,10.5 -1,1 -1,-1 0,-10.5 1,-1 1,1 z m 0,12.9 0,10.5 -1,1 -1,-1 0,-10.5 1,-1 1,1 z"
         id="path4696"
         inkscape:connector-curvature="0"
         style="fill:#f7941e" /><path
         class="st16"
         d="m 514.8,38.3 0,10.5 -1,1 -1,-1 0,-10.5 1,-1 1,1 z m 0,12.8 0,10.5 -1,1 -1,-1 0,-10.5 1,-1 1,1 z m 10.6,-15.1 1,1 -1,1 -10.4,0 -1,-1 1,-1 10.4,0 z m 0,25.8 1,1 -1,1 -10.4,0 -1,-1 1,-1 10.4,0 z m -5.3,-11.2 0.5,1.5 -3.4,8.5 -1.3,0.7 -0.5,-1.6 3.4,-8.4 1.3,-0.7 z m 4.5,-11.8 0.5,1.5 -3.4,8.5 -1.3,0.7 -0.5,-1.6 3.4,-8.4 1.3,-0.7 z m 3,-0.5 0,10.5 -1,1 -1,-1 0,-10.5 1,-1 1,1 z m 0,12.8 0,10.5 -1,1 -1,-1 0,-10.5 1,-1 1,1 z"
         id="path4698"
         inkscape:connector-curvature="0"
         style="fill:#f7941e" /></g></g></svg>