<?xml version="1.0" encoding="utf-8"?>
<!-- Generator: Adobe Illustrator 19.0.0, SVG Export Plug-In . SVG Version: 6.00 Build 0)  -->
<svg version="1.1" id="Layer_1" xmlns="http://www.w3.org/2000/svg" xmlns:xlink="http://www.w3.org/1999/xlink" x="0px" y="0px"
	 viewBox="0 0 207 69.7" style="enable-background:new 0 0 207 69.7;" xml:space="preserve">
<style type="text/css">
	.st0{fill:#1C1C1C;}
	.st1{fill:#1C1C1C;stroke:#FFFFFF;stroke-miterlimit:10;}
	.st2{fill:#EAEAEA;stroke:#C4C4C4;stroke-miterlimit:10;}
	.st3{fill:none;}
	.st4{fill:#404040;}
	.st5{fill:#FCF496;}
	.st6{fill:#7B7B7B;}
</style>
<path id="XMLID_871_" class="st0" d="M195,69.7H12c-6.6,0-12-5.4-12-12V12C0,5.4,5.4,0,12,0h183c6.6,0,12,5.4,12,12v45.7
	C207,64.3,201.6,69.7,195,69.7z"/>
<path id="XMLID_870_" class="st1" d="M91,64.5H18.7c-3.9,0-7-3.2-7-7V27.7c0-3.9,3.2-7,7-7H91c3.8,0,7,3.1,7,7v29.8
	C98,61.3,94.9,64.5,91,64.5z"/>
<path id="XMLID_869_" class="st1" d="M188.3,64.5H116c-3.8,0-7-3.2-7-7V27.7c0-3.9,3.2-7,7-7h72.3c3.9,0,7,3.1,7,7v29.8
	C195.3,61.3,192.1,64.5,188.3,64.5z"/>
<path id="XMLID_868_" class="st2" d="M82.1,58.9H69.4c-5.5,0-10-4.5-10-10V36.2c0-5.5,4.5-10,10-10h12.7c5.5,0,10,4.5,10,10v12.7
	C92.1,54.4,87.6,58.9,82.1,58.9z"/>
<path id="XMLID_867_" class="st2" d="M136.6,58.9H124c-5.5,0-10-4.5-10-10V36.2c0-5.5,4.5-10,10-10h12.7c5.5,0,10,4.5,10,10v12.7
	C146.6,54.4,142.1,58.9,136.6,58.9z"/>
<g id="XMLID_535_">
	<rect id="XMLID_66_" x="60.7" y="32.6" class="st3" width="29.5" height="24"/>
	<path id="XMLID_23_" class="st4" d="M66.3,39.7v-7.2h1l3.8,5.6v-5.6h0.9v7.2h-1l-3.8-5.6v5.6H66.3z"/>
	<path id="XMLID_54_" class="st4" d="M72.7,39.7l2.7-7.2h1l2.9,7.2h-1.1l-0.8-2.2h-3l-0.8,2.2H72.7z M74.8,36.8h2.4l-0.7-2
		c-0.2-0.6-0.4-1.1-0.5-1.5c-0.1,0.5-0.2,0.9-0.4,1.4L74.8,36.8z"/>
	<path id="XMLID_57_" class="st4" d="M81.5,39.7l-2.8-7.2h1l1.9,5.2c0.1,0.4,0.3,0.8,0.4,1.2c0.1-0.4,0.2-0.8,0.4-1.2l1.9-5.2h1
		l-2.8,7.2H81.5z"/>
	<path id="XMLID_59_" class="st4" d="M69,48.9v-0.8l3,0v2.7c-0.5,0.4-0.9,0.7-1.4,0.8c-0.5,0.2-1,0.3-1.5,0.3
		c-0.7,0-1.3-0.2-1.9-0.5c-0.6-0.3-1-0.7-1.3-1.3c-0.3-0.6-0.4-1.2-0.4-1.9c0-0.7,0.1-1.3,0.4-2c0.3-0.6,0.7-1.1,1.3-1.3
		s1.2-0.4,1.9-0.4c0.5,0,1,0.1,1.4,0.3c0.4,0.2,0.7,0.4,1,0.7c0.2,0.3,0.4,0.7,0.5,1.2l-0.9,0.2c-0.1-0.4-0.2-0.7-0.4-0.9
		c-0.2-0.2-0.4-0.4-0.7-0.5c-0.3-0.1-0.6-0.2-1-0.2c-0.4,0-0.8,0.1-1.1,0.2s-0.6,0.3-0.8,0.5c-0.2,0.2-0.3,0.5-0.5,0.7
		c-0.2,0.4-0.3,0.9-0.3,1.4c0,0.6,0.1,1.2,0.3,1.6c0.2,0.4,0.5,0.7,1,1c0.4,0.2,0.9,0.3,1.3,0.3c0.4,0,0.8-0.1,1.2-0.2
		c0.4-0.2,0.7-0.3,0.9-0.5v-1.3H69z"/>
	<path id="XMLID_61_" class="st4" d="M73.4,51.7v-7.2h2.7c0.5,0,0.8,0,1.1,0.1c0.4,0.1,0.6,0.2,0.9,0.3c0.2,0.2,0.4,0.4,0.6,0.7
		c0.1,0.3,0.2,0.6,0.2,1c0,0.6-0.2,1.1-0.6,1.5c-0.4,0.4-1.1,0.6-2.1,0.6h-1.8v2.9H73.4z M74.4,48h1.9c0.6,0,1-0.1,1.3-0.3
		c0.3-0.2,0.4-0.5,0.4-1c0-0.3-0.1-0.6-0.2-0.8c-0.2-0.2-0.4-0.4-0.6-0.4c-0.2,0-0.5-0.1-0.9-0.1h-1.8V48z"/>
	<path id="XMLID_64_" class="st4" d="M79.8,49.4l0.9-0.1c0,0.4,0.1,0.7,0.3,0.9c0.2,0.2,0.4,0.4,0.7,0.6s0.7,0.2,1.1,0.2
		c0.4,0,0.7-0.1,1-0.2s0.5-0.3,0.6-0.4c0.1-0.2,0.2-0.4,0.2-0.6c0-0.2-0.1-0.4-0.2-0.6c-0.1-0.2-0.3-0.3-0.6-0.4
		c-0.2-0.1-0.6-0.2-1.3-0.3c-0.7-0.2-1.1-0.3-1.4-0.4c-0.3-0.2-0.6-0.4-0.8-0.7C80.1,47,80,46.7,80,46.4c0-0.4,0.1-0.7,0.3-1
		c0.2-0.3,0.5-0.6,0.9-0.7c0.4-0.2,0.8-0.2,1.3-0.2c0.5,0,1,0.1,1.4,0.3c0.4,0.2,0.7,0.4,0.9,0.8s0.3,0.7,0.4,1.1l-0.9,0.1
		c0-0.5-0.2-0.8-0.5-1c-0.3-0.2-0.7-0.3-1.2-0.3c-0.6,0-1,0.1-1.3,0.3c-0.3,0.2-0.4,0.5-0.4,0.8c0,0.3,0.1,0.5,0.3,0.6
		c0.2,0.2,0.7,0.3,1.4,0.5c0.8,0.2,1.3,0.3,1.6,0.5c0.4,0.2,0.7,0.4,0.9,0.7c0.2,0.3,0.3,0.6,0.3,1c0,0.4-0.1,0.7-0.3,1.1
		s-0.5,0.6-0.9,0.8c-0.4,0.2-0.9,0.3-1.4,0.3c-0.6,0-1.2-0.1-1.6-0.3c-0.4-0.2-0.8-0.5-1-0.9C79.9,50.3,79.8,49.9,79.8,49.4z"/>
</g>
<g id="XMLID_641_">
	<rect id="XMLID_52_" x="115.6" y="33.3" class="st3" width="29.5" height="24.5"/>
	<path id="XMLID_19_" class="st4" d="M123.9,37.7v-0.8l3,0v2.7c-0.5,0.4-0.9,0.7-1.4,0.8c-0.5,0.2-1,0.3-1.5,0.3
		c-0.7,0-1.3-0.2-1.9-0.5c-0.6-0.3-1-0.7-1.3-1.3c-0.3-0.6-0.4-1.2-0.4-1.9c0-0.7,0.1-1.3,0.4-2c0.3-0.6,0.7-1.1,1.3-1.3
		s1.2-0.4,1.9-0.4c0.5,0,1,0.1,1.4,0.3c0.4,0.2,0.7,0.4,1,0.7s0.4,0.7,0.5,1.2l-0.9,0.2c-0.1-0.4-0.2-0.7-0.4-0.9s-0.4-0.4-0.7-0.5
		s-0.6-0.2-1-0.2c-0.4,0-0.8,0.1-1.1,0.2s-0.6,0.3-0.8,0.5c-0.2,0.2-0.3,0.5-0.5,0.7c-0.2,0.4-0.3,0.9-0.3,1.4
		c0,0.6,0.1,1.2,0.3,1.6c0.2,0.4,0.5,0.7,1,1c0.4,0.2,0.9,0.3,1.3,0.3c0.4,0,0.8-0.1,1.2-0.2c0.4-0.2,0.7-0.3,0.9-0.5v-1.3H123.9z"
		/>
	<path id="XMLID_38_" class="st4" d="M128.3,40.5v-7.2h2.7c0.5,0,0.8,0,1.1,0.1c0.4,0.1,0.6,0.2,0.9,0.3s0.4,0.4,0.6,0.7
		c0.1,0.3,0.2,0.6,0.2,1c0,0.6-0.2,1.1-0.6,1.5c-0.4,0.4-1.1,0.6-2.1,0.6h-1.8v2.9H128.3z M129.2,36.7h1.9c0.6,0,1-0.1,1.3-0.3
		c0.3-0.2,0.4-0.5,0.4-1c0-0.3-0.1-0.6-0.2-0.8c-0.2-0.2-0.4-0.4-0.6-0.4c-0.2,0-0.5-0.1-0.9-0.1h-1.8V36.7z"/>
	<path id="XMLID_41_" class="st4" d="M134.6,38.2l0.9-0.1c0,0.4,0.1,0.7,0.3,0.9c0.2,0.2,0.4,0.4,0.7,0.6s0.7,0.2,1.1,0.2
		c0.4,0,0.7-0.1,1-0.2s0.5-0.3,0.6-0.4c0.1-0.2,0.2-0.4,0.2-0.6c0-0.2-0.1-0.4-0.2-0.6c-0.1-0.2-0.3-0.3-0.6-0.4
		c-0.2-0.1-0.6-0.2-1.3-0.3c-0.7-0.2-1.1-0.3-1.4-0.4c-0.3-0.2-0.6-0.4-0.8-0.7c-0.2-0.3-0.3-0.6-0.3-0.9c0-0.4,0.1-0.7,0.3-1
		s0.5-0.6,0.9-0.7s0.8-0.2,1.3-0.2c0.5,0,1,0.1,1.4,0.3c0.4,0.2,0.7,0.4,0.9,0.8s0.3,0.7,0.4,1.1l-0.9,0.1c0-0.5-0.2-0.8-0.5-1
		c-0.3-0.2-0.7-0.3-1.2-0.3c-0.6,0-1,0.1-1.3,0.3c-0.3,0.2-0.4,0.5-0.4,0.8c0,0.3,0.1,0.5,0.3,0.6c0.2,0.2,0.7,0.3,1.4,0.5
		c0.8,0.2,1.3,0.3,1.6,0.5c0.4,0.2,0.7,0.4,0.9,0.7c0.2,0.3,0.3,0.6,0.3,1c0,0.4-0.1,0.7-0.3,1.1s-0.5,0.6-0.9,0.8
		c-0.4,0.2-0.9,0.3-1.4,0.3c-0.6,0-1.2-0.1-1.6-0.3c-0.4-0.2-0.8-0.5-1-0.9C134.8,39.1,134.7,38.7,134.6,38.2z"/>
	<path id="XMLID_43_" class="st4" d="M120,52.5l2.7-7.2h1l2.9,7.2h-1.1l-0.8-2.2h-3l-0.8,2.2H120z M122.1,49.5h2.4l-0.7-2
		c-0.2-0.6-0.4-1.1-0.5-1.5c-0.1,0.5-0.2,0.9-0.4,1.4L122.1,49.5z"/>
	<path id="XMLID_46_" class="st4" d="M127.5,52.5v-7.2h2.7c0.5,0,0.8,0,1.1,0.1c0.4,0.1,0.6,0.2,0.9,0.3c0.2,0.2,0.4,0.4,0.6,0.7
		c0.1,0.3,0.2,0.6,0.2,1c0,0.6-0.2,1.1-0.6,1.5c-0.4,0.4-1.1,0.6-2.1,0.6h-1.8v2.9H127.5z M128.4,48.7h1.9c0.6,0,1-0.1,1.3-0.3
		c0.3-0.2,0.4-0.5,0.4-1c0-0.3-0.1-0.6-0.2-0.8c-0.2-0.2-0.4-0.4-0.6-0.4c-0.2,0-0.5-0.1-0.9-0.1h-1.8V48.7z"/>
	<path id="XMLID_49_" class="st4" d="M134.1,52.5v-7.2h3.2c0.6,0,1.1,0.1,1.5,0.2c0.3,0.1,0.6,0.4,0.8,0.7c0.2,0.3,0.3,0.7,0.3,1.1
		c0,0.5-0.2,0.9-0.5,1.3c-0.3,0.3-0.8,0.6-1.5,0.7c0.3,0.1,0.4,0.2,0.6,0.4c0.3,0.3,0.5,0.6,0.8,1l1.2,1.9h-1.2l-0.9-1.5
		c-0.3-0.4-0.5-0.8-0.7-1c-0.2-0.2-0.3-0.4-0.5-0.5c-0.1-0.1-0.3-0.2-0.4-0.2c-0.1,0-0.3,0-0.5,0h-1.1v3.2H134.1z M135.1,48.5h2
		c0.4,0,0.8,0,1-0.1c0.2-0.1,0.4-0.2,0.6-0.4c0.1-0.2,0.2-0.4,0.2-0.6c0-0.3-0.1-0.6-0.4-0.8c-0.2-0.2-0.6-0.3-1.2-0.3h-2.3V48.5z"
		/>
</g>
<g id="XMLID_807_">
	<rect id="XMLID_36_" x="18.6" y="28" class="st3" width="33.4" height="29.2"/>
	<path id="XMLID_15_" class="st5" d="M19.6,38V28H21l5.3,7.9V28h1.3v10h-1.4l-5.3-7.9V38H19.6z"/>
	<path id="XMLID_22_" class="st5" d="M28.7,38l3.8-10h1.4L38,38h-1.5l-1.2-3h-4.2l-1.1,3H28.7z M31.6,33.9H35l-1-2.8
		c-0.3-0.8-0.6-1.5-0.7-2.1c-0.1,0.6-0.3,1.3-0.5,1.9L31.6,33.9z"/>
	<path id="XMLID_27_" class="st5" d="M40.9,38L37,28h1.4l2.6,7.3c0.2,0.6,0.4,1.1,0.5,1.6c0.2-0.5,0.3-1.1,0.5-1.6l2.7-7.3h1.4
		l-3.9,10H40.9z"/>
	<path id="XMLID_29_" class="st6" d="M24.3,50.9v-1.2l4.2,0v3.7c-0.7,0.5-1.3,0.9-2,1.2c-0.7,0.3-1.4,0.4-2.1,0.4
		c-1,0-1.9-0.2-2.7-0.6c-0.8-0.4-1.4-1-1.8-1.8c-0.4-0.8-0.6-1.7-0.6-2.7c0-1,0.2-1.9,0.6-2.7c0.4-0.8,1-1.5,1.8-1.9
		s1.6-0.6,2.6-0.6c0.7,0,1.4,0.1,2,0.4c0.6,0.2,1,0.6,1.4,1c0.3,0.4,0.6,1,0.8,1.6l-1.2,0.3c-0.2-0.5-0.3-0.9-0.6-1.2
		c-0.2-0.3-0.5-0.5-1-0.7c-0.4-0.2-0.9-0.3-1.4-0.3c-0.6,0-1.1,0.1-1.6,0.3s-0.8,0.4-1.1,0.7c-0.3,0.3-0.5,0.6-0.6,1
		c-0.3,0.6-0.4,1.3-0.4,2c0,0.9,0.2,1.6,0.5,2.2c0.3,0.6,0.8,1,1.3,1.3c0.6,0.3,1.2,0.4,1.9,0.4c0.6,0,1.1-0.1,1.7-0.3
		c0.5-0.2,1-0.5,1.2-0.7v-1.9H24.3z"/>
	<path id="XMLID_31_" class="st6" d="M30.5,54.8v-10h3.8c0.7,0,1.2,0,1.5,0.1c0.5,0.1,0.9,0.2,1.2,0.5c0.3,0.2,0.6,0.6,0.8,1
		c0.2,0.4,0.3,0.9,0.3,1.4c0,0.9-0.3,1.6-0.8,2.2c-0.5,0.6-1.5,0.9-2.9,0.9h-2.6v4.1H30.5z M31.9,49.6h2.6c0.9,0,1.5-0.2,1.8-0.5
		c0.4-0.3,0.5-0.8,0.5-1.3c0-0.4-0.1-0.8-0.3-1.1c-0.2-0.3-0.5-0.5-0.8-0.6C35.4,46,35,46,34.4,46h-2.6V49.6z"/>
	<path id="XMLID_34_" class="st6" d="M39.4,51.6l1.3-0.1c0.1,0.5,0.2,0.9,0.4,1.2c0.2,0.3,0.6,0.6,1,0.8s1,0.3,1.5,0.3
		c0.5,0,1-0.1,1.3-0.2s0.7-0.4,0.9-0.6c0.2-0.3,0.3-0.5,0.3-0.9c0-0.3-0.1-0.6-0.3-0.8c-0.2-0.2-0.5-0.4-0.9-0.6
		c-0.3-0.1-0.9-0.3-1.8-0.5c-0.9-0.2-1.6-0.4-1.9-0.6c-0.5-0.3-0.8-0.6-1.1-0.9c-0.2-0.4-0.4-0.8-0.4-1.2c0-0.5,0.1-1,0.4-1.4
		c0.3-0.4,0.7-0.8,1.3-1c0.6-0.2,1.2-0.3,1.8-0.3c0.7,0,1.4,0.1,2,0.4c0.6,0.2,1,0.6,1.3,1.1s0.5,1,0.5,1.6l-1.3,0.1
		c-0.1-0.6-0.3-1.1-0.7-1.4c-0.4-0.3-1-0.5-1.7-0.5c-0.8,0-1.4,0.1-1.8,0.4c-0.4,0.3-0.5,0.6-0.5,1.1c0,0.4,0.1,0.7,0.4,0.9
		c0.3,0.2,0.9,0.5,2,0.7c1.1,0.2,1.8,0.5,2.2,0.6c0.6,0.3,1,0.6,1.3,1c0.3,0.4,0.4,0.9,0.4,1.4c0,0.5-0.2,1-0.5,1.5
		s-0.7,0.8-1.3,1.1c-0.6,0.3-1.2,0.4-1.9,0.4c-0.9,0-1.7-0.1-2.3-0.4c-0.6-0.3-1.1-0.7-1.4-1.2C39.6,52.9,39.4,52.3,39.4,51.6z"/>
</g>
<g id="XMLID_811_">
	<rect id="XMLID_20_" x="155.6" y="28" class="st3" width="33.4" height="29.2"/>
	<path id="XMLID_2_" class="st5" d="M161.4,34.1v-1.2l4.2,0v3.7c-0.7,0.5-1.3,0.9-2,1.2c-0.7,0.3-1.4,0.4-2.1,0.4
		c-1,0-1.9-0.2-2.7-0.6c-0.8-0.4-1.4-1-1.8-1.8c-0.4-0.8-0.6-1.7-0.6-2.7c0-1,0.2-1.9,0.6-2.7c0.4-0.8,1-1.5,1.8-1.9
		s1.6-0.6,2.6-0.6c0.7,0,1.4,0.1,2,0.4c0.6,0.2,1,0.6,1.4,1s0.6,1,0.8,1.6l-1.2,0.3c-0.2-0.5-0.3-0.9-0.6-1.2s-0.5-0.5-1-0.7
		s-0.9-0.3-1.4-0.3c-0.6,0-1.1,0.1-1.6,0.3s-0.8,0.4-1.1,0.7c-0.3,0.3-0.5,0.6-0.6,1c-0.3,0.6-0.4,1.3-0.4,2c0,0.9,0.2,1.6,0.5,2.2
		c0.3,0.6,0.8,1,1.3,1.3c0.6,0.3,1.2,0.4,1.9,0.4c0.6,0,1.1-0.1,1.7-0.3c0.5-0.2,1-0.5,1.2-0.7v-1.9H161.4z"/>
	<path id="XMLID_4_" class="st5" d="M167.6,38V28h3.8c0.7,0,1.2,0,1.5,0.1c0.5,0.1,0.9,0.2,1.2,0.5s0.6,0.6,0.8,1
		c0.2,0.4,0.3,0.9,0.3,1.4c0,0.9-0.3,1.6-0.8,2.2s-1.5,0.9-2.9,0.9h-2.6V38H167.6z M168.9,32.8h2.6c0.9,0,1.5-0.2,1.8-0.5
		c0.4-0.3,0.5-0.8,0.5-1.3c0-0.4-0.1-0.8-0.3-1.1c-0.2-0.3-0.5-0.5-0.8-0.6c-0.2-0.1-0.6-0.1-1.2-0.1h-2.6V32.8z"/>
	<path id="XMLID_7_" class="st5" d="M176.5,34.8l1.3-0.1c0.1,0.5,0.2,0.9,0.4,1.2c0.2,0.3,0.6,0.6,1,0.8s1,0.3,1.5,0.3
		c0.5,0,1-0.1,1.3-0.2s0.7-0.4,0.9-0.6c0.2-0.3,0.3-0.5,0.3-0.9c0-0.3-0.1-0.6-0.3-0.8s-0.5-0.4-0.9-0.6c-0.3-0.1-0.9-0.3-1.8-0.5
		s-1.6-0.4-1.9-0.6c-0.5-0.3-0.8-0.6-1.1-0.9c-0.2-0.4-0.4-0.8-0.4-1.2c0-0.5,0.1-1,0.4-1.4s0.7-0.8,1.3-1s1.2-0.3,1.8-0.3
		c0.7,0,1.4,0.1,2,0.4c0.6,0.2,1,0.6,1.3,1.1s0.5,1,0.5,1.6l-1.3,0.1c-0.1-0.6-0.3-1.1-0.7-1.4c-0.4-0.3-1-0.5-1.7-0.5
		c-0.8,0-1.4,0.1-1.8,0.4c-0.4,0.3-0.5,0.6-0.5,1.1c0,0.4,0.1,0.7,0.4,0.9c0.3,0.2,0.9,0.5,2,0.7c1.1,0.2,1.8,0.5,2.2,0.6
		c0.6,0.3,1,0.6,1.3,1s0.4,0.9,0.4,1.4c0,0.5-0.2,1-0.5,1.5s-0.7,0.8-1.3,1.1c-0.6,0.3-1.2,0.4-1.9,0.4c-0.9,0-1.7-0.1-2.3-0.4
		c-0.6-0.3-1.1-0.7-1.4-1.2C176.7,36.1,176.5,35.5,176.5,34.8z"/>
	<path id="XMLID_9_" class="st6" d="M155.6,54.8l3.8-10h1.4l4.1,10h-1.5l-1.2-3h-4.2l-1.1,3H155.6z M158.5,50.7h3.4l-1-2.8
		c-0.3-0.8-0.6-1.5-0.7-2.1c-0.1,0.6-0.3,1.3-0.5,1.9L158.5,50.7z"/>
	<path id="XMLID_12_" class="st6" d="M166.1,54.8v-10h3.8c0.7,0,1.2,0,1.5,0.1c0.5,0.1,0.9,0.2,1.2,0.5c0.3,0.2,0.6,0.6,0.8,1
		c0.2,0.4,0.3,0.9,0.3,1.4c0,0.9-0.3,1.6-0.8,2.2c-0.5,0.6-1.5,0.9-2.9,0.9h-2.6v4.1H166.1z M167.4,49.6h2.6c0.9,0,1.5-0.2,1.8-0.5
		c0.4-0.3,0.5-0.8,0.5-1.3c0-0.4-0.1-0.8-0.3-1.1c-0.2-0.3-0.5-0.5-0.8-0.6c-0.2-0.1-0.6-0.1-1.2-0.1h-2.6V49.6z"/>
	<path id="XMLID_16_" class="st6" d="M175.4,54.8v-10h4.4c0.9,0,1.6,0.1,2,0.3c0.5,0.2,0.8,0.5,1.1,1c0.3,0.5,0.4,1,0.4,1.5
		c0,0.7-0.2,1.3-0.7,1.8c-0.5,0.5-1.2,0.8-2.1,0.9c0.4,0.2,0.6,0.3,0.8,0.5c0.4,0.4,0.8,0.8,1.1,1.3l1.7,2.7h-1.7l-1.3-2.1
		c-0.4-0.6-0.7-1.1-1-1.4c-0.3-0.3-0.5-0.5-0.7-0.7c-0.2-0.1-0.4-0.2-0.6-0.3c-0.2,0-0.4,0-0.7,0h-1.5v4.5H175.4z M176.7,49.2h2.9
		c0.6,0,1.1-0.1,1.4-0.2c0.3-0.1,0.6-0.3,0.8-0.6c0.2-0.3,0.3-0.6,0.3-0.9c0-0.5-0.2-0.9-0.5-1.2c-0.3-0.3-0.9-0.5-1.6-0.5h-3.2
		V49.2z"/>
</g>
<g id="XMLID_1_">
</g>
<g id="XMLID_25_">
</g>
<g id="XMLID_67_">
</g>
<g id="XMLID_68_">
</g>
<g id="XMLID_69_">
</g>
<g id="XMLID_70_">
</g>
</svg>
