<?xml version="1.0" encoding="UTF-8" standalone="no"?>
<svg
   xmlns:dc="http://purl.org/dc/elements/1.1/"
   xmlns:cc="http://creativecommons.org/ns#"
   xmlns:rdf="http://www.w3.org/1999/02/22-rdf-syntax-ns#"
   xmlns:svg="http://www.w3.org/2000/svg"
   xmlns="http://www.w3.org/2000/svg"
   viewBox="0 0 279.965 436.995"
   height="436.995"
   width="279.965"
   xml:space="preserve"
   version="1.1"
   id="svg2"><metadata
     id="metadata8"><rdf:RDF><cc:Work
         rdf:about=""><dc:format>image/svg+xml</dc:format><dc:type
           rdf:resource="http://purl.org/dc/dcmitype/StillImage" /><dc:title></dc:title></cc:Work></rdf:RDF></metadata><defs
     id="defs6"><clipPath
       id="clipPath20"
       clipPathUnits="userSpaceOnUse"><path
         id="path22"
         d="m 0,349.596 223.972,0 L 223.972,0 0,0 0,349.596 Z" /></clipPath><clipPath
       id="clipPath44"
       clipPathUnits="userSpaceOnUse"><path
         id="path46"
         d="m 0,349.596 223.972,0 L 223.972,0 0,0 0,349.596 Z" /></clipPath></defs><g
     transform="matrix(1.25,0,0,-1.25,0,436.995)"
     id="g10"><g
       transform="translate(181.0502,188.0285)"
       id="g12"><path
         id="path14"
         style="fill:#d1d3d4;fill-opacity:1;fill-rule:nonzero;stroke:none"
         d="m 0,0 -77.145,-35.209 -69.064,49.204 8.08,84.414 77.144,35.209 L 8.08,84.414 0,0 Z" /></g><g
       id="g16"><g
         clip-path="url(#clipPath20)"
         id="g18"><g
           transform="translate(184.1817,237.2329)"
           id="g24"><path
             id="path26"
             style="fill:#d1d3d4;fill-opacity:1;fill-rule:nonzero;stroke:none"
             d="m 0,0 c 0,-39.873 -32.324,-72.196 -72.196,-72.196 -39.873,0 -72.197,32.323 -72.197,72.196 0,39.873 32.324,72.196 72.197,72.196 C -32.324,72.196 0,39.873 0,0" /></g><g
           transform="translate(184.1817,237.2329)"
           id="g28"><path
             id="path30"
             style="fill:none;stroke:#bcbec0;stroke-width:6;stroke-linecap:butt;stroke-linejoin:miter;stroke-miterlimit:10;stroke-dasharray:none;stroke-opacity:1"
             d="m 0,0 c 0,-39.873 -32.324,-72.196 -72.196,-72.196 -39.873,0 -72.197,32.323 -72.197,72.196 0,39.873 32.324,72.196 72.197,72.196 C -32.324,72.196 0,39.873 0,0 Z" /></g><g
           transform="translate(111.9856,237.2329)"
           id="g32"><path
             id="path34"
             style="fill:none;stroke:#939598;stroke-width:20;stroke-linecap:round;stroke-linejoin:miter;stroke-miterlimit:10;stroke-dasharray:none;stroke-opacity:1"
             d="M 0,0 0,-35.725" /></g></g></g></g></svg>