<?xml version="1.0" encoding="UTF-8" standalone="no"?>
<svg
   xmlns:dc="http://purl.org/dc/elements/1.1/"
   xmlns:cc="http://creativecommons.org/ns#"
   xmlns:rdf="http://www.w3.org/1999/02/22-rdf-syntax-ns#"
   xmlns:svg="http://www.w3.org/2000/svg"
   xmlns="http://www.w3.org/2000/svg"
   viewBox="0 0 279.965 436.995"
   height="436.995"
   width="279.965"
   xml:space="preserve"
   version="1.1"
   id="svg2"><metadata
     id="metadata8"><rdf:RDF><cc:Work
         rdf:about=""><dc:format>image/svg+xml</dc:format><dc:type
           rdf:resource="http://purl.org/dc/dcmitype/StillImage" /><dc:title></dc:title></cc:Work></rdf:RDF></metadata><defs
     id="defs6"><clipPath
       id="clipPath20"
       clipPathUnits="userSpaceOnUse"><path
         id="path22"
         d="m 0,349.596 223.972,0 L 223.972,0 0,0 0,349.596 Z" /></clipPath><clipPath
       id="clipPath44"
       clipPathUnits="userSpaceOnUse"><path
         id="path46"
         d="m 0,349.596 223.972,0 L 223.972,0 0,0 0,349.596 Z" /></clipPath></defs><g
     transform="matrix(1.25,0,0,-1.25,0,436.995)"
     id="g10"><g
       id="g4202"><g
         id="g36"
         transform="translate(68.2502,174.907)"><path
           d="M 0,0 -7.507,13.004"
           style="fill:none;stroke:#dd4b2f;stroke-width:19;stroke-linecap:round;stroke-linejoin:miter;stroke-miterlimit:10;stroke-dasharray:none;stroke-opacity:1"
           id="path38" /></g><g
         id="g40"><g
           id="g42"
           clip-path="url(#clipPath44)"><g
             id="g48"
             transform="translate(24.5148,99.1559)"><path
               d="M 0,0 -15.015,0"
               style="fill:none;stroke:#dd4b2f;stroke-width:19;stroke-linecap:round;stroke-linejoin:miter;stroke-miterlimit:10;stroke-dasharray:none;stroke-opacity:1"
               id="path50" /></g><g
             id="g52"
             transform="translate(36.0864,142.977)"><path
               d="M 0,0 C 24.201,41.917 77.801,56.279 119.719,32.078 161.637,7.876 175.999,-45.724 151.799,-87.641 127.597,-129.559 73.997,-143.923 32.079,-119.72 -9.84,-95.519 -24.201,-41.918 0,0"
               style="fill:#bcbec0;fill-opacity:1;fill-rule:nonzero;stroke:none"
               id="path54" /></g><g
             id="g56"
             transform="translate(36.0864,142.977)"><path
               d="M 0,0 C 24.201,41.917 77.801,56.279 119.719,32.078 161.637,7.876 175.999,-45.724 151.799,-87.641 127.597,-129.559 73.997,-143.923 32.079,-119.72 -9.84,-95.519 -24.201,-41.918 0,0 Z"
               style="fill:none;stroke:#dd4b2f;stroke-width:23;stroke-linecap:round;stroke-linejoin:miter;stroke-miterlimit:10;stroke-dasharray:none;stroke-opacity:1"
               id="path58" /></g><g
             id="g60"
             transform="translate(68.251,23.4034)"><path
               d="M 0,0 -7.509,-13.003"
               style="fill:none;stroke:#dd4b2f;stroke-width:19;stroke-linecap:round;stroke-linejoin:miter;stroke-miterlimit:10;stroke-dasharray:none;stroke-opacity:1"
               id="path62" /></g><g
             id="g64"
             transform="translate(155.7204,23.4048)"><path
               d="M 0,0 7.508,-13.006"
               style="fill:none;stroke:#dd4b2f;stroke-width:19;stroke-linecap:round;stroke-linejoin:miter;stroke-miterlimit:10;stroke-dasharray:none;stroke-opacity:1"
               id="path66" /></g><g
             id="g68"
             transform="translate(199.4558,99.1552)"><path
               d="M 0,0 15.016,0"
               style="fill:none;stroke:#dd4b2f;stroke-width:19;stroke-linecap:round;stroke-linejoin:miter;stroke-miterlimit:10;stroke-dasharray:none;stroke-opacity:1"
               id="path70" /></g><g
             id="g72"
             transform="translate(155.7219,174.907)"><path
               d="M 0,0 7.507,13.005"
               style="fill:none;stroke:#dd4b2f;stroke-width:19;stroke-linecap:round;stroke-linejoin:miter;stroke-miterlimit:10;stroke-dasharray:none;stroke-opacity:1"
               id="path74" /></g></g></g></g></g></svg>