<?xml version="1.0" encoding="utf-8"?>
<!-- Generator: Adobe Illustrator 19.0.0, SVG Export Plug-In . SVG Version: 6.00 Build 0)  -->
<svg version="1.1" xmlns="http://www.w3.org/2000/svg" xmlns:xlink="http://www.w3.org/1999/xlink" x="0px" y="0px"
	 viewBox="0 0 1000 1000" style="enable-background:new 0 0 1000 1000;" xml:space="preserve">
<style type="text/css">
	.st0{fill:#1A1A1A;}
	.st1{fill:#333333;}
	.st2{fill:none;stroke:#FFFFFF;stroke-width:11;stroke-linejoin:bevel;stroke-miterlimit:10;}
	.st3{fill:#FF0000;stroke:#FF0000;stroke-width:11;stroke-linejoin:bevel;stroke-miterlimit:10;}
	.st4{fill:none;}
	.st5{fill:#CCCCCC;}
	.st6{display:none;}
	.st7{display:inline;fill:url(#XMLID_41_);}
	.st8{display:inline;fill:#F2F2F2;}
	.st9{display:inline;fill:#4D4D4D;stroke:#333333;stroke-width:5;stroke-miterlimit:10;}
	.st10{display:inline;}
</style>
<g id="Base">
	<g id="XMLID_2_">
		<path id="XMLID_48_" class="st0" d="M500,972.5c-63.8,0-125.7-12.5-183.9-37.1c-56.3-23.8-106.8-57.9-150.2-101.3
			S88.4,740.2,64.6,683.9C40,625.7,27.5,563.8,27.5,500c0-63.8,12.5-125.7,37.1-183.9c23.8-56.3,57.9-106.8,101.3-150.2
			s93.9-77.5,150.2-101.3C374.3,40,436.2,27.5,500,27.5c63.8,0,125.7,12.5,183.9,37.1c56.3,23.8,106.8,57.9,150.2,101.3
			s77.5,93.9,101.3,150.2c24.6,58.2,37.1,120.1,37.1,183.9c0,63.8-12.5,125.7-37.1,183.9c-23.8,56.3-57.9,106.8-101.3,150.2
			s-93.9,77.5-150.2,101.3C625.7,960,563.8,972.5,500,972.5z"/>
		<path id="XMLID_39_" class="st1" d="M500,55c60.1,0,118.4,11.8,173.2,34.9c53,22.4,100.6,54.5,141.5,95.4
			c40.9,40.9,73,88.5,95.4,141.5C933.2,381.6,945,439.9,945,500s-11.8,118.4-34.9,173.2c-22.4,53-54.5,100.6-95.4,141.5
			c-40.9,40.9-88.5,73-141.5,95.4C618.4,933.2,560.1,945,500,945s-118.4-11.8-173.2-34.9c-53-22.4-100.6-54.5-141.5-95.4
			c-40.9-40.9-73-88.5-95.4-141.5C66.8,618.4,55,560.1,55,500s11.8-118.4,34.9-173.2c22.4-53,54.5-100.6,95.4-141.5
			s88.5-73,141.5-95.4C381.6,66.8,439.9,55,500,55 M500,0C223.9,0,0,223.9,0,500s223.9,500,500,500s500-223.9,500-500S776.1,0,500,0
			L500,0z"/>
	</g>
	<line id="XMLID_3_" class="st2" x1="433.1" y1="487.9" x2="497.9" y2="483.1"/>
	<line id="XMLID_8_" class="st2" x1="405.4" y1="401.8" x2="458.6" y2="364.5"/>
	<line id="XMLID_9_" class="st2" x1="349.3" y1="342.6" x2="376.7" y2="283.7"/>
	<line id="XMLID_12_" class="st2" x1="396.7" y1="624.3" x2="449.4" y2="662.3"/>
	<line id="XMLID_11_" class="st2" x1="422.9" y1="573" x2="483.1" y2="597.6"/>
	<path id="XMLID_13_" class="st2" d="M361.3,312.3c62.7,38,105.1,110.5,105.1,193.8c0,82.2-41.3,153.9-102.7,192.3"/>
	<line id="XMLID_6_" class="st3" x1="348.6" y1="674.9" x2="383.5" y2="729.7"/>
	<line id="XMLID_24_" class="st2" x1="592.4" y1="487.9" x2="527.6" y2="483.1"/>
	<line id="XMLID_23_" class="st2" x1="620.1" y1="401.8" x2="566.8" y2="364.5"/>
	<line id="XMLID_22_" class="st2" x1="676.2" y1="342.6" x2="648.7" y2="283.7"/>
	<line id="XMLID_21_" class="st2" x1="628.8" y1="624.3" x2="576.1" y2="662.3"/>
	<line id="XMLID_19_" class="st2" x1="602.5" y1="573" x2="542.3" y2="597.6"/>
	<path id="XMLID_18_" class="st2" d="M664.2,312.3c-62.7,38-105.1,110.5-105.1,193.8c0,82.2,41.3,153.9,102.7,192.3"/>
	<line id="XMLID_17_" class="st3" x1="676.9" y1="674.9" x2="641.9" y2="729.7"/>
	<g id="XMLID_7_">
		<rect id="XMLID_121_" x="440.2" y="660" class="st4" width="78.4" height="59"/>
		<path id="XMLID_25_" class="st5" d="M464.1,694.3l6-0.5c0.4,2.9,1.5,5.1,3.1,6.6c1.6,1.5,3.6,2.2,5.9,2.2c2.8,0,5.1-1,7-3.1
			s2.9-4.8,2.9-8.3c0-3.3-0.9-5.8-2.7-7.7c-1.8-1.9-4.2-2.8-7.2-2.8c-1.8,0-3.5,0.4-5,1.3c-1.5,0.8-2.6,1.9-3.5,3.3l-5.4-0.7
			l4.5-23.9h23.1v5.5h-18.6l-2.5,12.5c2.8-1.9,5.7-2.9,8.8-2.9c4.1,0,7.5,1.4,10.3,4.2s4.2,6.4,4.2,10.9c0,4.2-1.2,7.8-3.7,10.9
			c-3,3.8-7.1,5.6-12.2,5.6c-4.2,0-7.7-1.2-10.4-3.6C466,701.4,464.4,698.2,464.1,694.3z"/>
	</g>
	<g id="XMLID_15_">
		<rect id="XMLID_119_" x="506.2" y="660" class="st4" width="78.4" height="59"/>
		<path id="XMLID_27_" class="st5" d="M530,694.3l6-0.5c0.4,2.9,1.5,5.1,3.1,6.6c1.6,1.5,3.6,2.2,5.9,2.2c2.8,0,5.1-1,7-3.1
			s2.9-4.8,2.9-8.3c0-3.3-0.9-5.8-2.7-7.7c-1.8-1.9-4.2-2.8-7.2-2.8c-1.8,0-3.5,0.4-5,1.3c-1.5,0.8-2.6,1.9-3.5,3.3l-5.4-0.7
			l4.5-23.9h23.1v5.5h-18.6l-2.5,12.5c2.8-1.9,5.7-2.9,8.8-2.9c4.1,0,7.5,1.4,10.3,4.2s4.2,6.4,4.2,10.9c0,4.2-1.2,7.8-3.7,10.9
			c-3,3.8-7.1,5.6-12.2,5.6c-4.2,0-7.7-1.2-10.4-3.6S530.3,698.2,530,694.3z"/>
	</g>
	<g id="XMLID_26_">
		<rect id="XMLID_117_" x="466" y="525.2" class="st4" width="86.7" height="65.3"/>
		<path id="XMLID_29_" class="st5" d="M497.4,571.7h-5.7v-36.4c-1.4,1.3-3.2,2.6-5.4,3.9c-2.2,1.3-4.2,2.3-6,3v-5.5
			c3.2-1.5,6-3.3,8.4-5.5c2.4-2.1,4.1-4.2,5.1-6.2h3.7V571.7z"/>
		<path id="XMLID_114_" class="st5" d="M512,548.8c0-5.5,0.6-9.9,1.7-13.3s2.8-5.9,5-7.8s5-2.7,8.4-2.7c2.5,0,4.7,0.5,6.6,1.5
			s3.4,2.5,4.7,4.3c1.2,1.9,2.2,4.2,2.9,6.9s1,6.4,1,11c0,5.5-0.6,9.9-1.7,13.2s-2.8,5.9-5,7.8s-5.1,2.7-8.5,2.7
			c-4.5,0-8-1.6-10.6-4.8C513.5,563.8,512,557.5,512,548.8z M517.9,548.8c0,7.6,0.9,12.7,2.7,15.3s4,3.8,6.6,3.8
			c2.6,0,4.8-1.3,6.6-3.8s2.7-7.6,2.7-15.2c0-7.7-0.9-12.7-2.7-15.3s-4-3.8-6.7-3.8c-2.6,0-4.7,1.1-6.3,3.3
			C518.9,535.9,517.9,541.1,517.9,548.8z"/>
	</g>
	<g id="XMLID_28_">
		<rect id="XMLID_112_" x="466" y="408.2" class="st4" width="86.7" height="65.3"/>
		<path id="XMLID_32_" class="st5" d="M497.4,454.7h-5.7v-36.4c-1.4,1.3-3.2,2.6-5.4,3.9c-2.2,1.3-4.2,2.3-6,3v-5.5
			c3.2-1.5,6-3.3,8.4-5.5c2.4-2.1,4.1-4.2,5.1-6.2h3.7V454.7z"/>
		<path id="XMLID_110_" class="st5" d="M512,442.5l6-0.5c0.4,2.9,1.5,5.1,3.1,6.6c1.6,1.5,3.6,2.2,5.9,2.2c2.8,0,5.1-1,7-3.1
			c1.9-2.1,2.9-4.8,2.9-8.3c0-3.3-0.9-5.8-2.7-7.7c-1.8-1.9-4.2-2.8-7.2-2.8c-1.8,0-3.5,0.4-5,1.3c-1.5,0.8-2.6,1.9-3.5,3.3
			l-5.4-0.7l4.5-23.9h23.1v5.5h-18.6l-2.5,12.5c2.8-1.9,5.7-2.9,8.8-2.9c4.1,0,7.5,1.4,10.3,4.2c2.8,2.8,4.2,6.4,4.2,10.9
			c0,4.2-1.2,7.9-3.7,10.9c-3,3.8-7.1,5.6-12.2,5.6c-4.2,0-7.7-1.2-10.4-3.6C513.9,449.6,512.4,446.4,512,442.5z"/>
	</g>
	<g id="XMLID_30_">
		<rect id="XMLID_108_" x="469.6" y="320.4" class="st4" width="86.7" height="65.3"/>
		<path id="XMLID_35_" class="st5" d="M509.6,361.5v5.5h-30.8c0-1.4,0.2-2.7,0.7-4c0.8-2.1,2-4.2,3.8-6.2c1.7-2,4.2-4.4,7.5-7
			c5.1-4.1,8.5-7.4,10.3-9.9c1.8-2.4,2.7-4.7,2.7-6.9c0-2.3-0.8-4.2-2.4-5.7c-1.6-1.6-3.7-2.3-6.3-2.3c-2.8,0-5,0.8-6.6,2.5
			s-2.5,3.9-2.5,6.9l-5.9-0.6c0.4-4.4,1.9-7.7,4.5-10c2.6-2.3,6.1-3.4,10.6-3.4c4.5,0,8,1.2,10.6,3.7s3.9,5.5,3.9,9.2
			c0,1.9-0.4,3.7-1.1,5.5c-0.8,1.8-2,3.7-3.8,5.7c-1.8,2-4.7,4.7-8.8,8.2c-3.4,2.9-5.6,4.8-6.6,5.9c-1,1-1.8,2.1-2.4,3.1H509.6z"/>
		<path id="XMLID_105_" class="st5" d="M515.7,344c0-5.5,0.6-9.9,1.7-13.3c1.1-3.4,2.8-5.9,5-7.8c2.2-1.8,5-2.7,8.4-2.7
			c2.5,0,4.7,0.5,6.6,1.5s3.4,2.5,4.7,4.3c1.2,1.9,2.2,4.2,2.9,6.9c0.7,2.7,1,6.4,1,11c0,5.5-0.6,9.9-1.7,13.2s-2.8,5.9-5,7.8
			c-2.2,1.8-5.1,2.7-8.5,2.7c-4.5,0-8-1.6-10.6-4.8C517.2,359.1,515.7,352.8,515.7,344z M521.5,344c0,7.6,0.9,12.7,2.7,15.3
			s4,3.8,6.6,3.8c2.6,0,4.8-1.3,6.6-3.8s2.7-7.6,2.7-15.2c0-7.7-0.9-12.7-2.7-15.3c-1.8-2.5-4-3.8-6.7-3.8c-2.6,0-4.7,1.1-6.3,3.3
			C522.5,331.1,521.5,336.4,521.5,344z"/>
	</g>
	<g id="XMLID_33_">
		<rect id="XMLID_103_" x="333.4" y="230.8" class="st4" width="86.7" height="65.3"/>
		<path id="XMLID_37_" class="st5" d="M373.3,271.8v5.5h-30.8c0-1.4,0.2-2.7,0.7-4c0.8-2.1,2-4.2,3.8-6.2c1.7-2,4.2-4.4,7.5-7
			c5.1-4.1,8.5-7.4,10.3-9.9s2.7-4.7,2.7-6.9c0-2.3-0.8-4.2-2.4-5.7c-1.6-1.6-3.7-2.3-6.3-2.3c-2.8,0-5,0.8-6.6,2.5
			s-2.5,3.9-2.5,6.9l-5.9-0.6c0.4-4.4,1.9-7.7,4.5-10c2.6-2.3,6.1-3.4,10.6-3.4c4.5,0,8,1.2,10.6,3.7s3.9,5.5,3.9,9.2
			c0,1.9-0.4,3.7-1.1,5.5c-0.8,1.8-2,3.7-3.8,5.7c-1.8,2-4.7,4.7-8.8,8.2c-3.4,2.9-5.6,4.8-6.6,5.9c-1,1-1.8,2.1-2.4,3.1H373.3z"/>
		<path id="XMLID_100_" class="st5" d="M409.1,242.2l-5.7,0.4c-0.5-2.2-1.2-3.9-2.2-4.9c-1.5-1.6-3.4-2.4-5.7-2.4
			c-1.8,0-3.4,0.5-4.8,1.5c-1.8,1.3-3.2,3.2-4.3,5.7c-1,2.5-1.6,6.1-1.6,10.8c1.4-2.1,3.1-3.6,5-4.7c2-1,4.1-1.5,6.3-1.5
			c3.8,0,7.1,1.4,9.7,4.2s4,6.4,4,10.9c0,2.9-0.6,5.6-1.9,8.1c-1.3,2.5-3,4.4-5.2,5.8c-2.2,1.3-4.7,2-7.5,2c-4.8,0-8.6-1.8-11.6-5.3
			c-3-3.5-4.5-9.3-4.5-17.3c0-9,1.7-15.5,5-19.6c2.9-3.6,6.8-5.3,11.7-5.3c3.7,0,6.7,1,9,3.1C407.2,235.7,408.6,238.6,409.1,242.2z
			 M385.7,262.2c0,2,0.4,3.9,1.3,5.6c0.8,1.8,2,3.2,3.5,4.1c1.5,0.9,3.1,1.4,4.7,1.4c2.4,0,4.5-1,6.2-2.9c1.7-1.9,2.6-4.6,2.6-7.9
			c0-3.2-0.9-5.7-2.6-7.6s-3.9-2.8-6.5-2.8c-2.6,0-4.8,0.9-6.6,2.8C386.6,256.8,385.7,259.2,385.7,262.2z"/>
	</g>
	<g id="XMLID_36_">
		<rect id="XMLID_98_" x="598.6" y="230.8" class="st4" width="86.7" height="65.3"/>
		<path id="XMLID_43_" class="st5" d="M638.5,271.8v5.5h-30.8c0-1.4,0.2-2.7,0.7-4c0.8-2.1,2-4.2,3.8-6.2s4.2-4.4,7.5-7
			c5.1-4.1,8.5-7.4,10.3-9.9s2.7-4.7,2.7-6.9c0-2.3-0.8-4.2-2.4-5.7c-1.6-1.6-3.7-2.3-6.3-2.3c-2.8,0-5,0.8-6.6,2.5
			s-2.5,3.9-2.5,6.9l-5.9-0.6c0.4-4.4,1.9-7.7,4.5-10c2.6-2.3,6.1-3.4,10.6-3.4c4.5,0,8,1.2,10.6,3.7s3.9,5.5,3.9,9.2
			c0,1.9-0.4,3.7-1.1,5.5c-0.8,1.8-2,3.7-3.8,5.7c-1.8,2-4.7,4.7-8.8,8.2c-3.4,2.9-5.6,4.8-6.6,5.9s-1.8,2.1-2.4,3.1H638.5z"/>
		<path id="XMLID_95_" class="st5" d="M674.3,242.2l-5.7,0.4c-0.5-2.2-1.2-3.9-2.2-4.9c-1.5-1.6-3.4-2.4-5.7-2.4
			c-1.8,0-3.4,0.5-4.8,1.5c-1.8,1.3-3.2,3.2-4.3,5.7c-1,2.5-1.6,6.1-1.6,10.8c1.4-2.1,3.1-3.6,5-4.7s4.1-1.5,6.3-1.5
			c3.8,0,7.1,1.4,9.7,4.2s4,6.4,4,10.9c0,2.9-0.6,5.6-1.9,8.1c-1.3,2.5-3,4.4-5.2,5.8c-2.2,1.3-4.7,2-7.5,2c-4.8,0-8.6-1.8-11.6-5.3
			s-4.5-9.3-4.5-17.3c0-9,1.7-15.5,5-19.6c2.9-3.6,6.8-5.3,11.7-5.3c3.7,0,6.7,1,9,3.1C672.4,235.7,673.8,238.6,674.3,242.2z
			 M651,262.2c0,2,0.4,3.9,1.3,5.6c0.8,1.8,2,3.2,3.5,4.1c1.5,0.9,3.1,1.4,4.7,1.4c2.4,0,4.5-1,6.2-2.9c1.7-1.9,2.6-4.6,2.6-7.9
			c0-3.2-0.9-5.7-2.6-7.6s-3.9-2.8-6.5-2.8c-2.6,0-4.8,0.9-6.6,2.8S651,259.2,651,262.2z"/>
	</g>
	<g id="XMLID_38_">
		<rect id="XMLID_93_" x="396.9" y="149.8" class="st4" width="241.4" height="73.2"/>
		<path id="XMLID_45_" class="st5" d="M404.5,216.4v-66.6h44.9v7.9h-36.1v20.6h31.2v7.9h-31.2v30.2H404.5z"/>
		<path id="XMLID_87_" class="st5" d="M504.6,149.8h8.8v38.5c0,6.7-0.8,12-2.3,15.9c-1.5,3.9-4.2,7.1-8.2,9.6
			c-4,2.5-9.1,3.7-15.6,3.7c-6.2,0-11.3-1.1-15.3-3.2c-4-2.1-6.8-5.3-8.5-9.3c-1.7-4.1-2.5-9.6-2.5-16.7v-38.5h8.8v38.4
			c0,5.8,0.5,10,1.6,12.8s2.9,4.9,5.5,6.3c2.6,1.5,5.8,2.2,9.6,2.2c6.5,0,11.1-1.5,13.9-4.4c2.8-2.9,4.1-8.6,4.1-16.9V149.8z"/>
		<path id="XMLID_89_" class="st5" d="M528.2,216.4v-66.6h48.1v7.9H537V178h36.8v7.8H537v22.7h40.9v7.9H528.2z"/>
		<path id="XMLID_91_" class="st5" d="M589.7,216.4v-66.6h8.8v58.7h32.8v7.9H589.7z"/>
	</g>
	<g id="XMLID_44_">
		<rect id="XMLID_85_" x="432" y="748.3" class="st4" width="161.4" height="34.4"/>
		<path id="XMLID_49_" class="st5" d="M446.4,763.1v-2.9l10.3,0v9c-1.6,1.3-3.2,2.2-4.9,2.8c-1.7,0.6-3.4,1-5.2,1
			c-2.4,0-4.6-0.5-6.5-1.5c-2-1-3.4-2.5-4.4-4.4c-1-1.9-1.5-4.1-1.5-6.5c0-2.4,0.5-4.6,1.5-6.6c1-2.1,2.4-3.6,4.3-4.6s4-1.5,6.4-1.5
			c1.8,0,3.4,0.3,4.8,0.9c1.4,0.6,2.5,1.4,3.3,2.4c0.8,1,1.4,2.3,1.8,4l-2.9,0.8c-0.4-1.2-0.8-2.2-1.4-2.9c-0.5-0.7-1.3-1.3-2.3-1.7
			c-1-0.4-2.1-0.6-3.4-0.6c-1.5,0-2.7,0.2-3.8,0.7c-1.1,0.4-1.9,1-2.6,1.8c-0.7,0.7-1.2,1.5-1.5,2.4c-0.6,1.5-0.9,3.1-0.9,4.9
			c0,2.2,0.4,4,1.1,5.4s1.8,2.5,3.3,3.3c1.4,0.7,2.9,1.1,4.5,1.1c1.4,0,2.8-0.3,4.1-0.8s2.3-1.1,3-1.7v-4.5H446.4z"/>
		<path id="XMLID_71_" class="st5" d="M458.8,772.7l9.3-24.3h3.5l10,24.3h-3.7l-2.8-7.4h-10.2l-2.7,7.4H458.8z M465.8,762.7h8.3
			l-2.5-6.7c-0.8-2-1.4-3.7-1.7-5c-0.3,1.6-0.7,3.1-1.3,4.6L465.8,762.7z"/>
		<path id="XMLID_74_" class="st5" d="M484,772.7v-24.3h3.2v21.5h12v2.9H484z"/>
		<path id="XMLID_76_" class="st5" d="M502.9,772.7v-24.3h3.2v21.5h12v2.9H502.9z"/>
		<path id="XMLID_78_" class="st5" d="M521,760.8c0-4,1.1-7.2,3.3-9.5s5-3.4,8.4-3.4c2.2,0,4.3,0.5,6.1,1.6c1.8,1.1,3.2,2.6,4.1,4.5
			s1.4,4.1,1.4,6.5c0,2.5-0.5,4.7-1.5,6.6c-1,1.9-2.4,3.4-4.2,4.4s-3.8,1.5-5.9,1.5c-2.3,0-4.3-0.6-6.1-1.7
			c-1.8-1.1-3.2-2.6-4.1-4.5C521.5,765,521,763,521,760.8z M524.3,760.9c0,2.9,0.8,5.2,2.4,6.9s3.6,2.5,5.9,2.5c2.4,0,4.4-0.9,6-2.6
			c1.6-1.7,2.3-4.1,2.3-7.3c0-2-0.3-3.7-1-5.2c-0.7-1.5-1.6-2.6-2.9-3.4c-1.3-0.8-2.7-1.2-4.3-1.2c-2.3,0-4.2,0.8-5.9,2.3
			S524.3,757.2,524.3,760.9z"/>
		<path id="XMLID_81_" class="st5" d="M548.4,772.7v-24.3h3.3l12.8,19.1v-19.1h3.1v24.3h-3.3l-12.8-19.1v19.1H548.4z"/>
		<path id="XMLID_83_" class="st5" d="M571.9,764.9l3-0.3c0.1,1.2,0.5,2.2,1,3c0.5,0.8,1.3,1.4,2.4,1.9s2.4,0.7,3.7,0.7
			c1.2,0,2.3-0.2,3.3-0.5s1.6-0.9,2.1-1.5c0.5-0.6,0.7-1.3,0.7-2.1c0-0.8-0.2-1.4-0.7-2s-1.2-1-2.2-1.4c-0.7-0.3-2.1-0.6-4.3-1.2
			s-3.8-1-4.7-1.5c-1.2-0.6-2-1.4-2.6-2.3c-0.6-0.9-0.9-1.9-0.9-3c0-1.2,0.3-2.4,1-3.4s1.7-1.9,3.1-2.4c1.3-0.6,2.8-0.8,4.5-0.8
			c1.8,0,3.4,0.3,4.8,0.9c1.4,0.6,2.4,1.4,3.2,2.6s1.1,2.4,1.2,3.8l-3.1,0.2c-0.2-1.5-0.7-2.7-1.7-3.5c-1-0.8-2.4-1.2-4.2-1.2
			c-1.9,0-3.4,0.4-4.3,1.1c-0.9,0.7-1.3,1.6-1.3,2.6c0,0.9,0.3,1.6,0.9,2.2c0.6,0.6,2.2,1.1,4.9,1.7c2.6,0.6,4.4,1.1,5.4,1.6
			c1.4,0.7,2.5,1.5,3.1,2.5s1,2.2,1,3.5c0,1.3-0.4,2.5-1.1,3.7s-1.8,2-3.2,2.7c-1.4,0.6-3,1-4.7,1c-2.2,0-4-0.3-5.5-1
			c-1.5-0.6-2.7-1.6-3.5-2.9C572.4,767.9,571.9,766.5,571.9,764.9z"/>
	</g>
	<g id="XMLID_46_">
		<rect id="XMLID_69_" x="366.2" y="741" class="st4" width="78.4" height="59"/>
		<path id="XMLID_51_" class="st5" d="M390,764.6c0-5.5,0.6-9.9,1.7-13.3s2.8-5.9,5-7.8c2.2-1.8,5-2.7,8.4-2.7
			c2.5,0,4.7,0.5,6.6,1.5c1.9,1,3.4,2.5,4.7,4.3c1.2,1.9,2.2,4.2,2.9,6.9s1,6.4,1,11c0,5.5-0.6,9.9-1.7,13.2c-1.1,3.4-2.8,5.9-5,7.8
			c-2.2,1.8-5.1,2.7-8.5,2.7c-4.5,0-8-1.6-10.6-4.8C391.5,779.6,390,773.3,390,764.6z M395.9,764.6c0,7.6,0.9,12.7,2.7,15.3
			s4,3.8,6.6,3.8c2.6,0,4.8-1.3,6.6-3.8c1.8-2.5,2.7-7.6,2.7-15.2c0-7.7-0.9-12.7-2.7-15.3c-1.8-2.5-4-3.8-6.7-3.8
			c-2.6,0-4.7,1.1-6.3,3.3C396.9,751.7,395.9,757,395.9,764.6z"/>
	</g>
	<g id="XMLID_50_">
		<rect id="XMLID_66_" x="580.9" y="741" class="st4" width="78.4" height="59"/>
		<path id="XMLID_53_" class="st5" d="M604.7,764.6c0-5.5,0.6-9.9,1.7-13.3s2.8-5.9,5-7.8c2.2-1.8,5-2.7,8.4-2.7
			c2.5,0,4.7,0.5,6.6,1.5c1.9,1,3.4,2.5,4.7,4.3s2.2,4.2,2.9,6.9s1,6.4,1,11c0,5.5-0.6,9.9-1.7,13.2c-1.1,3.4-2.8,5.9-5,7.8
			c-2.2,1.8-5.1,2.7-8.5,2.7c-4.5,0-8-1.6-10.6-4.8C606.2,779.6,604.7,773.3,604.7,764.6z M610.6,764.6c0,7.6,0.9,12.7,2.7,15.3
			s4,3.8,6.6,3.8s4.8-1.3,6.6-3.8c1.8-2.5,2.7-7.6,2.7-15.2c0-7.7-0.9-12.7-2.7-15.3c-1.8-2.5-4-3.8-6.7-3.8c-2.6,0-4.7,1.1-6.3,3.3
			C611.6,751.7,610.6,757,610.6,764.6z"/>
	</g>
	<g id="XMLID_52_">
		<rect id="XMLID_63_" x="428.6" y="803" class="st4" width="161.4" height="75.7"/>
		<path id="XMLID_56_" class="st5" d="M477.8,853.5c3.5,2.4,6.7,4.1,9.6,5.2l-2.2,5.2c-4.1-1.5-8.1-3.8-12.2-6.9
			c-4.2,2.3-8.8,3.5-13.9,3.5c-5.1,0-9.8-1.2-13.9-3.7s-7.4-5.9-9.6-10.4c-2.3-4.5-3.4-9.5-3.4-15.1c0-5.6,1.1-10.7,3.4-15.2
			c2.3-4.6,5.5-8.1,9.7-10.5c4.2-2.4,8.9-3.6,14-3.6c5.2,0,9.9,1.2,14.1,3.7c4.2,2.5,7.4,6,9.6,10.4c2.2,4.5,3.3,9.5,3.3,15.1
			c0,4.7-0.7,8.8-2.1,12.6C482.8,847.5,480.6,850.8,477.8,853.5z M461.3,843.9c4.3,1.2,7.9,3,10.7,5.4c4.4-4,6.6-10,6.6-18.1
			c0-4.6-0.8-8.6-2.3-12c-1.6-3.4-3.8-6.1-6.8-8c-3-1.9-6.4-2.8-10.1-2.8c-5.6,0-10.2,1.9-13.9,5.7c-3.7,3.8-5.5,9.5-5.5,17.1
			c0,7.4,1.8,13,5.5,16.9c3.6,3.9,8.3,5.9,13.9,5.9c2.7,0,5.2-0.5,7.6-1.5c-2.3-1.5-4.8-2.6-7.4-3.2L461.3,843.9z"/>
		<path id="XMLID_59_" class="st5" d="M510.8,859.6v-49.9h-18.6V803H537v6.7h-18.7v49.9H510.8z"/>
		<path id="XMLID_61_" class="st5" d="M560.6,859.6v-24L538.8,803h9.1l11.1,17c2.1,3.2,4,6.4,5.7,9.6c1.7-3,3.8-6.3,6.2-10l11-16.6
			h8.7L568,835.6v24H560.6z"/>
	</g>
</g>
<g id="Needles" class="st6">
	<linearGradient id="XMLID_41_" gradientUnits="userSpaceOnUse" x1="175" y1="506.4319" x2="478.0003" y2="506.4319">
		<stop  offset="0" style="stop-color:#FFFFFF"/>
		<stop  offset="1" style="stop-color:#DBDBDB"/>
	</linearGradient>
	<polyline id="XMLID_55_" class="st7" points="478,511 175,532.6 175,480.3 477.7,501.9 	"/>
	<polyline id="XMLID_54_" class="st8" points="524,501.9 827,480.3 827,532.6 524.3,511 	"/>
</g>
<g id="Top" class="st6">
	<path id="XMLID_5_" class="st9" d="M302.9,98.8l0.1,802.5c0,0-246.1-111.9-246.1-401.3S302.9,98.8,302.9,98.8z"/>
	<path id="XMLID_4_" class="st9" d="M697,99.8l-0.1,802.5c0,0,246.1-111.9,246.1-401.3S697,99.8,697,99.8z"/>
	<g id="XMLID_42_" class="st10">
		<rect id="XMLID_140_" x="173.7" y="306.1" class="st4" width="69.3" height="416.6"/>
		<path id="XMLID_20_" class="st5" d="M190.7,367.6v-61.6h8.1v54.3h30.3v7.3H190.7z"/>
		<path id="XMLID_134_" class="st5" d="M186.5,467.6v-61.6H231v7.3h-36.4v18.9h34.1v7.2h-34.1v21h37.8v7.3H186.5z"/>
		<path id="XMLID_136_" class="st5" d="M189.1,567.6v-61.6h41.5v7.3h-33.4v19.1h28.9v7.3h-28.9v28H189.1z"/>
		<path id="XMLID_138_" class="st5" d="M205.1,667.6v-54.3h-20.3v-7.3h48.8v7.3h-20.4v54.3H205.1z"/>
	</g>
	<g id="XMLID_16_" class="st10">
		<rect id="XMLID_132_" x="750.6" y="280.4" class="st4" width="69.3" height="468"/>
		<path id="XMLID_14_" class="st5" d="M761,342v-61.6h27.3c5.5,0,9.7,0.6,12.5,1.7c2.9,1.1,5.1,3.1,6.8,5.9c1.7,2.8,2.6,5.9,2.6,9.3
			c0,4.4-1.4,8-4.2,11c-2.8,3-7.2,4.9-13.1,5.7c2.2,1,3.8,2.1,4.9,3.1c2.4,2.2,4.6,4.9,6.8,8.2l10.7,16.8H805l-8.1-12.8
			c-2.4-3.7-4.3-6.5-5.9-8.5c-1.5-2-2.9-3.3-4.1-4.1c-1.2-0.8-2.5-1.3-3.7-1.6c-0.9-0.2-2.4-0.3-4.5-0.3h-9.4V342H761z M769.2,307.6
			h17.5c3.7,0,6.6-0.4,8.7-1.2c2.1-0.8,3.7-2,4.8-3.7c1.1-1.7,1.6-3.5,1.6-5.5c0-2.9-1.1-5.3-3.2-7.2c-2.1-1.9-5.5-2.8-10-2.8h-19.5
			V307.6z"/>
		<path id="XMLID_124_" class="st5" d="M781.4,440v-61.6h8.1V440H781.4z"/>
		<path id="XMLID_126_" class="st5" d="M787.3,513.8v-7.2l26.1,0v22.8c-4,3.2-8.1,5.6-12.4,7.2c-4.3,1.6-8.6,2.4-13.1,2.4
			c-6,0-11.5-1.3-16.5-3.9c-4.9-2.6-8.7-6.3-11.2-11.2c-2.5-4.9-3.8-10.4-3.8-16.4c0-6,1.3-11.6,3.8-16.8c2.5-5.2,6.1-9,10.8-11.6
			s10.1-3.8,16.3-3.8c4.5,0,8.5,0.7,12.1,2.2c3.6,1.4,6.4,3.5,8.5,6c2,2.6,3.6,5.9,4.7,10.1l-7.3,2c-0.9-3.1-2.1-5.6-3.4-7.4
			c-1.4-1.8-3.3-3.2-5.9-4.3c-2.5-1.1-5.4-1.6-8.5-1.6c-3.7,0-6.9,0.6-9.7,1.7c-2.7,1.1-4.9,2.6-6.6,4.5c-1.7,1.8-3,3.9-3.9,6.1
			c-1.6,3.8-2.4,7.9-2.4,12.4c0,5.5,0.9,10.1,2.8,13.8s4.6,6.4,8.3,8.2c3.6,1.8,7.4,2.7,11.5,2.7c3.5,0,7-0.7,10.3-2
			c3.4-1.4,5.9-2.8,7.6-4.3v-11.5H787.3z"/>
		<path id="XMLID_128_" class="st5" d="M761.1,636v-61.6h8.1v25.3h32v-25.3h8.1V636h-8.1v-29h-32v29H761.1z"/>
		<path id="XMLID_130_" class="st5" d="M782.1,734v-54.3h-20.3v-7.3h48.8v7.3h-20.4V734H782.1z"/>
	</g>
</g>
</svg>
