<?xml version="1.0" encoding="utf-8"?>
<!-- Generator: Adobe Illustrator 19.0.0, SVG Export Plug-In . SVG Version: 6.00 Build 0)  -->
<svg version="1.1" xmlns="http://www.w3.org/2000/svg" xmlns:xlink="http://www.w3.org/1999/xlink" x="0px" y="0px"
	 viewBox="0 0 33.1 19.8" style="enable-background:new 0 0 33.1 19.8;" xml:space="preserve">
<style type="text/css">
	.st0{display:none;}
	.st1{display:inline;fill:#282828;stroke:#E5E5E5;stroke-width:2;stroke-miterlimit:10;}
	.st2{display:inline;}
	.st3{display:inline;fill:#58595B;}
	.st4{display:inline;fill:none;stroke:#414042;stroke-width:2;stroke-miterlimit:10;}
	.st5{fill:none;}
	.st6{fill:#414042;}
	.st7{display:inline;fill:none;stroke:#FFFFFF;stroke-miterlimit:10;}
	.st8{fill:#FFFFFF;}
	.st9{display:inline;fill:#3F403F;stroke:#000000;stroke-miterlimit:10;}
	.st10{fill:none;stroke:#000000;stroke-width:1.5;stroke-miterlimit:10;stroke-dasharray:1.5093,1.5093;}
	.st11{fill:#3F403F;stroke:#000000;stroke-width:2;stroke-miterlimit:10;}
	.st12{fill:none;stroke:#000000;stroke-width:1.5;stroke-miterlimit:10;stroke-dasharray:1.5898,1.5898;}
	.st13{fill:#FFFFFF;stroke:#FFFFFF;stroke-miterlimit:10;}
	.st14{fill:#F7941E;}
	.st15{fill:#ED1C24;}
	.st16{display:inline;fill:#F7941E;}
</style>
<g id="Layer_1" class="st0">
	<path id="XMLID_814_" class="st1" d="M149.8,90.5h-586.7c-1.7,0-3-0.9-3-2v-150c0-1.1,1.3-2,3-2h586.7c1.7,0,3,0.9,3,2v150
		C152.8,89.7,151.4,90.5,149.8,90.5z"/>
</g>
<g id="Base" class="st0">
	<path class="st2" d="M-21,12.4c0,4.3-2.1,7.8-4.7,7.8h-321.5c-2.6,0-4.7-3.5-4.7-7.8V-40c0-4.3,2.1-7.8,4.7-7.8h321.5
		c2.6,0,4.7,3.5,4.7,7.8V12.4z"/>
	<circle class="st3" cx="16.6" cy="-28.9" r="5.7"/>
	<line class="st4" x1="10.8" y1="-28.9" x2="22.3" y2="-28.9"/>
	<g class="st2">
		<rect x="-398" y="32.4" class="st5" width="12.6" height="13.5"/>
		<path class="st6" d="M-397.1,41v-8.6h3.7c0.9,0,1.6,0.1,2,0.2s0.7,0.4,1,0.8s0.4,0.8,0.4,1.4c0,0.6-0.2,1.2-0.6,1.6
			s-0.9,0.7-1.7,0.8c0.4,0.2,0.7,0.5,0.9,0.7s0.6,0.7,1,1.4l1,1.7h-2.1l-1.3-1.9c-0.4-0.7-0.8-1.1-0.9-1.3s-0.3-0.3-0.5-0.4
			s-0.5-0.1-0.9-0.1h-0.4V41H-397.1z M-395.4,36h1.3c0.8,0,1.4,0,1.6-0.1s0.4-0.2,0.5-0.4s0.2-0.4,0.2-0.6c0-0.3-0.1-0.5-0.2-0.7
			s-0.4-0.3-0.7-0.3c-0.1,0-0.6,0-1.3,0h-1.4V36z"/>
	</g>
	<g class="st2">
		<rect x="-416.9" y="32.4" class="st5" width="10" height="13.5"/>
		<path class="st6" d="M-416,41v-8.6h2.8c1.1,0,1.7,0,2.1,0.1c0.5,0.1,0.9,0.4,1.2,0.8s0.5,1,0.5,1.7c0,0.5-0.1,1-0.3,1.3
			s-0.4,0.6-0.7,0.8s-0.6,0.3-0.9,0.4c-0.4,0.1-1,0.1-1.8,0.1h-1.1V41H-416z M-414.3,33.8v2.4h0.9c0.7,0,1.1,0,1.4-0.1
			s0.4-0.2,0.5-0.4s0.2-0.4,0.2-0.7c0-0.3-0.1-0.6-0.3-0.8s-0.4-0.3-0.7-0.4c-0.2,0-0.6-0.1-1.2-0.1H-414.3z"/>
	</g>
	<path class="st7" d="M37.5,69.3c0,2.8-1.9,5.1-4.3,5.1H-1.2c-2.4,0-4.3-2.3-4.3-5.1V-1.6c0-2.8,1.9-5.1,4.3-5.1h34.4
		c2.4,0,4.3,2.3,4.3,5.1V69.3z"/>
</g>
<g id="Labels" class="st0">
	<g class="st2">
		<rect x="-418.8" y="-41.7" class="st5" width="41.6" height="9.1"/>
		<path class="st8" d="M-418.1-34.2v-7.4h1v3.7l3.7-3.7h1.3l-3.1,3l3.3,4.4h-1.3l-2.6-3.8l-1.2,1.2v2.6H-418.1z"/>
		<path class="st8" d="M-411.9-34.2l2.9-7.4h1.1l3,7.4h-1.1l-0.9-2.3h-3.1l-0.8,2.3H-411.9z M-409.8-37.3h2.5l-0.8-2.1
			c-0.2-0.6-0.4-1.1-0.5-1.5c-0.1,0.5-0.2,1-0.4,1.4L-409.8-37.3z"/>
		<path class="st8" d="M-404.2-34.2v-7.4h2.8c0.5,0,0.9,0,1.1,0.1c0.4,0.1,0.7,0.2,0.9,0.3s0.4,0.4,0.6,0.7s0.2,0.6,0.2,1
			c0,0.6-0.2,1.2-0.6,1.6c-0.4,0.4-1.1,0.7-2.2,0.7h-1.9v3H-404.2z M-403.2-38.1h1.9c0.6,0,1.1-0.1,1.4-0.4c0.3-0.2,0.4-0.6,0.4-1
			c0-0.3-0.1-0.6-0.2-0.8s-0.4-0.4-0.6-0.4c-0.2,0-0.5-0.1-0.9-0.1h-1.9V-38.1z"/>
		<path class="st8" d="M-391.5-34.2h-0.9V-40c-0.2,0.2-0.5,0.4-0.9,0.6s-0.7,0.4-1,0.5v-0.9c0.5-0.2,1-0.5,1.3-0.9
			c0.4-0.3,0.7-0.7,0.8-1h0.6V-34.2z"/>
		<path class="st8" d="M-386.2-34.2V-36h-3.2v-0.8l3.4-4.8h0.7v4.8h1v0.8h-1v1.8H-386.2z M-386.2-36.8v-3.4l-2.3,3.4H-386.2z"/>
		<path class="st8" d="M-383.3-37.9c0-0.9,0.1-1.6,0.3-2.1c0.2-0.5,0.4-0.9,0.8-1.2s0.8-0.4,1.3-0.4c0.4,0,0.7,0.1,1.1,0.2
			c0.3,0.2,0.5,0.4,0.7,0.7c0.2,0.3,0.4,0.7,0.5,1.1c0.1,0.4,0.2,1,0.2,1.8c0,0.9-0.1,1.6-0.3,2.1c-0.2,0.5-0.4,1-0.8,1.2
			c-0.4,0.3-0.8,0.4-1.4,0.4c-0.7,0-1.3-0.3-1.7-0.8C-383.1-35.5-383.3-36.5-383.3-37.9z M-382.4-37.9c0,1.2,0.1,2,0.4,2.4
			c0.3,0.4,0.6,0.6,1.1,0.6s0.8-0.2,1.1-0.6c0.3-0.4,0.4-1.2,0.4-2.4c0-1.2-0.1-2-0.4-2.4c-0.3-0.4-0.6-0.6-1.1-0.6
			c-0.4,0-0.8,0.2-1,0.5C-382.2-39.9-382.4-39.1-382.4-37.9z"/>
	</g>
	<g class="st2">
		<rect x="-430.9" y="-53.5" class="st5" width="59.6" height="7.2"/>
		<path class="st8" d="M-430.6-47.3l1.3-6.3h2.2c0.5,0,0.8,0,1,0c0.3,0,0.6,0.1,0.8,0.3c0.2,0.1,0.4,0.3,0.5,0.5
			c0.1,0.2,0.2,0.5,0.2,0.7c0,0.3-0.1,0.7-0.3,0.9c-0.2,0.3-0.5,0.5-0.9,0.6c0.3,0.1,0.6,0.2,0.8,0.5s0.3,0.5,0.3,0.8
			c0,0.4-0.1,0.7-0.3,1.1c-0.2,0.3-0.5,0.6-0.9,0.7s-0.9,0.2-1.5,0.2H-430.6z M-429.1-48.3h1.2c0.5,0,0.9,0,1.1-0.1
			c0.2-0.1,0.3-0.2,0.4-0.3c0.1-0.2,0.2-0.3,0.2-0.5c0-0.2-0.1-0.4-0.2-0.5c-0.2-0.1-0.4-0.2-0.8-0.2h-1.5L-429.1-48.3z M-428.5-51
			h1c0.4,0,0.8,0,1-0.1c0.2-0.1,0.3-0.2,0.4-0.3c0.1-0.1,0.1-0.3,0.1-0.5c0-0.2,0-0.3-0.1-0.4s-0.2-0.2-0.4-0.2c-0.1,0-0.3,0-0.7,0
			h-1L-428.5-51z"/>
		<path class="st8" d="M-424.2-47.3l1.3-6.3h4.7l-0.2,1.1h-3.4l-0.3,1.4h3.3l-0.2,1.1h-3.3l-0.4,1.7h3.7l-0.2,1.1H-424.2z"/>
		<path class="st8" d="M-413.3-47.3h-1.2l-1.7-4.2l-0.9,4.2h-1.2l1.3-6.3h1.2l1.7,4.2l0.9-4.2h1.2L-413.3-47.3z"/>
		<path class="st8" d="M-412-47.3l1.3-6.3h1.7c0.5,0,0.8,0,0.9,0c0.3,0,0.5,0.1,0.7,0.2c0.2,0.1,0.4,0.2,0.6,0.3s0.3,0.3,0.4,0.5
			s0.2,0.4,0.3,0.7c0.1,0.3,0.1,0.6,0.1,0.9c0,0.7-0.1,1.3-0.4,1.8c-0.3,0.5-0.6,0.9-1,1.3c-0.3,0.2-0.7,0.4-1.2,0.5
			c-0.3,0.1-0.7,0.1-1.2,0.1H-412z M-410.5-48.3h0.7c0.5,0,0.8,0,1-0.1c0.2-0.1,0.4-0.2,0.6-0.3c0.3-0.2,0.5-0.5,0.6-0.9
			c0.2-0.4,0.3-0.8,0.3-1.4c0-0.4-0.1-0.8-0.2-1s-0.3-0.4-0.5-0.4c-0.1-0.1-0.4-0.1-0.8-0.1h-0.8L-410.5-48.3z"/>
		<path class="st8" d="M-405.7-47.3l1.3-6.3h1.3l-1.3,6.3H-405.7z"/>
		<path class="st8" d="M-402.2-47.3h-1.7l2.8-3.2l-1.6-3.1h1.4l0.6,1.2c0,0,0.2,0.3,0.4,0.9c0,0,0,0.1,0.1,0.1
			c0.3-0.4,0.6-0.8,0.9-1l1-1.1h1.6l-2.9,3.3l1.5,3h-1.5l-0.5-0.9c-0.2-0.5-0.4-0.9-0.5-1.1c-0.1,0.2-0.4,0.5-0.9,1L-402.2-47.3z"/>
		<path class="st8" d="M-398.1-47.1l3.1-6.5h0.9l-3.1,6.5H-398.1z"/>
		<path class="st8" d="M-394.9-47.3l1.3-6.3h1.3l-0.6,2.7l2.9-2.7h1.7l-2.8,2.5l2.1,3.8h-1.5l-1.6-3l-1.2,1.1l-0.4,1.9H-394.9z"/>
		<path class="st8" d="M-388.6-47.3l1.3-6.3h1.3l-1.3,6.3H-388.6z"/>
		<path class="st8" d="M-381.1-47.3h-1.2l-1.7-4.2l-0.9,4.2h-1.2l1.3-6.3h1.2l1.7,4.2l0.9-4.2h1.2L-381.1-47.3z"/>
		<path class="st8" d="M-376.3-50.6h2.8l-0.6,2.7c-0.3,0.2-0.7,0.4-1.2,0.5c-0.5,0.1-1,0.2-1.5,0.2c-0.8,0-1.4-0.2-1.8-0.5
			c-0.6-0.5-0.9-1.2-0.9-2.1c0-0.6,0.1-1.2,0.4-1.8c0.3-0.7,0.7-1.2,1.2-1.6s1.2-0.6,1.9-0.6s1.3,0.2,1.7,0.5s0.7,0.8,0.9,1.5
			l-1.2,0.1c-0.1-0.4-0.3-0.6-0.5-0.8c-0.2-0.2-0.5-0.3-0.9-0.3c-0.4,0-0.8,0.1-1.2,0.3s-0.6,0.6-0.8,1c-0.2,0.5-0.3,1-0.3,1.5
			c0,0.5,0.1,0.9,0.4,1.2c0.2,0.3,0.6,0.4,1.1,0.4c0.3,0,0.6,0,0.9-0.1c0.3-0.1,0.5-0.2,0.8-0.3l0.2-0.9h-1.6L-376.3-50.6z"/>
	</g>
</g>
<g id="Outer_Knob_R" class="st0">
	<path class="st9" d="M126.7,35.5c0,17-13.8,30.9-30.9,30.9C78.8,66.4,65,52.6,65,35.5C65,18.5,78.8,4.6,95.8,4.6
		C112.9,4.6,126.7,18.5,126.7,35.5z"/>
	<g class="st2">
		<g>
			<path class="st10" d="M127.6,35.5c0,17.5-14.2,31.7-31.7,31.7c-17.5,0-31.7-14.2-31.7-31.7C64.1,18,78.3,3.8,95.8,3.8
				C113.4,3.8,127.6,18,127.6,35.5z"/>
		</g>
	</g>
</g>
<g id="Inner_Knob_R" class="st0">
	<g class="st2">
		<circle class="st11" cx="95.8" cy="35.5" r="20.8"/>
		<g>
			<path class="st12" d="M117.6,35.5c0,12-9.7,21.8-21.8,21.8s-21.8-9.7-21.8-21.8c0-12,9.7-21.8,21.8-21.8S117.6,23.5,117.6,35.5z"
				/>
		</g>
	</g>
</g>
<g id="BARO_Button">
	<path class="st13" d="M128.6-31.8c0,1.1-0.9,2-2,2H98.5c-1.1,0-2-0.9-2-2v-14.8c0-1.1,0.9-2,2-2h28.1c1.1,0,2,0.9,2,2V-31.8z"/>
	<g>
		<path d="M98.6-34.8v-7.9h2.8c0.6,0,1,0.1,1.3,0.2c0.3,0.2,0.6,0.4,0.8,0.7s0.3,0.7,0.3,1.1c0,0.4-0.1,0.7-0.3,1
			c-0.2,0.3-0.4,0.5-0.8,0.7c0.4,0.1,0.8,0.4,1,0.7c0.2,0.3,0.4,0.7,0.4,1.2c0,0.5-0.1,0.9-0.3,1.3s-0.5,0.6-0.9,0.8
			s-0.9,0.2-1.5,0.2H98.6z M99.6-39.4h1.6c0.4,0,0.7,0,0.9-0.1c0.3-0.1,0.5-0.2,0.6-0.4c0.1-0.2,0.2-0.4,0.2-0.7
			c0-0.3-0.1-0.5-0.2-0.7c-0.1-0.2-0.3-0.3-0.5-0.4c-0.2-0.1-0.6-0.1-1.1-0.1h-1.5V-39.4z M99.6-35.8h1.9c0.4,0,0.7,0,0.9-0.1
			c0.3-0.1,0.5-0.2,0.6-0.5s0.2-0.5,0.2-0.8c0-0.3-0.1-0.5-0.2-0.8s-0.3-0.4-0.6-0.5s-0.6-0.1-1.1-0.1h-1.7V-35.8z"/>
		<path d="M104.8-34.8l2.9-7.9h1.1l3,7.9h-1.1l-0.9-2.4h-3.1l-0.8,2.4H104.8z M106.9-38.1h2.5l-0.8-2.2c-0.2-0.7-0.4-1.2-0.5-1.6
			c-0.1,0.5-0.2,1-0.4,1.5L106.9-38.1z"/>
		<path d="M112.5-34.8v-7.9h3.3c0.7,0,1.2,0.1,1.5,0.2c0.3,0.1,0.6,0.4,0.8,0.7s0.3,0.7,0.3,1.2c0,0.6-0.2,1.1-0.5,1.4
			c-0.4,0.4-0.9,0.6-1.6,0.7c0.3,0.1,0.5,0.3,0.6,0.4c0.3,0.3,0.6,0.6,0.8,1l1.3,2.1h-1.2l-1-1.6c-0.4-0.6-0.7-1.1-0.9-1.3
			s-0.4-0.4-0.6-0.4s-0.4-0.1-0.8-0.1h-1.1v3.5H112.5z M113.5-39.2h2.1c0.5,0,0.8,0,1.1-0.1s0.4-0.2,0.6-0.5
			c0.1-0.2,0.2-0.5,0.2-0.7c0-0.4-0.1-0.7-0.4-0.9s-0.7-0.3-1.2-0.3h-2.4V-39.2z"/>
		<path d="M119.7-38.7c0-1.3,0.3-2.4,1-3.1s1.5-1.1,2.5-1.1c0.7,0,1.3,0.2,1.8,0.5s1,0.8,1.3,1.4s0.5,1.3,0.5,2.2
			c0,1.2-0.3,2.1-0.9,2.9c-0.7,0.8-1.6,1.2-2.6,1.2c-1.1,0-2-0.4-2.7-1.2C120-36.7,119.7-37.6,119.7-38.7z M120.8-38.7
			c0,1,0.2,1.7,0.7,2.3c0.5,0.5,1.1,0.8,1.8,0.8c0.7,0,1.3-0.3,1.8-0.8c0.5-0.5,0.7-1.3,0.7-2.4c0-0.7-0.1-1.3-0.4-1.8
			c-0.2-0.4-0.5-0.7-0.9-1c-0.4-0.2-0.8-0.4-1.3-0.4c-0.7,0-1.4,0.3-1.8,0.8C121-40.6,120.8-39.8,120.8-38.7z"/>
	</g>
</g>
<g id="ARM_Button">
	<path class="st13" d="M69.6-31.8c0,1.1-0.9,2-2,2H39.5c-1.1,0-2-0.9-2-2v-14.8c0-1.1,0.9-2,2-2h28.1c1.1,0,2,0.9,2,2V-31.8z"/>
	<g>
		<path d="M42-34.8l2.9-7.9h1.1l3,7.9h-1.1L47-37.2h-3.1L43-34.8H42z M44.1-38.1h2.5l-0.8-2.2c-0.2-0.7-0.4-1.2-0.5-1.6
			c-0.1,0.5-0.2,1-0.4,1.5L44.1-38.1z"/>
		<path d="M49.8-34.8v-7.9h3.3c0.7,0,1.2,0.1,1.5,0.2c0.3,0.1,0.6,0.4,0.8,0.7c0.2,0.3,0.3,0.7,0.3,1.2c0,0.6-0.2,1.1-0.5,1.4
			c-0.4,0.4-0.9,0.6-1.6,0.7c0.3,0.1,0.5,0.3,0.6,0.4c0.3,0.3,0.6,0.6,0.8,1l1.3,2.1h-1.2l-1-1.6c-0.4-0.6-0.7-1.1-0.9-1.3
			c-0.2-0.2-0.4-0.4-0.6-0.4c-0.2-0.1-0.4-0.1-0.8-0.1h-1.1v3.5H49.8z M50.7-39.2h2.1c0.5,0,0.8,0,1.1-0.1c0.2-0.1,0.4-0.2,0.6-0.5
			c0.1-0.2,0.2-0.5,0.2-0.7c0-0.4-0.1-0.7-0.4-0.9c-0.3-0.2-0.7-0.3-1.2-0.3h-2.4V-39.2z"/>
		<path d="M57.2-34.8v-7.9h1.5l1.8,5.6l0.4,1.2c0.1-0.3,0.2-0.7,0.4-1.3l1.8-5.5h1.3v7.9h-0.9v-6.6l-2.2,6.6h-0.9l-2.2-6.7v6.7H57.2
			z"/>
	</g>
</g>
<g id="DN_Button">
	<path class="st13" d="M32.6,65.2c0,1.1-0.9,2-2,2H2.5c-1.1,0-2-0.9-2-2V50.4c0-1.1,0.9-2,2-2h28.1c1.1,0,2,0.9,2,2V65.2z"/>
	<g>
		<path d="M9.8,62.2v-7.9h2.6c0.6,0,1.1,0,1.4,0.1c0.4,0.1,0.8,0.4,1.1,0.7c0.3,0.3,0.6,0.8,0.7,1.3s0.3,1.1,0.3,1.8
			c0,0.9-0.2,1.6-0.5,2.3c-0.3,0.6-0.7,1.1-1.2,1.3s-1.1,0.4-1.9,0.4H9.8z M10.8,61.2h1.6c0.6,0,1.1-0.1,1.5-0.3
			c0.3-0.2,0.6-0.5,0.8-0.9c0.2-0.5,0.4-1.2,0.4-1.9c0-0.8-0.1-1.4-0.4-1.9c-0.3-0.5-0.6-0.8-1-0.9c-0.3-0.1-0.7-0.2-1.3-0.2h-1.6
			V61.2z"/>
		<path d="M17.3,62.2v-7.9h1l3.9,6.2v-6.2h0.9v7.9h-1L18.3,56v6.2H17.3z"/>
	</g>
</g>
<g id="UP_Button">
	<path class="st13" d="M32.6,17.3c0,1.1-0.9,2-2,2H2.5c-1.1,0-2-0.9-2-2V2.5c0-1.1,0.9-2,2-2h28.1c1.1,0,2,0.9,2,2V17.3z"/>
	<g>
		<path d="M15.1,6.4h1v4.5c0,0.8-0.1,1.4-0.3,1.9c-0.2,0.5-0.5,0.9-0.9,1.2s-1,0.4-1.7,0.4c-1,0-1.7-0.3-2.2-0.8
			c-0.5-0.5-0.7-1.4-0.7-2.7V6.4h1v4.5c0,0.7,0.1,1.2,0.2,1.5c0.1,0.3,0.3,0.6,0.6,0.7c0.3,0.2,0.6,0.3,1.1,0.3
			c0.7,0,1.2-0.2,1.5-0.5s0.5-1,0.5-2V6.4z"/>
		<path d="M17.7,14.3V6.4h2.8c0.7,0,1.1,0,1.5,0.2c0.4,0.1,0.8,0.4,1,0.8c0.3,0.4,0.4,0.8,0.4,1.4c0,0.7-0.2,1.3-0.6,1.7
			c-0.4,0.4-1.1,0.7-2.2,0.7h-1.9v3.2H17.7z M18.7,10.1h1.9c0.6,0,1.1-0.1,1.3-0.4c0.3-0.2,0.4-0.6,0.4-1.1c0-0.3-0.1-0.6-0.2-0.8
			c-0.1-0.2-0.3-0.4-0.5-0.5c-0.2-0.1-0.6-0.1-1.1-0.1h-1.9V10.1z"/>
	</g>
</g>
<g id="ALT_Button">
	<path class="st13" d="M-19.4,69.3c0,1.1-0.9,2-2,2h-28.1c-1.1,0-2-0.9-2-2V54.5c0-1.1,0.9-2,2-2h28.1c1.1,0,2,0.9,2,2V69.3z"/>
	<g>
		<path d="M-44.5,66.3l2.9-7.9h1.1l3,7.9h-1.1l-0.9-2.4h-3.1l-0.8,2.4H-44.5z M-42.4,63h2.5l-0.8-2.2c-0.2-0.7-0.4-1.2-0.5-1.6
			c-0.1,0.5-0.2,1-0.4,1.5L-42.4,63z"/>
		<path d="M-36.8,66.3v-7.9h1v6.9h3.7v0.9H-36.8z"/>
		<path d="M-29.8,66.3v-6.9h-2.5v-0.9h5.9v0.9h-2.5v6.9H-29.8z"/>
	</g>
</g>
<g id="REV_Button">
	<path class="st13" d="M-79.4,69.3c0,1.1-0.9,2-2,2h-28.1c-1.1,0-2-0.9-2-2V54.5c0-1.1,0.9-2,2-2h28.1c1.1,0,2,0.9,2,2V69.3z"/>
	<g>
		<path d="M-105.3,66.3v-7.9h3.3c0.7,0,1.2,0.1,1.5,0.2c0.3,0.1,0.6,0.4,0.8,0.7c0.2,0.3,0.3,0.7,0.3,1.2c0,0.6-0.2,1.1-0.5,1.4
			c-0.4,0.4-0.9,0.6-1.6,0.7c0.3,0.1,0.5,0.3,0.6,0.4c0.3,0.3,0.6,0.6,0.8,1l1.3,2.1h-1.2l-1-1.6c-0.4-0.6-0.7-1.1-0.9-1.3
			c-0.2-0.2-0.4-0.4-0.6-0.4s-0.4-0.1-0.8-0.1h-1.1v3.5H-105.3z M-104.3,61.9h2.1c0.5,0,0.8,0,1.1-0.1c0.2-0.1,0.4-0.2,0.6-0.5
			c0.1-0.2,0.2-0.5,0.2-0.7c0-0.4-0.1-0.7-0.4-0.9c-0.3-0.2-0.7-0.3-1.2-0.3h-2.4V61.9z"/>
		<path d="M-97.8,66.3v-7.9h5.4v0.9h-4.4v2.4h4.1v0.9h-4.1v2.7h4.6v0.9H-97.8z"/>
		<path d="M-88.7,66.3l-2.9-7.9h1.1l1.9,5.7c0.1,0.4,0.3,0.9,0.4,1.3c0.1-0.4,0.2-0.9,0.4-1.3l2-5.7h1l-2.9,7.9H-88.7z"/>
	</g>
</g>
<g id="APR_Button">
	<path class="st13" d="M-146.4,69.3c0,1.1-0.9,2-2,2h-28.1c-1.1,0-2-0.9-2-2V54.5c0-1.1,0.9-2,2-2h28.1c1.1,0,2,0.9,2,2V69.3z"/>
	<g>
		<path d="M-173.1,66.3l2.9-7.9h1.1l3,7.9h-1.1l-0.9-2.4h-3.1l-0.8,2.4H-173.1z M-171,63h2.5l-0.8-2.2c-0.2-0.7-0.4-1.2-0.5-1.6
			c-0.1,0.5-0.2,1-0.4,1.5L-171,63z"/>
		<path d="M-165.4,66.3v-7.9h2.8c0.7,0,1.1,0,1.5,0.2c0.4,0.1,0.8,0.4,1,0.8c0.3,0.4,0.4,0.8,0.4,1.4c0,0.7-0.2,1.3-0.6,1.7
			c-0.4,0.4-1.1,0.7-2.2,0.7h-1.9v3.2H-165.4z M-164.4,62.1h1.9c0.6,0,1.1-0.1,1.3-0.4s0.4-0.6,0.4-1.1c0-0.3-0.1-0.6-0.2-0.8
			c-0.1-0.2-0.3-0.4-0.5-0.5c-0.2-0.1-0.6-0.1-1.1-0.1h-1.9V62.1z"/>
		<path d="M-158.4,66.3v-7.9h3.3c0.7,0,1.2,0.1,1.5,0.2c0.3,0.1,0.6,0.4,0.8,0.7s0.3,0.7,0.3,1.2c0,0.6-0.2,1.1-0.5,1.4
			c-0.4,0.4-0.9,0.6-1.6,0.7c0.3,0.1,0.5,0.3,0.6,0.4c0.3,0.3,0.6,0.6,0.8,1l1.3,2.1h-1.2l-1-1.6c-0.4-0.6-0.7-1.1-0.9-1.3
			s-0.4-0.4-0.6-0.4c-0.2-0.1-0.4-0.1-0.8-0.1h-1.1v3.5H-158.4z M-157.5,61.9h2.1c0.5,0,0.8,0,1.1-0.1c0.2-0.1,0.4-0.2,0.6-0.5
			c0.1-0.2,0.2-0.5,0.2-0.7c0-0.4-0.1-0.7-0.4-0.9s-0.7-0.3-1.2-0.3h-2.4V61.9z"/>
	</g>
</g>
<g id="Nav_Button">
	<path class="st13" d="M-215.4,69.3c0,1.1-0.9,2-2,2h-28.1c-1.1,0-2-0.9-2-2V54.5c0-1.1,0.9-2,2-2h28.1c1.1,0,2,0.9,2,2V69.3z"/>
	<g>
		<path d="M-241,66.3v-7.9h1l3.9,6.2v-6.2h0.9v7.9h-1l-3.9-6.2v6.2H-241z"/>
		<path d="M-234.2,66.3l2.9-7.9h1.1l3,7.9h-1.1l-0.9-2.4h-3.1l-0.8,2.4H-234.2z M-232.1,63h2.5l-0.8-2.2c-0.2-0.7-0.4-1.2-0.5-1.6
			c-0.1,0.5-0.2,1-0.4,1.5L-232.1,63z"/>
		<path d="M-225.1,66.3l-2.9-7.9h1.1l1.9,5.7c0.1,0.4,0.3,0.9,0.4,1.3c0.1-0.4,0.2-0.9,0.4-1.3l2-5.7h1l-2.9,7.9H-225.1z"/>
	</g>
</g>
<g id="HGD_Button">
	<path class="st13" d="M-283.6,69.3c0,1.1-0.9,2-2,2h-28.1c-1.1,0-2-0.9-2-2V54.5c0-1.1,0.9-2,2-2h28.1c1.1,0,2,0.9,2,2V69.3z"/>
	<g>
		<path d="M-310.4,66.3v-7.9h1v3.2h3.9v-3.2h1v7.9h-1v-3.7h-3.9v3.7H-310.4z"/>
		<path d="M-302.9,66.3v-7.9h2.6c0.6,0,1.1,0,1.4,0.1c0.4,0.1,0.8,0.4,1.1,0.7c0.3,0.3,0.6,0.8,0.7,1.3c0.2,0.5,0.3,1.1,0.3,1.8
			c0,0.9-0.2,1.6-0.5,2.3c-0.3,0.6-0.7,1.1-1.2,1.3c-0.5,0.3-1.1,0.4-1.9,0.4H-302.9z M-301.9,65.3h1.6c0.6,0,1.1-0.1,1.5-0.3
			c0.3-0.2,0.6-0.5,0.8-0.9c0.2-0.5,0.4-1.2,0.4-1.9c0-0.8-0.1-1.4-0.4-1.9c-0.3-0.5-0.6-0.8-1-0.9c-0.3-0.1-0.7-0.2-1.3-0.2h-1.6
			V65.3z"/>
		<path d="M-291.9,63.2v-0.9l3.2,0v2.9c-0.5,0.4-1,0.7-1.5,0.9s-1,0.3-1.6,0.3c-0.7,0-1.4-0.2-1.9-0.5s-1-0.8-1.4-1.4
			s-0.5-1.3-0.5-2.2c0-0.9,0.2-1.6,0.5-2.2s0.8-1.1,1.3-1.4c0.5-0.3,1.2-0.5,1.9-0.5c0.5,0,1,0.1,1.4,0.3c0.4,0.2,0.7,0.4,1,0.7
			s0.5,0.8,0.6,1.3l-0.9,0.3c-0.1-0.4-0.3-0.8-0.5-1c-0.2-0.2-0.4-0.4-0.7-0.5c-0.3-0.1-0.6-0.2-1-0.2c-0.5,0-1,0.1-1.4,0.3
			c-0.4,0.2-0.7,0.6-0.9,1.1c-0.2,0.5-0.4,1.1-0.4,1.8c0,1.1,0.3,1.8,0.8,2.4c0.5,0.5,1.2,0.8,2,0.8c0.4,0,0.8-0.1,1.2-0.2
			c0.4-0.2,0.7-0.4,1-0.6v-1.5H-291.9z"/>
	</g>
</g>
<g id="AP_Button">
	<path class="st13" d="M-387.5,70.3c0,1.1-0.9,2-2,2h-28.1c-1.1,0-2-0.9-2-2V55.5c0-1.1,0.9-2,2-2h28.1c1.1,0,2,0.9,2,2V70.3z"/>
	<g>
		<path d="M-411.1,67.3l2.9-7.9h1.1l3,7.9h-1.1l-0.9-2.4h-3.1l-0.8,2.4H-411.1z M-409,64h2.5l-0.8-2.2c-0.2-0.7-0.4-1.2-0.5-1.6
			c-0.1,0.5-0.2,1-0.4,1.5L-409,64z"/>
		<path d="M-403.4,67.3v-7.9h2.8c0.7,0,1.1,0,1.5,0.2c0.4,0.1,0.8,0.4,1,0.8c0.3,0.4,0.4,0.8,0.4,1.4c0,0.7-0.2,1.3-0.6,1.7
			c-0.4,0.4-1.1,0.7-2.2,0.7h-1.9v3.2H-403.4z M-402.4,63.1h1.9c0.6,0,1.1-0.1,1.3-0.4s0.4-0.6,0.4-1.1c0-0.3-0.1-0.6-0.2-0.8
			c-0.1-0.2-0.3-0.4-0.5-0.5c-0.2-0.1-0.6-0.1-1.1-0.1h-1.9V63.1z"/>
	</g>
</g>
<g id="Text" class="st0">
	<g class="st2">
		<rect x="-349.9" y="-44.1" class="st5" width="65" height="25.3"/>
		<path class="st14" d="M-344.4-32.3l-1.1,9.2l-1,0.8l-0.8-1l1.1-9.2l1-0.8L-344.4-32.3z M-336.1-21.7l0.8,1l-1,0.8l-9.1-1.1l-0.8-1
			l1-0.8L-336.1-21.7z M-343-43.6l-1.1,9.2l-1,0.8l-0.8-1l1.1-9.2l1-0.8L-343-43.6z M-339.7-32.2l0.3,1.4l-3.9,7.1l-1.2,0.5
			l-0.3-1.5l3.9-7L-339.7-32.2z M-333.4-44.4l0.8,1l-1,0.8l-9.1-1.1l-0.8-1l1-0.8L-333.4-44.4z M-334.4-42.1l0.3,1.4l-3.9,7.1
			l-1.2,0.5l-0.3-1.5l3.9-7L-334.4-42.1z M-333-30.9l-1.1,9.2l-1,0.8l-0.8-1l1.1-9.2l1-0.8L-333-30.9z M-331.7-42.2l-1.1,9.2l-1,0.8
			l-0.8-1l1.1-9.2l1-0.8L-331.7-42.2z"/>
		<path class="st14" d="M-322.8-32.3l-1.1,9.2l-1,0.8l-0.8-1l1.1-9.2l1-0.8L-322.8-32.3z M-314.5-21.7l0.8,1l-1,0.8l-9.1-1.1l-0.8-1
			l1-0.8L-314.5-21.7z M-321.4-43.6l-1.1,9.2l-1,0.8l-0.8-1l1.1-9.2l1-0.8L-321.4-43.6z M-318-32.2l0.3,1.4l-3.9,7.1l-1.2,0.5
			l-0.3-1.5l3.9-7L-318-32.2z M-311.8-44.4l0.8,1l-1,0.8l-9.1-1.1l-0.8-1l1-0.8L-311.8-44.4z M-312.8-42.1l0.3,1.4l-3.9,7.1
			l-1.2,0.5l-0.3-1.5l3.9-7L-312.8-42.1z M-311.4-30.9l-1.1,9.2l-1,0.8l-0.8-1l1.1-9.2l1-0.8L-311.4-30.9z M-310-42.2l-1.1,9.2
			l-1,0.8l-0.8-1l1.1-9.2l1-0.8L-310-42.2z"/>
		<path class="st14" d="M-301.2-32.3l-1.1,9.2l-1,0.8l-0.8-1l1.1-9.2l1-0.8L-301.2-32.3z M-292.9-21.7l0.8,1l-1,0.8l-9.1-1.1l-0.8-1
			l1-0.8L-292.9-21.7z M-299.8-43.6l-1.1,9.2l-1,0.8l-0.8-1l1.1-9.2l1-0.8L-299.8-43.6z M-296.4-32.2l0.3,1.4l-3.9,7.1l-1.2,0.5
			l-0.3-1.5l3.9-7L-296.4-32.2z M-290.2-44.4l0.8,1l-1,0.8l-9.1-1.1l-0.8-1l1-0.8L-290.2-44.4z M-291.2-42.1l0.3,1.4l-3.9,7.1
			l-1.2,0.5l-0.3-1.5l3.9-7L-291.2-42.1z M-289.8-30.9l-1.1,9.2l-1,0.8l-0.8-1l1.1-9.2l1-0.8L-289.8-30.9z M-288.4-42.2l-1.1,9.2
			l-1,0.8l-0.8-1l1.1-9.2l1-0.8L-288.4-42.2z"/>
	</g>
	<g class="st2">
		<rect x="-351.9" y="-10.1" class="st5" width="65" height="25.3"/>
		<path class="st14" d="M-348.2-9.1v9.3l-0.9,0.9l-0.9-0.9v-9.3l0.9-0.9L-348.2-9.1z M-348.2,2.4v9.3l-0.9,0.9l-0.9-0.9V2.4l0.9-0.9
			L-348.2,2.4z M-338.8-11.1l0.9,0.9l-0.9,0.9h-9.2l-0.9-0.9l0.9-0.9H-338.8z M-338.8,11.8l0.9,0.9l-0.9,0.9h-9.2l-0.9-0.9l0.9-0.9
			H-338.8z M-343.5,1.9l0.5,1.3l-3,7.5l-1.2,0.6l-0.5-1.4l3-7.4L-343.5,1.9z M-339.5-8.6l0.5,1.3l-3,7.5l-1.2,0.6l-0.5-1.4l3-7.4
			L-339.5-8.6z M-336.8-9.1v9.3l-0.9,0.9l-0.9-0.9v-9.3l0.9-0.9L-336.8-9.1z M-336.8,2.4v9.3l-0.9,0.9l-0.9-0.9V2.4l0.9-0.9
			L-336.8,2.4z"/>
		<path class="st14" d="M-325.4-9.1v9.3l-0.9,0.9l-0.9-0.9v-9.3l0.9-0.9L-325.4-9.1z M-325.4,2.4v9.3l-0.9,0.9l-0.9-0.9V2.4l0.9-0.9
			L-325.4,2.4z M-315.9-11.1l0.9,0.9l-0.9,0.9h-9.2l-0.9-0.9l0.9-0.9H-315.9z M-315.9,11.8l0.9,0.9l-0.9,0.9h-9.2l-0.9-0.9l0.9-0.9
			H-315.9z M-320.7,1.9l0.5,1.3l-3,7.5l-1.2,0.6l-0.5-1.4l3-7.4L-320.7,1.9z M-316.7-8.6l0.5,1.3l-3,7.5l-1.2,0.6l-0.5-1.4l3-7.4
			L-316.7-8.6z M-313.9-9.1v9.3l-0.9,0.9l-0.9-0.9v-9.3l0.9-0.9L-313.9-9.1z M-313.9,2.4v9.3l-0.9,0.9l-0.9-0.9V2.4l0.9-0.9
			L-313.9,2.4z"/>
		<path class="st14" d="M-302.5-9.1v9.3l-0.9,0.9l-0.9-0.9v-9.3l0.9-0.9L-302.5-9.1z M-302.5,2.4v9.3l-0.9,0.9l-0.9-0.9V2.4l0.9-0.9
			L-302.5,2.4z M-293.1-11.1l0.9,0.9l-0.9,0.9h-9.2l-0.9-0.9l0.9-0.9H-293.1z M-293,11.8l0.9,0.9l-0.9,0.9h-9.2l-0.9-0.9l0.9-0.9
			H-293z M-297.8,1.9l0.5,1.3l-3,7.5l-1.2,0.6l-0.5-1.4l3-7.4L-297.8,1.9z M-293.8-8.6l0.5,1.3l-3,7.5l-1.2,0.6l-0.5-1.4l3-7.4
			L-293.8-8.6z M-291.1-9.1v9.3l-0.9,0.9l-0.9-0.9v-9.3l0.9-0.9L-291.1-9.1z M-291.1,2.4v9.3l-0.9,0.9l-0.9-0.9V2.4l0.9-0.9
			L-291.1,2.4z"/>
	</g>
	<g class="st2">
		<rect x="-241.9" y="-44.1" class="st5" width="65" height="25.3"/>
		<path class="st14" d="M-236.4-32.3l-1.1,9.2l-1,0.8l-0.8-1l1.1-9.2l1-0.8L-236.4-32.3z M-228.1-21.7l0.8,1l-1,0.8l-9.1-1.1l-0.8-1
			l1-0.8L-228.1-21.7z M-235-43.6l-1.1,9.2l-1,0.8l-0.8-1l1.1-9.2l1-0.8L-235-43.6z M-231.7-32.2l0.3,1.4l-3.9,7.1l-1.2,0.5
			l-0.3-1.5l3.9-7L-231.7-32.2z M-225.4-44.4l0.8,1l-1,0.8l-9.1-1.1l-0.8-1l1-0.8L-225.4-44.4z M-226.4-42.1l0.3,1.4l-3.9,7.1
			l-1.2,0.5l-0.3-1.5l3.9-7L-226.4-42.1z M-225-30.9l-1.1,9.2l-1,0.8l-0.8-1l1.1-9.2l1-0.8L-225-30.9z M-223.7-42.2l-1.1,9.2l-1,0.8
			l-0.8-1l1.1-9.2l1-0.8L-223.7-42.2z"/>
		<path class="st14" d="M-214.8-32.3l-1.1,9.2l-1,0.8l-0.8-1l1.1-9.2l1-0.8L-214.8-32.3z M-206.5-21.7l0.8,1l-1,0.8l-9.1-1.1l-0.8-1
			l1-0.8L-206.5-21.7z M-213.4-43.6l-1.1,9.2l-1,0.8l-0.8-1l1.1-9.2l1-0.8L-213.4-43.6z M-210-32.2l0.3,1.4l-3.9,7.1l-1.2,0.5
			l-0.3-1.5l3.9-7L-210-32.2z M-203.8-44.4l0.8,1l-1,0.8l-9.1-1.1l-0.8-1l1-0.8L-203.8-44.4z M-204.8-42.1l0.3,1.4l-3.9,7.1
			l-1.2,0.5l-0.3-1.5l3.9-7L-204.8-42.1z M-203.4-30.9l-1.1,9.2l-1,0.8l-0.8-1l1.1-9.2l1-0.8L-203.4-30.9z M-202-42.2l-1.1,9.2
			l-1,0.8l-0.8-1l1.1-9.2l1-0.8L-202-42.2z"/>
		<path class="st14" d="M-193.2-32.3l-1.1,9.2l-1,0.8l-0.8-1l1.1-9.2l1-0.8L-193.2-32.3z M-184.9-21.7l0.8,1l-1,0.8l-9.1-1.1l-0.8-1
			l1-0.8L-184.9-21.7z M-191.8-43.6l-1.1,9.2l-1,0.8l-0.8-1l1.1-9.2l1-0.8L-191.8-43.6z M-188.4-32.2l0.3,1.4l-3.9,7.1l-1.2,0.5
			l-0.3-1.5l3.9-7L-188.4-32.2z M-182.2-44.4l0.8,1l-1,0.8l-9.1-1.1l-0.8-1l1-0.8L-182.2-44.4z M-183.2-42.1l0.3,1.4l-3.9,7.1
			l-1.2,0.5l-0.3-1.5l3.9-7L-183.2-42.1z M-181.8-30.9l-1.1,9.2l-1,0.8l-0.8-1l1.1-9.2l1-0.8L-181.8-30.9z M-180.4-42.2l-1.1,9.2
			l-1,0.8l-0.8-1l1.1-9.2l1-0.8L-180.4-42.2z"/>
	</g>
	<g class="st2">
		<rect x="-243.9" y="-10.1" class="st5" width="65" height="25.3"/>
		<path class="st14" d="M-240.2-9.1v9.3l-0.9,0.9l-0.9-0.9v-9.3l0.9-0.9L-240.2-9.1z M-240.2,2.4v9.3l-0.9,0.9l-0.9-0.9V2.4l0.9-0.9
			L-240.2,2.4z M-230.8-11.1l0.9,0.9l-0.9,0.9h-9.2l-0.9-0.9l0.9-0.9H-230.8z M-230.8,11.8l0.9,0.9l-0.9,0.9h-9.2l-0.9-0.9l0.9-0.9
			H-230.8z M-235.5,1.9l0.5,1.3l-3,7.5l-1.2,0.6l-0.5-1.4l3-7.4L-235.5,1.9z M-231.5-8.6l0.5,1.3l-3,7.5l-1.2,0.6l-0.5-1.4l3-7.4
			L-231.5-8.6z M-228.8-9.1v9.3l-0.9,0.9l-0.9-0.9v-9.3l0.9-0.9L-228.8-9.1z M-228.8,2.4v9.3l-0.9,0.9l-0.9-0.9V2.4l0.9-0.9
			L-228.8,2.4z"/>
		<path class="st14" d="M-217.4-9.1v9.3l-0.9,0.9l-0.9-0.9v-9.3l0.9-0.9L-217.4-9.1z M-217.4,2.4v9.3l-0.9,0.9l-0.9-0.9V2.4l0.9-0.9
			L-217.4,2.4z M-207.9-11.1l0.9,0.9l-0.9,0.9h-9.2l-0.9-0.9l0.9-0.9H-207.9z M-207.9,11.8l0.9,0.9l-0.9,0.9h-9.2l-0.9-0.9l0.9-0.9
			H-207.9z M-212.7,1.9l0.5,1.3l-3,7.5l-1.2,0.6l-0.5-1.4l3-7.4L-212.7,1.9z M-208.7-8.6l0.5,1.3l-3,7.5l-1.2,0.6l-0.5-1.4l3-7.4
			L-208.7-8.6z M-205.9-9.1v9.3l-0.9,0.9l-0.9-0.9v-9.3l0.9-0.9L-205.9-9.1z M-205.9,2.4v9.3l-0.9,0.9l-0.9-0.9V2.4l0.9-0.9
			L-205.9,2.4z"/>
		<path class="st14" d="M-194.5-9.1v9.3l-0.9,0.9l-0.9-0.9v-9.3l0.9-0.9L-194.5-9.1z M-194.5,2.4v9.3l-0.9,0.9l-0.9-0.9V2.4l0.9-0.9
			L-194.5,2.4z M-185.1-11.1l0.9,0.9l-0.9,0.9h-9.2l-0.9-0.9l0.9-0.9H-185.1z M-185,11.8l0.9,0.9l-0.9,0.9h-9.2l-0.9-0.9l0.9-0.9
			H-185z M-189.8,1.9l0.5,1.3l-3,7.5l-1.2,0.6l-0.5-1.4l3-7.4L-189.8,1.9z M-185.8-8.6l0.5,1.3l-3,7.5l-1.2,0.6l-0.5-1.4l3-7.4
			L-185.8-8.6z M-183.1-9.1v9.3l-0.9,0.9l-0.9-0.9v-9.3l0.9-0.9L-183.1-9.1z M-183.1,2.4v9.3l-0.9,0.9l-0.9-0.9V2.4l0.9-0.9
			L-183.1,2.4z"/>
	</g>
	<g class="st2">
		<rect x="-132.1" y="-44.1" class="st5" width="111.2" height="25.3"/>
		<path class="st14" d="M-126.6-32.3l-1.1,9.2l-1,0.8l-0.8-1l1.1-9.2l1-0.8L-126.6-32.3z M-118.4-21.7l0.8,1l-1,0.8l-9.1-1.1l-0.8-1
			l1-0.8L-118.4-21.7z M-125.2-43.6l-1.1,9.2l-1,0.8l-0.8-1l1.1-9.2l1-0.8L-125.2-43.6z M-121.9-32.2l0.3,1.4l-3.9,7.1l-1.2,0.5
			l-0.3-1.5l3.9-7L-121.9-32.2z M-115.7-44.4l0.8,1l-1,0.8l-9.1-1.1l-0.8-1l1-0.8L-115.7-44.4z M-116.7-42.1l0.3,1.4l-3.9,7.1
			l-1.2,0.5l-0.3-1.5l3.9-7L-116.7-42.1z M-115.3-30.9l-1.1,9.2l-1,0.8l-0.8-1l1.1-9.2l1-0.8L-115.3-30.9z M-113.9-42.2L-115-33
			l-1,0.8l-0.8-1l1.1-9.2l1-0.8L-113.9-42.2z"/>
		<path class="st14" d="M-105-32.3l-1.1,9.2l-1,0.8l-0.8-1l1.1-9.2l1-0.8L-105-32.3z M-96.8-21.7l0.8,1l-1,0.8l-9.1-1.1l-0.8-1
			l1-0.8L-96.8-21.7z M-103.6-43.6l-1.1,9.2l-1,0.8l-0.8-1l1.1-9.2l1-0.8L-103.6-43.6z M-100.3-32.2l0.3,1.4l-3.9,7.1l-1.2,0.5
			l-0.3-1.5l3.9-7L-100.3-32.2z M-94.1-44.4l0.8,1l-1,0.8l-9.1-1.1l-0.8-1l1-0.8L-94.1-44.4z M-95.1-42.1l0.3,1.4l-3.9,7.1l-1.2,0.5
			l-0.3-1.5l3.9-7L-95.1-42.1z M-93.7-30.9l-1.1,9.2l-1,0.8l-0.8-1l1.1-9.2l1-0.8L-93.7-30.9z M-92.3-42.2l-1.1,9.2l-1,0.8l-0.8-1
			l1.1-9.2l1-0.8L-92.3-42.2z"/>
		<path class="st14" d="M-83.4-32.3l-1.1,9.2l-1,0.8l-0.8-1l1.1-9.2l1-0.8L-83.4-32.3z M-75.2-21.7l0.8,1l-1,0.8l-9.1-1.1l-0.8-1
			l1-0.8L-75.2-21.7z M-82-43.6l-1.1,9.2l-1,0.8l-0.8-1l1.1-9.2l1-0.8L-82-43.6z M-78.7-32.2l0.3,1.4l-3.9,7.1l-1.2,0.5l-0.3-1.5
			l3.9-7L-78.7-32.2z M-72.4-44.4l0.8,1l-1,0.8l-9.1-1.1l-0.8-1l1-0.8L-72.4-44.4z M-73.4-42.1l0.3,1.4l-3.9,7.1l-1.2,0.5l-0.3-1.5
			l3.9-7L-73.4-42.1z M-72.1-30.9l-1.1,9.2l-1,0.8l-0.8-1l1.1-9.2l1-0.8L-72.1-30.9z M-70.7-42.2l-1.1,9.2l-1,0.8l-0.8-1l1.1-9.2
			l1-0.8L-70.7-42.2z"/>
		<path class="st14" d="M-61.8-32.3l-1.1,9.2l-1,0.8l-0.8-1l1.1-9.2l1-0.8L-61.8-32.3z M-53.6-21.7l0.8,1l-1,0.8l-9.1-1.1l-0.8-1
			l1-0.8L-53.6-21.7z M-60.4-43.6l-1.1,9.2l-1,0.8l-0.8-1l1.1-9.2l1-0.8L-60.4-43.6z M-57.1-32.2l0.3,1.4l-3.9,7.1l-1.2,0.5
			l-0.3-1.5l3.9-7L-57.1-32.2z M-50.8-44.4l0.8,1l-1,0.8l-9.1-1.1l-0.8-1l1-0.8L-50.8-44.4z M-51.8-42.1l0.3,1.4l-3.9,7.1l-1.2,0.5
			l-0.3-1.5l3.9-7L-51.8-42.1z M-50.5-30.9l-1.1,9.2l-1,0.8l-0.8-1l1.1-9.2l1-0.8L-50.5-30.9z M-49.1-42.2l-1.1,9.2l-1,0.8l-0.8-1
			l1.1-9.2l1-0.8L-49.1-42.2z"/>
		<path class="st14" d="M-40.2-32.3l-1.1,9.2l-1,0.8l-0.8-1l1.1-9.2l1-0.8L-40.2-32.3z M-31.9-21.7l0.8,1l-1,0.8l-9.1-1.1l-0.8-1
			l1-0.8L-31.9-21.7z M-38.8-43.6l-1.1,9.2l-1,0.8l-0.8-1l1.1-9.2l1-0.8L-38.8-43.6z M-35.5-32.2l0.3,1.4l-3.9,7.1l-1.2,0.5
			l-0.3-1.5l3.9-7L-35.5-32.2z M-29.2-44.4l0.8,1l-1,0.8l-9.1-1.1l-0.8-1l1-0.8L-29.2-44.4z M-30.2-42.1l0.3,1.4l-3.9,7.1l-1.2,0.5
			l-0.3-1.5l3.9-7L-30.2-42.1z M-28.8-30.9l-1.1,9.2l-1,0.8l-0.8-1l1.1-9.2l1-0.8L-28.8-30.9z M-27.5-42.2l-1.1,9.2l-1,0.8l-0.8-1
			l1.1-9.2l1-0.8L-27.5-42.2z"/>
	</g>
</g>
<g id="R_Flag" class="st0">
	<g class="st2">
		<rect x="-398" y="32.4" class="st5" width="12.6" height="13.5"/>
		<path class="st15" d="M-397.1,41v-8.6h3.7c0.9,0,1.6,0.1,2,0.2s0.7,0.4,1,0.8s0.4,0.8,0.4,1.4c0,0.6-0.2,1.2-0.6,1.6
			s-0.9,0.7-1.7,0.8c0.4,0.2,0.7,0.5,0.9,0.7s0.6,0.7,1,1.4l1,1.7h-2.1l-1.3-1.9c-0.4-0.7-0.8-1.1-0.9-1.3s-0.3-0.3-0.5-0.4
			s-0.5-0.1-0.9-0.1h-0.4V41H-397.1z M-395.4,36h1.3c0.8,0,1.4,0,1.6-0.1s0.4-0.2,0.5-0.4s0.2-0.4,0.2-0.6c0-0.3-0.1-0.5-0.2-0.7
			s-0.4-0.3-0.7-0.3c-0.1,0-0.6,0-1.3,0h-1.4V36z"/>
	</g>
</g>
<g id="P_Flag" class="st0">
	<g class="st2">
		<rect x="-416.9" y="32.4" class="st5" width="10" height="13.5"/>
		<path class="st15" d="M-416,41v-8.6h2.8c1.1,0,1.7,0,2.1,0.1c0.5,0.1,0.9,0.4,1.2,0.8s0.5,1,0.5,1.7c0,0.5-0.1,1-0.3,1.3
			s-0.4,0.6-0.7,0.8s-0.6,0.3-0.9,0.4c-0.4,0.1-1,0.1-1.8,0.1h-1.1V41H-416z M-414.3,33.8v2.4h0.9c0.7,0,1.1,0,1.4-0.1
			s0.4-0.2,0.5-0.4s0.2-0.4,0.2-0.7c0-0.3-0.1-0.6-0.3-0.8s-0.4-0.3-0.7-0.4c-0.2,0-0.6-0.1-1.2-0.1H-414.3z"/>
	</g>
</g>
<g id="L_Arm_Flag" class="st0">
	<g class="st2">
		<rect x="-282.9" y="-20.5" class="st5" width="9" height="37.5"/>
		<path class="st14" d="M-281.4-11.1l3-7.9h1.1l3.2,7.9h-1.2l-0.9-2.4h-3.3l-0.9,2.4H-281.4z M-279.2-14.3h2.7l-0.8-2.2
			c-0.3-0.7-0.4-1.2-0.6-1.6c-0.1,0.5-0.2,1-0.4,1.5L-279.2-14.3z"/>
		<path class="st14" d="M-280.9,1.6v-7.9h3.5c0.7,0,1.2,0.1,1.6,0.2c0.4,0.1,0.7,0.4,0.9,0.7s0.3,0.8,0.3,1.2c0,0.6-0.2,1-0.5,1.4
			s-0.9,0.6-1.7,0.7c0.3,0.1,0.5,0.3,0.6,0.4c0.3,0.3,0.6,0.6,0.9,1l1.4,2.1h-1.3l-1-1.6c-0.3-0.5-0.6-0.8-0.8-1.1
			c-0.2-0.3-0.4-0.4-0.5-0.5c-0.2-0.1-0.3-0.2-0.5-0.2c-0.1,0-0.3,0-0.6,0h-1.2v3.5H-280.9z M-279.8-2.8h2.2c0.5,0,0.8,0,1.1-0.1
			c0.3-0.1,0.5-0.3,0.6-0.5c0.1-0.2,0.2-0.5,0.2-0.7c0-0.4-0.1-0.7-0.4-0.9s-0.7-0.4-1.3-0.4h-2.5V-2.8z"/>
		<path class="st14" d="M-281.5,14.3V6.4h1.6l1.9,5.6c0.2,0.5,0.3,0.9,0.4,1.2c0.1-0.3,0.2-0.7,0.4-1.3l1.9-5.5h1.4v7.9h-1V7.7
			l-2.3,6.6h-0.9l-2.3-6.7v6.7H-281.5z"/>
	</g>
</g>
<g id="R_Arm_Flag" class="st0">
	<g class="st2">
		<rect x="-177.9" y="-21.2" class="st5" width="9" height="37.5"/>
		<path class="st14" d="M-176.4-11.8l3-7.9h1.1l3.2,7.9h-1.2l-0.9-2.4h-3.3l-0.9,2.4H-176.4z M-174.2-15h2.7l-0.8-2.2
			c-0.3-0.7-0.4-1.2-0.6-1.6c-0.1,0.5-0.2,1-0.4,1.5L-174.2-15z"/>
		<path class="st14" d="M-175.9,0.9V-7h3.5c0.7,0,1.2,0.1,1.6,0.2c0.4,0.1,0.7,0.4,0.9,0.7s0.3,0.8,0.3,1.2c0,0.6-0.2,1-0.5,1.4
			s-0.9,0.6-1.7,0.7c0.3,0.1,0.5,0.3,0.6,0.4c0.3,0.3,0.6,0.6,0.9,1l1.4,2.1h-1.3l-1-1.6c-0.3-0.5-0.6-0.8-0.8-1.1
			c-0.2-0.3-0.4-0.4-0.5-0.5c-0.2-0.1-0.3-0.2-0.5-0.2c-0.1,0-0.3,0-0.6,0h-1.2v3.5H-175.9z M-174.8-3.5h2.2c0.5,0,0.8,0,1.1-0.1
			c0.3-0.1,0.5-0.3,0.6-0.5c0.1-0.2,0.2-0.5,0.2-0.7c0-0.4-0.1-0.7-0.4-0.9s-0.7-0.4-1.3-0.4h-2.5V-3.5z"/>
		<path class="st14" d="M-176.5,13.6V5.7h1.6l1.9,5.6c0.2,0.5,0.3,0.9,0.4,1.2c0.1-0.3,0.2-0.7,0.4-1.3l1.9-5.5h1.4v7.9h-1V7
			l-2.3,6.6h-0.9l-2.3-6.7v6.7H-176.5z"/>
	</g>
</g>
<g id="PT_Down" class="st0">
	<polygon class="st16" points="-156.3,1.6 -152.1,12.2 -148,1.6 	"/>
</g>
<g id="PT_Up" class="st0">
	<polygon class="st16" points="-156.3,-31.5 -152.1,-42.1 -148,-31.5 	"/>
</g>
<g id="PT_Flag" class="st0">
	<g class="st2">
		<rect x="-157.4" y="-27.5" class="st5" width="9" height="26.7"/>
		<path class="st14" d="M-155.1-18v-7.9h3c0.5,0,0.9,0,1.2,0.1c0.4,0.1,0.7,0.2,1,0.4c0.3,0.2,0.5,0.4,0.6,0.8s0.2,0.7,0.2,1.1
			c0,0.7-0.2,1.2-0.6,1.7c-0.4,0.5-1.2,0.7-2.3,0.7h-2v3.2H-155.1z M-154.1-22.2h2c0.7,0,1.2-0.1,1.4-0.4s0.4-0.6,0.4-1.1
			c0-0.3-0.1-0.6-0.3-0.8c-0.2-0.2-0.4-0.4-0.7-0.5c-0.2,0-0.5-0.1-1-0.1h-2V-22.2z"/>
		<path class="st14" d="M-152.8-5.4v-6.9h-2.6v-0.9h6.2v0.9h-2.6v6.9H-152.8z"/>
	</g>
</g>
<g id="FPM_Flag" class="st0">
	<g class="st2">
		<rect x="-75.9" y="-10.9" class="st5" width="26.8" height="8.4"/>
		<path class="st14" d="M-75-3v-7.9h5.3v0.9H-74v2.4h3.7v0.9H-74V-3H-75z"/>
		<path class="st14" d="M-66.7-3v-7.9h3c0.5,0,0.9,0,1.2,0.1c0.4,0.1,0.7,0.2,1,0.4c0.3,0.2,0.5,0.4,0.6,0.8s0.2,0.7,0.2,1.1
			c0,0.7-0.2,1.2-0.6,1.7c-0.4,0.5-1.2,0.7-2.3,0.7h-2V-3H-66.7z M-65.6-7.1h2c0.7,0,1.2-0.1,1.4-0.4s0.4-0.6,0.4-1.1
			c0-0.3-0.1-0.6-0.3-0.8c-0.2-0.2-0.4-0.4-0.7-0.5c-0.2,0-0.5-0.1-1-0.1h-2V-7.1z"/>
		<path class="st14" d="M-57.7-3v-7.9h1.6l1.9,5.6c0.2,0.5,0.3,0.9,0.4,1.2c0.1-0.3,0.2-0.7,0.4-1.3l1.9-5.5h1.4V-3h-1v-6.6L-53.5-3
			h-0.9l-2.3-6.7V-3H-57.7z"/>
	</g>
</g>
<g id="ALERT_Flag" class="st0">
	<g class="st2">
		<rect x="-130.7" y="-10.9" class="st5" width="43.8" height="8.4"/>
		<path class="st14" d="M-130.7-3l3-7.9h1.1l3.2,7.9h-1.2l-0.9-2.4h-3.3l-0.9,2.4H-130.7z M-128.4-6.2h2.7l-0.8-2.2
			c-0.3-0.7-0.4-1.2-0.6-1.6c-0.1,0.5-0.2,1-0.4,1.5L-128.4-6.2z"/>
		<path class="st14" d="M-120.8-3v-7.9h1v6.9h3.9V-3H-120.8z"/>
		<path class="st14" d="M-113-3v-7.9h5.7v0.9h-4.7v2.4h4.4v0.9h-4.4v2.7h4.8V-3H-113z"/>
		<path class="st14" d="M-104-3v-7.9h3.5c0.7,0,1.2,0.1,1.6,0.2c0.4,0.1,0.7,0.4,0.9,0.7s0.3,0.8,0.3,1.2c0,0.6-0.2,1-0.5,1.4
			s-0.9,0.6-1.7,0.7c0.3,0.1,0.5,0.3,0.6,0.4c0.3,0.3,0.6,0.6,0.9,1l1.4,2.1h-1.3l-1-1.6c-0.3-0.5-0.6-0.8-0.8-1.1
			c-0.2-0.3-0.4-0.4-0.5-0.5c-0.2-0.1-0.3-0.2-0.5-0.2c-0.1,0-0.3,0-0.6,0h-1.2V-3H-104z M-103-7.4h2.2c0.5,0,0.8,0,1.1-0.1
			c0.3-0.1,0.5-0.3,0.6-0.5c0.1-0.2,0.2-0.5,0.2-0.7c0-0.4-0.1-0.7-0.4-0.9s-0.7-0.4-1.3-0.4h-2.5V-7.4z"/>
		<path class="st14" d="M-92.6-3v-6.9h-2.6v-0.9h6.2v0.9h-2.6V-3H-92.6z"/>
	</g>
</g>
<g id="HPA_Flag" class="st0">
	<g class="st2">
		<rect x="-114.9" y="2.7" class="st5" width="25.8" height="8.4"/>
		<path class="st14" d="M-114,10.6V2.7h1V6h4.1V2.7h1v7.9h-1V6.9h-4.1v3.7H-114z"/>
		<path class="st14" d="M-104.5,10.6V2.7h3c0.5,0,0.9,0,1.2,0.1c0.4,0.1,0.7,0.2,1,0.4c0.3,0.2,0.5,0.4,0.6,0.8s0.2,0.7,0.2,1.1
			c0,0.7-0.2,1.2-0.6,1.7c-0.4,0.5-1.2,0.7-2.3,0.7h-2v3.2H-104.5z M-103.4,6.5h2c0.7,0,1.2-0.1,1.4-0.4s0.4-0.6,0.4-1.1
			c0-0.3-0.1-0.6-0.3-0.8c-0.2-0.2-0.4-0.4-0.7-0.5c-0.2,0-0.5-0.1-1-0.1h-2V6.5z"/>
		<path class="st14" d="M-97.2,10.6l3-7.9h1.1l3.2,7.9H-91l-0.9-2.4h-3.3l-0.9,2.4H-97.2z M-94.9,7.4h2.7L-93,5.2
			c-0.3-0.7-0.4-1.2-0.6-1.6c-0.1,0.5-0.2,1-0.4,1.5L-94.9,7.4z"/>
	</g>
</g>
<g id="IN_HG_Flag" class="st0">
	<g class="st2">
		<rect x="-62.5" y="2.7" class="st5" width="15.8" height="8.4"/>
		<path class="st14" d="M-61.5,10.6V2.7h1v7.9H-61.5z"/>
		<path class="st14" d="M-57,10.6V2.7h1.1l4.1,6.2V2.7h1v7.9h-1.1L-56,4.4v6.2H-57z"/>
	</g>
	<g class="st2">
		<rect x="-43.4" y="2.7" class="st5" width="19.7" height="8.4"/>
		<path class="st14" d="M-42.5,10.6V2.7h1V6h4.1V2.7h1v7.9h-1V6.9h-4.1v3.7H-42.5z"/>
		<path class="st14" d="M-29.3,7.5V6.6l3.3,0v2.9c-0.5,0.4-1,0.7-1.6,0.9c-0.5,0.2-1.1,0.3-1.7,0.3c-0.8,0-1.5-0.2-2.1-0.5
			c-0.6-0.3-1.1-0.8-1.4-1.4s-0.5-1.3-0.5-2.1c0-0.8,0.2-1.5,0.5-2.1c0.3-0.7,0.8-1.2,1.4-1.5s1.3-0.5,2.1-0.5
			c0.6,0,1.1,0.1,1.5,0.3c0.5,0.2,0.8,0.4,1.1,0.8s0.5,0.8,0.6,1.3L-27,5.2c-0.1-0.4-0.3-0.7-0.4-0.9s-0.4-0.4-0.8-0.6
			c-0.3-0.1-0.7-0.2-1.1-0.2c-0.5,0-0.9,0.1-1.2,0.2c-0.3,0.1-0.6,0.3-0.8,0.6s-0.4,0.5-0.5,0.8c-0.2,0.5-0.3,1-0.3,1.6
			c0,0.7,0.1,1.3,0.4,1.8c0.2,0.5,0.6,0.8,1.1,1.1c0.5,0.2,1,0.3,1.5,0.3c0.5,0,0.9-0.1,1.3-0.3c0.4-0.2,0.8-0.4,1-0.6V7.5H-29.3z"
			/>
	</g>
</g>
<g id="FT_Flag" class="st0">
	<g class="st2">
		<rect x="-43.4" y="-10.9" class="st5" width="15.8" height="8.4"/>
		<path class="st14" d="M-42.5-3v-7.9h5.3v0.9h-4.3v2.4h3.7v0.9h-3.7V-3H-42.5z"/>
		<path class="st14" d="M-32.2-3v-6.9h-2.6v-0.9h6.2v0.9h-2.6V-3H-32.2z"/>
	</g>
</g>
<g id="AP_Flag" class="st0">
	<g class="st2">
		<rect x="-267.2" y="-39.9" class="st5" width="16.8" height="8.4"/>
		<path class="st14" d="M-267.2-32l3-7.9h1.1l3.2,7.9h-1.2l-0.9-2.4h-3.3l-0.9,2.4H-267.2z M-264.9-35.2h2.7l-0.8-2.2
			c-0.3-0.7-0.4-1.2-0.6-1.6c-0.1,0.5-0.2,1-0.4,1.5L-264.9-35.2z"/>
		<path class="st14" d="M-257.3-32v-7.9h3c0.5,0,0.9,0,1.2,0.1c0.4,0.1,0.7,0.2,1,0.4c0.3,0.2,0.5,0.4,0.6,0.8s0.2,0.7,0.2,1.1
			c0,0.7-0.2,1.2-0.6,1.7c-0.4,0.5-1.2,0.7-2.3,0.7h-2v3.2H-257.3z M-256.3-36.1h2c0.7,0,1.2-0.1,1.4-0.4s0.4-0.6,0.4-1.1
			c0-0.3-0.1-0.6-0.3-0.8c-0.2-0.2-0.4-0.4-0.7-0.5c-0.2,0-0.5-0.1-1-0.1h-2V-36.1z"/>
	</g>
	<polygon class="st16" points="-250.6,-42.1 -267.6,-42.1 -269.1,-43.6 -249.3,-43.6 	"/>
	<polygon class="st16" points="-250.3,-29 -267.3,-29 -268.8,-27.5 -249,-27.5 	"/>
	<polygon class="st16" points="-249.6,-41.6 -249.6,-29.7 -248.1,-28.7 -248.1,-42.6 	"/>
	<polygon class="st16" points="-268.5,-41.6 -268.5,-29.7 -270,-28.7 -270,-42.6 	"/>
</g>
</svg>
