<?xml version="1.0" encoding="utf-8"?>
<!-- Generator: Adobe Illustrator 19.0.0, SVG Export Plug-In . SVG Version: 6.00 Build 0)  -->
<svg version="1.1" xmlns="http://www.w3.org/2000/svg" xmlns:xlink="http://www.w3.org/1999/xlink" x="0px" y="0px"
	 viewBox="0 0 600.4 163" style="enable-background:new 0 0 600.4 163;" xml:space="preserve">
<style type="text/css">
	.st0{display:none;}
	.st1{display:inline;fill:#282828;stroke:#E5E5E5;stroke-width:2;stroke-miterlimit:10;}
	.st2{display:inline;}
	.st3{display:inline;fill:#58595B;}
	.st4{display:inline;fill:none;stroke:#414042;stroke-width:2;stroke-miterlimit:10;}
	.st5{fill:none;}
	.st6{fill:#414042;}
	.st7{display:inline;fill:none;stroke:#FFFFFF;stroke-miterlimit:10;}
	.st8{fill:#FFFFFF;}
	.st9{display:inline;fill:#3F403F;stroke:#000000;stroke-miterlimit:10;}
	.st10{fill:none;stroke:#000000;stroke-width:1.5;stroke-miterlimit:10;stroke-dasharray:1.5093,1.5093;}
	.st11{fill:#3F403F;stroke:#000000;stroke-width:2;stroke-miterlimit:10;}
	.st12{fill:none;stroke:#000000;stroke-width:1.5;stroke-miterlimit:10;stroke-dasharray:1.5898,1.5898;}
	.st13{display:inline;fill:#FFFFFF;stroke:#FFFFFF;stroke-miterlimit:10;}
	.st14{fill:#F7941E;}
	.st15{fill:#ED1C24;}
	.st16{display:inline;fill:#F7941E;}
</style>
<g id="Layer_1" class="st0">
	<path id="XMLID_814_" class="st1" d="M595,157.6H8.3c-1.7,0-3-0.9-3-2V5.6c0-1.1,1.3-2,3-2H595c1.7,0,3,0.9,3,2v150
		C598,156.8,596.6,157.6,595,157.6z"/>
</g>
<g id="Base" class="st0">
	<path class="st2" d="M424.3,79.5c0,4.3-2.1,7.8-4.7,7.8H98.1c-2.6,0-4.7-3.5-4.7-7.8V27.1c0-4.3,2.1-7.8,4.7-7.8h321.5
		c2.6,0,4.7,3.5,4.7,7.8V79.5z"/>
	<circle class="st3" cx="461.8" cy="38.2" r="5.7"/>
	<line class="st4" x1="456.1" y1="38.2" x2="467.5" y2="38.2"/>
	<g class="st2">
		<rect x="47.2" y="99.5" class="st5" width="12.6" height="13.5"/>
		<path class="st6" d="M48.1,108.1v-8.6h3.7c0.9,0,1.6,0.1,2,0.2s0.7,0.4,1,0.8s0.4,0.8,0.4,1.4c0,0.6-0.2,1.2-0.6,1.6
			s-0.9,0.7-1.7,0.8c0.4,0.2,0.7,0.5,0.9,0.7s0.6,0.7,1,1.4l1,1.7h-2.1l-1.3-1.9c-0.4-0.7-0.8-1.1-0.9-1.3s-0.3-0.3-0.5-0.4
			s-0.5-0.1-0.9-0.1h-0.4v3.6H48.1z M49.8,103.1h1.3c0.8,0,1.4,0,1.6-0.1s0.4-0.2,0.5-0.4s0.2-0.4,0.2-0.6c0-0.3-0.1-0.5-0.2-0.7
			s-0.4-0.3-0.7-0.3c-0.1,0-0.6,0-1.3,0h-1.4V103.1z"/>
	</g>
	<g class="st2">
		<rect x="28.4" y="99.5" class="st5" width="10" height="13.5"/>
		<path class="st6" d="M29.2,108.1v-8.6H32c1.1,0,1.7,0,2.1,0.1c0.5,0.1,0.9,0.4,1.2,0.8s0.5,1,0.5,1.7c0,0.5-0.1,1-0.3,1.3
			s-0.4,0.6-0.7,0.8s-0.6,0.3-0.9,0.4c-0.4,0.1-1,0.1-1.8,0.1H31v3.2H29.2z M31,100.9v2.4h0.9c0.7,0,1.1,0,1.4-0.1s0.4-0.2,0.5-0.4
			s0.2-0.4,0.2-0.7c0-0.3-0.1-0.6-0.3-0.8s-0.4-0.3-0.7-0.4c-0.2,0-0.6-0.1-1.2-0.1H31z"/>
	</g>
	<path class="st7" d="M482.7,136.4c0,2.8-1.9,5.1-4.3,5.1H444c-2.4,0-4.3-2.3-4.3-5.1V65.5c0-2.8,1.9-5.1,4.3-5.1h34.4
		c2.4,0,4.3,2.3,4.3,5.1V136.4z"/>
</g>
<g id="Labels" class="st0">
	<g class="st2">
		<rect x="26.4" y="25.4" class="st5" width="41.6" height="9.1"/>
		<path class="st8" d="M27.2,32.9v-7.4h1v3.7l3.7-3.7h1.3l-3.1,3l3.3,4.4H32l-2.6-3.8l-1.2,1.2v2.6H27.2z"/>
		<path class="st8" d="M33.3,32.9l2.9-7.4h1.1l3,7.4h-1.1l-0.9-2.3h-3.1l-0.8,2.3H33.3z M35.5,29.8H38l-0.8-2.1
			c-0.2-0.6-0.4-1.1-0.5-1.5c-0.1,0.5-0.2,1-0.4,1.4L35.5,29.8z"/>
		<path class="st8" d="M41.1,32.9v-7.4h2.8c0.5,0,0.9,0,1.1,0.1c0.4,0.1,0.7,0.2,0.9,0.3s0.4,0.4,0.6,0.7s0.2,0.6,0.2,1
			c0,0.6-0.2,1.2-0.6,1.6c-0.4,0.4-1.1,0.7-2.2,0.7h-1.9v3H41.1z M42.1,29H44c0.6,0,1.1-0.1,1.4-0.4c0.3-0.2,0.4-0.6,0.4-1
			c0-0.3-0.1-0.6-0.2-0.8s-0.4-0.4-0.6-0.4c-0.2,0-0.5-0.1-0.9-0.1h-1.9V29z"/>
		<path class="st8" d="M53.8,32.9h-0.9V27c-0.2,0.2-0.5,0.4-0.9,0.6s-0.7,0.4-1,0.5v-0.9c0.5-0.2,1-0.5,1.3-0.9
			c0.4-0.3,0.7-0.7,0.8-1h0.6V32.9z"/>
		<path class="st8" d="M59.1,32.9v-1.8h-3.2v-0.8l3.4-4.8H60v4.8h1v0.8h-1v1.8H59.1z M59.1,30.2v-3.4l-2.3,3.4H59.1z"/>
		<path class="st8" d="M61.9,29.2c0-0.9,0.1-1.6,0.3-2.1c0.2-0.5,0.4-0.9,0.8-1.2s0.8-0.4,1.3-0.4c0.4,0,0.7,0.1,1.1,0.2
			c0.3,0.2,0.5,0.4,0.7,0.7c0.2,0.3,0.4,0.7,0.5,1.1c0.1,0.4,0.2,1,0.2,1.8c0,0.9-0.1,1.6-0.3,2.1c-0.2,0.5-0.4,1-0.8,1.2
			c-0.4,0.3-0.8,0.4-1.4,0.4c-0.7,0-1.3-0.3-1.7-0.8C62.1,31.6,61.9,30.6,61.9,29.2z M62.8,29.2c0,1.2,0.1,2,0.4,2.4
			c0.3,0.4,0.6,0.6,1.1,0.6c0.4,0,0.8-0.2,1.1-0.6c0.3-0.4,0.4-1.2,0.4-2.4c0-1.2-0.1-2-0.4-2.4c-0.3-0.4-0.6-0.6-1.1-0.6
			c-0.4,0-0.8,0.2-1,0.5C63,27.1,62.8,28,62.8,29.2z"/>
	</g>
	<g class="st2">
		<rect x="14.3" y="13.5" class="st5" width="59.6" height="7.2"/>
		<path class="st8" d="M14.7,19.8l1.3-6.3h2.2c0.5,0,0.8,0,1,0c0.3,0,0.6,0.1,0.8,0.3c0.2,0.1,0.4,0.3,0.5,0.5
			c0.1,0.2,0.2,0.5,0.2,0.7c0,0.3-0.1,0.7-0.3,0.9c-0.2,0.3-0.5,0.5-0.9,0.6c0.3,0.1,0.6,0.2,0.8,0.5s0.3,0.5,0.3,0.8
			c0,0.4-0.1,0.7-0.3,1.1c-0.2,0.3-0.5,0.6-0.9,0.7s-0.9,0.2-1.5,0.2H14.7z M16.2,18.8h1.2c0.5,0,0.9,0,1.1-0.1
			c0.2-0.1,0.3-0.2,0.4-0.3c0.1-0.2,0.2-0.3,0.2-0.5c0-0.2-0.1-0.4-0.2-0.5c-0.2-0.1-0.4-0.2-0.8-0.2h-1.5L16.2,18.8z M16.7,16.1h1
			c0.4,0,0.8,0,1-0.1c0.2-0.1,0.3-0.2,0.4-0.3c0.1-0.1,0.1-0.3,0.1-0.5c0-0.2,0-0.3-0.1-0.4s-0.2-0.2-0.4-0.2c-0.1,0-0.3,0-0.7,0h-1
			L16.7,16.1z"/>
		<path class="st8" d="M21,19.8l1.3-6.3H27l-0.2,1.1h-3.4L23.1,16h3.3l-0.2,1.1h-3.3l-0.4,1.7h3.7l-0.2,1.1H21z"/>
		<path class="st8" d="M31.9,19.8h-1.2L29,15.6l-0.9,4.2h-1.2l1.3-6.3h1.2l1.7,4.2l0.9-4.2h1.2L31.9,19.8z"/>
		<path class="st8" d="M33.3,19.8l1.3-6.3h1.7c0.5,0,0.8,0,0.9,0c0.3,0,0.5,0.1,0.7,0.2c0.2,0.1,0.4,0.2,0.6,0.3s0.3,0.3,0.4,0.5
			s0.2,0.4,0.3,0.7c0.1,0.3,0.1,0.6,0.1,0.9c0,0.7-0.1,1.3-0.4,1.8c-0.3,0.5-0.6,0.9-1,1.3c-0.3,0.2-0.7,0.4-1.2,0.5
			c-0.3,0.1-0.7,0.1-1.2,0.1H33.3z M34.8,18.8h0.7c0.5,0,0.8,0,1-0.1c0.2-0.1,0.4-0.2,0.6-0.3c0.3-0.2,0.5-0.5,0.6-0.9
			c0.2-0.4,0.3-0.8,0.3-1.4c0-0.4-0.1-0.8-0.2-1s-0.3-0.4-0.5-0.4c-0.1-0.1-0.4-0.1-0.8-0.1h-0.8L34.8,18.8z"/>
		<path class="st8" d="M39.5,19.8l1.3-6.3h1.3l-1.3,6.3H39.5z"/>
		<path class="st8" d="M43.1,19.8h-1.7l2.8-3.2l-1.6-3.1H44l0.6,1.2c0,0,0.2,0.3,0.4,0.9c0,0,0,0.1,0.1,0.1c0.3-0.4,0.6-0.8,0.9-1
			l1-1.1h1.6l-2.9,3.3l1.5,3h-1.5l-0.5-0.9c-0.2-0.5-0.4-0.9-0.5-1.1c-0.1,0.2-0.4,0.5-0.9,1L43.1,19.8z"/>
		<path class="st8" d="M47.1,19.9l3.1-6.5h0.9L48,19.9H47.1z"/>
		<path class="st8" d="M50.3,19.8l1.3-6.3h1.3l-0.6,2.7l2.9-2.7H57L54.2,16l2.1,3.8h-1.5l-1.6-3L52,17.9l-0.4,1.9H50.3z"/>
		<path class="st8" d="M56.6,19.8l1.3-6.3h1.3l-1.3,6.3H56.6z"/>
		<path class="st8" d="M64.2,19.8H63l-1.7-4.2l-0.9,4.2h-1.2l1.3-6.3h1.2l1.7,4.2l0.9-4.2h1.2L64.2,19.8z"/>
		<path class="st8" d="M69,16.5h2.8l-0.6,2.7c-0.3,0.2-0.7,0.4-1.2,0.5c-0.5,0.1-1,0.2-1.5,0.2c-0.8,0-1.4-0.2-1.8-0.5
			c-0.6-0.5-0.9-1.2-0.9-2.1c0-0.6,0.1-1.2,0.4-1.8c0.3-0.7,0.7-1.2,1.2-1.6s1.2-0.6,1.9-0.6s1.3,0.2,1.7,0.5s0.7,0.8,0.9,1.5
			l-1.2,0.1c-0.1-0.4-0.3-0.6-0.5-0.8c-0.2-0.2-0.5-0.3-0.9-0.3c-0.4,0-0.8,0.1-1.2,0.3s-0.6,0.6-0.8,1c-0.2,0.5-0.3,1-0.3,1.5
			c0,0.5,0.1,0.9,0.4,1.2c0.2,0.3,0.6,0.4,1.1,0.4c0.3,0,0.6,0,0.9-0.1c0.3-0.1,0.5-0.2,0.8-0.3l0.2-0.9h-1.6L69,16.5z"/>
	</g>
</g>
<g id="Outer_Knob_R" class="st0">
	<path class="st9" d="M572,102.6c0,17-13.8,30.9-30.9,30.9c-17.1,0-30.9-13.8-30.9-30.9c0-17.1,13.8-30.9,30.9-30.9
		C558.1,71.7,572,85.5,572,102.6z"/>
	<g class="st2">
		<g>
			<path class="st10" d="M572.8,102.6c0,17.5-14.2,31.7-31.7,31.7c-17.5,0-31.7-14.2-31.7-31.7c0-17.5,14.2-31.7,31.7-31.7
				C558.6,70.9,572.8,85.1,572.8,102.6z"/>
		</g>
	</g>
</g>
<g id="Inner_Knob_R" class="st0">
	<g class="st2">
		<circle class="st11" cx="541.1" cy="102.6" r="20.8"/>
		<g>
			<path class="st12" d="M562.8,102.6c0,12-9.7,21.8-21.8,21.8s-21.8-9.7-21.8-21.8c0-12,9.7-21.8,21.8-21.8S562.8,90.6,562.8,102.6
				z"/>
		</g>
	</g>
</g>
<g id="BARO_Button" class="st0">
	<path class="st13" d="M573.9,35.3c0,1.1-0.9,2-2,2h-28.1c-1.1,0-2-0.9-2-2V20.5c0-1.1,0.9-2,2-2h28.1c1.1,0,2,0.9,2,2V35.3z"/>
	<g class="st2">
		<path d="M543.8,32.2v-7.9h2.8c0.6,0,1,0.1,1.3,0.2c0.3,0.2,0.6,0.4,0.8,0.7s0.3,0.7,0.3,1.1c0,0.4-0.1,0.7-0.3,1
			c-0.2,0.3-0.4,0.5-0.8,0.7c0.4,0.1,0.8,0.4,1,0.7c0.2,0.3,0.4,0.7,0.4,1.2c0,0.5-0.1,0.9-0.3,1.3s-0.5,0.6-0.9,0.8
			s-0.9,0.2-1.5,0.2H543.8z M544.8,27.7h1.6c0.4,0,0.7,0,0.9-0.1c0.3-0.1,0.5-0.2,0.6-0.4c0.1-0.2,0.2-0.4,0.2-0.7
			c0-0.3-0.1-0.5-0.2-0.7c-0.1-0.2-0.3-0.3-0.5-0.4c-0.2-0.1-0.6-0.1-1.1-0.1h-1.5V27.7z M544.8,31.3h1.9c0.4,0,0.7,0,0.9-0.1
			c0.3-0.1,0.5-0.2,0.6-0.5s0.2-0.5,0.2-0.8c0-0.3-0.1-0.5-0.2-0.8s-0.3-0.4-0.6-0.5s-0.6-0.1-1.1-0.1h-1.7V31.3z"/>
		<path d="M550,32.2l2.9-7.9h1.1l3,7.9h-1.1l-0.9-2.4h-3.1l-0.8,2.4H550z M552.1,29h2.5l-0.8-2.2c-0.2-0.7-0.4-1.2-0.5-1.6
			c-0.1,0.5-0.2,1-0.4,1.5L552.1,29z"/>
		<path d="M557.7,32.2v-7.9h3.3c0.7,0,1.2,0.1,1.5,0.2c0.3,0.1,0.6,0.4,0.8,0.7s0.3,0.7,0.3,1.2c0,0.6-0.2,1.1-0.5,1.4
			c-0.4,0.4-0.9,0.6-1.6,0.7c0.3,0.1,0.5,0.3,0.6,0.4c0.3,0.3,0.6,0.6,0.8,1l1.3,2.1h-1.2l-1-1.6c-0.4-0.6-0.7-1.1-0.9-1.3
			s-0.4-0.4-0.6-0.4s-0.4-0.1-0.8-0.1h-1.1v3.5H557.7z M558.7,27.8h2.1c0.5,0,0.8,0,1.1-0.1s0.4-0.2,0.6-0.5
			c0.1-0.2,0.2-0.5,0.2-0.7c0-0.4-0.1-0.7-0.4-0.9s-0.7-0.3-1.2-0.3h-2.4V27.8z"/>
		<path d="M565,28.4c0-1.3,0.3-2.4,1-3.1s1.5-1.1,2.5-1.1c0.7,0,1.3,0.2,1.8,0.5s1,0.8,1.3,1.4s0.5,1.3,0.5,2.2
			c0,1.2-0.3,2.1-0.9,2.9c-0.7,0.8-1.6,1.2-2.6,1.2c-1.1,0-2-0.4-2.7-1.2C565.3,30.4,565,29.5,565,28.4z M566,28.4
			c0,1,0.2,1.7,0.7,2.3c0.5,0.5,1.1,0.8,1.8,0.8c0.7,0,1.3-0.3,1.8-0.8c0.5-0.5,0.7-1.3,0.7-2.4c0-0.7-0.1-1.3-0.4-1.8
			c-0.2-0.4-0.5-0.7-0.9-1c-0.4-0.2-0.8-0.4-1.3-0.4c-0.7,0-1.4,0.3-1.8,0.8C566.2,26.5,566,27.3,566,28.4z"/>
	</g>
</g>
<g id="ARM_Button" class="st0">
	<path class="st13" d="M514.9,35.3c0,1.1-0.9,2-2,2h-28.1c-1.1,0-2-0.9-2-2V20.5c0-1.1,0.9-2,2-2h28.1c1.1,0,2,0.9,2,2V35.3z"/>
	<g class="st2">
		<path d="M487.2,32.2l2.9-7.9h1.1l3,7.9h-1.1l-0.9-2.4h-3.1l-0.8,2.4H487.2z M489.4,29h2.5l-0.8-2.2c-0.2-0.7-0.4-1.2-0.5-1.6
			c-0.1,0.5-0.2,1-0.4,1.5L489.4,29z"/>
		<path d="M495,32.2v-7.9h3.3c0.7,0,1.2,0.1,1.5,0.2c0.3,0.1,0.6,0.4,0.8,0.7c0.2,0.3,0.3,0.7,0.3,1.2c0,0.6-0.2,1.1-0.5,1.4
			c-0.4,0.4-0.9,0.6-1.6,0.7c0.3,0.1,0.5,0.3,0.6,0.4c0.3,0.3,0.6,0.6,0.8,1l1.3,2.1h-1.2l-1-1.6c-0.4-0.6-0.7-1.1-0.9-1.3
			c-0.2-0.2-0.4-0.4-0.6-0.4c-0.2-0.1-0.4-0.1-0.8-0.1H496v3.5H495z M496,27.8h2.1c0.5,0,0.8,0,1.1-0.1c0.2-0.1,0.4-0.2,0.6-0.5
			c0.1-0.2,0.2-0.5,0.2-0.7c0-0.4-0.1-0.7-0.4-0.9c-0.3-0.2-0.7-0.3-1.2-0.3H496V27.8z"/>
		<path d="M502.5,32.2v-7.9h1.5l1.8,5.6l0.4,1.2c0.1-0.3,0.2-0.7,0.4-1.3l1.8-5.5h1.3v7.9h-0.9v-6.6l-2.2,6.6h-0.9l-2.2-6.7v6.7
			H502.5z"/>
	</g>
</g>
<g id="DN_Button" class="st0">
	<path class="st13" d="M477.9,132.3c0,1.1-0.9,2-2,2h-28.1c-1.1,0-2-0.9-2-2v-14.8c0-1.1,0.9-2,2-2h28.1c1.1,0,2,0.9,2,2V132.3z"/>
	<g class="st2">
		<path d="M455.1,129.2v-7.9h2.6c0.6,0,1.1,0,1.4,0.1c0.4,0.1,0.8,0.4,1.1,0.7c0.3,0.3,0.6,0.8,0.7,1.3s0.3,1.1,0.3,1.8
			c0,0.9-0.2,1.6-0.5,2.3c-0.3,0.6-0.7,1.1-1.2,1.3s-1.1,0.4-1.9,0.4H455.1z M456.1,128.3h1.6c0.6,0,1.1-0.1,1.5-0.3
			c0.3-0.2,0.6-0.5,0.8-0.9c0.2-0.5,0.4-1.2,0.4-1.9c0-0.8-0.1-1.4-0.4-1.9c-0.3-0.5-0.6-0.8-1-0.9c-0.3-0.1-0.7-0.2-1.3-0.2h-1.6
			V128.3z"/>
		<path d="M462.6,129.2v-7.9h1l3.9,6.2v-6.2h0.9v7.9h-1l-3.9-6.2v6.2H462.6z"/>
	</g>
</g>
<g id="UP_Button" class="st0">
	<path class="st13" d="M477.9,84.4c0,1.1-0.9,2-2,2h-28.1c-1.1,0-2-0.9-2-2V69.6c0-1.1,0.9-2,2-2h28.1c1.1,0,2,0.9,2,2V84.4z"/>
	<g class="st2">
		<path d="M460.3,73.5h1V78c0,0.8-0.1,1.4-0.3,1.9c-0.2,0.5-0.5,0.9-0.9,1.2s-1,0.4-1.7,0.4c-1,0-1.7-0.3-2.2-0.8
			c-0.5-0.5-0.7-1.4-0.7-2.7v-4.5h1V78c0,0.7,0.1,1.2,0.2,1.5c0.1,0.3,0.3,0.6,0.6,0.7c0.3,0.2,0.6,0.3,1.1,0.3
			c0.7,0,1.2-0.2,1.5-0.5s0.5-1,0.5-2V73.5z"/>
		<path d="M463,81.3v-7.9h2.8c0.7,0,1.1,0,1.5,0.2c0.4,0.1,0.8,0.4,1,0.8c0.3,0.4,0.4,0.8,0.4,1.4c0,0.7-0.2,1.3-0.6,1.7
			c-0.4,0.4-1.1,0.7-2.2,0.7H464v3.2H463z M464,77.2h1.9c0.6,0,1.1-0.1,1.3-0.4c0.3-0.2,0.4-0.6,0.4-1.1c0-0.3-0.1-0.6-0.2-0.8
			c-0.1-0.2-0.3-0.4-0.5-0.5c-0.2-0.1-0.6-0.1-1.1-0.1H464V77.2z"/>
	</g>
</g>
<g id="ALT_Button" class="st0">
	<path class="st13" d="M425.9,136.4c0,1.1-0.9,2-2,2h-28.1c-1.1,0-2-0.9-2-2v-14.8c0-1.1,0.9-2,2-2h28.1c1.1,0,2,0.9,2,2V136.4z"/>
	<g class="st2">
		<path d="M400.7,133.3l2.9-7.9h1.1l3,7.9h-1.1l-0.9-2.4h-3.1l-0.8,2.4H400.7z M402.9,130.1h2.5l-0.8-2.2c-0.2-0.7-0.4-1.2-0.5-1.6
			c-0.1,0.5-0.2,1-0.4,1.5L402.9,130.1z"/>
		<path d="M408.4,133.3v-7.9h1v6.9h3.7v0.9H408.4z"/>
		<path d="M415.4,133.3v-6.9H413v-0.9h5.9v0.9h-2.5v6.9H415.4z"/>
	</g>
</g>
<g id="REV_Button" class="st0">
	<path class="st13" d="M365.9,136.4c0,1.1-0.9,2-2,2h-28.1c-1.1,0-2-0.9-2-2v-14.8c0-1.1,0.9-2,2-2h28.1c1.1,0,2,0.9,2,2V136.4z"/>
	<g class="st2">
		<path d="M339.9,133.3v-7.9h3.3c0.7,0,1.2,0.1,1.5,0.2c0.3,0.1,0.6,0.4,0.8,0.7c0.2,0.3,0.3,0.7,0.3,1.2c0,0.6-0.2,1.1-0.5,1.4
			c-0.4,0.4-0.9,0.6-1.6,0.7c0.3,0.1,0.5,0.3,0.6,0.4c0.3,0.3,0.6,0.6,0.8,1l1.3,2.1h-1.2l-1-1.6c-0.4-0.6-0.7-1.1-0.9-1.3
			c-0.2-0.2-0.4-0.4-0.6-0.4s-0.4-0.1-0.8-0.1h-1.1v3.5H339.9z M340.9,128.9h2.1c0.5,0,0.8,0,1.1-0.1c0.2-0.1,0.4-0.2,0.6-0.5
			c0.1-0.2,0.2-0.5,0.2-0.7c0-0.4-0.1-0.7-0.4-0.9c-0.3-0.2-0.7-0.3-1.2-0.3h-2.4V128.9z"/>
		<path d="M347.4,133.3v-7.9h5.4v0.9h-4.4v2.4h4.1v0.9h-4.1v2.7h4.6v0.9H347.4z"/>
		<path d="M356.5,133.3l-2.9-7.9h1.1l1.9,5.7c0.1,0.4,0.3,0.9,0.4,1.3c0.1-0.4,0.2-0.9,0.4-1.3l2-5.7h1l-2.9,7.9H356.5z"/>
	</g>
</g>
<g id="APR_Button" class="st0">
	<path class="st13" d="M298.9,136.4c0,1.1-0.9,2-2,2h-28.1c-1.1,0-2-0.9-2-2v-14.8c0-1.1,0.9-2,2-2h28.1c1.1,0,2,0.9,2,2V136.4z"/>
	<g class="st2">
		<path d="M272.1,133.3l2.9-7.9h1.1l3,7.9h-1.1l-0.9-2.4h-3.1l-0.8,2.4H272.1z M274.2,130.1h2.5l-0.8-2.2c-0.2-0.7-0.4-1.2-0.5-1.6
			c-0.1,0.5-0.2,1-0.4,1.5L274.2,130.1z"/>
		<path d="M279.8,133.3v-7.9h2.8c0.7,0,1.1,0,1.5,0.2c0.4,0.1,0.8,0.4,1,0.8c0.3,0.4,0.4,0.8,0.4,1.4c0,0.7-0.2,1.3-0.6,1.7
			c-0.4,0.4-1.1,0.7-2.2,0.7h-1.9v3.2H279.8z M280.8,129.2h1.9c0.6,0,1.1-0.1,1.3-0.4s0.4-0.6,0.4-1.1c0-0.3-0.1-0.6-0.2-0.8
			c-0.1-0.2-0.3-0.4-0.5-0.5c-0.2-0.1-0.6-0.1-1.1-0.1h-1.9V129.2z"/>
		<path d="M286.8,133.3v-7.9h3.3c0.7,0,1.2,0.1,1.5,0.2c0.3,0.1,0.6,0.4,0.8,0.7s0.3,0.7,0.3,1.2c0,0.6-0.2,1.1-0.5,1.4
			c-0.4,0.4-0.9,0.6-1.6,0.7c0.3,0.1,0.5,0.3,0.6,0.4c0.3,0.3,0.6,0.6,0.8,1l1.3,2.1h-1.2l-1-1.6c-0.4-0.6-0.7-1.1-0.9-1.3
			s-0.4-0.4-0.6-0.4c-0.2-0.1-0.4-0.1-0.8-0.1h-1.1v3.5H286.8z M287.8,128.9h2.1c0.5,0,0.8,0,1.1-0.1c0.2-0.1,0.4-0.2,0.6-0.5
			c0.1-0.2,0.2-0.5,0.2-0.7c0-0.4-0.1-0.7-0.4-0.9s-0.7-0.3-1.2-0.3h-2.4V128.9z"/>
	</g>
</g>
<g id="Nav_Button" class="st0">
	<path class="st13" d="M229.9,136.4c0,1.1-0.9,2-2,2h-28.1c-1.1,0-2-0.9-2-2v-14.8c0-1.1,0.9-2,2-2h28.1c1.1,0,2,0.9,2,2V136.4z"/>
	<g class="st2">
		<path d="M204.3,133.3v-7.9h1l3.9,6.2v-6.2h0.9v7.9h-1l-3.9-6.2v6.2H204.3z"/>
		<path d="M211,133.3l2.9-7.9h1.1l3,7.9h-1.1L216,131h-3.1l-0.8,2.4H211z M213.1,130.1h2.5l-0.8-2.2c-0.2-0.7-0.4-1.2-0.5-1.6
			c-0.1,0.5-0.2,1-0.4,1.5L213.1,130.1z"/>
		<path d="M220.1,133.3l-2.9-7.9h1.1l1.9,5.7c0.1,0.4,0.3,0.9,0.4,1.3c0.1-0.4,0.2-0.9,0.4-1.3l2-5.7h1l-2.9,7.9H220.1z"/>
	</g>
</g>
<g id="HGD_Button" class="st0">
	<path class="st13" d="M161.7,136.4c0,1.1-0.9,2-2,2h-28.1c-1.1,0-2-0.9-2-2v-14.8c0-1.1,0.9-2,2-2h28.1c1.1,0,2,0.9,2,2V136.4z"/>
	<g class="st2">
		<path d="M134.8,133.3v-7.9h1v3.2h3.9v-3.2h1v7.9h-1v-3.7h-3.9v3.7H134.8z"/>
		<path d="M142.3,133.3v-7.9h2.6c0.6,0,1.1,0,1.4,0.1c0.4,0.1,0.8,0.4,1.1,0.7c0.3,0.3,0.6,0.8,0.7,1.3c0.2,0.5,0.3,1.1,0.3,1.8
			c0,0.9-0.2,1.6-0.5,2.3c-0.3,0.6-0.7,1.1-1.2,1.3c-0.5,0.3-1.1,0.4-1.9,0.4H142.3z M143.3,132.4h1.6c0.6,0,1.1-0.1,1.5-0.3
			c0.3-0.2,0.6-0.5,0.8-0.9c0.2-0.5,0.4-1.2,0.4-1.9c0-0.8-0.1-1.4-0.4-1.9c-0.3-0.5-0.6-0.8-1-0.9c-0.3-0.1-0.7-0.2-1.3-0.2h-1.6
			V132.4z"/>
		<path d="M153.4,130.3v-0.9l3.2,0v2.9c-0.5,0.4-1,0.7-1.5,0.9s-1,0.3-1.6,0.3c-0.7,0-1.4-0.2-1.9-0.5s-1-0.8-1.4-1.4
			s-0.5-1.3-0.5-2.2c0-0.9,0.2-1.6,0.5-2.2s0.8-1.1,1.3-1.4c0.5-0.3,1.2-0.5,1.9-0.5c0.5,0,1,0.1,1.4,0.3c0.4,0.2,0.7,0.4,1,0.7
			s0.5,0.8,0.6,1.3l-0.9,0.3c-0.1-0.4-0.3-0.8-0.5-1c-0.2-0.2-0.4-0.4-0.7-0.5c-0.3-0.1-0.6-0.2-1-0.2c-0.5,0-1,0.1-1.4,0.3
			c-0.4,0.2-0.7,0.6-0.9,1.1c-0.2,0.5-0.4,1.1-0.4,1.8c0,1.1,0.3,1.8,0.8,2.4c0.5,0.5,1.2,0.8,2,0.8c0.4,0,0.8-0.1,1.2-0.2
			c0.4-0.2,0.7-0.4,1-0.6v-1.5H153.4z"/>
	</g>
</g>
<g id="AP_Button" class="st0">
	<path class="st13" d="M57.7,137.4c0,1.1-0.9,2-2,2H27.6c-1.1,0-2-0.9-2-2v-14.8c0-1.1,0.9-2,2-2h28.1c1.1,0,2,0.9,2,2V137.4z"/>
	<g class="st2">
		<path d="M34.1,134.3l2.9-7.9H38l3,7.9H40l-0.9-2.4H36l-0.8,2.4H34.1z M36.3,131.1h2.5l-0.8-2.2c-0.2-0.7-0.4-1.2-0.5-1.6
			c-0.1,0.5-0.2,1-0.4,1.5L36.3,131.1z"/>
		<path d="M41.9,134.3v-7.9h2.8c0.7,0,1.1,0,1.5,0.2c0.4,0.1,0.8,0.4,1,0.8c0.3,0.4,0.4,0.8,0.4,1.4c0,0.7-0.2,1.3-0.6,1.7
			c-0.4,0.4-1.1,0.7-2.2,0.7h-1.9v3.2H41.9z M42.8,130.2h1.9c0.6,0,1.1-0.1,1.3-0.4s0.4-0.6,0.4-1.1c0-0.3-0.1-0.6-0.2-0.8
			c-0.1-0.2-0.3-0.4-0.5-0.5c-0.2-0.1-0.6-0.1-1.1-0.1h-1.9V130.2z"/>
	</g>
</g>
<g id="Text" class="st0">
	<g class="st2">
		<rect x="95.3" y="22.9" class="st5" width="65" height="25.3"/>
		<path class="st14" d="M100.8,34.8L99.7,44l-1,0.8l-0.8-1l1.1-9.2l1-0.8L100.8,34.8z M109.1,45.3l0.8,1l-1,0.8L99.7,46l-0.8-1
			l1-0.8L109.1,45.3z M102.2,23.5l-1.1,9.2l-1,0.8l-0.8-1l1.1-9.2l1-0.8L102.2,23.5z M105.6,34.9l0.3,1.4l-3.9,7.1l-1.2,0.5
			l-0.3-1.5l3.9-7L105.6,34.9z M111.8,22.7l0.8,1l-1,0.8l-9.1-1.1l-0.8-1l1-0.8L111.8,22.7z M110.8,25l0.3,1.4l-3.9,7.1L106,34
			l-0.3-1.5l3.9-7L110.8,25z M112.2,36.2l-1.1,9.2l-1,0.8l-0.8-1l1.1-9.2l1-0.8L112.2,36.2z M113.6,24.9l-1.1,9.2l-1,0.8l-0.8-1
			l1.1-9.2l1-0.8L113.6,24.9z"/>
		<path class="st14" d="M122.5,34.8l-1.1,9.2l-1,0.8l-0.8-1l1.1-9.2l1-0.8L122.5,34.8z M130.7,45.3l0.8,1l-1,0.8l-9.1-1.1l-0.8-1
			l1-0.8L130.7,45.3z M123.9,23.5l-1.1,9.2l-1,0.8l-0.8-1l1.1-9.2l1-0.8L123.9,23.5z M127.2,34.9l0.3,1.4l-3.9,7.1l-1.2,0.5
			l-0.3-1.5l3.9-7L127.2,34.9z M133.4,22.7l0.8,1l-1,0.8l-9.1-1.1l-0.8-1l1-0.8L133.4,22.7z M132.4,25l0.3,1.4l-3.9,7.1l-1.2,0.5
			l-0.3-1.5l3.9-7L132.4,25z M133.8,36.2l-1.1,9.2l-1,0.8l-0.8-1l1.1-9.2l1-0.8L133.8,36.2z M135.2,24.9l-1.1,9.2l-1,0.8l-0.8-1
			l1.1-9.2l1-0.8L135.2,24.9z"/>
		<path class="st14" d="M144.1,34.8l-1.1,9.2l-1,0.8l-0.8-1l1.1-9.2l1-0.8L144.1,34.8z M152.3,45.3l0.8,1l-1,0.8l-9.1-1.1l-0.8-1
			l1-0.8L152.3,45.3z M145.5,23.5l-1.1,9.2l-1,0.8l-0.8-1l1.1-9.2l1-0.8L145.5,23.5z M148.8,34.9l0.3,1.4l-3.9,7.1l-1.2,0.5
			l-0.3-1.5l3.9-7L148.8,34.9z M155,22.7l0.8,1l-1,0.8l-9.1-1.1l-0.8-1l1-0.8L155,22.7z M154,25l0.3,1.4l-3.9,7.1l-1.2,0.5l-0.3-1.5
			l3.9-7L154,25z M155.4,36.2l-1.1,9.2l-1,0.8l-0.8-1l1.1-9.2l1-0.8L155.4,36.2z M156.8,24.9l-1.1,9.2l-1,0.8l-0.8-1l1.1-9.2l1-0.8
			L156.8,24.9z"/>
	</g>
	<g class="st2">
		<rect x="93.3" y="57" class="st5" width="65" height="25.3"/>
		<path class="st14" d="M97,58v9.3l-0.9,0.9l-0.9-0.9V58l0.9-0.9L97,58z M97,69.4v9.3l-0.9,0.9l-0.9-0.9v-9.3l0.9-0.9L97,69.4z
			 M106.4,56l0.9,0.9l-0.9,0.9h-9.2L96.3,57l0.9-0.9H106.4z M106.5,78.9l0.9,0.9l-0.9,0.9h-9.2l-0.9-0.9l0.9-0.9H106.5z M101.7,68.9
			l0.5,1.3l-3,7.5L98,78.5L97.5,77l3-7.4L101.7,68.9z M105.7,58.5l0.5,1.3l-3,7.5L102,68l-0.5-1.4l3-7.4L105.7,58.5z M108.4,58v9.3
			l-0.9,0.9l-0.9-0.9V58l0.9-0.9L108.4,58z M108.4,69.4v9.3l-0.9,0.9l-0.9-0.9v-9.3l0.9-0.9L108.4,69.4z"/>
		<path class="st14" d="M119.9,58v9.3l-0.9,0.9l-0.9-0.9V58l0.9-0.9L119.9,58z M119.9,69.4v9.3l-0.9,0.9l-0.9-0.9v-9.3l0.9-0.9
			L119.9,69.4z M129.3,56l0.9,0.9l-0.9,0.9h-9.2l-0.9-0.9l0.9-0.9H129.3z M129.3,78.9l0.9,0.9l-0.9,0.9h-9.2l-0.9-0.9l0.9-0.9H129.3
			z M124.6,68.9l0.5,1.3l-3,7.5l-1.2,0.6l-0.5-1.4l3-7.4L124.6,68.9z M128.6,58.5l0.5,1.3l-3,7.5l-1.2,0.6l-0.5-1.4l3-7.4
			L128.6,58.5z M131.3,58v9.3l-0.9,0.9l-0.9-0.9V58l0.9-0.9L131.3,58z M131.3,69.4v9.3l-0.9,0.9l-0.9-0.9v-9.3l0.9-0.9L131.3,69.4z"
			/>
		<path class="st14" d="M142.8,58v9.3l-0.9,0.9l-0.9-0.9V58l0.9-0.9L142.8,58z M142.8,69.4v9.3l-0.9,0.9l-0.9-0.9v-9.3l0.9-0.9
			L142.8,69.4z M152.2,56l0.9,0.9l-0.9,0.9h-9.2L142,57l0.9-0.9H152.2z M152.2,78.9l0.9,0.9l-0.9,0.9H143l-0.9-0.9l0.9-0.9H152.2z
			 M147.5,68.9l0.5,1.3l-3,7.5l-1.2,0.6l-0.5-1.4l3-7.4L147.5,68.9z M151.5,58.5l0.5,1.3l-3,7.5l-1.2,0.6l-0.5-1.4l3-7.4L151.5,58.5
			z M154.2,58v9.3l-0.9,0.9l-0.9-0.9V58l0.9-0.9L154.2,58z M154.2,69.4v9.3l-0.9,0.9l-0.9-0.9v-9.3l0.9-0.9L154.2,69.4z"/>
	</g>
	<g class="st2">
		<rect x="203.3" y="22.9" class="st5" width="65" height="25.3"/>
		<path class="st14" d="M208.8,34.8l-1.1,9.2l-1,0.8l-0.8-1l1.1-9.2l1-0.8L208.8,34.8z M217.1,45.3l0.8,1l-1,0.8l-9.1-1.1l-0.8-1
			l1-0.8L217.1,45.3z M210.2,23.5l-1.1,9.2l-1,0.8l-0.8-1l1.1-9.2l1-0.8L210.2,23.5z M213.6,34.9l0.3,1.4l-3.9,7.1l-1.2,0.5
			l-0.3-1.5l3.9-7L213.6,34.9z M219.8,22.7l0.8,1l-1,0.8l-9.1-1.1l-0.8-1l1-0.8L219.8,22.7z M218.8,25l0.3,1.4l-3.9,7.1L214,34
			l-0.3-1.5l3.9-7L218.8,25z M220.2,36.2l-1.1,9.2l-1,0.8l-0.8-1l1.1-9.2l1-0.8L220.2,36.2z M221.6,24.9l-1.1,9.2l-1,0.8l-0.8-1
			l1.1-9.2l1-0.8L221.6,24.9z"/>
		<path class="st14" d="M230.5,34.8l-1.1,9.2l-1,0.8l-0.8-1l1.1-9.2l1-0.8L230.5,34.8z M238.7,45.3l0.8,1l-1,0.8l-9.1-1.1l-0.8-1
			l1-0.8L238.7,45.3z M231.9,23.5l-1.1,9.2l-1,0.8l-0.8-1l1.1-9.2l1-0.8L231.9,23.5z M235.2,34.9l0.3,1.4l-3.9,7.1l-1.2,0.5
			l-0.3-1.5l3.9-7L235.2,34.9z M241.4,22.7l0.8,1l-1,0.8l-9.1-1.1l-0.8-1l1-0.8L241.4,22.7z M240.4,25l0.3,1.4l-3.9,7.1l-1.2,0.5
			l-0.3-1.5l3.9-7L240.4,25z M241.8,36.2l-1.1,9.2l-1,0.8l-0.8-1l1.1-9.2l1-0.8L241.8,36.2z M243.2,24.9l-1.1,9.2l-1,0.8l-0.8-1
			l1.1-9.2l1-0.8L243.2,24.9z"/>
		<path class="st14" d="M252.1,34.8l-1.1,9.2l-1,0.8l-0.8-1l1.1-9.2l1-0.8L252.1,34.8z M260.3,45.3l0.8,1l-1,0.8l-9.1-1.1l-0.8-1
			l1-0.8L260.3,45.3z M253.5,23.5l-1.1,9.2l-1,0.8l-0.8-1l1.1-9.2l1-0.8L253.5,23.5z M256.8,34.9l0.3,1.4l-3.9,7.1l-1.2,0.5
			l-0.3-1.5l3.9-7L256.8,34.9z M263,22.7l0.8,1l-1,0.8l-9.1-1.1l-0.8-1l1-0.8L263,22.7z M262,25l0.3,1.4l-3.9,7.1l-1.2,0.5l-0.3-1.5
			l3.9-7L262,25z M263.4,36.2l-1.1,9.2l-1,0.8l-0.8-1l1.1-9.2l1-0.8L263.4,36.2z M264.8,24.9l-1.1,9.2l-1,0.8l-0.8-1l1.1-9.2l1-0.8
			L264.8,24.9z"/>
	</g>
	<g class="st2">
		<rect x="201.3" y="57" class="st5" width="65" height="25.3"/>
		<path class="st14" d="M205,58v9.3l-0.9,0.9l-0.9-0.9V58l0.9-0.9L205,58z M205,69.4v9.3l-0.9,0.9l-0.9-0.9v-9.3l0.9-0.9L205,69.4z
			 M214.4,56l0.9,0.9l-0.9,0.9h-9.2l-0.9-0.9l0.9-0.9H214.4z M214.5,78.9l0.9,0.9l-0.9,0.9h-9.2l-0.9-0.9l0.9-0.9H214.5z
			 M209.7,68.9l0.5,1.3l-3,7.5l-1.2,0.6l-0.5-1.4l3-7.4L209.7,68.9z M213.7,58.5l0.5,1.3l-3,7.5L210,68l-0.5-1.4l3-7.4L213.7,58.5z
			 M216.4,58v9.3l-0.9,0.9l-0.9-0.9V58l0.9-0.9L216.4,58z M216.4,69.4v9.3l-0.9,0.9l-0.9-0.9v-9.3l0.9-0.9L216.4,69.4z"/>
		<path class="st14" d="M227.9,58v9.3l-0.9,0.9l-0.9-0.9V58l0.9-0.9L227.9,58z M227.9,69.4v9.3l-0.9,0.9l-0.9-0.9v-9.3l0.9-0.9
			L227.9,69.4z M237.3,56l0.9,0.9l-0.9,0.9h-9.2l-0.9-0.9l0.9-0.9H237.3z M237.3,78.9l0.9,0.9l-0.9,0.9h-9.2l-0.9-0.9l0.9-0.9H237.3
			z M232.6,68.9l0.5,1.3l-3,7.5l-1.2,0.6l-0.5-1.4l3-7.4L232.6,68.9z M236.6,58.5l0.5,1.3l-3,7.5l-1.2,0.6l-0.5-1.4l3-7.4
			L236.6,58.5z M239.3,58v9.3l-0.9,0.9l-0.9-0.9V58l0.9-0.9L239.3,58z M239.3,69.4v9.3l-0.9,0.9l-0.9-0.9v-9.3l0.9-0.9L239.3,69.4z"
			/>
		<path class="st14" d="M250.8,58v9.3l-0.9,0.9l-0.9-0.9V58l0.9-0.9L250.8,58z M250.8,69.4v9.3l-0.9,0.9l-0.9-0.9v-9.3l0.9-0.9
			L250.8,69.4z M260.2,56l0.9,0.9l-0.9,0.9h-9.2L250,57l0.9-0.9H260.2z M260.2,78.9l0.9,0.9l-0.9,0.9H251l-0.9-0.9l0.9-0.9H260.2z
			 M255.5,68.9l0.5,1.3l-3,7.5l-1.2,0.6l-0.5-1.4l3-7.4L255.5,68.9z M259.5,58.5l0.5,1.3l-3,7.5l-1.2,0.6l-0.5-1.4l3-7.4L259.5,58.5
			z M262.2,58v9.3l-0.9,0.9l-0.9-0.9V58l0.9-0.9L262.2,58z M262.2,69.4v9.3l-0.9,0.9l-0.9-0.9v-9.3l0.9-0.9L262.2,69.4z"/>
	</g>
	<g class="st2">
		<rect x="313.1" y="22.9" class="st5" width="111.2" height="25.3"/>
		<path class="st14" d="M318.6,34.8l-1.1,9.2l-1,0.8l-0.8-1l1.1-9.2l1-0.8L318.6,34.8z M326.8,45.3l0.8,1l-1,0.8l-9.1-1.1l-0.8-1
			l1-0.8L326.8,45.3z M320,23.5l-1.1,9.2l-1,0.8l-0.8-1l1.1-9.2l1-0.8L320,23.5z M323.3,34.9l0.3,1.4l-3.9,7.1l-1.2,0.5l-0.3-1.5
			l3.9-7L323.3,34.9z M329.6,22.7l0.8,1l-1,0.8l-9.1-1.1l-0.8-1l1-0.8L329.6,22.7z M328.6,25l0.3,1.4l-3.9,7.1l-1.2,0.5l-0.3-1.5
			l3.9-7L328.6,25z M329.9,36.2l-1.1,9.2l-1,0.8l-0.8-1l1.1-9.2l1-0.8L329.9,36.2z M331.3,24.9l-1.1,9.2l-1,0.8l-0.8-1l1.1-9.2
			l1-0.8L331.3,24.9z"/>
		<path class="st14" d="M340.2,34.8l-1.1,9.2l-1,0.8l-0.8-1l1.1-9.2l1-0.8L340.2,34.8z M348.5,45.3l0.8,1l-1,0.8l-9.1-1.1l-0.8-1
			l1-0.8L348.5,45.3z M341.6,23.5l-1.1,9.2l-1,0.8l-0.8-1l1.1-9.2l1-0.8L341.6,23.5z M344.9,34.9l0.3,1.4l-3.9,7.1l-1.2,0.5
			l-0.3-1.5l3.9-7L344.9,34.9z M351.2,22.7l0.8,1l-1,0.8l-9.1-1.1l-0.8-1l1-0.8L351.2,22.7z M350.2,25l0.3,1.4l-3.9,7.1l-1.2,0.5
			l-0.3-1.5l3.9-7L350.2,25z M351.5,36.2l-1.1,9.2l-1,0.8l-0.8-1l1.1-9.2l1-0.8L351.5,36.2z M352.9,24.9l-1.1,9.2l-1,0.8l-0.8-1
			l1.1-9.2l1-0.8L352.9,24.9z"/>
		<path class="st14" d="M361.8,34.8l-1.1,9.2l-1,0.8l-0.8-1l1.1-9.2l1-0.8L361.8,34.8z M370.1,45.3l0.8,1l-1,0.8l-9.1-1.1l-0.8-1
			l1-0.8L370.1,45.3z M363.2,23.5l-1.1,9.2l-1,0.8l-0.8-1l1.1-9.2l1-0.8L363.2,23.5z M366.6,34.9l0.3,1.4l-3.9,7.1l-1.2,0.5
			l-0.3-1.5l3.9-7L366.6,34.9z M372.8,22.7l0.8,1l-1,0.8l-9.1-1.1l-0.8-1l1-0.8L372.8,22.7z M371.8,25l0.3,1.4l-3.9,7.1l-1.2,0.5
			l-0.3-1.5l3.9-7L371.8,25z M373.2,36.2l-1.1,9.2l-1,0.8l-0.8-1l1.1-9.2l1-0.8L373.2,36.2z M374.6,24.9l-1.1,9.2l-1,0.8l-0.8-1
			l1.1-9.2l1-0.8L374.6,24.9z"/>
		<path class="st14" d="M383.4,34.8l-1.1,9.2l-1,0.8l-0.8-1l1.1-9.2l1-0.8L383.4,34.8z M391.7,45.3l0.8,1l-1,0.8l-9.1-1.1l-0.8-1
			l1-0.8L391.7,45.3z M384.8,23.5l-1.1,9.2l-1,0.8l-0.8-1l1.1-9.2l1-0.8L384.8,23.5z M388.2,34.9l0.3,1.4l-3.9,7.1l-1.2,0.5
			l-0.3-1.5l3.9-7L388.2,34.9z M394.4,22.7l0.8,1l-1,0.8l-9.1-1.1l-0.8-1l1-0.8L394.4,22.7z M393.4,25l0.3,1.4l-3.9,7.1l-1.2,0.5
			l-0.3-1.5l3.9-7L393.4,25z M394.8,36.2l-1.1,9.2l-1,0.8l-0.8-1L393,36l1-0.8L394.8,36.2z M396.2,24.9l-1.1,9.2l-1,0.8l-0.8-1
			l1.1-9.2l1-0.8L396.2,24.9z"/>
		<path class="st14" d="M405,34.8l-1.1,9.2l-1,0.8l-0.8-1l1.1-9.2l1-0.8L405,34.8z M413.3,45.3l0.8,1l-1,0.8l-9.1-1.1l-0.8-1l1-0.8
			L413.3,45.3z M406.4,23.5l-1.1,9.2l-1,0.8l-0.8-1l1.1-9.2l1-0.8L406.4,23.5z M409.8,34.9l0.3,1.4l-3.9,7.1l-1.2,0.5l-0.3-1.5
			l3.9-7L409.8,34.9z M416,22.7l0.8,1l-1,0.8l-9.1-1.1l-0.8-1l1-0.8L416,22.7z M415,25l0.3,1.4l-3.9,7.1l-1.2,0.5l-0.3-1.5l3.9-7
			L415,25z M416.4,36.2l-1.1,9.2l-1,0.8l-0.8-1l1.1-9.2l1-0.8L416.4,36.2z M417.8,24.9l-1.1,9.2l-1,0.8l-0.8-1l1.1-9.2l1-0.8
			L417.8,24.9z"/>
	</g>
</g>
<g id="R_Flag">
	<g>
		<rect x="47.2" y="99.5" class="st5" width="12.6" height="13.5"/>
		<path class="st15" d="M48.1,108.1v-8.6h3.7c0.9,0,1.6,0.1,2,0.2s0.7,0.4,1,0.8s0.4,0.8,0.4,1.4c0,0.6-0.2,1.2-0.6,1.6
			s-0.9,0.7-1.7,0.8c0.4,0.2,0.7,0.5,0.9,0.7s0.6,0.7,1,1.4l1,1.7h-2.1l-1.3-1.9c-0.4-0.7-0.8-1.1-0.9-1.3s-0.3-0.3-0.5-0.4
			s-0.5-0.1-0.9-0.1h-0.4v3.6H48.1z M49.8,103.1h1.3c0.8,0,1.4,0,1.6-0.1s0.4-0.2,0.5-0.4s0.2-0.4,0.2-0.6c0-0.3-0.1-0.5-0.2-0.7
			s-0.4-0.3-0.7-0.3c-0.1,0-0.6,0-1.3,0h-1.4V103.1z"/>
	</g>
</g>
<g id="P_Flag" class="st0">
	<g class="st2">
		<rect x="28.4" y="99.5" class="st5" width="10" height="13.5"/>
		<path class="st15" d="M29.2,108.1v-8.6H32c1.1,0,1.7,0,2.1,0.1c0.5,0.1,0.9,0.4,1.2,0.8s0.5,1,0.5,1.7c0,0.5-0.1,1-0.3,1.3
			s-0.4,0.6-0.7,0.8s-0.6,0.3-0.9,0.4c-0.4,0.1-1,0.1-1.8,0.1H31v3.2H29.2z M31,100.9v2.4h0.9c0.7,0,1.1,0,1.4-0.1s0.4-0.2,0.5-0.4
			s0.2-0.4,0.2-0.7c0-0.3-0.1-0.6-0.3-0.8s-0.4-0.3-0.7-0.4c-0.2,0-0.6-0.1-1.2-0.1H31z"/>
	</g>
</g>
<g id="L_Arm_Flag" class="st0">
	<g class="st2">
		<rect x="162.4" y="46.6" class="st5" width="9" height="37.5"/>
		<path class="st14" d="M163.8,56l3-7.9h1.1l3.2,7.9H170l-0.9-2.4h-3.3l-0.9,2.4H163.8z M166.1,52.8h2.7l-0.8-2.2
			c-0.3-0.7-0.4-1.2-0.6-1.6c-0.1,0.5-0.2,1-0.4,1.5L166.1,52.8z"/>
		<path class="st14" d="M164.4,68.7v-7.9h3.5c0.7,0,1.2,0.1,1.6,0.2c0.4,0.1,0.7,0.4,0.9,0.7s0.3,0.8,0.3,1.2c0,0.6-0.2,1-0.5,1.4
			s-0.9,0.6-1.7,0.7c0.3,0.1,0.5,0.3,0.6,0.4c0.3,0.3,0.6,0.6,0.9,1l1.4,2.1H170l-1-1.6c-0.3-0.5-0.6-0.8-0.8-1.1
			c-0.2-0.3-0.4-0.4-0.5-0.5c-0.2-0.1-0.3-0.2-0.5-0.2c-0.1,0-0.3,0-0.6,0h-1.2v3.5H164.4z M165.4,64.3h2.2c0.5,0,0.8,0,1.1-0.1
			c0.3-0.1,0.5-0.3,0.6-0.5c0.1-0.2,0.2-0.5,0.2-0.7c0-0.4-0.1-0.7-0.4-0.9s-0.7-0.4-1.3-0.4h-2.5V64.3z"/>
		<path class="st14" d="M163.7,81.4v-7.9h1.6l1.9,5.6c0.2,0.5,0.3,0.9,0.4,1.2c0.1-0.3,0.2-0.7,0.4-1.3l1.9-5.5h1.4v7.9h-1v-6.6
			l-2.3,6.6H167l-2.3-6.7v6.7H163.7z"/>
	</g>
</g>
<g id="R_Arm_Flag" class="st0">
	<g class="st2">
		<rect x="267.4" y="45.9" class="st5" width="9" height="37.5"/>
		<path class="st14" d="M268.8,55.3l3-7.9h1.1l3.2,7.9H275l-0.9-2.4h-3.3l-0.9,2.4H268.8z M271.1,52.1h2.7l-0.8-2.2
			c-0.3-0.7-0.4-1.2-0.6-1.6c-0.1,0.5-0.2,1-0.4,1.5L271.1,52.1z"/>
		<path class="st14" d="M269.4,68v-7.9h3.5c0.7,0,1.2,0.1,1.6,0.2c0.4,0.1,0.7,0.4,0.9,0.7s0.3,0.8,0.3,1.2c0,0.6-0.2,1-0.5,1.4
			s-0.9,0.6-1.7,0.7c0.3,0.1,0.5,0.3,0.6,0.4c0.3,0.3,0.6,0.6,0.9,1l1.4,2.1H275l-1-1.6c-0.3-0.5-0.6-0.8-0.8-1.1
			c-0.2-0.3-0.4-0.4-0.5-0.5c-0.2-0.1-0.3-0.2-0.5-0.2c-0.1,0-0.3,0-0.6,0h-1.2V68H269.4z M270.4,63.6h2.2c0.5,0,0.8,0,1.1-0.1
			c0.3-0.1,0.5-0.3,0.6-0.5c0.1-0.2,0.2-0.5,0.2-0.7c0-0.4-0.1-0.7-0.4-0.9s-0.7-0.4-1.3-0.4h-2.5V63.6z"/>
		<path class="st14" d="M268.7,80.6v-7.9h1.6l1.9,5.6c0.2,0.5,0.3,0.9,0.4,1.2c0.1-0.3,0.2-0.7,0.4-1.3l1.9-5.5h1.4v7.9h-1v-6.6
			l-2.3,6.6H272l-2.3-6.7v6.7H268.7z"/>
	</g>
</g>
<g id="PT_Down" class="st0">
	<polygon class="st16" points="289,68.7 293.1,79.3 297.2,68.7 	"/>
</g>
<g id="PT_Up" class="st0">
	<polygon class="st16" points="289,35.6 293.1,24.9 297.2,35.6 	"/>
</g>
<g id="PT_Flag" class="st0">
	<g class="st2">
		<rect x="287.8" y="39.6" class="st5" width="9" height="26.7"/>
		<path class="st14" d="M290.1,49.1v-7.9h3c0.5,0,0.9,0,1.2,0.1c0.4,0.1,0.7,0.2,1,0.4c0.3,0.2,0.5,0.4,0.6,0.8s0.2,0.7,0.2,1.1
			c0,0.7-0.2,1.2-0.6,1.7c-0.4,0.5-1.2,0.7-2.3,0.7h-2v3.2H290.1z M291.2,44.9h2c0.7,0,1.2-0.1,1.4-0.4s0.4-0.6,0.4-1.1
			c0-0.3-0.1-0.6-0.3-0.8c-0.2-0.2-0.4-0.4-0.7-0.5c-0.2,0-0.5-0.1-1-0.1h-2V44.9z"/>
		<path class="st14" d="M292.4,61.7v-6.9h-2.6v-0.9h6.2v0.9h-2.6v6.9H292.4z"/>
	</g>
</g>
<g id="FPM_Flag" class="st0">
	<g class="st2">
		<rect x="369.3" y="56.2" class="st5" width="26.8" height="8.4"/>
		<path class="st14" d="M370.2,64.1v-7.9h5.3v0.9h-4.3v2.4h3.7v0.9h-3.7v3.6H370.2z"/>
		<path class="st14" d="M378.6,64.1v-7.9h3c0.5,0,0.9,0,1.2,0.1c0.4,0.1,0.7,0.2,1,0.4c0.3,0.2,0.5,0.4,0.6,0.8s0.2,0.7,0.2,1.1
			c0,0.7-0.2,1.2-0.6,1.7c-0.4,0.5-1.2,0.7-2.3,0.7h-2v3.2H378.6z M379.6,60h2c0.7,0,1.2-0.1,1.4-0.4s0.4-0.6,0.4-1.1
			c0-0.3-0.1-0.6-0.3-0.8c-0.2-0.2-0.4-0.4-0.7-0.5c-0.2,0-0.5-0.1-1-0.1h-2V60z"/>
		<path class="st14" d="M387.5,64.1v-7.9h1.6l1.9,5.6c0.2,0.5,0.3,0.9,0.4,1.2c0.1-0.3,0.2-0.7,0.4-1.3l1.9-5.5h1.4v7.9h-1v-6.6
			l-2.3,6.6h-0.9l-2.3-6.7v6.7H387.5z"/>
	</g>
</g>
<g id="ALERT_Flag" class="st0">
	<g class="st2">
		<rect x="314.6" y="56.2" class="st5" width="43.8" height="8.4"/>
		<path class="st14" d="M314.6,64.1l3-7.9h1.1l3.2,7.9h-1.2l-0.9-2.4h-3.3l-0.9,2.4H314.6z M316.8,60.9h2.7l-0.8-2.2
			c-0.3-0.7-0.4-1.2-0.6-1.6c-0.1,0.5-0.2,1-0.4,1.5L316.8,60.9z"/>
		<path class="st14" d="M324.4,64.1v-7.9h1v6.9h3.9v0.9H324.4z"/>
		<path class="st14" d="M332.2,64.1v-7.9h5.7v0.9h-4.7v2.4h4.4v0.9h-4.4v2.7h4.8v0.9H332.2z"/>
		<path class="st14" d="M341.2,64.1v-7.9h3.5c0.7,0,1.2,0.1,1.6,0.2c0.4,0.1,0.7,0.4,0.9,0.7s0.3,0.8,0.3,1.2c0,0.6-0.2,1-0.5,1.4
			s-0.9,0.6-1.7,0.7c0.3,0.1,0.5,0.3,0.6,0.4c0.3,0.3,0.6,0.6,0.9,1l1.4,2.1h-1.3l-1-1.6c-0.3-0.5-0.6-0.8-0.8-1.1
			c-0.2-0.3-0.4-0.4-0.5-0.5c-0.2-0.1-0.3-0.2-0.5-0.2c-0.1,0-0.3,0-0.6,0h-1.2v3.5H341.2z M342.3,59.7h2.2c0.5,0,0.8,0,1.1-0.1
			c0.3-0.1,0.5-0.3,0.6-0.5c0.1-0.2,0.2-0.5,0.2-0.7c0-0.4-0.1-0.7-0.4-0.9s-0.7-0.4-1.3-0.4h-2.5V59.7z"/>
		<path class="st14" d="M352.6,64.1v-6.9H350v-0.9h6.2v0.9h-2.6v6.9H352.6z"/>
	</g>
</g>
<g id="HPA_Flag" class="st0">
	<g class="st2">
		<rect x="330.3" y="69.8" class="st5" width="25.8" height="8.4"/>
		<path class="st14" d="M331.2,77.7v-7.9h1v3.2h4.1v-3.2h1v7.9h-1V74h-4.1v3.7H331.2z"/>
		<path class="st14" d="M340.8,77.7v-7.9h3c0.5,0,0.9,0,1.2,0.1c0.4,0.1,0.7,0.2,1,0.4c0.3,0.2,0.5,0.4,0.6,0.8s0.2,0.7,0.2,1.1
			c0,0.7-0.2,1.2-0.6,1.7c-0.4,0.5-1.2,0.7-2.3,0.7h-2v3.2H340.8z M341.8,73.6h2c0.7,0,1.2-0.1,1.4-0.4s0.4-0.6,0.4-1.1
			c0-0.3-0.1-0.6-0.3-0.8c-0.2-0.2-0.4-0.4-0.7-0.5c-0.2,0-0.5-0.1-1-0.1h-2V73.6z"/>
		<path class="st14" d="M348.1,77.7l3-7.9h1.1l3.2,7.9h-1.2l-0.9-2.4H350l-0.9,2.4H348.1z M350.3,74.5h2.7l-0.8-2.2
			c-0.3-0.7-0.4-1.2-0.6-1.6c-0.1,0.5-0.2,1-0.4,1.5L350.3,74.5z"/>
	</g>
</g>
<g id="IN_HG_Flag" class="st0">
	<g class="st2">
		<rect x="382.7" y="69.8" class="st5" width="15.8" height="8.4"/>
		<path class="st14" d="M383.7,77.7v-7.9h1v7.9H383.7z"/>
		<path class="st14" d="M388.3,77.7v-7.9h1.1l4.1,6.2v-6.2h1v7.9h-1.1l-4.1-6.2v6.2H388.3z"/>
	</g>
	<g class="st2">
		<rect x="401.8" y="69.8" class="st5" width="19.7" height="8.4"/>
		<path class="st14" d="M402.7,77.7v-7.9h1v3.2h4.1v-3.2h1v7.9h-1V74h-4.1v3.7H402.7z"/>
		<path class="st14" d="M416,74.6v-0.9l3.3,0v2.9c-0.5,0.4-1,0.7-1.6,0.9c-0.5,0.2-1.1,0.3-1.7,0.3c-0.8,0-1.5-0.2-2.1-0.5
			c-0.6-0.3-1.1-0.8-1.4-1.4s-0.5-1.3-0.5-2.1c0-0.8,0.2-1.5,0.5-2.1c0.3-0.7,0.8-1.2,1.4-1.5s1.3-0.5,2.1-0.5
			c0.6,0,1.1,0.1,1.5,0.3c0.5,0.2,0.8,0.4,1.1,0.8s0.5,0.8,0.6,1.3l-0.9,0.3c-0.1-0.4-0.3-0.7-0.4-0.9s-0.4-0.4-0.8-0.6
			c-0.3-0.1-0.7-0.2-1.1-0.2c-0.5,0-0.9,0.1-1.2,0.2c-0.3,0.1-0.6,0.3-0.8,0.6s-0.4,0.5-0.5,0.8c-0.2,0.5-0.3,1-0.3,1.6
			c0,0.7,0.1,1.3,0.4,1.8c0.2,0.5,0.6,0.8,1.1,1.1c0.5,0.2,1,0.3,1.5,0.3c0.5,0,0.9-0.1,1.3-0.3c0.4-0.2,0.8-0.4,1-0.6v-1.5H416z"/>
	</g>
</g>
<g id="FT_Flag" class="st0">
	<g class="st2">
		<rect x="401.8" y="56.2" class="st5" width="15.8" height="8.4"/>
		<path class="st14" d="M402.7,64.1v-7.9h5.3v0.9h-4.3v2.4h3.7v0.9h-3.7v3.6H402.7z"/>
		<path class="st14" d="M413.1,64.1v-6.9h-2.6v-0.9h6.2v0.9h-2.6v6.9H413.1z"/>
	</g>
</g>
<g id="AP_Flag" class="st0">
	<g class="st2">
		<rect x="178.1" y="27.2" class="st5" width="16.8" height="8.4"/>
		<path class="st14" d="M178.1,35.1l3-7.9h1.1l3.2,7.9h-1.2l-0.9-2.4H180l-0.9,2.4H178.1z M180.3,31.9h2.7l-0.8-2.2
			c-0.3-0.7-0.4-1.2-0.6-1.6c-0.1,0.5-0.2,1-0.4,1.5L180.3,31.9z"/>
		<path class="st14" d="M187.9,35.1v-7.9h3c0.5,0,0.9,0,1.2,0.1c0.4,0.1,0.7,0.2,1,0.4c0.3,0.2,0.5,0.4,0.6,0.8s0.2,0.7,0.2,1.1
			c0,0.7-0.2,1.2-0.6,1.7c-0.4,0.5-1.2,0.7-2.3,0.7h-2v3.2H187.9z M189,31h2c0.7,0,1.2-0.1,1.4-0.4s0.4-0.6,0.4-1.1
			c0-0.3-0.1-0.6-0.3-0.8c-0.2-0.2-0.4-0.4-0.7-0.5c-0.2,0-0.5-0.1-1-0.1h-2V31z"/>
	</g>
	<polygon class="st16" points="194.6,25 177.7,25 176.2,23.5 195.9,23.5 	"/>
	<polygon class="st16" points="194.9,38.1 178,38.1 176.5,39.6 196.2,39.6 	"/>
	<polygon class="st16" points="195.6,25.5 195.6,37.4 197.1,38.4 197.1,24.5 	"/>
	<polygon class="st16" points="176.7,25.5 176.7,37.4 175.2,38.4 175.2,24.5 	"/>
</g>
</svg>
