<?xml version="1.0" encoding="utf-8"?>
<!-- Generator: Adobe Illustrator 19.0.0, SVG Export Plug-In . SVG Version: 6.00 Build 0)  -->
<svg version="1.1" xmlns="http://www.w3.org/2000/svg" xmlns:xlink="http://www.w3.org/1999/xlink" x="0px" y="0px"
	 viewBox="0 0 33.1 19.8" style="enable-background:new 0 0 33.1 19.8;" xml:space="preserve">
<style type="text/css">
	.st0{display:none;}
	.st1{display:inline;fill:#282828;stroke:#E5E5E5;stroke-width:2;stroke-miterlimit:10;}
	.st2{display:inline;}
	.st3{display:inline;fill:#58595B;}
	.st4{display:inline;fill:none;stroke:#414042;stroke-width:2;stroke-miterlimit:10;}
	.st5{fill:none;}
	.st6{fill:#414042;}
	.st7{display:inline;fill:none;stroke:#FFFFFF;stroke-miterlimit:10;}
	.st8{fill:#FFFFFF;}
	.st9{display:inline;fill:#3F403F;stroke:#000000;stroke-miterlimit:10;}
	.st10{fill:none;stroke:#000000;stroke-width:1.5;stroke-miterlimit:10;stroke-dasharray:1.5093,1.5093;}
	.st11{fill:#3F403F;stroke:#000000;stroke-width:2;stroke-miterlimit:10;}
	.st12{fill:none;stroke:#000000;stroke-width:1.5;stroke-miterlimit:10;stroke-dasharray:1.5898,1.5898;}
	.st13{fill:#FFFFFF;stroke:#FFFFFF;stroke-miterlimit:10;}
	.st14{fill:#F7941E;}
	.st15{fill:#ED1C24;}
	.st16{display:inline;fill:#F7941E;}
</style>
<g id="Layer_1" class="st0">
	<path id="XMLID_814_" class="st1" d="M201.8,38.5h-586.7c-1.7,0-3-0.9-3-2v-150c0-1.1,1.3-2,3-2h586.7c1.7,0,3,0.9,3,2v150
		C204.8,37.7,203.4,38.5,201.8,38.5z"/>
</g>
<g id="Base" class="st0">
	<path class="st2" d="M31-39.6c0,4.3-2.1,7.8-4.7,7.8h-321.5c-2.6,0-4.7-3.5-4.7-7.8V-92c0-4.3,2.1-7.8,4.7-7.8H26.3
		c2.6,0,4.7,3.5,4.7,7.8V-39.6z"/>
	<circle class="st3" cx="68.6" cy="-80.9" r="5.7"/>
	<line class="st4" x1="62.8" y1="-80.9" x2="74.3" y2="-80.9"/>
	<g class="st2">
		<rect x="-346" y="-19.6" class="st5" width="12.6" height="13.5"/>
		<path class="st6" d="M-345.1-11v-8.6h3.7c0.9,0,1.6,0.1,2,0.2s0.7,0.4,1,0.8s0.4,0.8,0.4,1.4c0,0.6-0.2,1.2-0.6,1.6
			c-0.4,0.4-0.9,0.7-1.7,0.8c0.4,0.2,0.7,0.5,0.9,0.7s0.6,0.7,1,1.4l1,1.7h-2.1l-1.3-1.9c-0.4-0.7-0.8-1.1-0.9-1.3s-0.3-0.3-0.5-0.4
			s-0.5-0.1-0.9-0.1h-0.4v3.6H-345.1z M-343.4-16h1.3c0.8,0,1.4,0,1.6-0.1s0.4-0.2,0.5-0.4s0.2-0.4,0.2-0.6c0-0.3-0.1-0.5-0.2-0.7
			s-0.4-0.3-0.7-0.3c-0.1,0-0.6,0-1.3,0h-1.4V-16z"/>
	</g>
	<g class="st2">
		<rect x="-364.9" y="-19.6" class="st5" width="10" height="13.5"/>
		<path class="st6" d="M-364-11v-8.6h2.8c1.1,0,1.7,0,2.1,0.1c0.5,0.1,0.9,0.4,1.2,0.8s0.5,1,0.5,1.7c0,0.5-0.1,1-0.3,1.3
			c-0.2,0.4-0.4,0.6-0.7,0.8s-0.6,0.3-0.9,0.4c-0.4,0.1-1,0.1-1.8,0.1h-1.1v3.2H-364z M-362.3-18.2v2.4h0.9c0.7,0,1.1,0,1.4-0.1
			s0.4-0.2,0.5-0.4s0.2-0.4,0.2-0.7c0-0.3-0.1-0.6-0.3-0.8s-0.4-0.3-0.7-0.4c-0.2,0-0.6-0.1-1.2-0.1H-362.3z"/>
	</g>
	<path class="st7" d="M89.5,17.3c0,2.8-1.9,5.1-4.3,5.1H50.8c-2.4,0-4.3-2.3-4.3-5.1v-70.9c0-2.8,1.9-5.1,4.3-5.1h34.4
		c2.4,0,4.3,2.3,4.3,5.1V17.3z"/>
</g>
<g id="Labels" class="st0">
	<g class="st2">
		<rect x="-366.8" y="-93.7" class="st5" width="41.6" height="9.1"/>
		<path class="st8" d="M-366.1-86.2v-7.4h1v3.7l3.7-3.7h1.3l-3.1,3l3.3,4.4h-1.3l-2.6-3.8l-1.2,1.2v2.6H-366.1z"/>
		<path class="st8" d="M-359.9-86.2l2.9-7.4h1.1l3,7.4h-1.1l-0.9-2.3h-3.1l-0.8,2.3H-359.9z M-357.8-89.3h2.5l-0.8-2.1
			c-0.2-0.6-0.4-1.1-0.5-1.5c-0.1,0.5-0.2,1-0.4,1.4L-357.8-89.3z"/>
		<path class="st8" d="M-352.2-86.2v-7.4h2.8c0.5,0,0.9,0,1.1,0.1c0.4,0.1,0.7,0.2,0.9,0.3s0.4,0.4,0.6,0.7s0.2,0.6,0.2,1
			c0,0.6-0.2,1.2-0.6,1.6c-0.4,0.4-1.1,0.7-2.2,0.7h-1.9v3H-352.2z M-351.2-90.1h1.9c0.6,0,1.1-0.1,1.4-0.4c0.3-0.2,0.4-0.6,0.4-1
			c0-0.3-0.1-0.6-0.2-0.8s-0.4-0.4-0.6-0.4c-0.2,0-0.5-0.1-0.9-0.1h-1.9V-90.1z"/>
		<path class="st8" d="M-339.5-86.2h-0.9V-92c-0.2,0.2-0.5,0.4-0.9,0.6s-0.7,0.4-1,0.5v-0.9c0.5-0.2,1-0.5,1.3-0.9
			c0.4-0.3,0.7-0.7,0.8-1h0.6V-86.2z"/>
		<path class="st8" d="M-334.2-86.2V-88h-3.2v-0.8l3.4-4.8h0.7v4.8h1v0.8h-1v1.8H-334.2z M-334.2-88.8v-3.4l-2.3,3.4H-334.2z"/>
		<path class="st8" d="M-331.3-89.9c0-0.9,0.1-1.6,0.3-2.1c0.2-0.5,0.4-0.9,0.8-1.2s0.8-0.4,1.3-0.4c0.4,0,0.7,0.1,1.1,0.2
			c0.3,0.2,0.5,0.4,0.7,0.7c0.2,0.3,0.4,0.7,0.5,1.1c0.1,0.4,0.2,1,0.2,1.8c0,0.9-0.1,1.6-0.3,2.1c-0.2,0.5-0.4,1-0.8,1.2
			c-0.4,0.3-0.8,0.4-1.4,0.4c-0.7,0-1.3-0.3-1.7-0.8C-331.1-87.5-331.3-88.5-331.3-89.9z M-330.4-89.9c0,1.2,0.1,2,0.4,2.4
			c0.3,0.4,0.6,0.6,1.1,0.6s0.8-0.2,1.1-0.6c0.3-0.4,0.4-1.2,0.4-2.4c0-1.2-0.1-2-0.4-2.4c-0.3-0.4-0.6-0.6-1.1-0.6
			c-0.4,0-0.8,0.2-1,0.5C-330.2-91.9-330.4-91.1-330.4-89.9z"/>
	</g>
	<g class="st2">
		<rect x="-378.9" y="-105.5" class="st5" width="59.6" height="7.2"/>
		<path class="st8" d="M-378.6-99.3l1.3-6.3h2.2c0.5,0,0.8,0,1,0c0.3,0,0.6,0.1,0.8,0.3c0.2,0.1,0.4,0.3,0.5,0.5
			c0.1,0.2,0.2,0.5,0.2,0.7c0,0.3-0.1,0.7-0.3,0.9c-0.2,0.3-0.5,0.5-0.9,0.6c0.3,0.1,0.6,0.2,0.8,0.5s0.3,0.5,0.3,0.8
			c0,0.4-0.1,0.7-0.3,1.1c-0.2,0.3-0.5,0.6-0.9,0.7s-0.9,0.2-1.5,0.2H-378.6z M-377.1-100.3h1.2c0.5,0,0.9,0,1.1-0.1
			c0.2-0.1,0.3-0.2,0.4-0.3c0.1-0.2,0.2-0.3,0.2-0.5c0-0.2-0.1-0.4-0.2-0.5c-0.2-0.1-0.4-0.2-0.8-0.2h-1.5L-377.1-100.3z
			 M-376.5-103h1c0.4,0,0.8,0,1-0.1c0.2-0.1,0.3-0.2,0.4-0.3c0.1-0.1,0.1-0.3,0.1-0.5c0-0.2,0-0.3-0.1-0.4s-0.2-0.2-0.4-0.2
			c-0.1,0-0.3,0-0.7,0h-1L-376.5-103z"/>
		<path class="st8" d="M-372.2-99.3l1.3-6.3h4.7l-0.2,1.1h-3.4l-0.3,1.4h3.3l-0.2,1.1h-3.3l-0.4,1.7h3.7l-0.2,1.1H-372.2z"/>
		<path class="st8" d="M-361.3-99.3h-1.2l-1.7-4.2l-0.9,4.2h-1.2l1.3-6.3h1.2l1.7,4.2l0.9-4.2h1.2L-361.3-99.3z"/>
		<path class="st8" d="M-360-99.3l1.3-6.3h1.7c0.5,0,0.8,0,0.9,0c0.3,0,0.5,0.1,0.7,0.2c0.2,0.1,0.4,0.2,0.6,0.3s0.3,0.3,0.4,0.5
			s0.2,0.4,0.3,0.7c0.1,0.3,0.1,0.6,0.1,0.9c0,0.7-0.1,1.3-0.4,1.8c-0.3,0.5-0.6,0.9-1,1.3c-0.3,0.2-0.7,0.4-1.2,0.5
			c-0.3,0.1-0.7,0.1-1.2,0.1H-360z M-358.5-100.3h0.7c0.5,0,0.8,0,1-0.1c0.2-0.1,0.4-0.2,0.6-0.3c0.3-0.2,0.5-0.5,0.6-0.9
			c0.2-0.4,0.3-0.8,0.3-1.4c0-0.4-0.1-0.8-0.2-1s-0.3-0.4-0.5-0.4c-0.1-0.1-0.4-0.1-0.8-0.1h-0.8L-358.5-100.3z"/>
		<path class="st8" d="M-353.7-99.3l1.3-6.3h1.3l-1.3,6.3H-353.7z"/>
		<path class="st8" d="M-350.2-99.3h-1.7l2.8-3.2l-1.6-3.1h1.4l0.6,1.2c0,0,0.2,0.3,0.4,0.9c0,0,0,0.1,0.1,0.1
			c0.3-0.4,0.6-0.8,0.9-1l1-1.1h1.6l-2.9,3.3l1.5,3h-1.5l-0.5-0.9c-0.2-0.5-0.4-0.9-0.5-1.1c-0.1,0.2-0.4,0.5-0.9,1L-350.2-99.3z"/>
		<path class="st8" d="M-346.1-99.1l3.1-6.5h0.9l-3.1,6.5H-346.1z"/>
		<path class="st8" d="M-342.9-99.3l1.3-6.3h1.3l-0.6,2.7l2.9-2.7h1.7l-2.8,2.5l2.1,3.8h-1.5l-1.6-3l-1.2,1.1l-0.4,1.9H-342.9z"/>
		<path class="st8" d="M-336.6-99.3l1.3-6.3h1.3l-1.3,6.3H-336.6z"/>
		<path class="st8" d="M-329.1-99.3h-1.2l-1.7-4.2l-0.9,4.2h-1.2l1.3-6.3h1.2l1.7,4.2l0.9-4.2h1.2L-329.1-99.3z"/>
		<path class="st8" d="M-324.3-102.6h2.8l-0.6,2.7c-0.3,0.2-0.7,0.4-1.2,0.5c-0.5,0.1-1,0.2-1.5,0.2c-0.8,0-1.4-0.2-1.8-0.5
			c-0.6-0.5-0.9-1.2-0.9-2.1c0-0.6,0.1-1.2,0.4-1.8c0.3-0.7,0.7-1.2,1.2-1.6s1.2-0.6,1.9-0.6s1.3,0.2,1.7,0.5s0.7,0.8,0.9,1.5
			l-1.2,0.1c-0.1-0.4-0.3-0.6-0.5-0.8c-0.2-0.2-0.5-0.3-0.9-0.3c-0.4,0-0.8,0.1-1.2,0.3s-0.6,0.6-0.8,1c-0.2,0.5-0.3,1-0.3,1.5
			c0,0.5,0.1,0.9,0.4,1.2c0.2,0.3,0.6,0.4,1.1,0.4c0.3,0,0.6,0,0.9-0.1c0.3-0.1,0.5-0.2,0.8-0.3l0.2-0.9h-1.6L-324.3-102.6z"/>
	</g>
</g>
<g id="Outer_Knob_R" class="st0">
	<path class="st9" d="M178.7-16.5c0,17-13.8,30.9-30.9,30.9c-17.1,0-30.9-13.8-30.9-30.9c0-17.1,13.8-30.9,30.9-30.9
		C164.9-47.4,178.7-33.5,178.7-16.5z"/>
	<g class="st2">
		<g>
			<path class="st10" d="M179.6-16.5c0,17.5-14.2,31.7-31.7,31.7c-17.5,0-31.7-14.2-31.7-31.7c0-17.5,14.2-31.7,31.7-31.7
				C165.4-48.2,179.6-34,179.6-16.5z"/>
		</g>
	</g>
</g>
<g id="Inner_Knob_R" class="st0">
	<g class="st2">
		<circle class="st11" cx="147.8" cy="-16.5" r="20.8"/>
		<g>
			<path class="st12" d="M169.6-16.5c0,12-9.7,21.8-21.8,21.8s-21.8-9.7-21.8-21.8c0-12,9.7-21.8,21.8-21.8S169.6-28.5,169.6-16.5z"
				/>
		</g>
	</g>
</g>
<g id="BARO_Button">
	<path class="st13" d="M180.6-83.8c0,1.1-0.9,2-2,2h-28.1c-1.1,0-2-0.9-2-2v-14.8c0-1.1,0.9-2,2-2h28.1c1.1,0,2,0.9,2,2V-83.8z"/>
	<g>
		<path d="M150.6-86.8v-7.9h2.8c0.6,0,1,0.1,1.3,0.2c0.3,0.2,0.6,0.4,0.8,0.7s0.3,0.7,0.3,1.1c0,0.4-0.1,0.7-0.3,1
			c-0.2,0.3-0.4,0.5-0.8,0.7c0.4,0.1,0.8,0.4,1,0.7c0.2,0.3,0.4,0.7,0.4,1.2c0,0.5-0.1,0.9-0.3,1.3s-0.5,0.6-0.9,0.8
			s-0.9,0.2-1.5,0.2H150.6z M151.6-91.4h1.6c0.4,0,0.7,0,0.9-0.1c0.3-0.1,0.5-0.2,0.6-0.4c0.1-0.2,0.2-0.4,0.2-0.7
			c0-0.3-0.1-0.5-0.2-0.7c-0.1-0.2-0.3-0.3-0.5-0.4c-0.2-0.1-0.6-0.1-1.1-0.1h-1.5V-91.4z M151.6-87.8h1.9c0.4,0,0.7,0,0.9-0.1
			c0.3-0.1,0.5-0.2,0.6-0.5s0.2-0.5,0.2-0.8c0-0.3-0.1-0.5-0.2-0.8s-0.3-0.4-0.6-0.5s-0.6-0.1-1.1-0.1h-1.7V-87.8z"/>
		<path d="M156.8-86.8l2.9-7.9h1.1l3,7.9h-1.1l-0.9-2.4h-3.1l-0.8,2.4H156.8z M158.9-90.1h2.5l-0.8-2.2c-0.2-0.7-0.4-1.2-0.5-1.6
			c-0.1,0.5-0.2,1-0.4,1.5L158.9-90.1z"/>
		<path d="M164.5-86.8v-7.9h3.3c0.7,0,1.2,0.1,1.5,0.2c0.3,0.1,0.6,0.4,0.8,0.7s0.3,0.7,0.3,1.2c0,0.6-0.2,1.1-0.5,1.4
			c-0.4,0.4-0.9,0.6-1.6,0.7c0.3,0.1,0.5,0.3,0.6,0.4c0.3,0.3,0.6,0.6,0.8,1l1.3,2.1h-1.2l-1-1.6c-0.4-0.6-0.7-1.1-0.9-1.3
			s-0.4-0.4-0.6-0.4s-0.4-0.1-0.8-0.1h-1.1v3.5H164.5z M165.5-91.2h2.1c0.5,0,0.8,0,1.1-0.1s0.4-0.2,0.6-0.5
			c0.1-0.2,0.2-0.5,0.2-0.7c0-0.4-0.1-0.7-0.4-0.9s-0.7-0.3-1.2-0.3h-2.4V-91.2z"/>
		<path d="M171.7-90.7c0-1.3,0.3-2.4,1-3.1s1.5-1.1,2.5-1.1c0.7,0,1.3,0.2,1.8,0.5s1,0.8,1.3,1.4s0.5,1.3,0.5,2.2
			c0,1.2-0.3,2.1-0.9,2.9c-0.7,0.8-1.6,1.2-2.6,1.2c-1.1,0-2-0.4-2.7-1.2C172-88.7,171.7-89.6,171.7-90.7z M172.8-90.7
			c0,1,0.2,1.7,0.7,2.3c0.5,0.5,1.1,0.8,1.8,0.8c0.7,0,1.3-0.3,1.8-0.8c0.5-0.5,0.7-1.3,0.7-2.4c0-0.7-0.1-1.3-0.4-1.8
			c-0.2-0.4-0.5-0.7-0.9-1c-0.4-0.2-0.8-0.4-1.3-0.4c-0.7,0-1.4,0.3-1.8,0.8C173-92.6,172.8-91.8,172.8-90.7z"/>
	</g>
</g>
<g id="ARM_Button">
	<path class="st13" d="M121.6-83.8c0,1.1-0.9,2-2,2H91.5c-1.1,0-2-0.9-2-2v-14.8c0-1.1,0.9-2,2-2h28.1c1.1,0,2,0.9,2,2V-83.8z"/>
	<g>
		<path d="M94-86.8l2.9-7.9h1.1l3,7.9h-1.1L99-89.2h-3.1L95-86.8H94z M96.1-90.1h2.5l-0.8-2.2c-0.2-0.7-0.4-1.2-0.5-1.6
			c-0.1,0.5-0.2,1-0.4,1.5L96.1-90.1z"/>
		<path d="M101.8-86.8v-7.9h3.3c0.7,0,1.2,0.1,1.5,0.2c0.3,0.1,0.6,0.4,0.8,0.7c0.2,0.3,0.3,0.7,0.3,1.2c0,0.6-0.2,1.1-0.5,1.4
			c-0.4,0.4-0.9,0.6-1.6,0.7c0.3,0.1,0.5,0.3,0.6,0.4c0.3,0.3,0.6,0.6,0.8,1l1.3,2.1h-1.2l-1-1.6c-0.4-0.6-0.7-1.1-0.9-1.3
			c-0.2-0.2-0.4-0.4-0.6-0.4c-0.2-0.1-0.4-0.1-0.8-0.1h-1.1v3.5H101.8z M102.7-91.2h2.1c0.5,0,0.8,0,1.1-0.1
			c0.2-0.1,0.4-0.2,0.6-0.5c0.1-0.2,0.2-0.5,0.2-0.7c0-0.4-0.1-0.7-0.4-0.9c-0.3-0.2-0.7-0.3-1.2-0.3h-2.4V-91.2z"/>
		<path d="M109.2-86.8v-7.9h1.5l1.8,5.6l0.4,1.2c0.1-0.3,0.2-0.7,0.4-1.3l1.8-5.5h1.3v7.9h-0.9v-6.6l-2.2,6.6h-0.9l-2.2-6.7v6.7
			H109.2z"/>
	</g>
</g>
<g id="DN_Button">
	<path class="st13" d="M84.6,13.2c0,1.1-0.9,2-2,2H54.5c-1.1,0-2-0.9-2-2V-1.6c0-1.1,0.9-2,2-2h28.1c1.1,0,2,0.9,2,2V13.2z"/>
	<g>
		<path d="M61.8,10.2V2.3h2.6c0.6,0,1.1,0,1.4,0.1c0.4,0.1,0.8,0.4,1.1,0.7c0.3,0.3,0.6,0.8,0.7,1.3S68,5.5,68,6.2
			c0,0.9-0.2,1.6-0.5,2.3c-0.3,0.6-0.7,1.1-1.2,1.3s-1.1,0.4-1.9,0.4H61.8z M62.8,9.2h1.6c0.6,0,1.1-0.1,1.5-0.3
			c0.3-0.2,0.6-0.5,0.8-0.9C66.9,7.5,67,6.9,67,6.2c0-0.8-0.1-1.4-0.4-1.9c-0.3-0.5-0.6-0.8-1-0.9c-0.3-0.1-0.7-0.2-1.3-0.2h-1.6
			V9.2z"/>
		<path d="M69.3,10.2V2.3h1l3.9,6.2V2.3h0.9v7.9h-1L70.3,4v6.2H69.3z"/>
	</g>
</g>
<g id="UP_Button">
	<path class="st13" d="M84.6-34.7c0,1.1-0.9,2-2,2H54.5c-1.1,0-2-0.9-2-2v-14.8c0-1.1,0.9-2,2-2h28.1c1.1,0,2,0.9,2,2V-34.7z"/>
	<g>
		<path d="M67.1-45.6h1v4.5c0,0.8-0.1,1.4-0.3,1.9c-0.2,0.5-0.5,0.9-0.9,1.2s-1,0.4-1.7,0.4c-1,0-1.7-0.3-2.2-0.8
			c-0.5-0.5-0.7-1.4-0.7-2.7v-4.5h1v4.5c0,0.7,0.1,1.2,0.2,1.5c0.1,0.3,0.3,0.6,0.6,0.7c0.3,0.2,0.6,0.3,1.1,0.3
			c0.7,0,1.2-0.2,1.5-0.5s0.5-1,0.5-2V-45.6z"/>
		<path d="M69.7-37.7v-7.9h2.8c0.7,0,1.1,0,1.5,0.2c0.4,0.1,0.8,0.4,1,0.8c0.3,0.4,0.4,0.8,0.4,1.4c0,0.7-0.2,1.3-0.6,1.7
			c-0.4,0.4-1.1,0.7-2.2,0.7h-1.9v3.2H69.7z M70.7-41.9h1.9c0.6,0,1.1-0.1,1.3-0.4c0.3-0.2,0.4-0.6,0.4-1.1c0-0.3-0.1-0.6-0.2-0.8
			c-0.1-0.2-0.3-0.4-0.5-0.5c-0.2-0.1-0.6-0.1-1.1-0.1h-1.9V-41.9z"/>
	</g>
</g>
<g id="ALT_Button">
	<path class="st13" d="M32.6,17.3c0,1.1-0.9,2-2,2H2.5c-1.1,0-2-0.9-2-2V2.5c0-1.1,0.9-2,2-2h28.1c1.1,0,2,0.9,2,2V17.3z"/>
	<g>
		<path d="M7.5,14.3l2.9-7.9h1.1l3,7.9h-1.1l-0.9-2.4H9.3l-0.8,2.4H7.5z M9.6,11h2.5l-0.8-2.2c-0.2-0.7-0.4-1.2-0.5-1.6
			c-0.1,0.5-0.2,1-0.4,1.5L9.6,11z"/>
		<path d="M15.2,14.3V6.4h1v6.9h3.7v0.9H15.2z"/>
		<path d="M22.2,14.3V7.3h-2.5V6.4h5.9v0.9h-2.5v6.9H22.2z"/>
	</g>
</g>
<g id="REV_Button">
	<path class="st13" d="M-27.4,17.3c0,1.1-0.9,2-2,2h-28.1c-1.1,0-2-0.9-2-2V2.5c0-1.1,0.9-2,2-2h28.1c1.1,0,2,0.9,2,2V17.3z"/>
	<g>
		<path d="M-53.3,14.3V6.4h3.3c0.7,0,1.2,0.1,1.5,0.2c0.3,0.1,0.6,0.4,0.8,0.7c0.2,0.3,0.3,0.7,0.3,1.2c0,0.6-0.2,1.1-0.5,1.4
			c-0.4,0.4-0.9,0.6-1.6,0.7c0.3,0.1,0.5,0.3,0.6,0.4c0.3,0.3,0.6,0.6,0.8,1l1.3,2.1H-48l-1-1.6c-0.4-0.6-0.7-1.1-0.9-1.3
			c-0.2-0.2-0.4-0.4-0.6-0.4s-0.4-0.1-0.8-0.1h-1.1v3.5H-53.3z M-52.3,9.9h2.1c0.5,0,0.8,0,1.1-0.1c0.2-0.1,0.4-0.2,0.6-0.5
			c0.1-0.2,0.2-0.5,0.2-0.7c0-0.4-0.1-0.7-0.4-0.9c-0.3-0.2-0.7-0.3-1.2-0.3h-2.4V9.9z"/>
		<path d="M-45.8,14.3V6.4h5.4v0.9h-4.4v2.4h4.1v0.9h-4.1v2.7h4.6v0.9H-45.8z"/>
		<path d="M-36.7,14.3l-2.9-7.9h1.1l1.9,5.7c0.1,0.4,0.3,0.9,0.4,1.3c0.1-0.4,0.2-0.9,0.4-1.3l2-5.7h1l-2.9,7.9H-36.7z"/>
	</g>
</g>
<g id="APR_Button">
	<path class="st13" d="M-94.4,17.3c0,1.1-0.9,2-2,2h-28.1c-1.1,0-2-0.9-2-2V2.5c0-1.1,0.9-2,2-2h28.1c1.1,0,2,0.9,2,2V17.3z"/>
	<g>
		<path d="M-121.1,14.3l2.9-7.9h1.1l3,7.9h-1.1l-0.9-2.4h-3.1l-0.8,2.4H-121.1z M-119,11h2.5l-0.8-2.2c-0.2-0.7-0.4-1.2-0.5-1.6
			c-0.1,0.5-0.2,1-0.4,1.5L-119,11z"/>
		<path d="M-113.4,14.3V6.4h2.8c0.7,0,1.1,0,1.5,0.2c0.4,0.1,0.8,0.4,1,0.8c0.3,0.4,0.4,0.8,0.4,1.4c0,0.7-0.2,1.3-0.6,1.7
			c-0.4,0.4-1.1,0.7-2.2,0.7h-1.9v3.2H-113.4z M-112.4,10.1h1.9c0.6,0,1.1-0.1,1.3-0.4s0.4-0.6,0.4-1.1c0-0.3-0.1-0.6-0.2-0.8
			c-0.1-0.2-0.3-0.4-0.5-0.5c-0.2-0.1-0.6-0.1-1.1-0.1h-1.9V10.1z"/>
		<path d="M-106.4,14.3V6.4h3.3c0.7,0,1.2,0.1,1.5,0.2c0.3,0.1,0.6,0.4,0.8,0.7s0.3,0.7,0.3,1.2c0,0.6-0.2,1.1-0.5,1.4
			c-0.4,0.4-0.9,0.6-1.6,0.7c0.3,0.1,0.5,0.3,0.6,0.4c0.3,0.3,0.6,0.6,0.8,1l1.3,2.1h-1.2l-1-1.6c-0.4-0.6-0.7-1.1-0.9-1.3
			s-0.4-0.4-0.6-0.4c-0.2-0.1-0.4-0.1-0.8-0.1h-1.1v3.5H-106.4z M-105.5,9.9h2.1c0.5,0,0.8,0,1.1-0.1c0.2-0.1,0.4-0.2,0.6-0.5
			c0.1-0.2,0.2-0.5,0.2-0.7c0-0.4-0.1-0.7-0.4-0.9s-0.7-0.3-1.2-0.3h-2.4V9.9z"/>
	</g>
</g>
<g id="Nav_Button">
	<path class="st13" d="M-163.4,17.3c0,1.1-0.9,2-2,2h-28.1c-1.1,0-2-0.9-2-2V2.5c0-1.1,0.9-2,2-2h28.1c1.1,0,2,0.9,2,2V17.3z"/>
	<g>
		<path d="M-189,14.3V6.4h1l3.9,6.2V6.4h0.9v7.9h-1l-3.9-6.2v6.2H-189z"/>
		<path d="M-182.2,14.3l2.9-7.9h1.1l3,7.9h-1.1l-0.9-2.4h-3.1l-0.8,2.4H-182.2z M-180.1,11h2.5l-0.8-2.2c-0.2-0.7-0.4-1.2-0.5-1.6
			c-0.1,0.5-0.2,1-0.4,1.5L-180.1,11z"/>
		<path d="M-173.1,14.3l-2.9-7.9h1.1l1.9,5.7c0.1,0.4,0.3,0.9,0.4,1.3c0.1-0.4,0.2-0.9,0.4-1.3l2-5.7h1l-2.9,7.9H-173.1z"/>
	</g>
</g>
<g id="HGD_Button">
	<path class="st13" d="M-231.6,17.3c0,1.1-0.9,2-2,2h-28.1c-1.1,0-2-0.9-2-2V2.5c0-1.1,0.9-2,2-2h28.1c1.1,0,2,0.9,2,2V17.3z"/>
	<g>
		<path d="M-258.4,14.3V6.4h1v3.2h3.9V6.4h1v7.9h-1v-3.7h-3.9v3.7H-258.4z"/>
		<path d="M-250.9,14.3V6.4h2.6c0.6,0,1.1,0,1.4,0.1c0.4,0.1,0.8,0.4,1.1,0.7c0.3,0.3,0.6,0.8,0.7,1.3c0.2,0.5,0.3,1.1,0.3,1.8
			c0,0.9-0.2,1.6-0.5,2.3c-0.3,0.6-0.7,1.1-1.2,1.3c-0.5,0.3-1.1,0.4-1.9,0.4H-250.9z M-249.9,13.3h1.6c0.6,0,1.1-0.1,1.5-0.3
			c0.3-0.2,0.6-0.5,0.8-0.9c0.2-0.5,0.4-1.2,0.4-1.9c0-0.8-0.1-1.4-0.4-1.9c-0.3-0.5-0.6-0.8-1-0.9c-0.3-0.1-0.7-0.2-1.3-0.2h-1.6
			V13.3z"/>
		<path d="M-239.9,11.2v-0.9l3.2,0v2.9c-0.5,0.4-1,0.7-1.5,0.9s-1,0.3-1.6,0.3c-0.7,0-1.4-0.2-1.9-0.5s-1-0.8-1.4-1.4
			s-0.5-1.3-0.5-2.2c0-0.9,0.2-1.6,0.5-2.2s0.8-1.1,1.3-1.4c0.5-0.3,1.2-0.5,1.9-0.5c0.5,0,1,0.1,1.4,0.3c0.4,0.2,0.7,0.4,1,0.7
			s0.5,0.8,0.6,1.3l-0.9,0.3c-0.1-0.4-0.3-0.8-0.5-1c-0.2-0.2-0.4-0.4-0.7-0.5c-0.3-0.1-0.6-0.2-1-0.2c-0.5,0-1,0.1-1.4,0.3
			c-0.4,0.2-0.7,0.6-0.9,1.1c-0.2,0.5-0.4,1.1-0.4,1.8c0,1.1,0.3,1.8,0.8,2.4c0.5,0.5,1.2,0.8,2,0.8c0.4,0,0.8-0.1,1.2-0.2
			c0.4-0.2,0.7-0.4,1-0.6v-1.5H-239.9z"/>
	</g>
</g>
<g id="AP_Button">
	<path class="st13" d="M-335.5,18.3c0,1.1-0.9,2-2,2h-28.1c-1.1,0-2-0.9-2-2V3.5c0-1.1,0.9-2,2-2h28.1c1.1,0,2,0.9,2,2V18.3z"/>
	<g>
		<path d="M-359.1,15.3l2.9-7.9h1.1l3,7.9h-1.1l-0.9-2.4h-3.1l-0.8,2.4H-359.1z M-357,12h2.5l-0.8-2.2c-0.2-0.7-0.4-1.2-0.5-1.6
			c-0.1,0.5-0.2,1-0.4,1.5L-357,12z"/>
		<path d="M-351.4,15.3V7.4h2.8c0.7,0,1.1,0,1.5,0.2c0.4,0.1,0.8,0.4,1,0.8c0.3,0.4,0.4,0.8,0.4,1.4c0,0.7-0.2,1.3-0.6,1.7
			c-0.4,0.4-1.1,0.7-2.2,0.7h-1.9v3.2H-351.4z M-350.4,11.1h1.9c0.6,0,1.1-0.1,1.3-0.4s0.4-0.6,0.4-1.1c0-0.3-0.1-0.6-0.2-0.8
			c-0.1-0.2-0.3-0.4-0.5-0.5c-0.2-0.1-0.6-0.1-1.1-0.1h-1.9V11.1z"/>
	</g>
</g>
<g id="Text" class="st0">
	<g class="st2">
		<rect x="-297.9" y="-96.1" class="st5" width="65" height="25.3"/>
		<path class="st14" d="M-292.4-84.3l-1.1,9.2l-1,0.8l-0.8-1l1.1-9.2l1-0.8L-292.4-84.3z M-284.1-73.7l0.8,1l-1,0.8l-9.1-1.1l-0.8-1
			l1-0.8L-284.1-73.7z M-291-95.6l-1.1,9.2l-1,0.8l-0.8-1l1.1-9.2l1-0.8L-291-95.6z M-287.7-84.2l0.3,1.4l-3.9,7.1l-1.2,0.5
			l-0.3-1.5l3.9-7L-287.7-84.2z M-281.4-96.4l0.8,1l-1,0.8l-9.1-1.1l-0.8-1l1-0.8L-281.4-96.4z M-282.4-94.1l0.3,1.4l-3.9,7.1
			l-1.2,0.5l-0.3-1.5l3.9-7L-282.4-94.1z M-281-82.9l-1.1,9.2l-1,0.8l-0.8-1l1.1-9.2l1-0.8L-281-82.9z M-279.7-94.2l-1.1,9.2l-1,0.8
			l-0.8-1l1.1-9.2l1-0.8L-279.7-94.2z"/>
		<path class="st14" d="M-270.8-84.3l-1.1,9.2l-1,0.8l-0.8-1l1.1-9.2l1-0.8L-270.8-84.3z M-262.5-73.7l0.8,1l-1,0.8l-9.1-1.1l-0.8-1
			l1-0.8L-262.5-73.7z M-269.4-95.6l-1.1,9.2l-1,0.8l-0.8-1l1.1-9.2l1-0.8L-269.4-95.6z M-266-84.2l0.3,1.4l-3.9,7.1l-1.2,0.5
			l-0.3-1.5l3.9-7L-266-84.2z M-259.8-96.4l0.8,1l-1,0.8l-9.1-1.1l-0.8-1l1-0.8L-259.8-96.4z M-260.8-94.1l0.3,1.4l-3.9,7.1
			l-1.2,0.5l-0.3-1.5l3.9-7L-260.8-94.1z M-259.4-82.9l-1.1,9.2l-1,0.8l-0.8-1l1.1-9.2l1-0.8L-259.4-82.9z M-258-94.2l-1.1,9.2
			l-1,0.8l-0.8-1l1.1-9.2l1-0.8L-258-94.2z"/>
		<path class="st14" d="M-249.2-84.3l-1.1,9.2l-1,0.8l-0.8-1l1.1-9.2l1-0.8L-249.2-84.3z M-240.9-73.7l0.8,1l-1,0.8l-9.1-1.1l-0.8-1
			l1-0.8L-240.9-73.7z M-247.8-95.6l-1.1,9.2l-1,0.8l-0.8-1l1.1-9.2l1-0.8L-247.8-95.6z M-244.4-84.2l0.3,1.4l-3.9,7.1l-1.2,0.5
			l-0.3-1.5l3.9-7L-244.4-84.2z M-238.2-96.4l0.8,1l-1,0.8l-9.1-1.1l-0.8-1l1-0.8L-238.2-96.4z M-239.2-94.1l0.3,1.4l-3.9,7.1
			l-1.2,0.5l-0.3-1.5l3.9-7L-239.2-94.1z M-237.8-82.9l-1.1,9.2l-1,0.8l-0.8-1l1.1-9.2l1-0.8L-237.8-82.9z M-236.4-94.2l-1.1,9.2
			l-1,0.8l-0.8-1l1.1-9.2l1-0.8L-236.4-94.2z"/>
	</g>
	<g class="st2">
		<rect x="-299.9" y="-62.1" class="st5" width="65" height="25.3"/>
		<path class="st14" d="M-296.2-61.1v9.3l-0.9,0.9l-0.9-0.9v-9.3l0.9-0.9L-296.2-61.1z M-296.2-49.6v9.3l-0.9,0.9l-0.9-0.9v-9.3
			l0.9-0.9L-296.2-49.6z M-286.8-63.1l0.9,0.9l-0.9,0.9h-9.2l-0.9-0.9l0.9-0.9H-286.8z M-286.8-40.2l0.9,0.9l-0.9,0.9h-9.2l-0.9-0.9
			l0.9-0.9H-286.8z M-291.5-50.1l0.5,1.3l-3,7.5l-1.2,0.6l-0.5-1.4l3-7.4L-291.5-50.1z M-287.5-60.6l0.5,1.3l-3,7.5l-1.2,0.6
			l-0.5-1.4l3-7.4L-287.5-60.6z M-284.8-61.1v9.3l-0.9,0.9l-0.9-0.9v-9.3l0.9-0.9L-284.8-61.1z M-284.8-49.6v9.3l-0.9,0.9l-0.9-0.9
			v-9.3l0.9-0.9L-284.8-49.6z"/>
		<path class="st14" d="M-273.4-61.1v9.3l-0.9,0.9l-0.9-0.9v-9.3l0.9-0.9L-273.4-61.1z M-273.4-49.6v9.3l-0.9,0.9l-0.9-0.9v-9.3
			l0.9-0.9L-273.4-49.6z M-263.9-63.1l0.9,0.9l-0.9,0.9h-9.2l-0.9-0.9l0.9-0.9H-263.9z M-263.9-40.2l0.9,0.9l-0.9,0.9h-9.2l-0.9-0.9
			l0.9-0.9H-263.9z M-268.7-50.1l0.5,1.3l-3,7.5l-1.2,0.6l-0.5-1.4l3-7.4L-268.7-50.1z M-264.7-60.6l0.5,1.3l-3,7.5l-1.2,0.6
			l-0.5-1.4l3-7.4L-264.7-60.6z M-261.9-61.1v9.3l-0.9,0.9l-0.9-0.9v-9.3l0.9-0.9L-261.9-61.1z M-261.9-49.6v9.3l-0.9,0.9l-0.9-0.9
			v-9.3l0.9-0.9L-261.9-49.6z"/>
		<path class="st14" d="M-250.5-61.1v9.3l-0.9,0.9l-0.9-0.9v-9.3l0.9-0.9L-250.5-61.1z M-250.5-49.6v9.3l-0.9,0.9l-0.9-0.9v-9.3
			l0.9-0.9L-250.5-49.6z M-241.1-63.1l0.9,0.9l-0.9,0.9h-9.2l-0.9-0.9l0.9-0.9H-241.1z M-241-40.2l0.9,0.9l-0.9,0.9h-9.2l-0.9-0.9
			l0.9-0.9H-241z M-245.8-50.1l0.5,1.3l-3,7.5l-1.2,0.6l-0.5-1.4l3-7.4L-245.8-50.1z M-241.8-60.6l0.5,1.3l-3,7.5l-1.2,0.6l-0.5-1.4
			l3-7.4L-241.8-60.6z M-239.1-61.1v9.3l-0.9,0.9l-0.9-0.9v-9.3l0.9-0.9L-239.1-61.1z M-239.1-49.6v9.3l-0.9,0.9l-0.9-0.9v-9.3
			l0.9-0.9L-239.1-49.6z"/>
	</g>
	<g class="st2">
		<rect x="-189.9" y="-96.1" class="st5" width="65" height="25.3"/>
		<path class="st14" d="M-184.4-84.3l-1.1,9.2l-1,0.8l-0.8-1l1.1-9.2l1-0.8L-184.4-84.3z M-176.1-73.7l0.8,1l-1,0.8l-9.1-1.1l-0.8-1
			l1-0.8L-176.1-73.7z M-183-95.6l-1.1,9.2l-1,0.8l-0.8-1l1.1-9.2l1-0.8L-183-95.6z M-179.7-84.2l0.3,1.4l-3.9,7.1l-1.2,0.5
			l-0.3-1.5l3.9-7L-179.7-84.2z M-173.4-96.4l0.8,1l-1,0.8l-9.1-1.1l-0.8-1l1-0.8L-173.4-96.4z M-174.4-94.1l0.3,1.4l-3.9,7.1
			l-1.2,0.5l-0.3-1.5l3.9-7L-174.4-94.1z M-173-82.9l-1.1,9.2l-1,0.8l-0.8-1l1.1-9.2l1-0.8L-173-82.9z M-171.7-94.2l-1.1,9.2l-1,0.8
			l-0.8-1l1.1-9.2l1-0.8L-171.7-94.2z"/>
		<path class="st14" d="M-162.8-84.3l-1.1,9.2l-1,0.8l-0.8-1l1.1-9.2l1-0.8L-162.8-84.3z M-154.5-73.7l0.8,1l-1,0.8l-9.1-1.1l-0.8-1
			l1-0.8L-154.5-73.7z M-161.4-95.6l-1.1,9.2l-1,0.8l-0.8-1l1.1-9.2l1-0.8L-161.4-95.6z M-158-84.2l0.3,1.4l-3.9,7.1l-1.2,0.5
			l-0.3-1.5l3.9-7L-158-84.2z M-151.8-96.4l0.8,1l-1,0.8l-9.1-1.1l-0.8-1l1-0.8L-151.8-96.4z M-152.8-94.1l0.3,1.4l-3.9,7.1
			l-1.2,0.5l-0.3-1.5l3.9-7L-152.8-94.1z M-151.4-82.9l-1.1,9.2l-1,0.8l-0.8-1l1.1-9.2l1-0.8L-151.4-82.9z M-150-94.2l-1.1,9.2
			l-1,0.8l-0.8-1l1.1-9.2l1-0.8L-150-94.2z"/>
		<path class="st14" d="M-141.2-84.3l-1.1,9.2l-1,0.8l-0.8-1l1.1-9.2l1-0.8L-141.2-84.3z M-132.9-73.7l0.8,1l-1,0.8l-9.1-1.1l-0.8-1
			l1-0.8L-132.9-73.7z M-139.8-95.6l-1.1,9.2l-1,0.8l-0.8-1l1.1-9.2l1-0.8L-139.8-95.6z M-136.4-84.2l0.3,1.4l-3.9,7.1l-1.2,0.5
			l-0.3-1.5l3.9-7L-136.4-84.2z M-130.2-96.4l0.8,1l-1,0.8l-9.1-1.1l-0.8-1l1-0.8L-130.2-96.4z M-131.2-94.1l0.3,1.4l-3.9,7.1
			l-1.2,0.5l-0.3-1.5l3.9-7L-131.2-94.1z M-129.8-82.9l-1.1,9.2l-1,0.8l-0.8-1l1.1-9.2l1-0.8L-129.8-82.9z M-128.4-94.2l-1.1,9.2
			l-1,0.8l-0.8-1l1.1-9.2l1-0.8L-128.4-94.2z"/>
	</g>
	<g class="st2">
		<rect x="-191.9" y="-62.1" class="st5" width="65" height="25.3"/>
		<path class="st14" d="M-188.2-61.1v9.3l-0.9,0.9l-0.9-0.9v-9.3l0.9-0.9L-188.2-61.1z M-188.2-49.6v9.3l-0.9,0.9l-0.9-0.9v-9.3
			l0.9-0.9L-188.2-49.6z M-178.8-63.1l0.9,0.9l-0.9,0.9h-9.2l-0.9-0.9l0.9-0.9H-178.8z M-178.8-40.2l0.9,0.9l-0.9,0.9h-9.2l-0.9-0.9
			l0.9-0.9H-178.8z M-183.5-50.1l0.5,1.3l-3,7.5l-1.2,0.6l-0.5-1.4l3-7.4L-183.5-50.1z M-179.5-60.6l0.5,1.3l-3,7.5l-1.2,0.6
			l-0.5-1.4l3-7.4L-179.5-60.6z M-176.8-61.1v9.3l-0.9,0.9l-0.9-0.9v-9.3l0.9-0.9L-176.8-61.1z M-176.8-49.6v9.3l-0.9,0.9l-0.9-0.9
			v-9.3l0.9-0.9L-176.8-49.6z"/>
		<path class="st14" d="M-165.4-61.1v9.3l-0.9,0.9l-0.9-0.9v-9.3l0.9-0.9L-165.4-61.1z M-165.4-49.6v9.3l-0.9,0.9l-0.9-0.9v-9.3
			l0.9-0.9L-165.4-49.6z M-155.9-63.1l0.9,0.9l-0.9,0.9h-9.2l-0.9-0.9l0.9-0.9H-155.9z M-155.9-40.2l0.9,0.9l-0.9,0.9h-9.2l-0.9-0.9
			l0.9-0.9H-155.9z M-160.7-50.1l0.5,1.3l-3,7.5l-1.2,0.6l-0.5-1.4l3-7.4L-160.7-50.1z M-156.7-60.6l0.5,1.3l-3,7.5l-1.2,0.6
			l-0.5-1.4l3-7.4L-156.7-60.6z M-153.9-61.1v9.3l-0.9,0.9l-0.9-0.9v-9.3l0.9-0.9L-153.9-61.1z M-153.9-49.6v9.3l-0.9,0.9l-0.9-0.9
			v-9.3l0.9-0.9L-153.9-49.6z"/>
		<path class="st14" d="M-142.5-61.1v9.3l-0.9,0.9l-0.9-0.9v-9.3l0.9-0.9L-142.5-61.1z M-142.5-49.6v9.3l-0.9,0.9l-0.9-0.9v-9.3
			l0.9-0.9L-142.5-49.6z M-133.1-63.1l0.9,0.9l-0.9,0.9h-9.2l-0.9-0.9l0.9-0.9H-133.1z M-133-40.2l0.9,0.9l-0.9,0.9h-9.2l-0.9-0.9
			l0.9-0.9H-133z M-137.8-50.1l0.5,1.3l-3,7.5l-1.2,0.6l-0.5-1.4l3-7.4L-137.8-50.1z M-133.8-60.6l0.5,1.3l-3,7.5l-1.2,0.6l-0.5-1.4
			l3-7.4L-133.8-60.6z M-131.1-61.1v9.3l-0.9,0.9l-0.9-0.9v-9.3l0.9-0.9L-131.1-61.1z M-131.1-49.6v9.3l-0.9,0.9l-0.9-0.9v-9.3
			l0.9-0.9L-131.1-49.6z"/>
	</g>
	<g class="st2">
		<rect x="-80.1" y="-96.1" class="st5" width="111.2" height="25.3"/>
		<path class="st14" d="M-74.6-84.3l-1.1,9.2l-1,0.8l-0.8-1l1.1-9.2l1-0.8L-74.6-84.3z M-66.4-73.7l0.8,1l-1,0.8l-9.1-1.1l-0.8-1
			l1-0.8L-66.4-73.7z M-73.2-95.6l-1.1,9.2l-1,0.8l-0.8-1l1.1-9.2l1-0.8L-73.2-95.6z M-69.9-84.2l0.3,1.4l-3.9,7.1l-1.2,0.5
			l-0.3-1.5l3.9-7L-69.9-84.2z M-63.7-96.4l0.8,1l-1,0.8l-9.1-1.1l-0.8-1l1-0.8L-63.7-96.4z M-64.7-94.1l0.3,1.4l-3.9,7.1l-1.2,0.5
			l-0.3-1.5l3.9-7L-64.7-94.1z M-63.3-82.9l-1.1,9.2l-1,0.8l-0.8-1l1.1-9.2l1-0.8L-63.3-82.9z M-61.9-94.2L-63-85l-1,0.8l-0.8-1
			l1.1-9.2l1-0.8L-61.9-94.2z"/>
		<path class="st14" d="M-53-84.3l-1.1,9.2l-1,0.8l-0.8-1l1.1-9.2l1-0.8L-53-84.3z M-44.8-73.7l0.8,1l-1,0.8l-9.1-1.1l-0.8-1l1-0.8
			L-44.8-73.7z M-51.6-95.6l-1.1,9.2l-1,0.8l-0.8-1l1.1-9.2l1-0.8L-51.6-95.6z M-48.3-84.2l0.3,1.4l-3.9,7.1l-1.2,0.5l-0.3-1.5
			l3.9-7L-48.3-84.2z M-42.1-96.4l0.8,1l-1,0.8l-9.1-1.1l-0.8-1l1-0.8L-42.1-96.4z M-43.1-94.1l0.3,1.4l-3.9,7.1l-1.2,0.5l-0.3-1.5
			l3.9-7L-43.1-94.1z M-41.7-82.9l-1.1,9.2l-1,0.8l-0.8-1l1.1-9.2l1-0.8L-41.7-82.9z M-40.3-94.2l-1.1,9.2l-1,0.8l-0.8-1l1.1-9.2
			l1-0.8L-40.3-94.2z"/>
		<path class="st14" d="M-31.4-84.3l-1.1,9.2l-1,0.8l-0.8-1l1.1-9.2l1-0.8L-31.4-84.3z M-23.2-73.7l0.8,1l-1,0.8l-9.1-1.1l-0.8-1
			l1-0.8L-23.2-73.7z M-30-95.6l-1.1,9.2l-1,0.8l-0.8-1l1.1-9.2l1-0.8L-30-95.6z M-26.7-84.2l0.3,1.4l-3.9,7.1l-1.2,0.5l-0.3-1.5
			l3.9-7L-26.7-84.2z M-20.4-96.4l0.8,1l-1,0.8l-9.1-1.1l-0.8-1l1-0.8L-20.4-96.4z M-21.4-94.1l0.3,1.4l-3.9,7.1l-1.2,0.5l-0.3-1.5
			l3.9-7L-21.4-94.1z M-20.1-82.9l-1.1,9.2l-1,0.8l-0.8-1l1.1-9.2l1-0.8L-20.1-82.9z M-18.7-94.2l-1.1,9.2l-1,0.8l-0.8-1l1.1-9.2
			l1-0.8L-18.7-94.2z"/>
		<path class="st14" d="M-9.8-84.3l-1.1,9.2l-1,0.8l-0.8-1l1.1-9.2l1-0.8L-9.8-84.3z M-1.6-73.7l0.8,1l-1,0.8l-9.1-1.1l-0.8-1l1-0.8
			L-1.6-73.7z M-8.4-95.6l-1.1,9.2l-1,0.8l-0.8-1l1.1-9.2l1-0.8L-8.4-95.6z M-5.1-84.2l0.3,1.4l-3.9,7.1l-1.2,0.5l-0.3-1.5l3.9-7
			L-5.1-84.2z M1.2-96.4l0.8,1l-1,0.8l-9.1-1.1l-0.8-1l1-0.8L1.2-96.4z M0.2-94.1l0.3,1.4l-3.9,7.1l-1.2,0.5L-5-86.6l3.9-7L0.2-94.1
			z M1.5-82.9l-1.1,9.2l-1,0.8l-0.8-1l1.1-9.2l1-0.8L1.5-82.9z M2.9-94.2L1.8-85l-1,0.8l-0.8-1l1.1-9.2l1-0.8L2.9-94.2z"/>
		<path class="st14" d="M11.8-84.3l-1.1,9.2l-1,0.8l-0.8-1l1.1-9.2l1-0.8L11.8-84.3z M20.1-73.7l0.8,1l-1,0.8l-9.1-1.1l-0.8-1l1-0.8
			L20.1-73.7z M13.2-95.6l-1.1,9.2l-1,0.8l-0.8-1l1.1-9.2l1-0.8L13.2-95.6z M16.5-84.2l0.3,1.4l-3.9,7.1l-1.2,0.5l-0.3-1.5l3.9-7
			L16.5-84.2z M22.8-96.4l0.8,1l-1,0.8l-9.1-1.1l-0.8-1l1-0.8L22.8-96.4z M21.8-94.1l0.3,1.4l-3.9,7.1l-1.2,0.5l-0.3-1.5l3.9-7
			L21.8-94.1z M23.2-82.9L22-73.7l-1,0.8l-0.8-1l1.1-9.2l1-0.8L23.2-82.9z M24.5-94.2L23.4-85l-1,0.8l-0.8-1l1.1-9.2l1-0.8
			L24.5-94.2z"/>
	</g>
</g>
<g id="R_Flag" class="st0">
	<g class="st2">
		<rect x="-346" y="-19.6" class="st5" width="12.6" height="13.5"/>
		<path class="st15" d="M-345.1-11v-8.6h3.7c0.9,0,1.6,0.1,2,0.2s0.7,0.4,1,0.8s0.4,0.8,0.4,1.4c0,0.6-0.2,1.2-0.6,1.6
			c-0.4,0.4-0.9,0.7-1.7,0.8c0.4,0.2,0.7,0.5,0.9,0.7s0.6,0.7,1,1.4l1,1.7h-2.1l-1.3-1.9c-0.4-0.7-0.8-1.1-0.9-1.3s-0.3-0.3-0.5-0.4
			s-0.5-0.1-0.9-0.1h-0.4v3.6H-345.1z M-343.4-16h1.3c0.8,0,1.4,0,1.6-0.1s0.4-0.2,0.5-0.4s0.2-0.4,0.2-0.6c0-0.3-0.1-0.5-0.2-0.7
			s-0.4-0.3-0.7-0.3c-0.1,0-0.6,0-1.3,0h-1.4V-16z"/>
	</g>
</g>
<g id="P_Flag" class="st0">
	<g class="st2">
		<rect x="-364.9" y="-19.6" class="st5" width="10" height="13.5"/>
		<path class="st15" d="M-364-11v-8.6h2.8c1.1,0,1.7,0,2.1,0.1c0.5,0.1,0.9,0.4,1.2,0.8s0.5,1,0.5,1.7c0,0.5-0.1,1-0.3,1.3
			c-0.2,0.4-0.4,0.6-0.7,0.8s-0.6,0.3-0.9,0.4c-0.4,0.1-1,0.1-1.8,0.1h-1.1v3.2H-364z M-362.3-18.2v2.4h0.9c0.7,0,1.1,0,1.4-0.1
			s0.4-0.2,0.5-0.4s0.2-0.4,0.2-0.7c0-0.3-0.1-0.6-0.3-0.8s-0.4-0.3-0.7-0.4c-0.2,0-0.6-0.1-1.2-0.1H-362.3z"/>
	</g>
</g>
<g id="L_Arm_Flag" class="st0">
	<g class="st2">
		<rect x="-230.9" y="-72.5" class="st5" width="9" height="37.5"/>
		<path class="st14" d="M-229.4-63.1l3-7.9h1.1l3.2,7.9h-1.2l-0.9-2.4h-3.3l-0.9,2.4H-229.4z M-227.2-66.3h2.7l-0.8-2.2
			c-0.3-0.7-0.4-1.2-0.6-1.6c-0.1,0.5-0.2,1-0.4,1.5L-227.2-66.3z"/>
		<path class="st14" d="M-228.9-50.4v-7.9h3.5c0.7,0,1.2,0.1,1.6,0.2c0.4,0.1,0.7,0.4,0.9,0.7s0.3,0.8,0.3,1.2c0,0.6-0.2,1-0.5,1.4
			s-0.9,0.6-1.7,0.7c0.3,0.1,0.5,0.3,0.6,0.4c0.3,0.3,0.6,0.6,0.9,1l1.4,2.1h-1.3l-1-1.6c-0.3-0.5-0.6-0.8-0.8-1.1
			c-0.2-0.3-0.4-0.4-0.5-0.5c-0.2-0.1-0.3-0.2-0.5-0.2c-0.1,0-0.3,0-0.6,0h-1.2v3.5H-228.9z M-227.8-54.8h2.2c0.5,0,0.8,0,1.1-0.1
			c0.3-0.1,0.5-0.3,0.6-0.5c0.1-0.2,0.2-0.5,0.2-0.7c0-0.4-0.1-0.7-0.4-0.9s-0.7-0.4-1.3-0.4h-2.5V-54.8z"/>
		<path class="st14" d="M-229.5-37.7v-7.9h1.6l1.9,5.6c0.2,0.5,0.3,0.9,0.4,1.2c0.1-0.3,0.2-0.7,0.4-1.3l1.9-5.5h1.4v7.9h-1v-6.6
			l-2.3,6.6h-0.9l-2.3-6.7v6.7H-229.5z"/>
	</g>
</g>
<g id="R_Arm_Flag" class="st0">
	<g class="st2">
		<rect x="-125.9" y="-73.2" class="st5" width="9" height="37.5"/>
		<path class="st14" d="M-124.4-63.8l3-7.9h1.1l3.2,7.9h-1.2l-0.9-2.4h-3.3l-0.9,2.4H-124.4z M-122.2-67h2.7l-0.8-2.2
			c-0.3-0.7-0.4-1.2-0.6-1.6c-0.1,0.5-0.2,1-0.4,1.5L-122.2-67z"/>
		<path class="st14" d="M-123.9-51.1V-59h3.5c0.7,0,1.2,0.1,1.6,0.2c0.4,0.1,0.7,0.4,0.9,0.7s0.3,0.8,0.3,1.2c0,0.6-0.2,1-0.5,1.4
			s-0.9,0.6-1.7,0.7c0.3,0.1,0.5,0.3,0.6,0.4c0.3,0.3,0.6,0.6,0.9,1l1.4,2.1h-1.3l-1-1.6c-0.3-0.5-0.6-0.8-0.8-1.1
			c-0.2-0.3-0.4-0.4-0.5-0.5c-0.2-0.1-0.3-0.2-0.5-0.2c-0.1,0-0.3,0-0.6,0h-1.2v3.5H-123.9z M-122.8-55.5h2.2c0.5,0,0.8,0,1.1-0.1
			c0.3-0.1,0.5-0.3,0.6-0.5c0.1-0.2,0.2-0.5,0.2-0.7c0-0.4-0.1-0.7-0.4-0.9s-0.7-0.4-1.3-0.4h-2.5V-55.5z"/>
		<path class="st14" d="M-124.5-38.4v-7.9h1.6l1.9,5.6c0.2,0.5,0.3,0.9,0.4,1.2c0.1-0.3,0.2-0.7,0.4-1.3l1.9-5.5h1.4v7.9h-1V-45
			l-2.3,6.6h-0.9l-2.3-6.7v6.7H-124.5z"/>
	</g>
</g>
<g id="PT_Down" class="st0">
	<polygon class="st16" points="-104.3,-50.4 -100.1,-39.8 -96,-50.4 	"/>
</g>
<g id="PT_Up" class="st0">
	<polygon class="st16" points="-104.3,-83.5 -100.1,-94.1 -96,-83.5 	"/>
</g>
<g id="PT_Flag" class="st0">
	<g class="st2">
		<rect x="-105.4" y="-79.5" class="st5" width="9" height="26.7"/>
		<path class="st14" d="M-103.1-70v-7.9h3c0.5,0,0.9,0,1.2,0.1c0.4,0.1,0.7,0.2,1,0.4c0.3,0.2,0.5,0.4,0.6,0.8s0.2,0.7,0.2,1.1
			c0,0.7-0.2,1.2-0.6,1.7c-0.4,0.5-1.2,0.7-2.3,0.7h-2v3.2H-103.1z M-102.1-74.2h2c0.7,0,1.2-0.1,1.4-0.4s0.4-0.6,0.4-1.1
			c0-0.3-0.1-0.6-0.3-0.8c-0.2-0.2-0.4-0.4-0.7-0.5c-0.2,0-0.5-0.1-1-0.1h-2V-74.2z"/>
		<path class="st14" d="M-100.8-57.4v-6.9h-2.6v-0.9h6.2v0.9h-2.6v6.9H-100.8z"/>
	</g>
</g>
<g id="FPM_Flag" class="st0">
	<g class="st2">
		<rect x="-23.9" y="-62.9" class="st5" width="26.8" height="8.4"/>
		<path class="st14" d="M-23-55v-7.9h5.3v0.9H-22v2.4h3.7v0.9H-22v3.6H-23z"/>
		<path class="st14" d="M-14.7-55v-7.9h3c0.5,0,0.9,0,1.2,0.1c0.4,0.1,0.7,0.2,1,0.4c0.3,0.2,0.5,0.4,0.6,0.8s0.2,0.7,0.2,1.1
			c0,0.7-0.2,1.2-0.6,1.7c-0.4,0.5-1.2,0.7-2.3,0.7h-2v3.2H-14.7z M-13.6-59.1h2c0.7,0,1.2-0.1,1.4-0.4s0.4-0.6,0.4-1.1
			c0-0.3-0.1-0.6-0.3-0.8c-0.2-0.2-0.4-0.4-0.7-0.5c-0.2,0-0.5-0.1-1-0.1h-2V-59.1z"/>
		<path class="st14" d="M-5.7-55v-7.9h1.6l1.9,5.6c0.2,0.5,0.3,0.9,0.4,1.2c0.1-0.3,0.2-0.7,0.4-1.3l1.9-5.5h1.4v7.9h-1v-6.6
			L-1.5-55h-0.9l-2.3-6.7v6.7H-5.7z"/>
	</g>
</g>
<g id="ALERT_Flag" class="st0">
	<g class="st2">
		<rect x="-78.7" y="-62.9" class="st5" width="43.8" height="8.4"/>
		<path class="st14" d="M-78.7-55l3-7.9h1.1l3.2,7.9h-1.2l-0.9-2.4h-3.3l-0.9,2.4H-78.7z M-76.4-58.2h2.7l-0.8-2.2
			c-0.3-0.7-0.4-1.2-0.6-1.6c-0.1,0.5-0.2,1-0.4,1.5L-76.4-58.2z"/>
		<path class="st14" d="M-68.8-55v-7.9h1v6.9h3.9v0.9H-68.8z"/>
		<path class="st14" d="M-61-55v-7.9h5.7v0.9H-60v2.4h4.4v0.9H-60v2.7h4.8v0.9H-61z"/>
		<path class="st14" d="M-52-55v-7.9h3.5c0.7,0,1.2,0.1,1.6,0.2c0.4,0.1,0.7,0.4,0.9,0.7s0.3,0.8,0.3,1.2c0,0.6-0.2,1-0.5,1.4
			s-0.9,0.6-1.7,0.7c0.3,0.1,0.5,0.3,0.6,0.4c0.3,0.3,0.6,0.6,0.9,1l1.4,2.1h-1.3l-1-1.6c-0.3-0.5-0.6-0.8-0.8-1.1
			c-0.2-0.3-0.4-0.4-0.5-0.5c-0.2-0.1-0.3-0.2-0.5-0.2c-0.1,0-0.3,0-0.6,0H-51v3.5H-52z M-51-59.4h2.2c0.5,0,0.8,0,1.1-0.1
			c0.3-0.1,0.5-0.3,0.6-0.5c0.1-0.2,0.2-0.5,0.2-0.7c0-0.4-0.1-0.7-0.4-0.9s-0.7-0.4-1.3-0.4H-51V-59.4z"/>
		<path class="st14" d="M-40.6-55v-6.9h-2.6v-0.9h6.2v0.9h-2.6v6.9H-40.6z"/>
	</g>
</g>
<g id="HPA_Flag" class="st0">
	<g class="st2">
		<rect x="-62.9" y="-49.3" class="st5" width="25.8" height="8.4"/>
		<path class="st14" d="M-62-41.4v-7.9h1v3.2h4.1v-3.2h1v7.9h-1v-3.7H-61v3.7H-62z"/>
		<path class="st14" d="M-52.5-41.4v-7.9h3c0.5,0,0.9,0,1.2,0.1c0.4,0.1,0.7,0.2,1,0.4c0.3,0.2,0.5,0.4,0.6,0.8s0.2,0.7,0.2,1.1
			c0,0.7-0.2,1.2-0.6,1.7c-0.4,0.5-1.2,0.7-2.3,0.7h-2v3.2H-52.5z M-51.4-45.5h2c0.7,0,1.2-0.1,1.4-0.4s0.4-0.6,0.4-1.1
			c0-0.3-0.1-0.6-0.3-0.8c-0.2-0.2-0.4-0.4-0.7-0.5c-0.2,0-0.5-0.1-1-0.1h-2V-45.5z"/>
		<path class="st14" d="M-45.2-41.4l3-7.9h1.1l3.2,7.9H-39l-0.9-2.4h-3.3l-0.9,2.4H-45.2z M-42.9-44.6h2.7l-0.8-2.2
			c-0.3-0.7-0.4-1.2-0.6-1.6c-0.1,0.5-0.2,1-0.4,1.5L-42.9-44.6z"/>
	</g>
</g>
<g id="IN_HG_Flag" class="st0">
	<g class="st2">
		<rect x="-10.5" y="-49.3" class="st5" width="15.8" height="8.4"/>
		<path class="st14" d="M-9.5-41.4v-7.9h1v7.9H-9.5z"/>
		<path class="st14" d="M-5-41.4v-7.9h1.1l4.1,6.2v-6.2h1v7.9H0.2L-4-47.6v6.2H-5z"/>
	</g>
	<g class="st2">
		<rect x="8.6" y="-49.3" class="st5" width="19.7" height="8.4"/>
		<path class="st14" d="M9.5-41.4v-7.9h1v3.2h4.1v-3.2h1v7.9h-1v-3.7h-4.1v3.7H9.5z"/>
		<path class="st14" d="M22.7-44.5v-0.9l3.3,0v2.9c-0.5,0.4-1,0.7-1.6,0.9c-0.5,0.2-1.1,0.3-1.7,0.3c-0.8,0-1.5-0.2-2.1-0.5
			c-0.6-0.3-1.1-0.8-1.4-1.4s-0.5-1.3-0.5-2.1c0-0.8,0.2-1.5,0.5-2.1c0.3-0.7,0.8-1.2,1.4-1.5s1.3-0.5,2.1-0.5
			c0.6,0,1.1,0.1,1.5,0.3c0.5,0.2,0.8,0.4,1.1,0.8s0.5,0.8,0.6,1.3L25-46.8c-0.1-0.4-0.3-0.7-0.4-0.9s-0.4-0.4-0.8-0.6
			c-0.3-0.1-0.7-0.2-1.1-0.2c-0.5,0-0.9,0.1-1.2,0.2c-0.3,0.1-0.6,0.3-0.8,0.6s-0.4,0.5-0.5,0.8c-0.2,0.5-0.3,1-0.3,1.6
			c0,0.7,0.1,1.3,0.4,1.8c0.2,0.5,0.6,0.8,1.1,1.1c0.5,0.2,1,0.3,1.5,0.3c0.5,0,0.9-0.1,1.3-0.3c0.4-0.2,0.8-0.4,1-0.6v-1.5H22.7z"
			/>
	</g>
</g>
<g id="FT_Flag" class="st0">
	<g class="st2">
		<rect x="8.6" y="-62.9" class="st5" width="15.8" height="8.4"/>
		<path class="st14" d="M9.5-55v-7.9h5.3v0.9h-4.3v2.4h3.7v0.9h-3.7v3.6H9.5z"/>
		<path class="st14" d="M19.8-55v-6.9h-2.6v-0.9h6.2v0.9h-2.6v6.9H19.8z"/>
	</g>
</g>
<g id="AP_Flag" class="st0">
	<g class="st2">
		<rect x="-215.2" y="-91.9" class="st5" width="16.8" height="8.4"/>
		<path class="st14" d="M-215.2-84l3-7.9h1.1l3.2,7.9h-1.2l-0.9-2.4h-3.3l-0.9,2.4H-215.2z M-212.9-87.2h2.7l-0.8-2.2
			c-0.3-0.7-0.4-1.2-0.6-1.6c-0.1,0.5-0.2,1-0.4,1.5L-212.9-87.2z"/>
		<path class="st14" d="M-205.3-84v-7.9h3c0.5,0,0.9,0,1.2,0.1c0.4,0.1,0.7,0.2,1,0.4c0.3,0.2,0.5,0.4,0.6,0.8s0.2,0.7,0.2,1.1
			c0,0.7-0.2,1.2-0.6,1.7c-0.4,0.5-1.2,0.7-2.3,0.7h-2v3.2H-205.3z M-204.3-88.1h2c0.7,0,1.2-0.1,1.4-0.4s0.4-0.6,0.4-1.1
			c0-0.3-0.1-0.6-0.3-0.8c-0.2-0.2-0.4-0.4-0.7-0.5c-0.2,0-0.5-0.1-1-0.1h-2V-88.1z"/>
	</g>
	<polygon class="st16" points="-198.6,-94.1 -215.6,-94.1 -217.1,-95.6 -197.3,-95.6 	"/>
	<polygon class="st16" points="-198.3,-81 -215.3,-81 -216.8,-79.5 -197,-79.5 	"/>
	<polygon class="st16" points="-197.6,-93.6 -197.6,-81.7 -196.1,-80.7 -196.1,-94.6 	"/>
	<polygon class="st16" points="-216.5,-93.6 -216.5,-81.7 -218,-80.7 -218,-94.6 	"/>
</g>
</svg>
