<?xml version="1.0" encoding="utf-8"?>
<!-- Generator: Adobe Illustrator 19.0.0, SVG Export Plug-In . SVG Version: 6.00 Build 0)  -->
<svg version="1.1" xmlns="http://www.w3.org/2000/svg" xmlns:xlink="http://www.w3.org/1999/xlink" x="0px" y="0px"
	 viewBox="0 0 33.1 19.8" style="enable-background:new 0 0 33.1 19.8;" xml:space="preserve">
<style type="text/css">
	.st0{display:none;}
	.st1{display:inline;fill:#282828;stroke:#E5E5E5;stroke-width:2;stroke-miterlimit:10;}
	.st2{display:inline;}
	.st3{display:inline;fill:#58595B;}
	.st4{display:inline;fill:none;stroke:#414042;stroke-width:2;stroke-miterlimit:10;}
	.st5{fill:none;}
	.st6{fill:#414042;}
	.st7{display:inline;fill:none;stroke:#FFFFFF;stroke-miterlimit:10;}
	.st8{fill:#FFFFFF;}
	.st9{display:inline;fill:#3F403F;stroke:#000000;stroke-miterlimit:10;}
	.st10{fill:none;stroke:#000000;stroke-width:1.5;stroke-miterlimit:10;stroke-dasharray:1.5093,1.5093;}
	.st11{fill:#3F403F;stroke:#000000;stroke-width:2;stroke-miterlimit:10;}
	.st12{fill:none;stroke:#000000;stroke-width:1.5;stroke-miterlimit:10;stroke-dasharray:1.5898,1.5898;}
	.st13{fill:#FFFFFF;stroke:#FFFFFF;stroke-miterlimit:10;}
	.st14{fill:#F7941E;}
	.st15{fill:#ED1C24;}
	.st16{display:inline;fill:#F7941E;}
</style>
<g id="Layer_1" class="st0">
	<path id="XMLID_814_" class="st1" d="M328.8,38.5h-586.7c-1.7,0-3-0.9-3-2v-150c0-1.1,1.3-2,3-2h586.7c1.7,0,3,0.9,3,2v150
		C331.8,37.7,330.4,38.5,328.8,38.5z"/>
</g>
<g id="Base" class="st0">
	<path class="st2" d="M158-39.6c0,4.3-2.1,7.8-4.7,7.8h-321.5c-2.6,0-4.7-3.5-4.7-7.8V-92c0-4.3,2.1-7.8,4.7-7.8h321.5
		c2.6,0,4.7,3.5,4.7,7.8V-39.6z"/>
	<circle class="st3" cx="195.6" cy="-80.9" r="5.7"/>
	<line class="st4" x1="189.8" y1="-80.9" x2="201.3" y2="-80.9"/>
	<g class="st2">
		<rect x="-219" y="-19.6" class="st5" width="12.6" height="13.5"/>
		<path class="st6" d="M-218.1-11v-8.6h3.7c0.9,0,1.6,0.1,2,0.2s0.7,0.4,1,0.8s0.4,0.8,0.4,1.4c0,0.6-0.2,1.2-0.6,1.6
			c-0.4,0.4-0.9,0.7-1.7,0.8c0.4,0.2,0.7,0.5,0.9,0.7s0.6,0.7,1,1.4l1,1.7h-2.1l-1.3-1.9c-0.4-0.7-0.8-1.1-0.9-1.3s-0.3-0.3-0.5-0.4
			s-0.5-0.1-0.9-0.1h-0.4v3.6H-218.1z M-216.4-16h1.3c0.8,0,1.4,0,1.6-0.1s0.4-0.2,0.5-0.4s0.2-0.4,0.2-0.6c0-0.3-0.1-0.5-0.2-0.7
			s-0.4-0.3-0.7-0.3c-0.1,0-0.6,0-1.3,0h-1.4V-16z"/>
	</g>
	<g class="st2">
		<rect x="-237.9" y="-19.6" class="st5" width="10" height="13.5"/>
		<path class="st6" d="M-237-11v-8.6h2.8c1.1,0,1.7,0,2.1,0.1c0.5,0.1,0.9,0.4,1.2,0.8s0.5,1,0.5,1.7c0,0.5-0.1,1-0.3,1.3
			c-0.2,0.4-0.4,0.6-0.7,0.8s-0.6,0.3-0.9,0.4c-0.4,0.1-1,0.1-1.8,0.1h-1.1v3.2H-237z M-235.3-18.2v2.4h0.9c0.7,0,1.1,0,1.4-0.1
			s0.4-0.2,0.5-0.4s0.2-0.4,0.2-0.7c0-0.3-0.1-0.6-0.3-0.8s-0.4-0.3-0.7-0.4c-0.2,0-0.6-0.1-1.2-0.1H-235.3z"/>
	</g>
	<path class="st7" d="M216.5,17.3c0,2.8-1.9,5.1-4.3,5.1h-34.4c-2.4,0-4.3-2.3-4.3-5.1v-70.9c0-2.8,1.9-5.1,4.3-5.1h34.4
		c2.4,0,4.3,2.3,4.3,5.1V17.3z"/>
</g>
<g id="Labels" class="st0">
	<g class="st2">
		<rect x="-239.8" y="-93.7" class="st5" width="41.6" height="9.1"/>
		<path class="st8" d="M-239.1-86.2v-7.4h1v3.7l3.7-3.7h1.3l-3.1,3l3.3,4.4h-1.3l-2.6-3.8l-1.2,1.2v2.6H-239.1z"/>
		<path class="st8" d="M-232.9-86.2l2.9-7.4h1.1l3,7.4h-1.1l-0.9-2.3h-3.1l-0.8,2.3H-232.9z M-230.8-89.3h2.5l-0.8-2.1
			c-0.2-0.6-0.4-1.1-0.5-1.5c-0.1,0.5-0.2,1-0.4,1.4L-230.8-89.3z"/>
		<path class="st8" d="M-225.2-86.2v-7.4h2.8c0.5,0,0.9,0,1.1,0.1c0.4,0.1,0.7,0.2,0.9,0.3s0.4,0.4,0.6,0.7s0.2,0.6,0.2,1
			c0,0.6-0.2,1.2-0.6,1.6c-0.4,0.4-1.1,0.7-2.2,0.7h-1.9v3H-225.2z M-224.2-90.1h1.9c0.6,0,1.1-0.1,1.4-0.4c0.3-0.2,0.4-0.6,0.4-1
			c0-0.3-0.1-0.6-0.2-0.8s-0.4-0.4-0.6-0.4c-0.2,0-0.5-0.1-0.9-0.1h-1.9V-90.1z"/>
		<path class="st8" d="M-212.5-86.2h-0.9V-92c-0.2,0.2-0.5,0.4-0.9,0.6s-0.7,0.4-1,0.5v-0.9c0.5-0.2,1-0.5,1.3-0.9
			c0.4-0.3,0.7-0.7,0.8-1h0.6V-86.2z"/>
		<path class="st8" d="M-207.2-86.2V-88h-3.2v-0.8l3.4-4.8h0.7v4.8h1v0.8h-1v1.8H-207.2z M-207.2-88.8v-3.4l-2.3,3.4H-207.2z"/>
		<path class="st8" d="M-204.3-89.9c0-0.9,0.1-1.6,0.3-2.1c0.2-0.5,0.4-0.9,0.8-1.2s0.8-0.4,1.3-0.4c0.4,0,0.7,0.1,1.1,0.2
			c0.3,0.2,0.5,0.4,0.7,0.7c0.2,0.3,0.4,0.7,0.5,1.1c0.1,0.4,0.2,1,0.2,1.8c0,0.9-0.1,1.6-0.3,2.1c-0.2,0.5-0.4,1-0.8,1.2
			c-0.4,0.3-0.8,0.4-1.4,0.4c-0.7,0-1.3-0.3-1.7-0.8C-204.1-87.5-204.3-88.5-204.3-89.9z M-203.4-89.9c0,1.2,0.1,2,0.4,2.4
			c0.3,0.4,0.6,0.6,1.1,0.6s0.8-0.2,1.1-0.6c0.3-0.4,0.4-1.2,0.4-2.4c0-1.2-0.1-2-0.4-2.4c-0.3-0.4-0.6-0.6-1.1-0.6
			c-0.4,0-0.8,0.2-1,0.5C-203.2-91.9-203.4-91.1-203.4-89.9z"/>
	</g>
	<g class="st2">
		<rect x="-251.9" y="-105.5" class="st5" width="59.6" height="7.2"/>
		<path class="st8" d="M-251.6-99.3l1.3-6.3h2.2c0.5,0,0.8,0,1,0c0.3,0,0.6,0.1,0.8,0.3c0.2,0.1,0.4,0.3,0.5,0.5
			c0.1,0.2,0.2,0.5,0.2,0.7c0,0.3-0.1,0.7-0.3,0.9c-0.2,0.3-0.5,0.5-0.9,0.6c0.3,0.1,0.6,0.2,0.8,0.5s0.3,0.5,0.3,0.8
			c0,0.4-0.1,0.7-0.3,1.1c-0.2,0.3-0.5,0.6-0.9,0.7s-0.9,0.2-1.5,0.2H-251.6z M-250.1-100.3h1.2c0.5,0,0.9,0,1.1-0.1
			c0.2-0.1,0.3-0.2,0.4-0.3c0.1-0.2,0.2-0.3,0.2-0.5c0-0.2-0.1-0.4-0.2-0.5c-0.2-0.1-0.4-0.2-0.8-0.2h-1.5L-250.1-100.3z
			 M-249.5-103h1c0.4,0,0.8,0,1-0.1c0.2-0.1,0.3-0.2,0.4-0.3c0.1-0.1,0.1-0.3,0.1-0.5c0-0.2,0-0.3-0.1-0.4s-0.2-0.2-0.4-0.2
			c-0.1,0-0.3,0-0.7,0h-1L-249.5-103z"/>
		<path class="st8" d="M-245.2-99.3l1.3-6.3h4.7l-0.2,1.1h-3.4l-0.3,1.4h3.3l-0.2,1.1h-3.3l-0.4,1.7h3.7l-0.2,1.1H-245.2z"/>
		<path class="st8" d="M-234.3-99.3h-1.2l-1.7-4.2l-0.9,4.2h-1.2l1.3-6.3h1.2l1.7,4.2l0.9-4.2h1.2L-234.3-99.3z"/>
		<path class="st8" d="M-233-99.3l1.3-6.3h1.7c0.5,0,0.8,0,0.9,0c0.3,0,0.5,0.1,0.7,0.2c0.2,0.1,0.4,0.2,0.6,0.3s0.3,0.3,0.4,0.5
			s0.2,0.4,0.3,0.7c0.1,0.3,0.1,0.6,0.1,0.9c0,0.7-0.1,1.3-0.4,1.8c-0.3,0.5-0.6,0.9-1,1.3c-0.3,0.2-0.7,0.4-1.2,0.5
			c-0.3,0.1-0.7,0.1-1.2,0.1H-233z M-231.5-100.3h0.7c0.5,0,0.8,0,1-0.1c0.2-0.1,0.4-0.2,0.6-0.3c0.3-0.2,0.5-0.5,0.6-0.9
			c0.2-0.4,0.3-0.8,0.3-1.4c0-0.4-0.1-0.8-0.2-1s-0.3-0.4-0.5-0.4c-0.1-0.1-0.4-0.1-0.8-0.1h-0.8L-231.5-100.3z"/>
		<path class="st8" d="M-226.7-99.3l1.3-6.3h1.3l-1.3,6.3H-226.7z"/>
		<path class="st8" d="M-223.2-99.3h-1.7l2.8-3.2l-1.6-3.1h1.4l0.6,1.2c0,0,0.2,0.3,0.4,0.9c0,0,0,0.1,0.1,0.1
			c0.3-0.4,0.6-0.8,0.9-1l1-1.1h1.6l-2.9,3.3l1.5,3h-1.5l-0.5-0.9c-0.2-0.5-0.4-0.9-0.5-1.1c-0.1,0.2-0.4,0.5-0.9,1L-223.2-99.3z"/>
		<path class="st8" d="M-219.1-99.1l3.1-6.5h0.9l-3.1,6.5H-219.1z"/>
		<path class="st8" d="M-215.9-99.3l1.3-6.3h1.3l-0.6,2.7l2.9-2.7h1.7l-2.8,2.5l2.1,3.8h-1.5l-1.6-3l-1.2,1.1l-0.4,1.9H-215.9z"/>
		<path class="st8" d="M-209.6-99.3l1.3-6.3h1.3l-1.3,6.3H-209.6z"/>
		<path class="st8" d="M-202.1-99.3h-1.2l-1.7-4.2l-0.9,4.2h-1.2l1.3-6.3h1.2l1.7,4.2l0.9-4.2h1.2L-202.1-99.3z"/>
		<path class="st8" d="M-197.3-102.6h2.8l-0.6,2.7c-0.3,0.2-0.7,0.4-1.2,0.5c-0.5,0.1-1,0.2-1.5,0.2c-0.8,0-1.4-0.2-1.8-0.5
			c-0.6-0.5-0.9-1.2-0.9-2.1c0-0.6,0.1-1.2,0.4-1.8c0.3-0.7,0.7-1.2,1.2-1.6s1.2-0.6,1.9-0.6s1.3,0.2,1.7,0.5s0.7,0.8,0.9,1.5
			l-1.2,0.1c-0.1-0.4-0.3-0.6-0.5-0.8c-0.2-0.2-0.5-0.3-0.9-0.3c-0.4,0-0.8,0.1-1.2,0.3s-0.6,0.6-0.8,1c-0.2,0.5-0.3,1-0.3,1.5
			c0,0.5,0.1,0.9,0.4,1.2c0.2,0.3,0.6,0.4,1.1,0.4c0.3,0,0.6,0,0.9-0.1c0.3-0.1,0.5-0.2,0.8-0.3l0.2-0.9h-1.6L-197.3-102.6z"/>
	</g>
</g>
<g id="Outer_Knob_R" class="st0">
	<path class="st9" d="M305.7-16.5c0,17-13.8,30.9-30.9,30.9c-17.1,0-30.9-13.8-30.9-30.9c0-17.1,13.8-30.9,30.9-30.9
		C291.9-47.4,305.7-33.5,305.7-16.5z"/>
	<g class="st2">
		<g>
			<path class="st10" d="M306.6-16.5c0,17.5-14.2,31.7-31.7,31.7c-17.5,0-31.7-14.2-31.7-31.7c0-17.5,14.2-31.7,31.7-31.7
				C292.4-48.2,306.6-34,306.6-16.5z"/>
		</g>
	</g>
</g>
<g id="Inner_Knob_R" class="st0">
	<g class="st2">
		<circle class="st11" cx="274.8" cy="-16.5" r="20.8"/>
		<g>
			<path class="st12" d="M296.6-16.5c0,12-9.7,21.8-21.8,21.8c-12,0-21.8-9.7-21.8-21.8c0-12,9.7-21.8,21.8-21.8
				C286.9-38.3,296.6-28.5,296.6-16.5z"/>
		</g>
	</g>
</g>
<g id="BARO_Button">
	<path class="st13" d="M307.6-83.8c0,1.1-0.9,2-2,2h-28.1c-1.1,0-2-0.9-2-2v-14.8c0-1.1,0.9-2,2-2h28.1c1.1,0,2,0.9,2,2V-83.8z"/>
	<g>
		<path d="M277.6-86.8v-7.9h2.8c0.6,0,1,0.1,1.3,0.2c0.3,0.2,0.6,0.4,0.8,0.7s0.3,0.7,0.3,1.1c0,0.4-0.1,0.7-0.3,1
			c-0.2,0.3-0.4,0.5-0.8,0.7c0.4,0.1,0.8,0.4,1,0.7c0.2,0.3,0.4,0.7,0.4,1.2c0,0.5-0.1,0.9-0.3,1.3s-0.5,0.6-0.9,0.8
			s-0.9,0.2-1.5,0.2H277.6z M278.6-91.4h1.6c0.4,0,0.7,0,0.9-0.1c0.3-0.1,0.5-0.2,0.6-0.4c0.1-0.2,0.2-0.4,0.2-0.7
			c0-0.3-0.1-0.5-0.2-0.7c-0.1-0.2-0.3-0.3-0.5-0.4c-0.2-0.1-0.6-0.1-1.1-0.1h-1.5V-91.4z M278.6-87.8h1.9c0.4,0,0.7,0,0.9-0.1
			c0.3-0.1,0.5-0.2,0.6-0.5s0.2-0.5,0.2-0.8c0-0.3-0.1-0.5-0.2-0.8s-0.3-0.4-0.6-0.5s-0.6-0.1-1.1-0.1h-1.7V-87.8z"/>
		<path d="M283.8-86.8l2.9-7.9h1.1l3,7.9h-1.1l-0.9-2.4h-3.1l-0.8,2.4H283.8z M285.9-90.1h2.5l-0.8-2.2c-0.2-0.7-0.4-1.2-0.5-1.6
			c-0.1,0.5-0.2,1-0.4,1.5L285.9-90.1z"/>
		<path d="M291.5-86.8v-7.9h3.3c0.7,0,1.2,0.1,1.5,0.2c0.3,0.1,0.6,0.4,0.8,0.7s0.3,0.7,0.3,1.2c0,0.6-0.2,1.1-0.5,1.4
			c-0.4,0.4-0.9,0.6-1.6,0.7c0.3,0.1,0.5,0.3,0.6,0.4c0.3,0.3,0.6,0.6,0.8,1l1.3,2.1h-1.2l-1-1.6c-0.4-0.6-0.7-1.1-0.9-1.3
			s-0.4-0.4-0.6-0.4s-0.4-0.1-0.8-0.1h-1.1v3.5H291.5z M292.5-91.2h2.1c0.5,0,0.8,0,1.1-0.1s0.4-0.2,0.6-0.5
			c0.1-0.2,0.2-0.5,0.2-0.7c0-0.4-0.1-0.7-0.4-0.9s-0.7-0.3-1.2-0.3h-2.4V-91.2z"/>
		<path d="M298.7-90.7c0-1.3,0.3-2.4,1-3.1s1.5-1.1,2.5-1.1c0.7,0,1.3,0.2,1.8,0.5s1,0.8,1.3,1.4s0.5,1.3,0.5,2.2
			c0,1.2-0.3,2.1-0.9,2.9c-0.7,0.8-1.6,1.2-2.6,1.2c-1.1,0-2-0.4-2.7-1.2C299-88.7,298.7-89.6,298.7-90.7z M299.8-90.7
			c0,1,0.2,1.7,0.7,2.3c0.5,0.5,1.1,0.8,1.8,0.8c0.7,0,1.3-0.3,1.8-0.8c0.5-0.5,0.7-1.3,0.7-2.4c0-0.7-0.1-1.3-0.4-1.8
			c-0.2-0.4-0.5-0.7-0.9-1c-0.4-0.2-0.8-0.4-1.3-0.4c-0.7,0-1.4,0.3-1.8,0.8C300-92.6,299.8-91.8,299.8-90.7z"/>
	</g>
</g>
<g id="ARM_Button">
	<path class="st13" d="M248.6-83.8c0,1.1-0.9,2-2,2h-28.1c-1.1,0-2-0.9-2-2v-14.8c0-1.1,0.9-2,2-2h28.1c1.1,0,2,0.9,2,2V-83.8z"/>
	<g>
		<path d="M221-86.8l2.9-7.9h1.1l3,7.9h-1.1l-0.9-2.4h-3.1l-0.8,2.4H221z M223.1-90.1h2.5l-0.8-2.2c-0.2-0.7-0.4-1.2-0.5-1.6
			c-0.1,0.5-0.2,1-0.4,1.5L223.1-90.1z"/>
		<path d="M228.8-86.8v-7.9h3.3c0.7,0,1.2,0.1,1.5,0.2c0.3,0.1,0.6,0.4,0.8,0.7c0.2,0.3,0.3,0.7,0.3,1.2c0,0.6-0.2,1.1-0.5,1.4
			c-0.4,0.4-0.9,0.6-1.6,0.7c0.3,0.1,0.5,0.3,0.6,0.4c0.3,0.3,0.6,0.6,0.8,1l1.3,2.1h-1.2l-1-1.6c-0.4-0.6-0.7-1.1-0.9-1.3
			c-0.2-0.2-0.4-0.4-0.6-0.4c-0.2-0.1-0.4-0.1-0.8-0.1h-1.1v3.5H228.8z M229.7-91.2h2.1c0.5,0,0.8,0,1.1-0.1
			c0.2-0.1,0.4-0.2,0.6-0.5c0.1-0.2,0.2-0.5,0.2-0.7c0-0.4-0.1-0.7-0.4-0.9c-0.3-0.2-0.7-0.3-1.2-0.3h-2.4V-91.2z"/>
		<path d="M236.2-86.8v-7.9h1.5l1.8,5.6l0.4,1.2c0.1-0.3,0.2-0.7,0.4-1.3l1.8-5.5h1.3v7.9h-0.9v-6.6l-2.2,6.6h-0.9l-2.2-6.7v6.7
			H236.2z"/>
	</g>
</g>
<g id="DN_Button">
	<path class="st13" d="M211.6,13.2c0,1.1-0.9,2-2,2h-28.1c-1.1,0-2-0.9-2-2V-1.6c0-1.1,0.9-2,2-2h28.1c1.1,0,2,0.9,2,2V13.2z"/>
	<g>
		<path d="M188.8,10.2V2.3h2.6c0.6,0,1.1,0,1.4,0.1c0.4,0.1,0.8,0.4,1.1,0.7c0.3,0.3,0.6,0.8,0.7,1.3s0.3,1.1,0.3,1.8
			c0,0.9-0.2,1.6-0.5,2.3c-0.3,0.6-0.7,1.1-1.2,1.3s-1.1,0.4-1.9,0.4H188.8z M189.8,9.2h1.6c0.6,0,1.1-0.1,1.5-0.3
			c0.3-0.2,0.6-0.5,0.8-0.9c0.2-0.5,0.4-1.2,0.4-1.9c0-0.8-0.1-1.4-0.4-1.9c-0.3-0.5-0.6-0.8-1-0.9c-0.3-0.1-0.7-0.2-1.3-0.2h-1.6
			V9.2z"/>
		<path d="M196.3,10.2V2.3h1l3.9,6.2V2.3h0.9v7.9h-1L197.3,4v6.2H196.3z"/>
	</g>
</g>
<g id="UP_Button">
	<path class="st13" d="M211.6-34.7c0,1.1-0.9,2-2,2h-28.1c-1.1,0-2-0.9-2-2v-14.8c0-1.1,0.9-2,2-2h28.1c1.1,0,2,0.9,2,2V-34.7z"/>
	<g>
		<path d="M194.1-45.6h1v4.5c0,0.8-0.1,1.4-0.3,1.9c-0.2,0.5-0.5,0.9-0.9,1.2s-1,0.4-1.7,0.4c-1,0-1.7-0.3-2.2-0.8
			c-0.5-0.5-0.7-1.4-0.7-2.7v-4.5h1v4.5c0,0.7,0.1,1.2,0.2,1.5c0.1,0.3,0.3,0.6,0.6,0.7c0.3,0.2,0.6,0.3,1.1,0.3
			c0.7,0,1.2-0.2,1.5-0.5s0.5-1,0.5-2V-45.6z"/>
		<path d="M196.7-37.7v-7.9h2.8c0.7,0,1.1,0,1.5,0.2c0.4,0.1,0.8,0.4,1,0.8c0.3,0.4,0.4,0.8,0.4,1.4c0,0.7-0.2,1.3-0.6,1.7
			c-0.4,0.4-1.1,0.7-2.2,0.7h-1.9v3.2H196.7z M197.7-41.9h1.9c0.6,0,1.1-0.1,1.3-0.4c0.3-0.2,0.4-0.6,0.4-1.1c0-0.3-0.1-0.6-0.2-0.8
			c-0.1-0.2-0.3-0.4-0.5-0.5c-0.2-0.1-0.6-0.1-1.1-0.1h-1.9V-41.9z"/>
	</g>
</g>
<g id="ALT_Button">
	<path class="st13" d="M159.6,17.3c0,1.1-0.9,2-2,2h-28.1c-1.1,0-2-0.9-2-2V2.5c0-1.1,0.9-2,2-2h28.1c1.1,0,2,0.9,2,2V17.3z"/>
	<g>
		<path d="M134.5,14.3l2.9-7.9h1.1l3,7.9h-1.1l-0.9-2.4h-3.1l-0.8,2.4H134.5z M136.6,11h2.5l-0.8-2.2c-0.2-0.7-0.4-1.2-0.5-1.6
			c-0.1,0.5-0.2,1-0.4,1.5L136.6,11z"/>
		<path d="M142.2,14.3V6.4h1v6.9h3.7v0.9H142.2z"/>
		<path d="M149.2,14.3V7.3h-2.5V6.4h5.9v0.9h-2.5v6.9H149.2z"/>
	</g>
</g>
<g id="REV_Button">
	<path class="st13" d="M99.6,17.3c0,1.1-0.9,2-2,2H69.5c-1.1,0-2-0.9-2-2V2.5c0-1.1,0.9-2,2-2h28.1c1.1,0,2,0.9,2,2V17.3z"/>
	<g>
		<path d="M73.7,14.3V6.4H77c0.7,0,1.2,0.1,1.5,0.2c0.3,0.1,0.6,0.4,0.8,0.7c0.2,0.3,0.3,0.7,0.3,1.2c0,0.6-0.2,1.1-0.5,1.4
			c-0.4,0.4-0.9,0.6-1.6,0.7c0.3,0.1,0.5,0.3,0.6,0.4c0.3,0.3,0.6,0.6,0.8,1l1.3,2.1H79l-1-1.6c-0.4-0.6-0.7-1.1-0.9-1.3
			c-0.2-0.2-0.4-0.4-0.6-0.4s-0.4-0.1-0.8-0.1h-1.1v3.5H73.7z M74.7,9.9h2.1c0.5,0,0.8,0,1.1-0.1c0.2-0.1,0.4-0.2,0.6-0.5
			c0.1-0.2,0.2-0.5,0.2-0.7c0-0.4-0.1-0.7-0.4-0.9c-0.3-0.2-0.7-0.3-1.2-0.3h-2.4V9.9z"/>
		<path d="M81.2,14.3V6.4h5.4v0.9h-4.4v2.4h4.1v0.9h-4.1v2.7h4.6v0.9H81.2z"/>
		<path d="M90.3,14.3l-2.9-7.9h1.1l1.9,5.7c0.1,0.4,0.3,0.9,0.4,1.3c0.1-0.4,0.2-0.9,0.4-1.3l2-5.7h1l-2.9,7.9H90.3z"/>
	</g>
</g>
<g id="APR_Button">
	<path class="st13" d="M32.6,17.3c0,1.1-0.9,2-2,2H2.5c-1.1,0-2-0.9-2-2V2.5c0-1.1,0.9-2,2-2h28.1c1.1,0,2,0.9,2,2V17.3z"/>
	<g>
		<path d="M5.9,14.3l2.9-7.9h1.1l3,7.9h-1.1l-0.9-2.4H7.7l-0.8,2.4H5.9z M8,11h2.5L9.8,8.8C9.5,8.2,9.4,7.6,9.2,7.2
			C9.1,7.7,9,8.2,8.8,8.7L8,11z"/>
		<path d="M13.6,14.3V6.4h2.8c0.7,0,1.1,0,1.5,0.2c0.4,0.1,0.8,0.4,1,0.8c0.3,0.4,0.4,0.8,0.4,1.4c0,0.7-0.2,1.3-0.6,1.7
			c-0.4,0.4-1.1,0.7-2.2,0.7h-1.9v3.2H13.6z M14.6,10.1h1.9c0.6,0,1.1-0.1,1.3-0.4s0.4-0.6,0.4-1.1c0-0.3-0.1-0.6-0.2-0.8
			c-0.1-0.2-0.3-0.4-0.5-0.5c-0.2-0.1-0.6-0.1-1.1-0.1h-1.9V10.1z"/>
		<path d="M20.6,14.3V6.4h3.3c0.7,0,1.2,0.1,1.5,0.2C25.7,6.7,26,7,26.2,7.3s0.3,0.7,0.3,1.2c0,0.6-0.2,1.1-0.5,1.4
			c-0.4,0.4-0.9,0.6-1.6,0.7c0.3,0.1,0.5,0.3,0.6,0.4c0.3,0.3,0.6,0.6,0.8,1l1.3,2.1h-1.2l-1-1.6c-0.4-0.6-0.7-1.1-0.9-1.3
			s-0.4-0.4-0.6-0.4c-0.2-0.1-0.4-0.1-0.8-0.1h-1.1v3.5H20.6z M21.5,9.9h2.1c0.5,0,0.8,0,1.1-0.1c0.2-0.1,0.4-0.2,0.6-0.5
			c0.1-0.2,0.2-0.5,0.2-0.7c0-0.4-0.1-0.7-0.4-0.9s-0.7-0.3-1.2-0.3h-2.4V9.9z"/>
	</g>
</g>
<g id="Nav_Button">
	<path class="st13" d="M-36.4,17.3c0,1.1-0.9,2-2,2h-28.1c-1.1,0-2-0.9-2-2V2.5c0-1.1,0.9-2,2-2h28.1c1.1,0,2,0.9,2,2V17.3z"/>
	<g>
		<path d="M-62,14.3V6.4h1l3.9,6.2V6.4h0.9v7.9h-1L-61,8.1v6.2H-62z"/>
		<path d="M-55.2,14.3l2.9-7.9h1.1l3,7.9h-1.1l-0.9-2.4h-3.1l-0.8,2.4H-55.2z M-53.1,11h2.5l-0.8-2.2c-0.2-0.7-0.4-1.2-0.5-1.6
			c-0.1,0.5-0.2,1-0.4,1.5L-53.1,11z"/>
		<path d="M-46.1,14.3L-49,6.4h1.1l1.9,5.7c0.1,0.4,0.3,0.9,0.4,1.3c0.1-0.4,0.2-0.9,0.4-1.3l2-5.7h1l-2.9,7.9H-46.1z"/>
	</g>
</g>
<g id="HGD_Button">
	<path class="st13" d="M-104.6,17.3c0,1.1-0.9,2-2,2h-28.1c-1.1,0-2-0.9-2-2V2.5c0-1.1,0.9-2,2-2h28.1c1.1,0,2,0.9,2,2V17.3z"/>
	<g>
		<path d="M-131.4,14.3V6.4h1v3.2h3.9V6.4h1v7.9h-1v-3.7h-3.9v3.7H-131.4z"/>
		<path d="M-123.9,14.3V6.4h2.6c0.6,0,1.1,0,1.4,0.1c0.4,0.1,0.8,0.4,1.1,0.7c0.3,0.3,0.6,0.8,0.7,1.3c0.2,0.5,0.3,1.1,0.3,1.8
			c0,0.9-0.2,1.6-0.5,2.3c-0.3,0.6-0.7,1.1-1.2,1.3c-0.5,0.3-1.1,0.4-1.9,0.4H-123.9z M-122.9,13.3h1.6c0.6,0,1.1-0.1,1.5-0.3
			c0.3-0.2,0.6-0.5,0.8-0.9c0.2-0.5,0.4-1.2,0.4-1.9c0-0.8-0.1-1.4-0.4-1.9c-0.3-0.5-0.6-0.8-1-0.9c-0.3-0.1-0.7-0.2-1.3-0.2h-1.6
			V13.3z"/>
		<path d="M-112.9,11.2v-0.9l3.2,0v2.9c-0.5,0.4-1,0.7-1.5,0.9s-1,0.3-1.6,0.3c-0.7,0-1.4-0.2-1.9-0.5s-1-0.8-1.4-1.4
			s-0.5-1.3-0.5-2.2c0-0.9,0.2-1.6,0.5-2.2s0.8-1.1,1.3-1.4c0.5-0.3,1.2-0.5,1.9-0.5c0.5,0,1,0.1,1.4,0.3c0.4,0.2,0.7,0.4,1,0.7
			s0.5,0.8,0.6,1.3l-0.9,0.3c-0.1-0.4-0.3-0.8-0.5-1c-0.2-0.2-0.4-0.4-0.7-0.5c-0.3-0.1-0.6-0.2-1-0.2c-0.5,0-1,0.1-1.4,0.3
			c-0.4,0.2-0.7,0.6-0.9,1.1c-0.2,0.5-0.4,1.1-0.4,1.8c0,1.1,0.3,1.8,0.8,2.4c0.5,0.5,1.2,0.8,2,0.8c0.4,0,0.8-0.1,1.2-0.2
			c0.4-0.2,0.7-0.4,1-0.6v-1.5H-112.9z"/>
	</g>
</g>
<g id="AP_Button">
	<path class="st13" d="M-208.5,18.3c0,1.1-0.9,2-2,2h-28.1c-1.1,0-2-0.9-2-2V3.5c0-1.1,0.9-2,2-2h28.1c1.1,0,2,0.9,2,2V18.3z"/>
	<g>
		<path d="M-232.1,15.3l2.9-7.9h1.1l3,7.9h-1.1l-0.9-2.4h-3.1l-0.8,2.4H-232.1z M-230,12h2.5l-0.8-2.2c-0.2-0.7-0.4-1.2-0.5-1.6
			c-0.1,0.5-0.2,1-0.4,1.5L-230,12z"/>
		<path d="M-224.4,15.3V7.4h2.8c0.7,0,1.1,0,1.5,0.2c0.4,0.1,0.8,0.4,1,0.8c0.3,0.4,0.4,0.8,0.4,1.4c0,0.7-0.2,1.3-0.6,1.7
			c-0.4,0.4-1.1,0.7-2.2,0.7h-1.9v3.2H-224.4z M-223.4,11.1h1.9c0.6,0,1.1-0.1,1.3-0.4s0.4-0.6,0.4-1.1c0-0.3-0.1-0.6-0.2-0.8
			c-0.1-0.2-0.3-0.4-0.5-0.5c-0.2-0.1-0.6-0.1-1.1-0.1h-1.9V11.1z"/>
	</g>
</g>
<g id="Text" class="st0">
	<g class="st2">
		<rect x="-170.9" y="-96.1" class="st5" width="65" height="25.3"/>
		<path class="st14" d="M-165.4-84.3l-1.1,9.2l-1,0.8l-0.8-1l1.1-9.2l1-0.8L-165.4-84.3z M-157.1-73.7l0.8,1l-1,0.8l-9.1-1.1l-0.8-1
			l1-0.8L-157.1-73.7z M-164-95.6l-1.1,9.2l-1,0.8l-0.8-1l1.1-9.2l1-0.8L-164-95.6z M-160.7-84.2l0.3,1.4l-3.9,7.1l-1.2,0.5
			l-0.3-1.5l3.9-7L-160.7-84.2z M-154.4-96.4l0.8,1l-1,0.8l-9.1-1.1l-0.8-1l1-0.8L-154.4-96.4z M-155.4-94.1l0.3,1.4l-3.9,7.1
			l-1.2,0.5l-0.3-1.5l3.9-7L-155.4-94.1z M-154-82.9l-1.1,9.2l-1,0.8l-0.8-1l1.1-9.2l1-0.8L-154-82.9z M-152.7-94.2l-1.1,9.2l-1,0.8
			l-0.8-1l1.1-9.2l1-0.8L-152.7-94.2z"/>
		<path class="st14" d="M-143.8-84.3l-1.1,9.2l-1,0.8l-0.8-1l1.1-9.2l1-0.8L-143.8-84.3z M-135.5-73.7l0.8,1l-1,0.8l-9.1-1.1l-0.8-1
			l1-0.8L-135.5-73.7z M-142.4-95.6l-1.1,9.2l-1,0.8l-0.8-1l1.1-9.2l1-0.8L-142.4-95.6z M-139-84.2l0.3,1.4l-3.9,7.1l-1.2,0.5
			l-0.3-1.5l3.9-7L-139-84.2z M-132.8-96.4l0.8,1l-1,0.8l-9.1-1.1l-0.8-1l1-0.8L-132.8-96.4z M-133.8-94.1l0.3,1.4l-3.9,7.1
			l-1.2,0.5l-0.3-1.5l3.9-7L-133.8-94.1z M-132.4-82.9l-1.1,9.2l-1,0.8l-0.8-1l1.1-9.2l1-0.8L-132.4-82.9z M-131-94.2l-1.1,9.2
			l-1,0.8l-0.8-1l1.1-9.2l1-0.8L-131-94.2z"/>
		<path class="st14" d="M-122.2-84.3l-1.1,9.2l-1,0.8l-0.8-1l1.1-9.2l1-0.8L-122.2-84.3z M-113.9-73.7l0.8,1l-1,0.8l-9.1-1.1l-0.8-1
			l1-0.8L-113.9-73.7z M-120.8-95.6l-1.1,9.2l-1,0.8l-0.8-1l1.1-9.2l1-0.8L-120.8-95.6z M-117.4-84.2l0.3,1.4l-3.9,7.1l-1.2,0.5
			l-0.3-1.5l3.9-7L-117.4-84.2z M-111.2-96.4l0.8,1l-1,0.8l-9.1-1.1l-0.8-1l1-0.8L-111.2-96.4z M-112.2-94.1l0.3,1.4l-3.9,7.1
			l-1.2,0.5l-0.3-1.5l3.9-7L-112.2-94.1z M-110.8-82.9l-1.1,9.2l-1,0.8l-0.8-1l1.1-9.2l1-0.8L-110.8-82.9z M-109.4-94.2l-1.1,9.2
			l-1,0.8l-0.8-1l1.1-9.2l1-0.8L-109.4-94.2z"/>
	</g>
	<g class="st2">
		<rect x="-172.9" y="-62.1" class="st5" width="65" height="25.3"/>
		<path class="st14" d="M-169.2-61.1v9.3l-0.9,0.9l-0.9-0.9v-9.3l0.9-0.9L-169.2-61.1z M-169.2-49.6v9.3l-0.9,0.9l-0.9-0.9v-9.3
			l0.9-0.9L-169.2-49.6z M-159.8-63.1l0.9,0.9l-0.9,0.9h-9.2l-0.9-0.9l0.9-0.9H-159.8z M-159.8-40.2l0.9,0.9l-0.9,0.9h-9.2l-0.9-0.9
			l0.9-0.9H-159.8z M-164.5-50.1l0.5,1.3l-3,7.5l-1.2,0.6l-0.5-1.4l3-7.4L-164.5-50.1z M-160.5-60.6l0.5,1.3l-3,7.5l-1.2,0.6
			l-0.5-1.4l3-7.4L-160.5-60.6z M-157.8-61.1v9.3l-0.9,0.9l-0.9-0.9v-9.3l0.9-0.9L-157.8-61.1z M-157.8-49.6v9.3l-0.9,0.9l-0.9-0.9
			v-9.3l0.9-0.9L-157.8-49.6z"/>
		<path class="st14" d="M-146.4-61.1v9.3l-0.9,0.9l-0.9-0.9v-9.3l0.9-0.9L-146.4-61.1z M-146.4-49.6v9.3l-0.9,0.9l-0.9-0.9v-9.3
			l0.9-0.9L-146.4-49.6z M-136.9-63.1l0.9,0.9l-0.9,0.9h-9.2l-0.9-0.9l0.9-0.9H-136.9z M-136.9-40.2l0.9,0.9l-0.9,0.9h-9.2l-0.9-0.9
			l0.9-0.9H-136.9z M-141.7-50.1l0.5,1.3l-3,7.5l-1.2,0.6l-0.5-1.4l3-7.4L-141.7-50.1z M-137.7-60.6l0.5,1.3l-3,7.5l-1.2,0.6
			l-0.5-1.4l3-7.4L-137.7-60.6z M-134.9-61.1v9.3l-0.9,0.9l-0.9-0.9v-9.3l0.9-0.9L-134.9-61.1z M-134.9-49.6v9.3l-0.9,0.9l-0.9-0.9
			v-9.3l0.9-0.9L-134.9-49.6z"/>
		<path class="st14" d="M-123.5-61.1v9.3l-0.9,0.9l-0.9-0.9v-9.3l0.9-0.9L-123.5-61.1z M-123.5-49.6v9.3l-0.9,0.9l-0.9-0.9v-9.3
			l0.9-0.9L-123.5-49.6z M-114.1-63.1l0.9,0.9l-0.9,0.9h-9.2l-0.9-0.9l0.9-0.9H-114.1z M-114-40.2l0.9,0.9l-0.9,0.9h-9.2l-0.9-0.9
			l0.9-0.9H-114z M-118.8-50.1l0.5,1.3l-3,7.5l-1.2,0.6l-0.5-1.4l3-7.4L-118.8-50.1z M-114.8-60.6l0.5,1.3l-3,7.5l-1.2,0.6l-0.5-1.4
			l3-7.4L-114.8-60.6z M-112.1-61.1v9.3l-0.9,0.9l-0.9-0.9v-9.3l0.9-0.9L-112.1-61.1z M-112.1-49.6v9.3l-0.9,0.9l-0.9-0.9v-9.3
			l0.9-0.9L-112.1-49.6z"/>
	</g>
	<g class="st2">
		<rect x="-62.9" y="-96.1" class="st5" width="65" height="25.3"/>
		<path class="st14" d="M-57.4-84.3l-1.1,9.2l-1,0.8l-0.8-1l1.1-9.2l1-0.8L-57.4-84.3z M-49.1-73.7l0.8,1l-1,0.8l-9.1-1.1l-0.8-1
			l1-0.8L-49.1-73.7z M-56-95.6l-1.1,9.2l-1,0.8l-0.8-1l1.1-9.2l1-0.8L-56-95.6z M-52.7-84.2l0.3,1.4l-3.9,7.1l-1.2,0.5l-0.3-1.5
			l3.9-7L-52.7-84.2z M-46.4-96.4l0.8,1l-1,0.8l-9.1-1.1l-0.8-1l1-0.8L-46.4-96.4z M-47.4-94.1l0.3,1.4l-3.9,7.1l-1.2,0.5l-0.3-1.5
			l3.9-7L-47.4-94.1z M-46-82.9l-1.1,9.2l-1,0.8l-0.8-1l1.1-9.2l1-0.8L-46-82.9z M-44.7-94.2l-1.1,9.2l-1,0.8l-0.8-1l1.1-9.2l1-0.8
			L-44.7-94.2z"/>
		<path class="st14" d="M-35.8-84.3l-1.1,9.2l-1,0.8l-0.8-1l1.1-9.2l1-0.8L-35.8-84.3z M-27.5-73.7l0.8,1l-1,0.8l-9.1-1.1l-0.8-1
			l1-0.8L-27.5-73.7z M-34.4-95.6l-1.1,9.2l-1,0.8l-0.8-1l1.1-9.2l1-0.8L-34.4-95.6z M-31-84.2l0.3,1.4l-3.9,7.1l-1.2,0.5l-0.3-1.5
			l3.9-7L-31-84.2z M-24.8-96.4l0.8,1l-1,0.8l-9.1-1.1l-0.8-1l1-0.8L-24.8-96.4z M-25.8-94.1l0.3,1.4l-3.9,7.1l-1.2,0.5l-0.3-1.5
			l3.9-7L-25.8-94.1z M-24.4-82.9l-1.1,9.2l-1,0.8l-0.8-1l1.1-9.2l1-0.8L-24.4-82.9z M-23-94.2l-1.1,9.2l-1,0.8l-0.8-1l1.1-9.2
			l1-0.8L-23-94.2z"/>
		<path class="st14" d="M-14.2-84.3l-1.1,9.2l-1,0.8l-0.8-1l1.1-9.2l1-0.8L-14.2-84.3z M-5.9-73.7l0.8,1l-1,0.8l-9.1-1.1l-0.8-1
			l1-0.8L-5.9-73.7z M-12.8-95.6l-1.1,9.2l-1,0.8l-0.8-1l1.1-9.2l1-0.8L-12.8-95.6z M-9.4-84.2l0.3,1.4l-3.9,7.1l-1.2,0.5l-0.3-1.5
			l3.9-7L-9.4-84.2z M-3.2-96.4l0.8,1l-1,0.8l-9.1-1.1l-0.8-1l1-0.8L-3.2-96.4z M-4.2-94.1l0.3,1.4l-3.9,7.1l-1.2,0.5l-0.3-1.5
			l3.9-7L-4.2-94.1z M-2.8-82.9L-4-73.7l-1,0.8l-0.8-1l1.1-9.2l1-0.8L-2.8-82.9z M-1.4-94.2L-2.6-85l-1,0.8l-0.8-1l1.1-9.2l1-0.8
			L-1.4-94.2z"/>
	</g>
	<g class="st2">
		<rect x="-64.9" y="-62.1" class="st5" width="65" height="25.3"/>
		<path class="st14" d="M-61.2-61.1v9.3l-0.9,0.9l-0.9-0.9v-9.3l0.9-0.9L-61.2-61.1z M-61.2-49.6v9.3l-0.9,0.9l-0.9-0.9v-9.3
			l0.9-0.9L-61.2-49.6z M-51.8-63.1l0.9,0.9l-0.9,0.9H-61l-0.9-0.9l0.9-0.9H-51.8z M-51.8-40.2l0.9,0.9l-0.9,0.9H-61l-0.9-0.9
			l0.9-0.9H-51.8z M-56.5-50.1l0.5,1.3l-3,7.5l-1.2,0.6l-0.5-1.4l3-7.4L-56.5-50.1z M-52.5-60.6l0.5,1.3l-3,7.5l-1.2,0.6l-0.5-1.4
			l3-7.4L-52.5-60.6z M-49.8-61.1v9.3l-0.9,0.9l-0.9-0.9v-9.3l0.9-0.9L-49.8-61.1z M-49.8-49.6v9.3l-0.9,0.9l-0.9-0.9v-9.3l0.9-0.9
			L-49.8-49.6z"/>
		<path class="st14" d="M-38.4-61.1v9.3l-0.9,0.9l-0.9-0.9v-9.3l0.9-0.9L-38.4-61.1z M-38.4-49.6v9.3l-0.9,0.9l-0.9-0.9v-9.3
			l0.9-0.9L-38.4-49.6z M-28.9-63.1l0.9,0.9l-0.9,0.9h-9.2l-0.9-0.9l0.9-0.9H-28.9z M-28.9-40.2l0.9,0.9l-0.9,0.9h-9.2l-0.9-0.9
			l0.9-0.9H-28.9z M-33.7-50.1l0.5,1.3l-3,7.5l-1.2,0.6l-0.5-1.4l3-7.4L-33.7-50.1z M-29.7-60.6l0.5,1.3l-3,7.5l-1.2,0.6l-0.5-1.4
			l3-7.4L-29.7-60.6z M-26.9-61.1v9.3l-0.9,0.9l-0.9-0.9v-9.3l0.9-0.9L-26.9-61.1z M-26.9-49.6v9.3l-0.9,0.9l-0.9-0.9v-9.3l0.9-0.9
			L-26.9-49.6z"/>
		<path class="st14" d="M-15.5-61.1v9.3l-0.9,0.9l-0.9-0.9v-9.3l0.9-0.9L-15.5-61.1z M-15.5-49.6v9.3l-0.9,0.9l-0.9-0.9v-9.3
			l0.9-0.9L-15.5-49.6z M-6.1-63.1l0.9,0.9l-0.9,0.9h-9.2l-0.9-0.9l0.9-0.9H-6.1z M-6-40.2l0.9,0.9L-6-38.4h-9.2l-0.9-0.9l0.9-0.9
			H-6z M-10.8-50.1l0.5,1.3l-3,7.5l-1.2,0.6l-0.5-1.4l3-7.4L-10.8-50.1z M-6.8-60.6l0.5,1.3l-3,7.5l-1.2,0.6l-0.5-1.4l3-7.4
			L-6.8-60.6z M-4.1-61.1v9.3l-0.9,0.9l-0.9-0.9v-9.3l0.9-0.9L-4.1-61.1z M-4.1-49.6v9.3l-0.9,0.9l-0.9-0.9v-9.3l0.9-0.9L-4.1-49.6z
			"/>
	</g>
	<g class="st2">
		<rect x="46.9" y="-96.1" class="st5" width="111.2" height="25.3"/>
		<path class="st14" d="M52.4-84.3l-1.1,9.2l-1,0.8l-0.8-1l1.1-9.2l1-0.8L52.4-84.3z M60.6-73.7l0.8,1l-1,0.8l-9.1-1.1l-0.8-1l1-0.8
			L60.6-73.7z M53.8-95.6l-1.1,9.2l-1,0.8l-0.8-1l1.1-9.2l1-0.8L53.8-95.6z M57.1-84.2l0.3,1.4l-3.9,7.1l-1.2,0.5l-0.3-1.5l3.9-7
			L57.1-84.2z M63.3-96.4l0.8,1l-1,0.8L54-95.7l-0.8-1l1-0.8L63.3-96.4z M62.3-94.1l0.3,1.4l-3.9,7.1l-1.2,0.5l-0.3-1.5l3.9-7
			L62.3-94.1z M63.7-82.9l-1.1,9.2l-1,0.8l-0.8-1l1.1-9.2l1-0.8L63.7-82.9z M65.1-94.2L64-85l-1,0.8l-0.8-1l1.1-9.2l1-0.8L65.1-94.2
			z"/>
		<path class="st14" d="M74-84.3l-1.1,9.2l-1,0.8l-0.8-1l1.1-9.2l1-0.8L74-84.3z M82.2-73.7l0.8,1l-1,0.8l-9.1-1.1l-0.8-1l1-0.8
			L82.2-73.7z M75.4-95.6l-1.1,9.2l-1,0.8l-0.8-1l1.1-9.2l1-0.8L75.4-95.6z M78.7-84.2l0.3,1.4l-3.9,7.1l-1.2,0.5l-0.3-1.5l3.9-7
			L78.7-84.2z M84.9-96.4l0.8,1l-1,0.8l-9.1-1.1l-0.8-1l1-0.8L84.9-96.4z M83.9-94.1l0.3,1.4l-3.9,7.1l-1.2,0.5l-0.3-1.5l3.9-7
			L83.9-94.1z M85.3-82.9l-1.1,9.2l-1,0.8l-0.8-1l1.1-9.2l1-0.8L85.3-82.9z M86.7-94.2L85.6-85l-1,0.8l-0.8-1l1.1-9.2l1-0.8
			L86.7-94.2z"/>
		<path class="st14" d="M95.6-84.3l-1.1,9.2l-1,0.8l-0.8-1l1.1-9.2l1-0.8L95.6-84.3z M103.8-73.7l0.8,1l-1,0.8l-9.1-1.1l-0.8-1
			l1-0.8L103.8-73.7z M97-95.6l-1.1,9.2l-1,0.8l-0.8-1l1.1-9.2l1-0.8L97-95.6z M100.3-84.2l0.3,1.4l-3.9,7.1l-1.2,0.5l-0.3-1.5
			l3.9-7L100.3-84.2z M106.6-96.4l0.8,1l-1,0.8l-9.1-1.1l-0.8-1l1-0.8L106.6-96.4z M105.6-94.1l0.3,1.4l-3.9,7.1l-1.2,0.5l-0.3-1.5
			l3.9-7L105.6-94.1z M106.9-82.9l-1.1,9.2l-1,0.8l-0.8-1l1.1-9.2l1-0.8L106.9-82.9z M108.3-94.2l-1.1,9.2l-1,0.8l-0.8-1l1.1-9.2
			l1-0.8L108.3-94.2z"/>
		<path class="st14" d="M117.2-84.3l-1.1,9.2l-1,0.8l-0.8-1l1.1-9.2l1-0.8L117.2-84.3z M125.4-73.7l0.8,1l-1,0.8l-9.1-1.1l-0.8-1
			l1-0.8L125.4-73.7z M118.6-95.6l-1.1,9.2l-1,0.8l-0.8-1l1.1-9.2l1-0.8L118.6-95.6z M121.9-84.2l0.3,1.4l-3.9,7.1l-1.2,0.5
			l-0.3-1.5l3.9-7L121.9-84.2z M128.2-96.4l0.8,1l-1,0.8l-9.1-1.1l-0.8-1l1-0.8L128.2-96.4z M127.2-94.1l0.3,1.4l-3.9,7.1l-1.2,0.5
			l-0.3-1.5l3.9-7L127.2-94.1z M128.5-82.9l-1.1,9.2l-1,0.8l-0.8-1l1.1-9.2l1-0.8L128.5-82.9z M129.9-94.2l-1.1,9.2l-1,0.8l-0.8-1
			l1.1-9.2l1-0.8L129.9-94.2z"/>
		<path class="st14" d="M138.8-84.3l-1.1,9.2l-1,0.8l-0.8-1l1.1-9.2l1-0.8L138.8-84.3z M147.1-73.7l0.8,1l-1,0.8l-9.1-1.1l-0.8-1
			l1-0.8L147.1-73.7z M140.2-95.6l-1.1,9.2l-1,0.8l-0.8-1l1.1-9.2l1-0.8L140.2-95.6z M143.5-84.2l0.3,1.4l-3.9,7.1l-1.2,0.5
			l-0.3-1.5l3.9-7L143.5-84.2z M149.8-96.4l0.8,1l-1,0.8l-9.1-1.1l-0.8-1l1-0.8L149.8-96.4z M148.8-94.1l0.3,1.4l-3.9,7.1l-1.2,0.5
			l-0.3-1.5l3.9-7L148.8-94.1z M150.2-82.9l-1.1,9.2l-1,0.8l-0.8-1l1.1-9.2l1-0.8L150.2-82.9z M151.5-94.2l-1.1,9.2l-1,0.8l-0.8-1
			l1.1-9.2l1-0.8L151.5-94.2z"/>
	</g>
</g>
<g id="R_Flag" class="st0">
	<g class="st2">
		<rect x="-219" y="-19.6" class="st5" width="12.6" height="13.5"/>
		<path class="st15" d="M-218.1-11v-8.6h3.7c0.9,0,1.6,0.1,2,0.2s0.7,0.4,1,0.8s0.4,0.8,0.4,1.4c0,0.6-0.2,1.2-0.6,1.6
			c-0.4,0.4-0.9,0.7-1.7,0.8c0.4,0.2,0.7,0.5,0.9,0.7s0.6,0.7,1,1.4l1,1.7h-2.1l-1.3-1.9c-0.4-0.7-0.8-1.1-0.9-1.3s-0.3-0.3-0.5-0.4
			s-0.5-0.1-0.9-0.1h-0.4v3.6H-218.1z M-216.4-16h1.3c0.8,0,1.4,0,1.6-0.1s0.4-0.2,0.5-0.4s0.2-0.4,0.2-0.6c0-0.3-0.1-0.5-0.2-0.7
			s-0.4-0.3-0.7-0.3c-0.1,0-0.6,0-1.3,0h-1.4V-16z"/>
	</g>
</g>
<g id="P_Flag" class="st0">
	<g class="st2">
		<rect x="-237.9" y="-19.6" class="st5" width="10" height="13.5"/>
		<path class="st15" d="M-237-11v-8.6h2.8c1.1,0,1.7,0,2.1,0.1c0.5,0.1,0.9,0.4,1.2,0.8s0.5,1,0.5,1.7c0,0.5-0.1,1-0.3,1.3
			c-0.2,0.4-0.4,0.6-0.7,0.8s-0.6,0.3-0.9,0.4c-0.4,0.1-1,0.1-1.8,0.1h-1.1v3.2H-237z M-235.3-18.2v2.4h0.9c0.7,0,1.1,0,1.4-0.1
			s0.4-0.2,0.5-0.4s0.2-0.4,0.2-0.7c0-0.3-0.1-0.6-0.3-0.8s-0.4-0.3-0.7-0.4c-0.2,0-0.6-0.1-1.2-0.1H-235.3z"/>
	</g>
</g>
<g id="L_Arm_Flag" class="st0">
	<g class="st2">
		<rect x="-103.9" y="-72.5" class="st5" width="9" height="37.5"/>
		<path class="st14" d="M-102.4-63.1l3-7.9h1.1l3.2,7.9h-1.2l-0.9-2.4h-3.3l-0.9,2.4H-102.4z M-100.2-66.3h2.7l-0.8-2.2
			c-0.3-0.7-0.4-1.2-0.6-1.6c-0.1,0.5-0.2,1-0.4,1.5L-100.2-66.3z"/>
		<path class="st14" d="M-101.9-50.4v-7.9h3.5c0.7,0,1.2,0.1,1.6,0.2c0.4,0.1,0.7,0.4,0.9,0.7s0.3,0.8,0.3,1.2c0,0.6-0.2,1-0.5,1.4
			s-0.9,0.6-1.7,0.7c0.3,0.1,0.5,0.3,0.6,0.4c0.3,0.3,0.6,0.6,0.9,1l1.4,2.1h-1.3l-1-1.6c-0.3-0.5-0.6-0.8-0.8-1.1
			c-0.2-0.3-0.4-0.4-0.5-0.5c-0.2-0.1-0.3-0.2-0.5-0.2c-0.1,0-0.3,0-0.6,0h-1.2v3.5H-101.9z M-100.8-54.8h2.2c0.5,0,0.8,0,1.1-0.1
			c0.3-0.1,0.5-0.3,0.6-0.5c0.1-0.2,0.2-0.5,0.2-0.7c0-0.4-0.1-0.7-0.4-0.9s-0.7-0.4-1.3-0.4h-2.5V-54.8z"/>
		<path class="st14" d="M-102.5-37.7v-7.9h1.6l1.9,5.6c0.2,0.5,0.3,0.9,0.4,1.2c0.1-0.3,0.2-0.7,0.4-1.3l1.9-5.5h1.4v7.9h-1v-6.6
			l-2.3,6.6h-0.9l-2.3-6.7v6.7H-102.5z"/>
	</g>
</g>
<g id="R_Arm_Flag" class="st0">
	<g class="st2">
		<rect x="1.1" y="-73.2" class="st5" width="9" height="37.5"/>
		<path class="st14" d="M2.6-63.8l3-7.9h1.1l3.2,7.9H8.7l-0.9-2.4H4.5l-0.9,2.4H2.6z M4.8-67h2.7l-0.8-2.2c-0.3-0.7-0.4-1.2-0.6-1.6
			c-0.1,0.5-0.2,1-0.4,1.5L4.8-67z"/>
		<path class="st14" d="M3.1-51.1V-59h3.5c0.7,0,1.2,0.1,1.6,0.2c0.4,0.1,0.7,0.4,0.9,0.7s0.3,0.8,0.3,1.2c0,0.6-0.2,1-0.5,1.4
			S8-54.8,7.2-54.7c0.3,0.1,0.5,0.3,0.6,0.4c0.3,0.3,0.6,0.6,0.9,1l1.4,2.1H8.8l-1-1.6c-0.3-0.5-0.6-0.8-0.8-1.1
			c-0.2-0.3-0.4-0.4-0.5-0.5c-0.2-0.1-0.3-0.2-0.5-0.2c-0.1,0-0.3,0-0.6,0H4.2v3.5H3.1z M4.2-55.5h2.2c0.5,0,0.8,0,1.1-0.1
			c0.3-0.1,0.5-0.3,0.6-0.5c0.1-0.2,0.2-0.5,0.2-0.7c0-0.4-0.1-0.7-0.4-0.9s-0.7-0.4-1.3-0.4H4.2V-55.5z"/>
		<path class="st14" d="M2.5-38.4v-7.9H4l1.9,5.6c0.2,0.5,0.3,0.9,0.4,1.2c0.1-0.3,0.2-0.7,0.4-1.3l1.9-5.5H10v7.9H9V-45l-2.3,6.6
			H5.8l-2.3-6.7v6.7H2.5z"/>
	</g>
</g>
<g id="PT_Down" class="st0">
	<polygon class="st16" points="22.7,-50.4 26.9,-39.8 31,-50.4 	"/>
</g>
<g id="PT_Up" class="st0">
	<polygon class="st16" points="22.7,-83.5 26.9,-94.1 31,-83.5 	"/>
</g>
<g id="PT_Flag" class="st0">
	<g class="st2">
		<rect x="21.6" y="-79.5" class="st5" width="9" height="26.7"/>
		<path class="st14" d="M23.9-70v-7.9h3c0.5,0,0.9,0,1.2,0.1c0.4,0.1,0.7,0.2,1,0.4c0.3,0.2,0.5,0.4,0.6,0.8s0.2,0.7,0.2,1.1
			c0,0.7-0.2,1.2-0.6,1.7c-0.4,0.5-1.2,0.7-2.3,0.7h-2v3.2H23.9z M24.9-74.2h2c0.7,0,1.2-0.1,1.4-0.4s0.4-0.6,0.4-1.1
			c0-0.3-0.1-0.6-0.3-0.8c-0.2-0.2-0.4-0.4-0.7-0.5c-0.2,0-0.5-0.1-1-0.1h-2V-74.2z"/>
		<path class="st14" d="M26.2-57.4v-6.9h-2.6v-0.9h6.2v0.9h-2.6v6.9H26.2z"/>
	</g>
</g>
<g id="FPM_Flag" class="st0">
	<g class="st2">
		<rect x="103.1" y="-62.9" class="st5" width="26.8" height="8.4"/>
		<path class="st14" d="M104-55v-7.9h5.3v0.9H105v2.4h3.7v0.9H105v3.6H104z"/>
		<path class="st14" d="M112.3-55v-7.9h3c0.5,0,0.9,0,1.2,0.1c0.4,0.1,0.7,0.2,1,0.4c0.3,0.2,0.5,0.4,0.6,0.8s0.2,0.7,0.2,1.1
			c0,0.7-0.2,1.2-0.6,1.7c-0.4,0.5-1.2,0.7-2.3,0.7h-2v3.2H112.3z M113.4-59.1h2c0.7,0,1.2-0.1,1.4-0.4s0.4-0.6,0.4-1.1
			c0-0.3-0.1-0.6-0.3-0.8c-0.2-0.2-0.4-0.4-0.7-0.5c-0.2,0-0.5-0.1-1-0.1h-2V-59.1z"/>
		<path class="st14" d="M121.3-55v-7.9h1.6l1.9,5.6c0.2,0.5,0.3,0.9,0.4,1.2c0.1-0.3,0.2-0.7,0.4-1.3l1.9-5.5h1.4v7.9h-1v-6.6
			l-2.3,6.6h-0.9l-2.3-6.7v6.7H121.3z"/>
	</g>
</g>
<g id="ALERT_Flag" class="st0">
	<g class="st2">
		<rect x="48.3" y="-62.9" class="st5" width="43.8" height="8.4"/>
		<path class="st14" d="M48.3-55l3-7.9h1.1l3.2,7.9h-1.2l-0.9-2.4h-3.3L49.4-55H48.3z M50.6-58.2h2.7l-0.8-2.2
			c-0.3-0.7-0.4-1.2-0.6-1.6c-0.1,0.5-0.2,1-0.4,1.5L50.6-58.2z"/>
		<path class="st14" d="M58.2-55v-7.9h1v6.9h3.9v0.9H58.2z"/>
		<path class="st14" d="M66-55v-7.9h5.7v0.9H67v2.4h4.4v0.9H67v2.7h4.8v0.9H66z"/>
		<path class="st14" d="M75-55v-7.9h3.5c0.7,0,1.2,0.1,1.6,0.2c0.4,0.1,0.7,0.4,0.9,0.7s0.3,0.8,0.3,1.2c0,0.6-0.2,1-0.5,1.4
			s-0.9,0.6-1.7,0.7c0.3,0.1,0.5,0.3,0.6,0.4c0.3,0.3,0.6,0.6,0.9,1l1.4,2.1h-1.3l-1-1.6c-0.3-0.5-0.6-0.8-0.8-1.1
			c-0.2-0.3-0.4-0.4-0.5-0.5c-0.2-0.1-0.3-0.2-0.5-0.2c-0.1,0-0.3,0-0.6,0H76v3.5H75z M76-59.4h2.2c0.5,0,0.8,0,1.1-0.1
			c0.3-0.1,0.5-0.3,0.6-0.5c0.1-0.2,0.2-0.5,0.2-0.7c0-0.4-0.1-0.7-0.4-0.9S79.1-62,78.5-62H76V-59.4z"/>
		<path class="st14" d="M86.4-55v-6.9h-2.6v-0.9H90v0.9h-2.6v6.9H86.4z"/>
	</g>
</g>
<g id="HPA_Flag" class="st0">
	<g class="st2">
		<rect x="64.1" y="-49.3" class="st5" width="25.8" height="8.4"/>
		<path class="st14" d="M65-41.4v-7.9h1v3.2h4.1v-3.2h1v7.9h-1v-3.7H66v3.7H65z"/>
		<path class="st14" d="M74.5-41.4v-7.9h3c0.5,0,0.9,0,1.2,0.1c0.4,0.1,0.7,0.2,1,0.4c0.3,0.2,0.5,0.4,0.6,0.8s0.2,0.7,0.2,1.1
			c0,0.7-0.2,1.2-0.6,1.7c-0.4,0.5-1.2,0.7-2.3,0.7h-2v3.2H74.5z M75.6-45.5h2c0.7,0,1.2-0.1,1.4-0.4s0.4-0.6,0.4-1.1
			c0-0.3-0.1-0.6-0.3-0.8c-0.2-0.2-0.4-0.4-0.7-0.5c-0.2,0-0.5-0.1-1-0.1h-2V-45.5z"/>
		<path class="st14" d="M81.8-41.4l3-7.9H86l3.2,7.9H88l-0.9-2.4h-3.3l-0.9,2.4H81.8z M84.1-44.6h2.7L86-46.8
			c-0.3-0.7-0.4-1.2-0.6-1.6c-0.1,0.5-0.2,1-0.4,1.5L84.1-44.6z"/>
	</g>
</g>
<g id="IN_HG_Flag" class="st0">
	<g class="st2">
		<rect x="116.5" y="-49.3" class="st5" width="15.8" height="8.4"/>
		<path class="st14" d="M117.5-41.4v-7.9h1v7.9H117.5z"/>
		<path class="st14" d="M122-41.4v-7.9h1.1l4.1,6.2v-6.2h1v7.9h-1.1l-4.1-6.2v6.2H122z"/>
	</g>
	<g class="st2">
		<rect x="135.6" y="-49.3" class="st5" width="19.7" height="8.4"/>
		<path class="st14" d="M136.5-41.4v-7.9h1v3.2h4.1v-3.2h1v7.9h-1v-3.7h-4.1v3.7H136.5z"/>
		<path class="st14" d="M149.7-44.5v-0.9l3.3,0v2.9c-0.5,0.4-1,0.7-1.6,0.9c-0.5,0.2-1.1,0.3-1.7,0.3c-0.8,0-1.5-0.2-2.1-0.5
			c-0.6-0.3-1.1-0.8-1.4-1.4s-0.5-1.3-0.5-2.1c0-0.8,0.2-1.5,0.5-2.1c0.3-0.7,0.8-1.2,1.4-1.5s1.3-0.5,2.1-0.5
			c0.6,0,1.1,0.1,1.5,0.3c0.5,0.2,0.8,0.4,1.1,0.8s0.5,0.8,0.6,1.3l-0.9,0.3c-0.1-0.4-0.3-0.7-0.4-0.9s-0.4-0.4-0.8-0.6
			c-0.3-0.1-0.7-0.2-1.1-0.2c-0.5,0-0.9,0.1-1.2,0.2c-0.3,0.1-0.6,0.3-0.8,0.6s-0.4,0.5-0.5,0.8c-0.2,0.5-0.3,1-0.3,1.6
			c0,0.7,0.1,1.3,0.4,1.8c0.2,0.5,0.6,0.8,1.1,1.1c0.5,0.2,1,0.3,1.5,0.3c0.5,0,0.9-0.1,1.3-0.3c0.4-0.2,0.8-0.4,1-0.6v-1.5H149.7z"
			/>
	</g>
</g>
<g id="FT_Flag" class="st0">
	<g class="st2">
		<rect x="135.6" y="-62.9" class="st5" width="15.8" height="8.4"/>
		<path class="st14" d="M136.5-55v-7.9h5.3v0.9h-4.3v2.4h3.7v0.9h-3.7v3.6H136.5z"/>
		<path class="st14" d="M146.8-55v-6.9h-2.6v-0.9h6.2v0.9h-2.6v6.9H146.8z"/>
	</g>
</g>
<g id="AP_Flag" class="st0">
	<g class="st2">
		<rect x="-88.2" y="-91.9" class="st5" width="16.8" height="8.4"/>
		<path class="st14" d="M-88.2-84l3-7.9h1.1l3.2,7.9H-82l-0.9-2.4h-3.3l-0.9,2.4H-88.2z M-85.9-87.2h2.7l-0.8-2.2
			c-0.3-0.7-0.4-1.2-0.6-1.6c-0.1,0.5-0.2,1-0.4,1.5L-85.9-87.2z"/>
		<path class="st14" d="M-78.3-84v-7.9h3c0.5,0,0.9,0,1.2,0.1c0.4,0.1,0.7,0.2,1,0.4c0.3,0.2,0.5,0.4,0.6,0.8s0.2,0.7,0.2,1.1
			c0,0.7-0.2,1.2-0.6,1.7c-0.4,0.5-1.2,0.7-2.3,0.7h-2v3.2H-78.3z M-77.3-88.1h2c0.7,0,1.2-0.1,1.4-0.4s0.4-0.6,0.4-1.1
			c0-0.3-0.1-0.6-0.3-0.8c-0.2-0.2-0.4-0.4-0.7-0.5c-0.2,0-0.5-0.1-1-0.1h-2V-88.1z"/>
	</g>
	<polygon class="st16" points="-71.6,-94.1 -88.6,-94.1 -90.1,-95.6 -70.3,-95.6 	"/>
	<polygon class="st16" points="-71.3,-81 -88.3,-81 -89.8,-79.5 -70,-79.5 	"/>
	<polygon class="st16" points="-70.6,-93.6 -70.6,-81.7 -69.1,-80.7 -69.1,-94.6 	"/>
	<polygon class="st16" points="-89.5,-93.6 -89.5,-81.7 -91,-80.7 -91,-94.6 	"/>
</g>
</svg>
