<?xml version="1.0" encoding="utf-8"?>
<!-- Generator: Adobe Illustrator 19.0.0, SVG Export Plug-In . SVG Version: 6.00 Build 0)  -->
<svg version="1.1" xmlns="http://www.w3.org/2000/svg" xmlns:xlink="http://www.w3.org/1999/xlink" x="0px" y="0px"
	 viewBox="0 0 33.1 19.8" style="enable-background:new 0 0 33.1 19.8;" xml:space="preserve">
<style type="text/css">
	.st0{display:none;}
	.st1{display:inline;fill:#282828;stroke:#E5E5E5;stroke-width:2;stroke-miterlimit:10;}
	.st2{display:inline;}
	.st3{display:inline;fill:#58595B;}
	.st4{display:inline;fill:none;stroke:#414042;stroke-width:2;stroke-miterlimit:10;}
	.st5{fill:none;}
	.st6{fill:#414042;}
	.st7{display:inline;fill:none;stroke:#FFFFFF;stroke-miterlimit:10;}
	.st8{fill:#FFFFFF;}
	.st9{display:inline;fill:#3F403F;stroke:#000000;stroke-miterlimit:10;}
	.st10{fill:none;stroke:#000000;stroke-width:1.5;stroke-miterlimit:10;stroke-dasharray:1.5093,1.5093;}
	.st11{fill:#3F403F;stroke:#000000;stroke-width:2;stroke-miterlimit:10;}
	.st12{fill:none;stroke:#000000;stroke-width:1.5;stroke-miterlimit:10;stroke-dasharray:1.5898,1.5898;}
	.st13{fill:#FFFFFF;stroke:#FFFFFF;stroke-miterlimit:10;}
	.st14{display:inline;fill:#FFFFFF;stroke:#FFFFFF;stroke-miterlimit:10;}
	.st15{fill:#F7941E;}
	.st16{fill:#ED1C24;}
	.st17{display:inline;fill:#F7941E;}
</style>
<g id="Layer_1" class="st0">
	<path id="XMLID_814_" class="st1" d="M466,38.5h-586.7c-1.7,0-3-0.9-3-2v-150c0-1.1,1.3-2,3-2H466c1.7,0,3,0.9,3,2v150
		C469,37.7,467.6,38.5,466,38.5z"/>
</g>
<g id="Base" class="st0">
	<path class="st2" d="M295.3-39.6c0,4.3-2.1,7.8-4.7,7.8H-30.9c-2.6,0-4.7-3.5-4.7-7.8V-92c0-4.3,2.1-7.8,4.7-7.8h321.5
		c2.6,0,4.7,3.5,4.7,7.8V-39.6z"/>
	<circle class="st3" cx="332.8" cy="-80.9" r="5.7"/>
	<line class="st4" x1="327.1" y1="-80.9" x2="338.5" y2="-80.9"/>
	<g class="st2">
		<rect x="-81.8" y="-19.6" class="st5" width="12.6" height="13.5"/>
		<path class="st6" d="M-80.9-11v-8.6h3.7c0.9,0,1.6,0.1,2,0.2s0.7,0.4,1,0.8s0.4,0.8,0.4,1.4c0,0.6-0.2,1.2-0.6,1.6
			c-0.4,0.4-0.9,0.7-1.7,0.8c0.4,0.2,0.7,0.5,0.9,0.7s0.6,0.7,1,1.4l1,1.7h-2.1l-1.3-1.9c-0.4-0.7-0.8-1.1-0.9-1.3s-0.3-0.3-0.5-0.4
			s-0.5-0.1-0.9-0.1h-0.4v3.6H-80.9z M-79.2-16h1.3c0.8,0,1.4,0,1.6-0.1s0.4-0.2,0.5-0.4s0.2-0.4,0.2-0.6c0-0.3-0.1-0.5-0.2-0.7
			s-0.4-0.3-0.7-0.3c-0.1,0-0.6,0-1.3,0h-1.4V-16z"/>
	</g>
	<g class="st2">
		<rect x="-100.7" y="-19.6" class="st5" width="10" height="13.5"/>
		<path class="st6" d="M-99.8-11v-8.6h2.8c1.1,0,1.7,0,2.1,0.1c0.5,0.1,0.9,0.4,1.2,0.8s0.5,1,0.5,1.7c0,0.5-0.1,1-0.3,1.3
			c-0.2,0.4-0.4,0.6-0.7,0.8s-0.6,0.3-0.9,0.4c-0.4,0.1-1,0.1-1.8,0.1H-98v3.2H-99.8z M-98-18.2v2.4h0.9c0.7,0,1.1,0,1.4-0.1
			s0.4-0.2,0.5-0.4S-95-16.7-95-17c0-0.3-0.1-0.6-0.3-0.8s-0.4-0.3-0.7-0.4c-0.2,0-0.6-0.1-1.2-0.1H-98z"/>
	</g>
	<path class="st7" d="M353.7,17.3c0,2.8-1.9,5.1-4.3,5.1H315c-2.4,0-4.3-2.3-4.3-5.1v-70.9c0-2.8,1.9-5.1,4.3-5.1h34.4
		c2.4,0,4.3,2.3,4.3,5.1V17.3z"/>
</g>
<g id="Labels" class="st0">
	<g class="st2">
		<rect x="-102.6" y="-93.7" class="st5" width="41.6" height="9.1"/>
		<path class="st8" d="M-101.8-86.2v-7.4h1v3.7l3.7-3.7h1.3l-3.1,3l3.3,4.4H-97l-2.6-3.8l-1.2,1.2v2.6H-101.8z"/>
		<path class="st8" d="M-95.7-86.2l2.9-7.4h1.1l3,7.4h-1.1l-0.9-2.3h-3.1l-0.8,2.3H-95.7z M-93.5-89.3h2.5l-0.8-2.1
			c-0.2-0.6-0.4-1.1-0.5-1.5c-0.1,0.5-0.2,1-0.4,1.4L-93.5-89.3z"/>
		<path class="st8" d="M-87.9-86.2v-7.4h2.8c0.5,0,0.9,0,1.1,0.1c0.4,0.1,0.7,0.2,0.9,0.3s0.4,0.4,0.6,0.7s0.2,0.6,0.2,1
			c0,0.6-0.2,1.2-0.6,1.6c-0.4,0.4-1.1,0.7-2.2,0.7h-1.9v3H-87.9z M-86.9-90.1h1.9c0.6,0,1.1-0.1,1.4-0.4c0.3-0.2,0.4-0.6,0.4-1
			c0-0.3-0.1-0.6-0.2-0.8s-0.4-0.4-0.6-0.4c-0.2,0-0.5-0.1-0.9-0.1h-1.9V-90.1z"/>
		<path class="st8" d="M-75.2-86.2h-0.9V-92c-0.2,0.2-0.5,0.4-0.9,0.6s-0.7,0.4-1,0.5v-0.9c0.5-0.2,1-0.5,1.3-0.9
			c0.4-0.3,0.7-0.7,0.8-1h0.6V-86.2z"/>
		<path class="st8" d="M-70-86.2V-88h-3.2v-0.8l3.4-4.8h0.7v4.8h1v0.8h-1v1.8H-70z M-70-88.8v-3.4l-2.3,3.4H-70z"/>
		<path class="st8" d="M-67.1-89.9c0-0.9,0.1-1.6,0.3-2.1c0.2-0.5,0.4-0.9,0.8-1.2s0.8-0.4,1.3-0.4c0.4,0,0.7,0.1,1.1,0.2
			c0.3,0.2,0.5,0.4,0.7,0.7c0.2,0.3,0.4,0.7,0.5,1.1c0.1,0.4,0.2,1,0.2,1.8c0,0.9-0.1,1.6-0.3,2.1c-0.2,0.5-0.4,1-0.8,1.2
			c-0.4,0.3-0.8,0.4-1.4,0.4c-0.7,0-1.3-0.3-1.7-0.8C-66.9-87.5-67.1-88.5-67.1-89.9z M-66.2-89.9c0,1.2,0.1,2,0.4,2.4
			c0.3,0.4,0.6,0.6,1.1,0.6s0.8-0.2,1.1-0.6c0.3-0.4,0.4-1.2,0.4-2.4c0-1.2-0.1-2-0.4-2.4c-0.3-0.4-0.6-0.6-1.1-0.6
			c-0.4,0-0.8,0.2-1,0.5C-66-91.9-66.2-91.1-66.2-89.9z"/>
	</g>
	<g class="st2">
		<rect x="-114.7" y="-105.5" class="st5" width="59.6" height="7.2"/>
		<path class="st8" d="M-114.4-99.3l1.3-6.3h2.2c0.5,0,0.8,0,1,0c0.3,0,0.6,0.1,0.8,0.3c0.2,0.1,0.4,0.3,0.5,0.5
			c0.1,0.2,0.2,0.5,0.2,0.7c0,0.3-0.1,0.7-0.3,0.9c-0.2,0.3-0.5,0.5-0.9,0.6c0.3,0.1,0.6,0.2,0.8,0.5s0.3,0.5,0.3,0.8
			c0,0.4-0.1,0.7-0.3,1.1c-0.2,0.3-0.5,0.6-0.9,0.7s-0.9,0.2-1.5,0.2H-114.4z M-112.8-100.3h1.2c0.5,0,0.9,0,1.1-0.1
			c0.2-0.1,0.3-0.2,0.4-0.3c0.1-0.2,0.2-0.3,0.2-0.5c0-0.2-0.1-0.4-0.2-0.5c-0.2-0.1-0.4-0.2-0.8-0.2h-1.5L-112.8-100.3z
			 M-112.3-103h1c0.4,0,0.8,0,1-0.1c0.2-0.1,0.3-0.2,0.4-0.3c0.1-0.1,0.1-0.3,0.1-0.5c0-0.2,0-0.3-0.1-0.4s-0.2-0.2-0.4-0.2
			c-0.1,0-0.3,0-0.7,0h-1L-112.3-103z"/>
		<path class="st8" d="M-108-99.3l1.3-6.3h4.7l-0.2,1.1h-3.4l-0.3,1.4h3.3l-0.2,1.1h-3.3l-0.4,1.7h3.7l-0.2,1.1H-108z"/>
		<path class="st8" d="M-97.1-99.3h-1.2l-1.7-4.2l-0.9,4.2h-1.2l1.3-6.3h1.2l1.7,4.2l0.9-4.2h1.2L-97.1-99.3z"/>
		<path class="st8" d="M-95.8-99.3l1.3-6.3h1.7c0.5,0,0.8,0,0.9,0c0.3,0,0.5,0.1,0.7,0.2c0.2,0.1,0.4,0.2,0.6,0.3s0.3,0.3,0.4,0.5
			s0.2,0.4,0.3,0.7c0.1,0.3,0.1,0.6,0.1,0.9c0,0.7-0.1,1.3-0.4,1.8c-0.3,0.5-0.6,0.9-1,1.3c-0.3,0.2-0.7,0.4-1.2,0.5
			c-0.3,0.1-0.7,0.1-1.2,0.1H-95.8z M-94.2-100.3h0.7c0.5,0,0.8,0,1-0.1c0.2-0.1,0.4-0.2,0.6-0.3c0.3-0.2,0.5-0.5,0.6-0.9
			c0.2-0.4,0.3-0.8,0.3-1.4c0-0.4-0.1-0.8-0.2-1s-0.3-0.4-0.5-0.4c-0.1-0.1-0.4-0.1-0.8-0.1h-0.8L-94.2-100.3z"/>
		<path class="st8" d="M-89.5-99.3l1.3-6.3h1.3l-1.3,6.3H-89.5z"/>
		<path class="st8" d="M-85.9-99.3h-1.7l2.8-3.2l-1.6-3.1h1.4l0.6,1.2c0,0,0.2,0.3,0.4,0.9c0,0,0,0.1,0.1,0.1c0.3-0.4,0.6-0.8,0.9-1
			l1-1.1h1.6l-2.9,3.3l1.5,3h-1.5l-0.5-0.9c-0.2-0.5-0.4-0.9-0.5-1.1c-0.1,0.2-0.4,0.5-0.9,1L-85.9-99.3z"/>
		<path class="st8" d="M-81.9-99.1l3.1-6.5h0.9l-3.1,6.5H-81.9z"/>
		<path class="st8" d="M-78.7-99.3l1.3-6.3h1.3l-0.6,2.7l2.9-2.7h1.7l-2.8,2.5l2.1,3.8h-1.5l-1.6-3l-1.2,1.1l-0.4,1.9H-78.7z"/>
		<path class="st8" d="M-72.4-99.3l1.3-6.3h1.3l-1.3,6.3H-72.4z"/>
		<path class="st8" d="M-64.9-99.3h-1.2l-1.7-4.2l-0.9,4.2h-1.2l1.3-6.3h1.2l1.7,4.2l0.9-4.2h1.2L-64.9-99.3z"/>
		<path class="st8" d="M-60-102.6h2.8l-0.6,2.7c-0.3,0.2-0.7,0.4-1.2,0.5c-0.5,0.1-1,0.2-1.5,0.2c-0.8,0-1.4-0.2-1.8-0.5
			c-0.6-0.5-0.9-1.2-0.9-2.1c0-0.6,0.1-1.2,0.4-1.8c0.3-0.7,0.7-1.2,1.2-1.6s1.2-0.6,1.9-0.6s1.3,0.2,1.7,0.5s0.7,0.8,0.9,1.5
			l-1.2,0.1c-0.1-0.4-0.3-0.6-0.5-0.8c-0.2-0.2-0.5-0.3-0.9-0.3c-0.4,0-0.8,0.1-1.2,0.3s-0.6,0.6-0.8,1c-0.2,0.5-0.3,1-0.3,1.5
			c0,0.5,0.1,0.9,0.4,1.2c0.2,0.3,0.6,0.4,1.1,0.4c0.3,0,0.6,0,0.9-0.1c0.3-0.1,0.5-0.2,0.8-0.3l0.2-0.9h-1.6L-60-102.6z"/>
	</g>
</g>
<g id="Outer_Knob_R" class="st0">
	<path class="st9" d="M442.9-16.5c0,17-13.8,30.9-30.9,30.9c-17.1,0-30.9-13.8-30.9-30.9c0-17.1,13.8-30.9,30.9-30.9
		C429.1-47.4,442.9-33.5,442.9-16.5z"/>
	<g class="st2">
		<g>
			<path class="st10" d="M443.8-16.5c0,17.5-14.2,31.7-31.7,31.7c-17.5,0-31.7-14.2-31.7-31.7c0-17.5,14.2-31.7,31.7-31.7
				C429.6-48.2,443.8-34,443.8-16.5z"/>
		</g>
	</g>
</g>
<g id="Inner_Knob_R" class="st0">
	<g class="st2">
		<circle class="st11" cx="412.1" cy="-16.5" r="20.8"/>
		<g>
			<path class="st12" d="M433.8-16.5c0,12-9.7,21.8-21.8,21.8s-21.8-9.7-21.8-21.8c0-12,9.7-21.8,21.8-21.8S433.8-28.5,433.8-16.5z"
				/>
		</g>
	</g>
</g>
<g id="BARO_Button">
	<path class="st13" d="M444.9-83.8c0,1.1-0.9,2-2,2h-28.1c-1.1,0-2-0.9-2-2v-14.8c0-1.1,0.9-2,2-2h28.1c1.1,0,2,0.9,2,2V-83.8z"/>
	<g>
		<path d="M414.8-86.8v-7.9h2.8c0.6,0,1,0.1,1.3,0.2c0.3,0.2,0.6,0.4,0.8,0.7s0.3,0.7,0.3,1.1c0,0.4-0.1,0.7-0.3,1
			c-0.2,0.3-0.4,0.5-0.8,0.7c0.4,0.1,0.8,0.4,1,0.7c0.2,0.3,0.4,0.7,0.4,1.2c0,0.5-0.1,0.9-0.3,1.3s-0.5,0.6-0.9,0.8
			s-0.9,0.2-1.5,0.2H414.8z M415.8-91.4h1.6c0.4,0,0.7,0,0.9-0.1c0.3-0.1,0.5-0.2,0.6-0.4c0.1-0.2,0.2-0.4,0.2-0.7
			c0-0.3-0.1-0.5-0.2-0.7c-0.1-0.2-0.3-0.3-0.5-0.4c-0.2-0.1-0.6-0.1-1.1-0.1h-1.5V-91.4z M415.8-87.8h1.9c0.4,0,0.7,0,0.9-0.1
			c0.3-0.1,0.5-0.2,0.6-0.5s0.2-0.5,0.2-0.8c0-0.3-0.1-0.5-0.2-0.8s-0.3-0.4-0.6-0.5s-0.6-0.1-1.1-0.1h-1.7V-87.8z"/>
		<path d="M421-86.8l2.9-7.9h1.1l3,7.9h-1.1l-0.9-2.4h-3.1l-0.8,2.4H421z M423.1-90.1h2.5l-0.8-2.2c-0.2-0.7-0.4-1.2-0.5-1.6
			c-0.1,0.5-0.2,1-0.4,1.5L423.1-90.1z"/>
		<path d="M428.7-86.8v-7.9h3.3c0.7,0,1.2,0.1,1.5,0.2c0.3,0.1,0.6,0.4,0.8,0.7s0.3,0.7,0.3,1.2c0,0.6-0.2,1.1-0.5,1.4
			c-0.4,0.4-0.9,0.6-1.6,0.7c0.3,0.1,0.5,0.3,0.6,0.4c0.3,0.3,0.6,0.6,0.8,1l1.3,2.1h-1.2l-1-1.6c-0.4-0.6-0.7-1.1-0.9-1.3
			s-0.4-0.4-0.6-0.4s-0.4-0.1-0.8-0.1h-1.1v3.5H428.7z M429.7-91.2h2.1c0.5,0,0.8,0,1.1-0.1s0.4-0.2,0.6-0.5
			c0.1-0.2,0.2-0.5,0.2-0.7c0-0.4-0.1-0.7-0.4-0.9s-0.7-0.3-1.2-0.3h-2.4V-91.2z"/>
		<path d="M436-90.7c0-1.3,0.3-2.4,1-3.1s1.5-1.1,2.5-1.1c0.7,0,1.3,0.2,1.8,0.5s1,0.8,1.3,1.4s0.5,1.3,0.5,2.2
			c0,1.2-0.3,2.1-0.9,2.9c-0.7,0.8-1.6,1.2-2.6,1.2c-1.1,0-2-0.4-2.7-1.2C436.3-88.7,436-89.6,436-90.7z M437-90.7
			c0,1,0.2,1.7,0.7,2.3c0.5,0.5,1.1,0.8,1.8,0.8c0.7,0,1.3-0.3,1.8-0.8c0.5-0.5,0.7-1.3,0.7-2.4c0-0.7-0.1-1.3-0.4-1.8
			c-0.2-0.4-0.5-0.7-0.9-1c-0.4-0.2-0.8-0.4-1.3-0.4c-0.7,0-1.4,0.3-1.8,0.8C437.2-92.6,437-91.8,437-90.7z"/>
	</g>
</g>
<g id="ARM_Button">
	<path class="st13" d="M385.9-83.8c0,1.1-0.9,2-2,2h-28.1c-1.1,0-2-0.9-2-2v-14.8c0-1.1,0.9-2,2-2h28.1c1.1,0,2,0.9,2,2V-83.8z"/>
	<g>
		<path d="M358.2-86.8l2.9-7.9h1.1l3,7.9h-1.1l-0.9-2.4h-3.1l-0.8,2.4H358.2z M360.4-90.1h2.5l-0.8-2.2c-0.2-0.7-0.4-1.2-0.5-1.6
			c-0.1,0.5-0.2,1-0.4,1.5L360.4-90.1z"/>
		<path d="M366-86.8v-7.9h3.3c0.7,0,1.2,0.1,1.5,0.2c0.3,0.1,0.6,0.4,0.8,0.7c0.2,0.3,0.3,0.7,0.3,1.2c0,0.6-0.2,1.1-0.5,1.4
			c-0.4,0.4-0.9,0.6-1.6,0.7c0.3,0.1,0.5,0.3,0.6,0.4c0.3,0.3,0.6,0.6,0.8,1l1.3,2.1h-1.2l-1-1.6c-0.4-0.6-0.7-1.1-0.9-1.3
			c-0.2-0.2-0.4-0.4-0.6-0.4c-0.2-0.1-0.4-0.1-0.8-0.1H367v3.5H366z M367-91.2h2.1c0.5,0,0.8,0,1.1-0.1c0.2-0.1,0.4-0.2,0.6-0.5
			c0.1-0.2,0.2-0.5,0.2-0.7c0-0.4-0.1-0.7-0.4-0.9c-0.3-0.2-0.7-0.3-1.2-0.3H367V-91.2z"/>
		<path d="M373.5-86.8v-7.9h1.5l1.8,5.6l0.4,1.2c0.1-0.3,0.2-0.7,0.4-1.3l1.8-5.5h1.3v7.9h-0.9v-6.6l-2.2,6.6h-0.9l-2.2-6.7v6.7
			H373.5z"/>
	</g>
</g>
<g id="DN_Button">
	<path class="st13" d="M348.9,13.2c0,1.1-0.9,2-2,2h-28.1c-1.1,0-2-0.9-2-2V-1.6c0-1.1,0.9-2,2-2h28.1c1.1,0,2,0.9,2,2V13.2z"/>
	<g>
		<path d="M326.1,10.2V2.3h2.6c0.6,0,1.1,0,1.4,0.1c0.4,0.1,0.8,0.4,1.1,0.7c0.3,0.3,0.6,0.8,0.7,1.3s0.3,1.1,0.3,1.8
			c0,0.9-0.2,1.6-0.5,2.3c-0.3,0.6-0.7,1.1-1.2,1.3s-1.1,0.4-1.9,0.4H326.1z M327.1,9.2h1.6c0.6,0,1.1-0.1,1.5-0.3
			c0.3-0.2,0.6-0.5,0.8-0.9c0.2-0.5,0.4-1.2,0.4-1.9c0-0.8-0.1-1.4-0.4-1.9c-0.3-0.5-0.6-0.8-1-0.9c-0.3-0.1-0.7-0.2-1.3-0.2h-1.6
			V9.2z"/>
		<path d="M333.6,10.2V2.3h1l3.9,6.2V2.3h0.9v7.9h-1L334.5,4v6.2H333.6z"/>
	</g>
</g>
<g id="UP_Button">
	<path class="st13" d="M348.9-34.7c0,1.1-0.9,2-2,2h-28.1c-1.1,0-2-0.9-2-2v-14.8c0-1.1,0.9-2,2-2h28.1c1.1,0,2,0.9,2,2V-34.7z"/>
	<g>
		<path d="M331.3-45.6h1v4.5c0,0.8-0.1,1.4-0.3,1.9c-0.2,0.5-0.5,0.9-0.9,1.2s-1,0.4-1.7,0.4c-1,0-1.7-0.3-2.2-0.8
			c-0.5-0.5-0.7-1.4-0.7-2.7v-4.5h1v4.5c0,0.7,0.1,1.2,0.2,1.5c0.1,0.3,0.3,0.6,0.6,0.7c0.3,0.2,0.6,0.3,1.1,0.3
			c0.7,0,1.2-0.2,1.5-0.5s0.5-1,0.5-2V-45.6z"/>
		<path d="M334-37.7v-7.9h2.8c0.7,0,1.1,0,1.5,0.2c0.4,0.1,0.8,0.4,1,0.8c0.3,0.4,0.4,0.8,0.4,1.4c0,0.7-0.2,1.3-0.6,1.7
			c-0.4,0.4-1.1,0.7-2.2,0.7H335v3.2H334z M335-41.9h1.9c0.6,0,1.1-0.1,1.3-0.4c0.3-0.2,0.4-0.6,0.4-1.1c0-0.3-0.1-0.6-0.2-0.8
			c-0.1-0.2-0.3-0.4-0.5-0.5c-0.2-0.1-0.6-0.1-1.1-0.1H335V-41.9z"/>
	</g>
</g>
<g id="ALT_Button">
	<path class="st13" d="M296.9,17.3c0,1.1-0.9,2-2,2h-28.1c-1.1,0-2-0.9-2-2V2.5c0-1.1,0.9-2,2-2h28.1c1.1,0,2,0.9,2,2V17.3z"/>
	<g>
		<path d="M271.7,14.3l2.9-7.9h1.1l3,7.9h-1.1l-0.9-2.4h-3.1l-0.8,2.4H271.7z M273.8,11h2.5l-0.8-2.2c-0.2-0.7-0.4-1.2-0.5-1.6
			c-0.1,0.5-0.2,1-0.4,1.5L273.8,11z"/>
		<path d="M279.4,14.3V6.4h1v6.9h3.7v0.9H279.4z"/>
		<path d="M286.4,14.3V7.3h-2.5V6.4h5.9v0.9h-2.5v6.9H286.4z"/>
	</g>
</g>
<g id="REV_Button">
	<path class="st13" d="M236.9,17.3c0,1.1-0.9,2-2,2h-28.1c-1.1,0-2-0.9-2-2V2.5c0-1.1,0.9-2,2-2h28.1c1.1,0,2,0.9,2,2V17.3z"/>
	<g>
		<path d="M210.9,14.3V6.4h3.3c0.7,0,1.2,0.1,1.5,0.2c0.3,0.1,0.6,0.4,0.8,0.7c0.2,0.3,0.3,0.7,0.3,1.2c0,0.6-0.2,1.1-0.5,1.4
			c-0.4,0.4-0.9,0.6-1.6,0.7c0.3,0.1,0.5,0.3,0.6,0.4c0.3,0.3,0.6,0.6,0.8,1l1.3,2.1h-1.2l-1-1.6c-0.4-0.6-0.7-1.1-0.9-1.3
			c-0.2-0.2-0.4-0.4-0.6-0.4s-0.4-0.1-0.8-0.1h-1.1v3.5H210.9z M211.9,9.9h2.1c0.5,0,0.8,0,1.1-0.1c0.2-0.1,0.4-0.2,0.6-0.5
			c0.1-0.2,0.2-0.5,0.2-0.7c0-0.4-0.1-0.7-0.4-0.9c-0.3-0.2-0.7-0.3-1.2-0.3h-2.4V9.9z"/>
		<path d="M218.4,14.3V6.4h5.4v0.9h-4.4v2.4h4.1v0.9h-4.1v2.7h4.6v0.9H218.4z"/>
		<path d="M227.5,14.3l-2.9-7.9h1.1l1.9,5.7c0.1,0.4,0.3,0.9,0.4,1.3c0.1-0.4,0.2-0.9,0.4-1.3l2-5.7h1l-2.9,7.9H227.5z"/>
	</g>
</g>
<g id="APR_Button">
	<path class="st13" d="M169.9,17.3c0,1.1-0.9,2-2,2h-28.1c-1.1,0-2-0.9-2-2V2.5c0-1.1,0.9-2,2-2h28.1c1.1,0,2,0.9,2,2V17.3z"/>
	<g>
		<path d="M143.1,14.3l2.9-7.9h1.1l3,7.9h-1.1l-0.9-2.4h-3.1l-0.8,2.4H143.1z M145.2,11h2.5L147,8.8c-0.2-0.7-0.4-1.2-0.5-1.6
			c-0.1,0.5-0.2,1-0.4,1.5L145.2,11z"/>
		<path d="M150.8,14.3V6.4h2.8c0.7,0,1.1,0,1.5,0.2c0.4,0.1,0.8,0.4,1,0.8c0.3,0.4,0.4,0.8,0.4,1.4c0,0.7-0.2,1.3-0.6,1.7
			c-0.4,0.4-1.1,0.7-2.2,0.7h-1.9v3.2H150.8z M151.8,10.1h1.9c0.6,0,1.1-0.1,1.3-0.4s0.4-0.6,0.4-1.1c0-0.3-0.1-0.6-0.2-0.8
			c-0.1-0.2-0.3-0.4-0.5-0.5c-0.2-0.1-0.6-0.1-1.1-0.1h-1.9V10.1z"/>
		<path d="M157.8,14.3V6.4h3.3c0.7,0,1.2,0.1,1.5,0.2c0.3,0.1,0.6,0.4,0.8,0.7s0.3,0.7,0.3,1.2c0,0.6-0.2,1.1-0.5,1.4
			c-0.4,0.4-0.9,0.6-1.6,0.7c0.3,0.1,0.5,0.3,0.6,0.4c0.3,0.3,0.6,0.6,0.8,1l1.3,2.1h-1.2l-1-1.6c-0.4-0.6-0.7-1.1-0.9-1.3
			s-0.4-0.4-0.6-0.4c-0.2-0.1-0.4-0.1-0.8-0.1h-1.1v3.5H157.8z M158.8,9.9h2.1c0.5,0,0.8,0,1.1-0.1c0.2-0.1,0.4-0.2,0.6-0.5
			c0.1-0.2,0.2-0.5,0.2-0.7c0-0.4-0.1-0.7-0.4-0.9s-0.7-0.3-1.2-0.3h-2.4V9.9z"/>
	</g>
</g>
<g id="Nav_Button">
	<path class="st13" d="M100.9,17.3c0,1.1-0.9,2-2,2H70.7c-1.1,0-2-0.9-2-2V2.5c0-1.1,0.9-2,2-2h28.1c1.1,0,2,0.9,2,2V17.3z"/>
	<g>
		<path d="M75.3,14.3V6.4h1l3.9,6.2V6.4h0.9v7.9h-1l-3.9-6.2v6.2H75.3z"/>
		<path d="M82,14.3l2.9-7.9h1.1l3,7.9h-1.1L87,11.9h-3.1L83,14.3H82z M84.1,11h2.5l-0.8-2.2c-0.2-0.7-0.4-1.2-0.5-1.6
			c-0.1,0.5-0.2,1-0.4,1.5L84.1,11z"/>
		<path d="M91.1,14.3l-2.9-7.9h1.1l1.9,5.7c0.1,0.4,0.3,0.9,0.4,1.3c0.1-0.4,0.2-0.9,0.4-1.3l2-5.7h1l-2.9,7.9H91.1z"/>
	</g>
</g>
<g id="HGD_Button">
	<path class="st13" d="M32.6,17.3c0,1.1-0.9,2-2,2H2.5c-1.1,0-2-0.9-2-2V2.5c0-1.1,0.9-2,2-2h28.1c1.1,0,2,0.9,2,2V17.3z"/>
	<g>
		<path d="M5.8,14.3V6.4h1v3.2h3.9V6.4h1v7.9h-1v-3.7H6.8v3.7H5.8z"/>
		<path d="M13.3,14.3V6.4h2.6c0.6,0,1.1,0,1.4,0.1c0.4,0.1,0.8,0.4,1.1,0.7C18.8,7.5,19,8,19.2,8.5c0.2,0.5,0.3,1.1,0.3,1.8
			c0,0.9-0.2,1.6-0.5,2.3c-0.3,0.6-0.7,1.1-1.2,1.3c-0.5,0.3-1.1,0.4-1.9,0.4H13.3z M14.3,13.3h1.6c0.6,0,1.1-0.1,1.5-0.3
			c0.3-0.2,0.6-0.5,0.8-0.9c0.2-0.5,0.4-1.2,0.4-1.9c0-0.8-0.1-1.4-0.4-1.9c-0.3-0.5-0.6-0.8-1-0.9c-0.3-0.1-0.7-0.2-1.3-0.2h-1.6
			V13.3z"/>
		<path d="M24.3,11.2v-0.9l3.2,0v2.9c-0.5,0.4-1,0.7-1.5,0.9s-1,0.3-1.6,0.3c-0.7,0-1.4-0.2-1.9-0.5s-1-0.8-1.4-1.4
			s-0.5-1.3-0.5-2.2c0-0.9,0.2-1.6,0.5-2.2s0.8-1.1,1.3-1.4c0.5-0.3,1.2-0.5,1.9-0.5c0.5,0,1,0.1,1.4,0.3c0.4,0.2,0.7,0.4,1,0.7
			s0.5,0.8,0.6,1.3l-0.9,0.3c-0.1-0.4-0.3-0.8-0.5-1c-0.2-0.2-0.4-0.4-0.7-0.5c-0.3-0.1-0.6-0.2-1-0.2c-0.5,0-1,0.1-1.4,0.3
			c-0.4,0.2-0.7,0.6-0.9,1.1c-0.2,0.5-0.4,1.1-0.4,1.8c0,1.1,0.3,1.8,0.8,2.4c0.5,0.5,1.2,0.8,2,0.8c0.4,0,0.8-0.1,1.2-0.2
			c0.4-0.2,0.7-0.4,1-0.6v-1.5H24.3z"/>
	</g>
</g>
<g id="AP_Button" class="st0">
	<path class="st14" d="M-71.3,18.3c0,1.1-0.9,2-2,2h-28.1c-1.1,0-2-0.9-2-2V3.5c0-1.1,0.9-2,2-2h28.1c1.1,0,2,0.9,2,2V18.3z"/>
	<g class="st2">
		<path d="M-94.9,15.3l2.9-7.9h1.1l3,7.9H-89l-0.9-2.4H-93l-0.8,2.4H-94.9z M-92.8,12h2.5L-91,9.8c-0.2-0.7-0.4-1.2-0.5-1.6
			c-0.1,0.5-0.2,1-0.4,1.5L-92.8,12z"/>
		<path d="M-87.1,15.3V7.4h2.8c0.7,0,1.1,0,1.5,0.2c0.4,0.1,0.8,0.4,1,0.8c0.3,0.4,0.4,0.8,0.4,1.4c0,0.7-0.2,1.3-0.6,1.7
			c-0.4,0.4-1.1,0.7-2.2,0.7h-1.9v3.2H-87.1z M-86.2,11.1h1.9c0.6,0,1.1-0.1,1.3-0.4s0.4-0.6,0.4-1.1c0-0.3-0.1-0.6-0.2-0.8
			c-0.1-0.2-0.3-0.4-0.5-0.5c-0.2-0.1-0.6-0.1-1.1-0.1h-1.9V11.1z"/>
	</g>
</g>
<g id="Text" class="st0">
	<g class="st2">
		<rect x="-33.7" y="-96.1" class="st5" width="65" height="25.3"/>
		<path class="st15" d="M-28.2-84.3l-1.1,9.2l-1,0.8l-0.8-1l1.1-9.2l1-0.8L-28.2-84.3z M-19.9-73.7l0.8,1l-1,0.8l-9.1-1.1l-0.8-1
			l1-0.8L-19.9-73.7z M-26.8-95.6l-1.1,9.2l-1,0.8l-0.8-1l1.1-9.2l1-0.8L-26.8-95.6z M-23.4-84.2l0.3,1.4l-3.9,7.1l-1.2,0.5
			l-0.3-1.5l3.9-7L-23.4-84.2z M-17.2-96.4l0.8,1l-1,0.8l-9.1-1.1l-0.8-1l1-0.8L-17.2-96.4z M-18.2-94.1l0.3,1.4l-3.9,7.1l-1.2,0.5
			l-0.3-1.5l3.9-7L-18.2-94.1z M-16.8-82.9l-1.1,9.2l-1,0.8l-0.8-1l1.1-9.2l1-0.8L-16.8-82.9z M-15.4-94.2l-1.1,9.2l-1,0.8l-0.8-1
			l1.1-9.2l1-0.8L-15.4-94.2z"/>
		<path class="st15" d="M-6.6-84.3l-1.1,9.2l-1,0.8l-0.8-1l1.1-9.2l1-0.8L-6.6-84.3z M1.7-73.7l0.8,1l-1,0.8l-9.1-1.1l-0.8-1l1-0.8
			L1.7-73.7z M-5.2-95.6l-1.1,9.2l-1,0.8l-0.8-1l1.1-9.2l1-0.8L-5.2-95.6z M-1.8-84.2l0.3,1.4l-3.9,7.1l-1.2,0.5L-7-76.7l3.9-7
			L-1.8-84.2z M4.4-96.4l0.8,1l-1,0.8L-5-95.7l-0.8-1l1-0.8L4.4-96.4z M3.4-94.1l0.3,1.4l-3.9,7.1l-1.2,0.5l-0.3-1.5l3.9-7L3.4-94.1
			z M4.8-82.9l-1.1,9.2l-1,0.8l-0.8-1L3-83.1l1-0.8L4.8-82.9z M6.2-94.2L5-85l-1,0.8l-0.8-1l1.1-9.2l1-0.8L6.2-94.2z"/>
		<path class="st15" d="M15.1-84.3l-1.1,9.2l-1,0.8l-0.8-1l1.1-9.2l1-0.8L15.1-84.3z M23.3-73.7l0.8,1l-1,0.8l-9.1-1.1l-0.8-1l1-0.8
			L23.3-73.7z M16.5-95.6l-1.1,9.2l-1,0.8l-0.8-1l1.1-9.2l1-0.8L16.5-95.6z M19.8-84.2l0.3,1.4l-3.9,7.1l-1.2,0.5l-0.3-1.5l3.9-7
			L19.8-84.2z M26-96.4l0.8,1l-1,0.8l-9.1-1.1l-0.8-1l1-0.8L26-96.4z M25-94.1l0.3,1.4l-3.9,7.1l-1.2,0.5l-0.3-1.5l3.9-7L25-94.1z
			 M26.4-82.9l-1.1,9.2l-1,0.8l-0.8-1l1.1-9.2l1-0.8L26.4-82.9z M27.8-94.2L26.7-85l-1,0.8l-0.8-1l1.1-9.2l1-0.8L27.8-94.2z"/>
	</g>
	<g class="st2">
		<rect x="-35.7" y="-62.1" class="st5" width="65" height="25.3"/>
		<path class="st15" d="M-32-61.1v9.3l-0.9,0.9l-0.9-0.9v-9.3l0.9-0.9L-32-61.1z M-32-49.6v9.3l-0.9,0.9l-0.9-0.9v-9.3l0.9-0.9
			L-32-49.6z M-22.6-63.1l0.9,0.9l-0.9,0.9h-9.2l-0.9-0.9l0.9-0.9H-22.6z M-22.5-40.2l0.9,0.9l-0.9,0.9h-9.2l-0.9-0.9l0.9-0.9H-22.5
			z M-27.3-50.1l0.5,1.3l-3,7.5l-1.2,0.6l-0.5-1.4l3-7.4L-27.3-50.1z M-23.3-60.6l0.5,1.3l-3,7.5l-1.2,0.6l-0.5-1.4l3-7.4
			L-23.3-60.6z M-20.6-61.1v9.3l-0.9,0.9l-0.9-0.9v-9.3l0.9-0.9L-20.6-61.1z M-20.6-49.6v9.3l-0.9,0.9l-0.9-0.9v-9.3l0.9-0.9
			L-20.6-49.6z"/>
		<path class="st15" d="M-9.1-61.1v9.3l-0.9,0.9l-0.9-0.9v-9.3l0.9-0.9L-9.1-61.1z M-9.1-49.6v9.3l-0.9,0.9l-0.9-0.9v-9.3l0.9-0.9
			L-9.1-49.6z M0.3-63.1l0.9,0.9l-0.9,0.9h-9.2l-0.9-0.9l0.9-0.9H0.3z M0.3-40.2l0.9,0.9l-0.9,0.9h-9.2l-0.9-0.9l0.9-0.9H0.3z
			 M-4.4-50.1l0.5,1.3l-3,7.5l-1.2,0.6l-0.5-1.4l3-7.4L-4.4-50.1z M-0.4-60.6L0-59.3l-3,7.5l-1.2,0.6l-0.5-1.4l3-7.4L-0.4-60.6z
			 M2.3-61.1v9.3l-0.9,0.9l-0.9-0.9v-9.3l0.9-0.9L2.3-61.1z M2.3-49.6v9.3l-0.9,0.9l-0.9-0.9v-9.3l0.9-0.9L2.3-49.6z"/>
		<path class="st15" d="M13.7-61.1v9.3l-0.9,0.9L12-51.8v-9.3l0.9-0.9L13.7-61.1z M13.7-49.6v9.3l-0.9,0.9L12-40.4v-9.3l0.9-0.9
			L13.7-49.6z M23.2-63.1l0.9,0.9l-0.9,0.9h-9.2L13-62.1l0.9-0.9H23.2z M23.2-40.2l0.9,0.9l-0.9,0.9H14l-0.9-0.9l0.9-0.9H23.2z
			 M18.4-50.1l0.5,1.3l-3,7.5l-1.2,0.6l-0.5-1.4l3-7.4L18.4-50.1z M22.4-60.6l0.5,1.3l-3,7.5l-1.2,0.6l-0.5-1.4l3-7.4L22.4-60.6z
			 M25.2-61.1v9.3l-0.9,0.9l-0.9-0.9v-9.3l0.9-0.9L25.2-61.1z M25.2-49.6v9.3l-0.9,0.9l-0.9-0.9v-9.3l0.9-0.9L25.2-49.6z"/>
	</g>
	<g class="st2">
		<rect x="74.3" y="-96.1" class="st5" width="65" height="25.3"/>
		<path class="st15" d="M79.8-84.3l-1.1,9.2l-1,0.8l-0.8-1l1.1-9.2l1-0.8L79.8-84.3z M88.1-73.7l0.8,1l-1,0.8l-9.1-1.1l-0.8-1l1-0.8
			L88.1-73.7z M81.2-95.6l-1.1,9.2l-1,0.8l-0.8-1l1.1-9.2l1-0.8L81.2-95.6z M84.6-84.2l0.3,1.4l-3.9,7.1l-1.2,0.5l-0.3-1.5l3.9-7
			L84.6-84.2z M90.8-96.4l0.8,1l-1,0.8l-9.1-1.1l-0.8-1l1-0.8L90.8-96.4z M89.8-94.1l0.3,1.4l-3.9,7.1l-1.2,0.5l-0.3-1.5l3.9-7
			L89.8-94.1z M91.2-82.9L90-73.7l-1,0.8l-0.8-1l1.1-9.2l1-0.8L91.2-82.9z M92.6-94.2L91.4-85l-1,0.8l-0.8-1l1.1-9.2l1-0.8
			L92.6-94.2z"/>
		<path class="st15" d="M101.4-84.3l-1.1,9.2l-1,0.8l-0.8-1l1.1-9.2l1-0.8L101.4-84.3z M109.7-73.7l0.8,1l-1,0.8l-9.1-1.1l-0.8-1
			l1-0.8L109.7-73.7z M102.8-95.6l-1.1,9.2l-1,0.8l-0.8-1l1.1-9.2l1-0.8L102.8-95.6z M106.2-84.2l0.3,1.4l-3.9,7.1l-1.2,0.5
			l-0.3-1.5l3.9-7L106.2-84.2z M112.4-96.4l0.8,1l-1,0.8l-9.1-1.1l-0.8-1l1-0.8L112.4-96.4z M111.4-94.1l0.3,1.4l-3.9,7.1l-1.2,0.5
			l-0.3-1.5l3.9-7L111.4-94.1z M112.8-82.9l-1.1,9.2l-1,0.8l-0.8-1l1.1-9.2l1-0.8L112.8-82.9z M114.2-94.2L113-85l-1,0.8l-0.8-1
			l1.1-9.2l1-0.8L114.2-94.2z"/>
		<path class="st15" d="M123.1-84.3l-1.1,9.2l-1,0.8l-0.8-1l1.1-9.2l1-0.8L123.1-84.3z M131.3-73.7l0.8,1l-1,0.8l-9.1-1.1l-0.8-1
			l1-0.8L131.3-73.7z M124.5-95.6l-1.1,9.2l-1,0.8l-0.8-1l1.1-9.2l1-0.8L124.5-95.6z M127.8-84.2l0.3,1.4l-3.9,7.1l-1.2,0.5
			l-0.3-1.5l3.9-7L127.8-84.2z M134-96.4l0.8,1l-1,0.8l-9.1-1.1l-0.8-1l1-0.8L134-96.4z M133-94.1l0.3,1.4l-3.9,7.1l-1.2,0.5
			l-0.3-1.5l3.9-7L133-94.1z M134.4-82.9l-1.1,9.2l-1,0.8l-0.8-1l1.1-9.2l1-0.8L134.4-82.9z M135.8-94.2l-1.1,9.2l-1,0.8l-0.8-1
			l1.1-9.2l1-0.8L135.8-94.2z"/>
	</g>
	<g class="st2">
		<rect x="72.3" y="-62.1" class="st5" width="65" height="25.3"/>
		<path class="st15" d="M76-61.1v9.3l-0.9,0.9l-0.9-0.9v-9.3l0.9-0.9L76-61.1z M76-49.6v9.3l-0.9,0.9l-0.9-0.9v-9.3l0.9-0.9L76-49.6
			z M85.4-63.1l0.9,0.9l-0.9,0.9h-9.2l-0.9-0.9l0.9-0.9H85.4z M85.5-40.2l0.9,0.9l-0.9,0.9h-9.2l-0.9-0.9l0.9-0.9H85.5z M80.7-50.1
			l0.5,1.3l-3,7.5L77-40.6l-0.5-1.4l3-7.4L80.7-50.1z M84.7-60.6l0.5,1.3l-3,7.5L81-51.1l-0.5-1.4l3-7.4L84.7-60.6z M87.4-61.1v9.3
			l-0.9,0.9l-0.9-0.9v-9.3l0.9-0.9L87.4-61.1z M87.4-49.6v9.3l-0.9,0.9l-0.9-0.9v-9.3l0.9-0.9L87.4-49.6z"/>
		<path class="st15" d="M98.9-61.1v9.3L98-50.9l-0.9-0.9v-9.3l0.9-0.9L98.9-61.1z M98.9-49.6v9.3L98-39.5l-0.9-0.9v-9.3l0.9-0.9
			L98.9-49.6z M108.3-63.1l0.9,0.9l-0.9,0.9h-9.2l-0.9-0.9l0.9-0.9H108.3z M108.3-40.2l0.9,0.9l-0.9,0.9h-9.2l-0.9-0.9l0.9-0.9
			H108.3z M103.6-50.1l0.5,1.3l-3,7.5l-1.2,0.6l-0.5-1.4l3-7.4L103.6-50.1z M107.6-60.6l0.5,1.3l-3,7.5l-1.2,0.6l-0.5-1.4l3-7.4
			L107.6-60.6z M110.3-61.1v9.3l-0.9,0.9l-0.9-0.9v-9.3l0.9-0.9L110.3-61.1z M110.3-49.6v9.3l-0.9,0.9l-0.9-0.9v-9.3l0.9-0.9
			L110.3-49.6z"/>
		<path class="st15" d="M121.7-61.1v9.3l-0.9,0.9l-0.9-0.9v-9.3l0.9-0.9L121.7-61.1z M121.7-49.6v9.3l-0.9,0.9l-0.9-0.9v-9.3
			l0.9-0.9L121.7-49.6z M131.2-63.1l0.9,0.9l-0.9,0.9h-9.2l-0.9-0.9l0.9-0.9H131.2z M131.2-40.2l0.9,0.9l-0.9,0.9H122l-0.9-0.9
			l0.9-0.9H131.2z M126.4-50.1l0.5,1.3l-3,7.5l-1.2,0.6l-0.5-1.4l3-7.4L126.4-50.1z M130.4-60.6l0.5,1.3l-3,7.5l-1.2,0.6l-0.5-1.4
			l3-7.4L130.4-60.6z M133.2-61.1v9.3l-0.9,0.9l-0.9-0.9v-9.3l0.9-0.9L133.2-61.1z M133.2-49.6v9.3l-0.9,0.9l-0.9-0.9v-9.3l0.9-0.9
			L133.2-49.6z"/>
	</g>
	<g class="st2">
		<rect x="184.1" y="-96.1" class="st5" width="111.2" height="25.3"/>
		<path class="st15" d="M189.6-84.3l-1.1,9.2l-1,0.8l-0.8-1l1.1-9.2l1-0.8L189.6-84.3z M197.8-73.7l0.8,1l-1,0.8l-9.1-1.1l-0.8-1
			l1-0.8L197.8-73.7z M191-95.6l-1.1,9.2l-1,0.8l-0.8-1l1.1-9.2l1-0.8L191-95.6z M194.3-84.2l0.3,1.4l-3.9,7.1l-1.2,0.5l-0.3-1.5
			l3.9-7L194.3-84.2z M200.6-96.4l0.8,1l-1,0.8l-9.1-1.1l-0.8-1l1-0.8L200.6-96.4z M199.6-94.1l0.3,1.4l-3.9,7.1l-1.2,0.5l-0.3-1.5
			l3.9-7L199.6-94.1z M200.9-82.9l-1.1,9.2l-1,0.8l-0.8-1l1.1-9.2l1-0.8L200.9-82.9z M202.3-94.2l-1.1,9.2l-1,0.8l-0.8-1l1.1-9.2
			l1-0.8L202.3-94.2z"/>
		<path class="st15" d="M211.2-84.3l-1.1,9.2l-1,0.8l-0.8-1l1.1-9.2l1-0.8L211.2-84.3z M219.4-73.7l0.8,1l-1,0.8l-9.1-1.1l-0.8-1
			l1-0.8L219.4-73.7z M212.6-95.6l-1.1,9.2l-1,0.8l-0.8-1l1.1-9.2l1-0.8L212.6-95.6z M215.9-84.2l0.3,1.4l-3.9,7.1l-1.2,0.5
			l-0.3-1.5l3.9-7L215.9-84.2z M222.2-96.4l0.8,1l-1,0.8l-9.1-1.1l-0.8-1l1-0.8L222.2-96.4z M221.2-94.1l0.3,1.4l-3.9,7.1l-1.2,0.5
			l-0.3-1.5l3.9-7L221.2-94.1z M222.5-82.9l-1.1,9.2l-1,0.8l-0.8-1l1.1-9.2l1-0.8L222.5-82.9z M223.9-94.2l-1.1,9.2l-1,0.8l-0.8-1
			l1.1-9.2l1-0.8L223.9-94.2z"/>
		<path class="st15" d="M232.8-84.3l-1.1,9.2l-1,0.8l-0.8-1l1.1-9.2l1-0.8L232.8-84.3z M241.1-73.7l0.8,1l-1,0.8l-9.1-1.1l-0.8-1
			l1-0.8L241.1-73.7z M234.2-95.6l-1.1,9.2l-1,0.8l-0.8-1l1.1-9.2l1-0.8L234.2-95.6z M237.5-84.2l0.3,1.4l-3.9,7.1l-1.2,0.5
			l-0.3-1.5l3.9-7L237.5-84.2z M243.8-96.4l0.8,1l-1,0.8l-9.1-1.1l-0.8-1l1-0.8L243.8-96.4z M242.8-94.1l0.3,1.4l-3.9,7.1l-1.2,0.5
			l-0.3-1.5l3.9-7L242.8-94.1z M244.2-82.9l-1.1,9.2l-1,0.8l-0.8-1l1.1-9.2l1-0.8L244.2-82.9z M245.5-94.2l-1.1,9.2l-1,0.8l-0.8-1
			l1.1-9.2l1-0.8L245.5-94.2z"/>
		<path class="st15" d="M254.4-84.3l-1.1,9.2l-1,0.8l-0.8-1l1.1-9.2l1-0.8L254.4-84.3z M262.7-73.7l0.8,1l-1,0.8l-9.1-1.1l-0.8-1
			l1-0.8L262.7-73.7z M255.8-95.6l-1.1,9.2l-1,0.8l-0.8-1l1.1-9.2l1-0.8L255.8-95.6z M259.2-84.2l0.3,1.4l-3.9,7.1l-1.2,0.5
			l-0.3-1.5l3.9-7L259.2-84.2z M265.4-96.4l0.8,1l-1,0.8l-9.1-1.1l-0.8-1l1-0.8L265.4-96.4z M264.4-94.1l0.3,1.4l-3.9,7.1l-1.2,0.5
			l-0.3-1.5l3.9-7L264.4-94.1z M265.8-82.9l-1.1,9.2l-1,0.8l-0.8-1l1.1-9.2l1-0.8L265.8-82.9z M267.2-94.2L266-85l-1,0.8l-0.8-1
			l1.1-9.2l1-0.8L267.2-94.2z"/>
		<path class="st15" d="M276-84.3l-1.1,9.2l-1,0.8l-0.8-1l1.1-9.2l1-0.8L276-84.3z M284.3-73.7l0.8,1l-1,0.8l-9.1-1.1l-0.8-1l1-0.8
			L284.3-73.7z M277.4-95.6l-1.1,9.2l-1,0.8l-0.8-1l1.1-9.2l1-0.8L277.4-95.6z M280.8-84.2l0.3,1.4l-3.9,7.1l-1.2,0.5l-0.3-1.5
			l3.9-7L280.8-84.2z M287-96.4l0.8,1l-1,0.8l-9.1-1.1l-0.8-1l1-0.8L287-96.4z M286-94.1l0.3,1.4l-3.9,7.1l-1.2,0.5l-0.3-1.5l3.9-7
			L286-94.1z M287.4-82.9l-1.1,9.2l-1,0.8l-0.8-1l1.1-9.2l1-0.8L287.4-82.9z M288.8-94.2l-1.1,9.2l-1,0.8l-0.8-1l1.1-9.2l1-0.8
			L288.8-94.2z"/>
	</g>
</g>
<g id="R_Flag" class="st0">
	<g class="st2">
		<rect x="-81.8" y="-19.6" class="st5" width="12.6" height="13.5"/>
		<path class="st16" d="M-80.9-11v-8.6h3.7c0.9,0,1.6,0.1,2,0.2s0.7,0.4,1,0.8s0.4,0.8,0.4,1.4c0,0.6-0.2,1.2-0.6,1.6
			c-0.4,0.4-0.9,0.7-1.7,0.8c0.4,0.2,0.7,0.5,0.9,0.7s0.6,0.7,1,1.4l1,1.7h-2.1l-1.3-1.9c-0.4-0.7-0.8-1.1-0.9-1.3s-0.3-0.3-0.5-0.4
			s-0.5-0.1-0.9-0.1h-0.4v3.6H-80.9z M-79.2-16h1.3c0.8,0,1.4,0,1.6-0.1s0.4-0.2,0.5-0.4s0.2-0.4,0.2-0.6c0-0.3-0.1-0.5-0.2-0.7
			s-0.4-0.3-0.7-0.3c-0.1,0-0.6,0-1.3,0h-1.4V-16z"/>
	</g>
</g>
<g id="P_Flag" class="st0">
	<g class="st2">
		<rect x="-100.7" y="-19.6" class="st5" width="10" height="13.5"/>
		<path class="st16" d="M-99.8-11v-8.6h2.8c1.1,0,1.7,0,2.1,0.1c0.5,0.1,0.9,0.4,1.2,0.8s0.5,1,0.5,1.7c0,0.5-0.1,1-0.3,1.3
			c-0.2,0.4-0.4,0.6-0.7,0.8s-0.6,0.3-0.9,0.4c-0.4,0.1-1,0.1-1.8,0.1H-98v3.2H-99.8z M-98-18.2v2.4h0.9c0.7,0,1.1,0,1.4-0.1
			s0.4-0.2,0.5-0.4S-95-16.7-95-17c0-0.3-0.1-0.6-0.3-0.8s-0.4-0.3-0.7-0.4c-0.2,0-0.6-0.1-1.2-0.1H-98z"/>
	</g>
</g>
<g id="L_Arm_Flag" class="st0">
	<g class="st2">
		<rect x="33.3" y="-72.5" class="st5" width="9" height="37.5"/>
		<path class="st15" d="M34.8-63.1l3-7.9h1.1l3.2,7.9H41L40-65.4h-3.3l-0.9,2.4H34.8z M37-66.3h2.7l-0.8-2.2
			c-0.3-0.7-0.4-1.2-0.6-1.6c-0.1,0.5-0.2,1-0.4,1.5L37-66.3z"/>
		<path class="st15" d="M35.4-50.4v-7.9h3.5c0.7,0,1.2,0.1,1.6,0.2c0.4,0.1,0.7,0.4,0.9,0.7s0.3,0.8,0.3,1.2c0,0.6-0.2,1-0.5,1.4
			s-0.9,0.6-1.7,0.7c0.3,0.1,0.5,0.3,0.6,0.4c0.3,0.3,0.6,0.6,0.9,1l1.4,2.1H41l-1-1.6c-0.3-0.5-0.6-0.8-0.8-1.1
			c-0.2-0.3-0.4-0.4-0.5-0.5c-0.2-0.1-0.3-0.2-0.5-0.2c-0.1,0-0.3,0-0.6,0h-1.2v3.5H35.4z M36.4-54.8h2.2c0.5,0,0.8,0,1.1-0.1
			c0.3-0.1,0.5-0.3,0.6-0.5c0.1-0.2,0.2-0.5,0.2-0.7c0-0.4-0.1-0.7-0.4-0.9s-0.7-0.4-1.3-0.4h-2.5V-54.8z"/>
		<path class="st15" d="M34.7-37.7v-7.9h1.6l1.9,5.6c0.2,0.5,0.3,0.9,0.4,1.2c0.1-0.3,0.2-0.7,0.4-1.3l1.9-5.5h1.4v7.9h-1v-6.6
			l-2.3,6.6H38l-2.3-6.7v6.7H34.7z"/>
	</g>
</g>
<g id="R_Arm_Flag" class="st0">
	<g class="st2">
		<rect x="138.3" y="-73.2" class="st5" width="9" height="37.5"/>
		<path class="st15" d="M139.8-63.8l3-7.9h1.1l3.2,7.9H146l-0.9-2.4h-3.3l-0.9,2.4H139.8z M142-67h2.7l-0.8-2.2
			c-0.3-0.7-0.4-1.2-0.6-1.6c-0.1,0.5-0.2,1-0.4,1.5L142-67z"/>
		<path class="st15" d="M140.4-51.1V-59h3.5c0.7,0,1.2,0.1,1.6,0.2c0.4,0.1,0.7,0.4,0.9,0.7s0.3,0.8,0.3,1.2c0,0.6-0.2,1-0.5,1.4
			s-0.9,0.6-1.7,0.7c0.3,0.1,0.5,0.3,0.6,0.4c0.3,0.3,0.6,0.6,0.9,1l1.4,2.1H146l-1-1.6c-0.3-0.5-0.6-0.8-0.8-1.1
			c-0.2-0.3-0.4-0.4-0.5-0.5c-0.2-0.1-0.3-0.2-0.5-0.2c-0.1,0-0.3,0-0.6,0h-1.2v3.5H140.4z M141.4-55.5h2.2c0.5,0,0.8,0,1.1-0.1
			c0.3-0.1,0.5-0.3,0.6-0.5c0.1-0.2,0.2-0.5,0.2-0.7c0-0.4-0.1-0.7-0.4-0.9s-0.7-0.4-1.3-0.4h-2.5V-55.5z"/>
		<path class="st15" d="M139.7-38.4v-7.9h1.6l1.9,5.6c0.2,0.5,0.3,0.9,0.4,1.2c0.1-0.3,0.2-0.7,0.4-1.3l1.9-5.5h1.4v7.9h-1V-45
			l-2.3,6.6H143l-2.3-6.7v6.7H139.7z"/>
	</g>
</g>
<g id="PT_Down" class="st0">
	<polygon class="st17" points="160,-50.4 164.1,-39.8 168.2,-50.4 	"/>
</g>
<g id="PT_Up" class="st0">
	<polygon class="st17" points="160,-83.5 164.1,-94.1 168.2,-83.5 	"/>
</g>
<g id="PT_Flag" class="st0">
	<g class="st2">
		<rect x="158.8" y="-79.5" class="st5" width="9" height="26.7"/>
		<path class="st15" d="M161.1-70v-7.9h3c0.5,0,0.9,0,1.2,0.1c0.4,0.1,0.7,0.2,1,0.4c0.3,0.2,0.5,0.4,0.6,0.8s0.2,0.7,0.2,1.1
			c0,0.7-0.2,1.2-0.6,1.7c-0.4,0.5-1.2,0.7-2.3,0.7h-2v3.2H161.1z M162.2-74.2h2c0.7,0,1.2-0.1,1.4-0.4s0.4-0.6,0.4-1.1
			c0-0.3-0.1-0.6-0.3-0.8c-0.2-0.2-0.4-0.4-0.7-0.5c-0.2,0-0.5-0.1-1-0.1h-2V-74.2z"/>
		<path class="st15" d="M163.4-57.4v-6.9h-2.6v-0.9h6.2v0.9h-2.6v6.9H163.4z"/>
	</g>
</g>
<g id="FPM_Flag" class="st0">
	<g class="st2">
		<rect x="240.3" y="-62.9" class="st5" width="26.8" height="8.4"/>
		<path class="st15" d="M241.2-55v-7.9h5.3v0.9h-4.3v2.4h3.7v0.9h-3.7v3.6H241.2z"/>
		<path class="st15" d="M249.6-55v-7.9h3c0.5,0,0.9,0,1.2,0.1c0.4,0.1,0.7,0.2,1,0.4c0.3,0.2,0.5,0.4,0.6,0.8s0.2,0.7,0.2,1.1
			c0,0.7-0.2,1.2-0.6,1.7c-0.4,0.5-1.2,0.7-2.3,0.7h-2v3.2H249.6z M250.6-59.1h2c0.7,0,1.2-0.1,1.4-0.4s0.4-0.6,0.4-1.1
			c0-0.3-0.1-0.6-0.3-0.8c-0.2-0.2-0.4-0.4-0.7-0.5c-0.2,0-0.5-0.1-1-0.1h-2V-59.1z"/>
		<path class="st15" d="M258.5-55v-7.9h1.6l1.9,5.6c0.2,0.5,0.3,0.9,0.4,1.2c0.1-0.3,0.2-0.7,0.4-1.3l1.9-5.5h1.4v7.9h-1v-6.6
			l-2.3,6.6h-0.9l-2.3-6.7v6.7H258.5z"/>
	</g>
</g>
<g id="ALERT_Flag" class="st0">
	<g class="st2">
		<rect x="185.6" y="-62.9" class="st5" width="43.8" height="8.4"/>
		<path class="st15" d="M185.6-55l3-7.9h1.1l3.2,7.9h-1.2l-0.9-2.4h-3.3l-0.9,2.4H185.6z M187.8-58.2h2.7l-0.8-2.2
			c-0.3-0.7-0.4-1.2-0.6-1.6c-0.1,0.5-0.2,1-0.4,1.5L187.8-58.2z"/>
		<path class="st15" d="M195.4-55v-7.9h1v6.9h3.9v0.9H195.4z"/>
		<path class="st15" d="M203.2-55v-7.9h5.7v0.9h-4.7v2.4h4.4v0.9h-4.4v2.7h4.8v0.9H203.2z"/>
		<path class="st15" d="M212.2-55v-7.9h3.5c0.7,0,1.2,0.1,1.6,0.2c0.4,0.1,0.7,0.4,0.9,0.7s0.3,0.8,0.3,1.2c0,0.6-0.2,1-0.5,1.4
			s-0.9,0.6-1.7,0.7c0.3,0.1,0.5,0.3,0.6,0.4c0.3,0.3,0.6,0.6,0.9,1l1.4,2.1h-1.3l-1-1.6c-0.3-0.5-0.6-0.8-0.8-1.1
			c-0.2-0.3-0.4-0.4-0.5-0.5c-0.2-0.1-0.3-0.2-0.5-0.2c-0.1,0-0.3,0-0.6,0h-1.2v3.5H212.2z M213.3-59.4h2.2c0.5,0,0.8,0,1.1-0.1
			c0.3-0.1,0.5-0.3,0.6-0.5c0.1-0.2,0.2-0.5,0.2-0.7c0-0.4-0.1-0.7-0.4-0.9s-0.7-0.4-1.3-0.4h-2.5V-59.4z"/>
		<path class="st15" d="M223.6-55v-6.9H221v-0.9h6.2v0.9h-2.6v6.9H223.6z"/>
	</g>
</g>
<g id="HPA_Flag" class="st0">
	<g class="st2">
		<rect x="201.3" y="-49.3" class="st5" width="25.8" height="8.4"/>
		<path class="st15" d="M202.2-41.4v-7.9h1v3.2h4.1v-3.2h1v7.9h-1v-3.7h-4.1v3.7H202.2z"/>
		<path class="st15" d="M211.7-41.4v-7.9h3c0.5,0,0.9,0,1.2,0.1c0.4,0.1,0.7,0.2,1,0.4c0.3,0.2,0.5,0.4,0.6,0.8s0.2,0.7,0.2,1.1
			c0,0.7-0.2,1.2-0.6,1.7c-0.4,0.5-1.2,0.7-2.3,0.7h-2v3.2H211.7z M212.8-45.5h2c0.7,0,1.2-0.1,1.4-0.4s0.4-0.6,0.4-1.1
			c0-0.3-0.1-0.6-0.3-0.8c-0.2-0.2-0.4-0.4-0.7-0.5c-0.2,0-0.5-0.1-1-0.1h-2V-45.5z"/>
		<path class="st15" d="M219.1-41.4l3-7.9h1.1l3.2,7.9h-1.2l-0.9-2.4H221l-0.9,2.4H219.1z M221.3-44.6h2.7l-0.8-2.2
			c-0.3-0.7-0.4-1.2-0.6-1.6c-0.1,0.5-0.2,1-0.4,1.5L221.3-44.6z"/>
	</g>
</g>
<g id="IN_HG_Flag" class="st0">
	<g class="st2">
		<rect x="253.7" y="-49.3" class="st5" width="15.8" height="8.4"/>
		<path class="st15" d="M254.7-41.4v-7.9h1v7.9H254.7z"/>
		<path class="st15" d="M259.3-41.4v-7.9h1.1l4.1,6.2v-6.2h1v7.9h-1.1l-4.1-6.2v6.2H259.3z"/>
	</g>
	<g class="st2">
		<rect x="272.8" y="-49.3" class="st5" width="19.7" height="8.4"/>
		<path class="st15" d="M273.7-41.4v-7.9h1v3.2h4.1v-3.2h1v7.9h-1v-3.7h-4.1v3.7H273.7z"/>
		<path class="st15" d="M287-44.5v-0.9l3.3,0v2.9c-0.5,0.4-1,0.7-1.6,0.9c-0.5,0.2-1.1,0.3-1.7,0.3c-0.8,0-1.5-0.2-2.1-0.5
			c-0.6-0.3-1.1-0.8-1.4-1.4s-0.5-1.3-0.5-2.1c0-0.8,0.2-1.5,0.5-2.1c0.3-0.7,0.8-1.2,1.4-1.5s1.3-0.5,2.1-0.5
			c0.6,0,1.1,0.1,1.5,0.3c0.5,0.2,0.8,0.4,1.1,0.8s0.5,0.8,0.6,1.3l-0.9,0.3c-0.1-0.4-0.3-0.7-0.4-0.9s-0.4-0.4-0.8-0.6
			c-0.3-0.1-0.7-0.2-1.1-0.2c-0.5,0-0.9,0.1-1.2,0.2c-0.3,0.1-0.6,0.3-0.8,0.6s-0.4,0.5-0.5,0.8c-0.2,0.5-0.3,1-0.3,1.6
			c0,0.7,0.1,1.3,0.4,1.8c0.2,0.5,0.6,0.8,1.1,1.1c0.5,0.2,1,0.3,1.5,0.3c0.5,0,0.9-0.1,1.3-0.3c0.4-0.2,0.8-0.4,1-0.6v-1.5H287z"/>
	</g>
</g>
<g id="FT_Flag" class="st0">
	<g class="st2">
		<rect x="272.8" y="-62.9" class="st5" width="15.8" height="8.4"/>
		<path class="st15" d="M273.7-55v-7.9h5.3v0.9h-4.3v2.4h3.7v0.9h-3.7v3.6H273.7z"/>
		<path class="st15" d="M284.1-55v-6.9h-2.6v-0.9h6.2v0.9h-2.6v6.9H284.1z"/>
	</g>
</g>
<g id="AP_Flag" class="st0">
	<g class="st2">
		<rect x="49.1" y="-91.9" class="st5" width="16.8" height="8.4"/>
		<path class="st15" d="M49.1-84l3-7.9h1.1l3.2,7.9h-1.2l-0.9-2.4H51L50.2-84H49.1z M51.3-87.2H54l-0.8-2.2
			c-0.3-0.7-0.4-1.2-0.6-1.6c-0.1,0.5-0.2,1-0.4,1.5L51.3-87.2z"/>
		<path class="st15" d="M58.9-84v-7.9h3c0.5,0,0.9,0,1.2,0.1c0.4,0.1,0.7,0.2,1,0.4c0.3,0.2,0.5,0.4,0.6,0.8s0.2,0.7,0.2,1.1
			c0,0.7-0.2,1.2-0.6,1.7c-0.4,0.5-1.2,0.7-2.3,0.7h-2v3.2H58.9z M60-88.1h2c0.7,0,1.2-0.1,1.4-0.4s0.4-0.6,0.4-1.1
			c0-0.3-0.1-0.6-0.3-0.8c-0.2-0.2-0.4-0.4-0.7-0.5c-0.2,0-0.5-0.1-1-0.1h-2V-88.1z"/>
	</g>
	<polygon class="st17" points="65.6,-94.1 48.7,-94.1 47.2,-95.6 66.9,-95.6 	"/>
	<polygon class="st17" points="65.9,-81 49,-81 47.5,-79.5 67.2,-79.5 	"/>
	<polygon class="st17" points="66.6,-93.6 66.6,-81.7 68.1,-80.7 68.1,-94.6 	"/>
	<polygon class="st17" points="47.7,-93.6 47.7,-81.7 46.2,-80.7 46.2,-94.6 	"/>
</g>
</svg>
