<?xml version="1.0" encoding="utf-8"?>
<!-- Generator: Adobe Illustrator 19.0.0, SVG Export Plug-In . SVG Version: 6.00 Build 0)  -->
<svg version="1.1" xmlns="http://www.w3.org/2000/svg" xmlns:xlink="http://www.w3.org/1999/xlink" x="0px" y="0px"
	 viewBox="0 0 33.1 19.8" style="enable-background:new 0 0 33.1 19.8;" xml:space="preserve">
<style type="text/css">
	.st0{display:none;}
	.st1{display:inline;fill:#282828;stroke:#E5E5E5;stroke-width:2;stroke-miterlimit:10;}
	.st2{display:inline;}
	.st3{display:inline;fill:#58595B;}
	.st4{display:inline;fill:none;stroke:#414042;stroke-width:2;stroke-miterlimit:10;}
	.st5{fill:none;}
	.st6{fill:#414042;}
	.st7{display:inline;fill:none;stroke:#FFFFFF;stroke-miterlimit:10;}
	.st8{fill:#FFFFFF;}
	.st9{display:inline;fill:#3F403F;stroke:#000000;stroke-miterlimit:10;}
	.st10{fill:none;stroke:#000000;stroke-width:1.5;stroke-miterlimit:10;stroke-dasharray:1.5093,1.5093;}
	.st11{fill:#3F403F;stroke:#000000;stroke-width:2;stroke-miterlimit:10;}
	.st12{fill:none;stroke:#000000;stroke-width:1.5;stroke-miterlimit:10;stroke-dasharray:1.5898,1.5898;}
	.st13{fill:#FFFFFF;stroke:#FFFFFF;stroke-miterlimit:10;}
	.st14{fill:#F7941E;}
	.st15{fill:#ED1C24;}
	.st16{display:inline;fill:#F7941E;}
</style>
<g id="Layer_1" class="st0">
	<path id="XMLID_814_" class="st1" d="M112.8,139.6h-586.7c-1.7,0-3-0.9-3-2v-150c0-1.1,1.3-2,3-2h586.7c1.7,0,3,0.9,3,2v150
		C115.8,138.8,114.4,139.6,112.8,139.6z"/>
</g>
<g id="Base" class="st0">
	<path class="st2" d="M-58,61.5c0,4.3-2.1,7.8-4.7,7.8h-321.5c-2.6,0-4.7-3.5-4.7-7.8V9.1c0-4.3,2.1-7.8,4.7-7.8h321.5
		c2.6,0,4.7,3.5,4.7,7.8V61.5z"/>
	<circle class="st3" cx="-20.4" cy="20.2" r="5.7"/>
	<line class="st4" x1="-26.2" y1="20.2" x2="-14.7" y2="20.2"/>
	<g class="st2">
		<rect x="-435" y="81.5" class="st5" width="12.6" height="13.5"/>
		<path class="st6" d="M-434.1,90.1v-8.6h3.7c0.9,0,1.6,0.1,2,0.2s0.7,0.4,1,0.8s0.4,0.8,0.4,1.4c0,0.6-0.2,1.2-0.6,1.6
			s-0.9,0.7-1.7,0.8c0.4,0.2,0.7,0.5,0.9,0.7s0.6,0.7,1,1.4l1,1.7h-2.1l-1.3-1.9c-0.4-0.7-0.8-1.1-0.9-1.3s-0.3-0.3-0.5-0.4
			s-0.5-0.1-0.9-0.1h-0.4v3.6H-434.1z M-432.4,85.1h1.3c0.8,0,1.4,0,1.6-0.1s0.4-0.2,0.5-0.4s0.2-0.4,0.2-0.6c0-0.3-0.1-0.5-0.2-0.7
			s-0.4-0.3-0.7-0.3c-0.1,0-0.6,0-1.3,0h-1.4V85.1z"/>
	</g>
	<g class="st2">
		<rect x="-453.9" y="81.5" class="st5" width="10" height="13.5"/>
		<path class="st6" d="M-453,90.1v-8.6h2.8c1.1,0,1.7,0,2.1,0.1c0.5,0.1,0.9,0.4,1.2,0.8s0.5,1,0.5,1.7c0,0.5-0.1,1-0.3,1.3
			s-0.4,0.6-0.7,0.8s-0.6,0.3-0.9,0.4c-0.4,0.1-1,0.1-1.8,0.1h-1.1v3.2H-453z M-451.3,82.9v2.4h0.9c0.7,0,1.1,0,1.4-0.1
			s0.4-0.2,0.5-0.4s0.2-0.4,0.2-0.7c0-0.3-0.1-0.6-0.3-0.8s-0.4-0.3-0.7-0.4c-0.2,0-0.6-0.1-1.2-0.1H-451.3z"/>
	</g>
	<path class="st7" d="M0.5,118.4c0,2.8-1.9,5.1-4.3,5.1h-34.4c-2.4,0-4.3-2.3-4.3-5.1V47.5c0-2.8,1.9-5.1,4.3-5.1h34.4
		c2.4,0,4.3,2.3,4.3,5.1V118.4z"/>
</g>
<g id="Labels" class="st0">
	<g class="st2">
		<rect x="-455.8" y="7.4" class="st5" width="41.6" height="9.1"/>
		<path class="st8" d="M-455.1,14.9V7.4h1v3.7l3.7-3.7h1.3l-3.1,3l3.3,4.4h-1.3l-2.6-3.8l-1.2,1.2v2.6H-455.1z"/>
		<path class="st8" d="M-448.9,14.9l2.9-7.4h1.1l3,7.4h-1.1l-0.9-2.3h-3.1l-0.8,2.3H-448.9z M-446.8,11.8h2.5l-0.8-2.1
			c-0.2-0.6-0.4-1.1-0.5-1.5c-0.1,0.5-0.2,1-0.4,1.4L-446.8,11.8z"/>
		<path class="st8" d="M-441.2,14.9V7.4h2.8c0.5,0,0.9,0,1.1,0.1c0.4,0.1,0.7,0.2,0.9,0.3c0.2,0.2,0.4,0.4,0.6,0.7s0.2,0.6,0.2,1
			c0,0.6-0.2,1.2-0.6,1.6c-0.4,0.4-1.1,0.7-2.2,0.7h-1.9v3H-441.2z M-440.2,11h1.9c0.6,0,1.1-0.1,1.4-0.4c0.3-0.2,0.4-0.6,0.4-1
			c0-0.3-0.1-0.6-0.2-0.8s-0.4-0.4-0.6-0.4c-0.2,0-0.5-0.1-0.9-0.1h-1.9V11z"/>
		<path class="st8" d="M-428.5,14.9h-0.9V9.1c-0.2,0.2-0.5,0.4-0.9,0.6s-0.7,0.4-1,0.5V9.3c0.5-0.2,1-0.5,1.3-0.9
			c0.4-0.3,0.7-0.7,0.8-1h0.6V14.9z"/>
		<path class="st8" d="M-423.2,14.9v-1.8h-3.2v-0.8l3.4-4.8h0.7v4.8h1v0.8h-1v1.8H-423.2z M-423.2,12.3V8.9l-2.3,3.4H-423.2z"/>
		<path class="st8" d="M-420.3,11.2c0-0.9,0.1-1.6,0.3-2.1c0.2-0.5,0.4-0.9,0.8-1.2c0.4-0.3,0.8-0.4,1.3-0.4c0.4,0,0.7,0.1,1.1,0.2
			c0.3,0.2,0.5,0.4,0.7,0.7c0.2,0.3,0.4,0.7,0.5,1.1c0.1,0.4,0.2,1,0.2,1.8c0,0.9-0.1,1.6-0.3,2.1c-0.2,0.5-0.4,1-0.8,1.2
			c-0.4,0.3-0.8,0.4-1.4,0.4c-0.7,0-1.3-0.3-1.7-0.8C-420.1,13.6-420.3,12.6-420.3,11.2z M-419.4,11.2c0,1.2,0.1,2,0.4,2.4
			c0.3,0.4,0.6,0.6,1.1,0.6s0.8-0.2,1.1-0.6c0.3-0.4,0.4-1.2,0.4-2.4c0-1.2-0.1-2-0.4-2.4c-0.3-0.4-0.6-0.6-1.1-0.6
			c-0.4,0-0.8,0.2-1,0.5C-419.2,9.1-419.4,10-419.4,11.2z"/>
	</g>
	<g class="st2">
		<rect x="-467.9" y="-4.4" class="st5" width="59.6" height="7.2"/>
		<path class="st8" d="M-467.6,1.8l1.3-6.3h2.2c0.5,0,0.8,0,1,0c0.3,0,0.6,0.1,0.8,0.3c0.2,0.1,0.4,0.3,0.5,0.5
			c0.1,0.2,0.2,0.5,0.2,0.7c0,0.3-0.1,0.7-0.3,0.9c-0.2,0.3-0.5,0.5-0.9,0.6c0.3,0.1,0.6,0.2,0.8,0.5s0.3,0.5,0.3,0.8
			c0,0.4-0.1,0.7-0.3,1.1c-0.2,0.3-0.5,0.6-0.9,0.7s-0.9,0.2-1.5,0.2H-467.6z M-466.1,0.8h1.2c0.5,0,0.9,0,1.1-0.1
			c0.2-0.1,0.3-0.2,0.4-0.3c0.1-0.2,0.2-0.3,0.2-0.5c0-0.2-0.1-0.4-0.2-0.5c-0.2-0.1-0.4-0.2-0.8-0.2h-1.5L-466.1,0.8z M-465.5-1.9
			h1c0.4,0,0.8,0,1-0.1c0.2-0.1,0.3-0.2,0.4-0.3c0.1-0.1,0.1-0.3,0.1-0.5c0-0.2,0-0.3-0.1-0.4s-0.2-0.2-0.4-0.2c-0.1,0-0.3,0-0.7,0
			h-1L-465.5-1.9z"/>
		<path class="st8" d="M-461.2,1.8l1.3-6.3h4.7l-0.2,1.1h-3.4l-0.3,1.4h3.3l-0.2,1.1h-3.3l-0.4,1.7h3.7l-0.2,1.1H-461.2z"/>
		<path class="st8" d="M-450.3,1.8h-1.2l-1.7-4.2l-0.9,4.2h-1.2l1.3-6.3h1.2l1.7,4.2l0.9-4.2h1.2L-450.3,1.8z"/>
		<path class="st8" d="M-449,1.8l1.3-6.3h1.7c0.5,0,0.8,0,0.9,0c0.3,0,0.5,0.1,0.7,0.2c0.2,0.1,0.4,0.2,0.6,0.3s0.3,0.3,0.4,0.5
			s0.2,0.4,0.3,0.7c0.1,0.3,0.1,0.6,0.1,0.9c0,0.7-0.1,1.3-0.4,1.8c-0.3,0.5-0.6,0.9-1,1.3c-0.3,0.2-0.7,0.4-1.2,0.5
			c-0.3,0.1-0.7,0.1-1.2,0.1H-449z M-447.5,0.8h0.7c0.5,0,0.8,0,1-0.1c0.2-0.1,0.4-0.2,0.6-0.3c0.3-0.2,0.5-0.5,0.6-0.9
			c0.2-0.4,0.3-0.8,0.3-1.4c0-0.4-0.1-0.8-0.2-1s-0.3-0.4-0.5-0.4c-0.1-0.1-0.4-0.1-0.8-0.1h-0.8L-447.5,0.8z"/>
		<path class="st8" d="M-442.7,1.8l1.3-6.3h1.3l-1.3,6.3H-442.7z"/>
		<path class="st8" d="M-439.2,1.8h-1.7l2.8-3.2l-1.6-3.1h1.4l0.6,1.2c0,0,0.2,0.3,0.4,0.9c0,0,0,0.1,0.1,0.1c0.3-0.4,0.6-0.8,0.9-1
			l1-1.1h1.6l-2.9,3.3l1.5,3h-1.5l-0.5-0.9c-0.2-0.5-0.4-0.9-0.5-1.1c-0.1,0.2-0.4,0.5-0.9,1L-439.2,1.8z"/>
		<path class="st8" d="M-435.1,2l3.1-6.5h0.9l-3.1,6.5H-435.1z"/>
		<path class="st8" d="M-431.9,1.8l1.3-6.3h1.3l-0.6,2.7l2.9-2.7h1.7L-428-2l2.1,3.8h-1.5l-1.6-3l-1.2,1.1l-0.4,1.9H-431.9z"/>
		<path class="st8" d="M-425.6,1.8l1.3-6.3h1.3l-1.3,6.3H-425.6z"/>
		<path class="st8" d="M-418.1,1.8h-1.2l-1.7-4.2l-0.9,4.2h-1.2l1.3-6.3h1.2l1.7,4.2l0.9-4.2h1.2L-418.1,1.8z"/>
		<path class="st8" d="M-413.3-1.5h2.8l-0.6,2.7c-0.3,0.2-0.7,0.4-1.2,0.5c-0.5,0.1-1,0.2-1.5,0.2c-0.8,0-1.4-0.2-1.8-0.5
			c-0.6-0.5-0.9-1.2-0.9-2.1c0-0.6,0.1-1.2,0.4-1.8c0.3-0.7,0.7-1.2,1.2-1.6s1.2-0.6,1.9-0.6s1.3,0.2,1.7,0.5s0.7,0.8,0.9,1.5
			l-1.2,0.1c-0.1-0.4-0.3-0.6-0.5-0.8c-0.2-0.2-0.5-0.3-0.9-0.3c-0.4,0-0.8,0.1-1.2,0.3s-0.6,0.6-0.8,1c-0.2,0.5-0.3,1-0.3,1.5
			c0,0.5,0.1,0.9,0.4,1.2c0.2,0.3,0.6,0.4,1.1,0.4c0.3,0,0.6,0,0.9-0.1c0.3-0.1,0.5-0.2,0.8-0.3l0.2-0.9h-1.6L-413.3-1.5z"/>
	</g>
</g>
<g id="Outer_Knob_R" class="st0">
	<path class="st9" d="M89.7,84.6c0,17-13.8,30.9-30.9,30.9c-17.1,0-30.9-13.8-30.9-30.9c0-17.1,13.8-30.9,30.9-30.9
		C75.9,53.7,89.7,67.5,89.7,84.6z"/>
	<g class="st2">
		<g>
			<path class="st10" d="M90.6,84.6c0,17.5-14.2,31.7-31.7,31.7c-17.5,0-31.7-14.2-31.7-31.7c0-17.5,14.2-31.7,31.7-31.7
				C76.4,52.9,90.6,67.1,90.6,84.6z"/>
		</g>
	</g>
</g>
<g id="Inner_Knob_R" class="st0">
	<g class="st2">
		<circle class="st11" cx="58.8" cy="84.6" r="20.8"/>
		<g>
			<path class="st12" d="M80.6,84.6c0,12-9.7,21.8-21.8,21.8s-21.8-9.7-21.8-21.8c0-12,9.7-21.8,21.8-21.8S80.6,72.6,80.6,84.6z"/>
		</g>
	</g>
</g>
<g id="BARO_Button">
	<path class="st13" d="M91.6,17.3c0,1.1-0.9,2-2,2H61.5c-1.1,0-2-0.9-2-2V2.5c0-1.1,0.9-2,2-2h28.1c1.1,0,2,0.9,2,2V17.3z"/>
	<g>
		<path d="M61.6,14.3V6.4h2.8c0.6,0,1,0.1,1.3,0.2c0.3,0.2,0.6,0.4,0.8,0.7s0.3,0.7,0.3,1.1c0,0.4-0.1,0.7-0.3,1
			c-0.2,0.3-0.4,0.5-0.8,0.7c0.4,0.1,0.8,0.4,1,0.7c0.2,0.3,0.4,0.7,0.4,1.2c0,0.5-0.1,0.9-0.3,1.3S66.4,13.8,66,14
			s-0.9,0.2-1.5,0.2H61.6z M62.6,9.7h1.6c0.4,0,0.7,0,0.9-0.1c0.3-0.1,0.5-0.2,0.6-0.4c0.1-0.2,0.2-0.4,0.2-0.7
			c0-0.3-0.1-0.5-0.2-0.7c-0.1-0.2-0.3-0.3-0.5-0.4c-0.2-0.1-0.6-0.1-1.1-0.1h-1.5V9.7z M62.6,13.3h1.9c0.4,0,0.7,0,0.9-0.1
			c0.3-0.1,0.5-0.2,0.6-0.5s0.2-0.5,0.2-0.8c0-0.3-0.1-0.5-0.2-0.8s-0.3-0.4-0.6-0.5s-0.6-0.1-1.1-0.1h-1.7V13.3z"/>
		<path d="M67.8,14.3l2.9-7.9h1.1l3,7.9h-1.1l-0.9-2.4h-3.1l-0.8,2.4H67.8z M69.9,11h2.5l-0.8-2.2c-0.2-0.7-0.4-1.2-0.5-1.6
			c-0.1,0.5-0.2,1-0.4,1.5L69.9,11z"/>
		<path d="M75.5,14.3V6.4h3.3c0.7,0,1.2,0.1,1.5,0.2c0.3,0.1,0.6,0.4,0.8,0.7s0.3,0.7,0.3,1.2c0,0.6-0.2,1.1-0.5,1.4
			c-0.4,0.4-0.9,0.6-1.6,0.7c0.3,0.1,0.5,0.3,0.6,0.4c0.3,0.3,0.6,0.6,0.8,1l1.3,2.1h-1.2l-1-1.6c-0.4-0.6-0.7-1.1-0.9-1.3
			s-0.4-0.4-0.6-0.4s-0.4-0.1-0.8-0.1h-1.1v3.5H75.5z M76.5,9.9h2.1c0.5,0,0.8,0,1.1-0.1s0.4-0.2,0.6-0.5c0.1-0.2,0.2-0.5,0.2-0.7
			c0-0.4-0.1-0.7-0.4-0.9s-0.7-0.3-1.2-0.3h-2.4V9.9z"/>
		<path d="M82.7,10.4c0-1.3,0.3-2.4,1-3.1s1.5-1.1,2.5-1.1c0.7,0,1.3,0.2,1.8,0.5s1,0.8,1.3,1.4s0.5,1.3,0.5,2.2
			c0,1.2-0.3,2.1-0.9,2.9c-0.7,0.8-1.6,1.2-2.6,1.2c-1.1,0-2-0.4-2.7-1.2C83,12.4,82.7,11.5,82.7,10.4z M83.8,10.4
			c0,1,0.2,1.7,0.7,2.3c0.5,0.5,1.1,0.8,1.8,0.8c0.7,0,1.3-0.3,1.8-0.8c0.5-0.5,0.7-1.3,0.7-2.4c0-0.7-0.1-1.3-0.4-1.8
			c-0.2-0.4-0.5-0.7-0.9-1c-0.4-0.2-0.8-0.4-1.3-0.4c-0.7,0-1.4,0.3-1.8,0.8C84,8.5,83.8,9.3,83.8,10.4z"/>
	</g>
</g>
<g id="ARM_Button">
	<path class="st13" d="M32.6,17.3c0,1.1-0.9,2-2,2H2.5c-1.1,0-2-0.9-2-2V2.5c0-1.1,0.9-2,2-2h28.1c1.1,0,2,0.9,2,2V17.3z"/>
	<g>
		<path d="M5,14.3l2.9-7.9h1.1l3,7.9h-1.1L10,11.9H6.9L6,14.3H5z M7.1,11h2.5L8.9,8.8C8.7,8.2,8.5,7.6,8.4,7.2
			C8.3,7.7,8.1,8.2,8,8.7L7.1,11z"/>
		<path d="M12.8,14.3V6.4h3.3c0.7,0,1.2,0.1,1.5,0.2c0.3,0.1,0.6,0.4,0.8,0.7c0.2,0.3,0.3,0.7,0.3,1.2c0,0.6-0.2,1.1-0.5,1.4
			c-0.4,0.4-0.9,0.6-1.6,0.7c0.3,0.1,0.5,0.3,0.6,0.4c0.3,0.3,0.6,0.6,0.8,1l1.3,2.1h-1.2l-1-1.6c-0.4-0.6-0.7-1.1-0.9-1.3
			c-0.2-0.2-0.4-0.4-0.6-0.4c-0.2-0.1-0.4-0.1-0.8-0.1h-1.1v3.5H12.8z M13.7,9.9h2.1c0.5,0,0.8,0,1.1-0.1c0.2-0.1,0.4-0.2,0.6-0.5
			c0.1-0.2,0.2-0.5,0.2-0.7c0-0.4-0.1-0.7-0.4-0.9c-0.3-0.2-0.7-0.3-1.2-0.3h-2.4V9.9z"/>
		<path d="M20.2,14.3V6.4h1.5l1.8,5.6l0.4,1.2c0.1-0.3,0.2-0.7,0.4-1.3L26,6.4h1.3v7.9h-0.9V7.7l-2.2,6.6h-0.9l-2.2-6.7v6.7H20.2z"
			/>
	</g>
</g>
<g id="DN_Button">
	<path class="st13" d="M-4.4,114.3c0,1.1-0.9,2-2,2h-28.1c-1.1,0-2-0.9-2-2V99.5c0-1.1,0.9-2,2-2h28.1c1.1,0,2,0.9,2,2V114.3z"/>
	<g>
		<path d="M-27.2,111.3v-7.9h2.6c0.6,0,1.1,0,1.4,0.1c0.4,0.1,0.8,0.4,1.1,0.7c0.3,0.3,0.6,0.8,0.7,1.3s0.3,1.1,0.3,1.8
			c0,0.9-0.2,1.6-0.5,2.3c-0.3,0.6-0.7,1.1-1.2,1.3s-1.1,0.4-1.9,0.4H-27.2z M-26.2,110.3h1.6c0.6,0,1.1-0.1,1.5-0.3
			c0.3-0.2,0.6-0.5,0.8-0.9c0.2-0.5,0.4-1.2,0.4-1.9c0-0.8-0.1-1.4-0.4-1.9c-0.3-0.5-0.6-0.8-1-0.9c-0.3-0.1-0.7-0.2-1.3-0.2h-1.6
			V110.3z"/>
		<path d="M-19.7,111.3v-7.9h1l3.9,6.2v-6.2h0.9v7.9h-1l-3.9-6.2v6.2H-19.7z"/>
	</g>
</g>
<g id="UP_Button">
	<path class="st13" d="M-4.4,66.4c0,1.1-0.9,2-2,2h-28.1c-1.1,0-2-0.9-2-2V51.6c0-1.1,0.9-2,2-2h28.1c1.1,0,2,0.9,2,2V66.4z"/>
	<g>
		<path d="M-21.9,55.5h1V60c0,0.8-0.1,1.4-0.3,1.9c-0.2,0.5-0.5,0.9-0.9,1.2s-1,0.4-1.7,0.4c-1,0-1.7-0.3-2.2-0.8
			c-0.5-0.5-0.7-1.4-0.7-2.7v-4.5h1V60c0,0.7,0.1,1.2,0.2,1.5c0.1,0.3,0.3,0.6,0.6,0.7c0.3,0.2,0.6,0.3,1.1,0.3
			c0.7,0,1.2-0.2,1.5-0.5s0.5-1,0.5-2V55.5z"/>
		<path d="M-19.3,63.4v-7.9h2.8c0.7,0,1.1,0,1.5,0.2c0.4,0.1,0.8,0.4,1,0.8c0.3,0.4,0.4,0.8,0.4,1.4c0,0.7-0.2,1.3-0.6,1.7
			c-0.4,0.4-1.1,0.7-2.2,0.7h-1.9v3.2H-19.3z M-18.3,59.2h1.9c0.6,0,1.1-0.1,1.3-0.4c0.3-0.2,0.4-0.6,0.4-1.1c0-0.3-0.1-0.6-0.2-0.8
			c-0.1-0.2-0.3-0.4-0.5-0.5c-0.2-0.1-0.6-0.1-1.1-0.1h-1.9V59.2z"/>
	</g>
</g>
<g id="ALT_Button">
	<path class="st13" d="M-56.4,118.4c0,1.1-0.9,2-2,2h-28.1c-1.1,0-2-0.9-2-2v-14.8c0-1.1,0.9-2,2-2h28.1c1.1,0,2,0.9,2,2V118.4z"/>
	<g>
		<path d="M-81.5,115.4l2.9-7.9h1.1l3,7.9h-1.1l-0.9-2.4h-3.1l-0.8,2.4H-81.5z M-79.4,112.1h2.5l-0.8-2.2c-0.2-0.7-0.4-1.2-0.5-1.6
			c-0.1,0.5-0.2,1-0.4,1.5L-79.4,112.1z"/>
		<path d="M-73.8,115.4v-7.9h1v6.9h3.7v0.9H-73.8z"/>
		<path d="M-66.8,115.4v-6.9h-2.5v-0.9h5.9v0.9h-2.5v6.9H-66.8z"/>
	</g>
</g>
<g id="REV_Button">
	<path class="st13" d="M-116.4,118.4c0,1.1-0.9,2-2,2h-28.1c-1.1,0-2-0.9-2-2v-14.8c0-1.1,0.9-2,2-2h28.1c1.1,0,2,0.9,2,2V118.4z"/>
	<g>
		<path d="M-142.3,115.4v-7.9h3.3c0.7,0,1.2,0.1,1.5,0.2c0.3,0.1,0.6,0.4,0.8,0.7c0.2,0.3,0.3,0.7,0.3,1.2c0,0.6-0.2,1.1-0.5,1.4
			c-0.4,0.4-0.9,0.6-1.6,0.7c0.3,0.1,0.5,0.3,0.6,0.4c0.3,0.3,0.6,0.6,0.8,1l1.3,2.1h-1.2l-1-1.6c-0.4-0.6-0.7-1.1-0.9-1.3
			c-0.2-0.2-0.4-0.4-0.6-0.4s-0.4-0.1-0.8-0.1h-1.1v3.5H-142.3z M-141.3,111h2.1c0.5,0,0.8,0,1.1-0.1c0.2-0.1,0.4-0.2,0.6-0.5
			c0.1-0.2,0.2-0.5,0.2-0.7c0-0.4-0.1-0.7-0.4-0.9c-0.3-0.2-0.7-0.3-1.2-0.3h-2.4V111z"/>
		<path d="M-134.8,115.4v-7.9h5.4v0.9h-4.4v2.4h4.1v0.9h-4.1v2.7h4.6v0.9H-134.8z"/>
		<path d="M-125.7,115.4l-2.9-7.9h1.1l1.9,5.7c0.1,0.4,0.3,0.9,0.4,1.3c0.1-0.4,0.2-0.9,0.4-1.3l2-5.7h1l-2.9,7.9H-125.7z"/>
	</g>
</g>
<g id="APR_Button">
	<path class="st13" d="M-183.4,118.4c0,1.1-0.9,2-2,2h-28.1c-1.1,0-2-0.9-2-2v-14.8c0-1.1,0.9-2,2-2h28.1c1.1,0,2,0.9,2,2V118.4z"/>
	<g>
		<path d="M-210.1,115.4l2.9-7.9h1.1l3,7.9h-1.1l-0.9-2.4h-3.1l-0.8,2.4H-210.1z M-208,112.1h2.5l-0.8-2.2c-0.2-0.7-0.4-1.2-0.5-1.6
			c-0.1,0.5-0.2,1-0.4,1.5L-208,112.1z"/>
		<path d="M-202.4,115.4v-7.9h2.8c0.7,0,1.1,0,1.5,0.2c0.4,0.1,0.8,0.4,1,0.8c0.3,0.4,0.4,0.8,0.4,1.4c0,0.7-0.2,1.3-0.6,1.7
			c-0.4,0.4-1.1,0.7-2.2,0.7h-1.9v3.2H-202.4z M-201.4,111.2h1.9c0.6,0,1.1-0.1,1.3-0.4s0.4-0.6,0.4-1.1c0-0.3-0.1-0.6-0.2-0.8
			c-0.1-0.2-0.3-0.4-0.5-0.5c-0.2-0.1-0.6-0.1-1.1-0.1h-1.9V111.2z"/>
		<path d="M-195.4,115.4v-7.9h3.3c0.7,0,1.2,0.1,1.5,0.2c0.3,0.1,0.6,0.4,0.8,0.7s0.3,0.7,0.3,1.2c0,0.6-0.2,1.1-0.5,1.4
			c-0.4,0.4-0.9,0.6-1.6,0.7c0.3,0.1,0.5,0.3,0.6,0.4c0.3,0.3,0.6,0.6,0.8,1l1.3,2.1h-1.2l-1-1.6c-0.4-0.6-0.7-1.1-0.9-1.3
			s-0.4-0.4-0.6-0.4c-0.2-0.1-0.4-0.1-0.8-0.1h-1.1v3.5H-195.4z M-194.5,111h2.1c0.5,0,0.8,0,1.1-0.1c0.2-0.1,0.4-0.2,0.6-0.5
			c0.1-0.2,0.2-0.5,0.2-0.7c0-0.4-0.1-0.7-0.4-0.9s-0.7-0.3-1.2-0.3h-2.4V111z"/>
	</g>
</g>
<g id="Nav_Button">
	<path class="st13" d="M-252.4,118.4c0,1.1-0.9,2-2,2h-28.1c-1.1,0-2-0.9-2-2v-14.8c0-1.1,0.9-2,2-2h28.1c1.1,0,2,0.9,2,2V118.4z"/>
	<g>
		<path d="M-278,115.4v-7.9h1l3.9,6.2v-6.2h0.9v7.9h-1l-3.9-6.2v6.2H-278z"/>
		<path d="M-271.2,115.4l2.9-7.9h1.1l3,7.9h-1.1l-0.9-2.4h-3.1l-0.8,2.4H-271.2z M-269.1,112.1h2.5l-0.8-2.2
			c-0.2-0.7-0.4-1.2-0.5-1.6c-0.1,0.5-0.2,1-0.4,1.5L-269.1,112.1z"/>
		<path d="M-262.1,115.4l-2.9-7.9h1.1l1.9,5.7c0.1,0.4,0.3,0.9,0.4,1.3c0.1-0.4,0.2-0.9,0.4-1.3l2-5.7h1l-2.9,7.9H-262.1z"/>
	</g>
</g>
<g id="HGD_Button">
	<path class="st13" d="M-320.6,118.4c0,1.1-0.9,2-2,2h-28.1c-1.1,0-2-0.9-2-2v-14.8c0-1.1,0.9-2,2-2h28.1c1.1,0,2,0.9,2,2V118.4z"/>
	<g>
		<path d="M-347.4,115.4v-7.9h1v3.2h3.9v-3.2h1v7.9h-1v-3.7h-3.9v3.7H-347.4z"/>
		<path d="M-339.9,115.4v-7.9h2.6c0.6,0,1.1,0,1.4,0.1c0.4,0.1,0.8,0.4,1.1,0.7c0.3,0.3,0.6,0.8,0.7,1.3c0.2,0.5,0.3,1.1,0.3,1.8
			c0,0.9-0.2,1.6-0.5,2.3c-0.3,0.6-0.7,1.1-1.2,1.3c-0.5,0.3-1.1,0.4-1.9,0.4H-339.9z M-338.9,114.4h1.6c0.6,0,1.1-0.1,1.5-0.3
			c0.3-0.2,0.6-0.5,0.8-0.9c0.2-0.5,0.4-1.2,0.4-1.9c0-0.8-0.1-1.4-0.4-1.9c-0.3-0.5-0.6-0.8-1-0.9c-0.3-0.1-0.7-0.2-1.3-0.2h-1.6
			V114.4z"/>
		<path d="M-328.9,112.3v-0.9l3.2,0v2.9c-0.5,0.4-1,0.7-1.5,0.9s-1,0.3-1.6,0.3c-0.7,0-1.4-0.2-1.9-0.5s-1-0.8-1.4-1.4
			s-0.5-1.3-0.5-2.2c0-0.9,0.2-1.6,0.5-2.2s0.8-1.1,1.3-1.4c0.5-0.3,1.2-0.5,1.9-0.5c0.5,0,1,0.1,1.4,0.3c0.4,0.2,0.7,0.4,1,0.7
			s0.5,0.8,0.6,1.3l-0.9,0.3c-0.1-0.4-0.3-0.8-0.5-1c-0.2-0.2-0.4-0.4-0.7-0.5c-0.3-0.1-0.6-0.2-1-0.2c-0.5,0-1,0.1-1.4,0.3
			c-0.4,0.2-0.7,0.6-0.9,1.1c-0.2,0.5-0.4,1.1-0.4,1.8c0,1.1,0.3,1.8,0.8,2.4c0.5,0.5,1.2,0.8,2,0.8c0.4,0,0.8-0.1,1.2-0.2
			c0.4-0.2,0.7-0.4,1-0.6v-1.5H-328.9z"/>
	</g>
</g>
<g id="AP_Button">
	<path class="st13" d="M-424.5,119.4c0,1.1-0.9,2-2,2h-28.1c-1.1,0-2-0.9-2-2v-14.8c0-1.1,0.9-2,2-2h28.1c1.1,0,2,0.9,2,2V119.4z"/>
	<g>
		<path d="M-448.1,116.4l2.9-7.9h1.1l3,7.9h-1.1l-0.9-2.4h-3.1l-0.8,2.4H-448.1z M-446,113.1h2.5l-0.8-2.2c-0.2-0.7-0.4-1.2-0.5-1.6
			c-0.1,0.5-0.2,1-0.4,1.5L-446,113.1z"/>
		<path d="M-440.4,116.4v-7.9h2.8c0.7,0,1.1,0,1.5,0.2c0.4,0.1,0.8,0.4,1,0.8c0.3,0.4,0.4,0.8,0.4,1.4c0,0.7-0.2,1.3-0.6,1.7
			c-0.4,0.4-1.1,0.7-2.2,0.7h-1.9v3.2H-440.4z M-439.4,112.2h1.9c0.6,0,1.1-0.1,1.3-0.4s0.4-0.6,0.4-1.1c0-0.3-0.1-0.6-0.2-0.8
			c-0.1-0.2-0.3-0.4-0.5-0.5c-0.2-0.1-0.6-0.1-1.1-0.1h-1.9V112.2z"/>
	</g>
</g>
<g id="Text" class="st0">
	<g class="st2">
		<rect x="-386.9" y="5" class="st5" width="65" height="25.3"/>
		<path class="st14" d="M-381.4,16.8l-1.1,9.2l-1,0.8l-0.8-1l1.1-9.2l1-0.8L-381.4,16.8z M-373.1,27.4l0.8,1l-1,0.8l-9.1-1.1l-0.8-1
			l1-0.8L-373.1,27.4z M-380,5.5l-1.1,9.2l-1,0.8l-0.8-1l1.1-9.2l1-0.8L-380,5.5z M-376.7,16.9l0.3,1.4l-3.9,7.1l-1.2,0.5l-0.3-1.5
			l3.9-7L-376.7,16.9z M-370.4,4.7l0.8,1l-1,0.8l-9.1-1.1l-0.8-1l1-0.8L-370.4,4.7z M-371.4,7l0.3,1.4l-3.9,7.1l-1.2,0.5l-0.3-1.5
			l3.9-7L-371.4,7z M-370,18.2l-1.1,9.2l-1,0.8l-0.8-1l1.1-9.2l1-0.8L-370,18.2z M-368.7,6.9l-1.1,9.2l-1,0.8l-0.8-1l1.1-9.2l1-0.8
			L-368.7,6.9z"/>
		<path class="st14" d="M-359.8,16.8l-1.1,9.2l-1,0.8l-0.8-1l1.1-9.2l1-0.8L-359.8,16.8z M-351.5,27.4l0.8,1l-1,0.8l-9.1-1.1l-0.8-1
			l1-0.8L-351.5,27.4z M-358.4,5.5l-1.1,9.2l-1,0.8l-0.8-1l1.1-9.2l1-0.8L-358.4,5.5z M-355,16.9l0.3,1.4l-3.9,7.1l-1.2,0.5
			l-0.3-1.5l3.9-7L-355,16.9z M-348.8,4.7l0.8,1l-1,0.8l-9.1-1.1l-0.8-1l1-0.8L-348.8,4.7z M-349.8,7l0.3,1.4l-3.9,7.1l-1.2,0.5
			l-0.3-1.5l3.9-7L-349.8,7z M-348.4,18.2l-1.1,9.2l-1,0.8l-0.8-1l1.1-9.2l1-0.8L-348.4,18.2z M-347,6.9l-1.1,9.2l-1,0.8l-0.8-1
			l1.1-9.2l1-0.8L-347,6.9z"/>
		<path class="st14" d="M-338.2,16.8l-1.1,9.2l-1,0.8l-0.8-1l1.1-9.2l1-0.8L-338.2,16.8z M-329.9,27.4l0.8,1l-1,0.8l-9.1-1.1l-0.8-1
			l1-0.8L-329.9,27.4z M-336.8,5.5l-1.1,9.2l-1,0.8l-0.8-1l1.1-9.2l1-0.8L-336.8,5.5z M-333.4,16.9l0.3,1.4l-3.9,7.1l-1.2,0.5
			l-0.3-1.5l3.9-7L-333.4,16.9z M-327.2,4.7l0.8,1l-1,0.8l-9.1-1.1l-0.8-1l1-0.8L-327.2,4.7z M-328.2,7l0.3,1.4l-3.9,7.1l-1.2,0.5
			l-0.3-1.5l3.9-7L-328.2,7z M-326.8,18.2l-1.1,9.2l-1,0.8l-0.8-1l1.1-9.2l1-0.8L-326.8,18.2z M-325.4,6.9l-1.1,9.2l-1,0.8l-0.8-1
			l1.1-9.2l1-0.8L-325.4,6.9z"/>
	</g>
	<g class="st2">
		<rect x="-388.9" y="39" class="st5" width="65" height="25.3"/>
		<path class="st14" d="M-385.2,40v9.3l-0.9,0.9l-0.9-0.9V40l0.9-0.9L-385.2,40z M-385.2,51.5v9.3l-0.9,0.9l-0.9-0.9v-9.3l0.9-0.9
			L-385.2,51.5z M-375.8,38l0.9,0.9l-0.9,0.9h-9.2L-386,39l0.9-0.9H-375.8z M-375.8,60.9l0.9,0.9l-0.9,0.9h-9.2l-0.9-0.9l0.9-0.9
			H-375.8z M-380.5,51l0.5,1.3l-3,7.5l-1.2,0.6l-0.5-1.4l3-7.4L-380.5,51z M-376.5,40.5l0.5,1.3l-3,7.5l-1.2,0.6l-0.5-1.4l3-7.4
			L-376.5,40.5z M-373.8,40v9.3l-0.9,0.9l-0.9-0.9V40l0.9-0.9L-373.8,40z M-373.8,51.5v9.3l-0.9,0.9l-0.9-0.9v-9.3l0.9-0.9
			L-373.8,51.5z"/>
		<path class="st14" d="M-362.4,40v9.3l-0.9,0.9l-0.9-0.9V40l0.9-0.9L-362.4,40z M-362.4,51.5v9.3l-0.9,0.9l-0.9-0.9v-9.3l0.9-0.9
			L-362.4,51.5z M-352.9,38l0.9,0.9l-0.9,0.9h-9.2l-0.9-0.9l0.9-0.9H-352.9z M-352.9,60.9l0.9,0.9l-0.9,0.9h-9.2l-0.9-0.9l0.9-0.9
			H-352.9z M-357.7,51l0.5,1.3l-3,7.5l-1.2,0.6l-0.5-1.4l3-7.4L-357.7,51z M-353.7,40.5l0.5,1.3l-3,7.5l-1.2,0.6l-0.5-1.4l3-7.4
			L-353.7,40.5z M-350.9,40v9.3l-0.9,0.9l-0.9-0.9V40l0.9-0.9L-350.9,40z M-350.9,51.5v9.3l-0.9,0.9l-0.9-0.9v-9.3l0.9-0.9
			L-350.9,51.5z"/>
		<path class="st14" d="M-339.5,40v9.3l-0.9,0.9l-0.9-0.9V40l0.9-0.9L-339.5,40z M-339.5,51.5v9.3l-0.9,0.9l-0.9-0.9v-9.3l0.9-0.9
			L-339.5,51.5z M-330.1,38l0.9,0.9l-0.9,0.9h-9.2l-0.9-0.9l0.9-0.9H-330.1z M-330,60.9l0.9,0.9l-0.9,0.9h-9.2l-0.9-0.9l0.9-0.9
			H-330z M-334.8,51l0.5,1.3l-3,7.5l-1.2,0.6L-339,59l3-7.4L-334.8,51z M-330.8,40.5l0.5,1.3l-3,7.5l-1.2,0.6l-0.5-1.4l3-7.4
			L-330.8,40.5z M-328.1,40v9.3l-0.9,0.9l-0.9-0.9V40l0.9-0.9L-328.1,40z M-328.1,51.5v9.3l-0.9,0.9l-0.9-0.9v-9.3l0.9-0.9
			L-328.1,51.5z"/>
	</g>
	<g class="st2">
		<rect x="-278.9" y="5" class="st5" width="65" height="25.3"/>
		<path class="st14" d="M-273.4,16.8l-1.1,9.2l-1,0.8l-0.8-1l1.1-9.2l1-0.8L-273.4,16.8z M-265.1,27.4l0.8,1l-1,0.8l-9.1-1.1l-0.8-1
			l1-0.8L-265.1,27.4z M-272,5.5l-1.1,9.2l-1,0.8l-0.8-1l1.1-9.2l1-0.8L-272,5.5z M-268.7,16.9l0.3,1.4l-3.9,7.1l-1.2,0.5l-0.3-1.5
			l3.9-7L-268.7,16.9z M-262.4,4.7l0.8,1l-1,0.8l-9.1-1.1l-0.8-1l1-0.8L-262.4,4.7z M-263.4,7l0.3,1.4l-3.9,7.1l-1.2,0.5l-0.3-1.5
			l3.9-7L-263.4,7z M-262,18.2l-1.1,9.2l-1,0.8l-0.8-1l1.1-9.2l1-0.8L-262,18.2z M-260.7,6.9l-1.1,9.2l-1,0.8l-0.8-1l1.1-9.2l1-0.8
			L-260.7,6.9z"/>
		<path class="st14" d="M-251.8,16.8l-1.1,9.2l-1,0.8l-0.8-1l1.1-9.2l1-0.8L-251.8,16.8z M-243.5,27.4l0.8,1l-1,0.8l-9.1-1.1l-0.8-1
			l1-0.8L-243.5,27.4z M-250.4,5.5l-1.1,9.2l-1,0.8l-0.8-1l1.1-9.2l1-0.8L-250.4,5.5z M-247,16.9l0.3,1.4l-3.9,7.1l-1.2,0.5
			l-0.3-1.5l3.9-7L-247,16.9z M-240.8,4.7l0.8,1l-1,0.8l-9.1-1.1l-0.8-1l1-0.8L-240.8,4.7z M-241.8,7l0.3,1.4l-3.9,7.1l-1.2,0.5
			l-0.3-1.5l3.9-7L-241.8,7z M-240.4,18.2l-1.1,9.2l-1,0.8l-0.8-1l1.1-9.2l1-0.8L-240.4,18.2z M-239,6.9l-1.1,9.2l-1,0.8l-0.8-1
			l1.1-9.2l1-0.8L-239,6.9z"/>
		<path class="st14" d="M-230.2,16.8l-1.1,9.2l-1,0.8l-0.8-1l1.1-9.2l1-0.8L-230.2,16.8z M-221.9,27.4l0.8,1l-1,0.8l-9.1-1.1l-0.8-1
			l1-0.8L-221.9,27.4z M-228.8,5.5l-1.1,9.2l-1,0.8l-0.8-1l1.1-9.2l1-0.8L-228.8,5.5z M-225.4,16.9l0.3,1.4l-3.9,7.1l-1.2,0.5
			l-0.3-1.5l3.9-7L-225.4,16.9z M-219.2,4.7l0.8,1l-1,0.8l-9.1-1.1l-0.8-1l1-0.8L-219.2,4.7z M-220.2,7l0.3,1.4l-3.9,7.1l-1.2,0.5
			l-0.3-1.5l3.9-7L-220.2,7z M-218.8,18.2l-1.1,9.2l-1,0.8l-0.8-1l1.1-9.2l1-0.8L-218.8,18.2z M-217.4,6.9l-1.1,9.2l-1,0.8l-0.8-1
			l1.1-9.2l1-0.8L-217.4,6.9z"/>
	</g>
	<g class="st2">
		<rect x="-280.9" y="39" class="st5" width="65" height="25.3"/>
		<path class="st14" d="M-277.2,40v9.3l-0.9,0.9l-0.9-0.9V40l0.9-0.9L-277.2,40z M-277.2,51.5v9.3l-0.9,0.9l-0.9-0.9v-9.3l0.9-0.9
			L-277.2,51.5z M-267.8,38l0.9,0.9l-0.9,0.9h-9.2L-278,39l0.9-0.9H-267.8z M-267.8,60.9l0.9,0.9l-0.9,0.9h-9.2l-0.9-0.9l0.9-0.9
			H-267.8z M-272.5,51l0.5,1.3l-3,7.5l-1.2,0.6l-0.5-1.4l3-7.4L-272.5,51z M-268.5,40.5l0.5,1.3l-3,7.5l-1.2,0.6l-0.5-1.4l3-7.4
			L-268.5,40.5z M-265.8,40v9.3l-0.9,0.9l-0.9-0.9V40l0.9-0.9L-265.8,40z M-265.8,51.5v9.3l-0.9,0.9l-0.9-0.9v-9.3l0.9-0.9
			L-265.8,51.5z"/>
		<path class="st14" d="M-254.4,40v9.3l-0.9,0.9l-0.9-0.9V40l0.9-0.9L-254.4,40z M-254.4,51.5v9.3l-0.9,0.9l-0.9-0.9v-9.3l0.9-0.9
			L-254.4,51.5z M-244.9,38l0.9,0.9l-0.9,0.9h-9.2l-0.9-0.9l0.9-0.9H-244.9z M-244.9,60.9l0.9,0.9l-0.9,0.9h-9.2l-0.9-0.9l0.9-0.9
			H-244.9z M-249.7,51l0.5,1.3l-3,7.5l-1.2,0.6l-0.5-1.4l3-7.4L-249.7,51z M-245.7,40.5l0.5,1.3l-3,7.5l-1.2,0.6l-0.5-1.4l3-7.4
			L-245.7,40.5z M-242.9,40v9.3l-0.9,0.9l-0.9-0.9V40l0.9-0.9L-242.9,40z M-242.9,51.5v9.3l-0.9,0.9l-0.9-0.9v-9.3l0.9-0.9
			L-242.9,51.5z"/>
		<path class="st14" d="M-231.5,40v9.3l-0.9,0.9l-0.9-0.9V40l0.9-0.9L-231.5,40z M-231.5,51.5v9.3l-0.9,0.9l-0.9-0.9v-9.3l0.9-0.9
			L-231.5,51.5z M-222.1,38l0.9,0.9l-0.9,0.9h-9.2l-0.9-0.9l0.9-0.9H-222.1z M-222,60.9l0.9,0.9l-0.9,0.9h-9.2l-0.9-0.9l0.9-0.9
			H-222z M-226.8,51l0.5,1.3l-3,7.5l-1.2,0.6L-231,59l3-7.4L-226.8,51z M-222.8,40.5l0.5,1.3l-3,7.5l-1.2,0.6l-0.5-1.4l3-7.4
			L-222.8,40.5z M-220.1,40v9.3l-0.9,0.9l-0.9-0.9V40l0.9-0.9L-220.1,40z M-220.1,51.5v9.3l-0.9,0.9l-0.9-0.9v-9.3l0.9-0.9
			L-220.1,51.5z"/>
	</g>
	<g class="st2">
		<rect x="-169.1" y="5" class="st5" width="111.2" height="25.3"/>
		<path class="st14" d="M-163.6,16.8l-1.1,9.2l-1,0.8l-0.8-1l1.1-9.2l1-0.8L-163.6,16.8z M-155.4,27.4l0.8,1l-1,0.8l-9.1-1.1l-0.8-1
			l1-0.8L-155.4,27.4z M-162.2,5.5l-1.1,9.2l-1,0.8l-0.8-1l1.1-9.2l1-0.8L-162.2,5.5z M-158.9,16.9l0.3,1.4l-3.9,7.1l-1.2,0.5
			l-0.3-1.5l3.9-7L-158.9,16.9z M-152.7,4.7l0.8,1l-1,0.8l-9.1-1.1l-0.8-1l1-0.8L-152.7,4.7z M-153.7,7l0.3,1.4l-3.9,7.1l-1.2,0.5
			l-0.3-1.5l3.9-7L-153.7,7z M-152.3,18.2l-1.1,9.2l-1,0.8l-0.8-1l1.1-9.2l1-0.8L-152.3,18.2z M-150.9,6.9l-1.1,9.2l-1,0.8l-0.8-1
			l1.1-9.2l1-0.8L-150.9,6.9z"/>
		<path class="st14" d="M-142,16.8l-1.1,9.2l-1,0.8l-0.8-1l1.1-9.2l1-0.8L-142,16.8z M-133.8,27.4l0.8,1l-1,0.8l-9.1-1.1l-0.8-1
			l1-0.8L-133.8,27.4z M-140.6,5.5l-1.1,9.2l-1,0.8l-0.8-1l1.1-9.2l1-0.8L-140.6,5.5z M-137.3,16.9l0.3,1.4l-3.9,7.1l-1.2,0.5
			l-0.3-1.5l3.9-7L-137.3,16.9z M-131.1,4.7l0.8,1l-1,0.8l-9.1-1.1l-0.8-1l1-0.8L-131.1,4.7z M-132.1,7l0.3,1.4l-3.9,7.1l-1.2,0.5
			l-0.3-1.5l3.9-7L-132.1,7z M-130.7,18.2l-1.1,9.2l-1,0.8l-0.8-1l1.1-9.2l1-0.8L-130.7,18.2z M-129.3,6.9l-1.1,9.2l-1,0.8l-0.8-1
			l1.1-9.2l1-0.8L-129.3,6.9z"/>
		<path class="st14" d="M-120.4,16.8l-1.1,9.2l-1,0.8l-0.8-1l1.1-9.2l1-0.8L-120.4,16.8z M-112.2,27.4l0.8,1l-1,0.8l-9.1-1.1l-0.8-1
			l1-0.8L-112.2,27.4z M-119,5.5l-1.1,9.2l-1,0.8l-0.8-1l1.1-9.2l1-0.8L-119,5.5z M-115.7,16.9l0.3,1.4l-3.9,7.1l-1.2,0.5l-0.3-1.5
			l3.9-7L-115.7,16.9z M-109.4,4.7l0.8,1l-1,0.8l-9.1-1.1l-0.8-1l1-0.8L-109.4,4.7z M-110.4,7l0.3,1.4l-3.9,7.1l-1.2,0.5l-0.3-1.5
			l3.9-7L-110.4,7z M-109.1,18.2l-1.1,9.2l-1,0.8l-0.8-1l1.1-9.2l1-0.8L-109.1,18.2z M-107.7,6.9l-1.1,9.2l-1,0.8l-0.8-1l1.1-9.2
			l1-0.8L-107.7,6.9z"/>
		<path class="st14" d="M-98.8,16.8l-1.1,9.2l-1,0.8l-0.8-1l1.1-9.2l1-0.8L-98.8,16.8z M-90.6,27.4l0.8,1l-1,0.8l-9.1-1.1l-0.8-1
			l1-0.8L-90.6,27.4z M-97.4,5.5l-1.1,9.2l-1,0.8l-0.8-1l1.1-9.2l1-0.8L-97.4,5.5z M-94.1,16.9l0.3,1.4l-3.9,7.1l-1.2,0.5l-0.3-1.5
			l3.9-7L-94.1,16.9z M-87.8,4.7l0.8,1l-1,0.8l-9.1-1.1l-0.8-1l1-0.8L-87.8,4.7z M-88.8,7l0.3,1.4l-3.9,7.1l-1.2,0.5l-0.3-1.5l3.9-7
			L-88.8,7z M-87.5,18.2l-1.1,9.2l-1,0.8l-0.8-1l1.1-9.2l1-0.8L-87.5,18.2z M-86.1,6.9l-1.1,9.2l-1,0.8l-0.8-1l1.1-9.2l1-0.8
			L-86.1,6.9z"/>
		<path class="st14" d="M-77.2,16.8l-1.1,9.2l-1,0.8l-0.8-1l1.1-9.2l1-0.8L-77.2,16.8z M-68.9,27.4l0.8,1l-1,0.8l-9.1-1.1l-0.8-1
			l1-0.8L-68.9,27.4z M-75.8,5.5l-1.1,9.2l-1,0.8l-0.8-1l1.1-9.2l1-0.8L-75.8,5.5z M-72.5,16.9l0.3,1.4l-3.9,7.1l-1.2,0.5l-0.3-1.5
			l3.9-7L-72.5,16.9z M-66.2,4.7l0.8,1l-1,0.8l-9.1-1.1l-0.8-1l1-0.8L-66.2,4.7z M-67.2,7l0.3,1.4l-3.9,7.1l-1.2,0.5l-0.3-1.5l3.9-7
			L-67.2,7z M-65.8,18.2l-1.1,9.2l-1,0.8l-0.8-1l1.1-9.2l1-0.8L-65.8,18.2z M-64.5,6.9l-1.1,9.2l-1,0.8l-0.8-1l1.1-9.2l1-0.8
			L-64.5,6.9z"/>
	</g>
</g>
<g id="R_Flag" class="st0">
	<g class="st2">
		<rect x="-435" y="81.5" class="st5" width="12.6" height="13.5"/>
		<path class="st15" d="M-434.1,90.1v-8.6h3.7c0.9,0,1.6,0.1,2,0.2s0.7,0.4,1,0.8s0.4,0.8,0.4,1.4c0,0.6-0.2,1.2-0.6,1.6
			s-0.9,0.7-1.7,0.8c0.4,0.2,0.7,0.5,0.9,0.7s0.6,0.7,1,1.4l1,1.7h-2.1l-1.3-1.9c-0.4-0.7-0.8-1.1-0.9-1.3s-0.3-0.3-0.5-0.4
			s-0.5-0.1-0.9-0.1h-0.4v3.6H-434.1z M-432.4,85.1h1.3c0.8,0,1.4,0,1.6-0.1s0.4-0.2,0.5-0.4s0.2-0.4,0.2-0.6c0-0.3-0.1-0.5-0.2-0.7
			s-0.4-0.3-0.7-0.3c-0.1,0-0.6,0-1.3,0h-1.4V85.1z"/>
	</g>
</g>
<g id="P_Flag" class="st0">
	<g class="st2">
		<rect x="-453.9" y="81.5" class="st5" width="10" height="13.5"/>
		<path class="st15" d="M-453,90.1v-8.6h2.8c1.1,0,1.7,0,2.1,0.1c0.5,0.1,0.9,0.4,1.2,0.8s0.5,1,0.5,1.7c0,0.5-0.1,1-0.3,1.3
			s-0.4,0.6-0.7,0.8s-0.6,0.3-0.9,0.4c-0.4,0.1-1,0.1-1.8,0.1h-1.1v3.2H-453z M-451.3,82.9v2.4h0.9c0.7,0,1.1,0,1.4-0.1
			s0.4-0.2,0.5-0.4s0.2-0.4,0.2-0.7c0-0.3-0.1-0.6-0.3-0.8s-0.4-0.3-0.7-0.4c-0.2,0-0.6-0.1-1.2-0.1H-451.3z"/>
	</g>
</g>
<g id="L_Arm_Flag" class="st0">
	<g class="st2">
		<rect x="-319.9" y="28.6" class="st5" width="9" height="37.5"/>
		<path class="st14" d="M-318.4,38l3-7.9h1.1l3.2,7.9h-1.2l-0.9-2.4h-3.3l-0.9,2.4H-318.4z M-316.2,34.8h2.7l-0.8-2.2
			c-0.3-0.7-0.4-1.2-0.6-1.6c-0.1,0.5-0.2,1-0.4,1.5L-316.2,34.8z"/>
		<path class="st14" d="M-317.9,50.7v-7.9h3.5c0.7,0,1.2,0.1,1.6,0.2c0.4,0.1,0.7,0.4,0.9,0.7s0.3,0.8,0.3,1.2c0,0.6-0.2,1-0.5,1.4
			s-0.9,0.6-1.7,0.7c0.3,0.1,0.5,0.3,0.6,0.4c0.3,0.3,0.6,0.6,0.9,1l1.4,2.1h-1.3l-1-1.6c-0.3-0.5-0.6-0.8-0.8-1.1
			c-0.2-0.3-0.4-0.4-0.5-0.5c-0.2-0.1-0.3-0.2-0.5-0.2c-0.1,0-0.3,0-0.6,0h-1.2v3.5H-317.9z M-316.8,46.3h2.2c0.5,0,0.8,0,1.1-0.1
			c0.3-0.1,0.5-0.3,0.6-0.5c0.1-0.2,0.2-0.5,0.2-0.7c0-0.4-0.1-0.7-0.4-0.9s-0.7-0.4-1.3-0.4h-2.5V46.3z"/>
		<path class="st14" d="M-318.5,63.4v-7.9h1.6l1.9,5.6c0.2,0.5,0.3,0.9,0.4,1.2c0.1-0.3,0.2-0.7,0.4-1.3l1.9-5.5h1.4v7.9h-1v-6.6
			l-2.3,6.6h-0.9l-2.3-6.7v6.7H-318.5z"/>
	</g>
</g>
<g id="R_Arm_Flag" class="st0">
	<g class="st2">
		<rect x="-214.9" y="27.9" class="st5" width="9" height="37.5"/>
		<path class="st14" d="M-213.4,37.3l3-7.9h1.1l3.2,7.9h-1.2l-0.9-2.4h-3.3l-0.9,2.4H-213.4z M-211.2,34.1h2.7l-0.8-2.2
			c-0.3-0.7-0.4-1.2-0.6-1.6c-0.1,0.5-0.2,1-0.4,1.5L-211.2,34.1z"/>
		<path class="st14" d="M-212.9,50v-7.9h3.5c0.7,0,1.2,0.1,1.6,0.2c0.4,0.1,0.7,0.4,0.9,0.7s0.3,0.8,0.3,1.2c0,0.6-0.2,1-0.5,1.4
			s-0.9,0.6-1.7,0.7c0.3,0.1,0.5,0.3,0.6,0.4c0.3,0.3,0.6,0.6,0.9,1l1.4,2.1h-1.3l-1-1.6c-0.3-0.5-0.6-0.8-0.8-1.1
			c-0.2-0.3-0.4-0.4-0.5-0.5c-0.2-0.1-0.3-0.2-0.5-0.2c-0.1,0-0.3,0-0.6,0h-1.2V50H-212.9z M-211.8,45.6h2.2c0.5,0,0.8,0,1.1-0.1
			c0.3-0.1,0.5-0.3,0.6-0.5c0.1-0.2,0.2-0.5,0.2-0.7c0-0.4-0.1-0.7-0.4-0.9s-0.7-0.4-1.3-0.4h-2.5V45.6z"/>
		<path class="st14" d="M-213.5,62.7v-7.9h1.6l1.9,5.6c0.2,0.5,0.3,0.9,0.4,1.2c0.1-0.3,0.2-0.7,0.4-1.3l1.9-5.5h1.4v7.9h-1v-6.6
			l-2.3,6.6h-0.9l-2.3-6.7v6.7H-213.5z"/>
	</g>
</g>
<g id="PT_Down" class="st0">
	<polygon class="st16" points="-193.3,50.7 -189.1,61.3 -185,50.7 	"/>
</g>
<g id="PT_Up" class="st0">
	<polygon class="st16" points="-193.3,17.6 -189.1,7 -185,17.6 	"/>
</g>
<g id="PT_Flag" class="st0">
	<g class="st2">
		<rect x="-194.4" y="21.6" class="st5" width="9" height="26.7"/>
		<path class="st14" d="M-192.1,31.1v-7.9h3c0.5,0,0.9,0,1.2,0.1c0.4,0.1,0.7,0.2,1,0.4c0.3,0.2,0.5,0.4,0.6,0.8s0.2,0.7,0.2,1.1
			c0,0.7-0.2,1.2-0.6,1.7c-0.4,0.5-1.2,0.7-2.3,0.7h-2v3.2H-192.1z M-191.1,26.9h2c0.7,0,1.2-0.1,1.4-0.4s0.4-0.6,0.4-1.1
			c0-0.3-0.1-0.6-0.3-0.8c-0.2-0.2-0.4-0.4-0.7-0.5c-0.2,0-0.5-0.1-1-0.1h-2V26.9z"/>
		<path class="st14" d="M-189.8,43.7v-6.9h-2.6v-0.9h6.2v0.9h-2.6v6.9H-189.8z"/>
	</g>
</g>
<g id="FPM_Flag" class="st0">
	<g class="st2">
		<rect x="-112.9" y="38.2" class="st5" width="26.8" height="8.4"/>
		<path class="st14" d="M-112,46.1v-7.9h5.3v0.9h-4.3v2.4h3.7v0.9h-3.7v3.6H-112z"/>
		<path class="st14" d="M-103.7,46.1v-7.9h3c0.5,0,0.9,0,1.2,0.1c0.4,0.1,0.7,0.2,1,0.4c0.3,0.2,0.5,0.4,0.6,0.8s0.2,0.7,0.2,1.1
			c0,0.7-0.2,1.2-0.6,1.7c-0.4,0.5-1.2,0.7-2.3,0.7h-2v3.2H-103.7z M-102.6,42h2c0.7,0,1.2-0.1,1.4-0.4s0.4-0.6,0.4-1.1
			c0-0.3-0.1-0.6-0.3-0.8c-0.2-0.2-0.4-0.4-0.7-0.5c-0.2,0-0.5-0.1-1-0.1h-2V42z"/>
		<path class="st14" d="M-94.7,46.1v-7.9h1.6l1.9,5.6c0.2,0.5,0.3,0.9,0.4,1.2c0.1-0.3,0.2-0.7,0.4-1.3l1.9-5.5h1.4v7.9h-1v-6.6
			l-2.3,6.6h-0.9l-2.3-6.7v6.7H-94.7z"/>
	</g>
</g>
<g id="ALERT_Flag" class="st0">
	<g class="st2">
		<rect x="-167.7" y="38.2" class="st5" width="43.8" height="8.4"/>
		<path class="st14" d="M-167.7,46.1l3-7.9h1.1l3.2,7.9h-1.2l-0.9-2.4h-3.3l-0.9,2.4H-167.7z M-165.4,42.9h2.7l-0.8-2.2
			c-0.3-0.7-0.4-1.2-0.6-1.6c-0.1,0.5-0.2,1-0.4,1.5L-165.4,42.9z"/>
		<path class="st14" d="M-157.8,46.1v-7.9h1v6.9h3.9v0.9H-157.8z"/>
		<path class="st14" d="M-150,46.1v-7.9h5.7v0.9h-4.7v2.4h4.4v0.9h-4.4v2.7h4.8v0.9H-150z"/>
		<path class="st14" d="M-141,46.1v-7.9h3.5c0.7,0,1.2,0.1,1.6,0.2c0.4,0.1,0.7,0.4,0.9,0.7s0.3,0.8,0.3,1.2c0,0.6-0.2,1-0.5,1.4
			s-0.9,0.6-1.7,0.7c0.3,0.1,0.5,0.3,0.6,0.4c0.3,0.3,0.6,0.6,0.9,1l1.4,2.1h-1.3l-1-1.6c-0.3-0.5-0.6-0.8-0.8-1.1
			c-0.2-0.3-0.4-0.4-0.5-0.5c-0.2-0.1-0.3-0.2-0.5-0.2c-0.1,0-0.3,0-0.6,0h-1.2v3.5H-141z M-140,41.7h2.2c0.5,0,0.8,0,1.1-0.1
			c0.3-0.1,0.5-0.3,0.6-0.5c0.1-0.2,0.2-0.5,0.2-0.7c0-0.4-0.1-0.7-0.4-0.9s-0.7-0.4-1.3-0.4h-2.5V41.7z"/>
		<path class="st14" d="M-129.6,46.1v-6.9h-2.6v-0.9h6.2v0.9h-2.6v6.9H-129.6z"/>
	</g>
</g>
<g id="HPA_Flag" class="st0">
	<g class="st2">
		<rect x="-151.9" y="51.8" class="st5" width="25.8" height="8.4"/>
		<path class="st14" d="M-151,59.7v-7.9h1v3.2h4.1v-3.2h1v7.9h-1V56h-4.1v3.7H-151z"/>
		<path class="st14" d="M-141.5,59.7v-7.9h3c0.5,0,0.9,0,1.2,0.1c0.4,0.1,0.7,0.2,1,0.4c0.3,0.2,0.5,0.4,0.6,0.8s0.2,0.7,0.2,1.1
			c0,0.7-0.2,1.2-0.6,1.7c-0.4,0.5-1.2,0.7-2.3,0.7h-2v3.2H-141.5z M-140.4,55.6h2c0.7,0,1.2-0.1,1.4-0.4s0.4-0.6,0.4-1.1
			c0-0.3-0.1-0.6-0.3-0.8c-0.2-0.2-0.4-0.4-0.7-0.5c-0.2,0-0.5-0.1-1-0.1h-2V55.6z"/>
		<path class="st14" d="M-134.2,59.7l3-7.9h1.1l3.2,7.9h-1.2l-0.9-2.4h-3.3l-0.9,2.4H-134.2z M-131.9,56.5h2.7l-0.8-2.2
			c-0.3-0.7-0.4-1.2-0.6-1.6c-0.1,0.5-0.2,1-0.4,1.5L-131.9,56.5z"/>
	</g>
</g>
<g id="IN_HG_Flag" class="st0">
	<g class="st2">
		<rect x="-99.5" y="51.8" class="st5" width="15.8" height="8.4"/>
		<path class="st14" d="M-98.5,59.7v-7.9h1v7.9H-98.5z"/>
		<path class="st14" d="M-94,59.7v-7.9h1.1l4.1,6.2v-6.2h1v7.9h-1.1l-4.1-6.2v6.2H-94z"/>
	</g>
	<g class="st2">
		<rect x="-80.4" y="51.8" class="st5" width="19.7" height="8.4"/>
		<path class="st14" d="M-79.5,59.7v-7.9h1v3.2h4.1v-3.2h1v7.9h-1V56h-4.1v3.7H-79.5z"/>
		<path class="st14" d="M-66.3,56.6v-0.9l3.3,0v2.9c-0.5,0.4-1,0.7-1.6,0.9c-0.5,0.2-1.1,0.3-1.7,0.3c-0.8,0-1.5-0.2-2.1-0.5
			c-0.6-0.3-1.1-0.8-1.4-1.4s-0.5-1.3-0.5-2.1c0-0.8,0.2-1.5,0.5-2.1c0.3-0.7,0.8-1.2,1.4-1.5s1.3-0.5,2.1-0.5
			c0.6,0,1.1,0.1,1.5,0.3c0.5,0.2,0.8,0.4,1.1,0.8s0.5,0.8,0.6,1.3l-0.9,0.3c-0.1-0.4-0.3-0.7-0.4-0.9s-0.4-0.4-0.8-0.6
			c-0.3-0.1-0.7-0.2-1.1-0.2c-0.5,0-0.9,0.1-1.2,0.2c-0.3,0.1-0.6,0.3-0.8,0.6s-0.4,0.5-0.5,0.8c-0.2,0.5-0.3,1-0.3,1.6
			c0,0.7,0.1,1.3,0.4,1.8c0.2,0.5,0.6,0.8,1.1,1.1c0.5,0.2,1,0.3,1.5,0.3c0.5,0,0.9-0.1,1.3-0.3c0.4-0.2,0.8-0.4,1-0.6v-1.5H-66.3z"
			/>
	</g>
</g>
<g id="FT_Flag" class="st0">
	<g class="st2">
		<rect x="-80.4" y="38.2" class="st5" width="15.8" height="8.4"/>
		<path class="st14" d="M-79.5,46.1v-7.9h5.3v0.9h-4.3v2.4h3.7v0.9h-3.7v3.6H-79.5z"/>
		<path class="st14" d="M-69.2,46.1v-6.9h-2.6v-0.9h6.2v0.9h-2.6v6.9H-69.2z"/>
	</g>
</g>
<g id="AP_Flag" class="st0">
	<g class="st2">
		<rect x="-304.2" y="9.2" class="st5" width="16.8" height="8.4"/>
		<path class="st14" d="M-304.2,17.1l3-7.9h1.1l3.2,7.9h-1.2l-0.9-2.4h-3.3l-0.9,2.4H-304.2z M-301.9,13.9h2.7l-0.8-2.2
			c-0.3-0.7-0.4-1.2-0.6-1.6c-0.1,0.5-0.2,1-0.4,1.5L-301.9,13.9z"/>
		<path class="st14" d="M-294.3,17.1V9.3h3c0.5,0,0.9,0,1.2,0.1c0.4,0.1,0.7,0.2,1,0.4c0.3,0.2,0.5,0.4,0.6,0.8s0.2,0.7,0.2,1.1
			c0,0.7-0.2,1.2-0.6,1.7c-0.4,0.5-1.2,0.7-2.3,0.7h-2v3.2H-294.3z M-293.3,13h2c0.7,0,1.2-0.1,1.4-0.4s0.4-0.6,0.4-1.1
			c0-0.3-0.1-0.6-0.3-0.8c-0.2-0.2-0.4-0.4-0.7-0.5c-0.2,0-0.5-0.1-1-0.1h-2V13z"/>
	</g>
	<polygon class="st16" points="-287.6,7 -304.6,7 -306.1,5.5 -286.3,5.5 	"/>
	<polygon class="st16" points="-287.3,20.1 -304.3,20.1 -305.8,21.6 -286,21.6 	"/>
	<polygon class="st16" points="-286.6,7.5 -286.6,19.4 -285.1,20.4 -285.1,6.5 	"/>
	<polygon class="st16" points="-305.5,7.5 -305.5,19.4 -307,20.4 -307,6.5 	"/>
</g>
</svg>
