<?xml version="1.0" encoding="utf-8"?>
<!-- Generator: Adobe Illustrator 19.0.0, SVG Export Plug-In . SVG Version: 6.00 Build 0)  -->
<svg version="1.1" xmlns="http://www.w3.org/2000/svg" xmlns:xlink="http://www.w3.org/1999/xlink" x="0px" y="0px"
	 viewBox="0 0 33.1 19.8" style="enable-background:new 0 0 33.1 19.8;" xml:space="preserve">
<style type="text/css">
	.st0{display:none;}
	.st1{display:inline;fill:#282828;stroke:#E5E5E5;stroke-width:2;stroke-miterlimit:10;}
	.st2{display:inline;}
	.st3{display:inline;fill:#58595B;}
	.st4{display:inline;fill:none;stroke:#414042;stroke-width:2;stroke-miterlimit:10;}
	.st5{fill:none;}
	.st6{fill:#414042;}
	.st7{display:inline;fill:none;stroke:#FFFFFF;stroke-miterlimit:10;}
	.st8{fill:#FFFFFF;}
	.st9{display:inline;fill:#3F403F;stroke:#000000;stroke-miterlimit:10;}
	.st10{fill:none;stroke:#000000;stroke-width:1.5;stroke-miterlimit:10;stroke-dasharray:1.5093,1.5093;}
	.st11{fill:#3F403F;stroke:#000000;stroke-width:2;stroke-miterlimit:10;}
	.st12{fill:none;stroke:#000000;stroke-width:1.5;stroke-miterlimit:10;stroke-dasharray:1.5898,1.5898;}
	.st13{fill:#FFFFFF;stroke:#FFFFFF;stroke-miterlimit:10;}
	.st14{fill:#F7941E;}
	.st15{fill:#ED1C24;}
	.st16{display:inline;fill:#F7941E;}
</style>
<g id="Layer_1" class="st0">
	<path id="XMLID_814_" class="st1" d="M149.8,42.6h-586.7c-1.7,0-3-0.9-3-2v-150c0-1.1,1.3-2,3-2h586.7c1.7,0,3,0.9,3,2v150
		C152.8,41.8,151.4,42.6,149.8,42.6z"/>
</g>
<g id="Base" class="st0">
	<path class="st2" d="M-21-35.5c0,4.3-2.1,7.8-4.7,7.8h-321.5c-2.6,0-4.7-3.5-4.7-7.8v-52.4c0-4.3,2.1-7.8,4.7-7.8h321.5
		c2.6,0,4.7,3.5,4.7,7.8V-35.5z"/>
	<circle class="st3" cx="16.6" cy="-76.8" r="5.7"/>
	<line class="st4" x1="10.8" y1="-76.8" x2="22.3" y2="-76.8"/>
	<g class="st2">
		<rect x="-398" y="-15.5" class="st5" width="12.6" height="13.5"/>
		<path class="st6" d="M-397.1-6.9v-8.6h3.7c0.9,0,1.6,0.1,2,0.2s0.7,0.4,1,0.8s0.4,0.8,0.4,1.4c0,0.6-0.2,1.2-0.6,1.6
			s-0.9,0.7-1.7,0.8c0.4,0.2,0.7,0.5,0.9,0.7s0.6,0.7,1,1.4l1,1.7h-2.1l-1.3-1.9c-0.4-0.7-0.8-1.1-0.9-1.3s-0.3-0.3-0.5-0.4
			s-0.5-0.1-0.9-0.1h-0.4v3.6H-397.1z M-395.4-11.9h1.3c0.8,0,1.4,0,1.6-0.1s0.4-0.2,0.5-0.4s0.2-0.4,0.2-0.6c0-0.3-0.1-0.5-0.2-0.7
			s-0.4-0.3-0.7-0.3c-0.1,0-0.6,0-1.3,0h-1.4V-11.9z"/>
	</g>
	<g class="st2">
		<rect x="-416.9" y="-15.5" class="st5" width="10" height="13.5"/>
		<path class="st6" d="M-416-6.9v-8.6h2.8c1.1,0,1.7,0,2.1,0.1c0.5,0.1,0.9,0.4,1.2,0.8s0.5,1,0.5,1.7c0,0.5-0.1,1-0.3,1.3
			s-0.4,0.6-0.7,0.8s-0.6,0.3-0.9,0.4c-0.4,0.1-1,0.1-1.8,0.1h-1.1v3.2H-416z M-414.3-14.1v2.4h0.9c0.7,0,1.1,0,1.4-0.1
			s0.4-0.2,0.5-0.4s0.2-0.4,0.2-0.7c0-0.3-0.1-0.6-0.3-0.8s-0.4-0.3-0.7-0.4c-0.2,0-0.6-0.1-1.2-0.1H-414.3z"/>
	</g>
	<path class="st7" d="M37.5,21.4c0,2.8-1.9,5.1-4.3,5.1H-1.2c-2.4,0-4.3-2.3-4.3-5.1v-70.9c0-2.8,1.9-5.1,4.3-5.1h34.4
		c2.4,0,4.3,2.3,4.3,5.1V21.4z"/>
</g>
<g id="Labels" class="st0">
	<g class="st2">
		<rect x="-418.8" y="-89.6" class="st5" width="41.6" height="9.1"/>
		<path class="st8" d="M-418.1-82.1v-7.4h1v3.7l3.7-3.7h1.3l-3.1,3l3.3,4.4h-1.3l-2.6-3.8l-1.2,1.2v2.6H-418.1z"/>
		<path class="st8" d="M-411.9-82.1l2.9-7.4h1.1l3,7.4h-1.1l-0.9-2.3h-3.1l-0.8,2.3H-411.9z M-409.8-85.2h2.5l-0.8-2.1
			c-0.2-0.6-0.4-1.1-0.5-1.5c-0.1,0.5-0.2,1-0.4,1.4L-409.8-85.2z"/>
		<path class="st8" d="M-404.2-82.1v-7.4h2.8c0.5,0,0.9,0,1.1,0.1c0.4,0.1,0.7,0.2,0.9,0.3s0.4,0.4,0.6,0.7s0.2,0.6,0.2,1
			c0,0.6-0.2,1.2-0.6,1.6c-0.4,0.4-1.1,0.7-2.2,0.7h-1.9v3H-404.2z M-403.2-86h1.9c0.6,0,1.1-0.1,1.4-0.4c0.3-0.2,0.4-0.6,0.4-1
			c0-0.3-0.1-0.6-0.2-0.8s-0.4-0.4-0.6-0.4c-0.2,0-0.5-0.1-0.9-0.1h-1.9V-86z"/>
		<path class="st8" d="M-391.5-82.1h-0.9v-5.8c-0.2,0.2-0.5,0.4-0.9,0.6s-0.7,0.4-1,0.5v-0.9c0.5-0.2,1-0.5,1.3-0.9
			c0.4-0.3,0.7-0.7,0.8-1h0.6V-82.1z"/>
		<path class="st8" d="M-386.2-82.1v-1.8h-3.2v-0.8l3.4-4.8h0.7v4.8h1v0.8h-1v1.8H-386.2z M-386.2-84.7v-3.4l-2.3,3.4H-386.2z"/>
		<path class="st8" d="M-383.3-85.8c0-0.9,0.1-1.6,0.3-2.1c0.2-0.5,0.4-0.9,0.8-1.2s0.8-0.4,1.3-0.4c0.4,0,0.7,0.1,1.1,0.2
			c0.3,0.2,0.5,0.4,0.7,0.7c0.2,0.3,0.4,0.7,0.5,1.1c0.1,0.4,0.2,1,0.2,1.8c0,0.9-0.1,1.6-0.3,2.1c-0.2,0.5-0.4,1-0.8,1.2
			c-0.4,0.3-0.8,0.4-1.4,0.4c-0.7,0-1.3-0.3-1.7-0.8C-383.1-83.4-383.3-84.4-383.3-85.8z M-382.4-85.8c0,1.2,0.1,2,0.4,2.4
			c0.3,0.4,0.6,0.6,1.1,0.6s0.8-0.2,1.1-0.6c0.3-0.4,0.4-1.2,0.4-2.4c0-1.2-0.1-2-0.4-2.4c-0.3-0.4-0.6-0.6-1.1-0.6
			c-0.4,0-0.8,0.2-1,0.5C-382.2-87.9-382.4-87-382.4-85.8z"/>
	</g>
	<g class="st2">
		<rect x="-430.9" y="-101.4" class="st5" width="59.6" height="7.2"/>
		<path class="st8" d="M-430.6-95.2l1.3-6.3h2.2c0.5,0,0.8,0,1,0c0.3,0,0.6,0.1,0.8,0.3c0.2,0.1,0.4,0.3,0.5,0.5
			c0.1,0.2,0.2,0.5,0.2,0.7c0,0.3-0.1,0.7-0.3,0.9c-0.2,0.3-0.5,0.5-0.9,0.6c0.3,0.1,0.6,0.2,0.8,0.5s0.3,0.5,0.3,0.8
			c0,0.4-0.1,0.7-0.3,1.1c-0.2,0.3-0.5,0.6-0.9,0.7s-0.9,0.2-1.5,0.2H-430.6z M-429.1-96.2h1.2c0.5,0,0.9,0,1.1-0.1
			c0.2-0.1,0.3-0.2,0.4-0.3c0.1-0.2,0.2-0.3,0.2-0.5c0-0.2-0.1-0.4-0.2-0.5c-0.2-0.1-0.4-0.2-0.8-0.2h-1.5L-429.1-96.2z
			 M-428.5-98.9h1c0.4,0,0.8,0,1-0.1c0.2-0.1,0.3-0.2,0.4-0.3c0.1-0.1,0.1-0.3,0.1-0.5c0-0.2,0-0.3-0.1-0.4s-0.2-0.2-0.4-0.2
			c-0.1,0-0.3,0-0.7,0h-1L-428.5-98.9z"/>
		<path class="st8" d="M-424.2-95.2l1.3-6.3h4.7l-0.2,1.1h-3.4l-0.3,1.4h3.3l-0.2,1.1h-3.3l-0.4,1.7h3.7l-0.2,1.1H-424.2z"/>
		<path class="st8" d="M-413.3-95.2h-1.2l-1.7-4.2l-0.9,4.2h-1.2l1.3-6.3h1.2l1.7,4.2l0.9-4.2h1.2L-413.3-95.2z"/>
		<path class="st8" d="M-412-95.2l1.3-6.3h1.7c0.5,0,0.8,0,0.9,0c0.3,0,0.5,0.1,0.7,0.2c0.2,0.1,0.4,0.2,0.6,0.3s0.3,0.3,0.4,0.5
			s0.2,0.4,0.3,0.7c0.1,0.3,0.1,0.6,0.1,0.9c0,0.7-0.1,1.3-0.4,1.8c-0.3,0.5-0.6,0.9-1,1.3c-0.3,0.2-0.7,0.4-1.2,0.5
			c-0.3,0.1-0.7,0.1-1.2,0.1H-412z M-410.5-96.2h0.7c0.5,0,0.8,0,1-0.1c0.2-0.1,0.4-0.2,0.6-0.3c0.3-0.2,0.5-0.5,0.6-0.9
			c0.2-0.4,0.3-0.8,0.3-1.4c0-0.4-0.1-0.8-0.2-1s-0.3-0.4-0.5-0.4c-0.1-0.1-0.4-0.1-0.8-0.1h-0.8L-410.5-96.2z"/>
		<path class="st8" d="M-405.7-95.2l1.3-6.3h1.3l-1.3,6.3H-405.7z"/>
		<path class="st8" d="M-402.2-95.2h-1.7l2.8-3.2l-1.6-3.1h1.4l0.6,1.2c0,0,0.2,0.3,0.4,0.9c0,0,0,0.1,0.1,0.1
			c0.3-0.4,0.6-0.8,0.9-1l1-1.1h1.6l-2.9,3.3l1.5,3h-1.5l-0.5-0.9c-0.2-0.5-0.4-0.9-0.5-1.1c-0.1,0.2-0.4,0.5-0.9,1L-402.2-95.2z"/>
		<path class="st8" d="M-398.1-95l3.1-6.5h0.9l-3.1,6.5H-398.1z"/>
		<path class="st8" d="M-394.9-95.2l1.3-6.3h1.3l-0.6,2.7l2.9-2.7h1.7L-391-99l2.1,3.8h-1.5l-1.6-3l-1.2,1.1l-0.4,1.9H-394.9z"/>
		<path class="st8" d="M-388.6-95.2l1.3-6.3h1.3l-1.3,6.3H-388.6z"/>
		<path class="st8" d="M-381.1-95.2h-1.2l-1.7-4.2l-0.9,4.2h-1.2l1.3-6.3h1.2l1.7,4.2l0.9-4.2h1.2L-381.1-95.2z"/>
		<path class="st8" d="M-376.3-98.5h2.8l-0.6,2.7c-0.3,0.2-0.7,0.4-1.2,0.5c-0.5,0.1-1,0.2-1.5,0.2c-0.8,0-1.4-0.2-1.8-0.5
			c-0.6-0.5-0.9-1.2-0.9-2.1c0-0.6,0.1-1.2,0.4-1.8c0.3-0.7,0.7-1.2,1.2-1.6s1.2-0.6,1.9-0.6s1.3,0.2,1.7,0.5s0.7,0.8,0.9,1.5
			l-1.2,0.1c-0.1-0.4-0.3-0.6-0.5-0.8c-0.2-0.2-0.5-0.3-0.9-0.3c-0.4,0-0.8,0.1-1.2,0.3s-0.6,0.6-0.8,1c-0.2,0.5-0.3,1-0.3,1.5
			c0,0.5,0.1,0.9,0.4,1.2c0.2,0.3,0.6,0.4,1.1,0.4c0.3,0,0.6,0,0.9-0.1c0.3-0.1,0.5-0.2,0.8-0.3l0.2-0.9h-1.6L-376.3-98.5z"/>
	</g>
</g>
<g id="Outer_Knob_R" class="st0">
	<path class="st9" d="M126.7-12.4c0,17-13.8,30.9-30.9,30.9C78.8,18.5,65,4.7,65-12.4c0-17.1,13.8-30.9,30.9-30.9
		C112.9-43.3,126.7-29.5,126.7-12.4z"/>
	<g class="st2">
		<g>
			<path class="st10" d="M127.6-12.4c0,17.5-14.2,31.7-31.7,31.7c-17.5,0-31.7-14.2-31.7-31.7c0-17.5,14.2-31.7,31.7-31.7
				C113.4-44.1,127.6-29.9,127.6-12.4z"/>
		</g>
	</g>
</g>
<g id="Inner_Knob_R" class="st0">
	<g class="st2">
		<circle class="st11" cx="95.8" cy="-12.4" r="20.8"/>
		<g>
			<path class="st12" d="M117.6-12.4c0,12-9.7,21.8-21.8,21.8S74.1-0.4,74.1-12.4c0-12,9.7-21.8,21.8-21.8S117.6-24.4,117.6-12.4z"
				/>
		</g>
	</g>
</g>
<g id="BARO_Button">
	<path class="st13" d="M128.6-79.7c0,1.1-0.9,2-2,2H98.5c-1.1,0-2-0.9-2-2v-14.8c0-1.1,0.9-2,2-2h28.1c1.1,0,2,0.9,2,2V-79.7z"/>
	<g>
		<path d="M98.6-82.7v-7.9h2.8c0.6,0,1,0.1,1.3,0.2c0.3,0.2,0.6,0.4,0.8,0.7s0.3,0.7,0.3,1.1c0,0.4-0.1,0.7-0.3,1
			c-0.2,0.3-0.4,0.5-0.8,0.7c0.4,0.1,0.8,0.4,1,0.7c0.2,0.3,0.4,0.7,0.4,1.2c0,0.5-0.1,0.9-0.3,1.3s-0.5,0.6-0.9,0.8
			s-0.9,0.2-1.5,0.2H98.6z M99.6-87.3h1.6c0.4,0,0.7,0,0.9-0.1c0.3-0.1,0.5-0.2,0.6-0.4c0.1-0.2,0.2-0.4,0.2-0.7
			c0-0.3-0.1-0.5-0.2-0.7c-0.1-0.2-0.3-0.3-0.5-0.4c-0.2-0.1-0.6-0.1-1.1-0.1h-1.5V-87.3z M99.6-83.7h1.9c0.4,0,0.7,0,0.9-0.1
			c0.3-0.1,0.5-0.2,0.6-0.5s0.2-0.5,0.2-0.8c0-0.3-0.1-0.5-0.2-0.8s-0.3-0.4-0.6-0.5s-0.6-0.1-1.1-0.1h-1.7V-83.7z"/>
		<path d="M104.8-82.7l2.9-7.9h1.1l3,7.9h-1.1l-0.9-2.4h-3.1l-0.8,2.4H104.8z M106.9-86h2.5l-0.8-2.2c-0.2-0.7-0.4-1.2-0.5-1.6
			c-0.1,0.5-0.2,1-0.4,1.5L106.9-86z"/>
		<path d="M112.5-82.7v-7.9h3.3c0.7,0,1.2,0.1,1.5,0.2c0.3,0.1,0.6,0.4,0.8,0.7s0.3,0.7,0.3,1.2c0,0.6-0.2,1.1-0.5,1.4
			c-0.4,0.4-0.9,0.6-1.6,0.7c0.3,0.1,0.5,0.3,0.6,0.4c0.3,0.3,0.6,0.6,0.8,1l1.3,2.1h-1.2l-1-1.6c-0.4-0.6-0.7-1.1-0.9-1.3
			s-0.4-0.4-0.6-0.4s-0.4-0.1-0.8-0.1h-1.1v3.5H112.5z M113.5-87.1h2.1c0.5,0,0.8,0,1.1-0.1s0.4-0.2,0.6-0.5
			c0.1-0.2,0.2-0.5,0.2-0.7c0-0.4-0.1-0.7-0.4-0.9s-0.7-0.3-1.2-0.3h-2.4V-87.1z"/>
		<path d="M119.7-86.6c0-1.3,0.3-2.4,1-3.1s1.5-1.1,2.5-1.1c0.7,0,1.3,0.2,1.8,0.5s1,0.8,1.3,1.4s0.5,1.3,0.5,2.2
			c0,1.2-0.3,2.1-0.9,2.9c-0.7,0.8-1.6,1.2-2.6,1.2c-1.1,0-2-0.4-2.7-1.2C120-84.6,119.7-85.5,119.7-86.6z M120.8-86.6
			c0,1,0.2,1.7,0.7,2.3c0.5,0.5,1.1,0.8,1.8,0.8c0.7,0,1.3-0.3,1.8-0.8c0.5-0.5,0.7-1.3,0.7-2.4c0-0.7-0.1-1.3-0.4-1.8
			c-0.2-0.4-0.5-0.7-0.9-1c-0.4-0.2-0.8-0.4-1.3-0.4c-0.7,0-1.4,0.3-1.8,0.8C121-88.5,120.8-87.7,120.8-86.6z"/>
	</g>
</g>
<g id="ARM_Button">
	<path class="st13" d="M69.6-79.7c0,1.1-0.9,2-2,2H39.5c-1.1,0-2-0.9-2-2v-14.8c0-1.1,0.9-2,2-2h28.1c1.1,0,2,0.9,2,2V-79.7z"/>
	<g>
		<path d="M42-82.7l2.9-7.9h1.1l3,7.9h-1.1L47-85.1h-3.1L43-82.7H42z M44.1-86h2.5l-0.8-2.2c-0.2-0.7-0.4-1.2-0.5-1.6
			c-0.1,0.5-0.2,1-0.4,1.5L44.1-86z"/>
		<path d="M49.8-82.7v-7.9h3.3c0.7,0,1.2,0.1,1.5,0.2c0.3,0.1,0.6,0.4,0.8,0.7c0.2,0.3,0.3,0.7,0.3,1.2c0,0.6-0.2,1.1-0.5,1.4
			c-0.4,0.4-0.9,0.6-1.6,0.7c0.3,0.1,0.5,0.3,0.6,0.4c0.3,0.3,0.6,0.6,0.8,1l1.3,2.1h-1.2l-1-1.6c-0.4-0.6-0.7-1.1-0.9-1.3
			c-0.2-0.2-0.4-0.4-0.6-0.4c-0.2-0.1-0.4-0.1-0.8-0.1h-1.1v3.5H49.8z M50.7-87.1h2.1c0.5,0,0.8,0,1.1-0.1c0.2-0.1,0.4-0.2,0.6-0.5
			c0.1-0.2,0.2-0.5,0.2-0.7c0-0.4-0.1-0.7-0.4-0.9c-0.3-0.2-0.7-0.3-1.2-0.3h-2.4V-87.1z"/>
		<path d="M57.2-82.7v-7.9h1.5l1.8,5.6l0.4,1.2c0.1-0.3,0.2-0.7,0.4-1.3l1.8-5.5h1.3v7.9h-0.9v-6.6l-2.2,6.6h-0.9l-2.2-6.7v6.7H57.2
			z"/>
	</g>
</g>
<g id="DN_Button">
	<path class="st13" d="M32.6,17.3c0,1.1-0.9,2-2,2H2.5c-1.1,0-2-0.9-2-2V2.5c0-1.1,0.9-2,2-2h28.1c1.1,0,2,0.9,2,2V17.3z"/>
	<g>
		<path d="M9.8,14.3V6.4h2.6c0.6,0,1.1,0,1.4,0.1c0.4,0.1,0.8,0.4,1.1,0.7c0.3,0.3,0.6,0.8,0.7,1.3S16,9.6,16,10.3
			c0,0.9-0.2,1.6-0.5,2.3c-0.3,0.6-0.7,1.1-1.2,1.3s-1.1,0.4-1.9,0.4H9.8z M10.8,13.3h1.6c0.6,0,1.1-0.1,1.5-0.3
			c0.3-0.2,0.6-0.5,0.8-0.9c0.2-0.5,0.4-1.2,0.4-1.9c0-0.8-0.1-1.4-0.4-1.9c-0.3-0.5-0.6-0.8-1-0.9c-0.3-0.1-0.7-0.2-1.3-0.2h-1.6
			V13.3z"/>
		<path d="M17.3,14.3V6.4h1l3.9,6.2V6.4h0.9v7.9h-1l-3.9-6.2v6.2H17.3z"/>
	</g>
</g>
<g id="UP_Button">
	<path class="st13" d="M32.6-30.6c0,1.1-0.9,2-2,2H2.5c-1.1,0-2-0.9-2-2v-14.8c0-1.1,0.9-2,2-2h28.1c1.1,0,2,0.9,2,2V-30.6z"/>
	<g>
		<path d="M15.1-41.5h1v4.5c0,0.8-0.1,1.4-0.3,1.9c-0.2,0.5-0.5,0.9-0.9,1.2s-1,0.4-1.7,0.4c-1,0-1.7-0.3-2.2-0.8
			c-0.5-0.5-0.7-1.4-0.7-2.7v-4.5h1v4.5c0,0.7,0.1,1.2,0.2,1.5c0.1,0.3,0.3,0.6,0.6,0.7c0.3,0.2,0.6,0.3,1.1,0.3
			c0.7,0,1.2-0.2,1.5-0.5s0.5-1,0.5-2V-41.5z"/>
		<path d="M17.7-33.6v-7.9h2.8c0.7,0,1.1,0,1.5,0.2c0.4,0.1,0.8,0.4,1,0.8c0.3,0.4,0.4,0.8,0.4,1.4c0,0.7-0.2,1.3-0.6,1.7
			c-0.4,0.4-1.1,0.7-2.2,0.7h-1.9v3.2H17.7z M18.7-37.8h1.9c0.6,0,1.1-0.1,1.3-0.4c0.3-0.2,0.4-0.6,0.4-1.1c0-0.3-0.1-0.6-0.2-0.8
			c-0.1-0.2-0.3-0.4-0.5-0.5c-0.2-0.1-0.6-0.1-1.1-0.1h-1.9V-37.8z"/>
	</g>
</g>
<g id="ALT_Button">
	<path class="st13" d="M-19.4,21.4c0,1.1-0.9,2-2,2h-28.1c-1.1,0-2-0.9-2-2V6.6c0-1.1,0.9-2,2-2h28.1c1.1,0,2,0.9,2,2V21.4z"/>
	<g>
		<path d="M-44.5,18.4l2.9-7.9h1.1l3,7.9h-1.1l-0.9-2.4h-3.1l-0.8,2.4H-44.5z M-42.4,15.1h2.5l-0.8-2.2c-0.2-0.7-0.4-1.2-0.5-1.6
			c-0.1,0.5-0.2,1-0.4,1.5L-42.4,15.1z"/>
		<path d="M-36.8,18.4v-7.9h1v6.9h3.7v0.9H-36.8z"/>
		<path d="M-29.8,18.4v-6.9h-2.5v-0.9h5.9v0.9h-2.5v6.9H-29.8z"/>
	</g>
</g>
<g id="REV_Button">
	<path class="st13" d="M-79.4,21.4c0,1.1-0.9,2-2,2h-28.1c-1.1,0-2-0.9-2-2V6.6c0-1.1,0.9-2,2-2h28.1c1.1,0,2,0.9,2,2V21.4z"/>
	<g>
		<path d="M-105.3,18.4v-7.9h3.3c0.7,0,1.2,0.1,1.5,0.2c0.3,0.1,0.6,0.4,0.8,0.7c0.2,0.3,0.3,0.7,0.3,1.2c0,0.6-0.2,1.1-0.5,1.4
			c-0.4,0.4-0.9,0.6-1.6,0.7c0.3,0.1,0.5,0.3,0.6,0.4c0.3,0.3,0.6,0.6,0.8,1l1.3,2.1h-1.2l-1-1.6c-0.4-0.6-0.7-1.1-0.9-1.3
			c-0.2-0.2-0.4-0.4-0.6-0.4s-0.4-0.1-0.8-0.1h-1.1v3.5H-105.3z M-104.3,14h2.1c0.5,0,0.8,0,1.1-0.1c0.2-0.1,0.4-0.2,0.6-0.5
			c0.1-0.2,0.2-0.5,0.2-0.7c0-0.4-0.1-0.7-0.4-0.9c-0.3-0.2-0.7-0.3-1.2-0.3h-2.4V14z"/>
		<path d="M-97.8,18.4v-7.9h5.4v0.9h-4.4v2.4h4.1v0.9h-4.1v2.7h4.6v0.9H-97.8z"/>
		<path d="M-88.7,18.4l-2.9-7.9h1.1l1.9,5.7c0.1,0.4,0.3,0.9,0.4,1.3c0.1-0.4,0.2-0.9,0.4-1.3l2-5.7h1l-2.9,7.9H-88.7z"/>
	</g>
</g>
<g id="APR_Button">
	<path class="st13" d="M-146.4,21.4c0,1.1-0.9,2-2,2h-28.1c-1.1,0-2-0.9-2-2V6.6c0-1.1,0.9-2,2-2h28.1c1.1,0,2,0.9,2,2V21.4z"/>
	<g>
		<path d="M-173.1,18.4l2.9-7.9h1.1l3,7.9h-1.1l-0.9-2.4h-3.1l-0.8,2.4H-173.1z M-171,15.1h2.5l-0.8-2.2c-0.2-0.7-0.4-1.2-0.5-1.6
			c-0.1,0.5-0.2,1-0.4,1.5L-171,15.1z"/>
		<path d="M-165.4,18.4v-7.9h2.8c0.7,0,1.1,0,1.5,0.2c0.4,0.1,0.8,0.4,1,0.8c0.3,0.4,0.4,0.8,0.4,1.4c0,0.7-0.2,1.3-0.6,1.7
			c-0.4,0.4-1.1,0.7-2.2,0.7h-1.9v3.2H-165.4z M-164.4,14.2h1.9c0.6,0,1.1-0.1,1.3-0.4s0.4-0.6,0.4-1.1c0-0.3-0.1-0.6-0.2-0.8
			c-0.1-0.2-0.3-0.4-0.5-0.5c-0.2-0.1-0.6-0.1-1.1-0.1h-1.9V14.2z"/>
		<path d="M-158.4,18.4v-7.9h3.3c0.7,0,1.2,0.1,1.5,0.2c0.3,0.1,0.6,0.4,0.8,0.7s0.3,0.7,0.3,1.2c0,0.6-0.2,1.1-0.5,1.4
			c-0.4,0.4-0.9,0.6-1.6,0.7c0.3,0.1,0.5,0.3,0.6,0.4c0.3,0.3,0.6,0.6,0.8,1l1.3,2.1h-1.2l-1-1.6c-0.4-0.6-0.7-1.1-0.9-1.3
			s-0.4-0.4-0.6-0.4c-0.2-0.1-0.4-0.1-0.8-0.1h-1.1v3.5H-158.4z M-157.5,14h2.1c0.5,0,0.8,0,1.1-0.1c0.2-0.1,0.4-0.2,0.6-0.5
			c0.1-0.2,0.2-0.5,0.2-0.7c0-0.4-0.1-0.7-0.4-0.9s-0.7-0.3-1.2-0.3h-2.4V14z"/>
	</g>
</g>
<g id="Nav_Button">
	<path class="st13" d="M-215.4,21.4c0,1.1-0.9,2-2,2h-28.1c-1.1,0-2-0.9-2-2V6.6c0-1.1,0.9-2,2-2h28.1c1.1,0,2,0.9,2,2V21.4z"/>
	<g>
		<path d="M-241,18.4v-7.9h1l3.9,6.2v-6.2h0.9v7.9h-1l-3.9-6.2v6.2H-241z"/>
		<path d="M-234.2,18.4l2.9-7.9h1.1l3,7.9h-1.1l-0.9-2.4h-3.1l-0.8,2.4H-234.2z M-232.1,15.1h2.5l-0.8-2.2c-0.2-0.7-0.4-1.2-0.5-1.6
			c-0.1,0.5-0.2,1-0.4,1.5L-232.1,15.1z"/>
		<path d="M-225.1,18.4l-2.9-7.9h1.1l1.9,5.7c0.1,0.4,0.3,0.9,0.4,1.3c0.1-0.4,0.2-0.9,0.4-1.3l2-5.7h1l-2.9,7.9H-225.1z"/>
	</g>
</g>
<g id="HGD_Button">
	<path class="st13" d="M-283.6,21.4c0,1.1-0.9,2-2,2h-28.1c-1.1,0-2-0.9-2-2V6.6c0-1.1,0.9-2,2-2h28.1c1.1,0,2,0.9,2,2V21.4z"/>
	<g>
		<path d="M-310.4,18.4v-7.9h1v3.2h3.9v-3.2h1v7.9h-1v-3.7h-3.9v3.7H-310.4z"/>
		<path d="M-302.9,18.4v-7.9h2.6c0.6,0,1.1,0,1.4,0.1c0.4,0.1,0.8,0.4,1.1,0.7c0.3,0.3,0.6,0.8,0.7,1.3c0.2,0.5,0.3,1.1,0.3,1.8
			c0,0.9-0.2,1.6-0.5,2.3c-0.3,0.6-0.7,1.1-1.2,1.3c-0.5,0.3-1.1,0.4-1.9,0.4H-302.9z M-301.9,17.4h1.6c0.6,0,1.1-0.1,1.5-0.3
			c0.3-0.2,0.6-0.5,0.8-0.9c0.2-0.5,0.4-1.2,0.4-1.9c0-0.8-0.1-1.4-0.4-1.9c-0.3-0.5-0.6-0.8-1-0.9c-0.3-0.1-0.7-0.2-1.3-0.2h-1.6
			V17.4z"/>
		<path d="M-291.9,15.3v-0.9l3.2,0v2.9c-0.5,0.4-1,0.7-1.5,0.9s-1,0.3-1.6,0.3c-0.7,0-1.4-0.2-1.9-0.5s-1-0.8-1.4-1.4
			s-0.5-1.3-0.5-2.2c0-0.9,0.2-1.6,0.5-2.2s0.8-1.1,1.3-1.4c0.5-0.3,1.2-0.5,1.9-0.5c0.5,0,1,0.1,1.4,0.3c0.4,0.2,0.7,0.4,1,0.7
			s0.5,0.8,0.6,1.3l-0.9,0.3c-0.1-0.4-0.3-0.8-0.5-1c-0.2-0.2-0.4-0.4-0.7-0.5c-0.3-0.1-0.6-0.2-1-0.2c-0.5,0-1,0.1-1.4,0.3
			c-0.4,0.2-0.7,0.6-0.9,1.1c-0.2,0.5-0.4,1.1-0.4,1.8c0,1.1,0.3,1.8,0.8,2.4c0.5,0.5,1.2,0.8,2,0.8c0.4,0,0.8-0.1,1.2-0.2
			c0.4-0.2,0.7-0.4,1-0.6v-1.5H-291.9z"/>
	</g>
</g>
<g id="AP_Button">
	<path class="st13" d="M-387.5,22.4c0,1.1-0.9,2-2,2h-28.1c-1.1,0-2-0.9-2-2V7.6c0-1.1,0.9-2,2-2h28.1c1.1,0,2,0.9,2,2V22.4z"/>
	<g>
		<path d="M-411.1,19.4l2.9-7.9h1.1l3,7.9h-1.1l-0.9-2.4h-3.1l-0.8,2.4H-411.1z M-409,16.1h2.5l-0.8-2.2c-0.2-0.7-0.4-1.2-0.5-1.6
			c-0.1,0.5-0.2,1-0.4,1.5L-409,16.1z"/>
		<path d="M-403.4,19.4v-7.9h2.8c0.7,0,1.1,0,1.5,0.2c0.4,0.1,0.8,0.4,1,0.8c0.3,0.4,0.4,0.8,0.4,1.4c0,0.7-0.2,1.3-0.6,1.7
			c-0.4,0.4-1.1,0.7-2.2,0.7h-1.9v3.2H-403.4z M-402.4,15.2h1.9c0.6,0,1.1-0.1,1.3-0.4s0.4-0.6,0.4-1.1c0-0.3-0.1-0.6-0.2-0.8
			c-0.1-0.2-0.3-0.4-0.5-0.5c-0.2-0.1-0.6-0.1-1.1-0.1h-1.9V15.2z"/>
	</g>
</g>
<g id="Text" class="st0">
	<g class="st2">
		<rect x="-349.9" y="-92" class="st5" width="65" height="25.3"/>
		<path class="st14" d="M-344.4-80.2l-1.1,9.2l-1,0.8l-0.8-1l1.1-9.2l1-0.8L-344.4-80.2z M-336.1-69.6l0.8,1l-1,0.8l-9.1-1.1l-0.8-1
			l1-0.8L-336.1-69.6z M-343-91.5l-1.1,9.2l-1,0.8l-0.8-1l1.1-9.2l1-0.8L-343-91.5z M-339.7-80.1l0.3,1.4l-3.9,7.1l-1.2,0.5
			l-0.3-1.5l3.9-7L-339.7-80.1z M-333.4-92.3l0.8,1l-1,0.8l-9.1-1.1l-0.8-1l1-0.8L-333.4-92.3z M-334.4-90l0.3,1.4l-3.9,7.1
			l-1.2,0.5l-0.3-1.5l3.9-7L-334.4-90z M-333-78.8l-1.1,9.2l-1,0.8l-0.8-1l1.1-9.2l1-0.8L-333-78.8z M-331.7-90.1l-1.1,9.2l-1,0.8
			l-0.8-1l1.1-9.2l1-0.8L-331.7-90.1z"/>
		<path class="st14" d="M-322.8-80.2l-1.1,9.2l-1,0.8l-0.8-1l1.1-9.2l1-0.8L-322.8-80.2z M-314.5-69.6l0.8,1l-1,0.8l-9.1-1.1l-0.8-1
			l1-0.8L-314.5-69.6z M-321.4-91.5l-1.1,9.2l-1,0.8l-0.8-1l1.1-9.2l1-0.8L-321.4-91.5z M-318-80.1l0.3,1.4l-3.9,7.1l-1.2,0.5
			l-0.3-1.5l3.9-7L-318-80.1z M-311.8-92.3l0.8,1l-1,0.8l-9.1-1.1l-0.8-1l1-0.8L-311.8-92.3z M-312.8-90l0.3,1.4l-3.9,7.1l-1.2,0.5
			l-0.3-1.5l3.9-7L-312.8-90z M-311.4-78.8l-1.1,9.2l-1,0.8l-0.8-1l1.1-9.2l1-0.8L-311.4-78.8z M-310-90.1l-1.1,9.2l-1,0.8l-0.8-1
			l1.1-9.2l1-0.8L-310-90.1z"/>
		<path class="st14" d="M-301.2-80.2l-1.1,9.2l-1,0.8l-0.8-1l1.1-9.2l1-0.8L-301.2-80.2z M-292.9-69.6l0.8,1l-1,0.8l-9.1-1.1l-0.8-1
			l1-0.8L-292.9-69.6z M-299.8-91.5l-1.1,9.2l-1,0.8l-0.8-1l1.1-9.2l1-0.8L-299.8-91.5z M-296.4-80.1l0.3,1.4l-3.9,7.1l-1.2,0.5
			l-0.3-1.5l3.9-7L-296.4-80.1z M-290.2-92.3l0.8,1l-1,0.8l-9.1-1.1l-0.8-1l1-0.8L-290.2-92.3z M-291.2-90l0.3,1.4l-3.9,7.1
			l-1.2,0.5l-0.3-1.5l3.9-7L-291.2-90z M-289.8-78.8l-1.1,9.2l-1,0.8l-0.8-1l1.1-9.2l1-0.8L-289.8-78.8z M-288.4-90.1l-1.1,9.2
			l-1,0.8l-0.8-1l1.1-9.2l1-0.8L-288.4-90.1z"/>
	</g>
	<g class="st2">
		<rect x="-351.9" y="-58" class="st5" width="65" height="25.3"/>
		<path class="st14" d="M-348.2-57v9.3l-0.9,0.9l-0.9-0.9V-57l0.9-0.9L-348.2-57z M-348.2-45.5v9.3l-0.9,0.9l-0.9-0.9v-9.3l0.9-0.9
			L-348.2-45.5z M-338.8-59l0.9,0.9l-0.9,0.9h-9.2L-349-58l0.9-0.9H-338.8z M-338.8-36.1l0.9,0.9l-0.9,0.9h-9.2l-0.9-0.9l0.9-0.9
			H-338.8z M-343.5-46l0.5,1.3l-3,7.5l-1.2,0.6l-0.5-1.4l3-7.4L-343.5-46z M-339.5-56.5l0.5,1.3l-3,7.5l-1.2,0.6l-0.5-1.4l3-7.4
			L-339.5-56.5z M-336.8-57v9.3l-0.9,0.9l-0.9-0.9V-57l0.9-0.9L-336.8-57z M-336.8-45.5v9.3l-0.9,0.9l-0.9-0.9v-9.3l0.9-0.9
			L-336.8-45.5z"/>
		<path class="st14" d="M-325.4-57v9.3l-0.9,0.9l-0.9-0.9V-57l0.9-0.9L-325.4-57z M-325.4-45.5v9.3l-0.9,0.9l-0.9-0.9v-9.3l0.9-0.9
			L-325.4-45.5z M-315.9-59l0.9,0.9l-0.9,0.9h-9.2l-0.9-0.9l0.9-0.9H-315.9z M-315.9-36.1l0.9,0.9l-0.9,0.9h-9.2l-0.9-0.9l0.9-0.9
			H-315.9z M-320.7-46l0.5,1.3l-3,7.5l-1.2,0.6l-0.5-1.4l3-7.4L-320.7-46z M-316.7-56.5l0.5,1.3l-3,7.5l-1.2,0.6l-0.5-1.4l3-7.4
			L-316.7-56.5z M-313.9-57v9.3l-0.9,0.9l-0.9-0.9V-57l0.9-0.9L-313.9-57z M-313.9-45.5v9.3l-0.9,0.9l-0.9-0.9v-9.3l0.9-0.9
			L-313.9-45.5z"/>
		<path class="st14" d="M-302.5-57v9.3l-0.9,0.9l-0.9-0.9V-57l0.9-0.9L-302.5-57z M-302.5-45.5v9.3l-0.9,0.9l-0.9-0.9v-9.3l0.9-0.9
			L-302.5-45.5z M-293.1-59l0.9,0.9l-0.9,0.9h-9.2l-0.9-0.9l0.9-0.9H-293.1z M-293-36.1l0.9,0.9l-0.9,0.9h-9.2l-0.9-0.9l0.9-0.9
			H-293z M-297.8-46l0.5,1.3l-3,7.5l-1.2,0.6L-302-38l3-7.4L-297.8-46z M-293.8-56.5l0.5,1.3l-3,7.5l-1.2,0.6l-0.5-1.4l3-7.4
			L-293.8-56.5z M-291.1-57v9.3l-0.9,0.9l-0.9-0.9V-57l0.9-0.9L-291.1-57z M-291.1-45.5v9.3l-0.9,0.9l-0.9-0.9v-9.3l0.9-0.9
			L-291.1-45.5z"/>
	</g>
	<g class="st2">
		<rect x="-241.9" y="-92" class="st5" width="65" height="25.3"/>
		<path class="st14" d="M-236.4-80.2l-1.1,9.2l-1,0.8l-0.8-1l1.1-9.2l1-0.8L-236.4-80.2z M-228.1-69.6l0.8,1l-1,0.8l-9.1-1.1l-0.8-1
			l1-0.8L-228.1-69.6z M-235-91.5l-1.1,9.2l-1,0.8l-0.8-1l1.1-9.2l1-0.8L-235-91.5z M-231.7-80.1l0.3,1.4l-3.9,7.1l-1.2,0.5
			l-0.3-1.5l3.9-7L-231.7-80.1z M-225.4-92.3l0.8,1l-1,0.8l-9.1-1.1l-0.8-1l1-0.8L-225.4-92.3z M-226.4-90l0.3,1.4l-3.9,7.1
			l-1.2,0.5l-0.3-1.5l3.9-7L-226.4-90z M-225-78.8l-1.1,9.2l-1,0.8l-0.8-1l1.1-9.2l1-0.8L-225-78.8z M-223.7-90.1l-1.1,9.2l-1,0.8
			l-0.8-1l1.1-9.2l1-0.8L-223.7-90.1z"/>
		<path class="st14" d="M-214.8-80.2l-1.1,9.2l-1,0.8l-0.8-1l1.1-9.2l1-0.8L-214.8-80.2z M-206.5-69.6l0.8,1l-1,0.8l-9.1-1.1l-0.8-1
			l1-0.8L-206.5-69.6z M-213.4-91.5l-1.1,9.2l-1,0.8l-0.8-1l1.1-9.2l1-0.8L-213.4-91.5z M-210-80.1l0.3,1.4l-3.9,7.1l-1.2,0.5
			l-0.3-1.5l3.9-7L-210-80.1z M-203.8-92.3l0.8,1l-1,0.8l-9.1-1.1l-0.8-1l1-0.8L-203.8-92.3z M-204.8-90l0.3,1.4l-3.9,7.1l-1.2,0.5
			l-0.3-1.5l3.9-7L-204.8-90z M-203.4-78.8l-1.1,9.2l-1,0.8l-0.8-1l1.1-9.2l1-0.8L-203.4-78.8z M-202-90.1l-1.1,9.2l-1,0.8l-0.8-1
			l1.1-9.2l1-0.8L-202-90.1z"/>
		<path class="st14" d="M-193.2-80.2l-1.1,9.2l-1,0.8l-0.8-1l1.1-9.2l1-0.8L-193.2-80.2z M-184.9-69.6l0.8,1l-1,0.8l-9.1-1.1l-0.8-1
			l1-0.8L-184.9-69.6z M-191.8-91.5l-1.1,9.2l-1,0.8l-0.8-1l1.1-9.2l1-0.8L-191.8-91.5z M-188.4-80.1l0.3,1.4l-3.9,7.1l-1.2,0.5
			l-0.3-1.5l3.9-7L-188.4-80.1z M-182.2-92.3l0.8,1l-1,0.8l-9.1-1.1l-0.8-1l1-0.8L-182.2-92.3z M-183.2-90l0.3,1.4l-3.9,7.1
			l-1.2,0.5l-0.3-1.5l3.9-7L-183.2-90z M-181.8-78.8l-1.1,9.2l-1,0.8l-0.8-1l1.1-9.2l1-0.8L-181.8-78.8z M-180.4-90.1l-1.1,9.2
			l-1,0.8l-0.8-1l1.1-9.2l1-0.8L-180.4-90.1z"/>
	</g>
	<g class="st2">
		<rect x="-243.9" y="-58" class="st5" width="65" height="25.3"/>
		<path class="st14" d="M-240.2-57v9.3l-0.9,0.9l-0.9-0.9V-57l0.9-0.9L-240.2-57z M-240.2-45.5v9.3l-0.9,0.9l-0.9-0.9v-9.3l0.9-0.9
			L-240.2-45.5z M-230.8-59l0.9,0.9l-0.9,0.9h-9.2L-241-58l0.9-0.9H-230.8z M-230.8-36.1l0.9,0.9l-0.9,0.9h-9.2l-0.9-0.9l0.9-0.9
			H-230.8z M-235.5-46l0.5,1.3l-3,7.5l-1.2,0.6l-0.5-1.4l3-7.4L-235.5-46z M-231.5-56.5l0.5,1.3l-3,7.5l-1.2,0.6l-0.5-1.4l3-7.4
			L-231.5-56.5z M-228.8-57v9.3l-0.9,0.9l-0.9-0.9V-57l0.9-0.9L-228.8-57z M-228.8-45.5v9.3l-0.9,0.9l-0.9-0.9v-9.3l0.9-0.9
			L-228.8-45.5z"/>
		<path class="st14" d="M-217.4-57v9.3l-0.9,0.9l-0.9-0.9V-57l0.9-0.9L-217.4-57z M-217.4-45.5v9.3l-0.9,0.9l-0.9-0.9v-9.3l0.9-0.9
			L-217.4-45.5z M-207.9-59l0.9,0.9l-0.9,0.9h-9.2l-0.9-0.9l0.9-0.9H-207.9z M-207.9-36.1l0.9,0.9l-0.9,0.9h-9.2l-0.9-0.9l0.9-0.9
			H-207.9z M-212.7-46l0.5,1.3l-3,7.5l-1.2,0.6l-0.5-1.4l3-7.4L-212.7-46z M-208.7-56.5l0.5,1.3l-3,7.5l-1.2,0.6l-0.5-1.4l3-7.4
			L-208.7-56.5z M-205.9-57v9.3l-0.9,0.9l-0.9-0.9V-57l0.9-0.9L-205.9-57z M-205.9-45.5v9.3l-0.9,0.9l-0.9-0.9v-9.3l0.9-0.9
			L-205.9-45.5z"/>
		<path class="st14" d="M-194.5-57v9.3l-0.9,0.9l-0.9-0.9V-57l0.9-0.9L-194.5-57z M-194.5-45.5v9.3l-0.9,0.9l-0.9-0.9v-9.3l0.9-0.9
			L-194.5-45.5z M-185.1-59l0.9,0.9l-0.9,0.9h-9.2l-0.9-0.9l0.9-0.9H-185.1z M-185-36.1l0.9,0.9l-0.9,0.9h-9.2l-0.9-0.9l0.9-0.9
			H-185z M-189.8-46l0.5,1.3l-3,7.5l-1.2,0.6L-194-38l3-7.4L-189.8-46z M-185.8-56.5l0.5,1.3l-3,7.5l-1.2,0.6l-0.5-1.4l3-7.4
			L-185.8-56.5z M-183.1-57v9.3l-0.9,0.9l-0.9-0.9V-57l0.9-0.9L-183.1-57z M-183.1-45.5v9.3l-0.9,0.9l-0.9-0.9v-9.3l0.9-0.9
			L-183.1-45.5z"/>
	</g>
	<g class="st2">
		<rect x="-132.1" y="-92" class="st5" width="111.2" height="25.3"/>
		<path class="st14" d="M-126.6-80.2l-1.1,9.2l-1,0.8l-0.8-1l1.1-9.2l1-0.8L-126.6-80.2z M-118.4-69.6l0.8,1l-1,0.8l-9.1-1.1l-0.8-1
			l1-0.8L-118.4-69.6z M-125.2-91.5l-1.1,9.2l-1,0.8l-0.8-1l1.1-9.2l1-0.8L-125.2-91.5z M-121.9-80.1l0.3,1.4l-3.9,7.1l-1.2,0.5
			l-0.3-1.5l3.9-7L-121.9-80.1z M-115.7-92.3l0.8,1l-1,0.8l-9.1-1.1l-0.8-1l1-0.8L-115.7-92.3z M-116.7-90l0.3,1.4l-3.9,7.1
			l-1.2,0.5l-0.3-1.5l3.9-7L-116.7-90z M-115.3-78.8l-1.1,9.2l-1,0.8l-0.8-1l1.1-9.2l1-0.8L-115.3-78.8z M-113.9-90.1l-1.1,9.2
			l-1,0.8l-0.8-1l1.1-9.2l1-0.8L-113.9-90.1z"/>
		<path class="st14" d="M-105-80.2l-1.1,9.2l-1,0.8l-0.8-1l1.1-9.2l1-0.8L-105-80.2z M-96.8-69.6l0.8,1l-1,0.8l-9.1-1.1l-0.8-1
			l1-0.8L-96.8-69.6z M-103.6-91.5l-1.1,9.2l-1,0.8l-0.8-1l1.1-9.2l1-0.8L-103.6-91.5z M-100.3-80.1l0.3,1.4l-3.9,7.1l-1.2,0.5
			l-0.3-1.5l3.9-7L-100.3-80.1z M-94.1-92.3l0.8,1l-1,0.8l-9.1-1.1l-0.8-1l1-0.8L-94.1-92.3z M-95.1-90l0.3,1.4l-3.9,7.1l-1.2,0.5
			l-0.3-1.5l3.9-7L-95.1-90z M-93.7-78.8l-1.1,9.2l-1,0.8l-0.8-1l1.1-9.2l1-0.8L-93.7-78.8z M-92.3-90.1l-1.1,9.2l-1,0.8l-0.8-1
			l1.1-9.2l1-0.8L-92.3-90.1z"/>
		<path class="st14" d="M-83.4-80.2l-1.1,9.2l-1,0.8l-0.8-1l1.1-9.2l1-0.8L-83.4-80.2z M-75.2-69.6l0.8,1l-1,0.8l-9.1-1.1l-0.8-1
			l1-0.8L-75.2-69.6z M-82-91.5l-1.1,9.2l-1,0.8l-0.8-1l1.1-9.2l1-0.8L-82-91.5z M-78.7-80.1l0.3,1.4l-3.9,7.1l-1.2,0.5l-0.3-1.5
			l3.9-7L-78.7-80.1z M-72.4-92.3l0.8,1l-1,0.8l-9.1-1.1l-0.8-1l1-0.8L-72.4-92.3z M-73.4-90l0.3,1.4l-3.9,7.1l-1.2,0.5l-0.3-1.5
			l3.9-7L-73.4-90z M-72.1-78.8l-1.1,9.2l-1,0.8l-0.8-1l1.1-9.2l1-0.8L-72.1-78.8z M-70.7-90.1l-1.1,9.2l-1,0.8l-0.8-1l1.1-9.2
			l1-0.8L-70.7-90.1z"/>
		<path class="st14" d="M-61.8-80.2l-1.1,9.2l-1,0.8l-0.8-1l1.1-9.2l1-0.8L-61.8-80.2z M-53.6-69.6l0.8,1l-1,0.8l-9.1-1.1l-0.8-1
			l1-0.8L-53.6-69.6z M-60.4-91.5l-1.1,9.2l-1,0.8l-0.8-1l1.1-9.2l1-0.8L-60.4-91.5z M-57.1-80.1l0.3,1.4l-3.9,7.1l-1.2,0.5
			l-0.3-1.5l3.9-7L-57.1-80.1z M-50.8-92.3l0.8,1l-1,0.8l-9.1-1.1l-0.8-1l1-0.8L-50.8-92.3z M-51.8-90l0.3,1.4l-3.9,7.1l-1.2,0.5
			l-0.3-1.5l3.9-7L-51.8-90z M-50.5-78.8l-1.1,9.2l-1,0.8l-0.8-1l1.1-9.2l1-0.8L-50.5-78.8z M-49.1-90.1l-1.1,9.2l-1,0.8l-0.8-1
			l1.1-9.2l1-0.8L-49.1-90.1z"/>
		<path class="st14" d="M-40.2-80.2l-1.1,9.2l-1,0.8l-0.8-1l1.1-9.2l1-0.8L-40.2-80.2z M-31.9-69.6l0.8,1l-1,0.8l-9.1-1.1l-0.8-1
			l1-0.8L-31.9-69.6z M-38.8-91.5l-1.1,9.2l-1,0.8l-0.8-1l1.1-9.2l1-0.8L-38.8-91.5z M-35.5-80.1l0.3,1.4l-3.9,7.1l-1.2,0.5
			l-0.3-1.5l3.9-7L-35.5-80.1z M-29.2-92.3l0.8,1l-1,0.8l-9.1-1.1l-0.8-1l1-0.8L-29.2-92.3z M-30.2-90l0.3,1.4l-3.9,7.1l-1.2,0.5
			l-0.3-1.5l3.9-7L-30.2-90z M-28.8-78.8l-1.1,9.2l-1,0.8l-0.8-1l1.1-9.2l1-0.8L-28.8-78.8z M-27.5-90.1l-1.1,9.2l-1,0.8l-0.8-1
			l1.1-9.2l1-0.8L-27.5-90.1z"/>
	</g>
</g>
<g id="R_Flag" class="st0">
	<g class="st2">
		<rect x="-398" y="-15.5" class="st5" width="12.6" height="13.5"/>
		<path class="st15" d="M-397.1-6.9v-8.6h3.7c0.9,0,1.6,0.1,2,0.2s0.7,0.4,1,0.8s0.4,0.8,0.4,1.4c0,0.6-0.2,1.2-0.6,1.6
			s-0.9,0.7-1.7,0.8c0.4,0.2,0.7,0.5,0.9,0.7s0.6,0.7,1,1.4l1,1.7h-2.1l-1.3-1.9c-0.4-0.7-0.8-1.1-0.9-1.3s-0.3-0.3-0.5-0.4
			s-0.5-0.1-0.9-0.1h-0.4v3.6H-397.1z M-395.4-11.9h1.3c0.8,0,1.4,0,1.6-0.1s0.4-0.2,0.5-0.4s0.2-0.4,0.2-0.6c0-0.3-0.1-0.5-0.2-0.7
			s-0.4-0.3-0.7-0.3c-0.1,0-0.6,0-1.3,0h-1.4V-11.9z"/>
	</g>
</g>
<g id="P_Flag" class="st0">
	<g class="st2">
		<rect x="-416.9" y="-15.5" class="st5" width="10" height="13.5"/>
		<path class="st15" d="M-416-6.9v-8.6h2.8c1.1,0,1.7,0,2.1,0.1c0.5,0.1,0.9,0.4,1.2,0.8s0.5,1,0.5,1.7c0,0.5-0.1,1-0.3,1.3
			s-0.4,0.6-0.7,0.8s-0.6,0.3-0.9,0.4c-0.4,0.1-1,0.1-1.8,0.1h-1.1v3.2H-416z M-414.3-14.1v2.4h0.9c0.7,0,1.1,0,1.4-0.1
			s0.4-0.2,0.5-0.4s0.2-0.4,0.2-0.7c0-0.3-0.1-0.6-0.3-0.8s-0.4-0.3-0.7-0.4c-0.2,0-0.6-0.1-1.2-0.1H-414.3z"/>
	</g>
</g>
<g id="L_Arm_Flag" class="st0">
	<g class="st2">
		<rect x="-282.9" y="-68.4" class="st5" width="9" height="37.5"/>
		<path class="st14" d="M-281.4-59l3-7.9h1.1l3.2,7.9h-1.2l-0.9-2.4h-3.3l-0.9,2.4H-281.4z M-279.2-62.2h2.7l-0.8-2.2
			c-0.3-0.7-0.4-1.2-0.6-1.6c-0.1,0.5-0.2,1-0.4,1.5L-279.2-62.2z"/>
		<path class="st14" d="M-280.9-46.3v-7.9h3.5c0.7,0,1.2,0.1,1.6,0.2c0.4,0.1,0.7,0.4,0.9,0.7s0.3,0.8,0.3,1.2c0,0.6-0.2,1-0.5,1.4
			s-0.9,0.6-1.7,0.7c0.3,0.1,0.5,0.3,0.6,0.4c0.3,0.3,0.6,0.6,0.9,1l1.4,2.1h-1.3l-1-1.6c-0.3-0.5-0.6-0.8-0.8-1.1
			c-0.2-0.3-0.4-0.4-0.5-0.5c-0.2-0.1-0.3-0.2-0.5-0.2c-0.1,0-0.3,0-0.6,0h-1.2v3.5H-280.9z M-279.8-50.7h2.2c0.5,0,0.8,0,1.1-0.1
			c0.3-0.1,0.5-0.3,0.6-0.5c0.1-0.2,0.2-0.5,0.2-0.7c0-0.4-0.1-0.7-0.4-0.9s-0.7-0.4-1.3-0.4h-2.5V-50.7z"/>
		<path class="st14" d="M-281.5-33.6v-7.9h1.6l1.9,5.6c0.2,0.5,0.3,0.9,0.4,1.2c0.1-0.3,0.2-0.7,0.4-1.3l1.9-5.5h1.4v7.9h-1v-6.6
			l-2.3,6.6h-0.9l-2.3-6.7v6.7H-281.5z"/>
	</g>
</g>
<g id="R_Arm_Flag" class="st0">
	<g class="st2">
		<rect x="-177.9" y="-69.1" class="st5" width="9" height="37.5"/>
		<path class="st14" d="M-176.4-59.7l3-7.9h1.1l3.2,7.9h-1.2l-0.9-2.4h-3.3l-0.9,2.4H-176.4z M-174.2-62.9h2.7l-0.8-2.2
			c-0.3-0.7-0.4-1.2-0.6-1.6c-0.1,0.5-0.2,1-0.4,1.5L-174.2-62.9z"/>
		<path class="st14" d="M-175.9-47v-7.9h3.5c0.7,0,1.2,0.1,1.6,0.2c0.4,0.1,0.7,0.4,0.9,0.7s0.3,0.8,0.3,1.2c0,0.6-0.2,1-0.5,1.4
			s-0.9,0.6-1.7,0.7c0.3,0.1,0.5,0.3,0.6,0.4c0.3,0.3,0.6,0.6,0.9,1l1.4,2.1h-1.3l-1-1.6c-0.3-0.5-0.6-0.8-0.8-1.1
			c-0.2-0.3-0.4-0.4-0.5-0.5c-0.2-0.1-0.3-0.2-0.5-0.2c-0.1,0-0.3,0-0.6,0h-1.2v3.5H-175.9z M-174.8-51.4h2.2c0.5,0,0.8,0,1.1-0.1
			c0.3-0.1,0.5-0.3,0.6-0.5c0.1-0.2,0.2-0.5,0.2-0.7c0-0.4-0.1-0.7-0.4-0.9s-0.7-0.4-1.3-0.4h-2.5V-51.4z"/>
		<path class="st14" d="M-176.5-34.3v-7.9h1.6l1.9,5.6c0.2,0.5,0.3,0.9,0.4,1.2c0.1-0.3,0.2-0.7,0.4-1.3l1.9-5.5h1.4v7.9h-1v-6.6
			l-2.3,6.6h-0.9l-2.3-6.7v6.7H-176.5z"/>
	</g>
</g>
<g id="PT_Down" class="st0">
	<polygon class="st16" points="-156.3,-46.3 -152.1,-35.7 -148,-46.3 	"/>
</g>
<g id="PT_Up" class="st0">
	<polygon class="st16" points="-156.3,-79.4 -152.1,-90 -148,-79.4 	"/>
</g>
<g id="PT_Flag" class="st0">
	<g class="st2">
		<rect x="-157.4" y="-75.4" class="st5" width="9" height="26.7"/>
		<path class="st14" d="M-155.1-65.9v-7.9h3c0.5,0,0.9,0,1.2,0.1c0.4,0.1,0.7,0.2,1,0.4c0.3,0.2,0.5,0.4,0.6,0.8s0.2,0.7,0.2,1.1
			c0,0.7-0.2,1.2-0.6,1.7c-0.4,0.5-1.2,0.7-2.3,0.7h-2v3.2H-155.1z M-154.1-70.1h2c0.7,0,1.2-0.1,1.4-0.4s0.4-0.6,0.4-1.1
			c0-0.3-0.1-0.6-0.3-0.8c-0.2-0.2-0.4-0.4-0.7-0.5c-0.2,0-0.5-0.1-1-0.1h-2V-70.1z"/>
		<path class="st14" d="M-152.8-53.3v-6.9h-2.6v-0.9h6.2v0.9h-2.6v6.9H-152.8z"/>
	</g>
</g>
<g id="FPM_Flag" class="st0">
	<g class="st2">
		<rect x="-75.9" y="-58.8" class="st5" width="26.8" height="8.4"/>
		<path class="st14" d="M-75-50.9v-7.9h5.3v0.9H-74v2.4h3.7v0.9H-74v3.6H-75z"/>
		<path class="st14" d="M-66.7-50.9v-7.9h3c0.5,0,0.9,0,1.2,0.1c0.4,0.1,0.7,0.2,1,0.4c0.3,0.2,0.5,0.4,0.6,0.8s0.2,0.7,0.2,1.1
			c0,0.7-0.2,1.2-0.6,1.7c-0.4,0.5-1.2,0.7-2.3,0.7h-2v3.2H-66.7z M-65.6-55h2c0.7,0,1.2-0.1,1.4-0.4s0.4-0.6,0.4-1.1
			c0-0.3-0.1-0.6-0.3-0.8c-0.2-0.2-0.4-0.4-0.7-0.5c-0.2,0-0.5-0.1-1-0.1h-2V-55z"/>
		<path class="st14" d="M-57.7-50.9v-7.9h1.6l1.9,5.6c0.2,0.5,0.3,0.9,0.4,1.2c0.1-0.3,0.2-0.7,0.4-1.3l1.9-5.5h1.4v7.9h-1v-6.6
			l-2.3,6.6h-0.9l-2.3-6.7v6.7H-57.7z"/>
	</g>
</g>
<g id="ALERT_Flag" class="st0">
	<g class="st2">
		<rect x="-130.7" y="-58.8" class="st5" width="43.8" height="8.4"/>
		<path class="st14" d="M-130.7-50.9l3-7.9h1.1l3.2,7.9h-1.2l-0.9-2.4h-3.3l-0.9,2.4H-130.7z M-128.4-54.1h2.7l-0.8-2.2
			c-0.3-0.7-0.4-1.2-0.6-1.6c-0.1,0.5-0.2,1-0.4,1.5L-128.4-54.1z"/>
		<path class="st14" d="M-120.8-50.9v-7.9h1v6.9h3.9v0.9H-120.8z"/>
		<path class="st14" d="M-113-50.9v-7.9h5.7v0.9h-4.7v2.4h4.4v0.9h-4.4v2.7h4.8v0.9H-113z"/>
		<path class="st14" d="M-104-50.9v-7.9h3.5c0.7,0,1.2,0.1,1.6,0.2c0.4,0.1,0.7,0.4,0.9,0.7s0.3,0.8,0.3,1.2c0,0.6-0.2,1-0.5,1.4
			s-0.9,0.6-1.7,0.7c0.3,0.1,0.5,0.3,0.6,0.4c0.3,0.3,0.6,0.6,0.9,1l1.4,2.1h-1.3l-1-1.6c-0.3-0.5-0.6-0.8-0.8-1.1
			c-0.2-0.3-0.4-0.4-0.5-0.5c-0.2-0.1-0.3-0.2-0.5-0.2c-0.1,0-0.3,0-0.6,0h-1.2v3.5H-104z M-103-55.3h2.2c0.5,0,0.8,0,1.1-0.1
			c0.3-0.1,0.5-0.3,0.6-0.5c0.1-0.2,0.2-0.5,0.2-0.7c0-0.4-0.1-0.7-0.4-0.9s-0.7-0.4-1.3-0.4h-2.5V-55.3z"/>
		<path class="st14" d="M-92.6-50.9v-6.9h-2.6v-0.9h6.2v0.9h-2.6v6.9H-92.6z"/>
	</g>
</g>
<g id="HPA_Flag" class="st0">
	<g class="st2">
		<rect x="-114.9" y="-45.2" class="st5" width="25.8" height="8.4"/>
		<path class="st14" d="M-114-37.3v-7.9h1v3.2h4.1v-3.2h1v7.9h-1V-41h-4.1v3.7H-114z"/>
		<path class="st14" d="M-104.5-37.3v-7.9h3c0.5,0,0.9,0,1.2,0.1c0.4,0.1,0.7,0.2,1,0.4c0.3,0.2,0.5,0.4,0.6,0.8s0.2,0.7,0.2,1.1
			c0,0.7-0.2,1.2-0.6,1.7c-0.4,0.5-1.2,0.7-2.3,0.7h-2v3.2H-104.5z M-103.4-41.4h2c0.7,0,1.2-0.1,1.4-0.4s0.4-0.6,0.4-1.1
			c0-0.3-0.1-0.6-0.3-0.8c-0.2-0.2-0.4-0.4-0.7-0.5c-0.2,0-0.5-0.1-1-0.1h-2V-41.4z"/>
		<path class="st14" d="M-97.2-37.3l3-7.9h1.1l3.2,7.9H-91l-0.9-2.4h-3.3l-0.9,2.4H-97.2z M-94.9-40.5h2.7l-0.8-2.2
			c-0.3-0.7-0.4-1.2-0.6-1.6c-0.1,0.5-0.2,1-0.4,1.5L-94.9-40.5z"/>
	</g>
</g>
<g id="IN_HG_Flag" class="st0">
	<g class="st2">
		<rect x="-62.5" y="-45.2" class="st5" width="15.8" height="8.4"/>
		<path class="st14" d="M-61.5-37.3v-7.9h1v7.9H-61.5z"/>
		<path class="st14" d="M-57-37.3v-7.9h1.1l4.1,6.2v-6.2h1v7.9h-1.1l-4.1-6.2v6.2H-57z"/>
	</g>
	<g class="st2">
		<rect x="-43.4" y="-45.2" class="st5" width="19.7" height="8.4"/>
		<path class="st14" d="M-42.5-37.3v-7.9h1v3.2h4.1v-3.2h1v7.9h-1V-41h-4.1v3.7H-42.5z"/>
		<path class="st14" d="M-29.3-40.4v-0.9l3.3,0v2.9c-0.5,0.4-1,0.7-1.6,0.9c-0.5,0.2-1.1,0.3-1.7,0.3c-0.8,0-1.5-0.2-2.1-0.5
			c-0.6-0.3-1.1-0.8-1.4-1.4s-0.5-1.3-0.5-2.1c0-0.8,0.2-1.5,0.5-2.1c0.3-0.7,0.8-1.2,1.4-1.5s1.3-0.5,2.1-0.5
			c0.6,0,1.1,0.1,1.5,0.3c0.5,0.2,0.8,0.4,1.1,0.8s0.5,0.8,0.6,1.3l-0.9,0.3c-0.1-0.4-0.3-0.7-0.4-0.9s-0.4-0.4-0.8-0.6
			c-0.3-0.1-0.7-0.2-1.1-0.2c-0.5,0-0.9,0.1-1.2,0.2c-0.3,0.1-0.6,0.3-0.8,0.6s-0.4,0.5-0.5,0.8c-0.2,0.5-0.3,1-0.3,1.6
			c0,0.7,0.1,1.3,0.4,1.8c0.2,0.5,0.6,0.8,1.1,1.1c0.5,0.2,1,0.3,1.5,0.3c0.5,0,0.9-0.1,1.3-0.3c0.4-0.2,0.8-0.4,1-0.6v-1.5H-29.3z"
			/>
	</g>
</g>
<g id="FT_Flag" class="st0">
	<g class="st2">
		<rect x="-43.4" y="-58.8" class="st5" width="15.8" height="8.4"/>
		<path class="st14" d="M-42.5-50.9v-7.9h5.3v0.9h-4.3v2.4h3.7v0.9h-3.7v3.6H-42.5z"/>
		<path class="st14" d="M-32.2-50.9v-6.9h-2.6v-0.9h6.2v0.9h-2.6v6.9H-32.2z"/>
	</g>
</g>
<g id="AP_Flag" class="st0">
	<g class="st2">
		<rect x="-267.2" y="-87.8" class="st5" width="16.8" height="8.4"/>
		<path class="st14" d="M-267.2-79.9l3-7.9h1.1l3.2,7.9h-1.2l-0.9-2.4h-3.3l-0.9,2.4H-267.2z M-264.9-83.1h2.7l-0.8-2.2
			c-0.3-0.7-0.4-1.2-0.6-1.6c-0.1,0.5-0.2,1-0.4,1.5L-264.9-83.1z"/>
		<path class="st14" d="M-257.3-79.9v-7.9h3c0.5,0,0.9,0,1.2,0.1c0.4,0.1,0.7,0.2,1,0.4c0.3,0.2,0.5,0.4,0.6,0.8s0.2,0.7,0.2,1.1
			c0,0.7-0.2,1.2-0.6,1.7c-0.4,0.5-1.2,0.7-2.3,0.7h-2v3.2H-257.3z M-256.3-84h2c0.7,0,1.2-0.1,1.4-0.4s0.4-0.6,0.4-1.1
			c0-0.3-0.1-0.6-0.3-0.8c-0.2-0.2-0.4-0.4-0.7-0.5c-0.2,0-0.5-0.1-1-0.1h-2V-84z"/>
	</g>
	<polygon class="st16" points="-250.6,-90 -267.6,-90 -269.1,-91.5 -249.3,-91.5 	"/>
	<polygon class="st16" points="-250.3,-76.9 -267.3,-76.9 -268.8,-75.4 -249,-75.4 	"/>
	<polygon class="st16" points="-249.6,-89.5 -249.6,-77.6 -248.1,-76.6 -248.1,-90.5 	"/>
	<polygon class="st16" points="-268.5,-89.5 -268.5,-77.6 -270,-76.6 -270,-90.5 	"/>
</g>
</svg>
