<?xml version="1.0" encoding="utf-8"?>
<!-- Generator: Adobe Illustrator 19.0.0, SVG Export Plug-In . SVG Version: 6.00 Build 0)  -->
<svg version="1.1" xmlns="http://www.w3.org/2000/svg" xmlns:xlink="http://www.w3.org/1999/xlink" x="0px" y="0px"
	 viewBox="0 0 33.1 19.8" style="enable-background:new 0 0 33.1 19.8;" xml:space="preserve">
<style type="text/css">
	.st0{display:none;}
	.st1{display:inline;fill:#282828;stroke:#E5E5E5;stroke-width:2;stroke-miterlimit:10;}
	.st2{display:inline;}
	.st3{display:inline;fill:#58595B;}
	.st4{display:inline;fill:none;stroke:#414042;stroke-width:2;stroke-miterlimit:10;}
	.st5{fill:none;}
	.st6{fill:#414042;}
	.st7{display:inline;fill:none;stroke:#FFFFFF;stroke-miterlimit:10;}
	.st8{fill:#FFFFFF;}
	.st9{display:inline;fill:#3F403F;stroke:#000000;stroke-miterlimit:10;}
	.st10{fill:none;stroke:#000000;stroke-width:1.5;stroke-miterlimit:10;stroke-dasharray:1.5093,1.5093;}
	.st11{fill:#3F403F;stroke:#000000;stroke-width:2;stroke-miterlimit:10;}
	.st12{fill:none;stroke:#000000;stroke-width:1.5;stroke-miterlimit:10;stroke-dasharray:1.5898,1.5898;}
	.st13{fill:#FFFFFF;stroke:#FFFFFF;stroke-miterlimit:10;}
	.st14{fill:#F7941E;}
	.st15{fill:#ED1C24;}
	.st16{display:inline;fill:#F7941E;}
</style>
<g id="Layer_1" class="st0">
	<path id="XMLID_814_" class="st1" d="M569.9,37.5H-16.8c-1.7,0-3-0.9-3-2v-150c0-1.1,1.3-2,3-2h586.7c1.7,0,3,0.9,3,2v150
		C572.9,36.7,571.5,37.5,569.9,37.5z"/>
</g>
<g id="Base" class="st0">
	<path class="st2" d="M399.2-40.6c0,4.3-2.1,7.8-4.7,7.8H73c-2.6,0-4.7-3.5-4.7-7.8V-93c0-4.3,2.1-7.8,4.7-7.8h321.5
		c2.6,0,4.7,3.5,4.7,7.8V-40.6z"/>
	<circle class="st3" cx="436.7" cy="-81.9" r="5.7"/>
	<line class="st4" x1="431" y1="-81.9" x2="442.4" y2="-81.9"/>
	<g class="st2">
		<rect x="22.1" y="-20.6" class="st5" width="12.6" height="13.5"/>
		<path class="st6" d="M23-12v-8.6h3.7c0.9,0,1.6,0.1,2,0.2s0.7,0.4,1,0.8s0.4,0.8,0.4,1.4c0,0.6-0.2,1.2-0.6,1.6s-0.9,0.7-1.7,0.8
			c0.4,0.2,0.7,0.5,0.9,0.7s0.6,0.7,1,1.4l1,1.7h-2.1l-1.3-1.9c-0.4-0.7-0.8-1.1-0.9-1.3s-0.3-0.3-0.5-0.4s-0.5-0.1-0.9-0.1h-0.4
			v3.6H23z M24.7-17H26c0.8,0,1.4,0,1.6-0.1s0.4-0.2,0.5-0.4s0.2-0.4,0.2-0.6c0-0.3-0.1-0.5-0.2-0.7s-0.4-0.3-0.7-0.3
			c-0.1,0-0.6,0-1.3,0h-1.4V-17z"/>
	</g>
	<g class="st2">
		<rect x="3.3" y="-20.6" class="st5" width="10" height="13.5"/>
		<path class="st6" d="M4.1-12v-8.6h2.8c1.1,0,1.7,0,2.1,0.1c0.5,0.1,0.9,0.4,1.2,0.8s0.5,1,0.5,1.7c0,0.5-0.1,1-0.3,1.3
			S10-16,9.7-15.8c-0.3,0.2-0.6,0.3-0.9,0.4c-0.4,0.1-1,0.1-1.8,0.1H5.9v3.2H4.1z M5.9-19.2v2.4h0.9c0.7,0,1.1,0,1.4-0.1
			c0.2-0.1,0.4-0.2,0.5-0.4s0.2-0.4,0.2-0.7c0-0.3-0.1-0.6-0.3-0.8s-0.4-0.3-0.7-0.4c-0.2,0-0.6-0.1-1.2-0.1H5.9z"/>
	</g>
	<path class="st7" d="M457.6,16.3c0,2.8-1.9,5.1-4.3,5.1h-34.4c-2.4,0-4.3-2.3-4.3-5.1v-70.9c0-2.8,1.9-5.1,4.3-5.1h34.4
		c2.4,0,4.3,2.3,4.3,5.1V16.3z"/>
</g>
<g id="Labels" class="st0">
	<g class="st2">
		<rect x="1.3" y="-94.7" class="st5" width="41.6" height="9.1"/>
		<path class="st8" d="M2.1-87.2v-7.4h1v3.7l3.7-3.7h1.3l-3.1,3l3.3,4.4H6.9L4.3-91l-1.2,1.2v2.6H2.1z"/>
		<path class="st8" d="M8.2-87.2l2.9-7.4h1.1l3,7.4h-1.1l-0.9-2.3h-3.1l-0.8,2.3H8.2z M10.4-90.3h2.5l-0.8-2.1
			c-0.2-0.6-0.4-1.1-0.5-1.5c-0.1,0.5-0.2,1-0.4,1.4L10.4-90.3z"/>
		<path class="st8" d="M16-87.2v-7.4h2.8c0.5,0,0.9,0,1.1,0.1c0.4,0.1,0.7,0.2,0.9,0.3s0.4,0.4,0.6,0.7s0.2,0.6,0.2,1
			c0,0.6-0.2,1.2-0.6,1.6c-0.4,0.4-1.1,0.7-2.2,0.7H17v3H16z M17-91.1h1.9c0.6,0,1.1-0.1,1.4-0.4c0.3-0.2,0.4-0.6,0.4-1
			c0-0.3-0.1-0.6-0.2-0.8s-0.4-0.4-0.6-0.4c-0.2,0-0.5-0.1-0.9-0.1H17V-91.1z"/>
		<path class="st8" d="M28.7-87.2h-0.9V-93c-0.2,0.2-0.5,0.4-0.9,0.6s-0.7,0.4-1,0.5v-0.9c0.5-0.2,1-0.5,1.3-0.9
			c0.4-0.3,0.7-0.7,0.8-1h0.6V-87.2z"/>
		<path class="st8" d="M33.9-87.2V-89h-3.2v-0.8l3.4-4.8h0.7v4.8h1v0.8h-1v1.8H33.9z M33.9-89.8v-3.4l-2.3,3.4H33.9z"/>
		<path class="st8" d="M36.8-90.9c0-0.9,0.1-1.6,0.3-2.1c0.2-0.5,0.4-0.9,0.8-1.2s0.8-0.4,1.3-0.4c0.4,0,0.7,0.1,1.1,0.2
			c0.3,0.2,0.5,0.4,0.7,0.7c0.2,0.3,0.4,0.7,0.5,1.1c0.1,0.4,0.2,1,0.2,1.8c0,0.9-0.1,1.6-0.3,2.1c-0.2,0.5-0.4,1-0.8,1.2
			c-0.4,0.3-0.8,0.4-1.4,0.4c-0.7,0-1.3-0.3-1.7-0.8C37-88.5,36.8-89.5,36.8-90.9z M37.7-90.9c0,1.2,0.1,2,0.4,2.4
			c0.3,0.4,0.6,0.6,1.1,0.6s0.8-0.2,1.1-0.6c0.3-0.4,0.4-1.2,0.4-2.4c0-1.2-0.1-2-0.4-2.4c-0.3-0.4-0.6-0.6-1.1-0.6
			c-0.4,0-0.8,0.2-1,0.5C37.9-92.9,37.7-92.1,37.7-90.9z"/>
	</g>
	<g class="st2">
		<rect x="-10.8" y="-106.5" class="st5" width="59.6" height="7.2"/>
		<path class="st8" d="M-10.4-100.3l1.3-6.3H-7c0.5,0,0.8,0,1,0c0.3,0,0.6,0.1,0.8,0.3c0.2,0.1,0.4,0.3,0.5,0.5
			c0.1,0.2,0.2,0.5,0.2,0.7c0,0.3-0.1,0.7-0.3,0.9c-0.2,0.3-0.5,0.5-0.9,0.6c0.3,0.1,0.6,0.2,0.8,0.5s0.3,0.5,0.3,0.8
			c0,0.4-0.1,0.7-0.3,1.1c-0.2,0.3-0.5,0.6-0.9,0.7s-0.9,0.2-1.5,0.2H-10.4z M-8.9-101.3h1.2c0.5,0,0.9,0,1.1-0.1
			c0.2-0.1,0.3-0.2,0.4-0.3c0.1-0.2,0.2-0.3,0.2-0.5c0-0.2-0.1-0.4-0.2-0.5c-0.2-0.1-0.4-0.2-0.8-0.2h-1.5L-8.9-101.3z M-8.4-104h1
			c0.4,0,0.8,0,1-0.1c0.2-0.1,0.3-0.2,0.4-0.3c0.1-0.1,0.1-0.3,0.1-0.5c0-0.2,0-0.3-0.1-0.4s-0.2-0.2-0.4-0.2c-0.1,0-0.3,0-0.7,0h-1
			L-8.4-104z"/>
		<path class="st8" d="M-4.1-100.3l1.3-6.3h4.7l-0.2,1.1h-3.4l-0.3,1.4h3.3L1-103h-3.3l-0.4,1.7H1l-0.2,1.1H-4.1z"/>
		<path class="st8" d="M6.8-100.3H5.6l-1.7-4.2L3-100.3H1.8l1.3-6.3h1.2l1.7,4.2l0.9-4.2h1.2L6.8-100.3z"/>
		<path class="st8" d="M8.1-100.3l1.3-6.3h1.7c0.5,0,0.8,0,0.9,0c0.3,0,0.5,0.1,0.7,0.2c0.2,0.1,0.4,0.2,0.6,0.3s0.3,0.3,0.4,0.5
			s0.2,0.4,0.3,0.7c0.1,0.3,0.1,0.6,0.1,0.9c0,0.7-0.1,1.3-0.4,1.8c-0.3,0.5-0.6,0.9-1,1.3c-0.3,0.2-0.7,0.4-1.2,0.5
			c-0.3,0.1-0.7,0.1-1.2,0.1H8.1z M9.7-101.3h0.7c0.5,0,0.8,0,1-0.1c0.2-0.1,0.4-0.2,0.6-0.3c0.3-0.2,0.5-0.5,0.6-0.9
			c0.2-0.4,0.3-0.8,0.3-1.4c0-0.4-0.1-0.8-0.2-1s-0.3-0.4-0.5-0.4c-0.1-0.1-0.4-0.1-0.8-0.1h-0.8L9.7-101.3z"/>
		<path class="st8" d="M14.4-100.3l1.3-6.3H17l-1.3,6.3H14.4z"/>
		<path class="st8" d="M18-100.3h-1.7l2.8-3.2l-1.6-3.1h1.4l0.6,1.2c0,0,0.2,0.3,0.4,0.9c0,0,0,0.1,0.1,0.1c0.3-0.4,0.6-0.8,0.9-1
			l1-1.1h1.6l-2.9,3.3l1.5,3h-1.5l-0.5-0.9c-0.2-0.5-0.4-0.9-0.5-1.1c-0.1,0.2-0.4,0.5-0.9,1L18-100.3z"/>
		<path class="st8" d="M22-100.1l3.1-6.5H26l-3.1,6.5H22z"/>
		<path class="st8" d="M25.2-100.3l1.3-6.3h1.3l-0.6,2.7l2.9-2.7h1.7l-2.8,2.5l2.1,3.8h-1.5l-1.6-3l-1.2,1.1l-0.4,1.9H25.2z"/>
		<path class="st8" d="M31.5-100.3l1.3-6.3h1.3l-1.3,6.3H31.5z"/>
		<path class="st8" d="M39-100.3h-1.2l-1.7-4.2l-0.9,4.2h-1.2l1.3-6.3h1.2l1.7,4.2l0.9-4.2h1.2L39-100.3z"/>
		<path class="st8" d="M43.9-103.6h2.8l-0.6,2.7c-0.3,0.2-0.7,0.4-1.2,0.5c-0.5,0.1-1,0.2-1.5,0.2c-0.8,0-1.4-0.2-1.8-0.5
			c-0.6-0.5-0.9-1.2-0.9-2.1c0-0.6,0.1-1.2,0.4-1.8c0.3-0.7,0.7-1.2,1.2-1.6s1.2-0.6,1.9-0.6s1.3,0.2,1.7,0.5s0.7,0.8,0.9,1.5
			l-1.2,0.1c-0.1-0.4-0.3-0.6-0.5-0.8c-0.2-0.2-0.5-0.3-0.9-0.3c-0.4,0-0.8,0.1-1.2,0.3s-0.6,0.6-0.8,1c-0.2,0.5-0.3,1-0.3,1.5
			c0,0.5,0.1,0.9,0.4,1.2c0.2,0.3,0.6,0.4,1.1,0.4c0.3,0,0.6,0,0.9-0.1c0.3-0.1,0.5-0.2,0.8-0.3l0.2-0.9h-1.6L43.9-103.6z"/>
	</g>
</g>
<g id="Outer_Knob_R" class="st0">
	<path class="st9" d="M546.8-17.5c0,17-13.8,30.9-30.9,30.9c-17.1,0-30.9-13.8-30.9-30.9c0-17.1,13.8-30.9,30.9-30.9
		C533-48.4,546.8-34.5,546.8-17.5z"/>
	<g class="st2">
		<g>
			<path class="st10" d="M547.7-17.5c0,17.5-14.2,31.7-31.7,31.7c-17.5,0-31.7-14.2-31.7-31.7c0-17.5,14.2-31.7,31.7-31.7
				C533.5-49.2,547.7-35,547.7-17.5z"/>
		</g>
	</g>
</g>
<g id="Inner_Knob_R" class="st0">
	<g class="st2">
		<circle class="st11" cx="516" cy="-17.5" r="20.8"/>
		<g>
			<path class="st12" d="M537.7-17.5c0,12-9.7,21.8-21.8,21.8c-12,0-21.8-9.7-21.8-21.8c0-12,9.7-21.8,21.8-21.8
				C528-39.3,537.7-29.5,537.7-17.5z"/>
		</g>
	</g>
</g>
<g id="BARO_Button">
	<path class="st13" d="M548.8-84.8c0,1.1-0.9,2-2,2h-28.1c-1.1,0-2-0.9-2-2v-14.8c0-1.1,0.9-2,2-2h28.1c1.1,0,2,0.9,2,2V-84.8z"/>
	<g>
		<path d="M518.7-87.8v-7.9h2.8c0.6,0,1,0.1,1.3,0.2c0.3,0.2,0.6,0.4,0.8,0.7s0.3,0.7,0.3,1.1c0,0.4-0.1,0.7-0.3,1
			c-0.2,0.3-0.4,0.5-0.8,0.7c0.4,0.1,0.8,0.4,1,0.7c0.2,0.3,0.4,0.7,0.4,1.2c0,0.5-0.1,0.9-0.3,1.3s-0.5,0.6-0.9,0.8
			s-0.9,0.2-1.5,0.2H518.7z M519.7-92.4h1.6c0.4,0,0.7,0,0.9-0.1c0.3-0.1,0.5-0.2,0.6-0.4c0.1-0.2,0.2-0.4,0.2-0.7
			c0-0.3-0.1-0.5-0.2-0.7c-0.1-0.2-0.3-0.3-0.5-0.4c-0.2-0.1-0.6-0.1-1.1-0.1h-1.5V-92.4z M519.7-88.8h1.9c0.4,0,0.7,0,0.9-0.1
			c0.3-0.1,0.5-0.2,0.6-0.5s0.2-0.5,0.2-0.8c0-0.3-0.1-0.5-0.2-0.8s-0.3-0.4-0.6-0.5s-0.6-0.1-1.1-0.1h-1.7V-88.8z"/>
		<path d="M524.9-87.8l2.9-7.9h1.1l3,7.9h-1.1l-0.9-2.4h-3.1l-0.8,2.4H524.9z M527-91.1h2.5l-0.8-2.2c-0.2-0.7-0.4-1.2-0.5-1.6
			c-0.1,0.5-0.2,1-0.4,1.5L527-91.1z"/>
		<path d="M532.6-87.8v-7.9h3.3c0.7,0,1.2,0.1,1.5,0.2c0.3,0.1,0.6,0.4,0.8,0.7s0.3,0.7,0.3,1.2c0,0.6-0.2,1.1-0.5,1.4
			c-0.4,0.4-0.9,0.6-1.6,0.7c0.3,0.1,0.5,0.3,0.6,0.4c0.3,0.3,0.6,0.6,0.8,1l1.3,2.1H538l-1-1.6c-0.4-0.6-0.7-1.1-0.9-1.3
			s-0.4-0.4-0.6-0.4s-0.4-0.1-0.8-0.1h-1.1v3.5H532.6z M533.6-92.2h2.1c0.5,0,0.8,0,1.1-0.1s0.4-0.2,0.6-0.5
			c0.1-0.2,0.2-0.5,0.2-0.7c0-0.4-0.1-0.7-0.4-0.9s-0.7-0.3-1.2-0.3h-2.4V-92.2z"/>
		<path d="M539.9-91.7c0-1.3,0.3-2.4,1-3.1s1.5-1.1,2.5-1.1c0.7,0,1.3,0.2,1.8,0.5s1,0.8,1.3,1.4s0.5,1.3,0.5,2.2
			c0,1.2-0.3,2.1-0.9,2.9c-0.7,0.8-1.6,1.2-2.6,1.2c-1.1,0-2-0.4-2.7-1.2C540.2-89.7,539.9-90.6,539.9-91.7z M540.9-91.7
			c0,1,0.2,1.7,0.7,2.3c0.5,0.5,1.1,0.8,1.8,0.8c0.7,0,1.3-0.3,1.8-0.8c0.5-0.5,0.7-1.3,0.7-2.4c0-0.7-0.1-1.3-0.4-1.8
			c-0.2-0.4-0.5-0.7-0.9-1c-0.4-0.2-0.8-0.4-1.3-0.4c-0.7,0-1.4,0.3-1.8,0.8C541.1-93.6,540.9-92.8,540.9-91.7z"/>
	</g>
</g>
<g id="ARM_Button">
	<path class="st13" d="M489.8-84.8c0,1.1-0.9,2-2,2h-28.1c-1.1,0-2-0.9-2-2v-14.8c0-1.1,0.9-2,2-2h28.1c1.1,0,2,0.9,2,2V-84.8z"/>
	<g>
		<path d="M462.1-87.8l2.9-7.9h1.1l3,7.9H468l-0.9-2.4H464l-0.8,2.4H462.1z M464.3-91.1h2.5l-0.8-2.2c-0.2-0.7-0.4-1.2-0.5-1.6
			c-0.1,0.5-0.2,1-0.4,1.5L464.3-91.1z"/>
		<path d="M469.9-87.8v-7.9h3.3c0.7,0,1.2,0.1,1.5,0.2c0.3,0.1,0.6,0.4,0.8,0.7c0.2,0.3,0.3,0.7,0.3,1.2c0,0.6-0.2,1.1-0.5,1.4
			c-0.4,0.4-0.9,0.6-1.6,0.7c0.3,0.1,0.5,0.3,0.6,0.4c0.3,0.3,0.6,0.6,0.8,1l1.3,2.1h-1.2l-1-1.6c-0.4-0.6-0.7-1.1-0.9-1.3
			c-0.2-0.2-0.4-0.4-0.6-0.4c-0.2-0.1-0.4-0.1-0.8-0.1h-1.1v3.5H469.9z M470.9-92.2h2.1c0.5,0,0.8,0,1.1-0.1
			c0.2-0.1,0.4-0.2,0.6-0.5c0.1-0.2,0.2-0.5,0.2-0.7c0-0.4-0.1-0.7-0.4-0.9c-0.3-0.2-0.7-0.3-1.2-0.3h-2.4V-92.2z"/>
		<path d="M477.4-87.8v-7.9h1.5l1.8,5.6L481-89c0.1-0.3,0.2-0.7,0.4-1.3l1.8-5.5h1.3v7.9h-0.9v-6.6l-2.2,6.6h-0.9l-2.2-6.7v6.7
			H477.4z"/>
	</g>
</g>
<g id="DN_Button">
	<path class="st13" d="M452.8,12.2c0,1.1-0.9,2-2,2h-28.1c-1.1,0-2-0.9-2-2V-2.6c0-1.1,0.9-2,2-2h28.1c1.1,0,2,0.9,2,2V12.2z"/>
	<g>
		<path d="M430,9.2V1.3h2.6c0.6,0,1.1,0,1.4,0.1c0.4,0.1,0.8,0.4,1.1,0.7c0.3,0.3,0.6,0.8,0.7,1.3s0.3,1.1,0.3,1.8
			c0,0.9-0.2,1.6-0.5,2.3c-0.3,0.6-0.7,1.1-1.2,1.3s-1.1,0.4-1.9,0.4H430z M431,8.2h1.6c0.6,0,1.1-0.1,1.5-0.3
			c0.3-0.2,0.6-0.5,0.8-0.9c0.2-0.5,0.4-1.2,0.4-1.9c0-0.8-0.1-1.4-0.4-1.9c-0.3-0.5-0.6-0.8-1-0.9c-0.3-0.1-0.7-0.2-1.3-0.2H431
			V8.2z"/>
		<path d="M437.5,9.2V1.3h1l3.9,6.2V1.3h0.9v7.9h-1L438.4,3v6.2H437.5z"/>
	</g>
</g>
<g id="UP_Button">
	<path class="st13" d="M452.8-35.7c0,1.1-0.9,2-2,2h-28.1c-1.1,0-2-0.9-2-2v-14.8c0-1.1,0.9-2,2-2h28.1c1.1,0,2,0.9,2,2V-35.7z"/>
	<g>
		<path d="M435.2-46.6h1v4.5c0,0.8-0.1,1.4-0.3,1.9c-0.2,0.5-0.5,0.9-0.9,1.2s-1,0.4-1.7,0.4c-1,0-1.7-0.3-2.2-0.8
			c-0.5-0.5-0.7-1.4-0.7-2.7v-4.5h1v4.5c0,0.7,0.1,1.2,0.2,1.5c0.1,0.3,0.3,0.6,0.6,0.7c0.3,0.2,0.6,0.3,1.1,0.3
			c0.7,0,1.2-0.2,1.5-0.5s0.5-1,0.5-2V-46.6z"/>
		<path d="M437.9-38.7v-7.9h2.8c0.7,0,1.1,0,1.5,0.2c0.4,0.1,0.8,0.4,1,0.8c0.3,0.4,0.4,0.8,0.4,1.4c0,0.7-0.2,1.3-0.6,1.7
			c-0.4,0.4-1.1,0.7-2.2,0.7h-1.9v3.2H437.9z M438.9-42.9h1.9c0.6,0,1.1-0.1,1.3-0.4c0.3-0.2,0.4-0.6,0.4-1.1c0-0.3-0.1-0.6-0.2-0.8
			c-0.1-0.2-0.3-0.4-0.5-0.5c-0.2-0.1-0.6-0.1-1.1-0.1h-1.9V-42.9z"/>
	</g>
</g>
<g id="ALT_Button">
	<path class="st13" d="M400.8,16.3c0,1.1-0.9,2-2,2h-28.1c-1.1,0-2-0.9-2-2V1.5c0-1.1,0.9-2,2-2h28.1c1.1,0,2,0.9,2,2V16.3z"/>
	<g>
		<path d="M375.6,13.3l2.9-7.9h1.1l3,7.9h-1.1l-0.9-2.4h-3.1l-0.8,2.4H375.6z M377.8,10h2.5l-0.8-2.2c-0.2-0.7-0.4-1.2-0.5-1.6
			c-0.1,0.5-0.2,1-0.4,1.5L377.8,10z"/>
		<path d="M383.3,13.3V5.4h1v6.9h3.7v0.9H383.3z"/>
		<path d="M390.3,13.3V6.3h-2.5V5.4h5.9v0.9h-2.5v6.9H390.3z"/>
	</g>
</g>
<g id="REV_Button">
	<path class="st13" d="M340.8,16.3c0,1.1-0.9,2-2,2h-28.1c-1.1,0-2-0.9-2-2V1.5c0-1.1,0.9-2,2-2h28.1c1.1,0,2,0.9,2,2V16.3z"/>
	<g>
		<path d="M314.8,13.3V5.4h3.3c0.7,0,1.2,0.1,1.5,0.2c0.3,0.1,0.6,0.4,0.8,0.7c0.2,0.3,0.3,0.7,0.3,1.2c0,0.6-0.2,1.1-0.5,1.4
			c-0.4,0.4-0.9,0.6-1.6,0.7c0.3,0.1,0.5,0.3,0.6,0.4c0.3,0.3,0.6,0.6,0.8,1l1.3,2.1h-1.2l-1-1.6c-0.4-0.6-0.7-1.1-0.9-1.3
			c-0.2-0.2-0.4-0.4-0.6-0.4s-0.4-0.1-0.8-0.1h-1.1v3.5H314.8z M315.8,8.9h2.1c0.5,0,0.8,0,1.1-0.1c0.2-0.1,0.4-0.2,0.6-0.5
			c0.1-0.2,0.2-0.5,0.2-0.7c0-0.4-0.1-0.7-0.4-0.9c-0.3-0.2-0.7-0.3-1.2-0.3h-2.4V8.9z"/>
		<path d="M322.3,13.3V5.4h5.4v0.9h-4.4v2.4h4.1v0.9h-4.1v2.7h4.6v0.9H322.3z"/>
		<path d="M331.4,13.3l-2.9-7.9h1.1l1.9,5.7c0.1,0.4,0.3,0.9,0.4,1.3c0.1-0.4,0.2-0.9,0.4-1.3l2-5.7h1l-2.9,7.9H331.4z"/>
	</g>
</g>
<g id="APR_Button">
	<path class="st13" d="M273.8,16.3c0,1.1-0.9,2-2,2h-28.1c-1.1,0-2-0.9-2-2V1.5c0-1.1,0.9-2,2-2h28.1c1.1,0,2,0.9,2,2V16.3z"/>
	<g>
		<path d="M247,13.3l2.9-7.9h1.1l3,7.9h-1.1l-0.9-2.4h-3.1l-0.8,2.4H247z M249.1,10h2.5l-0.8-2.2c-0.2-0.7-0.4-1.2-0.5-1.6
			c-0.1,0.5-0.2,1-0.4,1.5L249.1,10z"/>
		<path d="M254.7,13.3V5.4h2.8c0.7,0,1.1,0,1.5,0.2c0.4,0.1,0.8,0.4,1,0.8c0.3,0.4,0.4,0.8,0.4,1.4c0,0.7-0.2,1.3-0.6,1.7
			c-0.4,0.4-1.1,0.7-2.2,0.7h-1.9v3.2H254.7z M255.7,9.1h1.9c0.6,0,1.1-0.1,1.3-0.4s0.4-0.6,0.4-1.1c0-0.3-0.1-0.6-0.2-0.8
			c-0.1-0.2-0.3-0.4-0.5-0.5c-0.2-0.1-0.6-0.1-1.1-0.1h-1.9V9.1z"/>
		<path d="M261.7,13.3V5.4h3.3c0.7,0,1.2,0.1,1.5,0.2c0.3,0.1,0.6,0.4,0.8,0.7s0.3,0.7,0.3,1.2c0,0.6-0.2,1.1-0.5,1.4
			c-0.4,0.4-0.9,0.6-1.6,0.7c0.3,0.1,0.5,0.3,0.6,0.4c0.3,0.3,0.6,0.6,0.8,1l1.3,2.1H267l-1-1.6c-0.4-0.6-0.7-1.1-0.9-1.3
			s-0.4-0.4-0.6-0.4c-0.2-0.1-0.4-0.1-0.8-0.1h-1.1v3.5H261.7z M262.7,8.9h2.1c0.5,0,0.8,0,1.1-0.1c0.2-0.1,0.4-0.2,0.6-0.5
			c0.1-0.2,0.2-0.5,0.2-0.7c0-0.4-0.1-0.7-0.4-0.9s-0.7-0.3-1.2-0.3h-2.4V8.9z"/>
	</g>
</g>
<g id="Nav_Button">
	<path class="st13" d="M204.8,16.3c0,1.1-0.9,2-2,2h-28.1c-1.1,0-2-0.9-2-2V1.5c0-1.1,0.9-2,2-2h28.1c1.1,0,2,0.9,2,2V16.3z"/>
	<g>
		<path d="M179.2,13.3V5.4h1l3.9,6.2V5.4h0.9v7.9h-1l-3.9-6.2v6.2H179.2z"/>
		<path d="M185.9,13.3l2.9-7.9h1.1l3,7.9h-1.1l-0.9-2.4h-3.1l-0.8,2.4H185.9z M188,10h2.5l-0.8-2.2c-0.2-0.7-0.4-1.2-0.5-1.6
			c-0.1,0.5-0.2,1-0.4,1.5L188,10z"/>
		<path d="M195,13.3l-2.9-7.9h1.1l1.9,5.7c0.1,0.4,0.3,0.9,0.4,1.3c0.1-0.4,0.2-0.9,0.4-1.3l2-5.7h1l-2.9,7.9H195z"/>
	</g>
</g>
<g id="HGD_Button">
	<path class="st13" d="M136.5,16.3c0,1.1-0.9,2-2,2h-28.1c-1.1,0-2-0.9-2-2V1.5c0-1.1,0.9-2,2-2h28.1c1.1,0,2,0.9,2,2V16.3z"/>
	<g>
		<path d="M109.7,13.3V5.4h1v3.2h3.9V5.4h1v7.9h-1V9.5h-3.9v3.7H109.7z"/>
		<path d="M117.2,13.3V5.4h2.6c0.6,0,1.1,0,1.4,0.1c0.4,0.1,0.8,0.4,1.1,0.7c0.3,0.3,0.6,0.8,0.7,1.3c0.2,0.5,0.3,1.1,0.3,1.8
			c0,0.9-0.2,1.6-0.5,2.3c-0.3,0.6-0.7,1.1-1.2,1.3c-0.5,0.3-1.1,0.4-1.9,0.4H117.2z M118.2,12.3h1.6c0.6,0,1.1-0.1,1.5-0.3
			c0.3-0.2,0.6-0.5,0.8-0.9c0.2-0.5,0.4-1.2,0.4-1.9c0-0.8-0.1-1.4-0.4-1.9c-0.3-0.5-0.6-0.8-1-0.9c-0.3-0.1-0.7-0.2-1.3-0.2h-1.6
			V12.3z"/>
		<path d="M128.2,10.2V9.2l3.2,0v2.9c-0.5,0.4-1,0.7-1.5,0.9s-1,0.3-1.6,0.3c-0.7,0-1.4-0.2-1.9-0.5s-1-0.8-1.4-1.4
			s-0.5-1.3-0.5-2.2c0-0.9,0.2-1.6,0.5-2.2s0.8-1.1,1.3-1.4c0.5-0.3,1.2-0.5,1.9-0.5c0.5,0,1,0.1,1.4,0.3c0.4,0.2,0.7,0.4,1,0.7
			s0.5,0.8,0.6,1.3l-0.9,0.3c-0.1-0.4-0.3-0.8-0.5-1c-0.2-0.2-0.4-0.4-0.7-0.5c-0.3-0.1-0.6-0.2-1-0.2c-0.5,0-1,0.1-1.4,0.3
			c-0.4,0.2-0.7,0.6-0.9,1.1c-0.2,0.5-0.4,1.1-0.4,1.8c0,1.1,0.3,1.8,0.8,2.4c0.5,0.5,1.2,0.8,2,0.8c0.4,0,0.8-0.1,1.2-0.2
			c0.4-0.2,0.7-0.4,1-0.6v-1.5H128.2z"/>
	</g>
</g>
<g id="AP_Button">
	<path class="st13" d="M32.6,17.3c0,1.1-0.9,2-2,2H2.5c-1.1,0-2-0.9-2-2V2.5c0-1.1,0.9-2,2-2h28.1c1.1,0,2,0.9,2,2V17.3z"/>
	<g>
		<path d="M9,14.3l2.9-7.9h1.1l3,7.9h-1.1L14,11.9h-3.1L10,14.3H9z M11.1,11h2.5l-0.8-2.2c-0.2-0.7-0.4-1.2-0.5-1.6
			c-0.1,0.5-0.2,1-0.4,1.5L11.1,11z"/>
		<path d="M16.8,14.3V6.4h2.8c0.7,0,1.1,0,1.5,0.2c0.4,0.1,0.8,0.4,1,0.8c0.3,0.4,0.4,0.8,0.4,1.4c0,0.7-0.2,1.3-0.6,1.7
			c-0.4,0.4-1.1,0.7-2.2,0.7h-1.9v3.2H16.8z M17.7,10.1h1.9c0.6,0,1.1-0.1,1.3-0.4s0.4-0.6,0.4-1.1c0-0.3-0.1-0.6-0.2-0.8
			c-0.1-0.2-0.3-0.4-0.5-0.5c-0.2-0.1-0.6-0.1-1.1-0.1h-1.9V10.1z"/>
	</g>
</g>
<g id="Text" class="st0">
	<g class="st2">
		<rect x="70.2" y="-97.1" class="st5" width="65" height="25.3"/>
		<path class="st14" d="M75.7-85.3l-1.1,9.2l-1,0.8l-0.8-1l1.1-9.2l1-0.8L75.7-85.3z M84-74.7l0.8,1l-1,0.8l-9.1-1.1l-0.8-1l1-0.8
			L84-74.7z M77.1-96.6L76-87.4l-1,0.8l-0.8-1l1.1-9.2l1-0.8L77.1-96.6z M80.5-85.2l0.3,1.4l-3.9,7.1l-1.2,0.5l-0.3-1.5l3.9-7
			L80.5-85.2z M86.7-97.4l0.8,1l-1,0.8l-9.1-1.1l-0.8-1l1-0.8L86.7-97.4z M85.7-95.1l0.3,1.4l-3.9,7.1l-1.2,0.5l-0.3-1.5l3.9-7
			L85.7-95.1z M87.1-83.9l-1.1,9.2l-1,0.8l-0.8-1l1.1-9.2l1-0.8L87.1-83.9z M88.5-95.2L87.3-86l-1,0.8l-0.8-1l1.1-9.2l1-0.8
			L88.5-95.2z"/>
		<path class="st14" d="M97.3-85.3l-1.1,9.2l-1,0.8l-0.8-1l1.1-9.2l1-0.8L97.3-85.3z M105.6-74.7l0.8,1l-1,0.8l-9.1-1.1l-0.8-1
			l1-0.8L105.6-74.7z M98.7-96.6l-1.1,9.2l-1,0.8l-0.8-1l1.1-9.2l1-0.8L98.7-96.6z M102.1-85.2l0.3,1.4l-3.9,7.1l-1.2,0.5l-0.3-1.5
			l3.9-7L102.1-85.2z M108.3-97.4l0.8,1l-1,0.8L99-96.7l-0.8-1l1-0.8L108.3-97.4z M107.3-95.1l0.3,1.4l-3.9,7.1l-1.2,0.5l-0.3-1.5
			l3.9-7L107.3-95.1z M108.7-83.9l-1.1,9.2l-1,0.8l-0.8-1l1.1-9.2l1-0.8L108.7-83.9z M110.1-95.2L109-86l-1,0.8l-0.8-1l1.1-9.2
			l1-0.8L110.1-95.2z"/>
		<path class="st14" d="M119-85.3l-1.1,9.2l-1,0.8l-0.8-1l1.1-9.2l1-0.8L119-85.3z M127.2-74.7l0.8,1l-1,0.8l-9.1-1.1l-0.8-1l1-0.8
			L127.2-74.7z M120.4-96.6l-1.1,9.2l-1,0.8l-0.8-1l1.1-9.2l1-0.8L120.4-96.6z M123.7-85.2l0.3,1.4l-3.9,7.1l-1.2,0.5l-0.3-1.5
			l3.9-7L123.7-85.2z M129.9-97.4l0.8,1l-1,0.8l-9.1-1.1l-0.8-1l1-0.8L129.9-97.4z M128.9-95.1l0.3,1.4l-3.9,7.1l-1.2,0.5l-0.3-1.5
			l3.9-7L128.9-95.1z M130.3-83.9l-1.1,9.2l-1,0.8l-0.8-1l1.1-9.2l1-0.8L130.3-83.9z M131.7-95.2l-1.1,9.2l-1,0.8l-0.8-1l1.1-9.2
			l1-0.8L131.7-95.2z"/>
	</g>
	<g class="st2">
		<rect x="68.2" y="-63.1" class="st5" width="65" height="25.3"/>
		<path class="st14" d="M71.9-62.1v9.3L71-51.9l-0.9-0.9v-9.3l0.9-0.9L71.9-62.1z M71.9-50.6v9.3L71-40.5l-0.9-0.9v-9.3l0.9-0.9
			L71.9-50.6z M81.3-64.1l0.9,0.9l-0.9,0.9h-9.2l-0.9-0.9l0.9-0.9H81.3z M81.4-41.2l0.9,0.9l-0.9,0.9h-9.2l-0.9-0.9l0.9-0.9H81.4z
			 M76.6-51.1l0.5,1.3l-3,7.5l-1.2,0.6l-0.5-1.4l3-7.4L76.6-51.1z M80.6-61.6l0.5,1.3l-3,7.5l-1.2,0.6l-0.5-1.4l3-7.4L80.6-61.6z
			 M83.3-62.1v9.3l-0.9,0.9l-0.9-0.9v-9.3l0.9-0.9L83.3-62.1z M83.3-50.6v9.3l-0.9,0.9l-0.9-0.9v-9.3l0.9-0.9L83.3-50.6z"/>
		<path class="st14" d="M94.8-62.1v9.3l-0.9,0.9L93-52.8v-9.3l0.9-0.9L94.8-62.1z M94.8-50.6v9.3l-0.9,0.9L93-41.4v-9.3l0.9-0.9
			L94.8-50.6z M104.2-64.1l0.9,0.9l-0.9,0.9H95L94-63.1l0.9-0.9H104.2z M104.2-41.2l0.9,0.9l-0.9,0.9H95l-0.9-0.9l0.9-0.9H104.2z
			 M99.5-51.1l0.5,1.3l-3,7.5l-1.2,0.6l-0.5-1.4l3-7.4L99.5-51.1z M103.5-61.6l0.5,1.3l-3,7.5l-1.2,0.6l-0.5-1.4l3-7.4L103.5-61.6z
			 M106.2-62.1v9.3l-0.9,0.9l-0.9-0.9v-9.3l0.9-0.9L106.2-62.1z M106.2-50.6v9.3l-0.9,0.9l-0.9-0.9v-9.3l0.9-0.9L106.2-50.6z"/>
		<path class="st14" d="M117.6-62.1v9.3l-0.9,0.9l-0.9-0.9v-9.3l0.9-0.9L117.6-62.1z M117.6-50.6v9.3l-0.9,0.9l-0.9-0.9v-9.3
			l0.9-0.9L117.6-50.6z M127.1-64.1l0.9,0.9l-0.9,0.9h-9.2l-0.9-0.9l0.9-0.9H127.1z M127.1-41.2l0.9,0.9l-0.9,0.9h-9.2l-0.9-0.9
			l0.9-0.9H127.1z M122.4-51.1l0.5,1.3l-3,7.5l-1.2,0.6l-0.5-1.4l3-7.4L122.4-51.1z M126.4-61.6l0.5,1.3l-3,7.5l-1.2,0.6l-0.5-1.4
			l3-7.4L126.4-61.6z M129.1-62.1v9.3l-0.9,0.9l-0.9-0.9v-9.3l0.9-0.9L129.1-62.1z M129.1-50.6v9.3l-0.9,0.9l-0.9-0.9v-9.3l0.9-0.9
			L129.1-50.6z"/>
	</g>
	<g class="st2">
		<rect x="178.2" y="-97.1" class="st5" width="65" height="25.3"/>
		<path class="st14" d="M183.7-85.3l-1.1,9.2l-1,0.8l-0.8-1l1.1-9.2l1-0.8L183.7-85.3z M192-74.7l0.8,1l-1,0.8l-9.1-1.1l-0.8-1
			l1-0.8L192-74.7z M185.1-96.6l-1.1,9.2l-1,0.8l-0.8-1l1.1-9.2l1-0.8L185.1-96.6z M188.5-85.2l0.3,1.4l-3.9,7.1l-1.2,0.5l-0.3-1.5
			l3.9-7L188.5-85.2z M194.7-97.4l0.8,1l-1,0.8l-9.1-1.1l-0.8-1l1-0.8L194.7-97.4z M193.7-95.1l0.3,1.4l-3.9,7.1l-1.2,0.5l-0.3-1.5
			l3.9-7L193.7-95.1z M195.1-83.9l-1.1,9.2l-1,0.8l-0.8-1l1.1-9.2l1-0.8L195.1-83.9z M196.5-95.2l-1.1,9.2l-1,0.8l-0.8-1l1.1-9.2
			l1-0.8L196.5-95.2z"/>
		<path class="st14" d="M205.3-85.3l-1.1,9.2l-1,0.8l-0.8-1l1.1-9.2l1-0.8L205.3-85.3z M213.6-74.7l0.8,1l-1,0.8l-9.1-1.1l-0.8-1
			l1-0.8L213.6-74.7z M206.7-96.6l-1.1,9.2l-1,0.8l-0.8-1l1.1-9.2l1-0.8L206.7-96.6z M210.1-85.2l0.3,1.4l-3.9,7.1l-1.2,0.5
			l-0.3-1.5l3.9-7L210.1-85.2z M216.3-97.4l0.8,1l-1,0.8l-9.1-1.1l-0.8-1l1-0.8L216.3-97.4z M215.3-95.1l0.3,1.4l-3.9,7.1l-1.2,0.5
			l-0.3-1.5l3.9-7L215.3-95.1z M216.7-83.9l-1.1,9.2l-1,0.8l-0.8-1l1.1-9.2l1-0.8L216.7-83.9z M218.1-95.2L217-86l-1,0.8l-0.8-1
			l1.1-9.2l1-0.8L218.1-95.2z"/>
		<path class="st14" d="M227-85.3l-1.1,9.2l-1,0.8l-0.8-1l1.1-9.2l1-0.8L227-85.3z M235.2-74.7l0.8,1l-1,0.8l-9.1-1.1l-0.8-1l1-0.8
			L235.2-74.7z M228.4-96.6l-1.1,9.2l-1,0.8l-0.8-1l1.1-9.2l1-0.8L228.4-96.6z M231.7-85.2l0.3,1.4l-3.9,7.1l-1.2,0.5l-0.3-1.5
			l3.9-7L231.7-85.2z M237.9-97.4l0.8,1l-1,0.8l-9.1-1.1l-0.8-1l1-0.8L237.9-97.4z M236.9-95.1l0.3,1.4l-3.9,7.1l-1.2,0.5l-0.3-1.5
			l3.9-7L236.9-95.1z M238.3-83.9l-1.1,9.2l-1,0.8l-0.8-1l1.1-9.2l1-0.8L238.3-83.9z M239.7-95.2l-1.1,9.2l-1,0.8l-0.8-1l1.1-9.2
			l1-0.8L239.7-95.2z"/>
	</g>
	<g class="st2">
		<rect x="176.2" y="-63.1" class="st5" width="65" height="25.3"/>
		<path class="st14" d="M179.9-62.1v9.3l-0.9,0.9l-0.9-0.9v-9.3l0.9-0.9L179.9-62.1z M179.9-50.6v9.3l-0.9,0.9l-0.9-0.9v-9.3
			l0.9-0.9L179.9-50.6z M189.3-64.1l0.9,0.9l-0.9,0.9h-9.2l-0.9-0.9l0.9-0.9H189.3z M189.4-41.2l0.9,0.9l-0.9,0.9h-9.2l-0.9-0.9
			l0.9-0.9H189.4z M184.6-51.1l0.5,1.3l-3,7.5l-1.2,0.6l-0.5-1.4l3-7.4L184.6-51.1z M188.6-61.6l0.5,1.3l-3,7.5l-1.2,0.6l-0.5-1.4
			l3-7.4L188.6-61.6z M191.3-62.1v9.3l-0.9,0.9l-0.9-0.9v-9.3l0.9-0.9L191.3-62.1z M191.3-50.6v9.3l-0.9,0.9l-0.9-0.9v-9.3l0.9-0.9
			L191.3-50.6z"/>
		<path class="st14" d="M202.8-62.1v9.3l-0.9,0.9l-0.9-0.9v-9.3l0.9-0.9L202.8-62.1z M202.8-50.6v9.3l-0.9,0.9l-0.9-0.9v-9.3
			l0.9-0.9L202.8-50.6z M212.2-64.1l0.9,0.9l-0.9,0.9H203l-0.9-0.9l0.9-0.9H212.2z M212.2-41.2l0.9,0.9l-0.9,0.9H203l-0.9-0.9
			l0.9-0.9H212.2z M207.5-51.1l0.5,1.3l-3,7.5l-1.2,0.6l-0.5-1.4l3-7.4L207.5-51.1z M211.5-61.6l0.5,1.3l-3,7.5l-1.2,0.6l-0.5-1.4
			l3-7.4L211.5-61.6z M214.2-62.1v9.3l-0.9,0.9l-0.9-0.9v-9.3l0.9-0.9L214.2-62.1z M214.2-50.6v9.3l-0.9,0.9l-0.9-0.9v-9.3l0.9-0.9
			L214.2-50.6z"/>
		<path class="st14" d="M225.6-62.1v9.3l-0.9,0.9l-0.9-0.9v-9.3l0.9-0.9L225.6-62.1z M225.6-50.6v9.3l-0.9,0.9l-0.9-0.9v-9.3
			l0.9-0.9L225.6-50.6z M235.1-64.1l0.9,0.9l-0.9,0.9h-9.2l-0.9-0.9l0.9-0.9H235.1z M235.1-41.2l0.9,0.9l-0.9,0.9h-9.2l-0.9-0.9
			l0.9-0.9H235.1z M230.4-51.1l0.5,1.3l-3,7.5l-1.2,0.6l-0.5-1.4l3-7.4L230.4-51.1z M234.4-61.6l0.5,1.3l-3,7.5l-1.2,0.6l-0.5-1.4
			l3-7.4L234.4-61.6z M237.1-62.1v9.3l-0.9,0.9l-0.9-0.9v-9.3l0.9-0.9L237.1-62.1z M237.1-50.6v9.3l-0.9,0.9l-0.9-0.9v-9.3l0.9-0.9
			L237.1-50.6z"/>
	</g>
	<g class="st2">
		<rect x="288" y="-97.1" class="st5" width="111.2" height="25.3"/>
		<path class="st14" d="M293.5-85.3l-1.1,9.2l-1,0.8l-0.8-1l1.1-9.2l1-0.8L293.5-85.3z M301.7-74.7l0.8,1l-1,0.8l-9.1-1.1l-0.8-1
			l1-0.8L301.7-74.7z M294.9-96.6l-1.1,9.2l-1,0.8l-0.8-1l1.1-9.2l1-0.8L294.9-96.6z M298.2-85.2l0.3,1.4l-3.9,7.1l-1.2,0.5
			l-0.3-1.5l3.9-7L298.2-85.2z M304.5-97.4l0.8,1l-1,0.8l-9.1-1.1l-0.8-1l1-0.8L304.5-97.4z M303.5-95.1l0.3,1.4l-3.9,7.1l-1.2,0.5
			l-0.3-1.5l3.9-7L303.5-95.1z M304.8-83.9l-1.1,9.2l-1,0.8l-0.8-1l1.1-9.2l1-0.8L304.8-83.9z M306.2-95.2l-1.1,9.2l-1,0.8l-0.8-1
			l1.1-9.2l1-0.8L306.2-95.2z"/>
		<path class="st14" d="M315.1-85.3l-1.1,9.2l-1,0.8l-0.8-1l1.1-9.2l1-0.8L315.1-85.3z M323.3-74.7l0.8,1l-1,0.8l-9.1-1.1l-0.8-1
			l1-0.8L323.3-74.7z M316.5-96.6l-1.1,9.2l-1,0.8l-0.8-1l1.1-9.2l1-0.8L316.5-96.6z M319.8-85.2l0.3,1.4l-3.9,7.1l-1.2,0.5
			l-0.3-1.5l3.9-7L319.8-85.2z M326.1-97.4l0.8,1l-1,0.8l-9.1-1.1l-0.8-1l1-0.8L326.1-97.4z M325.1-95.1l0.3,1.4l-3.9,7.1l-1.2,0.5
			l-0.3-1.5l3.9-7L325.1-95.1z M326.4-83.9l-1.1,9.2l-1,0.8l-0.8-1l1.1-9.2l1-0.8L326.4-83.9z M327.8-95.2l-1.1,9.2l-1,0.8l-0.8-1
			l1.1-9.2l1-0.8L327.8-95.2z"/>
		<path class="st14" d="M336.7-85.3l-1.1,9.2l-1,0.8l-0.8-1l1.1-9.2l1-0.8L336.7-85.3z M345-74.7l0.8,1l-1,0.8l-9.1-1.1l-0.8-1
			l1-0.8L345-74.7z M338.1-96.6l-1.1,9.2l-1,0.8l-0.8-1l1.1-9.2l1-0.8L338.1-96.6z M341.4-85.2l0.3,1.4l-3.9,7.1l-1.2,0.5l-0.3-1.5
			l3.9-7L341.4-85.2z M347.7-97.4l0.8,1l-1,0.8l-9.1-1.1l-0.8-1l1-0.8L347.7-97.4z M346.7-95.1l0.3,1.4l-3.9,7.1l-1.2,0.5l-0.3-1.5
			l3.9-7L346.7-95.1z M348.1-83.9l-1.1,9.2l-1,0.8l-0.8-1l1.1-9.2l1-0.8L348.1-83.9z M349.4-95.2l-1.1,9.2l-1,0.8l-0.8-1l1.1-9.2
			l1-0.8L349.4-95.2z"/>
		<path class="st14" d="M358.3-85.3l-1.1,9.2l-1,0.8l-0.8-1l1.1-9.2l1-0.8L358.3-85.3z M366.6-74.7l0.8,1l-1,0.8l-9.1-1.1l-0.8-1
			l1-0.8L366.6-74.7z M359.7-96.6l-1.1,9.2l-1,0.8l-0.8-1l1.1-9.2l1-0.8L359.7-96.6z M363.1-85.2l0.3,1.4l-3.9,7.1l-1.2,0.5
			l-0.3-1.5l3.9-7L363.1-85.2z M369.3-97.4l0.8,1l-1,0.8l-9.1-1.1l-0.8-1l1-0.8L369.3-97.4z M368.3-95.1l0.3,1.4l-3.9,7.1l-1.2,0.5
			l-0.3-1.5l3.9-7L368.3-95.1z M369.7-83.9l-1.1,9.2l-1,0.8l-0.8-1l1.1-9.2l1-0.8L369.7-83.9z M371.1-95.2l-1.1,9.2l-1,0.8l-0.8-1
			l1.1-9.2l1-0.8L371.1-95.2z"/>
		<path class="st14" d="M379.9-85.3l-1.1,9.2l-1,0.8l-0.8-1l1.1-9.2l1-0.8L379.9-85.3z M388.2-74.7l0.8,1l-1,0.8l-9.1-1.1l-0.8-1
			l1-0.8L388.2-74.7z M381.3-96.6l-1.1,9.2l-1,0.8l-0.8-1l1.1-9.2l1-0.8L381.3-96.6z M384.7-85.2l0.3,1.4l-3.9,7.1l-1.2,0.5
			l-0.3-1.5l3.9-7L384.7-85.2z M390.9-97.4l0.8,1l-1,0.8l-9.1-1.1l-0.8-1l1-0.8L390.9-97.4z M389.9-95.1l0.3,1.4l-3.9,7.1l-1.2,0.5
			l-0.3-1.5l3.9-7L389.9-95.1z M391.3-83.9l-1.1,9.2l-1,0.8l-0.8-1l1.1-9.2l1-0.8L391.3-83.9z M392.7-95.2l-1.1,9.2l-1,0.8l-0.8-1
			l1.1-9.2l1-0.8L392.7-95.2z"/>
	</g>
</g>
<g id="R_Flag" class="st0">
	<g class="st2">
		<rect x="22.1" y="-20.6" class="st5" width="12.6" height="13.5"/>
		<path class="st15" d="M23-12v-8.6h3.7c0.9,0,1.6,0.1,2,0.2s0.7,0.4,1,0.8s0.4,0.8,0.4,1.4c0,0.6-0.2,1.2-0.6,1.6s-0.9,0.7-1.7,0.8
			c0.4,0.2,0.7,0.5,0.9,0.7s0.6,0.7,1,1.4l1,1.7h-2.1l-1.3-1.9c-0.4-0.7-0.8-1.1-0.9-1.3s-0.3-0.3-0.5-0.4s-0.5-0.1-0.9-0.1h-0.4
			v3.6H23z M24.7-17H26c0.8,0,1.4,0,1.6-0.1s0.4-0.2,0.5-0.4s0.2-0.4,0.2-0.6c0-0.3-0.1-0.5-0.2-0.7s-0.4-0.3-0.7-0.3
			c-0.1,0-0.6,0-1.3,0h-1.4V-17z"/>
	</g>
</g>
<g id="P_Flag" class="st0">
	<g class="st2">
		<rect x="3.3" y="-20.6" class="st5" width="10" height="13.5"/>
		<path class="st15" d="M4.1-12v-8.6h2.8c1.1,0,1.7,0,2.1,0.1c0.5,0.1,0.9,0.4,1.2,0.8s0.5,1,0.5,1.7c0,0.5-0.1,1-0.3,1.3
			S10-16,9.7-15.8c-0.3,0.2-0.6,0.3-0.9,0.4c-0.4,0.1-1,0.1-1.8,0.1H5.9v3.2H4.1z M5.9-19.2v2.4h0.9c0.7,0,1.1,0,1.4-0.1
			c0.2-0.1,0.4-0.2,0.5-0.4s0.2-0.4,0.2-0.7c0-0.3-0.1-0.6-0.3-0.8s-0.4-0.3-0.7-0.4c-0.2,0-0.6-0.1-1.2-0.1H5.9z"/>
	</g>
</g>
<g id="L_Arm_Flag" class="st0">
	<g class="st2">
		<rect x="137.3" y="-73.5" class="st5" width="9" height="37.5"/>
		<path class="st14" d="M138.7-64.1l3-7.9h1.1l3.2,7.9h-1.2l-0.9-2.4h-3.3l-0.9,2.4H138.7z M140.9-67.3h2.7l-0.8-2.2
			c-0.3-0.7-0.4-1.2-0.6-1.6c-0.1,0.5-0.2,1-0.4,1.5L140.9-67.3z"/>
		<path class="st14" d="M139.3-51.4v-7.9h3.5c0.7,0,1.2,0.1,1.6,0.2c0.4,0.1,0.7,0.4,0.9,0.7s0.3,0.8,0.3,1.2c0,0.6-0.2,1-0.5,1.4
			s-0.9,0.6-1.7,0.7c0.3,0.1,0.5,0.3,0.6,0.4c0.3,0.3,0.6,0.6,0.9,1l1.4,2.1h-1.3l-1-1.6c-0.3-0.5-0.6-0.8-0.8-1.1
			c-0.2-0.3-0.4-0.4-0.5-0.5c-0.2-0.1-0.3-0.2-0.5-0.2c-0.1,0-0.3,0-0.6,0h-1.2v3.5H139.3z M140.3-55.8h2.2c0.5,0,0.8,0,1.1-0.1
			c0.3-0.1,0.5-0.3,0.6-0.5c0.1-0.2,0.2-0.5,0.2-0.7c0-0.4-0.1-0.7-0.4-0.9s-0.7-0.4-1.3-0.4h-2.5V-55.8z"/>
		<path class="st14" d="M138.6-38.7v-7.9h1.6L142-41c0.2,0.5,0.3,0.9,0.4,1.2c0.1-0.3,0.2-0.7,0.4-1.3l1.9-5.5h1.4v7.9h-1v-6.6
			l-2.3,6.6h-0.9l-2.3-6.7v6.7H138.6z"/>
	</g>
</g>
<g id="R_Arm_Flag" class="st0">
	<g class="st2">
		<rect x="242.3" y="-74.2" class="st5" width="9" height="37.5"/>
		<path class="st14" d="M243.7-64.8l3-7.9h1.1l3.2,7.9h-1.2l-0.9-2.4h-3.3l-0.9,2.4H243.7z M245.9-68h2.7l-0.8-2.2
			c-0.3-0.7-0.4-1.2-0.6-1.6c-0.1,0.5-0.2,1-0.4,1.5L245.9-68z"/>
		<path class="st14" d="M244.3-52.1V-60h3.5c0.7,0,1.2,0.1,1.6,0.2c0.4,0.1,0.7,0.4,0.9,0.7s0.3,0.8,0.3,1.2c0,0.6-0.2,1-0.5,1.4
			s-0.9,0.6-1.7,0.7c0.3,0.1,0.5,0.3,0.6,0.4c0.3,0.3,0.6,0.6,0.9,1l1.4,2.1h-1.3l-1-1.6c-0.3-0.5-0.6-0.8-0.8-1.1
			c-0.2-0.3-0.4-0.4-0.5-0.5c-0.2-0.1-0.3-0.2-0.5-0.2c-0.1,0-0.3,0-0.6,0h-1.2v3.5H244.3z M245.3-56.5h2.2c0.5,0,0.8,0,1.1-0.1
			c0.3-0.1,0.5-0.3,0.6-0.5c0.1-0.2,0.2-0.5,0.2-0.7c0-0.4-0.1-0.7-0.4-0.9s-0.7-0.4-1.3-0.4h-2.5V-56.5z"/>
		<path class="st14" d="M243.6-39.4v-7.9h1.6l1.9,5.6c0.2,0.5,0.3,0.9,0.4,1.2c0.1-0.3,0.2-0.7,0.4-1.3l1.9-5.5h1.4v7.9h-1V-46
			l-2.3,6.6h-0.9l-2.3-6.7v6.7H243.6z"/>
	</g>
</g>
<g id="PT_Down" class="st0">
	<polygon class="st16" points="263.9,-51.4 268,-40.8 272.1,-51.4 	"/>
</g>
<g id="PT_Up" class="st0">
	<polygon class="st16" points="263.9,-84.5 268,-95.1 272.1,-84.5 	"/>
</g>
<g id="PT_Flag" class="st0">
	<g class="st2">
		<rect x="262.7" y="-80.5" class="st5" width="9" height="26.7"/>
		<path class="st14" d="M265-71v-7.9h3c0.5,0,0.9,0,1.2,0.1c0.4,0.1,0.7,0.2,1,0.4c0.3,0.2,0.5,0.4,0.6,0.8s0.2,0.7,0.2,1.1
			c0,0.7-0.2,1.2-0.6,1.7c-0.4,0.5-1.2,0.7-2.3,0.7h-2v3.2H265z M266.1-75.2h2c0.7,0,1.2-0.1,1.4-0.4s0.4-0.6,0.4-1.1
			c0-0.3-0.1-0.6-0.3-0.8c-0.2-0.2-0.4-0.4-0.7-0.5c-0.2,0-0.5-0.1-1-0.1h-2V-75.2z"/>
		<path class="st14" d="M267.3-58.4v-6.9h-2.6v-0.9h6.2v0.9h-2.6v6.9H267.3z"/>
	</g>
</g>
<g id="FPM_Flag" class="st0">
	<g class="st2">
		<rect x="344.2" y="-63.9" class="st5" width="26.8" height="8.4"/>
		<path class="st14" d="M345.1-56v-7.9h5.3v0.9h-4.3v2.4h3.7v0.9h-3.7v3.6H345.1z"/>
		<path class="st14" d="M353.5-56v-7.9h3c0.5,0,0.9,0,1.2,0.1c0.4,0.1,0.7,0.2,1,0.4c0.3,0.2,0.5,0.4,0.6,0.8s0.2,0.7,0.2,1.1
			c0,0.7-0.2,1.2-0.6,1.7c-0.4,0.5-1.2,0.7-2.3,0.7h-2v3.2H353.5z M354.5-60.1h2c0.7,0,1.2-0.1,1.4-0.4s0.4-0.6,0.4-1.1
			c0-0.3-0.1-0.6-0.3-0.8c-0.2-0.2-0.4-0.4-0.7-0.5c-0.2,0-0.5-0.1-1-0.1h-2V-60.1z"/>
		<path class="st14" d="M362.4-56v-7.9h1.6l1.9,5.6c0.2,0.5,0.3,0.9,0.4,1.2c0.1-0.3,0.2-0.7,0.4-1.3l1.9-5.5h1.4v7.9h-1v-6.6
			l-2.3,6.6h-0.9l-2.3-6.7v6.7H362.4z"/>
	</g>
</g>
<g id="ALERT_Flag" class="st0">
	<g class="st2">
		<rect x="289.5" y="-63.9" class="st5" width="43.8" height="8.4"/>
		<path class="st14" d="M289.5-56l3-7.9h1.1l3.2,7.9h-1.2l-0.9-2.4h-3.3l-0.9,2.4H289.5z M291.7-59.2h2.7l-0.8-2.2
			c-0.3-0.7-0.4-1.2-0.6-1.6c-0.1,0.5-0.2,1-0.4,1.5L291.7-59.2z"/>
		<path class="st14" d="M299.3-56v-7.9h1v6.9h3.9v0.9H299.3z"/>
		<path class="st14" d="M307.1-56v-7.9h5.7v0.9h-4.7v2.4h4.4v0.9h-4.4v2.7h4.8v0.9H307.1z"/>
		<path class="st14" d="M316.1-56v-7.9h3.5c0.7,0,1.2,0.1,1.6,0.2c0.4,0.1,0.7,0.4,0.9,0.7s0.3,0.8,0.3,1.2c0,0.6-0.2,1-0.5,1.4
			s-0.9,0.6-1.7,0.7c0.3,0.1,0.5,0.3,0.6,0.4c0.3,0.3,0.6,0.6,0.9,1l1.4,2.1h-1.3l-1-1.6c-0.3-0.5-0.6-0.8-0.8-1.1
			c-0.2-0.3-0.4-0.4-0.5-0.5c-0.2-0.1-0.3-0.2-0.5-0.2c-0.1,0-0.3,0-0.6,0h-1.2v3.5H316.1z M317.2-60.4h2.2c0.5,0,0.8,0,1.1-0.1
			c0.3-0.1,0.5-0.3,0.6-0.5c0.1-0.2,0.2-0.5,0.2-0.7c0-0.4-0.1-0.7-0.4-0.9s-0.7-0.4-1.3-0.4h-2.5V-60.4z"/>
		<path class="st14" d="M327.5-56v-6.9h-2.6v-0.9h6.2v0.9h-2.6v6.9H327.5z"/>
	</g>
</g>
<g id="HPA_Flag" class="st0">
	<g class="st2">
		<rect x="305.2" y="-50.3" class="st5" width="25.8" height="8.4"/>
		<path class="st14" d="M306.1-42.4v-7.9h1v3.2h4.1v-3.2h1v7.9h-1v-3.7h-4.1v3.7H306.1z"/>
		<path class="st14" d="M315.7-42.4v-7.9h3c0.5,0,0.9,0,1.2,0.1c0.4,0.1,0.7,0.2,1,0.4c0.3,0.2,0.5,0.4,0.6,0.8s0.2,0.7,0.2,1.1
			c0,0.7-0.2,1.2-0.6,1.7c-0.4,0.5-1.2,0.7-2.3,0.7h-2v3.2H315.7z M316.7-46.5h2c0.7,0,1.2-0.1,1.4-0.4s0.4-0.6,0.4-1.1
			c0-0.3-0.1-0.6-0.3-0.8c-0.2-0.2-0.4-0.4-0.7-0.5c-0.2,0-0.5-0.1-1-0.1h-2V-46.5z"/>
		<path class="st14" d="M323-42.4l3-7.9h1.1l3.2,7.9h-1.2l-0.9-2.4h-3.3l-0.9,2.4H323z M325.2-45.6h2.7l-0.8-2.2
			c-0.3-0.7-0.4-1.2-0.6-1.6c-0.1,0.5-0.2,1-0.4,1.5L325.2-45.6z"/>
	</g>
</g>
<g id="IN_HG_Flag" class="st0">
	<g class="st2">
		<rect x="357.6" y="-50.3" class="st5" width="15.8" height="8.4"/>
		<path class="st14" d="M358.6-42.4v-7.9h1v7.9H358.6z"/>
		<path class="st14" d="M363.2-42.4v-7.9h1.1l4.1,6.2v-6.2h1v7.9h-1.1l-4.1-6.2v6.2H363.2z"/>
	</g>
	<g class="st2">
		<rect x="376.7" y="-50.3" class="st5" width="19.7" height="8.4"/>
		<path class="st14" d="M377.6-42.4v-7.9h1v3.2h4.1v-3.2h1v7.9h-1v-3.7h-4.1v3.7H377.6z"/>
		<path class="st14" d="M390.9-45.5v-0.9l3.3,0v2.9c-0.5,0.4-1,0.7-1.6,0.9c-0.5,0.2-1.1,0.3-1.7,0.3c-0.8,0-1.5-0.2-2.1-0.5
			c-0.6-0.3-1.1-0.8-1.4-1.4s-0.5-1.3-0.5-2.1c0-0.8,0.2-1.5,0.5-2.1c0.3-0.7,0.8-1.2,1.4-1.5s1.3-0.5,2.1-0.5
			c0.6,0,1.1,0.1,1.5,0.3c0.5,0.2,0.8,0.4,1.1,0.8s0.5,0.8,0.6,1.3l-0.9,0.3c-0.1-0.4-0.3-0.7-0.4-0.9s-0.4-0.4-0.8-0.6
			c-0.3-0.1-0.7-0.2-1.1-0.2c-0.5,0-0.9,0.1-1.2,0.2c-0.3,0.1-0.6,0.3-0.8,0.6s-0.4,0.5-0.5,0.8c-0.2,0.5-0.3,1-0.3,1.6
			c0,0.7,0.1,1.3,0.4,1.8c0.2,0.5,0.6,0.8,1.1,1.1c0.5,0.2,1,0.3,1.5,0.3c0.5,0,0.9-0.1,1.3-0.3c0.4-0.2,0.8-0.4,1-0.6v-1.5H390.9z"
			/>
	</g>
</g>
<g id="FT_Flag" class="st0">
	<g class="st2">
		<rect x="376.7" y="-63.9" class="st5" width="15.8" height="8.4"/>
		<path class="st14" d="M377.6-56v-7.9h5.3v0.9h-4.3v2.4h3.7v0.9h-3.7v3.6H377.6z"/>
		<path class="st14" d="M388-56v-6.9h-2.6v-0.9h6.2v0.9H389v6.9H388z"/>
	</g>
</g>
<g id="AP_Flag" class="st0">
	<g class="st2">
		<rect x="153" y="-92.9" class="st5" width="16.8" height="8.4"/>
		<path class="st14" d="M153-85l3-7.9h1.1l3.2,7.9h-1.2l-0.9-2.4h-3.3l-0.9,2.4H153z M155.2-88.2h2.7l-0.8-2.2
			c-0.3-0.7-0.4-1.2-0.6-1.6c-0.1,0.5-0.2,1-0.4,1.5L155.2-88.2z"/>
		<path class="st14" d="M162.8-85v-7.9h3c0.5,0,0.9,0,1.2,0.1c0.4,0.1,0.7,0.2,1,0.4c0.3,0.2,0.5,0.4,0.6,0.8s0.2,0.7,0.2,1.1
			c0,0.7-0.2,1.2-0.6,1.7c-0.4,0.5-1.2,0.7-2.3,0.7h-2v3.2H162.8z M163.9-89.1h2c0.7,0,1.2-0.1,1.4-0.4s0.4-0.6,0.4-1.1
			c0-0.3-0.1-0.6-0.3-0.8c-0.2-0.2-0.4-0.4-0.7-0.5c-0.2,0-0.5-0.1-1-0.1h-2V-89.1z"/>
	</g>
	<polygon class="st16" points="169.5,-95.1 152.6,-95.1 151.1,-96.6 170.8,-96.6 	"/>
	<polygon class="st16" points="169.8,-82 152.9,-82 151.4,-80.5 171.1,-80.5 	"/>
	<polygon class="st16" points="170.5,-94.6 170.5,-82.7 172,-81.7 172,-95.6 	"/>
	<polygon class="st16" points="151.6,-94.6 151.6,-82.7 150.1,-81.7 150.1,-95.6 	"/>
</g>
</svg>
