<?xml version="1.0" encoding="utf-8"?>
<!-- Generator: Adobe Illustrator 19.0.0, SVG Export Plug-In . SVG Version: 6.00 Build 0)  -->
<svg version="1.1" xmlns="http://www.w3.org/2000/svg" xmlns:xlink="http://www.w3.org/1999/xlink" x="0px" y="0px"
	 viewBox="0 0 33.1 19.8" style="enable-background:new 0 0 33.1 19.8;" xml:space="preserve">
<style type="text/css">
	.st0{display:none;}
	.st1{display:inline;fill:#282828;stroke:#E5E5E5;stroke-width:2;stroke-miterlimit:10;}
	.st2{display:inline;}
	.st3{display:inline;fill:#58595B;}
	.st4{display:inline;fill:none;stroke:#414042;stroke-width:2;stroke-miterlimit:10;}
	.st5{fill:none;}
	.st6{fill:#414042;}
	.st7{display:inline;fill:none;stroke:#FFFFFF;stroke-miterlimit:10;}
	.st8{fill:#FFFFFF;}
	.st9{display:inline;fill:#3F403F;stroke:#000000;stroke-miterlimit:10;}
	.st10{fill:none;stroke:#000000;stroke-width:1.5;stroke-miterlimit:10;stroke-dasharray:1.5093,1.5093;}
	.st11{fill:#3F403F;stroke:#000000;stroke-width:2;stroke-miterlimit:10;}
	.st12{fill:none;stroke:#000000;stroke-width:1.5;stroke-miterlimit:10;stroke-dasharray:1.5898,1.5898;}
	.st13{fill:#FFFFFF;stroke:#FFFFFF;stroke-miterlimit:10;}
	.st14{fill:#F7941E;}
	.st15{fill:#ED1C24;}
	.st16{display:inline;fill:#F7941E;}
</style>
<g id="Layer_1" class="st0">
	<path id="XMLID_814_" class="st1" d="M397.8,38.5h-586.7c-1.7,0-3-0.9-3-2v-150c0-1.1,1.3-2,3-2h586.7c1.7,0,3,0.9,3,2v150
		C400.8,37.7,399.4,38.5,397.8,38.5z"/>
</g>
<g id="Base" class="st0">
	<path class="st2" d="M227-39.6c0,4.3-2.1,7.8-4.7,7.8H-99.2c-2.6,0-4.7-3.5-4.7-7.8V-92c0-4.3,2.1-7.8,4.7-7.8h321.5
		c2.6,0,4.7,3.5,4.7,7.8V-39.6z"/>
	<circle class="st3" cx="264.6" cy="-80.9" r="5.7"/>
	<line class="st4" x1="258.8" y1="-80.9" x2="270.3" y2="-80.9"/>
	<g class="st2">
		<rect x="-150" y="-19.6" class="st5" width="12.6" height="13.5"/>
		<path class="st6" d="M-149.1-11v-8.6h3.7c0.9,0,1.6,0.1,2,0.2s0.7,0.4,1,0.8s0.4,0.8,0.4,1.4c0,0.6-0.2,1.2-0.6,1.6
			c-0.4,0.4-0.9,0.7-1.7,0.8c0.4,0.2,0.7,0.5,0.9,0.7s0.6,0.7,1,1.4l1,1.7h-2.1l-1.3-1.9c-0.4-0.7-0.8-1.1-0.9-1.3s-0.3-0.3-0.5-0.4
			s-0.5-0.1-0.9-0.1h-0.4v3.6H-149.1z M-147.4-16h1.3c0.8,0,1.4,0,1.6-0.1s0.4-0.2,0.5-0.4s0.2-0.4,0.2-0.6c0-0.3-0.1-0.5-0.2-0.7
			s-0.4-0.3-0.7-0.3c-0.1,0-0.6,0-1.3,0h-1.4V-16z"/>
	</g>
	<g class="st2">
		<rect x="-168.9" y="-19.6" class="st5" width="10" height="13.5"/>
		<path class="st6" d="M-168-11v-8.6h2.8c1.1,0,1.7,0,2.1,0.1c0.5,0.1,0.9,0.4,1.2,0.8s0.5,1,0.5,1.7c0,0.5-0.1,1-0.3,1.3
			c-0.2,0.4-0.4,0.6-0.7,0.8s-0.6,0.3-0.9,0.4c-0.4,0.1-1,0.1-1.8,0.1h-1.1v3.2H-168z M-166.3-18.2v2.4h0.9c0.7,0,1.1,0,1.4-0.1
			s0.4-0.2,0.5-0.4s0.2-0.4,0.2-0.7c0-0.3-0.1-0.6-0.3-0.8s-0.4-0.3-0.7-0.4c-0.2,0-0.6-0.1-1.2-0.1H-166.3z"/>
	</g>
	<path class="st7" d="M285.5,17.3c0,2.8-1.9,5.1-4.3,5.1h-34.4c-2.4,0-4.3-2.3-4.3-5.1v-70.9c0-2.8,1.9-5.1,4.3-5.1h34.4
		c2.4,0,4.3,2.3,4.3,5.1V17.3z"/>
</g>
<g id="Labels" class="st0">
	<g class="st2">
		<rect x="-170.8" y="-93.7" class="st5" width="41.6" height="9.1"/>
		<path class="st8" d="M-170.1-86.2v-7.4h1v3.7l3.7-3.7h1.3l-3.1,3l3.3,4.4h-1.3l-2.6-3.8l-1.2,1.2v2.6H-170.1z"/>
		<path class="st8" d="M-163.9-86.2l2.9-7.4h1.1l3,7.4h-1.1l-0.9-2.3h-3.1l-0.8,2.3H-163.9z M-161.8-89.3h2.5l-0.8-2.1
			c-0.2-0.6-0.4-1.1-0.5-1.5c-0.1,0.5-0.2,1-0.4,1.4L-161.8-89.3z"/>
		<path class="st8" d="M-156.2-86.2v-7.4h2.8c0.5,0,0.9,0,1.1,0.1c0.4,0.1,0.7,0.2,0.9,0.3s0.4,0.4,0.6,0.7s0.2,0.6,0.2,1
			c0,0.6-0.2,1.2-0.6,1.6c-0.4,0.4-1.1,0.7-2.2,0.7h-1.9v3H-156.2z M-155.2-90.1h1.9c0.6,0,1.1-0.1,1.4-0.4c0.3-0.2,0.4-0.6,0.4-1
			c0-0.3-0.1-0.6-0.2-0.8s-0.4-0.4-0.6-0.4c-0.2,0-0.5-0.1-0.9-0.1h-1.9V-90.1z"/>
		<path class="st8" d="M-143.5-86.2h-0.9V-92c-0.2,0.2-0.5,0.4-0.9,0.6s-0.7,0.4-1,0.5v-0.9c0.5-0.2,1-0.5,1.3-0.9
			c0.4-0.3,0.7-0.7,0.8-1h0.6V-86.2z"/>
		<path class="st8" d="M-138.2-86.2V-88h-3.2v-0.8l3.4-4.8h0.7v4.8h1v0.8h-1v1.8H-138.2z M-138.2-88.8v-3.4l-2.3,3.4H-138.2z"/>
		<path class="st8" d="M-135.3-89.9c0-0.9,0.1-1.6,0.3-2.1c0.2-0.5,0.4-0.9,0.8-1.2s0.8-0.4,1.3-0.4c0.4,0,0.7,0.1,1.1,0.2
			c0.3,0.2,0.5,0.4,0.7,0.7c0.2,0.3,0.4,0.7,0.5,1.1c0.1,0.4,0.2,1,0.2,1.8c0,0.9-0.1,1.6-0.3,2.1c-0.2,0.5-0.4,1-0.8,1.2
			c-0.4,0.3-0.8,0.4-1.4,0.4c-0.7,0-1.3-0.3-1.7-0.8C-135.1-87.5-135.3-88.5-135.3-89.9z M-134.4-89.9c0,1.2,0.1,2,0.4,2.4
			c0.3,0.4,0.6,0.6,1.1,0.6s0.8-0.2,1.1-0.6c0.3-0.4,0.4-1.2,0.4-2.4c0-1.2-0.1-2-0.4-2.4c-0.3-0.4-0.6-0.6-1.1-0.6
			c-0.4,0-0.8,0.2-1,0.5C-134.2-91.9-134.4-91.1-134.4-89.9z"/>
	</g>
	<g class="st2">
		<rect x="-182.9" y="-105.5" class="st5" width="59.6" height="7.2"/>
		<path class="st8" d="M-182.6-99.3l1.3-6.3h2.2c0.5,0,0.8,0,1,0c0.3,0,0.6,0.1,0.8,0.3c0.2,0.1,0.4,0.3,0.5,0.5
			c0.1,0.2,0.2,0.5,0.2,0.7c0,0.3-0.1,0.7-0.3,0.9c-0.2,0.3-0.5,0.5-0.9,0.6c0.3,0.1,0.6,0.2,0.8,0.5s0.3,0.5,0.3,0.8
			c0,0.4-0.1,0.7-0.3,1.1c-0.2,0.3-0.5,0.6-0.9,0.7s-0.9,0.2-1.5,0.2H-182.6z M-181.1-100.3h1.2c0.5,0,0.9,0,1.1-0.1
			c0.2-0.1,0.3-0.2,0.4-0.3c0.1-0.2,0.2-0.3,0.2-0.5c0-0.2-0.1-0.4-0.2-0.5c-0.2-0.1-0.4-0.2-0.8-0.2h-1.5L-181.1-100.3z
			 M-180.5-103h1c0.4,0,0.8,0,1-0.1c0.2-0.1,0.3-0.2,0.4-0.3c0.1-0.1,0.1-0.3,0.1-0.5c0-0.2,0-0.3-0.1-0.4s-0.2-0.2-0.4-0.2
			c-0.1,0-0.3,0-0.7,0h-1L-180.5-103z"/>
		<path class="st8" d="M-176.2-99.3l1.3-6.3h4.7l-0.2,1.1h-3.4l-0.3,1.4h3.3l-0.2,1.1h-3.3l-0.4,1.7h3.7l-0.2,1.1H-176.2z"/>
		<path class="st8" d="M-165.3-99.3h-1.2l-1.7-4.2l-0.9,4.2h-1.2l1.3-6.3h1.2l1.7,4.2l0.9-4.2h1.2L-165.3-99.3z"/>
		<path class="st8" d="M-164-99.3l1.3-6.3h1.7c0.5,0,0.8,0,0.9,0c0.3,0,0.5,0.1,0.7,0.2c0.2,0.1,0.4,0.2,0.6,0.3s0.3,0.3,0.4,0.5
			s0.2,0.4,0.3,0.7c0.1,0.3,0.1,0.6,0.1,0.9c0,0.7-0.1,1.3-0.4,1.8c-0.3,0.5-0.6,0.9-1,1.3c-0.3,0.2-0.7,0.4-1.2,0.5
			c-0.3,0.1-0.7,0.1-1.2,0.1H-164z M-162.5-100.3h0.7c0.5,0,0.8,0,1-0.1c0.2-0.1,0.4-0.2,0.6-0.3c0.3-0.2,0.5-0.5,0.6-0.9
			c0.2-0.4,0.3-0.8,0.3-1.4c0-0.4-0.1-0.8-0.2-1s-0.3-0.4-0.5-0.4c-0.1-0.1-0.4-0.1-0.8-0.1h-0.8L-162.5-100.3z"/>
		<path class="st8" d="M-157.7-99.3l1.3-6.3h1.3l-1.3,6.3H-157.7z"/>
		<path class="st8" d="M-154.2-99.3h-1.7l2.8-3.2l-1.6-3.1h1.4l0.6,1.2c0,0,0.2,0.3,0.4,0.9c0,0,0,0.1,0.1,0.1
			c0.3-0.4,0.6-0.8,0.9-1l1-1.1h1.6l-2.9,3.3l1.5,3h-1.5l-0.5-0.9c-0.2-0.5-0.4-0.9-0.5-1.1c-0.1,0.2-0.4,0.5-0.9,1L-154.2-99.3z"/>
		<path class="st8" d="M-150.1-99.1l3.1-6.5h0.9l-3.1,6.5H-150.1z"/>
		<path class="st8" d="M-146.9-99.3l1.3-6.3h1.3l-0.6,2.7l2.9-2.7h1.7l-2.8,2.5l2.1,3.8h-1.5l-1.6-3l-1.2,1.1l-0.4,1.9H-146.9z"/>
		<path class="st8" d="M-140.6-99.3l1.3-6.3h1.3l-1.3,6.3H-140.6z"/>
		<path class="st8" d="M-133.1-99.3h-1.2l-1.7-4.2l-0.9,4.2h-1.2l1.3-6.3h1.2l1.7,4.2l0.9-4.2h1.2L-133.1-99.3z"/>
		<path class="st8" d="M-128.3-102.6h2.8l-0.6,2.7c-0.3,0.2-0.7,0.4-1.2,0.5c-0.5,0.1-1,0.2-1.5,0.2c-0.8,0-1.4-0.2-1.8-0.5
			c-0.6-0.5-0.9-1.2-0.9-2.1c0-0.6,0.1-1.2,0.4-1.8c0.3-0.7,0.7-1.2,1.2-1.6s1.2-0.6,1.9-0.6s1.3,0.2,1.7,0.5s0.7,0.8,0.9,1.5
			l-1.2,0.1c-0.1-0.4-0.3-0.6-0.5-0.8c-0.2-0.2-0.5-0.3-0.9-0.3c-0.4,0-0.8,0.1-1.2,0.3s-0.6,0.6-0.8,1c-0.2,0.5-0.3,1-0.3,1.5
			c0,0.5,0.1,0.9,0.4,1.2c0.2,0.3,0.6,0.4,1.1,0.4c0.3,0,0.6,0,0.9-0.1c0.3-0.1,0.5-0.2,0.8-0.3l0.2-0.9h-1.6L-128.3-102.6z"/>
	</g>
</g>
<g id="Outer_Knob_R" class="st0">
	<path class="st9" d="M374.7-16.5c0,17-13.8,30.9-30.9,30.9c-17.1,0-30.9-13.8-30.9-30.9c0-17.1,13.8-30.9,30.9-30.9
		C360.9-47.4,374.7-33.5,374.7-16.5z"/>
	<g class="st2">
		<g>
			<path class="st10" d="M375.6-16.5c0,17.5-14.2,31.7-31.7,31.7c-17.5,0-31.7-14.2-31.7-31.7c0-17.5,14.2-31.7,31.7-31.7
				C361.4-48.2,375.6-34,375.6-16.5z"/>
		</g>
	</g>
</g>
<g id="Inner_Knob_R" class="st0">
	<g class="st2">
		<circle class="st11" cx="343.8" cy="-16.5" r="20.8"/>
		<g>
			<path class="st12" d="M365.6-16.5c0,12-9.7,21.8-21.8,21.8c-12,0-21.8-9.7-21.8-21.8c0-12,9.7-21.8,21.8-21.8
				C355.9-38.3,365.6-28.5,365.6-16.5z"/>
		</g>
	</g>
</g>
<g id="BARO_Button">
	<path class="st13" d="M376.6-83.8c0,1.1-0.9,2-2,2h-28.1c-1.1,0-2-0.9-2-2v-14.8c0-1.1,0.9-2,2-2h28.1c1.1,0,2,0.9,2,2V-83.8z"/>
	<g>
		<path d="M346.6-86.8v-7.9h2.8c0.6,0,1,0.1,1.3,0.2c0.3,0.2,0.6,0.4,0.8,0.7s0.3,0.7,0.3,1.1c0,0.4-0.1,0.7-0.3,1
			c-0.2,0.3-0.4,0.5-0.8,0.7c0.4,0.1,0.8,0.4,1,0.7c0.2,0.3,0.4,0.7,0.4,1.2c0,0.5-0.1,0.9-0.3,1.3s-0.5,0.6-0.9,0.8
			s-0.9,0.2-1.5,0.2H346.6z M347.6-91.4h1.6c0.4,0,0.7,0,0.9-0.1c0.3-0.1,0.5-0.2,0.6-0.4c0.1-0.2,0.2-0.4,0.2-0.7
			c0-0.3-0.1-0.5-0.2-0.7c-0.1-0.2-0.3-0.3-0.5-0.4c-0.2-0.1-0.6-0.1-1.1-0.1h-1.5V-91.4z M347.6-87.8h1.9c0.4,0,0.7,0,0.9-0.1
			c0.3-0.1,0.5-0.2,0.6-0.5s0.2-0.5,0.2-0.8c0-0.3-0.1-0.5-0.2-0.8s-0.3-0.4-0.6-0.5s-0.6-0.1-1.1-0.1h-1.7V-87.8z"/>
		<path d="M352.8-86.8l2.9-7.9h1.1l3,7.9h-1.1l-0.9-2.4h-3.1l-0.8,2.4H352.8z M354.9-90.1h2.5l-0.8-2.2c-0.2-0.7-0.4-1.2-0.5-1.6
			c-0.1,0.5-0.2,1-0.4,1.5L354.9-90.1z"/>
		<path d="M360.5-86.8v-7.9h3.3c0.7,0,1.2,0.1,1.5,0.2c0.3,0.1,0.6,0.4,0.8,0.7s0.3,0.7,0.3,1.2c0,0.6-0.2,1.1-0.5,1.4
			c-0.4,0.4-0.9,0.6-1.6,0.7c0.3,0.1,0.5,0.3,0.6,0.4c0.3,0.3,0.6,0.6,0.8,1l1.3,2.1h-1.2l-1-1.6c-0.4-0.6-0.7-1.1-0.9-1.3
			s-0.4-0.4-0.6-0.4s-0.4-0.1-0.8-0.1h-1.1v3.5H360.5z M361.5-91.2h2.1c0.5,0,0.8,0,1.1-0.1s0.4-0.2,0.6-0.5
			c0.1-0.2,0.2-0.5,0.2-0.7c0-0.4-0.1-0.7-0.4-0.9s-0.7-0.3-1.2-0.3h-2.4V-91.2z"/>
		<path d="M367.7-90.7c0-1.3,0.3-2.4,1-3.1s1.5-1.1,2.5-1.1c0.7,0,1.3,0.2,1.8,0.5s1,0.8,1.3,1.4s0.5,1.3,0.5,2.2
			c0,1.2-0.3,2.1-0.9,2.9c-0.7,0.8-1.6,1.2-2.6,1.2c-1.1,0-2-0.4-2.7-1.2C368-88.7,367.7-89.6,367.7-90.7z M368.8-90.7
			c0,1,0.2,1.7,0.7,2.3c0.5,0.5,1.1,0.8,1.8,0.8c0.7,0,1.3-0.3,1.8-0.8c0.5-0.5,0.7-1.3,0.7-2.4c0-0.7-0.1-1.3-0.4-1.8
			c-0.2-0.4-0.5-0.7-0.9-1c-0.4-0.2-0.8-0.4-1.3-0.4c-0.7,0-1.4,0.3-1.8,0.8C369-92.6,368.8-91.8,368.8-90.7z"/>
	</g>
</g>
<g id="ARM_Button">
	<path class="st13" d="M317.6-83.8c0,1.1-0.9,2-2,2h-28.1c-1.1,0-2-0.9-2-2v-14.8c0-1.1,0.9-2,2-2h28.1c1.1,0,2,0.9,2,2V-83.8z"/>
	<g>
		<path d="M290-86.8l2.9-7.9h1.1l3,7.9h-1.1l-0.9-2.4h-3.1l-0.8,2.4H290z M292.1-90.1h2.5l-0.8-2.2c-0.2-0.7-0.4-1.2-0.5-1.6
			c-0.1,0.5-0.2,1-0.4,1.5L292.1-90.1z"/>
		<path d="M297.8-86.8v-7.9h3.3c0.7,0,1.2,0.1,1.5,0.2c0.3,0.1,0.6,0.4,0.8,0.7c0.2,0.3,0.3,0.7,0.3,1.2c0,0.6-0.2,1.1-0.5,1.4
			c-0.4,0.4-0.9,0.6-1.6,0.7c0.3,0.1,0.5,0.3,0.6,0.4c0.3,0.3,0.6,0.6,0.8,1l1.3,2.1h-1.2l-1-1.6c-0.4-0.6-0.7-1.1-0.9-1.3
			c-0.2-0.2-0.4-0.4-0.6-0.4c-0.2-0.1-0.4-0.1-0.8-0.1h-1.1v3.5H297.8z M298.7-91.2h2.1c0.5,0,0.8,0,1.1-0.1
			c0.2-0.1,0.4-0.2,0.6-0.5c0.1-0.2,0.2-0.5,0.2-0.7c0-0.4-0.1-0.7-0.4-0.9c-0.3-0.2-0.7-0.3-1.2-0.3h-2.4V-91.2z"/>
		<path d="M305.2-86.8v-7.9h1.5l1.8,5.6l0.4,1.2c0.1-0.3,0.2-0.7,0.4-1.3l1.8-5.5h1.3v7.9h-0.9v-6.6l-2.2,6.6h-0.9l-2.2-6.7v6.7
			H305.2z"/>
	</g>
</g>
<g id="DN_Button">
	<path class="st13" d="M280.6,13.2c0,1.1-0.9,2-2,2h-28.1c-1.1,0-2-0.9-2-2V-1.6c0-1.1,0.9-2,2-2h28.1c1.1,0,2,0.9,2,2V13.2z"/>
	<g>
		<path d="M257.8,10.2V2.3h2.6c0.6,0,1.1,0,1.4,0.1c0.4,0.1,0.8,0.4,1.1,0.7c0.3,0.3,0.6,0.8,0.7,1.3s0.3,1.1,0.3,1.8
			c0,0.9-0.2,1.6-0.5,2.3c-0.3,0.6-0.7,1.1-1.2,1.3s-1.1,0.4-1.9,0.4H257.8z M258.8,9.2h1.6c0.6,0,1.1-0.1,1.5-0.3
			c0.3-0.2,0.6-0.5,0.8-0.9c0.2-0.5,0.4-1.2,0.4-1.9c0-0.8-0.1-1.4-0.4-1.9c-0.3-0.5-0.6-0.8-1-0.9c-0.3-0.1-0.7-0.2-1.3-0.2h-1.6
			V9.2z"/>
		<path d="M265.3,10.2V2.3h1l3.9,6.2V2.3h0.9v7.9h-1L266.3,4v6.2H265.3z"/>
	</g>
</g>
<g id="UP_Button">
	<path class="st13" d="M280.6-34.7c0,1.1-0.9,2-2,2h-28.1c-1.1,0-2-0.9-2-2v-14.8c0-1.1,0.9-2,2-2h28.1c1.1,0,2,0.9,2,2V-34.7z"/>
	<g>
		<path d="M263.1-45.6h1v4.5c0,0.8-0.1,1.4-0.3,1.9c-0.2,0.5-0.5,0.9-0.9,1.2s-1,0.4-1.7,0.4c-1,0-1.7-0.3-2.2-0.8
			c-0.5-0.5-0.7-1.4-0.7-2.7v-4.5h1v4.5c0,0.7,0.1,1.2,0.2,1.5c0.1,0.3,0.3,0.6,0.6,0.7c0.3,0.2,0.6,0.3,1.1,0.3
			c0.7,0,1.2-0.2,1.5-0.5s0.5-1,0.5-2V-45.6z"/>
		<path d="M265.7-37.7v-7.9h2.8c0.7,0,1.1,0,1.5,0.2c0.4,0.1,0.8,0.4,1,0.8c0.3,0.4,0.4,0.8,0.4,1.4c0,0.7-0.2,1.3-0.6,1.7
			c-0.4,0.4-1.1,0.7-2.2,0.7h-1.9v3.2H265.7z M266.7-41.9h1.9c0.6,0,1.1-0.1,1.3-0.4c0.3-0.2,0.4-0.6,0.4-1.1c0-0.3-0.1-0.6-0.2-0.8
			c-0.1-0.2-0.3-0.4-0.5-0.5c-0.2-0.1-0.6-0.1-1.1-0.1h-1.9V-41.9z"/>
	</g>
</g>
<g id="ALT_Button">
	<path class="st13" d="M228.6,17.3c0,1.1-0.9,2-2,2h-28.1c-1.1,0-2-0.9-2-2V2.5c0-1.1,0.9-2,2-2h28.1c1.1,0,2,0.9,2,2V17.3z"/>
	<g>
		<path d="M203.5,14.3l2.9-7.9h1.1l3,7.9h-1.1l-0.9-2.4h-3.1l-0.8,2.4H203.5z M205.6,11h2.5l-0.8-2.2c-0.2-0.7-0.4-1.2-0.5-1.6
			c-0.1,0.5-0.2,1-0.4,1.5L205.6,11z"/>
		<path d="M211.2,14.3V6.4h1v6.9h3.7v0.9H211.2z"/>
		<path d="M218.2,14.3V7.3h-2.5V6.4h5.9v0.9h-2.5v6.9H218.2z"/>
	</g>
</g>
<g id="REV_Button">
	<path class="st13" d="M168.6,17.3c0,1.1-0.9,2-2,2h-28.1c-1.1,0-2-0.9-2-2V2.5c0-1.1,0.9-2,2-2h28.1c1.1,0,2,0.9,2,2V17.3z"/>
	<g>
		<path d="M142.7,14.3V6.4h3.3c0.7,0,1.2,0.1,1.5,0.2c0.3,0.1,0.6,0.4,0.8,0.7c0.2,0.3,0.3,0.7,0.3,1.2c0,0.6-0.2,1.1-0.5,1.4
			c-0.4,0.4-0.9,0.6-1.6,0.7c0.3,0.1,0.5,0.3,0.6,0.4c0.3,0.3,0.6,0.6,0.8,1l1.3,2.1H148l-1-1.6c-0.4-0.6-0.7-1.1-0.9-1.3
			c-0.2-0.2-0.4-0.4-0.6-0.4s-0.4-0.1-0.8-0.1h-1.1v3.5H142.7z M143.7,9.9h2.1c0.5,0,0.8,0,1.1-0.1c0.2-0.1,0.4-0.2,0.6-0.5
			c0.1-0.2,0.2-0.5,0.2-0.7c0-0.4-0.1-0.7-0.4-0.9c-0.3-0.2-0.7-0.3-1.2-0.3h-2.4V9.9z"/>
		<path d="M150.2,14.3V6.4h5.4v0.9h-4.4v2.4h4.1v0.9h-4.1v2.7h4.6v0.9H150.2z"/>
		<path d="M159.3,14.3l-2.9-7.9h1.1l1.9,5.7c0.1,0.4,0.3,0.9,0.4,1.3c0.1-0.4,0.2-0.9,0.4-1.3l2-5.7h1l-2.9,7.9H159.3z"/>
	</g>
</g>
<g id="APR_Button">
	<path class="st13" d="M101.6,17.3c0,1.1-0.9,2-2,2H71.5c-1.1,0-2-0.9-2-2V2.5c0-1.1,0.9-2,2-2h28.1c1.1,0,2,0.9,2,2V17.3z"/>
	<g>
		<path d="M74.9,14.3l2.9-7.9h1.1l3,7.9h-1.1l-0.9-2.4h-3.1l-0.8,2.4H74.9z M77,11h2.5l-0.8-2.2c-0.2-0.7-0.4-1.2-0.5-1.6
			c-0.1,0.5-0.2,1-0.4,1.5L77,11z"/>
		<path d="M82.6,14.3V6.4h2.8c0.7,0,1.1,0,1.5,0.2c0.4,0.1,0.8,0.4,1,0.8c0.3,0.4,0.4,0.8,0.4,1.4c0,0.7-0.2,1.3-0.6,1.7
			c-0.4,0.4-1.1,0.7-2.2,0.7h-1.9v3.2H82.6z M83.6,10.1h1.9c0.6,0,1.1-0.1,1.3-0.4s0.4-0.6,0.4-1.1c0-0.3-0.1-0.6-0.2-0.8
			c-0.1-0.2-0.3-0.4-0.5-0.5c-0.2-0.1-0.6-0.1-1.1-0.1h-1.9V10.1z"/>
		<path d="M89.6,14.3V6.4h3.3c0.7,0,1.2,0.1,1.5,0.2C94.7,6.7,95,7,95.2,7.3s0.3,0.7,0.3,1.2c0,0.6-0.2,1.1-0.5,1.4
			c-0.4,0.4-0.9,0.6-1.6,0.7c0.3,0.1,0.5,0.3,0.6,0.4c0.3,0.3,0.6,0.6,0.8,1l1.3,2.1h-1.2l-1-1.6c-0.4-0.6-0.7-1.1-0.9-1.3
			s-0.4-0.4-0.6-0.4c-0.2-0.1-0.4-0.1-0.8-0.1h-1.1v3.5H89.6z M90.5,9.9h2.1c0.5,0,0.8,0,1.1-0.1c0.2-0.1,0.4-0.2,0.6-0.5
			c0.1-0.2,0.2-0.5,0.2-0.7c0-0.4-0.1-0.7-0.4-0.9s-0.7-0.3-1.2-0.3h-2.4V9.9z"/>
	</g>
</g>
<g id="Nav_Button">
	<path class="st13" d="M32.6,17.3c0,1.1-0.9,2-2,2H2.5c-1.1,0-2-0.9-2-2V2.5c0-1.1,0.9-2,2-2h28.1c1.1,0,2,0.9,2,2V17.3z"/>
	<g>
		<path d="M7,14.3V6.4h1l3.9,6.2V6.4h0.9v7.9h-1L8,8.1v6.2H7z"/>
		<path d="M13.8,14.3l2.9-7.9h1.1l3,7.9h-1.1l-0.9-2.4h-3.1l-0.8,2.4H13.8z M15.9,11h2.5l-0.8-2.2c-0.2-0.7-0.4-1.2-0.5-1.6
			c-0.1,0.5-0.2,1-0.4,1.5L15.9,11z"/>
		<path d="M22.9,14.3L20,6.4h1.1l1.9,5.7c0.1,0.4,0.3,0.9,0.4,1.3c0.1-0.4,0.2-0.9,0.4-1.3l2-5.7h1l-2.9,7.9H22.9z"/>
	</g>
</g>
<g id="HGD_Button">
	<path class="st13" d="M-35.6,17.3c0,1.1-0.9,2-2,2h-28.1c-1.1,0-2-0.9-2-2V2.5c0-1.1,0.9-2,2-2h28.1c1.1,0,2,0.9,2,2V17.3z"/>
	<g>
		<path d="M-62.4,14.3V6.4h1v3.2h3.9V6.4h1v7.9h-1v-3.7h-3.9v3.7H-62.4z"/>
		<path d="M-54.9,14.3V6.4h2.6c0.6,0,1.1,0,1.4,0.1c0.4,0.1,0.8,0.4,1.1,0.7c0.3,0.3,0.6,0.8,0.7,1.3c0.2,0.5,0.3,1.1,0.3,1.8
			c0,0.9-0.2,1.6-0.5,2.3c-0.3,0.6-0.7,1.1-1.2,1.3c-0.5,0.3-1.1,0.4-1.9,0.4H-54.9z M-53.9,13.3h1.6c0.6,0,1.1-0.1,1.5-0.3
			c0.3-0.2,0.6-0.5,0.8-0.9c0.2-0.5,0.4-1.2,0.4-1.9c0-0.8-0.1-1.4-0.4-1.9c-0.3-0.5-0.6-0.8-1-0.9c-0.3-0.1-0.7-0.2-1.3-0.2h-1.6
			V13.3z"/>
		<path d="M-43.9,11.2v-0.9l3.2,0v2.9c-0.5,0.4-1,0.7-1.5,0.9s-1,0.3-1.6,0.3c-0.7,0-1.4-0.2-1.9-0.5s-1-0.8-1.4-1.4
			s-0.5-1.3-0.5-2.2c0-0.9,0.2-1.6,0.5-2.2s0.8-1.1,1.3-1.4c0.5-0.3,1.2-0.5,1.9-0.5c0.5,0,1,0.1,1.4,0.3c0.4,0.2,0.7,0.4,1,0.7
			S-41,8-40.8,8.6l-0.9,0.3c-0.1-0.4-0.3-0.8-0.5-1c-0.2-0.2-0.4-0.4-0.7-0.5c-0.3-0.1-0.6-0.2-1-0.2c-0.5,0-1,0.1-1.4,0.3
			c-0.4,0.2-0.7,0.6-0.9,1.1c-0.2,0.5-0.4,1.1-0.4,1.8c0,1.1,0.3,1.8,0.8,2.4c0.5,0.5,1.2,0.8,2,0.8c0.4,0,0.8-0.1,1.2-0.2
			c0.4-0.2,0.7-0.4,1-0.6v-1.5H-43.9z"/>
	</g>
</g>
<g id="AP_Button">
	<path class="st13" d="M-139.5,18.3c0,1.1-0.9,2-2,2h-28.1c-1.1,0-2-0.9-2-2V3.5c0-1.1,0.9-2,2-2h28.1c1.1,0,2,0.9,2,2V18.3z"/>
	<g>
		<path d="M-163.1,15.3l2.9-7.9h1.1l3,7.9h-1.1l-0.9-2.4h-3.1l-0.8,2.4H-163.1z M-161,12h2.5l-0.8-2.2c-0.2-0.7-0.4-1.2-0.5-1.6
			c-0.1,0.5-0.2,1-0.4,1.5L-161,12z"/>
		<path d="M-155.4,15.3V7.4h2.8c0.7,0,1.1,0,1.5,0.2c0.4,0.1,0.8,0.4,1,0.8c0.3,0.4,0.4,0.8,0.4,1.4c0,0.7-0.2,1.3-0.6,1.7
			c-0.4,0.4-1.1,0.7-2.2,0.7h-1.9v3.2H-155.4z M-154.4,11.1h1.9c0.6,0,1.1-0.1,1.3-0.4s0.4-0.6,0.4-1.1c0-0.3-0.1-0.6-0.2-0.8
			c-0.1-0.2-0.3-0.4-0.5-0.5c-0.2-0.1-0.6-0.1-1.1-0.1h-1.9V11.1z"/>
	</g>
</g>
<g id="Text" class="st0">
	<g class="st2">
		<rect x="-101.9" y="-96.1" class="st5" width="65" height="25.3"/>
		<path class="st14" d="M-96.4-84.3l-1.1,9.2l-1,0.8l-0.8-1l1.1-9.2l1-0.8L-96.4-84.3z M-88.1-73.7l0.8,1l-1,0.8l-9.1-1.1l-0.8-1
			l1-0.8L-88.1-73.7z M-95-95.6l-1.1,9.2l-1,0.8l-0.8-1l1.1-9.2l1-0.8L-95-95.6z M-91.7-84.2l0.3,1.4l-3.9,7.1l-1.2,0.5l-0.3-1.5
			l3.9-7L-91.7-84.2z M-85.4-96.4l0.8,1l-1,0.8l-9.1-1.1l-0.8-1l1-0.8L-85.4-96.4z M-86.4-94.1l0.3,1.4l-3.9,7.1l-1.2,0.5l-0.3-1.5
			l3.9-7L-86.4-94.1z M-85-82.9l-1.1,9.2l-1,0.8l-0.8-1l1.1-9.2l1-0.8L-85-82.9z M-83.7-94.2l-1.1,9.2l-1,0.8l-0.8-1l1.1-9.2l1-0.8
			L-83.7-94.2z"/>
		<path class="st14" d="M-74.8-84.3l-1.1,9.2l-1,0.8l-0.8-1l1.1-9.2l1-0.8L-74.8-84.3z M-66.5-73.7l0.8,1l-1,0.8l-9.1-1.1l-0.8-1
			l1-0.8L-66.5-73.7z M-73.4-95.6l-1.1,9.2l-1,0.8l-0.8-1l1.1-9.2l1-0.8L-73.4-95.6z M-70-84.2l0.3,1.4l-3.9,7.1l-1.2,0.5l-0.3-1.5
			l3.9-7L-70-84.2z M-63.8-96.4l0.8,1l-1,0.8l-9.1-1.1l-0.8-1l1-0.8L-63.8-96.4z M-64.8-94.1l0.3,1.4l-3.9,7.1l-1.2,0.5l-0.3-1.5
			l3.9-7L-64.8-94.1z M-63.4-82.9l-1.1,9.2l-1,0.8l-0.8-1l1.1-9.2l1-0.8L-63.4-82.9z M-62-94.2l-1.1,9.2l-1,0.8l-0.8-1l1.1-9.2
			l1-0.8L-62-94.2z"/>
		<path class="st14" d="M-53.2-84.3l-1.1,9.2l-1,0.8l-0.8-1l1.1-9.2l1-0.8L-53.2-84.3z M-44.9-73.7l0.8,1l-1,0.8l-9.1-1.1l-0.8-1
			l1-0.8L-44.9-73.7z M-51.8-95.6l-1.1,9.2l-1,0.8l-0.8-1l1.1-9.2l1-0.8L-51.8-95.6z M-48.4-84.2l0.3,1.4l-3.9,7.1l-1.2,0.5
			l-0.3-1.5l3.9-7L-48.4-84.2z M-42.2-96.4l0.8,1l-1,0.8l-9.1-1.1l-0.8-1l1-0.8L-42.2-96.4z M-43.2-94.1l0.3,1.4l-3.9,7.1l-1.2,0.5
			l-0.3-1.5l3.9-7L-43.2-94.1z M-41.8-82.9l-1.1,9.2l-1,0.8l-0.8-1l1.1-9.2l1-0.8L-41.8-82.9z M-40.4-94.2l-1.1,9.2l-1,0.8l-0.8-1
			l1.1-9.2l1-0.8L-40.4-94.2z"/>
	</g>
	<g class="st2">
		<rect x="-103.9" y="-62.1" class="st5" width="65" height="25.3"/>
		<path class="st14" d="M-100.2-61.1v9.3l-0.9,0.9l-0.9-0.9v-9.3l0.9-0.9L-100.2-61.1z M-100.2-49.6v9.3l-0.9,0.9l-0.9-0.9v-9.3
			l0.9-0.9L-100.2-49.6z M-90.8-63.1l0.9,0.9l-0.9,0.9h-9.2l-0.9-0.9l0.9-0.9H-90.8z M-90.8-40.2l0.9,0.9l-0.9,0.9h-9.2l-0.9-0.9
			l0.9-0.9H-90.8z M-95.5-50.1l0.5,1.3l-3,7.5l-1.2,0.6l-0.5-1.4l3-7.4L-95.5-50.1z M-91.5-60.6l0.5,1.3l-3,7.5l-1.2,0.6l-0.5-1.4
			l3-7.4L-91.5-60.6z M-88.8-61.1v9.3l-0.9,0.9l-0.9-0.9v-9.3l0.9-0.9L-88.8-61.1z M-88.8-49.6v9.3l-0.9,0.9l-0.9-0.9v-9.3l0.9-0.9
			L-88.8-49.6z"/>
		<path class="st14" d="M-77.4-61.1v9.3l-0.9,0.9l-0.9-0.9v-9.3l0.9-0.9L-77.4-61.1z M-77.4-49.6v9.3l-0.9,0.9l-0.9-0.9v-9.3
			l0.9-0.9L-77.4-49.6z M-67.9-63.1l0.9,0.9l-0.9,0.9h-9.2l-0.9-0.9l0.9-0.9H-67.9z M-67.9-40.2l0.9,0.9l-0.9,0.9h-9.2l-0.9-0.9
			l0.9-0.9H-67.9z M-72.7-50.1l0.5,1.3l-3,7.5l-1.2,0.6l-0.5-1.4l3-7.4L-72.7-50.1z M-68.7-60.6l0.5,1.3l-3,7.5l-1.2,0.6l-0.5-1.4
			l3-7.4L-68.7-60.6z M-65.9-61.1v9.3l-0.9,0.9l-0.9-0.9v-9.3l0.9-0.9L-65.9-61.1z M-65.9-49.6v9.3l-0.9,0.9l-0.9-0.9v-9.3l0.9-0.9
			L-65.9-49.6z"/>
		<path class="st14" d="M-54.5-61.1v9.3l-0.9,0.9l-0.9-0.9v-9.3l0.9-0.9L-54.5-61.1z M-54.5-49.6v9.3l-0.9,0.9l-0.9-0.9v-9.3
			l0.9-0.9L-54.5-49.6z M-45.1-63.1l0.9,0.9l-0.9,0.9h-9.2l-0.9-0.9l0.9-0.9H-45.1z M-45-40.2l0.9,0.9l-0.9,0.9h-9.2l-0.9-0.9
			l0.9-0.9H-45z M-49.8-50.1l0.5,1.3l-3,7.5l-1.2,0.6l-0.5-1.4l3-7.4L-49.8-50.1z M-45.8-60.6l0.5,1.3l-3,7.5l-1.2,0.6l-0.5-1.4
			l3-7.4L-45.8-60.6z M-43.1-61.1v9.3l-0.9,0.9l-0.9-0.9v-9.3l0.9-0.9L-43.1-61.1z M-43.1-49.6v9.3l-0.9,0.9l-0.9-0.9v-9.3l0.9-0.9
			L-43.1-49.6z"/>
	</g>
	<g class="st2">
		<rect x="6.1" y="-96.1" class="st5" width="65" height="25.3"/>
		<path class="st14" d="M11.6-84.3l-1.1,9.2l-1,0.8l-0.8-1l1.1-9.2l1-0.8L11.6-84.3z M19.9-73.7l0.8,1l-1,0.8l-9.1-1.1l-0.8-1l1-0.8
			L19.9-73.7z M13-95.6l-1.1,9.2l-1,0.8l-0.8-1l1.1-9.2l1-0.8L13-95.6z M16.3-84.2l0.3,1.4l-3.9,7.1l-1.2,0.5l-0.3-1.5l3.9-7
			L16.3-84.2z M22.6-96.4l0.8,1l-1,0.8l-9.1-1.1l-0.8-1l1-0.8L22.6-96.4z M21.6-94.1l0.3,1.4L18-85.6l-1.2,0.5l-0.3-1.5l3.9-7
			L21.6-94.1z M23-82.9l-1.1,9.2l-1,0.8l-0.8-1l1.1-9.2l1-0.8L23-82.9z M24.3-94.2L23.2-85l-1,0.8l-0.8-1l1.1-9.2l1-0.8L24.3-94.2z"
			/>
		<path class="st14" d="M33.2-84.3l-1.1,9.2l-1,0.8l-0.8-1l1.1-9.2l1-0.8L33.2-84.3z M41.5-73.7l0.8,1l-1,0.8l-9.1-1.1l-0.8-1l1-0.8
			L41.5-73.7z M34.6-95.6l-1.1,9.2l-1,0.8l-0.8-1l1.1-9.2l1-0.8L34.6-95.6z M38-84.2l0.3,1.4l-3.9,7.1l-1.2,0.5l-0.3-1.5l3.9-7
			L38-84.2z M44.2-96.4l0.8,1l-1,0.8l-9.1-1.1l-0.8-1l1-0.8L44.2-96.4z M43.2-94.1l0.3,1.4l-3.9,7.1l-1.2,0.5l-0.3-1.5l3.9-7
			L43.2-94.1z M44.6-82.9l-1.1,9.2l-1,0.8l-0.8-1l1.1-9.2l1-0.8L44.6-82.9z M46-94.2L44.8-85l-1,0.8l-0.8-1l1.1-9.2l1-0.8L46-94.2z"
			/>
		<path class="st14" d="M54.8-84.3l-1.1,9.2l-1,0.8l-0.8-1l1.1-9.2l1-0.8L54.8-84.3z M63.1-73.7l0.8,1l-1,0.8l-9.1-1.1l-0.8-1l1-0.8
			L63.1-73.7z M56.2-95.6l-1.1,9.2l-1,0.8l-0.8-1l1.1-9.2l1-0.8L56.2-95.6z M59.6-84.2l0.3,1.4l-3.9,7.1l-1.2,0.5l-0.3-1.5l3.9-7
			L59.6-84.2z M65.8-96.4l0.8,1l-1,0.8l-9.1-1.1l-0.8-1l1-0.8L65.8-96.4z M64.8-94.1l0.3,1.4l-3.9,7.1l-1.2,0.5l-0.3-1.5l3.9-7
			L64.8-94.1z M66.2-82.9L65-73.7l-1,0.8l-0.8-1l1.1-9.2l1-0.8L66.2-82.9z M67.6-94.2L66.4-85l-1,0.8l-0.8-1l1.1-9.2l1-0.8
			L67.6-94.2z"/>
	</g>
	<g class="st2">
		<rect x="4.1" y="-62.1" class="st5" width="65" height="25.3"/>
		<path class="st14" d="M7.8-61.1v9.3l-0.9,0.9L6-51.8v-9.3l0.9-0.9L7.8-61.1z M7.8-49.6v9.3l-0.9,0.9L6-40.4v-9.3l0.9-0.9L7.8-49.6
			z M17.2-63.1l0.9,0.9l-0.9,0.9H8L7-62.1L8-63.1H17.2z M17.2-40.2l0.9,0.9l-0.9,0.9H8l-0.9-0.9L8-40.2H17.2z M12.5-50.1l0.5,1.3
			l-3,7.5l-1.2,0.6l-0.5-1.4l3-7.4L12.5-50.1z M16.5-60.6l0.5,1.3l-3,7.5l-1.2,0.6l-0.5-1.4l3-7.4L16.5-60.6z M19.2-61.1v9.3
			l-0.9,0.9l-0.9-0.9v-9.3l0.9-0.9L19.2-61.1z M19.2-49.6v9.3l-0.9,0.9l-0.9-0.9v-9.3l0.9-0.9L19.2-49.6z"/>
		<path class="st14" d="M30.6-61.1v9.3l-0.9,0.9l-0.9-0.9v-9.3l0.9-0.9L30.6-61.1z M30.6-49.6v9.3l-0.9,0.9l-0.9-0.9v-9.3l0.9-0.9
			L30.6-49.6z M40.1-63.1l0.9,0.9l-0.9,0.9h-9.2l-0.9-0.9l0.9-0.9H40.1z M40.1-40.2l0.9,0.9l-0.9,0.9h-9.2L30-39.3l0.9-0.9H40.1z
			 M35.3-50.1l0.5,1.3l-3,7.5l-1.2,0.6l-0.5-1.4l3-7.4L35.3-50.1z M39.3-60.6l0.5,1.3l-3,7.5l-1.2,0.6l-0.5-1.4l3-7.4L39.3-60.6z
			 M42.1-61.1v9.3l-0.9,0.9l-0.9-0.9v-9.3l0.9-0.9L42.1-61.1z M42.1-49.6v9.3l-0.9,0.9l-0.9-0.9v-9.3l0.9-0.9L42.1-49.6z"/>
		<path class="st14" d="M53.5-61.1v9.3l-0.9,0.9l-0.9-0.9v-9.3l0.9-0.9L53.5-61.1z M53.5-49.6v9.3l-0.9,0.9l-0.9-0.9v-9.3l0.9-0.9
			L53.5-49.6z M62.9-63.1l0.9,0.9l-0.9,0.9h-9.2l-0.9-0.9l0.9-0.9H62.9z M63-40.2l0.9,0.9L63-38.4h-9.2l-0.9-0.9l0.9-0.9H63z
			 M58.2-50.1l0.5,1.3l-3,7.5l-1.2,0.6L54-42.1l3-7.4L58.2-50.1z M62.2-60.6l0.5,1.3l-3,7.5l-1.2,0.6L58-52.5l3-7.4L62.2-60.6z
			 M64.9-61.1v9.3l-0.9,0.9l-0.9-0.9v-9.3l0.9-0.9L64.9-61.1z M64.9-49.6v9.3l-0.9,0.9l-0.9-0.9v-9.3l0.9-0.9L64.9-49.6z"/>
	</g>
	<g class="st2">
		<rect x="115.9" y="-96.1" class="st5" width="111.2" height="25.3"/>
		<path class="st14" d="M121.4-84.3l-1.1,9.2l-1,0.8l-0.8-1l1.1-9.2l1-0.8L121.4-84.3z M129.6-73.7l0.8,1l-1,0.8l-9.1-1.1l-0.8-1
			l1-0.8L129.6-73.7z M122.8-95.6l-1.1,9.2l-1,0.8l-0.8-1l1.1-9.2l1-0.8L122.8-95.6z M126.1-84.2l0.3,1.4l-3.9,7.1l-1.2,0.5
			l-0.3-1.5l3.9-7L126.1-84.2z M132.3-96.4l0.8,1l-1,0.8l-9.1-1.1l-0.8-1l1-0.8L132.3-96.4z M131.3-94.1l0.3,1.4l-3.9,7.1l-1.2,0.5
			l-0.3-1.5l3.9-7L131.3-94.1z M132.7-82.9l-1.1,9.2l-1,0.8l-0.8-1l1.1-9.2l1-0.8L132.7-82.9z M134.1-94.2L133-85l-1,0.8l-0.8-1
			l1.1-9.2l1-0.8L134.1-94.2z"/>
		<path class="st14" d="M143-84.3l-1.1,9.2l-1,0.8l-0.8-1l1.1-9.2l1-0.8L143-84.3z M151.2-73.7l0.8,1l-1,0.8l-9.1-1.1l-0.8-1l1-0.8
			L151.2-73.7z M144.4-95.6l-1.1,9.2l-1,0.8l-0.8-1l1.1-9.2l1-0.8L144.4-95.6z M147.7-84.2l0.3,1.4l-3.9,7.1l-1.2,0.5l-0.3-1.5
			l3.9-7L147.7-84.2z M153.9-96.4l0.8,1l-1,0.8l-9.1-1.1l-0.8-1l1-0.8L153.9-96.4z M152.9-94.1l0.3,1.4l-3.9,7.1l-1.2,0.5l-0.3-1.5
			l3.9-7L152.9-94.1z M154.3-82.9l-1.1,9.2l-1,0.8l-0.8-1l1.1-9.2l1-0.8L154.3-82.9z M155.7-94.2l-1.1,9.2l-1,0.8l-0.8-1l1.1-9.2
			l1-0.8L155.7-94.2z"/>
		<path class="st14" d="M164.6-84.3l-1.1,9.2l-1,0.8l-0.8-1l1.1-9.2l1-0.8L164.6-84.3z M172.8-73.7l0.8,1l-1,0.8l-9.1-1.1l-0.8-1
			l1-0.8L172.8-73.7z M166-95.6l-1.1,9.2l-1,0.8l-0.8-1l1.1-9.2l1-0.8L166-95.6z M169.3-84.2l0.3,1.4l-3.9,7.1l-1.2,0.5l-0.3-1.5
			l3.9-7L169.3-84.2z M175.6-96.4l0.8,1l-1,0.8l-9.1-1.1l-0.8-1l1-0.8L175.6-96.4z M174.6-94.1l0.3,1.4l-3.9,7.1l-1.2,0.5l-0.3-1.5
			l3.9-7L174.6-94.1z M175.9-82.9l-1.1,9.2l-1,0.8l-0.8-1l1.1-9.2l1-0.8L175.9-82.9z M177.3-94.2l-1.1,9.2l-1,0.8l-0.8-1l1.1-9.2
			l1-0.8L177.3-94.2z"/>
		<path class="st14" d="M186.2-84.3l-1.1,9.2l-1,0.8l-0.8-1l1.1-9.2l1-0.8L186.2-84.3z M194.4-73.7l0.8,1l-1,0.8l-9.1-1.1l-0.8-1
			l1-0.8L194.4-73.7z M187.6-95.6l-1.1,9.2l-1,0.8l-0.8-1l1.1-9.2l1-0.8L187.6-95.6z M190.9-84.2l0.3,1.4l-3.9,7.1l-1.2,0.5
			l-0.3-1.5l3.9-7L190.9-84.2z M197.2-96.4l0.8,1l-1,0.8l-9.1-1.1l-0.8-1l1-0.8L197.2-96.4z M196.2-94.1l0.3,1.4l-3.9,7.1l-1.2,0.5
			l-0.3-1.5l3.9-7L196.2-94.1z M197.5-82.9l-1.1,9.2l-1,0.8l-0.8-1l1.1-9.2l1-0.8L197.5-82.9z M198.9-94.2l-1.1,9.2l-1,0.8l-0.8-1
			l1.1-9.2l1-0.8L198.9-94.2z"/>
		<path class="st14" d="M207.8-84.3l-1.1,9.2l-1,0.8l-0.8-1l1.1-9.2l1-0.8L207.8-84.3z M216.1-73.7l0.8,1l-1,0.8l-9.1-1.1l-0.8-1
			l1-0.8L216.1-73.7z M209.2-95.6l-1.1,9.2l-1,0.8l-0.8-1l1.1-9.2l1-0.8L209.2-95.6z M212.5-84.2l0.3,1.4l-3.9,7.1l-1.2,0.5
			l-0.3-1.5l3.9-7L212.5-84.2z M218.8-96.4l0.8,1l-1,0.8l-9.1-1.1l-0.8-1l1-0.8L218.8-96.4z M217.8-94.1l0.3,1.4l-3.9,7.1l-1.2,0.5
			l-0.3-1.5l3.9-7L217.8-94.1z M219.2-82.9l-1.1,9.2l-1,0.8l-0.8-1l1.1-9.2l1-0.8L219.2-82.9z M220.5-94.2l-1.1,9.2l-1,0.8l-0.8-1
			l1.1-9.2l1-0.8L220.5-94.2z"/>
	</g>
</g>
<g id="R_Flag" class="st0">
	<g class="st2">
		<rect x="-150" y="-19.6" class="st5" width="12.6" height="13.5"/>
		<path class="st15" d="M-149.1-11v-8.6h3.7c0.9,0,1.6,0.1,2,0.2s0.7,0.4,1,0.8s0.4,0.8,0.4,1.4c0,0.6-0.2,1.2-0.6,1.6
			c-0.4,0.4-0.9,0.7-1.7,0.8c0.4,0.2,0.7,0.5,0.9,0.7s0.6,0.7,1,1.4l1,1.7h-2.1l-1.3-1.9c-0.4-0.7-0.8-1.1-0.9-1.3s-0.3-0.3-0.5-0.4
			s-0.5-0.1-0.9-0.1h-0.4v3.6H-149.1z M-147.4-16h1.3c0.8,0,1.4,0,1.6-0.1s0.4-0.2,0.5-0.4s0.2-0.4,0.2-0.6c0-0.3-0.1-0.5-0.2-0.7
			s-0.4-0.3-0.7-0.3c-0.1,0-0.6,0-1.3,0h-1.4V-16z"/>
	</g>
</g>
<g id="P_Flag" class="st0">
	<g class="st2">
		<rect x="-168.9" y="-19.6" class="st5" width="10" height="13.5"/>
		<path class="st15" d="M-168-11v-8.6h2.8c1.1,0,1.7,0,2.1,0.1c0.5,0.1,0.9,0.4,1.2,0.8s0.5,1,0.5,1.7c0,0.5-0.1,1-0.3,1.3
			c-0.2,0.4-0.4,0.6-0.7,0.8s-0.6,0.3-0.9,0.4c-0.4,0.1-1,0.1-1.8,0.1h-1.1v3.2H-168z M-166.3-18.2v2.4h0.9c0.7,0,1.1,0,1.4-0.1
			s0.4-0.2,0.5-0.4s0.2-0.4,0.2-0.7c0-0.3-0.1-0.6-0.3-0.8s-0.4-0.3-0.7-0.4c-0.2,0-0.6-0.1-1.2-0.1H-166.3z"/>
	</g>
</g>
<g id="L_Arm_Flag" class="st0">
	<g class="st2">
		<rect x="-34.9" y="-72.5" class="st5" width="9" height="37.5"/>
		<path class="st14" d="M-33.4-63.1l3-7.9h1.1l3.2,7.9h-1.2l-0.9-2.4h-3.3l-0.9,2.4H-33.4z M-31.2-66.3h2.7l-0.8-2.2
			c-0.3-0.7-0.4-1.2-0.6-1.6c-0.1,0.5-0.2,1-0.4,1.5L-31.2-66.3z"/>
		<path class="st14" d="M-32.9-50.4v-7.9h3.5c0.7,0,1.2,0.1,1.6,0.2c0.4,0.1,0.7,0.4,0.9,0.7s0.3,0.8,0.3,1.2c0,0.6-0.2,1-0.5,1.4
			s-0.9,0.6-1.7,0.7c0.3,0.1,0.5,0.3,0.6,0.4c0.3,0.3,0.6,0.6,0.9,1l1.4,2.1h-1.3l-1-1.6c-0.3-0.5-0.6-0.8-0.8-1.1
			c-0.2-0.3-0.4-0.4-0.5-0.5c-0.2-0.1-0.3-0.2-0.5-0.2c-0.1,0-0.3,0-0.6,0h-1.2v3.5H-32.9z M-31.8-54.8h2.2c0.5,0,0.8,0,1.1-0.1
			c0.3-0.1,0.5-0.3,0.6-0.5c0.1-0.2,0.2-0.5,0.2-0.7c0-0.4-0.1-0.7-0.4-0.9s-0.7-0.4-1.3-0.4h-2.5V-54.8z"/>
		<path class="st14" d="M-33.5-37.7v-7.9h1.6l1.9,5.6c0.2,0.5,0.3,0.9,0.4,1.2c0.1-0.3,0.2-0.7,0.4-1.3l1.9-5.5h1.4v7.9h-1v-6.6
			l-2.3,6.6h-0.9l-2.3-6.7v6.7H-33.5z"/>
	</g>
</g>
<g id="R_Arm_Flag" class="st0">
	<g class="st2">
		<rect x="70.1" y="-73.2" class="st5" width="9" height="37.5"/>
		<path class="st14" d="M71.6-63.8l3-7.9h1.1l3.2,7.9h-1.2l-0.9-2.4h-3.3l-0.9,2.4H71.6z M73.8-67h2.7l-0.8-2.2
			c-0.3-0.7-0.4-1.2-0.6-1.6c-0.1,0.5-0.2,1-0.4,1.5L73.8-67z"/>
		<path class="st14" d="M72.1-51.1V-59h3.5c0.7,0,1.2,0.1,1.6,0.2c0.4,0.1,0.7,0.4,0.9,0.7s0.3,0.8,0.3,1.2c0,0.6-0.2,1-0.5,1.4
			s-0.9,0.6-1.7,0.7c0.3,0.1,0.5,0.3,0.6,0.4c0.3,0.3,0.6,0.6,0.9,1l1.4,2.1h-1.3l-1-1.6c-0.3-0.5-0.6-0.8-0.8-1.1
			c-0.2-0.3-0.4-0.4-0.5-0.5c-0.2-0.1-0.3-0.2-0.5-0.2c-0.1,0-0.3,0-0.6,0h-1.2v3.5H72.1z M73.2-55.5h2.2c0.5,0,0.8,0,1.1-0.1
			c0.3-0.1,0.5-0.3,0.6-0.5c0.1-0.2,0.2-0.5,0.2-0.7c0-0.4-0.1-0.7-0.4-0.9s-0.7-0.4-1.3-0.4h-2.5V-55.5z"/>
		<path class="st14" d="M71.5-38.4v-7.9H73l1.9,5.6c0.2,0.5,0.3,0.9,0.4,1.2c0.1-0.3,0.2-0.7,0.4-1.3l1.9-5.5H79v7.9h-1V-45
			l-2.3,6.6h-0.9l-2.3-6.7v6.7H71.5z"/>
	</g>
</g>
<g id="PT_Down" class="st0">
	<polygon class="st16" points="91.7,-50.4 95.9,-39.8 100,-50.4 	"/>
</g>
<g id="PT_Up" class="st0">
	<polygon class="st16" points="91.7,-83.5 95.9,-94.1 100,-83.5 	"/>
</g>
<g id="PT_Flag" class="st0">
	<g class="st2">
		<rect x="90.6" y="-79.5" class="st5" width="9" height="26.7"/>
		<path class="st14" d="M92.9-70v-7.9h3c0.5,0,0.9,0,1.2,0.1c0.4,0.1,0.7,0.2,1,0.4c0.3,0.2,0.5,0.4,0.6,0.8s0.2,0.7,0.2,1.1
			c0,0.7-0.2,1.2-0.6,1.7c-0.4,0.5-1.2,0.7-2.3,0.7h-2v3.2H92.9z M93.9-74.2h2c0.7,0,1.2-0.1,1.4-0.4s0.4-0.6,0.4-1.1
			c0-0.3-0.1-0.6-0.3-0.8c-0.2-0.2-0.4-0.4-0.7-0.5c-0.2,0-0.5-0.1-1-0.1h-2V-74.2z"/>
		<path class="st14" d="M95.2-57.4v-6.9h-2.6v-0.9h6.2v0.9h-2.6v6.9H95.2z"/>
	</g>
</g>
<g id="FPM_Flag" class="st0">
	<g class="st2">
		<rect x="172.1" y="-62.9" class="st5" width="26.8" height="8.4"/>
		<path class="st14" d="M173-55v-7.9h5.3v0.9H174v2.4h3.7v0.9H174v3.6H173z"/>
		<path class="st14" d="M181.3-55v-7.9h3c0.5,0,0.9,0,1.2,0.1c0.4,0.1,0.7,0.2,1,0.4c0.3,0.2,0.5,0.4,0.6,0.8s0.2,0.7,0.2,1.1
			c0,0.7-0.2,1.2-0.6,1.7c-0.4,0.5-1.2,0.7-2.3,0.7h-2v3.2H181.3z M182.4-59.1h2c0.7,0,1.2-0.1,1.4-0.4s0.4-0.6,0.4-1.1
			c0-0.3-0.1-0.6-0.3-0.8c-0.2-0.2-0.4-0.4-0.7-0.5c-0.2,0-0.5-0.1-1-0.1h-2V-59.1z"/>
		<path class="st14" d="M190.3-55v-7.9h1.6l1.9,5.6c0.2,0.5,0.3,0.9,0.4,1.2c0.1-0.3,0.2-0.7,0.4-1.3l1.9-5.5h1.4v7.9h-1v-6.6
			l-2.3,6.6h-0.9l-2.3-6.7v6.7H190.3z"/>
	</g>
</g>
<g id="ALERT_Flag" class="st0">
	<g class="st2">
		<rect x="117.3" y="-62.9" class="st5" width="43.8" height="8.4"/>
		<path class="st14" d="M117.3-55l3-7.9h1.1l3.2,7.9h-1.2l-0.9-2.4h-3.3l-0.9,2.4H117.3z M119.6-58.2h2.7l-0.8-2.2
			c-0.3-0.7-0.4-1.2-0.6-1.6c-0.1,0.5-0.2,1-0.4,1.5L119.6-58.2z"/>
		<path class="st14" d="M127.2-55v-7.9h1v6.9h3.9v0.9H127.2z"/>
		<path class="st14" d="M135-55v-7.9h5.7v0.9H136v2.4h4.4v0.9H136v2.7h4.8v0.9H135z"/>
		<path class="st14" d="M144-55v-7.9h3.5c0.7,0,1.2,0.1,1.6,0.2c0.4,0.1,0.7,0.4,0.9,0.7s0.3,0.8,0.3,1.2c0,0.6-0.2,1-0.5,1.4
			s-0.9,0.6-1.7,0.7c0.3,0.1,0.5,0.3,0.6,0.4c0.3,0.3,0.6,0.6,0.9,1l1.4,2.1h-1.3l-1-1.6c-0.3-0.5-0.6-0.8-0.8-1.1
			c-0.2-0.3-0.4-0.4-0.5-0.5c-0.2-0.1-0.3-0.2-0.5-0.2c-0.1,0-0.3,0-0.6,0H145v3.5H144z M145-59.4h2.2c0.5,0,0.8,0,1.1-0.1
			c0.3-0.1,0.5-0.3,0.6-0.5c0.1-0.2,0.2-0.5,0.2-0.7c0-0.4-0.1-0.7-0.4-0.9s-0.7-0.4-1.3-0.4H145V-59.4z"/>
		<path class="st14" d="M155.4-55v-6.9h-2.6v-0.9h6.2v0.9h-2.6v6.9H155.4z"/>
	</g>
</g>
<g id="HPA_Flag" class="st0">
	<g class="st2">
		<rect x="133.1" y="-49.3" class="st5" width="25.8" height="8.4"/>
		<path class="st14" d="M134-41.4v-7.9h1v3.2h4.1v-3.2h1v7.9h-1v-3.7H135v3.7H134z"/>
		<path class="st14" d="M143.5-41.4v-7.9h3c0.5,0,0.9,0,1.2,0.1c0.4,0.1,0.7,0.2,1,0.4c0.3,0.2,0.5,0.4,0.6,0.8s0.2,0.7,0.2,1.1
			c0,0.7-0.2,1.2-0.6,1.7c-0.4,0.5-1.2,0.7-2.3,0.7h-2v3.2H143.5z M144.6-45.5h2c0.7,0,1.2-0.1,1.4-0.4s0.4-0.6,0.4-1.1
			c0-0.3-0.1-0.6-0.3-0.8c-0.2-0.2-0.4-0.4-0.7-0.5c-0.2,0-0.5-0.1-1-0.1h-2V-45.5z"/>
		<path class="st14" d="M150.8-41.4l3-7.9h1.1l3.2,7.9H157l-0.9-2.4h-3.3l-0.9,2.4H150.8z M153.1-44.6h2.7l-0.8-2.2
			c-0.3-0.7-0.4-1.2-0.6-1.6c-0.1,0.5-0.2,1-0.4,1.5L153.1-44.6z"/>
	</g>
</g>
<g id="IN_HG_Flag" class="st0">
	<g class="st2">
		<rect x="185.5" y="-49.3" class="st5" width="15.8" height="8.4"/>
		<path class="st14" d="M186.5-41.4v-7.9h1v7.9H186.5z"/>
		<path class="st14" d="M191-41.4v-7.9h1.1l4.1,6.2v-6.2h1v7.9h-1.1l-4.1-6.2v6.2H191z"/>
	</g>
	<g class="st2">
		<rect x="204.6" y="-49.3" class="st5" width="19.7" height="8.4"/>
		<path class="st14" d="M205.5-41.4v-7.9h1v3.2h4.1v-3.2h1v7.9h-1v-3.7h-4.1v3.7H205.5z"/>
		<path class="st14" d="M218.7-44.5v-0.9l3.3,0v2.9c-0.5,0.4-1,0.7-1.6,0.9c-0.5,0.2-1.1,0.3-1.7,0.3c-0.8,0-1.5-0.2-2.1-0.5
			c-0.6-0.3-1.1-0.8-1.4-1.4s-0.5-1.3-0.5-2.1c0-0.8,0.2-1.5,0.5-2.1c0.3-0.7,0.8-1.2,1.4-1.5s1.3-0.5,2.1-0.5
			c0.6,0,1.1,0.1,1.5,0.3c0.5,0.2,0.8,0.4,1.1,0.8s0.5,0.8,0.6,1.3l-0.9,0.3c-0.1-0.4-0.3-0.7-0.4-0.9s-0.4-0.4-0.8-0.6
			c-0.3-0.1-0.7-0.2-1.1-0.2c-0.5,0-0.9,0.1-1.2,0.2c-0.3,0.1-0.6,0.3-0.8,0.6s-0.4,0.5-0.5,0.8c-0.2,0.5-0.3,1-0.3,1.6
			c0,0.7,0.1,1.3,0.4,1.8c0.2,0.5,0.6,0.8,1.1,1.1c0.5,0.2,1,0.3,1.5,0.3c0.5,0,0.9-0.1,1.3-0.3c0.4-0.2,0.8-0.4,1-0.6v-1.5H218.7z"
			/>
	</g>
</g>
<g id="FT_Flag" class="st0">
	<g class="st2">
		<rect x="204.6" y="-62.9" class="st5" width="15.8" height="8.4"/>
		<path class="st14" d="M205.5-55v-7.9h5.3v0.9h-4.3v2.4h3.7v0.9h-3.7v3.6H205.5z"/>
		<path class="st14" d="M215.8-55v-6.9h-2.6v-0.9h6.2v0.9h-2.6v6.9H215.8z"/>
	</g>
</g>
<g id="AP_Flag" class="st0">
	<g class="st2">
		<rect x="-19.2" y="-91.9" class="st5" width="16.8" height="8.4"/>
		<path class="st14" d="M-19.2-84l3-7.9h1.1l3.2,7.9H-13l-0.9-2.4h-3.3l-0.9,2.4H-19.2z M-16.9-87.2h2.7l-0.8-2.2
			c-0.3-0.7-0.4-1.2-0.6-1.6c-0.1,0.5-0.2,1-0.4,1.5L-16.9-87.2z"/>
		<path class="st14" d="M-9.3-84v-7.9h3c0.5,0,0.9,0,1.2,0.1c0.4,0.1,0.7,0.2,1,0.4c0.3,0.2,0.5,0.4,0.6,0.8s0.2,0.7,0.2,1.1
			c0,0.7-0.2,1.2-0.6,1.7c-0.4,0.5-1.2,0.7-2.3,0.7h-2v3.2H-9.3z M-8.3-88.1h2c0.7,0,1.2-0.1,1.4-0.4s0.4-0.6,0.4-1.1
			c0-0.3-0.1-0.6-0.3-0.8c-0.2-0.2-0.4-0.4-0.7-0.5c-0.2,0-0.5-0.1-1-0.1h-2V-88.1z"/>
	</g>
	<polygon class="st16" points="-2.6,-94.1 -19.6,-94.1 -21.1,-95.6 -1.3,-95.6 	"/>
	<polygon class="st16" points="-2.3,-81 -19.3,-81 -20.8,-79.5 -1,-79.5 	"/>
	<polygon class="st16" points="-1.6,-93.6 -1.6,-81.7 -0.1,-80.7 -0.1,-94.6 	"/>
	<polygon class="st16" points="-20.5,-93.6 -20.5,-81.7 -22,-80.7 -22,-94.6 	"/>
</g>
</svg>
