<?xml version="1.0" encoding="utf-8"?>
<!-- Generator: Adobe Illustrator 19.0.0, SVG Export Plug-In . SVG Version: 6.00 Build 0)  -->
<svg version="1.1" xmlns="http://www.w3.org/2000/svg" xmlns:xlink="http://www.w3.org/1999/xlink" x="0px" y="0px"
	 viewBox="0 0 33.1 19.8" style="enable-background:new 0 0 33.1 19.8;" xml:space="preserve">
<style type="text/css">
	.st0{display:none;}
	.st1{display:inline;fill:#282828;stroke:#E5E5E5;stroke-width:2;stroke-miterlimit:10;}
	.st2{display:inline;}
	.st3{display:inline;fill:#58595B;}
	.st4{display:inline;fill:none;stroke:#414042;stroke-width:2;stroke-miterlimit:10;}
	.st5{fill:none;}
	.st6{fill:#414042;}
	.st7{display:inline;fill:none;stroke:#FFFFFF;stroke-miterlimit:10;}
	.st8{fill:#FFFFFF;}
	.st9{display:inline;fill:#3F403F;stroke:#000000;stroke-miterlimit:10;}
	.st10{fill:none;stroke:#000000;stroke-width:1.5;stroke-miterlimit:10;stroke-dasharray:1.5093,1.5093;}
	.st11{fill:#3F403F;stroke:#000000;stroke-width:2;stroke-miterlimit:10;}
	.st12{fill:none;stroke:#000000;stroke-width:1.5;stroke-miterlimit:10;stroke-dasharray:1.5898,1.5898;}
	.st13{fill:#FFFFFF;stroke:#FFFFFF;stroke-miterlimit:10;}
	.st14{fill:#F7941E;}
	.st15{fill:#ED1C24;}
	.st16{display:inline;fill:#F7941E;}
</style>
<g id="Layer_1" class="st0">
	<path id="XMLID_814_" class="st1" d="M53.8,139.6h-586.7c-1.7,0-3-0.9-3-2v-150c0-1.1,1.3-2,3-2H53.8c1.7,0,3,0.9,3,2v150
		C56.8,138.8,55.4,139.6,53.8,139.6z"/>
</g>
<g id="Base" class="st0">
	<path class="st2" d="M-117,61.5c0,4.3-2.1,7.8-4.7,7.8h-321.5c-2.6,0-4.7-3.5-4.7-7.8V9.1c0-4.3,2.1-7.8,4.7-7.8h321.5
		c2.6,0,4.7,3.5,4.7,7.8V61.5z"/>
	<circle class="st3" cx="-79.4" cy="20.2" r="5.7"/>
	<line class="st4" x1="-85.2" y1="20.2" x2="-73.7" y2="20.2"/>
	<g class="st2">
		<rect x="-494" y="81.5" class="st5" width="12.6" height="13.5"/>
		<path class="st6" d="M-493.1,90.1v-8.6h3.7c0.9,0,1.6,0.1,2,0.2s0.7,0.4,1,0.8s0.4,0.8,0.4,1.4c0,0.6-0.2,1.2-0.6,1.6
			s-0.9,0.7-1.7,0.8c0.4,0.2,0.7,0.5,0.9,0.7s0.6,0.7,1,1.4l1,1.7h-2.1l-1.3-1.9c-0.4-0.7-0.8-1.1-0.9-1.3s-0.3-0.3-0.5-0.4
			s-0.5-0.1-0.9-0.1h-0.4v3.6H-493.1z M-491.4,85.1h1.3c0.8,0,1.4,0,1.6-0.1s0.4-0.2,0.5-0.4s0.2-0.4,0.2-0.6c0-0.3-0.1-0.5-0.2-0.7
			s-0.4-0.3-0.7-0.3c-0.1,0-0.6,0-1.3,0h-1.4V85.1z"/>
	</g>
	<g class="st2">
		<rect x="-512.9" y="81.5" class="st5" width="10" height="13.5"/>
		<path class="st6" d="M-512,90.1v-8.6h2.8c1.1,0,1.7,0,2.1,0.1c0.5,0.1,0.9,0.4,1.2,0.8s0.5,1,0.5,1.7c0,0.5-0.1,1-0.3,1.3
			s-0.4,0.6-0.7,0.8s-0.6,0.3-0.9,0.4c-0.4,0.1-1,0.1-1.8,0.1h-1.1v3.2H-512z M-510.3,82.9v2.4h0.9c0.7,0,1.1,0,1.4-0.1
			s0.4-0.2,0.5-0.4s0.2-0.4,0.2-0.7c0-0.3-0.1-0.6-0.3-0.8s-0.4-0.3-0.7-0.4c-0.2,0-0.6-0.1-1.2-0.1H-510.3z"/>
	</g>
	<path class="st7" d="M-58.5,118.4c0,2.8-1.9,5.1-4.3,5.1h-34.4c-2.4,0-4.3-2.3-4.3-5.1V47.5c0-2.8,1.9-5.1,4.3-5.1h34.4
		c2.4,0,4.3,2.3,4.3,5.1V118.4z"/>
</g>
<g id="Labels" class="st0">
	<g class="st2">
		<rect x="-514.8" y="7.4" class="st5" width="41.6" height="9.1"/>
		<path class="st8" d="M-514.1,14.9V7.4h1v3.7l3.7-3.7h1.3l-3.1,3l3.3,4.4h-1.3l-2.6-3.8l-1.2,1.2v2.6H-514.1z"/>
		<path class="st8" d="M-507.9,14.9l2.9-7.4h1.1l3,7.4h-1.1l-0.9-2.3h-3.1l-0.8,2.3H-507.9z M-505.8,11.8h2.5l-0.8-2.1
			c-0.2-0.6-0.4-1.1-0.5-1.5c-0.1,0.5-0.2,1-0.4,1.4L-505.8,11.8z"/>
		<path class="st8" d="M-500.2,14.9V7.4h2.8c0.5,0,0.9,0,1.1,0.1c0.4,0.1,0.7,0.2,0.9,0.3c0.2,0.2,0.4,0.4,0.6,0.7s0.2,0.6,0.2,1
			c0,0.6-0.2,1.2-0.6,1.6c-0.4,0.4-1.1,0.7-2.2,0.7h-1.9v3H-500.2z M-499.2,11h1.9c0.6,0,1.1-0.1,1.4-0.4c0.3-0.2,0.4-0.6,0.4-1
			c0-0.3-0.1-0.6-0.2-0.8s-0.4-0.4-0.6-0.4c-0.2,0-0.5-0.1-0.9-0.1h-1.9V11z"/>
		<path class="st8" d="M-487.5,14.9h-0.9V9.1c-0.2,0.2-0.5,0.4-0.9,0.6s-0.7,0.4-1,0.5V9.3c0.5-0.2,1-0.5,1.3-0.9
			c0.4-0.3,0.7-0.7,0.8-1h0.6V14.9z"/>
		<path class="st8" d="M-482.2,14.9v-1.8h-3.2v-0.8l3.4-4.8h0.7v4.8h1v0.8h-1v1.8H-482.2z M-482.2,12.3V8.9l-2.3,3.4H-482.2z"/>
		<path class="st8" d="M-479.3,11.2c0-0.9,0.1-1.6,0.3-2.1c0.2-0.5,0.4-0.9,0.8-1.2c0.4-0.3,0.8-0.4,1.3-0.4c0.4,0,0.7,0.1,1.1,0.2
			c0.3,0.2,0.5,0.4,0.7,0.7c0.2,0.3,0.4,0.7,0.5,1.1c0.1,0.4,0.2,1,0.2,1.8c0,0.9-0.1,1.6-0.3,2.1c-0.2,0.5-0.4,1-0.8,1.2
			c-0.4,0.3-0.8,0.4-1.4,0.4c-0.7,0-1.3-0.3-1.7-0.8C-479.1,13.6-479.3,12.6-479.3,11.2z M-478.4,11.2c0,1.2,0.1,2,0.4,2.4
			c0.3,0.4,0.6,0.6,1.1,0.6s0.8-0.2,1.1-0.6c0.3-0.4,0.4-1.2,0.4-2.4c0-1.2-0.1-2-0.4-2.4c-0.3-0.4-0.6-0.6-1.1-0.6
			c-0.4,0-0.8,0.2-1,0.5C-478.2,9.1-478.4,10-478.4,11.2z"/>
	</g>
	<g class="st2">
		<rect x="-526.9" y="-4.4" class="st5" width="59.6" height="7.2"/>
		<path class="st8" d="M-526.6,1.8l1.3-6.3h2.2c0.5,0,0.8,0,1,0c0.3,0,0.6,0.1,0.8,0.3c0.2,0.1,0.4,0.3,0.5,0.5
			c0.1,0.2,0.2,0.5,0.2,0.7c0,0.3-0.1,0.7-0.3,0.9c-0.2,0.3-0.5,0.5-0.9,0.6c0.3,0.1,0.6,0.2,0.8,0.5s0.3,0.5,0.3,0.8
			c0,0.4-0.1,0.7-0.3,1.1c-0.2,0.3-0.5,0.6-0.9,0.7s-0.9,0.2-1.5,0.2H-526.6z M-525.1,0.8h1.2c0.5,0,0.9,0,1.1-0.1
			c0.2-0.1,0.3-0.2,0.4-0.3c0.1-0.2,0.2-0.3,0.2-0.5c0-0.2-0.1-0.4-0.2-0.5c-0.2-0.1-0.4-0.2-0.8-0.2h-1.5L-525.1,0.8z M-524.5-1.9
			h1c0.4,0,0.8,0,1-0.1c0.2-0.1,0.3-0.2,0.4-0.3c0.1-0.1,0.1-0.3,0.1-0.5c0-0.2,0-0.3-0.1-0.4s-0.2-0.2-0.4-0.2c-0.1,0-0.3,0-0.7,0
			h-1L-524.5-1.9z"/>
		<path class="st8" d="M-520.2,1.8l1.3-6.3h4.7l-0.2,1.1h-3.4l-0.3,1.4h3.3l-0.2,1.1h-3.3l-0.4,1.7h3.7l-0.2,1.1H-520.2z"/>
		<path class="st8" d="M-509.3,1.8h-1.2l-1.7-4.2l-0.9,4.2h-1.2l1.3-6.3h1.2l1.7,4.2l0.9-4.2h1.2L-509.3,1.8z"/>
		<path class="st8" d="M-508,1.8l1.3-6.3h1.7c0.5,0,0.8,0,0.9,0c0.3,0,0.5,0.1,0.7,0.2c0.2,0.1,0.4,0.2,0.6,0.3s0.3,0.3,0.4,0.5
			s0.2,0.4,0.3,0.7c0.1,0.3,0.1,0.6,0.1,0.9c0,0.7-0.1,1.3-0.4,1.8c-0.3,0.5-0.6,0.9-1,1.3c-0.3,0.2-0.7,0.4-1.2,0.5
			c-0.3,0.1-0.7,0.1-1.2,0.1H-508z M-506.5,0.8h0.7c0.5,0,0.8,0,1-0.1c0.2-0.1,0.4-0.2,0.6-0.3c0.3-0.2,0.5-0.5,0.6-0.9
			c0.2-0.4,0.3-0.8,0.3-1.4c0-0.4-0.1-0.8-0.2-1s-0.3-0.4-0.5-0.4c-0.1-0.1-0.4-0.1-0.8-0.1h-0.8L-506.5,0.8z"/>
		<path class="st8" d="M-501.7,1.8l1.3-6.3h1.3l-1.3,6.3H-501.7z"/>
		<path class="st8" d="M-498.2,1.8h-1.7l2.8-3.2l-1.6-3.1h1.4l0.6,1.2c0,0,0.2,0.3,0.4,0.9c0,0,0,0.1,0.1,0.1c0.3-0.4,0.6-0.8,0.9-1
			l1-1.1h1.6l-2.9,3.3l1.5,3h-1.5l-0.5-0.9c-0.2-0.5-0.4-0.9-0.5-1.1c-0.1,0.2-0.4,0.5-0.9,1L-498.2,1.8z"/>
		<path class="st8" d="M-494.1,2l3.1-6.5h0.9l-3.1,6.5H-494.1z"/>
		<path class="st8" d="M-490.9,1.8l1.3-6.3h1.3l-0.6,2.7l2.9-2.7h1.7L-487-2l2.1,3.8h-1.5l-1.6-3l-1.2,1.1l-0.4,1.9H-490.9z"/>
		<path class="st8" d="M-484.6,1.8l1.3-6.3h1.3l-1.3,6.3H-484.6z"/>
		<path class="st8" d="M-477.1,1.8h-1.2l-1.7-4.2l-0.9,4.2h-1.2l1.3-6.3h1.2l1.7,4.2l0.9-4.2h1.2L-477.1,1.8z"/>
		<path class="st8" d="M-472.3-1.5h2.8l-0.6,2.7c-0.3,0.2-0.7,0.4-1.2,0.5c-0.5,0.1-1,0.2-1.5,0.2c-0.8,0-1.4-0.2-1.8-0.5
			c-0.6-0.5-0.9-1.2-0.9-2.1c0-0.6,0.1-1.2,0.4-1.8c0.3-0.7,0.7-1.2,1.2-1.6s1.2-0.6,1.9-0.6s1.3,0.2,1.7,0.5s0.7,0.8,0.9,1.5
			l-1.2,0.1c-0.1-0.4-0.3-0.6-0.5-0.8c-0.2-0.2-0.5-0.3-0.9-0.3c-0.4,0-0.8,0.1-1.2,0.3s-0.6,0.6-0.8,1c-0.2,0.5-0.3,1-0.3,1.5
			c0,0.5,0.1,0.9,0.4,1.2c0.2,0.3,0.6,0.4,1.1,0.4c0.3,0,0.6,0,0.9-0.1c0.3-0.1,0.5-0.2,0.8-0.3l0.2-0.9h-1.6L-472.3-1.5z"/>
	</g>
</g>
<g id="Outer_Knob_R" class="st0">
	<path class="st9" d="M30.7,84.6c0,17-13.8,30.9-30.9,30.9c-17.1,0-30.9-13.8-30.9-30.9c0-17.1,13.8-30.9,30.9-30.9
		C16.9,53.7,30.7,67.5,30.7,84.6z"/>
	<g class="st2">
		<g>
			<path class="st10" d="M31.6,84.6c0,17.5-14.2,31.7-31.7,31.7c-17.5,0-31.7-14.2-31.7-31.7c0-17.5,14.2-31.7,31.7-31.7
				C17.4,52.9,31.6,67.1,31.6,84.6z"/>
		</g>
	</g>
</g>
<g id="Inner_Knob_R" class="st0">
	<g class="st2">
		<circle class="st11" cx="-0.2" cy="84.6" r="20.8"/>
		<g>
			<path class="st12" d="M21.6,84.6c0,12-9.7,21.8-21.8,21.8s-21.8-9.7-21.8-21.8c0-12,9.7-21.8,21.8-21.8S21.6,72.6,21.6,84.6z"/>
		</g>
	</g>
</g>
<g id="BARO_Button">
	<path class="st13" d="M32.6,17.3c0,1.1-0.9,2-2,2H2.5c-1.1,0-2-0.9-2-2V2.5c0-1.1,0.9-2,2-2h28.1c1.1,0,2,0.9,2,2V17.3z"/>
	<g>
		<path d="M2.6,14.3V6.4h2.8c0.6,0,1,0.1,1.3,0.2C7.1,6.8,7.3,7,7.6,7.3S7.9,8,7.9,8.4c0,0.4-0.1,0.7-0.3,1
			c-0.2,0.3-0.4,0.5-0.8,0.7c0.4,0.1,0.8,0.4,1,0.7c0.2,0.3,0.4,0.7,0.4,1.2c0,0.5-0.1,0.9-0.3,1.3S7.4,13.8,7,14s-0.9,0.2-1.5,0.2
			H2.6z M3.6,9.7h1.6c0.4,0,0.7,0,0.9-0.1c0.3-0.1,0.5-0.2,0.6-0.4c0.1-0.2,0.2-0.4,0.2-0.7c0-0.3-0.1-0.5-0.2-0.7
			C6.6,7.6,6.4,7.5,6.2,7.4C6,7.3,5.6,7.3,5.1,7.3H3.6V9.7z M3.6,13.3h1.9c0.4,0,0.7,0,0.9-0.1C6.6,13.1,6.8,13,7,12.8
			s0.2-0.5,0.2-0.8c0-0.3-0.1-0.5-0.2-0.8s-0.3-0.4-0.6-0.5s-0.6-0.1-1.1-0.1H3.6V13.3z"/>
		<path d="M8.8,14.3l2.9-7.9h1.1l3,7.9h-1.1l-0.9-2.4h-3.1l-0.8,2.4H8.8z M10.9,11h2.5l-0.8-2.2c-0.2-0.7-0.4-1.2-0.5-1.6
			c-0.1,0.5-0.2,1-0.4,1.5L10.9,11z"/>
		<path d="M16.5,14.3V6.4h3.3c0.7,0,1.2,0.1,1.5,0.2c0.3,0.1,0.6,0.4,0.8,0.7s0.3,0.7,0.3,1.2c0,0.6-0.2,1.1-0.5,1.4
			c-0.4,0.4-0.9,0.6-1.6,0.7c0.3,0.1,0.5,0.3,0.6,0.4c0.3,0.3,0.6,0.6,0.8,1l1.3,2.1h-1.2l-1-1.6c-0.4-0.6-0.7-1.1-0.9-1.3
			s-0.4-0.4-0.6-0.4s-0.4-0.1-0.8-0.1h-1.1v3.5H16.5z M17.5,9.9h2.1c0.5,0,0.8,0,1.1-0.1s0.4-0.2,0.6-0.5c0.1-0.2,0.2-0.5,0.2-0.7
			c0-0.4-0.1-0.7-0.4-0.9s-0.7-0.3-1.2-0.3h-2.4V9.9z"/>
		<path d="M23.7,10.4c0-1.3,0.3-2.4,1-3.1s1.5-1.1,2.5-1.1c0.7,0,1.3,0.2,1.8,0.5s1,0.8,1.3,1.4s0.5,1.3,0.5,2.2
			c0,1.2-0.3,2.1-0.9,2.9c-0.7,0.8-1.6,1.2-2.6,1.2c-1.1,0-2-0.4-2.7-1.2C24,12.4,23.7,11.5,23.7,10.4z M24.8,10.4
			c0,1,0.2,1.7,0.7,2.3c0.5,0.5,1.1,0.8,1.8,0.8c0.7,0,1.3-0.3,1.8-0.8c0.5-0.5,0.7-1.3,0.7-2.4c0-0.7-0.1-1.3-0.4-1.8
			c-0.2-0.4-0.5-0.7-0.9-1c-0.4-0.2-0.8-0.4-1.3-0.4c-0.7,0-1.4,0.3-1.8,0.8C25,8.5,24.8,9.3,24.8,10.4z"/>
	</g>
</g>
<g id="ARM_Button">
	<path class="st13" d="M-26.4,17.3c0,1.1-0.9,2-2,2h-28.1c-1.1,0-2-0.9-2-2V2.5c0-1.1,0.9-2,2-2h28.1c1.1,0,2,0.9,2,2V17.3z"/>
	<g>
		<path d="M-54,14.3l2.9-7.9h1.1l3,7.9h-1.1l-0.9-2.4h-3.1l-0.8,2.4H-54z M-51.9,11h2.5l-0.8-2.2c-0.2-0.7-0.4-1.2-0.5-1.6
			c-0.1,0.5-0.2,1-0.4,1.5L-51.9,11z"/>
		<path d="M-46.2,14.3V6.4h3.3c0.7,0,1.2,0.1,1.5,0.2c0.3,0.1,0.6,0.4,0.8,0.7c0.2,0.3,0.3,0.7,0.3,1.2c0,0.6-0.2,1.1-0.5,1.4
			c-0.4,0.4-0.9,0.6-1.6,0.7c0.3,0.1,0.5,0.3,0.6,0.4c0.3,0.3,0.6,0.6,0.8,1l1.3,2.1h-1.2l-1-1.6c-0.4-0.6-0.7-1.1-0.9-1.3
			c-0.2-0.2-0.4-0.4-0.6-0.4c-0.2-0.1-0.4-0.1-0.8-0.1h-1.1v3.5H-46.2z M-45.3,9.9h2.1c0.5,0,0.8,0,1.1-0.1c0.2-0.1,0.4-0.2,0.6-0.5
			c0.1-0.2,0.2-0.5,0.2-0.7c0-0.4-0.1-0.7-0.4-0.9c-0.3-0.2-0.7-0.3-1.2-0.3h-2.4V9.9z"/>
		<path d="M-38.8,14.3V6.4h1.5l1.8,5.6l0.4,1.2c0.1-0.3,0.2-0.7,0.4-1.3l1.8-5.5h1.3v7.9h-0.9V7.7l-2.2,6.6h-0.9l-2.2-6.7v6.7H-38.8
			z"/>
	</g>
</g>
<g id="DN_Button">
	<path class="st13" d="M-63.4,114.3c0,1.1-0.9,2-2,2h-28.1c-1.1,0-2-0.9-2-2V99.5c0-1.1,0.9-2,2-2h28.1c1.1,0,2,0.9,2,2V114.3z"/>
	<g>
		<path d="M-86.2,111.3v-7.9h2.6c0.6,0,1.1,0,1.4,0.1c0.4,0.1,0.8,0.4,1.1,0.7c0.3,0.3,0.6,0.8,0.7,1.3s0.3,1.1,0.3,1.8
			c0,0.9-0.2,1.6-0.5,2.3c-0.3,0.6-0.7,1.1-1.2,1.3s-1.1,0.4-1.9,0.4H-86.2z M-85.2,110.3h1.6c0.6,0,1.1-0.1,1.5-0.3
			c0.3-0.2,0.6-0.5,0.8-0.9c0.2-0.5,0.4-1.2,0.4-1.9c0-0.8-0.1-1.4-0.4-1.9c-0.3-0.5-0.6-0.8-1-0.9c-0.3-0.1-0.7-0.2-1.3-0.2h-1.6
			V110.3z"/>
		<path d="M-78.7,111.3v-7.9h1l3.9,6.2v-6.2h0.9v7.9h-1l-3.9-6.2v6.2H-78.7z"/>
	</g>
</g>
<g id="UP_Button">
	<path class="st13" d="M-63.4,66.4c0,1.1-0.9,2-2,2h-28.1c-1.1,0-2-0.9-2-2V51.6c0-1.1,0.9-2,2-2h28.1c1.1,0,2,0.9,2,2V66.4z"/>
	<g>
		<path d="M-80.9,55.5h1V60c0,0.8-0.1,1.4-0.3,1.9c-0.2,0.5-0.5,0.9-0.9,1.2s-1,0.4-1.7,0.4c-1,0-1.7-0.3-2.2-0.8
			c-0.5-0.5-0.7-1.4-0.7-2.7v-4.5h1V60c0,0.7,0.1,1.2,0.2,1.5c0.1,0.3,0.3,0.6,0.6,0.7c0.3,0.2,0.6,0.3,1.1,0.3
			c0.7,0,1.2-0.2,1.5-0.5s0.5-1,0.5-2V55.5z"/>
		<path d="M-78.3,63.4v-7.9h2.8c0.7,0,1.1,0,1.5,0.2c0.4,0.1,0.8,0.4,1,0.8c0.3,0.4,0.4,0.8,0.4,1.4c0,0.7-0.2,1.3-0.6,1.7
			c-0.4,0.4-1.1,0.7-2.2,0.7h-1.9v3.2H-78.3z M-77.3,59.2h1.9c0.6,0,1.1-0.1,1.3-0.4c0.3-0.2,0.4-0.6,0.4-1.1c0-0.3-0.1-0.6-0.2-0.8
			c-0.1-0.2-0.3-0.4-0.5-0.5c-0.2-0.1-0.6-0.1-1.1-0.1h-1.9V59.2z"/>
	</g>
</g>
<g id="ALT_Button">
	<path class="st13" d="M-115.4,118.4c0,1.1-0.9,2-2,2h-28.1c-1.1,0-2-0.9-2-2v-14.8c0-1.1,0.9-2,2-2h28.1c1.1,0,2,0.9,2,2V118.4z"/>
	<g>
		<path d="M-140.5,115.4l2.9-7.9h1.1l3,7.9h-1.1l-0.9-2.4h-3.1l-0.8,2.4H-140.5z M-138.4,112.1h2.5l-0.8-2.2
			c-0.2-0.7-0.4-1.2-0.5-1.6c-0.1,0.5-0.2,1-0.4,1.5L-138.4,112.1z"/>
		<path d="M-132.8,115.4v-7.9h1v6.9h3.7v0.9H-132.8z"/>
		<path d="M-125.8,115.4v-6.9h-2.5v-0.9h5.9v0.9h-2.5v6.9H-125.8z"/>
	</g>
</g>
<g id="REV_Button">
	<path class="st13" d="M-175.4,118.4c0,1.1-0.9,2-2,2h-28.1c-1.1,0-2-0.9-2-2v-14.8c0-1.1,0.9-2,2-2h28.1c1.1,0,2,0.9,2,2V118.4z"/>
	<g>
		<path d="M-201.3,115.4v-7.9h3.3c0.7,0,1.2,0.1,1.5,0.2c0.3,0.1,0.6,0.4,0.8,0.7c0.2,0.3,0.3,0.7,0.3,1.2c0,0.6-0.2,1.1-0.5,1.4
			c-0.4,0.4-0.9,0.6-1.6,0.7c0.3,0.1,0.5,0.3,0.6,0.4c0.3,0.3,0.6,0.6,0.8,1l1.3,2.1h-1.2l-1-1.6c-0.4-0.6-0.7-1.1-0.9-1.3
			c-0.2-0.2-0.4-0.4-0.6-0.4s-0.4-0.1-0.8-0.1h-1.1v3.5H-201.3z M-200.3,111h2.1c0.5,0,0.8,0,1.1-0.1c0.2-0.1,0.4-0.2,0.6-0.5
			c0.1-0.2,0.2-0.5,0.2-0.7c0-0.4-0.1-0.7-0.4-0.9c-0.3-0.2-0.7-0.3-1.2-0.3h-2.4V111z"/>
		<path d="M-193.8,115.4v-7.9h5.4v0.9h-4.4v2.4h4.1v0.9h-4.1v2.7h4.6v0.9H-193.8z"/>
		<path d="M-184.7,115.4l-2.9-7.9h1.1l1.9,5.7c0.1,0.4,0.3,0.9,0.4,1.3c0.1-0.4,0.2-0.9,0.4-1.3l2-5.7h1l-2.9,7.9H-184.7z"/>
	</g>
</g>
<g id="APR_Button">
	<path class="st13" d="M-242.4,118.4c0,1.1-0.9,2-2,2h-28.1c-1.1,0-2-0.9-2-2v-14.8c0-1.1,0.9-2,2-2h28.1c1.1,0,2,0.9,2,2V118.4z"/>
	<g>
		<path d="M-269.1,115.4l2.9-7.9h1.1l3,7.9h-1.1l-0.9-2.4h-3.1l-0.8,2.4H-269.1z M-267,112.1h2.5l-0.8-2.2c-0.2-0.7-0.4-1.2-0.5-1.6
			c-0.1,0.5-0.2,1-0.4,1.5L-267,112.1z"/>
		<path d="M-261.4,115.4v-7.9h2.8c0.7,0,1.1,0,1.5,0.2c0.4,0.1,0.8,0.4,1,0.8c0.3,0.4,0.4,0.8,0.4,1.4c0,0.7-0.2,1.3-0.6,1.7
			c-0.4,0.4-1.1,0.7-2.2,0.7h-1.9v3.2H-261.4z M-260.4,111.2h1.9c0.6,0,1.1-0.1,1.3-0.4s0.4-0.6,0.4-1.1c0-0.3-0.1-0.6-0.2-0.8
			c-0.1-0.2-0.3-0.4-0.5-0.5c-0.2-0.1-0.6-0.1-1.1-0.1h-1.9V111.2z"/>
		<path d="M-254.4,115.4v-7.9h3.3c0.7,0,1.2,0.1,1.5,0.2c0.3,0.1,0.6,0.4,0.8,0.7s0.3,0.7,0.3,1.2c0,0.6-0.2,1.1-0.5,1.4
			c-0.4,0.4-0.9,0.6-1.6,0.7c0.3,0.1,0.5,0.3,0.6,0.4c0.3,0.3,0.6,0.6,0.8,1l1.3,2.1h-1.2l-1-1.6c-0.4-0.6-0.7-1.1-0.9-1.3
			s-0.4-0.4-0.6-0.4c-0.2-0.1-0.4-0.1-0.8-0.1h-1.1v3.5H-254.4z M-253.5,111h2.1c0.5,0,0.8,0,1.1-0.1c0.2-0.1,0.4-0.2,0.6-0.5
			c0.1-0.2,0.2-0.5,0.2-0.7c0-0.4-0.1-0.7-0.4-0.9s-0.7-0.3-1.2-0.3h-2.4V111z"/>
	</g>
</g>
<g id="Nav_Button">
	<path class="st13" d="M-311.4,118.4c0,1.1-0.9,2-2,2h-28.1c-1.1,0-2-0.9-2-2v-14.8c0-1.1,0.9-2,2-2h28.1c1.1,0,2,0.9,2,2V118.4z"/>
	<g>
		<path d="M-337,115.4v-7.9h1l3.9,6.2v-6.2h0.9v7.9h-1l-3.9-6.2v6.2H-337z"/>
		<path d="M-330.2,115.4l2.9-7.9h1.1l3,7.9h-1.1l-0.9-2.4h-3.1l-0.8,2.4H-330.2z M-328.1,112.1h2.5l-0.8-2.2
			c-0.2-0.7-0.4-1.2-0.5-1.6c-0.1,0.5-0.2,1-0.4,1.5L-328.1,112.1z"/>
		<path d="M-321.1,115.4l-2.9-7.9h1.1l1.9,5.7c0.1,0.4,0.3,0.9,0.4,1.3c0.1-0.4,0.2-0.9,0.4-1.3l2-5.7h1l-2.9,7.9H-321.1z"/>
	</g>
</g>
<g id="HGD_Button">
	<path class="st13" d="M-379.6,118.4c0,1.1-0.9,2-2,2h-28.1c-1.1,0-2-0.9-2-2v-14.8c0-1.1,0.9-2,2-2h28.1c1.1,0,2,0.9,2,2V118.4z"/>
	<g>
		<path d="M-406.4,115.4v-7.9h1v3.2h3.9v-3.2h1v7.9h-1v-3.7h-3.9v3.7H-406.4z"/>
		<path d="M-398.9,115.4v-7.9h2.6c0.6,0,1.1,0,1.4,0.1c0.4,0.1,0.8,0.4,1.1,0.7c0.3,0.3,0.6,0.8,0.7,1.3c0.2,0.5,0.3,1.1,0.3,1.8
			c0,0.9-0.2,1.6-0.5,2.3c-0.3,0.6-0.7,1.1-1.2,1.3c-0.5,0.3-1.1,0.4-1.9,0.4H-398.9z M-397.9,114.4h1.6c0.6,0,1.1-0.1,1.5-0.3
			c0.3-0.2,0.6-0.5,0.8-0.9c0.2-0.5,0.4-1.2,0.4-1.9c0-0.8-0.1-1.4-0.4-1.9c-0.3-0.5-0.6-0.8-1-0.9c-0.3-0.1-0.7-0.2-1.3-0.2h-1.6
			V114.4z"/>
		<path d="M-387.9,112.3v-0.9l3.2,0v2.9c-0.5,0.4-1,0.7-1.5,0.9s-1,0.3-1.6,0.3c-0.7,0-1.4-0.2-1.9-0.5s-1-0.8-1.4-1.4
			s-0.5-1.3-0.5-2.2c0-0.9,0.2-1.6,0.5-2.2s0.8-1.1,1.3-1.4c0.5-0.3,1.2-0.5,1.9-0.5c0.5,0,1,0.1,1.4,0.3c0.4,0.2,0.7,0.4,1,0.7
			s0.5,0.8,0.6,1.3l-0.9,0.3c-0.1-0.4-0.3-0.8-0.5-1c-0.2-0.2-0.4-0.4-0.7-0.5c-0.3-0.1-0.6-0.2-1-0.2c-0.5,0-1,0.1-1.4,0.3
			c-0.4,0.2-0.7,0.6-0.9,1.1c-0.2,0.5-0.4,1.1-0.4,1.8c0,1.1,0.3,1.8,0.8,2.4c0.5,0.5,1.2,0.8,2,0.8c0.4,0,0.8-0.1,1.2-0.2
			c0.4-0.2,0.7-0.4,1-0.6v-1.5H-387.9z"/>
	</g>
</g>
<g id="AP_Button">
	<path class="st13" d="M-483.5,119.4c0,1.1-0.9,2-2,2h-28.1c-1.1,0-2-0.9-2-2v-14.8c0-1.1,0.9-2,2-2h28.1c1.1,0,2,0.9,2,2V119.4z"/>
	<g>
		<path d="M-507.1,116.4l2.9-7.9h1.1l3,7.9h-1.1l-0.9-2.4h-3.1l-0.8,2.4H-507.1z M-505,113.1h2.5l-0.8-2.2c-0.2-0.7-0.4-1.2-0.5-1.6
			c-0.1,0.5-0.2,1-0.4,1.5L-505,113.1z"/>
		<path d="M-499.4,116.4v-7.9h2.8c0.7,0,1.1,0,1.5,0.2c0.4,0.1,0.8,0.4,1,0.8c0.3,0.4,0.4,0.8,0.4,1.4c0,0.7-0.2,1.3-0.6,1.7
			c-0.4,0.4-1.1,0.7-2.2,0.7h-1.9v3.2H-499.4z M-498.4,112.2h1.9c0.6,0,1.1-0.1,1.3-0.4s0.4-0.6,0.4-1.1c0-0.3-0.1-0.6-0.2-0.8
			c-0.1-0.2-0.3-0.4-0.5-0.5c-0.2-0.1-0.6-0.1-1.1-0.1h-1.9V112.2z"/>
	</g>
</g>
<g id="Text" class="st0">
	<g class="st2">
		<rect x="-445.9" y="5" class="st5" width="65" height="25.3"/>
		<path class="st14" d="M-440.4,16.8l-1.1,9.2l-1,0.8l-0.8-1l1.1-9.2l1-0.8L-440.4,16.8z M-432.1,27.4l0.8,1l-1,0.8l-9.1-1.1l-0.8-1
			l1-0.8L-432.1,27.4z M-439,5.5l-1.1,9.2l-1,0.8l-0.8-1l1.1-9.2l1-0.8L-439,5.5z M-435.7,16.9l0.3,1.4l-3.9,7.1l-1.2,0.5l-0.3-1.5
			l3.9-7L-435.7,16.9z M-429.4,4.7l0.8,1l-1,0.8l-9.1-1.1l-0.8-1l1-0.8L-429.4,4.7z M-430.4,7l0.3,1.4l-3.9,7.1l-1.2,0.5l-0.3-1.5
			l3.9-7L-430.4,7z M-429,18.2l-1.1,9.2l-1,0.8l-0.8-1l1.1-9.2l1-0.8L-429,18.2z M-427.7,6.9l-1.1,9.2l-1,0.8l-0.8-1l1.1-9.2l1-0.8
			L-427.7,6.9z"/>
		<path class="st14" d="M-418.8,16.8l-1.1,9.2l-1,0.8l-0.8-1l1.1-9.2l1-0.8L-418.8,16.8z M-410.5,27.4l0.8,1l-1,0.8l-9.1-1.1l-0.8-1
			l1-0.8L-410.5,27.4z M-417.4,5.5l-1.1,9.2l-1,0.8l-0.8-1l1.1-9.2l1-0.8L-417.4,5.5z M-414,16.9l0.3,1.4l-3.9,7.1l-1.2,0.5
			l-0.3-1.5l3.9-7L-414,16.9z M-407.8,4.7l0.8,1l-1,0.8l-9.1-1.1l-0.8-1l1-0.8L-407.8,4.7z M-408.8,7l0.3,1.4l-3.9,7.1l-1.2,0.5
			l-0.3-1.5l3.9-7L-408.8,7z M-407.4,18.2l-1.1,9.2l-1,0.8l-0.8-1l1.1-9.2l1-0.8L-407.4,18.2z M-406,6.9l-1.1,9.2l-1,0.8l-0.8-1
			l1.1-9.2l1-0.8L-406,6.9z"/>
		<path class="st14" d="M-397.2,16.8l-1.1,9.2l-1,0.8l-0.8-1l1.1-9.2l1-0.8L-397.2,16.8z M-388.9,27.4l0.8,1l-1,0.8l-9.1-1.1l-0.8-1
			l1-0.8L-388.9,27.4z M-395.8,5.5l-1.1,9.2l-1,0.8l-0.8-1l1.1-9.2l1-0.8L-395.8,5.5z M-392.4,16.9l0.3,1.4l-3.9,7.1l-1.2,0.5
			l-0.3-1.5l3.9-7L-392.4,16.9z M-386.2,4.7l0.8,1l-1,0.8l-9.1-1.1l-0.8-1l1-0.8L-386.2,4.7z M-387.2,7l0.3,1.4l-3.9,7.1l-1.2,0.5
			l-0.3-1.5l3.9-7L-387.2,7z M-385.8,18.2l-1.1,9.2l-1,0.8l-0.8-1l1.1-9.2l1-0.8L-385.8,18.2z M-384.4,6.9l-1.1,9.2l-1,0.8l-0.8-1
			l1.1-9.2l1-0.8L-384.4,6.9z"/>
	</g>
	<g class="st2">
		<rect x="-447.9" y="39" class="st5" width="65" height="25.3"/>
		<path class="st14" d="M-444.2,40v9.3l-0.9,0.9l-0.9-0.9V40l0.9-0.9L-444.2,40z M-444.2,51.5v9.3l-0.9,0.9l-0.9-0.9v-9.3l0.9-0.9
			L-444.2,51.5z M-434.8,38l0.9,0.9l-0.9,0.9h-9.2L-445,39l0.9-0.9H-434.8z M-434.8,60.9l0.9,0.9l-0.9,0.9h-9.2l-0.9-0.9l0.9-0.9
			H-434.8z M-439.5,51l0.5,1.3l-3,7.5l-1.2,0.6l-0.5-1.4l3-7.4L-439.5,51z M-435.5,40.5l0.5,1.3l-3,7.5l-1.2,0.6l-0.5-1.4l3-7.4
			L-435.5,40.5z M-432.8,40v9.3l-0.9,0.9l-0.9-0.9V40l0.9-0.9L-432.8,40z M-432.8,51.5v9.3l-0.9,0.9l-0.9-0.9v-9.3l0.9-0.9
			L-432.8,51.5z"/>
		<path class="st14" d="M-421.4,40v9.3l-0.9,0.9l-0.9-0.9V40l0.9-0.9L-421.4,40z M-421.4,51.5v9.3l-0.9,0.9l-0.9-0.9v-9.3l0.9-0.9
			L-421.4,51.5z M-411.9,38l0.9,0.9l-0.9,0.9h-9.2l-0.9-0.9l0.9-0.9H-411.9z M-411.9,60.9l0.9,0.9l-0.9,0.9h-9.2l-0.9-0.9l0.9-0.9
			H-411.9z M-416.7,51l0.5,1.3l-3,7.5l-1.2,0.6l-0.5-1.4l3-7.4L-416.7,51z M-412.7,40.5l0.5,1.3l-3,7.5l-1.2,0.6l-0.5-1.4l3-7.4
			L-412.7,40.5z M-409.9,40v9.3l-0.9,0.9l-0.9-0.9V40l0.9-0.9L-409.9,40z M-409.9,51.5v9.3l-0.9,0.9l-0.9-0.9v-9.3l0.9-0.9
			L-409.9,51.5z"/>
		<path class="st14" d="M-398.5,40v9.3l-0.9,0.9l-0.9-0.9V40l0.9-0.9L-398.5,40z M-398.5,51.5v9.3l-0.9,0.9l-0.9-0.9v-9.3l0.9-0.9
			L-398.5,51.5z M-389.1,38l0.9,0.9l-0.9,0.9h-9.2l-0.9-0.9l0.9-0.9H-389.1z M-389,60.9l0.9,0.9l-0.9,0.9h-9.2l-0.9-0.9l0.9-0.9
			H-389z M-393.8,51l0.5,1.3l-3,7.5l-1.2,0.6L-398,59l3-7.4L-393.8,51z M-389.8,40.5l0.5,1.3l-3,7.5l-1.2,0.6l-0.5-1.4l3-7.4
			L-389.8,40.5z M-387.1,40v9.3l-0.9,0.9l-0.9-0.9V40l0.9-0.9L-387.1,40z M-387.1,51.5v9.3l-0.9,0.9l-0.9-0.9v-9.3l0.9-0.9
			L-387.1,51.5z"/>
	</g>
	<g class="st2">
		<rect x="-337.9" y="5" class="st5" width="65" height="25.3"/>
		<path class="st14" d="M-332.4,16.8l-1.1,9.2l-1,0.8l-0.8-1l1.1-9.2l1-0.8L-332.4,16.8z M-324.1,27.4l0.8,1l-1,0.8l-9.1-1.1l-0.8-1
			l1-0.8L-324.1,27.4z M-331,5.5l-1.1,9.2l-1,0.8l-0.8-1l1.1-9.2l1-0.8L-331,5.5z M-327.7,16.9l0.3,1.4l-3.9,7.1l-1.2,0.5l-0.3-1.5
			l3.9-7L-327.7,16.9z M-321.4,4.7l0.8,1l-1,0.8l-9.1-1.1l-0.8-1l1-0.8L-321.4,4.7z M-322.4,7l0.3,1.4l-3.9,7.1l-1.2,0.5l-0.3-1.5
			l3.9-7L-322.4,7z M-321,18.2l-1.1,9.2l-1,0.8l-0.8-1l1.1-9.2l1-0.8L-321,18.2z M-319.7,6.9l-1.1,9.2l-1,0.8l-0.8-1l1.1-9.2l1-0.8
			L-319.7,6.9z"/>
		<path class="st14" d="M-310.8,16.8l-1.1,9.2l-1,0.8l-0.8-1l1.1-9.2l1-0.8L-310.8,16.8z M-302.5,27.4l0.8,1l-1,0.8l-9.1-1.1l-0.8-1
			l1-0.8L-302.5,27.4z M-309.4,5.5l-1.1,9.2l-1,0.8l-0.8-1l1.1-9.2l1-0.8L-309.4,5.5z M-306,16.9l0.3,1.4l-3.9,7.1l-1.2,0.5
			l-0.3-1.5l3.9-7L-306,16.9z M-299.8,4.7l0.8,1l-1,0.8l-9.1-1.1l-0.8-1l1-0.8L-299.8,4.7z M-300.8,7l0.3,1.4l-3.9,7.1l-1.2,0.5
			l-0.3-1.5l3.9-7L-300.8,7z M-299.4,18.2l-1.1,9.2l-1,0.8l-0.8-1l1.1-9.2l1-0.8L-299.4,18.2z M-298,6.9l-1.1,9.2l-1,0.8l-0.8-1
			l1.1-9.2l1-0.8L-298,6.9z"/>
		<path class="st14" d="M-289.2,16.8l-1.1,9.2l-1,0.8l-0.8-1l1.1-9.2l1-0.8L-289.2,16.8z M-280.9,27.4l0.8,1l-1,0.8l-9.1-1.1l-0.8-1
			l1-0.8L-280.9,27.4z M-287.8,5.5l-1.1,9.2l-1,0.8l-0.8-1l1.1-9.2l1-0.8L-287.8,5.5z M-284.4,16.9l0.3,1.4l-3.9,7.1l-1.2,0.5
			l-0.3-1.5l3.9-7L-284.4,16.9z M-278.2,4.7l0.8,1l-1,0.8l-9.1-1.1l-0.8-1l1-0.8L-278.2,4.7z M-279.2,7l0.3,1.4l-3.9,7.1l-1.2,0.5
			l-0.3-1.5l3.9-7L-279.2,7z M-277.8,18.2l-1.1,9.2l-1,0.8l-0.8-1l1.1-9.2l1-0.8L-277.8,18.2z M-276.4,6.9l-1.1,9.2l-1,0.8l-0.8-1
			l1.1-9.2l1-0.8L-276.4,6.9z"/>
	</g>
	<g class="st2">
		<rect x="-339.9" y="39" class="st5" width="65" height="25.3"/>
		<path class="st14" d="M-336.2,40v9.3l-0.9,0.9l-0.9-0.9V40l0.9-0.9L-336.2,40z M-336.2,51.5v9.3l-0.9,0.9l-0.9-0.9v-9.3l0.9-0.9
			L-336.2,51.5z M-326.8,38l0.9,0.9l-0.9,0.9h-9.2L-337,39l0.9-0.9H-326.8z M-326.8,60.9l0.9,0.9l-0.9,0.9h-9.2l-0.9-0.9l0.9-0.9
			H-326.8z M-331.5,51l0.5,1.3l-3,7.5l-1.2,0.6l-0.5-1.4l3-7.4L-331.5,51z M-327.5,40.5l0.5,1.3l-3,7.5l-1.2,0.6l-0.5-1.4l3-7.4
			L-327.5,40.5z M-324.8,40v9.3l-0.9,0.9l-0.9-0.9V40l0.9-0.9L-324.8,40z M-324.8,51.5v9.3l-0.9,0.9l-0.9-0.9v-9.3l0.9-0.9
			L-324.8,51.5z"/>
		<path class="st14" d="M-313.4,40v9.3l-0.9,0.9l-0.9-0.9V40l0.9-0.9L-313.4,40z M-313.4,51.5v9.3l-0.9,0.9l-0.9-0.9v-9.3l0.9-0.9
			L-313.4,51.5z M-303.9,38l0.9,0.9l-0.9,0.9h-9.2l-0.9-0.9l0.9-0.9H-303.9z M-303.9,60.9l0.9,0.9l-0.9,0.9h-9.2l-0.9-0.9l0.9-0.9
			H-303.9z M-308.7,51l0.5,1.3l-3,7.5l-1.2,0.6l-0.5-1.4l3-7.4L-308.7,51z M-304.7,40.5l0.5,1.3l-3,7.5l-1.2,0.6l-0.5-1.4l3-7.4
			L-304.7,40.5z M-301.9,40v9.3l-0.9,0.9l-0.9-0.9V40l0.9-0.9L-301.9,40z M-301.9,51.5v9.3l-0.9,0.9l-0.9-0.9v-9.3l0.9-0.9
			L-301.9,51.5z"/>
		<path class="st14" d="M-290.5,40v9.3l-0.9,0.9l-0.9-0.9V40l0.9-0.9L-290.5,40z M-290.5,51.5v9.3l-0.9,0.9l-0.9-0.9v-9.3l0.9-0.9
			L-290.5,51.5z M-281.1,38l0.9,0.9l-0.9,0.9h-9.2l-0.9-0.9l0.9-0.9H-281.1z M-281,60.9l0.9,0.9l-0.9,0.9h-9.2l-0.9-0.9l0.9-0.9
			H-281z M-285.8,51l0.5,1.3l-3,7.5l-1.2,0.6L-290,59l3-7.4L-285.8,51z M-281.8,40.5l0.5,1.3l-3,7.5l-1.2,0.6l-0.5-1.4l3-7.4
			L-281.8,40.5z M-279.1,40v9.3l-0.9,0.9l-0.9-0.9V40l0.9-0.9L-279.1,40z M-279.1,51.5v9.3l-0.9,0.9l-0.9-0.9v-9.3l0.9-0.9
			L-279.1,51.5z"/>
	</g>
	<g class="st2">
		<rect x="-228.1" y="5" class="st5" width="111.2" height="25.3"/>
		<path class="st14" d="M-222.6,16.8l-1.1,9.2l-1,0.8l-0.8-1l1.1-9.2l1-0.8L-222.6,16.8z M-214.4,27.4l0.8,1l-1,0.8l-9.1-1.1l-0.8-1
			l1-0.8L-214.4,27.4z M-221.2,5.5l-1.1,9.2l-1,0.8l-0.8-1l1.1-9.2l1-0.8L-221.2,5.5z M-217.9,16.9l0.3,1.4l-3.9,7.1l-1.2,0.5
			l-0.3-1.5l3.9-7L-217.9,16.9z M-211.7,4.7l0.8,1l-1,0.8l-9.1-1.1l-0.8-1l1-0.8L-211.7,4.7z M-212.7,7l0.3,1.4l-3.9,7.1l-1.2,0.5
			l-0.3-1.5l3.9-7L-212.7,7z M-211.3,18.2l-1.1,9.2l-1,0.8l-0.8-1l1.1-9.2l1-0.8L-211.3,18.2z M-209.9,6.9l-1.1,9.2l-1,0.8l-0.8-1
			l1.1-9.2l1-0.8L-209.9,6.9z"/>
		<path class="st14" d="M-201,16.8l-1.1,9.2l-1,0.8l-0.8-1l1.1-9.2l1-0.8L-201,16.8z M-192.8,27.4l0.8,1l-1,0.8l-9.1-1.1l-0.8-1
			l1-0.8L-192.8,27.4z M-199.6,5.5l-1.1,9.2l-1,0.8l-0.8-1l1.1-9.2l1-0.8L-199.6,5.5z M-196.3,16.9l0.3,1.4l-3.9,7.1l-1.2,0.5
			l-0.3-1.5l3.9-7L-196.3,16.9z M-190.1,4.7l0.8,1l-1,0.8l-9.1-1.1l-0.8-1l1-0.8L-190.1,4.7z M-191.1,7l0.3,1.4l-3.9,7.1l-1.2,0.5
			l-0.3-1.5l3.9-7L-191.1,7z M-189.7,18.2l-1.1,9.2l-1,0.8l-0.8-1l1.1-9.2l1-0.8L-189.7,18.2z M-188.3,6.9l-1.1,9.2l-1,0.8l-0.8-1
			l1.1-9.2l1-0.8L-188.3,6.9z"/>
		<path class="st14" d="M-179.4,16.8l-1.1,9.2l-1,0.8l-0.8-1l1.1-9.2l1-0.8L-179.4,16.8z M-171.2,27.4l0.8,1l-1,0.8l-9.1-1.1l-0.8-1
			l1-0.8L-171.2,27.4z M-178,5.5l-1.1,9.2l-1,0.8l-0.8-1l1.1-9.2l1-0.8L-178,5.5z M-174.7,16.9l0.3,1.4l-3.9,7.1l-1.2,0.5l-0.3-1.5
			l3.9-7L-174.7,16.9z M-168.4,4.7l0.8,1l-1,0.8l-9.1-1.1l-0.8-1l1-0.8L-168.4,4.7z M-169.4,7l0.3,1.4l-3.9,7.1l-1.2,0.5l-0.3-1.5
			l3.9-7L-169.4,7z M-168.1,18.2l-1.1,9.2l-1,0.8l-0.8-1l1.1-9.2l1-0.8L-168.1,18.2z M-166.7,6.9l-1.1,9.2l-1,0.8l-0.8-1l1.1-9.2
			l1-0.8L-166.7,6.9z"/>
		<path class="st14" d="M-157.8,16.8l-1.1,9.2l-1,0.8l-0.8-1l1.1-9.2l1-0.8L-157.8,16.8z M-149.6,27.4l0.8,1l-1,0.8l-9.1-1.1l-0.8-1
			l1-0.8L-149.6,27.4z M-156.4,5.5l-1.1,9.2l-1,0.8l-0.8-1l1.1-9.2l1-0.8L-156.4,5.5z M-153.1,16.9l0.3,1.4l-3.9,7.1l-1.2,0.5
			l-0.3-1.5l3.9-7L-153.1,16.9z M-146.8,4.7l0.8,1l-1,0.8l-9.1-1.1l-0.8-1l1-0.8L-146.8,4.7z M-147.8,7l0.3,1.4l-3.9,7.1l-1.2,0.5
			l-0.3-1.5l3.9-7L-147.8,7z M-146.5,18.2l-1.1,9.2l-1,0.8l-0.8-1l1.1-9.2l1-0.8L-146.5,18.2z M-145.1,6.9l-1.1,9.2l-1,0.8l-0.8-1
			l1.1-9.2l1-0.8L-145.1,6.9z"/>
		<path class="st14" d="M-136.2,16.8l-1.1,9.2l-1,0.8l-0.8-1l1.1-9.2l1-0.8L-136.2,16.8z M-127.9,27.4l0.8,1l-1,0.8l-9.1-1.1l-0.8-1
			l1-0.8L-127.9,27.4z M-134.8,5.5l-1.1,9.2l-1,0.8l-0.8-1l1.1-9.2l1-0.8L-134.8,5.5z M-131.5,16.9l0.3,1.4l-3.9,7.1l-1.2,0.5
			l-0.3-1.5l3.9-7L-131.5,16.9z M-125.2,4.7l0.8,1l-1,0.8l-9.1-1.1l-0.8-1l1-0.8L-125.2,4.7z M-126.2,7l0.3,1.4l-3.9,7.1l-1.2,0.5
			l-0.3-1.5l3.9-7L-126.2,7z M-124.8,18.2l-1.1,9.2l-1,0.8l-0.8-1l1.1-9.2l1-0.8L-124.8,18.2z M-123.5,6.9l-1.1,9.2l-1,0.8l-0.8-1
			l1.1-9.2l1-0.8L-123.5,6.9z"/>
	</g>
</g>
<g id="R_Flag" class="st0">
	<g class="st2">
		<rect x="-494" y="81.5" class="st5" width="12.6" height="13.5"/>
		<path class="st15" d="M-493.1,90.1v-8.6h3.7c0.9,0,1.6,0.1,2,0.2s0.7,0.4,1,0.8s0.4,0.8,0.4,1.4c0,0.6-0.2,1.2-0.6,1.6
			s-0.9,0.7-1.7,0.8c0.4,0.2,0.7,0.5,0.9,0.7s0.6,0.7,1,1.4l1,1.7h-2.1l-1.3-1.9c-0.4-0.7-0.8-1.1-0.9-1.3s-0.3-0.3-0.5-0.4
			s-0.5-0.1-0.9-0.1h-0.4v3.6H-493.1z M-491.4,85.1h1.3c0.8,0,1.4,0,1.6-0.1s0.4-0.2,0.5-0.4s0.2-0.4,0.2-0.6c0-0.3-0.1-0.5-0.2-0.7
			s-0.4-0.3-0.7-0.3c-0.1,0-0.6,0-1.3,0h-1.4V85.1z"/>
	</g>
</g>
<g id="P_Flag" class="st0">
	<g class="st2">
		<rect x="-512.9" y="81.5" class="st5" width="10" height="13.5"/>
		<path class="st15" d="M-512,90.1v-8.6h2.8c1.1,0,1.7,0,2.1,0.1c0.5,0.1,0.9,0.4,1.2,0.8s0.5,1,0.5,1.7c0,0.5-0.1,1-0.3,1.3
			s-0.4,0.6-0.7,0.8s-0.6,0.3-0.9,0.4c-0.4,0.1-1,0.1-1.8,0.1h-1.1v3.2H-512z M-510.3,82.9v2.4h0.9c0.7,0,1.1,0,1.4-0.1
			s0.4-0.2,0.5-0.4s0.2-0.4,0.2-0.7c0-0.3-0.1-0.6-0.3-0.8s-0.4-0.3-0.7-0.4c-0.2,0-0.6-0.1-1.2-0.1H-510.3z"/>
	</g>
</g>
<g id="L_Arm_Flag" class="st0">
	<g class="st2">
		<rect x="-378.9" y="28.6" class="st5" width="9" height="37.5"/>
		<path class="st14" d="M-377.4,38l3-7.9h1.1l3.2,7.9h-1.2l-0.9-2.4h-3.3l-0.9,2.4H-377.4z M-375.2,34.8h2.7l-0.8-2.2
			c-0.3-0.7-0.4-1.2-0.6-1.6c-0.1,0.5-0.2,1-0.4,1.5L-375.2,34.8z"/>
		<path class="st14" d="M-376.9,50.7v-7.9h3.5c0.7,0,1.2,0.1,1.6,0.2c0.4,0.1,0.7,0.4,0.9,0.7s0.3,0.8,0.3,1.2c0,0.6-0.2,1-0.5,1.4
			s-0.9,0.6-1.7,0.7c0.3,0.1,0.5,0.3,0.6,0.4c0.3,0.3,0.6,0.6,0.9,1l1.4,2.1h-1.3l-1-1.6c-0.3-0.5-0.6-0.8-0.8-1.1
			c-0.2-0.3-0.4-0.4-0.5-0.5c-0.2-0.1-0.3-0.2-0.5-0.2c-0.1,0-0.3,0-0.6,0h-1.2v3.5H-376.9z M-375.8,46.3h2.2c0.5,0,0.8,0,1.1-0.1
			c0.3-0.1,0.5-0.3,0.6-0.5c0.1-0.2,0.2-0.5,0.2-0.7c0-0.4-0.1-0.7-0.4-0.9s-0.7-0.4-1.3-0.4h-2.5V46.3z"/>
		<path class="st14" d="M-377.5,63.4v-7.9h1.6l1.9,5.6c0.2,0.5,0.3,0.9,0.4,1.2c0.1-0.3,0.2-0.7,0.4-1.3l1.9-5.5h1.4v7.9h-1v-6.6
			l-2.3,6.6h-0.9l-2.3-6.7v6.7H-377.5z"/>
	</g>
</g>
<g id="R_Arm_Flag" class="st0">
	<g class="st2">
		<rect x="-273.9" y="27.9" class="st5" width="9" height="37.5"/>
		<path class="st14" d="M-272.4,37.3l3-7.9h1.1l3.2,7.9h-1.2l-0.9-2.4h-3.3l-0.9,2.4H-272.4z M-270.2,34.1h2.7l-0.8-2.2
			c-0.3-0.7-0.4-1.2-0.6-1.6c-0.1,0.5-0.2,1-0.4,1.5L-270.2,34.1z"/>
		<path class="st14" d="M-271.9,50v-7.9h3.5c0.7,0,1.2,0.1,1.6,0.2c0.4,0.1,0.7,0.4,0.9,0.7s0.3,0.8,0.3,1.2c0,0.6-0.2,1-0.5,1.4
			s-0.9,0.6-1.7,0.7c0.3,0.1,0.5,0.3,0.6,0.4c0.3,0.3,0.6,0.6,0.9,1l1.4,2.1h-1.3l-1-1.6c-0.3-0.5-0.6-0.8-0.8-1.1
			c-0.2-0.3-0.4-0.4-0.5-0.5c-0.2-0.1-0.3-0.2-0.5-0.2c-0.1,0-0.3,0-0.6,0h-1.2V50H-271.9z M-270.8,45.6h2.2c0.5,0,0.8,0,1.1-0.1
			c0.3-0.1,0.5-0.3,0.6-0.5c0.1-0.2,0.2-0.5,0.2-0.7c0-0.4-0.1-0.7-0.4-0.9s-0.7-0.4-1.3-0.4h-2.5V45.6z"/>
		<path class="st14" d="M-272.5,62.7v-7.9h1.6l1.9,5.6c0.2,0.5,0.3,0.9,0.4,1.2c0.1-0.3,0.2-0.7,0.4-1.3l1.9-5.5h1.4v7.9h-1v-6.6
			l-2.3,6.6h-0.9l-2.3-6.7v6.7H-272.5z"/>
	</g>
</g>
<g id="PT_Down" class="st0">
	<polygon class="st16" points="-252.3,50.7 -248.1,61.3 -244,50.7 	"/>
</g>
<g id="PT_Up" class="st0">
	<polygon class="st16" points="-252.3,17.6 -248.1,7 -244,17.6 	"/>
</g>
<g id="PT_Flag" class="st0">
	<g class="st2">
		<rect x="-253.4" y="21.6" class="st5" width="9" height="26.7"/>
		<path class="st14" d="M-251.1,31.1v-7.9h3c0.5,0,0.9,0,1.2,0.1c0.4,0.1,0.7,0.2,1,0.4c0.3,0.2,0.5,0.4,0.6,0.8s0.2,0.7,0.2,1.1
			c0,0.7-0.2,1.2-0.6,1.7c-0.4,0.5-1.2,0.7-2.3,0.7h-2v3.2H-251.1z M-250.1,26.9h2c0.7,0,1.2-0.1,1.4-0.4s0.4-0.6,0.4-1.1
			c0-0.3-0.1-0.6-0.3-0.8c-0.2-0.2-0.4-0.4-0.7-0.5c-0.2,0-0.5-0.1-1-0.1h-2V26.9z"/>
		<path class="st14" d="M-248.8,43.7v-6.9h-2.6v-0.9h6.2v0.9h-2.6v6.9H-248.8z"/>
	</g>
</g>
<g id="FPM_Flag" class="st0">
	<g class="st2">
		<rect x="-171.9" y="38.2" class="st5" width="26.8" height="8.4"/>
		<path class="st14" d="M-171,46.1v-7.9h5.3v0.9h-4.3v2.4h3.7v0.9h-3.7v3.6H-171z"/>
		<path class="st14" d="M-162.7,46.1v-7.9h3c0.5,0,0.9,0,1.2,0.1c0.4,0.1,0.7,0.2,1,0.4c0.3,0.2,0.5,0.4,0.6,0.8s0.2,0.7,0.2,1.1
			c0,0.7-0.2,1.2-0.6,1.7c-0.4,0.5-1.2,0.7-2.3,0.7h-2v3.2H-162.7z M-161.6,42h2c0.7,0,1.2-0.1,1.4-0.4s0.4-0.6,0.4-1.1
			c0-0.3-0.1-0.6-0.3-0.8c-0.2-0.2-0.4-0.4-0.7-0.5c-0.2,0-0.5-0.1-1-0.1h-2V42z"/>
		<path class="st14" d="M-153.7,46.1v-7.9h1.6l1.9,5.6c0.2,0.5,0.3,0.9,0.4,1.2c0.1-0.3,0.2-0.7,0.4-1.3l1.9-5.5h1.4v7.9h-1v-6.6
			l-2.3,6.6h-0.9l-2.3-6.7v6.7H-153.7z"/>
	</g>
</g>
<g id="ALERT_Flag" class="st0">
	<g class="st2">
		<rect x="-226.7" y="38.2" class="st5" width="43.8" height="8.4"/>
		<path class="st14" d="M-226.7,46.1l3-7.9h1.1l3.2,7.9h-1.2l-0.9-2.4h-3.3l-0.9,2.4H-226.7z M-224.4,42.9h2.7l-0.8-2.2
			c-0.3-0.7-0.4-1.2-0.6-1.6c-0.1,0.5-0.2,1-0.4,1.5L-224.4,42.9z"/>
		<path class="st14" d="M-216.8,46.1v-7.9h1v6.9h3.9v0.9H-216.8z"/>
		<path class="st14" d="M-209,46.1v-7.9h5.7v0.9h-4.7v2.4h4.4v0.9h-4.4v2.7h4.8v0.9H-209z"/>
		<path class="st14" d="M-200,46.1v-7.9h3.5c0.7,0,1.2,0.1,1.6,0.2c0.4,0.1,0.7,0.4,0.9,0.7s0.3,0.8,0.3,1.2c0,0.6-0.2,1-0.5,1.4
			s-0.9,0.6-1.7,0.7c0.3,0.1,0.5,0.3,0.6,0.4c0.3,0.3,0.6,0.6,0.9,1l1.4,2.1h-1.3l-1-1.6c-0.3-0.5-0.6-0.8-0.8-1.1
			c-0.2-0.3-0.4-0.4-0.5-0.5c-0.2-0.1-0.3-0.2-0.5-0.2c-0.1,0-0.3,0-0.6,0h-1.2v3.5H-200z M-199,41.7h2.2c0.5,0,0.8,0,1.1-0.1
			c0.3-0.1,0.5-0.3,0.6-0.5c0.1-0.2,0.2-0.5,0.2-0.7c0-0.4-0.1-0.7-0.4-0.9s-0.7-0.4-1.3-0.4h-2.5V41.7z"/>
		<path class="st14" d="M-188.6,46.1v-6.9h-2.6v-0.9h6.2v0.9h-2.6v6.9H-188.6z"/>
	</g>
</g>
<g id="HPA_Flag" class="st0">
	<g class="st2">
		<rect x="-210.9" y="51.8" class="st5" width="25.8" height="8.4"/>
		<path class="st14" d="M-210,59.7v-7.9h1v3.2h4.1v-3.2h1v7.9h-1V56h-4.1v3.7H-210z"/>
		<path class="st14" d="M-200.5,59.7v-7.9h3c0.5,0,0.9,0,1.2,0.1c0.4,0.1,0.7,0.2,1,0.4c0.3,0.2,0.5,0.4,0.6,0.8s0.2,0.7,0.2,1.1
			c0,0.7-0.2,1.2-0.6,1.7c-0.4,0.5-1.2,0.7-2.3,0.7h-2v3.2H-200.5z M-199.4,55.6h2c0.7,0,1.2-0.1,1.4-0.4s0.4-0.6,0.4-1.1
			c0-0.3-0.1-0.6-0.3-0.8c-0.2-0.2-0.4-0.4-0.7-0.5c-0.2,0-0.5-0.1-1-0.1h-2V55.6z"/>
		<path class="st14" d="M-193.2,59.7l3-7.9h1.1l3.2,7.9h-1.2l-0.9-2.4h-3.3l-0.9,2.4H-193.2z M-190.9,56.5h2.7l-0.8-2.2
			c-0.3-0.7-0.4-1.2-0.6-1.6c-0.1,0.5-0.2,1-0.4,1.5L-190.9,56.5z"/>
	</g>
</g>
<g id="IN_HG_Flag" class="st0">
	<g class="st2">
		<rect x="-158.5" y="51.8" class="st5" width="15.8" height="8.4"/>
		<path class="st14" d="M-157.5,59.7v-7.9h1v7.9H-157.5z"/>
		<path class="st14" d="M-153,59.7v-7.9h1.1l4.1,6.2v-6.2h1v7.9h-1.1l-4.1-6.2v6.2H-153z"/>
	</g>
	<g class="st2">
		<rect x="-139.4" y="51.8" class="st5" width="19.7" height="8.4"/>
		<path class="st14" d="M-138.5,59.7v-7.9h1v3.2h4.1v-3.2h1v7.9h-1V56h-4.1v3.7H-138.5z"/>
		<path class="st14" d="M-125.3,56.6v-0.9l3.3,0v2.9c-0.5,0.4-1,0.7-1.6,0.9c-0.5,0.2-1.1,0.3-1.7,0.3c-0.8,0-1.5-0.2-2.1-0.5
			c-0.6-0.3-1.1-0.8-1.4-1.4s-0.5-1.3-0.5-2.1c0-0.8,0.2-1.5,0.5-2.1c0.3-0.7,0.8-1.2,1.4-1.5s1.3-0.5,2.1-0.5
			c0.6,0,1.1,0.1,1.5,0.3c0.5,0.2,0.8,0.4,1.1,0.8s0.5,0.8,0.6,1.3l-0.9,0.3c-0.1-0.4-0.3-0.7-0.4-0.9s-0.4-0.4-0.8-0.6
			c-0.3-0.1-0.7-0.2-1.1-0.2c-0.5,0-0.9,0.1-1.2,0.2c-0.3,0.1-0.6,0.3-0.8,0.6s-0.4,0.5-0.5,0.8c-0.2,0.5-0.3,1-0.3,1.6
			c0,0.7,0.1,1.3,0.4,1.8c0.2,0.5,0.6,0.8,1.1,1.1c0.5,0.2,1,0.3,1.5,0.3c0.5,0,0.9-0.1,1.3-0.3c0.4-0.2,0.8-0.4,1-0.6v-1.5H-125.3z
			"/>
	</g>
</g>
<g id="FT_Flag" class="st0">
	<g class="st2">
		<rect x="-139.4" y="38.2" class="st5" width="15.8" height="8.4"/>
		<path class="st14" d="M-138.5,46.1v-7.9h5.3v0.9h-4.3v2.4h3.7v0.9h-3.7v3.6H-138.5z"/>
		<path class="st14" d="M-128.2,46.1v-6.9h-2.6v-0.9h6.2v0.9h-2.6v6.9H-128.2z"/>
	</g>
</g>
<g id="AP_Flag" class="st0">
	<g class="st2">
		<rect x="-363.2" y="9.2" class="st5" width="16.8" height="8.4"/>
		<path class="st14" d="M-363.2,17.1l3-7.9h1.1l3.2,7.9h-1.2l-0.9-2.4h-3.3l-0.9,2.4H-363.2z M-360.9,13.9h2.7l-0.8-2.2
			c-0.3-0.7-0.4-1.2-0.6-1.6c-0.1,0.5-0.2,1-0.4,1.5L-360.9,13.9z"/>
		<path class="st14" d="M-353.3,17.1V9.3h3c0.5,0,0.9,0,1.2,0.1c0.4,0.1,0.7,0.2,1,0.4c0.3,0.2,0.5,0.4,0.6,0.8s0.2,0.7,0.2,1.1
			c0,0.7-0.2,1.2-0.6,1.7c-0.4,0.5-1.2,0.7-2.3,0.7h-2v3.2H-353.3z M-352.3,13h2c0.7,0,1.2-0.1,1.4-0.4s0.4-0.6,0.4-1.1
			c0-0.3-0.1-0.6-0.3-0.8c-0.2-0.2-0.4-0.4-0.7-0.5c-0.2,0-0.5-0.1-1-0.1h-2V13z"/>
	</g>
	<polygon class="st16" points="-346.6,7 -363.6,7 -365.1,5.5 -345.3,5.5 	"/>
	<polygon class="st16" points="-346.3,20.1 -363.3,20.1 -364.8,21.6 -345,21.6 	"/>
	<polygon class="st16" points="-345.6,7.5 -345.6,19.4 -344.1,20.4 -344.1,6.5 	"/>
	<polygon class="st16" points="-364.5,7.5 -364.5,19.4 -366,20.4 -366,6.5 	"/>
</g>
</svg>
