<?xml version="1.0" encoding="utf-8"?>
<!-- Generator: Adobe Illustrator 19.0.0, SVG Export Plug-In . SVG Version: 6.00 Build 0)  -->
<svg version="1.1" xmlns="http://www.w3.org/2000/svg" xmlns:xlink="http://www.w3.org/1999/xlink" x="0px" y="0px"
	 viewBox="0 0 594.7 156" style="enable-background:new 0 0 594.7 156;" xml:space="preserve">
<style type="text/css">
	.st0{fill:#282828;stroke:#E5E5E5;stroke-width:2;stroke-miterlimit:10;}
	.st1{fill:#58595B;}
	.st2{fill:none;stroke:#414042;stroke-width:2;stroke-miterlimit:10;}
	.st3{fill:none;}
	.st4{fill:#414042;}
	.st5{fill:none;stroke:#FFFFFF;stroke-miterlimit:10;}
	.st6{fill:#FFFFFF;}
	.st7{fill:#3F403F;stroke:#000000;stroke-miterlimit:10;}
	.st8{fill:none;stroke:#000000;stroke-width:1.5;stroke-miterlimit:10;stroke-dasharray:1.5093,1.5093;}
	.st9{fill:#3F403F;stroke:#000000;stroke-width:2;stroke-miterlimit:10;}
	.st10{fill:none;stroke:#000000;stroke-width:1.5;stroke-miterlimit:10;stroke-dasharray:1.5898,1.5898;}
	.st11{fill:#FFFFFF;stroke:#FFFFFF;stroke-miterlimit:10;}
	.st12{fill:#F7941E;}
	.st13{fill:#ED1C24;}
</style>
<g id="Layer_1">
	<path id="XMLID_814_" class="st0" d="M590.7,155H4c-1.7,0-3-0.9-3-2V3c0-1.1,1.3-2,3-2h586.7c1.7,0,3,0.9,3,2v150
		C593.7,154.1,592.3,155,590.7,155z"/>
</g>
<g id="Base">
	<path d="M419.9,76.8c0,4.3-2.1,7.8-4.7,7.8H93.7c-2.6,0-4.7-3.5-4.7-7.8V24.4c0-4.3,2.1-7.8,4.7-7.8h321.5c2.6,0,4.7,3.5,4.7,7.8
		V76.8z"/>
	<circle class="st1" cx="457.5" cy="35.6" r="5.7"/>
	<line class="st2" x1="451.7" y1="35.6" x2="463.2" y2="35.6"/>
	<g>
		<rect x="42.9" y="96.8" class="st3" width="12.6" height="13.5"/>
		<path class="st4" d="M43.8,105.4v-8.6h3.7c0.9,0,1.6,0.1,2,0.2s0.7,0.4,1,0.8s0.4,0.8,0.4,1.4c0,0.6-0.2,1.2-0.6,1.6
			s-0.9,0.7-1.7,0.8c0.4,0.2,0.7,0.5,0.9,0.7s0.6,0.7,1,1.4l1,1.7h-2.1l-1.3-1.9c-0.4-0.7-0.8-1.1-0.9-1.3s-0.3-0.3-0.5-0.4
			s-0.5-0.1-0.9-0.1h-0.4v3.6H43.8z M45.5,100.4h1.3c0.8,0,1.4,0,1.6-0.1s0.4-0.2,0.5-0.4s0.2-0.4,0.2-0.6c0-0.3-0.1-0.5-0.2-0.7
			s-0.4-0.3-0.7-0.3c-0.1,0-0.6,0-1.3,0h-1.4V100.4z"/>
	</g>
	<g>
		<rect x="24" y="96.8" class="st3" width="10" height="13.5"/>
		<path class="st4" d="M24.9,105.4v-8.6h2.8c1.1,0,1.7,0,2.1,0.1c0.5,0.1,0.9,0.4,1.2,0.8s0.5,1,0.5,1.7c0,0.5-0.1,1-0.3,1.3
			s-0.4,0.6-0.7,0.8s-0.6,0.3-0.9,0.4c-0.4,0.1-1,0.1-1.8,0.1h-1.1v3.2H24.9z M26.6,98.3v2.4h0.9c0.7,0,1.1,0,1.4-0.1
			s0.4-0.2,0.5-0.4s0.2-0.4,0.2-0.7c0-0.3-0.1-0.6-0.3-0.8s-0.4-0.3-0.7-0.4c-0.2,0-0.6-0.1-1.2-0.1H26.6z"/>
	</g>
	<path class="st5" d="M478.4,133.7c0,2.8-1.9,5.1-4.3,5.1h-34.4c-2.4,0-4.3-2.3-4.3-5.1V62.8c0-2.8,1.9-5.1,4.3-5.1h34.4
		c2.4,0,4.3,2.3,4.3,5.1V133.7z"/>
</g>
<g id="Labels">
	<g>
		<rect x="22.1" y="22.8" class="st3" width="41.6" height="9.1"/>
		<path class="st6" d="M22.8,30.2v-7.4h1v3.7l3.7-3.7h1.3l-3.1,3l3.3,4.4h-1.3l-2.6-3.8l-1.2,1.2v2.6H22.8z"/>
		<path class="st6" d="M29,30.2l2.9-7.4h1.1l3,7.4h-1.1L34,28h-3.1L30,30.2H29z M31.1,27.2h2.5l-0.8-2.1c-0.2-0.6-0.4-1.1-0.5-1.5
			c-0.1,0.5-0.2,1-0.4,1.4L31.1,27.2z"/>
		<path class="st6" d="M36.8,30.2v-7.4h2.8c0.5,0,0.9,0,1.1,0.1c0.4,0.1,0.7,0.2,0.9,0.3s0.4,0.4,0.6,0.7s0.2,0.6,0.2,1
			c0,0.6-0.2,1.2-0.6,1.6c-0.4,0.4-1.1,0.7-2.2,0.7h-1.9v3H36.8z M37.7,26.3h1.9c0.6,0,1.1-0.1,1.4-0.4c0.3-0.2,0.4-0.6,0.4-1
			c0-0.3-0.1-0.6-0.2-0.8s-0.4-0.4-0.6-0.4c-0.2,0-0.5-0.1-0.9-0.1h-1.9V26.3z"/>
		<path class="st6" d="M49.5,30.2h-0.9v-5.8c-0.2,0.2-0.5,0.4-0.9,0.6s-0.7,0.4-1,0.5v-0.9c0.5-0.2,1-0.5,1.3-0.9
			c0.4-0.3,0.7-0.7,0.8-1h0.6V30.2z"/>
		<path class="st6" d="M54.7,30.2v-1.8h-3.2v-0.8l3.4-4.8h0.7v4.8h1v0.8h-1v1.8H54.7z M54.7,27.6v-3.4l-2.3,3.4H54.7z"/>
		<path class="st6" d="M57.6,26.5c0-0.9,0.1-1.6,0.3-2.1c0.2-0.5,0.4-0.9,0.8-1.2s0.8-0.4,1.3-0.4c0.4,0,0.7,0.1,1.1,0.2
			c0.3,0.2,0.5,0.4,0.7,0.7c0.2,0.3,0.4,0.7,0.5,1.1c0.1,0.4,0.2,1,0.2,1.8c0,0.9-0.1,1.6-0.3,2.1c-0.2,0.5-0.4,1-0.8,1.2
			c-0.4,0.3-0.8,0.4-1.4,0.4c-0.7,0-1.3-0.3-1.7-0.8C57.8,28.9,57.6,27.9,57.6,26.5z M58.5,26.5c0,1.2,0.1,2,0.4,2.4
			c0.3,0.4,0.6,0.6,1.1,0.6s0.8-0.2,1.1-0.6c0.3-0.4,0.4-1.2,0.4-2.4c0-1.2-0.1-2-0.4-2.4c-0.3-0.4-0.6-0.6-1.1-0.6
			c-0.4,0-0.8,0.2-1,0.5C58.7,24.5,58.5,25.3,58.5,26.5z"/>
	</g>
	<g>
		<rect x="10" y="10.9" class="st3" width="59.6" height="7.2"/>
		<path class="st6" d="M10.3,17.2l1.3-6.3h2.2c0.5,0,0.8,0,1,0c0.3,0,0.6,0.1,0.8,0.3c0.2,0.1,0.4,0.3,0.5,0.5
			c0.1,0.2,0.2,0.5,0.2,0.7c0,0.3-0.1,0.7-0.3,0.9c-0.2,0.3-0.5,0.5-0.9,0.6c0.3,0.1,0.6,0.2,0.8,0.5s0.3,0.5,0.3,0.8
			c0,0.4-0.1,0.7-0.3,1.1c-0.2,0.3-0.5,0.6-0.9,0.7s-0.9,0.2-1.5,0.2H10.3z M11.8,16.2h1.2c0.5,0,0.9,0,1.1-0.1
			c0.2-0.1,0.3-0.2,0.4-0.3c0.1-0.2,0.2-0.3,0.2-0.5c0-0.2-0.1-0.4-0.2-0.5c-0.2-0.1-0.4-0.2-0.8-0.2h-1.5L11.8,16.2z M12.4,13.4h1
			c0.4,0,0.8,0,1-0.1c0.2-0.1,0.3-0.2,0.4-0.3c0.1-0.1,0.1-0.3,0.1-0.5c0-0.2,0-0.3-0.1-0.4S14.6,12,14.4,12c-0.1,0-0.3,0-0.7,0h-1
			L12.4,13.4z"/>
		<path class="st6" d="M16.7,17.2l1.3-6.3h4.7l-0.2,1.1h-3.4l-0.3,1.4H22l-0.2,1.1h-3.3l-0.4,1.7h3.7l-0.2,1.1H16.7z"/>
		<path class="st6" d="M27.6,17.2h-1.2l-1.7-4.2l-0.9,4.2h-1.2l1.3-6.3h1.2l1.7,4.2l0.9-4.2h1.2L27.6,17.2z"/>
		<path class="st6" d="M28.9,17.2l1.3-6.3h1.7c0.5,0,0.8,0,0.9,0c0.3,0,0.5,0.1,0.7,0.2c0.2,0.1,0.4,0.2,0.6,0.3s0.3,0.3,0.4,0.5
			s0.2,0.4,0.3,0.7c0.1,0.3,0.1,0.6,0.1,0.9c0,0.7-0.1,1.3-0.4,1.8c-0.3,0.5-0.6,0.9-1,1.3c-0.3,0.2-0.7,0.4-1.2,0.5
			c-0.3,0.1-0.7,0.1-1.2,0.1H28.9z M30.4,16.2h0.7c0.5,0,0.8,0,1-0.1c0.2-0.1,0.4-0.2,0.6-0.3c0.3-0.2,0.5-0.5,0.6-0.9
			c0.2-0.4,0.3-0.8,0.3-1.4c0-0.4-0.1-0.8-0.2-1s-0.3-0.4-0.5-0.4c-0.1-0.1-0.4-0.1-0.8-0.1h-0.8L30.4,16.2z"/>
		<path class="st6" d="M35.2,17.2l1.3-6.3h1.3l-1.3,6.3H35.2z"/>
		<path class="st6" d="M38.7,17.2h-1.7l2.8-3.2l-1.6-3.1h1.4l0.6,1.2c0,0,0.2,0.3,0.4,0.9c0,0,0,0.1,0.1,0.1c0.3-0.4,0.6-0.8,0.9-1
			l1-1.1h1.6l-2.9,3.3l1.5,3h-1.5L41,16.2c-0.2-0.5-0.4-0.9-0.5-1.1c-0.1,0.2-0.4,0.5-0.9,1L38.7,17.2z"/>
		<path class="st6" d="M42.8,17.3l3.1-6.5h0.9l-3.1,6.5H42.8z"/>
		<path class="st6" d="M46,17.2l1.3-6.3h1.3L48,13.6l2.9-2.7h1.7l-2.8,2.5l2.1,3.8h-1.5l-1.6-3l-1.2,1.1l-0.4,1.9H46z"/>
		<path class="st6" d="M52.3,17.2l1.3-6.3h1.3l-1.3,6.3H52.3z"/>
		<path class="st6" d="M59.8,17.2h-1.2l-1.7-4.2L56,17.2h-1.2l1.3-6.3h1.2l1.7,4.2l0.9-4.2h1.2L59.8,17.2z"/>
		<path class="st6" d="M64.6,13.8h2.8l-0.6,2.7c-0.3,0.2-0.7,0.4-1.2,0.5c-0.5,0.1-1,0.2-1.5,0.2c-0.8,0-1.4-0.2-1.8-0.5
			c-0.6-0.5-0.9-1.2-0.9-2.1c0-0.6,0.1-1.2,0.4-1.8c0.3-0.7,0.7-1.2,1.2-1.6s1.2-0.6,1.9-0.6s1.3,0.2,1.7,0.5s0.7,0.8,0.9,1.5
			l-1.2,0.1c-0.1-0.4-0.3-0.6-0.5-0.8c-0.2-0.2-0.5-0.3-0.9-0.3c-0.4,0-0.8,0.1-1.2,0.3s-0.6,0.6-0.8,1c-0.2,0.5-0.3,1-0.3,1.5
			c0,0.5,0.1,0.9,0.4,1.2c0.2,0.3,0.6,0.4,1.1,0.4c0.3,0,0.6,0,0.9-0.1c0.3-0.1,0.5-0.2,0.8-0.3l0.2-0.9h-1.6L64.6,13.8z"/>
	</g>
</g>
<g id="Outer_Knob_R">
	<path class="st7" d="M567.6,99.9c0,17-13.8,30.9-30.9,30.9c-17.1,0-30.9-13.8-30.9-30.9c0-17.1,13.8-30.9,30.9-30.9
		C553.8,69.1,567.6,82.9,567.6,99.9z"/>
	<g>
		<g>
			<path class="st8" d="M568.5,99.9c0,17.5-14.2,31.7-31.7,31.7c-17.5,0-31.7-14.2-31.7-31.7c0-17.5,14.2-31.7,31.7-31.7
				C554.3,68.2,568.5,82.4,568.5,99.9z"/>
		</g>
	</g>
</g>
<g id="Inner_Knob_R">
	<g>
		<circle class="st9" cx="536.7" cy="99.9" r="20.8"/>
		<g>
			<path class="st10" d="M558.5,99.9c0,12-9.7,21.8-21.8,21.8c-12,0-21.8-9.7-21.8-21.8c0-12,9.7-21.8,21.8-21.8
				C548.8,78.2,558.5,87.9,558.5,99.9z"/>
		</g>
	</g>
</g>
<g id="BARO_Button">
	<path class="st11" d="M569.5,32.6c0,1.1-0.9,2-2,2h-28.1c-1.1,0-2-0.9-2-2V17.8c0-1.1,0.9-2,2-2h28.1c1.1,0,2,0.9,2,2V32.6z"/>
	<g>
		<path d="M539.5,29.6v-7.9h2.8c0.6,0,1,0.1,1.3,0.2c0.3,0.2,0.6,0.4,0.8,0.7s0.3,0.7,0.3,1.1c0,0.4-0.1,0.7-0.3,1
			c-0.2,0.3-0.4,0.5-0.8,0.7c0.4,0.1,0.8,0.4,1,0.7c0.2,0.3,0.4,0.7,0.4,1.2c0,0.5-0.1,0.9-0.3,1.3s-0.5,0.6-0.9,0.8
			s-0.9,0.2-1.5,0.2H539.5z M540.5,25h1.6c0.4,0,0.7,0,0.9-0.1c0.3-0.1,0.5-0.2,0.6-0.4c0.1-0.2,0.2-0.4,0.2-0.7
			c0-0.3-0.1-0.5-0.2-0.7c-0.1-0.2-0.3-0.3-0.5-0.4c-0.2-0.1-0.6-0.1-1.1-0.1h-1.5V25z M540.5,28.7h1.9c0.4,0,0.7,0,0.9-0.1
			c0.3-0.1,0.5-0.2,0.6-0.5s0.2-0.5,0.2-0.8c0-0.3-0.1-0.5-0.2-0.8s-0.3-0.4-0.6-0.5s-0.6-0.1-1.1-0.1h-1.7V28.7z"/>
		<path d="M545.7,29.6l2.9-7.9h1.1l3,7.9h-1.1l-0.9-2.4h-3.1l-0.8,2.4H545.7z M547.8,26.4h2.5l-0.8-2.2c-0.2-0.7-0.4-1.2-0.5-1.6
			c-0.1,0.5-0.2,1-0.4,1.5L547.8,26.4z"/>
		<path d="M553.4,29.6v-7.9h3.3c0.7,0,1.2,0.1,1.5,0.2c0.3,0.1,0.6,0.4,0.8,0.7s0.3,0.7,0.3,1.2c0,0.6-0.2,1.1-0.5,1.4
			c-0.4,0.4-0.9,0.6-1.6,0.7c0.3,0.1,0.5,0.3,0.6,0.4c0.3,0.3,0.6,0.6,0.8,1l1.3,2.1h-1.2l-1-1.6c-0.4-0.6-0.7-1.1-0.9-1.3
			s-0.4-0.4-0.6-0.4s-0.4-0.1-0.8-0.1h-1.1v3.5H553.4z M554.4,25.2h2.1c0.5,0,0.8,0,1.1-0.1s0.4-0.2,0.6-0.5
			c0.1-0.2,0.2-0.5,0.2-0.7c0-0.4-0.1-0.7-0.4-0.9s-0.7-0.3-1.2-0.3h-2.4V25.2z"/>
		<path d="M560.6,25.7c0-1.3,0.3-2.4,1-3.1s1.5-1.1,2.5-1.1c0.7,0,1.3,0.2,1.8,0.5s1,0.8,1.3,1.4s0.5,1.3,0.5,2.2
			c0,1.2-0.3,2.1-0.9,2.9c-0.7,0.8-1.6,1.2-2.6,1.2c-1.1,0-2-0.4-2.7-1.2C560.9,27.7,560.6,26.8,560.6,25.7z M561.7,25.8
			c0,1,0.2,1.7,0.7,2.3c0.5,0.5,1.1,0.8,1.8,0.8c0.7,0,1.3-0.3,1.8-0.8c0.5-0.5,0.7-1.3,0.7-2.4c0-0.7-0.1-1.3-0.4-1.8
			c-0.2-0.4-0.5-0.7-0.9-1c-0.4-0.2-0.8-0.4-1.3-0.4c-0.7,0-1.4,0.3-1.8,0.8C561.9,23.8,561.7,24.6,561.7,25.8z"/>
	</g>
</g>
<g id="ARM_Button">
	<path class="st11" d="M510.5,32.6c0,1.1-0.9,2-2,2h-28.1c-1.1,0-2-0.9-2-2V17.8c0-1.1,0.9-2,2-2h28.1c1.1,0,2,0.9,2,2V32.6z"/>
	<g>
		<path d="M482.9,29.6l2.9-7.9h1.1l3,7.9h-1.1l-0.9-2.4h-3.1l-0.8,2.4H482.9z M485,26.4h2.5l-0.8-2.2c-0.2-0.7-0.4-1.2-0.5-1.6
			c-0.1,0.5-0.2,1-0.4,1.5L485,26.4z"/>
		<path d="M490.7,29.6v-7.9h3.3c0.7,0,1.2,0.1,1.5,0.2c0.3,0.1,0.6,0.4,0.8,0.7c0.2,0.3,0.3,0.7,0.3,1.2c0,0.6-0.2,1.1-0.5,1.4
			c-0.4,0.4-0.9,0.6-1.6,0.7c0.3,0.1,0.5,0.3,0.6,0.4c0.3,0.3,0.6,0.6,0.8,1l1.3,2.1H496l-1-1.6c-0.4-0.6-0.7-1.1-0.9-1.3
			c-0.2-0.2-0.4-0.4-0.6-0.4c-0.2-0.1-0.4-0.1-0.8-0.1h-1.1v3.5H490.7z M491.6,25.2h2.1c0.5,0,0.8,0,1.1-0.1
			c0.2-0.1,0.4-0.2,0.6-0.5c0.1-0.2,0.2-0.5,0.2-0.7c0-0.4-0.1-0.7-0.4-0.9c-0.3-0.2-0.7-0.3-1.2-0.3h-2.4V25.2z"/>
		<path d="M498.1,29.6v-7.9h1.5l1.8,5.6l0.4,1.2c0.1-0.3,0.2-0.7,0.4-1.3l1.8-5.5h1.3v7.9h-0.9V23l-2.2,6.6h-0.9l-2.2-6.7v6.7H498.1
			z"/>
	</g>
</g>
<g id="DN_Button">
	<path class="st11" d="M473.5,129.6c0,1.1-0.9,2-2,2h-28.1c-1.1,0-2-0.9-2-2v-14.8c0-1.1,0.9-2,2-2h28.1c1.1,0,2,0.9,2,2V129.6z"/>
	<g>
		<path d="M450.7,126.6v-7.9h2.6c0.6,0,1.1,0,1.4,0.1c0.4,0.1,0.8,0.4,1.1,0.7c0.3,0.3,0.6,0.8,0.7,1.3s0.3,1.1,0.3,1.8
			c0,0.9-0.2,1.6-0.5,2.3c-0.3,0.6-0.7,1.1-1.2,1.3s-1.1,0.4-1.9,0.4H450.7z M451.7,125.7h1.6c0.6,0,1.1-0.1,1.5-0.3
			c0.3-0.2,0.6-0.5,0.8-0.9c0.2-0.5,0.4-1.2,0.4-1.9c0-0.8-0.1-1.4-0.4-1.9c-0.3-0.5-0.6-0.8-1-0.9c-0.3-0.1-0.7-0.2-1.3-0.2h-1.6
			V125.7z"/>
		<path d="M458.2,126.6v-7.9h1l3.9,6.2v-6.2h0.9v7.9h-1l-3.9-6.2v6.2H458.2z"/>
	</g>
</g>
<g id="UP_Button">
	<path class="st11" d="M473.5,81.7c0,1.1-0.9,2-2,2h-28.1c-1.1,0-2-0.9-2-2V66.9c0-1.1,0.9-2,2-2h28.1c1.1,0,2,0.9,2,2V81.7z"/>
	<g>
		<path d="M456,70.8h1v4.5c0,0.8-0.1,1.4-0.3,1.9c-0.2,0.5-0.5,0.9-0.9,1.2s-1,0.4-1.7,0.4c-1,0-1.7-0.3-2.2-0.8
			c-0.5-0.5-0.7-1.4-0.7-2.7v-4.5h1v4.5c0,0.7,0.1,1.2,0.2,1.5c0.1,0.3,0.3,0.6,0.6,0.7c0.3,0.2,0.6,0.3,1.1,0.3
			c0.7,0,1.2-0.2,1.5-0.5s0.5-1,0.5-2V70.8z"/>
		<path d="M458.6,78.7v-7.9h2.8c0.7,0,1.1,0,1.5,0.2c0.4,0.1,0.8,0.4,1,0.8c0.3,0.4,0.4,0.8,0.4,1.4c0,0.7-0.2,1.3-0.6,1.7
			c-0.4,0.4-1.1,0.7-2.2,0.7h-1.9v3.2H458.6z M459.6,74.6h1.9c0.6,0,1.1-0.1,1.3-0.4c0.3-0.2,0.4-0.6,0.4-1.1c0-0.3-0.1-0.6-0.2-0.8
			c-0.1-0.2-0.3-0.4-0.5-0.5c-0.2-0.1-0.6-0.1-1.1-0.1h-1.9V74.6z"/>
	</g>
</g>
<g id="ALT_Button">
	<path class="st11" d="M421.5,133.7c0,1.1-0.9,2-2,2h-28.1c-1.1,0-2-0.9-2-2v-14.8c0-1.1,0.9-2,2-2h28.1c1.1,0,2,0.9,2,2V133.7z"/>
	<g>
		<path d="M396.4,130.7l2.9-7.9h1.1l3,7.9h-1.1l-0.9-2.4h-3.1l-0.8,2.4H396.4z M398.5,127.5h2.5l-0.8-2.2c-0.2-0.7-0.4-1.2-0.5-1.6
			c-0.1,0.5-0.2,1-0.4,1.5L398.5,127.5z"/>
		<path d="M404.1,130.7v-7.9h1v6.9h3.7v0.9H404.1z"/>
		<path d="M411.1,130.7v-6.9h-2.5v-0.9h5.9v0.9h-2.5v6.9H411.1z"/>
	</g>
</g>
<g id="REV_Button">
	<path class="st11" d="M361.5,133.7c0,1.1-0.9,2-2,2h-28.1c-1.1,0-2-0.9-2-2v-14.8c0-1.1,0.9-2,2-2h28.1c1.1,0,2,0.9,2,2V133.7z"/>
	<g>
		<path d="M335.6,130.7v-7.9h3.3c0.7,0,1.2,0.1,1.5,0.2c0.3,0.1,0.6,0.4,0.8,0.7c0.2,0.3,0.3,0.7,0.3,1.2c0,0.6-0.2,1.1-0.5,1.4
			c-0.4,0.4-0.9,0.6-1.6,0.7c0.3,0.1,0.5,0.3,0.6,0.4c0.3,0.3,0.6,0.6,0.8,1l1.3,2.1h-1.2l-1-1.6c-0.4-0.6-0.7-1.1-0.9-1.3
			c-0.2-0.2-0.4-0.4-0.6-0.4s-0.4-0.1-0.8-0.1h-1.1v3.5H335.6z M336.6,126.3h2.1c0.5,0,0.8,0,1.1-0.1c0.2-0.1,0.4-0.2,0.6-0.5
			c0.1-0.2,0.2-0.5,0.2-0.7c0-0.4-0.1-0.7-0.4-0.9c-0.3-0.2-0.7-0.3-1.2-0.3h-2.4V126.3z"/>
		<path d="M343.1,130.7v-7.9h5.4v0.9h-4.4v2.4h4.1v0.9h-4.1v2.7h4.6v0.9H343.1z"/>
		<path d="M352.2,130.7l-2.9-7.9h1.1l1.9,5.7c0.1,0.4,0.3,0.9,0.4,1.3c0.1-0.4,0.2-0.9,0.4-1.3l2-5.7h1l-2.9,7.9H352.2z"/>
	</g>
</g>
<g id="APR_Button">
	<path class="st11" d="M294.5,133.7c0,1.1-0.9,2-2,2h-28.1c-1.1,0-2-0.9-2-2v-14.8c0-1.1,0.9-2,2-2h28.1c1.1,0,2,0.9,2,2V133.7z"/>
	<g>
		<path d="M267.8,130.7l2.9-7.9h1.1l3,7.9h-1.1l-0.9-2.4h-3.1l-0.8,2.4H267.8z M269.9,127.5h2.5l-0.8-2.2c-0.2-0.7-0.4-1.2-0.5-1.6
			c-0.1,0.5-0.2,1-0.4,1.5L269.9,127.5z"/>
		<path d="M275.5,130.7v-7.9h2.8c0.7,0,1.1,0,1.5,0.2c0.4,0.1,0.8,0.4,1,0.8c0.3,0.4,0.4,0.8,0.4,1.4c0,0.7-0.2,1.3-0.6,1.7
			c-0.4,0.4-1.1,0.7-2.2,0.7h-1.9v3.2H275.5z M276.5,126.6h1.9c0.6,0,1.1-0.1,1.3-0.4s0.4-0.6,0.4-1.1c0-0.3-0.1-0.6-0.2-0.8
			c-0.1-0.2-0.3-0.4-0.5-0.5c-0.2-0.1-0.6-0.1-1.1-0.1h-1.9V126.6z"/>
		<path d="M282.5,130.7v-7.9h3.3c0.7,0,1.2,0.1,1.5,0.2c0.3,0.1,0.6,0.4,0.8,0.7s0.3,0.7,0.3,1.2c0,0.6-0.2,1.1-0.5,1.4
			c-0.4,0.4-0.9,0.6-1.6,0.7c0.3,0.1,0.5,0.3,0.6,0.4c0.3,0.3,0.6,0.6,0.8,1l1.3,2.1h-1.2l-1-1.6c-0.4-0.6-0.7-1.1-0.9-1.3
			s-0.4-0.4-0.6-0.4c-0.2-0.1-0.4-0.1-0.8-0.1h-1.1v3.5H282.5z M283.4,126.3h2.1c0.5,0,0.8,0,1.1-0.1c0.2-0.1,0.4-0.2,0.6-0.5
			c0.1-0.2,0.2-0.5,0.2-0.7c0-0.4-0.1-0.7-0.4-0.9s-0.7-0.3-1.2-0.3h-2.4V126.3z"/>
	</g>
</g>
<g id="Nav_Button">
	<path class="st11" d="M225.5,133.7c0,1.1-0.9,2-2,2h-28.1c-1.1,0-2-0.9-2-2v-14.8c0-1.1,0.9-2,2-2h28.1c1.1,0,2,0.9,2,2V133.7z"/>
	<g>
		<path d="M199.9,130.7v-7.9h1l3.9,6.2v-6.2h0.9v7.9h-1l-3.9-6.2v6.2H199.9z"/>
		<path d="M206.7,130.7l2.9-7.9h1.1l3,7.9h-1.1l-0.9-2.4h-3.1l-0.8,2.4H206.7z M208.8,127.5h2.5l-0.8-2.2c-0.2-0.7-0.4-1.2-0.5-1.6
			c-0.1,0.5-0.2,1-0.4,1.5L208.8,127.5z"/>
		<path d="M215.8,130.7l-2.9-7.9h1.1l1.9,5.7c0.1,0.4,0.3,0.9,0.4,1.3c0.1-0.4,0.2-0.9,0.4-1.3l2-5.7h1l-2.9,7.9H215.8z"/>
	</g>
</g>
<g id="HGD_Button">
	<path class="st11" d="M157.3,133.7c0,1.1-0.9,2-2,2h-28.1c-1.1,0-2-0.9-2-2v-14.8c0-1.1,0.9-2,2-2h28.1c1.1,0,2,0.9,2,2V133.7z"/>
	<g>
		<path d="M130.5,130.7v-7.9h1v3.2h3.9v-3.2h1v7.9h-1V127h-3.9v3.7H130.5z"/>
		<path d="M138,130.7v-7.9h2.6c0.6,0,1.1,0,1.4,0.1c0.4,0.1,0.8,0.4,1.1,0.7c0.3,0.3,0.6,0.8,0.7,1.3c0.2,0.5,0.3,1.1,0.3,1.8
			c0,0.9-0.2,1.6-0.5,2.3c-0.3,0.6-0.7,1.1-1.2,1.3c-0.5,0.3-1.1,0.4-1.9,0.4H138z M139,129.8h1.6c0.6,0,1.1-0.1,1.5-0.3
			c0.3-0.2,0.6-0.5,0.8-0.9c0.2-0.5,0.4-1.2,0.4-1.9c0-0.8-0.1-1.4-0.4-1.9c-0.3-0.5-0.6-0.8-1-0.9c-0.3-0.1-0.7-0.2-1.3-0.2H139
			V129.8z"/>
		<path d="M149,127.6v-0.9l3.2,0v2.9c-0.5,0.4-1,0.7-1.5,0.9s-1,0.3-1.6,0.3c-0.7,0-1.4-0.2-1.9-0.5s-1-0.8-1.4-1.4
			s-0.5-1.3-0.5-2.2c0-0.9,0.2-1.6,0.5-2.2s0.8-1.1,1.3-1.4c0.5-0.3,1.2-0.5,1.9-0.5c0.5,0,1,0.1,1.4,0.3c0.4,0.2,0.7,0.4,1,0.7
			s0.5,0.8,0.6,1.3l-0.9,0.3c-0.1-0.4-0.3-0.8-0.5-1c-0.2-0.2-0.4-0.4-0.7-0.5c-0.3-0.1-0.6-0.2-1-0.2c-0.5,0-1,0.1-1.4,0.3
			c-0.4,0.2-0.7,0.6-0.9,1.1c-0.2,0.5-0.4,1.1-0.4,1.8c0,1.1,0.3,1.8,0.8,2.4c0.5,0.5,1.2,0.8,2,0.8c0.4,0,0.8-0.1,1.2-0.2
			c0.4-0.2,0.7-0.4,1-0.6v-1.5H149z"/>
	</g>
</g>
<g id="AP_Button">
	<path class="st11" d="M53.4,134.7c0,1.1-0.9,2-2,2H23.3c-1.1,0-2-0.9-2-2v-14.8c0-1.1,0.9-2,2-2h28.1c1.1,0,2,0.9,2,2V134.7z"/>
	<g>
		<path d="M29.8,131.7l2.9-7.9h1.1l3,7.9h-1.1l-0.9-2.4h-3.1l-0.8,2.4H29.8z M31.9,128.5h2.5l-0.8-2.2c-0.2-0.7-0.4-1.2-0.5-1.6
			c-0.1,0.5-0.2,1-0.4,1.5L31.9,128.5z"/>
		<path d="M37.5,131.7v-7.9h2.8c0.7,0,1.1,0,1.5,0.2c0.4,0.1,0.8,0.4,1,0.8c0.3,0.4,0.4,0.8,0.4,1.4c0,0.7-0.2,1.3-0.6,1.7
			c-0.4,0.4-1.1,0.7-2.2,0.7h-1.9v3.2H37.5z M38.5,127.6h1.9c0.6,0,1.1-0.1,1.3-0.4s0.4-0.6,0.4-1.1c0-0.3-0.1-0.6-0.2-0.8
			c-0.1-0.2-0.3-0.4-0.5-0.5c-0.2-0.1-0.6-0.1-1.1-0.1h-1.9V127.6z"/>
	</g>
</g>
<g id="Text">
	<g>
		<rect x="91" y="20.3" class="st3" width="65" height="25.3"/>
		<path class="st12" d="M96.5,32.2l-1.1,9.2l-1,0.8l-0.8-1l1.1-9.2l1-0.8L96.5,32.2z M104.8,42.7l0.8,1l-1,0.8l-9.1-1.1l-0.8-1
			l1-0.8L104.8,42.7z M97.9,20.8L96.8,30l-1,0.8l-0.8-1l1.1-9.2l1-0.8L97.9,20.8z M101.2,32.2l0.3,1.4l-3.9,7.1l-1.2,0.5l-0.3-1.5
			l3.9-7L101.2,32.2z M107.5,20l0.8,1l-1,0.8l-9.1-1.1l-0.8-1l1-0.8L107.5,20z M106.5,22.3l0.3,1.4l-3.9,7.1l-1.2,0.5l-0.3-1.5
			l3.9-7L106.5,22.3z M107.9,33.5l-1.1,9.2l-1,0.8l-0.8-1l1.1-9.2l1-0.8L107.9,33.5z M109.2,22.2l-1.1,9.2l-1,0.8l-0.8-1l1.1-9.2
			l1-0.8L109.2,22.2z"/>
		<path class="st12" d="M118.1,32.2l-1.1,9.2l-1,0.8l-0.8-1l1.1-9.2l1-0.8L118.1,32.2z M126.4,42.7l0.8,1l-1,0.8l-9.1-1.1l-0.8-1
			l1-0.8L126.4,42.7z M119.5,20.8l-1.1,9.2l-1,0.8l-0.8-1l1.1-9.2l1-0.8L119.5,20.8z M122.9,32.2l0.3,1.4l-3.9,7.1l-1.2,0.5
			l-0.3-1.5l3.9-7L122.9,32.2z M129.1,20l0.8,1l-1,0.8l-9.1-1.1l-0.8-1l1-0.8L129.1,20z M128.1,22.3l0.3,1.4l-3.9,7.1l-1.2,0.5
			l-0.3-1.5l3.9-7L128.1,22.3z M129.5,33.5l-1.1,9.2l-1,0.8l-0.8-1l1.1-9.2l1-0.8L129.5,33.5z M130.9,22.2l-1.1,9.2l-1,0.8l-0.8-1
			l1.1-9.2l1-0.8L130.9,22.2z"/>
		<path class="st12" d="M139.7,32.2l-1.1,9.2l-1,0.8l-0.8-1l1.1-9.2l1-0.8L139.7,32.2z M148,42.7l0.8,1l-1,0.8l-9.1-1.1l-0.8-1
			l1-0.8L148,42.7z M141.1,20.8L140,30l-1,0.8l-0.8-1l1.1-9.2l1-0.8L141.1,20.8z M144.5,32.2l0.3,1.4l-3.9,7.1l-1.2,0.5l-0.3-1.5
			l3.9-7L144.5,32.2z M150.7,20l0.8,1l-1,0.8l-9.1-1.1l-0.8-1l1-0.8L150.7,20z M149.7,22.3l0.3,1.4l-3.9,7.1l-1.2,0.5l-0.3-1.5
			l3.9-7L149.7,22.3z M151.1,33.5l-1.1,9.2l-1,0.8l-0.8-1l1.1-9.2l1-0.8L151.1,33.5z M152.5,22.2l-1.1,9.2l-1,0.8l-0.8-1l1.1-9.2
			l1-0.8L152.5,22.2z"/>
	</g>
	<g>
		<rect x="89" y="54.3" class="st3" width="65" height="25.3"/>
		<path class="st12" d="M92.7,55.4v9.3l-0.9,0.9l-0.9-0.9v-9.3l0.9-0.9L92.7,55.4z M92.7,66.8v9.3L91.8,77l-0.9-0.9v-9.3l0.9-0.9
			L92.7,66.8z M102.1,53.4l0.9,0.9l-0.9,0.9h-9.2l-0.9-0.9l0.9-0.9H102.1z M102.1,76.2l0.9,0.9l-0.9,0.9h-9.2L92,77.1l0.9-0.9H102.1
			z M97.4,66.3l0.5,1.3l-3,7.5l-1.2,0.6l-0.5-1.4l3-7.4L97.4,66.3z M101.4,55.8l0.5,1.3l-3,7.5l-1.2,0.6l-0.5-1.4l3-7.4L101.4,55.8z
			 M104.1,55.4v9.3l-0.9,0.9l-0.9-0.9v-9.3l0.9-0.9L104.1,55.4z M104.1,66.8v9.3l-0.9,0.9l-0.9-0.9v-9.3l0.9-0.9L104.1,66.8z"/>
		<path class="st12" d="M115.5,55.4v9.3l-0.9,0.9l-0.9-0.9v-9.3l0.9-0.9L115.5,55.4z M115.5,66.8v9.3l-0.9,0.9l-0.9-0.9v-9.3
			l0.9-0.9L115.5,66.8z M125,53.4l0.9,0.9l-0.9,0.9h-9.2l-0.9-0.9l0.9-0.9H125z M125,76.2l0.9,0.9l-0.9,0.9h-9.2l-0.9-0.9l0.9-0.9
			H125z M120.3,66.3l0.5,1.3l-3,7.5l-1.2,0.6l-0.5-1.4l3-7.4L120.3,66.3z M124.3,55.8l0.5,1.3l-3,7.5l-1.2,0.6l-0.5-1.4l3-7.4
			L124.3,55.8z M127,55.4v9.3l-0.9,0.9l-0.9-0.9v-9.3l0.9-0.9L127,55.4z M127,66.8v9.3l-0.9,0.9l-0.9-0.9v-9.3l0.9-0.9L127,66.8z"/>
		<path class="st12" d="M138.4,55.4v9.3l-0.9,0.9l-0.9-0.9v-9.3l0.9-0.9L138.4,55.4z M138.4,66.8v9.3l-0.9,0.9l-0.9-0.9v-9.3
			l0.9-0.9L138.4,66.8z M147.8,53.4l0.9,0.9l-0.9,0.9h-9.2l-0.9-0.9l0.9-0.9H147.8z M147.9,76.2l0.9,0.9l-0.9,0.9h-9.2l-0.9-0.9
			l0.9-0.9H147.9z M143.1,66.3l0.5,1.3l-3,7.5l-1.2,0.6l-0.5-1.4l3-7.4L143.1,66.3z M147.1,55.8l0.5,1.3l-3,7.5l-1.2,0.6l-0.5-1.4
			l3-7.4L147.1,55.8z M149.8,55.4v9.3l-0.9,0.9l-0.9-0.9v-9.3l0.9-0.9L149.8,55.4z M149.8,66.8v9.3L149,77l-0.9-0.9v-9.3l0.9-0.9
			L149.8,66.8z"/>
	</g>
	<g>
		<rect x="199" y="20.3" class="st3" width="65" height="25.3"/>
		<path class="st12" d="M204.5,32.2l-1.1,9.2l-1,0.8l-0.8-1l1.1-9.2l1-0.8L204.5,32.2z M212.8,42.7l0.8,1l-1,0.8l-9.1-1.1l-0.8-1
			l1-0.8L212.8,42.7z M205.9,20.8l-1.1,9.2l-1,0.8l-0.8-1l1.1-9.2l1-0.8L205.9,20.8z M209.2,32.2l0.3,1.4l-3.9,7.1l-1.2,0.5
			l-0.3-1.5l3.9-7L209.2,32.2z M215.5,20l0.8,1l-1,0.8l-9.1-1.1l-0.8-1l1-0.8L215.5,20z M214.5,22.3l0.3,1.4l-3.9,7.1l-1.2,0.5
			l-0.3-1.5l3.9-7L214.5,22.3z M215.9,33.5l-1.1,9.2l-1,0.8l-0.8-1l1.1-9.2l1-0.8L215.9,33.5z M217.2,22.2l-1.1,9.2l-1,0.8l-0.8-1
			l1.1-9.2l1-0.8L217.2,22.2z"/>
		<path class="st12" d="M226.1,32.2l-1.1,9.2l-1,0.8l-0.8-1l1.1-9.2l1-0.8L226.1,32.2z M234.4,42.7l0.8,1l-1,0.8l-9.1-1.1l-0.8-1
			l1-0.8L234.4,42.7z M227.5,20.8l-1.1,9.2l-1,0.8l-0.8-1l1.1-9.2l1-0.8L227.5,20.8z M230.9,32.2l0.3,1.4l-3.9,7.1l-1.2,0.5
			l-0.3-1.5l3.9-7L230.9,32.2z M237.1,20l0.8,1l-1,0.8l-9.1-1.1l-0.8-1l1-0.8L237.1,20z M236.1,22.3l0.3,1.4l-3.9,7.1l-1.2,0.5
			l-0.3-1.5l3.9-7L236.1,22.3z M237.5,33.5l-1.1,9.2l-1,0.8l-0.8-1l1.1-9.2l1-0.8L237.5,33.5z M238.9,22.2l-1.1,9.2l-1,0.8l-0.8-1
			l1.1-9.2l1-0.8L238.9,22.2z"/>
		<path class="st12" d="M247.7,32.2l-1.1,9.2l-1,0.8l-0.8-1l1.1-9.2l1-0.8L247.7,32.2z M256,42.7l0.8,1l-1,0.8l-9.1-1.1l-0.8-1
			l1-0.8L256,42.7z M249.1,20.8L248,30l-1,0.8l-0.8-1l1.1-9.2l1-0.8L249.1,20.8z M252.5,32.2l0.3,1.4l-3.9,7.1l-1.2,0.5l-0.3-1.5
			l3.9-7L252.5,32.2z M258.7,20l0.8,1l-1,0.8l-9.1-1.1l-0.8-1l1-0.8L258.7,20z M257.7,22.3l0.3,1.4l-3.9,7.1l-1.2,0.5l-0.3-1.5
			l3.9-7L257.7,22.3z M259.1,33.5l-1.1,9.2l-1,0.8l-0.8-1l1.1-9.2l1-0.8L259.1,33.5z M260.5,22.2l-1.1,9.2l-1,0.8l-0.8-1l1.1-9.2
			l1-0.8L260.5,22.2z"/>
	</g>
	<g>
		<rect x="197" y="54.3" class="st3" width="65" height="25.3"/>
		<path class="st12" d="M200.7,55.4v9.3l-0.9,0.9l-0.9-0.9v-9.3l0.9-0.9L200.7,55.4z M200.7,66.8v9.3l-0.9,0.9l-0.9-0.9v-9.3
			l0.9-0.9L200.7,66.8z M210.1,53.4l0.9,0.9l-0.9,0.9h-9.2l-0.9-0.9l0.9-0.9H210.1z M210.1,76.2l0.9,0.9l-0.9,0.9h-9.2l-0.9-0.9
			l0.9-0.9H210.1z M205.4,66.3l0.5,1.3l-3,7.5l-1.2,0.6l-0.5-1.4l3-7.4L205.4,66.3z M209.4,55.8l0.5,1.3l-3,7.5l-1.2,0.6l-0.5-1.4
			l3-7.4L209.4,55.8z M212.1,55.4v9.3l-0.9,0.9l-0.9-0.9v-9.3l0.9-0.9L212.1,55.4z M212.1,66.8v9.3l-0.9,0.9l-0.9-0.9v-9.3l0.9-0.9
			L212.1,66.8z"/>
		<path class="st12" d="M223.5,55.4v9.3l-0.9,0.9l-0.9-0.9v-9.3l0.9-0.9L223.5,55.4z M223.5,66.8v9.3l-0.9,0.9l-0.9-0.9v-9.3
			l0.9-0.9L223.5,66.8z M233,53.4l0.9,0.9l-0.9,0.9h-9.2l-0.9-0.9l0.9-0.9H233z M233,76.2l0.9,0.9l-0.9,0.9h-9.2l-0.9-0.9l0.9-0.9
			H233z M228.3,66.3l0.5,1.3l-3,7.5l-1.2,0.6l-0.5-1.4l3-7.4L228.3,66.3z M232.3,55.8l0.5,1.3l-3,7.5l-1.2,0.6l-0.5-1.4l3-7.4
			L232.3,55.8z M235,55.4v9.3l-0.9,0.9l-0.9-0.9v-9.3l0.9-0.9L235,55.4z M235,66.8v9.3l-0.9,0.9l-0.9-0.9v-9.3l0.9-0.9L235,66.8z"/>
		<path class="st12" d="M246.4,55.4v9.3l-0.9,0.9l-0.9-0.9v-9.3l0.9-0.9L246.4,55.4z M246.4,66.8v9.3l-0.9,0.9l-0.9-0.9v-9.3
			l0.9-0.9L246.4,66.8z M255.8,53.4l0.9,0.9l-0.9,0.9h-9.2l-0.9-0.9l0.9-0.9H255.8z M255.9,76.2l0.9,0.9l-0.9,0.9h-9.2l-0.9-0.9
			l0.9-0.9H255.9z M251.1,66.3l0.5,1.3l-3,7.5l-1.2,0.6l-0.5-1.4l3-7.4L251.1,66.3z M255.1,55.8l0.5,1.3l-3,7.5l-1.2,0.6l-0.5-1.4
			l3-7.4L255.1,55.8z M257.8,55.4v9.3l-0.9,0.9l-0.9-0.9v-9.3l0.9-0.9L257.8,55.4z M257.8,66.8v9.3L257,77l-0.9-0.9v-9.3l0.9-0.9
			L257.8,66.8z"/>
	</g>
	<g>
		<rect x="308.8" y="20.3" class="st3" width="111.2" height="25.3"/>
		<path class="st12" d="M314.3,32.2l-1.1,9.2l-1,0.8l-0.8-1l1.1-9.2l1-0.8L314.3,32.2z M322.5,42.7l0.8,1l-1,0.8l-9.1-1.1l-0.8-1
			l1-0.8L322.5,42.7z M315.7,20.8l-1.1,9.2l-1,0.8l-0.8-1l1.1-9.2l1-0.8L315.7,20.8z M319,32.2l0.3,1.4l-3.9,7.1l-1.2,0.5l-0.3-1.5
			l3.9-7L319,32.2z M325.2,20l0.8,1l-1,0.8l-9.1-1.1l-0.8-1l1-0.8L325.2,20z M324.2,22.3l0.3,1.4l-3.9,7.1l-1.2,0.5l-0.3-1.5l3.9-7
			L324.2,22.3z M325.6,33.5l-1.1,9.2l-1,0.8l-0.8-1l1.1-9.2l1-0.8L325.6,33.5z M327,22.2l-1.1,9.2l-1,0.8l-0.8-1l1.1-9.2l1-0.8
			L327,22.2z"/>
		<path class="st12" d="M335.9,32.2l-1.1,9.2l-1,0.8l-0.8-1l1.1-9.2l1-0.8L335.9,32.2z M344.1,42.7l0.8,1l-1,0.8l-9.1-1.1l-0.8-1
			l1-0.8L344.1,42.7z M337.3,20.8l-1.1,9.2l-1,0.8l-0.8-1l1.1-9.2l1-0.8L337.3,20.8z M340.6,32.2l0.3,1.4l-3.9,7.1l-1.2,0.5
			l-0.3-1.5l3.9-7L340.6,32.2z M346.8,20l0.8,1l-1,0.8l-9.1-1.1l-0.8-1l1-0.8L346.8,20z M345.9,22.3l0.3,1.4l-3.9,7.1l-1.2,0.5
			l-0.3-1.5l3.9-7L345.9,22.3z M347.2,33.5l-1.1,9.2l-1,0.8l-0.8-1l1.1-9.2l1-0.8L347.2,33.5z M348.6,22.2l-1.1,9.2l-1,0.8l-0.8-1
			l1.1-9.2l1-0.8L348.6,22.2z"/>
		<path class="st12" d="M357.5,32.2l-1.1,9.2l-1,0.8l-0.8-1l1.1-9.2l1-0.8L357.5,32.2z M365.7,42.7l0.8,1l-1,0.8l-9.1-1.1l-0.8-1
			l1-0.8L365.7,42.7z M358.9,20.8l-1.1,9.2l-1,0.8l-0.8-1l1.1-9.2l1-0.8L358.9,20.8z M362.2,32.2l0.3,1.4l-3.9,7.1l-1.2,0.5
			l-0.3-1.5l3.9-7L362.2,32.2z M368.5,20l0.8,1l-1,0.8l-9.1-1.1l-0.8-1l1-0.8L368.5,20z M367.5,22.3l0.3,1.4l-3.9,7.1l-1.2,0.5
			l-0.3-1.5l3.9-7L367.5,22.3z M368.8,33.5l-1.1,9.2l-1,0.8l-0.8-1l1.1-9.2l1-0.8L368.8,33.5z M370.2,22.2l-1.1,9.2l-1,0.8l-0.8-1
			l1.1-9.2l1-0.8L370.2,22.2z"/>
		<path class="st12" d="M379.1,32.2l-1.1,9.2l-1,0.8l-0.8-1l1.1-9.2l1-0.8L379.1,32.2z M387.3,42.7l0.8,1l-1,0.8l-9.1-1.1l-0.8-1
			l1-0.8L387.3,42.7z M380.5,20.8l-1.1,9.2l-1,0.8l-0.8-1l1.1-9.2l1-0.8L380.5,20.8z M383.8,32.2l0.3,1.4l-3.9,7.1l-1.2,0.5
			l-0.3-1.5l3.9-7L383.8,32.2z M390.1,20l0.8,1l-1,0.8l-9.1-1.1l-0.8-1l1-0.8L390.1,20z M389.1,22.3l0.3,1.4l-3.9,7.1l-1.2,0.5
			l-0.3-1.5l3.9-7L389.1,22.3z M390.4,33.5l-1.1,9.2l-1,0.8l-0.8-1l1.1-9.2l1-0.8L390.4,33.5z M391.8,22.2l-1.1,9.2l-1,0.8l-0.8-1
			l1.1-9.2l1-0.8L391.8,22.2z"/>
		<path class="st12" d="M400.7,32.2l-1.1,9.2l-1,0.8l-0.8-1l1.1-9.2l1-0.8L400.7,32.2z M409,42.7l0.8,1l-1,0.8l-9.1-1.1l-0.8-1
			l1-0.8L409,42.7z M402.1,20.8L401,30l-1,0.8l-0.8-1l1.1-9.2l1-0.8L402.1,20.8z M405.4,32.2l0.3,1.4l-3.9,7.1l-1.2,0.5l-0.3-1.5
			l3.9-7L405.4,32.2z M411.7,20l0.8,1l-1,0.8l-9.1-1.1l-0.8-1l1-0.8L411.7,20z M410.7,22.3l0.3,1.4l-3.9,7.1l-1.2,0.5l-0.3-1.5
			l3.9-7L410.7,22.3z M412.1,33.5l-1.1,9.2l-1,0.8l-0.8-1l1.1-9.2l1-0.8L412.1,33.5z M413.4,22.2l-1.1,9.2l-1,0.8l-0.8-1l1.1-9.2
			l1-0.8L413.4,22.2z"/>
	</g>
</g>
<g id="R_Flag">
	<g>
		<rect x="42.9" y="96.8" class="st3" width="12.6" height="13.5"/>
		<path class="st13" d="M43.8,105.4v-8.6h3.7c0.9,0,1.6,0.1,2,0.2s0.7,0.4,1,0.8s0.4,0.8,0.4,1.4c0,0.6-0.2,1.2-0.6,1.6
			s-0.9,0.7-1.7,0.8c0.4,0.2,0.7,0.5,0.9,0.7s0.6,0.7,1,1.4l1,1.7h-2.1l-1.3-1.9c-0.4-0.7-0.8-1.1-0.9-1.3s-0.3-0.3-0.5-0.4
			s-0.5-0.1-0.9-0.1h-0.4v3.6H43.8z M45.5,100.4h1.3c0.8,0,1.4,0,1.6-0.1s0.4-0.2,0.5-0.4s0.2-0.4,0.2-0.6c0-0.3-0.1-0.5-0.2-0.7
			s-0.4-0.3-0.7-0.3c-0.1,0-0.6,0-1.3,0h-1.4V100.4z"/>
	</g>
</g>
<g id="P_Flag">
	<g>
		<rect x="24" y="96.8" class="st3" width="10" height="13.5"/>
		<path class="st13" d="M24.9,105.4v-8.6h2.8c1.1,0,1.7,0,2.1,0.1c0.5,0.1,0.9,0.4,1.2,0.8s0.5,1,0.5,1.7c0,0.5-0.1,1-0.3,1.3
			s-0.4,0.6-0.7,0.8s-0.6,0.3-0.9,0.4c-0.4,0.1-1,0.1-1.8,0.1h-1.1v3.2H24.9z M26.6,98.3v2.4h0.9c0.7,0,1.1,0,1.4-0.1
			s0.4-0.2,0.5-0.4s0.2-0.4,0.2-0.7c0-0.3-0.1-0.6-0.3-0.8s-0.4-0.3-0.7-0.4c-0.2,0-0.6-0.1-1.2-0.1H26.6z"/>
	</g>
</g>
<g id="L_Arm_Flag">
	<g>
		<rect x="158" y="43.9" class="st3" width="9" height="37.5"/>
		<path class="st12" d="M159.5,53.4l3-7.9h1.1l3.2,7.9h-1.2l-0.9-2.4h-3.3l-0.9,2.4H159.5z M161.7,50.1h2.7l-0.8-2.2
			c-0.3-0.7-0.4-1.2-0.6-1.6c-0.1,0.5-0.2,1-0.4,1.5L161.7,50.1z"/>
		<path class="st12" d="M160,66v-7.9h3.5c0.7,0,1.2,0.1,1.6,0.2c0.4,0.1,0.7,0.4,0.9,0.7s0.3,0.8,0.3,1.2c0,0.6-0.2,1-0.5,1.4
			s-0.9,0.6-1.7,0.7c0.3,0.1,0.5,0.3,0.6,0.4c0.3,0.3,0.6,0.6,0.9,1L167,66h-1.3l-1-1.6c-0.3-0.5-0.6-0.8-0.8-1.1
			c-0.2-0.3-0.4-0.4-0.5-0.5c-0.2-0.1-0.3-0.2-0.5-0.2c-0.1,0-0.3,0-0.6,0h-1.2V66H160z M161.1,61.6h2.2c0.5,0,0.8,0,1.1-0.1
			c0.3-0.1,0.5-0.3,0.6-0.5c0.1-0.2,0.2-0.5,0.2-0.7c0-0.4-0.1-0.7-0.4-0.9s-0.7-0.4-1.3-0.4h-2.5V61.6z"/>
		<path class="st12" d="M159.4,78.7v-7.9h1.6l1.9,5.6c0.2,0.5,0.3,0.9,0.4,1.2c0.1-0.3,0.2-0.7,0.4-1.3l1.9-5.5h1.4v7.9h-1v-6.6
			l-2.3,6.6h-0.9l-2.3-6.7v6.7H159.4z"/>
	</g>
</g>
<g id="R_Arm_Flag">
	<g>
		<rect x="263" y="43.2" class="st3" width="9" height="37.5"/>
		<path class="st12" d="M264.5,52.7l3-7.9h1.1l3.2,7.9h-1.2l-0.9-2.4h-3.3l-0.9,2.4H264.5z M266.7,49.4h2.7l-0.8-2.2
			c-0.3-0.7-0.4-1.2-0.6-1.6c-0.1,0.5-0.2,1-0.4,1.5L266.7,49.4z"/>
		<path class="st12" d="M265,65.3v-7.9h3.5c0.7,0,1.2,0.1,1.6,0.2c0.4,0.1,0.7,0.4,0.9,0.7s0.3,0.8,0.3,1.2c0,0.6-0.2,1-0.5,1.4
			s-0.9,0.6-1.7,0.7c0.3,0.1,0.5,0.3,0.6,0.4c0.3,0.3,0.6,0.6,0.9,1l1.4,2.1h-1.3l-1-1.6c-0.3-0.5-0.6-0.8-0.8-1.1
			c-0.2-0.3-0.4-0.4-0.5-0.5c-0.2-0.1-0.3-0.2-0.5-0.2c-0.1,0-0.3,0-0.6,0h-1.2v3.5H265z M266.1,60.9h2.2c0.5,0,0.8,0,1.1-0.1
			c0.3-0.1,0.5-0.3,0.6-0.5c0.1-0.2,0.2-0.5,0.2-0.7c0-0.4-0.1-0.7-0.4-0.9s-0.7-0.4-1.3-0.4h-2.5V60.9z"/>
		<path class="st12" d="M264.4,78v-7.9h1.6l1.9,5.6c0.2,0.5,0.3,0.9,0.4,1.2c0.1-0.3,0.2-0.7,0.4-1.3l1.9-5.5h1.4V78h-1v-6.6
			l-2.3,6.6h-0.9l-2.3-6.7V78H264.4z"/>
	</g>
</g>
<g id="PT_Down">
	<polygon class="st12" points="284.7,66 288.8,76.7 292.9,66 	"/>
</g>
<g id="PT_Up">
	<polygon class="st12" points="284.7,32.9 288.8,22.3 292.9,32.9 	"/>
</g>
<g id="PT_Flag">
	<g>
		<rect x="283.5" y="37" class="st3" width="9" height="26.7"/>
		<path class="st12" d="M285.8,46.4v-7.9h3c0.5,0,0.9,0,1.2,0.1c0.4,0.1,0.7,0.2,1,0.4c0.3,0.2,0.5,0.4,0.6,0.8s0.2,0.7,0.2,1.1
			c0,0.7-0.2,1.2-0.6,1.7c-0.4,0.5-1.2,0.7-2.3,0.7h-2v3.2H285.8z M286.8,42.3h2c0.7,0,1.2-0.1,1.4-0.4s0.4-0.6,0.4-1.1
			c0-0.3-0.1-0.6-0.3-0.8c-0.2-0.2-0.4-0.4-0.7-0.5c-0.2,0-0.5-0.1-1-0.1h-2V42.3z"/>
		<path class="st12" d="M288.1,59.1v-6.9h-2.6v-0.9h6.2v0.9h-2.6v6.9H288.1z"/>
	</g>
</g>
<g id="FPM_Flag">
	<g>
		<rect x="365" y="53.6" class="st3" width="26.8" height="8.4"/>
		<path class="st12" d="M365.9,61.5v-7.9h5.3v0.9h-4.3v2.4h3.7v0.9h-3.7v3.6H365.9z"/>
		<path class="st12" d="M374.2,61.5v-7.9h3c0.5,0,0.9,0,1.2,0.1c0.4,0.1,0.7,0.2,1,0.4c0.3,0.2,0.5,0.4,0.6,0.8s0.2,0.7,0.2,1.1
			c0,0.7-0.2,1.2-0.6,1.7c-0.4,0.5-1.2,0.7-2.3,0.7h-2v3.2H374.2z M375.3,57.3h2c0.7,0,1.2-0.1,1.4-0.4s0.4-0.6,0.4-1.1
			c0-0.3-0.1-0.6-0.3-0.8c-0.2-0.2-0.4-0.4-0.7-0.5c-0.2,0-0.5-0.1-1-0.1h-2V57.3z"/>
		<path class="st12" d="M383.2,61.5v-7.9h1.6l1.9,5.6c0.2,0.5,0.3,0.9,0.4,1.2c0.1-0.3,0.2-0.7,0.4-1.3l1.9-5.5h1.4v7.9h-1v-6.6
			l-2.3,6.6h-0.9l-2.3-6.7v6.7H383.2z"/>
	</g>
</g>
<g id="ALERT_Flag">
	<g>
		<rect x="310.3" y="53.6" class="st3" width="43.8" height="8.4"/>
		<path class="st12" d="M310.2,61.5l3-7.9h1.1l3.2,7.9h-1.2l-0.9-2.4h-3.3l-0.9,2.4H310.2z M312.5,58.2h2.7l-0.8-2.2
			c-0.3-0.7-0.4-1.2-0.6-1.6c-0.1,0.5-0.2,1-0.4,1.5L312.5,58.2z"/>
		<path class="st12" d="M320.1,61.5v-7.9h1v6.9h3.9v0.9H320.1z"/>
		<path class="st12" d="M327.9,61.5v-7.9h5.7v0.9h-4.7v2.4h4.4v0.9h-4.4v2.7h4.8v0.9H327.9z"/>
		<path class="st12" d="M336.9,61.5v-7.9h3.5c0.7,0,1.2,0.1,1.6,0.2c0.4,0.1,0.7,0.4,0.9,0.7s0.3,0.8,0.3,1.2c0,0.6-0.2,1-0.5,1.4
			s-0.9,0.6-1.7,0.7c0.3,0.1,0.5,0.3,0.6,0.4c0.3,0.3,0.6,0.6,0.9,1l1.4,2.1h-1.3l-1-1.6c-0.3-0.5-0.6-0.8-0.8-1.1
			c-0.2-0.3-0.4-0.4-0.5-0.5c-0.2-0.1-0.3-0.2-0.5-0.2c-0.1,0-0.3,0-0.6,0h-1.2v3.5H336.9z M337.9,57.1h2.2c0.5,0,0.8,0,1.1-0.1
			c0.3-0.1,0.5-0.3,0.6-0.5c0.1-0.2,0.2-0.5,0.2-0.7c0-0.4-0.1-0.7-0.4-0.9s-0.7-0.4-1.3-0.4h-2.5V57.1z"/>
		<path class="st12" d="M348.3,61.5v-6.9h-2.6v-0.9h6.2v0.9h-2.6v6.9H348.3z"/>
	</g>
</g>
<g id="HPA_Flag">
	<g>
		<rect x="326" y="67.2" class="st3" width="25.8" height="8.4"/>
		<path class="st12" d="M326.9,75v-7.9h1v3.2h4.1v-3.2h1V75h-1v-3.7h-4.1V75H326.9z"/>
		<path class="st12" d="M336.4,75v-7.9h3c0.5,0,0.9,0,1.2,0.1c0.4,0.1,0.7,0.2,1,0.4c0.3,0.2,0.5,0.4,0.6,0.8s0.2,0.7,0.2,1.1
			c0,0.7-0.2,1.2-0.6,1.7c-0.4,0.5-1.2,0.7-2.3,0.7h-2V75H336.4z M337.5,70.9h2c0.7,0,1.2-0.1,1.4-0.4s0.4-0.6,0.4-1.1
			c0-0.3-0.1-0.6-0.3-0.8c-0.2-0.2-0.4-0.4-0.7-0.5c-0.2,0-0.5-0.1-1-0.1h-2V70.9z"/>
		<path class="st12" d="M343.7,75l3-7.9h1.1l3.2,7.9h-1.2l-0.9-2.4h-3.3l-0.9,2.4H343.7z M346,71.8h2.7l-0.8-2.2
			c-0.3-0.7-0.4-1.2-0.6-1.6c-0.1,0.5-0.2,1-0.4,1.5L346,71.8z"/>
	</g>
</g>
<g id="IN_HG_Flag">
	<g>
		<rect x="378.4" y="67.2" class="st3" width="15.8" height="8.4"/>
		<path class="st12" d="M379.4,75v-7.9h1V75H379.4z"/>
		<path class="st12" d="M383.9,75v-7.9h1.1l4.1,6.2v-6.2h1V75h-1.1l-4.1-6.2V75H383.9z"/>
	</g>
	<g>
		<rect x="397.5" y="67.2" class="st3" width="19.7" height="8.4"/>
		<path class="st12" d="M398.4,75v-7.9h1v3.2h4.1v-3.2h1V75h-1v-3.7h-4.1V75H398.4z"/>
		<path class="st12" d="M411.6,72V71l3.3,0v2.9c-0.5,0.4-1,0.7-1.6,0.9c-0.5,0.2-1.1,0.3-1.7,0.3c-0.8,0-1.5-0.2-2.1-0.5
			c-0.6-0.3-1.1-0.8-1.4-1.4s-0.5-1.3-0.5-2.1c0-0.8,0.2-1.5,0.5-2.1c0.3-0.7,0.8-1.2,1.4-1.5s1.3-0.5,2.1-0.5
			c0.6,0,1.1,0.1,1.5,0.3c0.5,0.2,0.8,0.4,1.1,0.8s0.5,0.8,0.6,1.3l-0.9,0.3c-0.1-0.4-0.3-0.7-0.4-0.9s-0.4-0.4-0.8-0.6
			c-0.3-0.1-0.7-0.2-1.1-0.2c-0.5,0-0.9,0.1-1.2,0.2c-0.3,0.1-0.6,0.3-0.8,0.6s-0.4,0.5-0.5,0.8c-0.2,0.5-0.3,1-0.3,1.6
			c0,0.7,0.1,1.3,0.4,1.8c0.2,0.5,0.6,0.8,1.1,1.1c0.5,0.2,1,0.3,1.5,0.3c0.5,0,0.9-0.1,1.3-0.3c0.4-0.2,0.8-0.4,1-0.6V72H411.6z"/>
	</g>
</g>
<g id="FT_Flag">
	<g>
		<rect x="397.5" y="53.6" class="st3" width="15.8" height="8.4"/>
		<path class="st12" d="M398.4,61.5v-7.9h5.3v0.9h-4.3v2.4h3.7v0.9h-3.7v3.6H398.4z"/>
		<path class="st12" d="M408.7,61.5v-6.9h-2.6v-0.9h6.2v0.9h-2.6v6.9H408.7z"/>
	</g>
</g>
<g id="AP_Flag">
	<g>
		<rect x="173.8" y="24.6" class="st3" width="16.8" height="8.4"/>
		<path class="st12" d="M173.7,32.5l3-7.9h1.1l3.2,7.9h-1.2l-0.9-2.4h-3.3l-0.9,2.4H173.7z M176,29.2h2.7l-0.8-2.2
			c-0.3-0.7-0.4-1.2-0.6-1.6c-0.1,0.5-0.2,1-0.4,1.5L176,29.2z"/>
		<path class="st12" d="M183.6,32.5v-7.9h3c0.5,0,0.9,0,1.2,0.1c0.4,0.1,0.7,0.2,1,0.4c0.3,0.2,0.5,0.4,0.6,0.8s0.2,0.7,0.2,1.1
			c0,0.7-0.2,1.2-0.6,1.7c-0.4,0.5-1.2,0.7-2.3,0.7h-2v3.2H183.6z M184.6,28.3h2c0.7,0,1.2-0.1,1.4-0.4s0.4-0.6,0.4-1.1
			c0-0.3-0.1-0.6-0.3-0.8c-0.2-0.2-0.4-0.4-0.7-0.5c-0.2,0-0.5-0.1-1-0.1h-2V28.3z"/>
	</g>
	<polygon class="st12" points="190.3,22.3 173.3,22.3 171.8,20.9 191.6,20.9 	"/>
	<polygon class="st12" points="190.6,35.5 173.7,35.5 172.2,36.9 191.9,36.9 	"/>
	<polygon class="st12" points="191.3,22.8 191.3,34.7 192.8,35.8 192.8,21.9 	"/>
	<polygon class="st12" points="172.4,22.8 172.4,34.7 170.9,35.8 170.9,21.9 	"/>
	<g>
	</g>
	<g>
	</g>
	<g>
	</g>
	<g>
	</g>
	<g>
	</g>
	<g>
	</g>
</g>
</svg>
