<?xml version="1.0" encoding="utf-8"?>
<!-- Generator: Adobe Illustrator 19.0.0, SVG Export Plug-In . SVG Version: 6.00 Build 0)  -->
<svg version="1.1" xmlns="http://www.w3.org/2000/svg" xmlns:xlink="http://www.w3.org/1999/xlink" x="0px" y="0px"
	 viewBox="0 0 64.9 64.9" style="enable-background:new 0 0 64.9 64.9;" xml:space="preserve">
<style type="text/css">
	.st0{display:none;}
	.st1{display:inline;fill:#282828;stroke:#E5E5E5;stroke-width:2;stroke-miterlimit:10;}
	.st2{display:inline;}
	.st3{display:inline;fill:#58595B;}
	.st4{display:inline;fill:none;stroke:#414042;stroke-width:2;stroke-miterlimit:10;}
	.st5{fill:none;}
	.st6{fill:#414042;}
	.st7{display:inline;fill:none;stroke:#FFFFFF;stroke-miterlimit:10;}
	.st8{fill:#FFFFFF;}
	.st9{fill:#3F403F;stroke:#000000;stroke-miterlimit:10;}
	.st10{fill:none;stroke:#000000;stroke-width:1.5;stroke-miterlimit:10;stroke-dasharray:1.5093,1.5093;}
	.st11{fill:#3F403F;stroke:#000000;stroke-width:2;stroke-miterlimit:10;}
	.st12{fill:none;stroke:#000000;stroke-width:1.5;stroke-miterlimit:10;stroke-dasharray:1.5898,1.5898;}
	.st13{display:inline;fill:#FFFFFF;stroke:#FFFFFF;stroke-miterlimit:10;}
	.st14{fill:#F7941E;}
	.st15{fill:#ED1C24;}
	.st16{display:inline;fill:#F7941E;}
</style>
<g id="Layer_1" class="st0">
	<path id="XMLID_814_" class="st1" d="M86.4,87.5h-586.7c-1.7,0-3-0.9-3-2v-150c0-1.1,1.3-2,3-2H86.4c1.7,0,3,0.9,3,2v150
		C89.4,86.6,88,87.5,86.4,87.5z"/>
</g>
<g id="Base" class="st0">
	<path class="st2" d="M-84.3,9.4c0,4.3-2.1,7.8-4.7,7.8h-321.5c-2.6,0-4.7-3.5-4.7-7.8V-43c0-4.3,2.1-7.8,4.7-7.8h321.5
		c2.6,0,4.7,3.5,4.7,7.8V9.4z"/>
	<circle class="st3" cx="-46.8" cy="-31.9" r="5.7"/>
	<line class="st4" x1="-52.5" y1="-31.9" x2="-41.1" y2="-31.9"/>
	<g class="st2">
		<rect x="-461.4" y="29.3" class="st5" width="12.6" height="13.5"/>
		<path class="st6" d="M-460.5,37.9v-8.6h3.7c0.9,0,1.6,0.1,2,0.2s0.7,0.4,1,0.8s0.4,0.8,0.4,1.4c0,0.6-0.2,1.2-0.6,1.6
			s-0.9,0.7-1.7,0.8c0.4,0.2,0.7,0.5,0.9,0.7s0.6,0.7,1,1.4l1,1.7h-2.1l-1.3-1.9c-0.4-0.7-0.8-1.1-0.9-1.3s-0.3-0.3-0.5-0.4
			s-0.5-0.1-0.9-0.1h-0.4v3.6H-460.5z M-458.8,33h1.3c0.8,0,1.4,0,1.6-0.1s0.4-0.2,0.5-0.4s0.2-0.4,0.2-0.6c0-0.3-0.1-0.5-0.2-0.7
			s-0.4-0.3-0.7-0.3c-0.1,0-0.6,0-1.3,0h-1.4V33z"/>
	</g>
	<g class="st2">
		<rect x="-480.3" y="29.3" class="st5" width="10" height="13.5"/>
		<path class="st6" d="M-479.4,37.9v-8.6h2.8c1.1,0,1.7,0,2.1,0.1c0.5,0.1,0.9,0.4,1.2,0.8s0.5,1,0.5,1.7c0,0.5-0.1,1-0.3,1.3
			s-0.4,0.6-0.7,0.8s-0.6,0.3-0.9,0.4c-0.4,0.1-1,0.1-1.8,0.1h-1.1v3.2H-479.4z M-477.6,30.8v2.4h0.9c0.7,0,1.1,0,1.4-0.1
			s0.4-0.2,0.5-0.4s0.2-0.4,0.2-0.7c0-0.3-0.1-0.6-0.3-0.8s-0.4-0.3-0.7-0.4c-0.2,0-0.6-0.1-1.2-0.1H-477.6z"/>
	</g>
	<path class="st7" d="M-25.9,66.3c0,2.8-1.9,5.1-4.3,5.1h-34.4c-2.4,0-4.3-2.3-4.3-5.1V-4.6c0-2.8,1.9-5.1,4.3-5.1h34.4
		c2.4,0,4.3,2.3,4.3,5.1V66.3z"/>
</g>
<g id="Labels" class="st0">
	<g class="st2">
		<rect x="-482.2" y="-44.7" class="st5" width="41.6" height="9.1"/>
		<path class="st8" d="M-481.4-37.3v-7.4h1v3.7l3.7-3.7h1.3l-3.1,3l3.3,4.4h-1.3l-2.6-3.8l-1.2,1.2v2.6H-481.4z"/>
		<path class="st8" d="M-475.3-37.3l2.9-7.4h1.1l3,7.4h-1.1l-0.9-2.3h-3.1l-0.8,2.3H-475.3z M-473.1-40.3h2.5l-0.8-2.1
			c-0.2-0.6-0.4-1.1-0.5-1.5c-0.1,0.5-0.2,1-0.4,1.4L-473.1-40.3z"/>
		<path class="st8" d="M-467.5-37.3v-7.4h2.8c0.5,0,0.9,0,1.1,0.1c0.4,0.1,0.7,0.2,0.9,0.3s0.4,0.4,0.6,0.7s0.2,0.6,0.2,1
			c0,0.6-0.2,1.2-0.6,1.6c-0.4,0.4-1.1,0.7-2.2,0.7h-1.9v3H-467.5z M-466.5-41.2h1.9c0.6,0,1.1-0.1,1.4-0.4c0.3-0.2,0.4-0.6,0.4-1
			c0-0.3-0.1-0.6-0.2-0.8s-0.4-0.4-0.6-0.4c-0.2,0-0.5-0.1-0.9-0.1h-1.9V-41.2z"/>
		<path class="st8" d="M-454.8-37.3h-0.9v-5.8c-0.2,0.2-0.5,0.4-0.9,0.6s-0.7,0.4-1,0.5v-0.9c0.5-0.2,1-0.5,1.3-0.9
			c0.4-0.3,0.7-0.7,0.8-1h0.6V-37.3z"/>
		<path class="st8" d="M-449.6-37.3V-39h-3.2v-0.8l3.4-4.8h0.7v4.8h1v0.8h-1v1.8H-449.6z M-449.6-39.9v-3.4l-2.3,3.4H-449.6z"/>
		<path class="st8" d="M-446.7-40.9c0-0.9,0.1-1.6,0.3-2.1c0.2-0.5,0.4-0.9,0.8-1.2s0.8-0.4,1.3-0.4c0.4,0,0.7,0.1,1.1,0.2
			c0.3,0.2,0.5,0.4,0.7,0.7c0.2,0.3,0.4,0.7,0.5,1.1c0.1,0.4,0.2,1,0.2,1.8c0,0.9-0.1,1.6-0.3,2.1c-0.2,0.5-0.4,1-0.8,1.2
			c-0.4,0.3-0.8,0.4-1.4,0.4c-0.7,0-1.3-0.3-1.7-0.8C-446.5-38.5-446.7-39.5-446.7-40.9z M-445.8-40.9c0,1.2,0.1,2,0.4,2.4
			c0.3,0.4,0.6,0.6,1.1,0.6s0.8-0.2,1.1-0.6c0.3-0.4,0.4-1.2,0.4-2.4c0-1.2-0.1-2-0.4-2.4c-0.3-0.4-0.6-0.6-1.1-0.6
			c-0.4,0-0.8,0.2-1,0.5C-445.6-43-445.8-42.1-445.8-40.9z"/>
	</g>
	<g class="st2">
		<rect x="-494.3" y="-56.6" class="st5" width="59.6" height="7.2"/>
		<path class="st8" d="M-494-50.3l1.3-6.3h2.2c0.5,0,0.8,0,1,0c0.3,0,0.6,0.1,0.8,0.3c0.2,0.1,0.4,0.3,0.5,0.5
			c0.1,0.2,0.2,0.5,0.2,0.7c0,0.3-0.1,0.7-0.3,0.9c-0.2,0.3-0.5,0.5-0.9,0.6c0.3,0.1,0.6,0.2,0.8,0.5s0.3,0.5,0.3,0.8
			c0,0.4-0.1,0.7-0.3,1.1c-0.2,0.3-0.5,0.6-0.9,0.7s-0.9,0.2-1.5,0.2H-494z M-492.4-51.3h1.2c0.5,0,0.9,0,1.1-0.1
			c0.2-0.1,0.3-0.2,0.4-0.3c0.1-0.2,0.2-0.3,0.2-0.5c0-0.2-0.1-0.4-0.2-0.5c-0.2-0.1-0.4-0.2-0.8-0.2h-1.5L-492.4-51.3z M-491.9-54
			h1c0.4,0,0.8,0,1-0.1c0.2-0.1,0.3-0.2,0.4-0.3c0.1-0.1,0.1-0.3,0.1-0.5c0-0.2,0-0.3-0.1-0.4s-0.2-0.2-0.4-0.2c-0.1,0-0.3,0-0.7,0
			h-1L-491.9-54z"/>
		<path class="st8" d="M-487.6-50.3l1.3-6.3h4.7l-0.2,1.1h-3.4l-0.3,1.4h3.3l-0.2,1.1h-3.3l-0.4,1.7h3.7l-0.2,1.1H-487.6z"/>
		<path class="st8" d="M-476.7-50.3h-1.2l-1.7-4.2l-0.9,4.2h-1.2l1.3-6.3h1.2l1.7,4.2l0.9-4.2h1.2L-476.7-50.3z"/>
		<path class="st8" d="M-475.4-50.3l1.3-6.3h1.7c0.5,0,0.8,0,0.9,0c0.3,0,0.5,0.1,0.7,0.2c0.2,0.1,0.4,0.2,0.6,0.3s0.3,0.3,0.4,0.5
			s0.2,0.4,0.3,0.7c0.1,0.3,0.1,0.6,0.1,0.9c0,0.7-0.1,1.3-0.4,1.8c-0.3,0.5-0.6,0.9-1,1.3c-0.3,0.2-0.7,0.4-1.2,0.5
			c-0.3,0.1-0.7,0.1-1.2,0.1H-475.4z M-473.9-51.3h0.7c0.5,0,0.8,0,1-0.1c0.2-0.1,0.4-0.2,0.6-0.3c0.3-0.2,0.5-0.5,0.6-0.9
			c0.2-0.4,0.3-0.8,0.3-1.4c0-0.4-0.1-0.8-0.2-1s-0.3-0.4-0.5-0.4c-0.1-0.1-0.4-0.1-0.8-0.1h-0.8L-473.9-51.3z"/>
		<path class="st8" d="M-469.1-50.3l1.3-6.3h1.3l-1.3,6.3H-469.1z"/>
		<path class="st8" d="M-465.5-50.3h-1.7l2.8-3.2l-1.6-3.1h1.4l0.6,1.2c0,0,0.2,0.3,0.4,0.9c0,0,0,0.1,0.1,0.1
			c0.3-0.4,0.6-0.8,0.9-1l1-1.1h1.6l-2.9,3.3l1.5,3h-1.5l-0.5-0.9c-0.2-0.5-0.4-0.9-0.5-1.1c-0.1,0.2-0.4,0.5-0.9,1L-465.5-50.3z"/>
		<path class="st8" d="M-461.5-50.2l3.1-6.5h0.9l-3.1,6.5H-461.5z"/>
		<path class="st8" d="M-458.3-50.3l1.3-6.3h1.3l-0.6,2.7l2.9-2.7h1.7l-2.8,2.5l2.1,3.8h-1.5l-1.6-3l-1.2,1.1l-0.4,1.9H-458.3z"/>
		<path class="st8" d="M-452-50.3l1.3-6.3h1.3l-1.3,6.3H-452z"/>
		<path class="st8" d="M-444.5-50.3h-1.2l-1.7-4.2l-0.9,4.2h-1.2l1.3-6.3h1.2l1.7,4.2l0.9-4.2h1.2L-444.5-50.3z"/>
		<path class="st8" d="M-439.6-53.6h2.8l-0.6,2.7c-0.3,0.2-0.7,0.4-1.2,0.5c-0.5,0.1-1,0.2-1.5,0.2c-0.8,0-1.4-0.2-1.8-0.5
			c-0.6-0.5-0.9-1.2-0.9-2.1c0-0.6,0.1-1.2,0.4-1.8c0.3-0.7,0.7-1.2,1.2-1.6s1.2-0.6,1.9-0.6s1.3,0.2,1.7,0.5s0.7,0.8,0.9,1.5
			l-1.2,0.1c-0.1-0.4-0.3-0.6-0.5-0.8c-0.2-0.2-0.5-0.3-0.9-0.3c-0.4,0-0.8,0.1-1.2,0.3s-0.6,0.6-0.8,1c-0.2,0.5-0.3,1-0.3,1.5
			c0,0.5,0.1,0.9,0.4,1.2c0.2,0.3,0.6,0.4,1.1,0.4c0.3,0,0.6,0,0.9-0.1c0.3-0.1,0.5-0.2,0.8-0.3l0.2-0.9h-1.6L-439.6-53.6z"/>
	</g>
</g>
<g id="Outer_Knob_R">
	<path class="st9" d="M63.3,32.5c0,17-13.8,30.9-30.9,30.9c-17.1,0-30.9-13.8-30.9-30.9c0-17.1,13.8-30.9,30.9-30.9
		C49.5,1.6,63.3,15.4,63.3,32.5z"/>
	<g>
		<g>
			<path class="st10" d="M64.2,32.5C64.2,50,50,64.2,32.5,64.2C15,64.2,0.8,50,0.8,32.5C0.8,14.9,15,0.8,32.5,0.8
				C50,0.8,64.2,14.9,64.2,32.5z"/>
		</g>
	</g>
</g>
<g id="Inner_Knob_R" class="st0">
	<g class="st2">
		<circle class="st11" cx="32.5" cy="32.5" r="20.8"/>
		<g>
			<path class="st12" d="M54.2,32.5c0,12-9.7,21.8-21.8,21.8s-21.8-9.7-21.8-21.8c0-12,9.7-21.8,21.8-21.8S54.2,20.4,54.2,32.5z"/>
		</g>
	</g>
</g>
<g id="BARO_Button" class="st0">
	<path class="st13" d="M65.3-34.8c0,1.1-0.9,2-2,2H35.1c-1.1,0-2-0.9-2-2v-14.8c0-1.1,0.9-2,2-2h28.1c1.1,0,2,0.9,2,2V-34.8z"/>
	<g class="st2">
		<path d="M35.2-37.9v-7.9H38c0.6,0,1,0.1,1.3,0.2c0.3,0.2,0.6,0.4,0.8,0.7s0.3,0.7,0.3,1.1c0,0.4-0.1,0.7-0.3,1
			c-0.2,0.3-0.4,0.5-0.8,0.7c0.4,0.1,0.8,0.4,1,0.7c0.2,0.3,0.4,0.7,0.4,1.2c0,0.5-0.1,0.9-0.3,1.3s-0.5,0.6-0.9,0.8
			s-0.9,0.2-1.5,0.2H35.2z M36.2-42.4h1.6c0.4,0,0.7,0,0.9-0.1c0.3-0.1,0.5-0.2,0.6-0.4c0.1-0.2,0.2-0.4,0.2-0.7
			c0-0.3-0.1-0.5-0.2-0.7c-0.1-0.2-0.3-0.3-0.5-0.4c-0.2-0.1-0.6-0.1-1.1-0.1h-1.5V-42.4z M36.2-38.8h1.9c0.4,0,0.7,0,0.9-0.1
			c0.3-0.1,0.5-0.2,0.6-0.5s0.2-0.5,0.2-0.8c0-0.3-0.1-0.5-0.2-0.8s-0.3-0.4-0.6-0.5s-0.6-0.1-1.1-0.1h-1.7V-38.8z"/>
		<path d="M41.4-37.9l2.9-7.9h1.1l3,7.9h-1.1l-0.9-2.4h-3.1l-0.8,2.4H41.4z M43.5-41.1h2.5l-0.8-2.2c-0.2-0.7-0.4-1.2-0.5-1.6
			c-0.1,0.5-0.2,1-0.4,1.5L43.5-41.1z"/>
		<path d="M49.1-37.9v-7.9h3.3c0.7,0,1.2,0.1,1.5,0.2c0.3,0.1,0.6,0.4,0.8,0.7s0.3,0.7,0.3,1.2c0,0.6-0.2,1.1-0.5,1.4
			c-0.4,0.4-0.9,0.6-1.6,0.7c0.3,0.1,0.5,0.3,0.6,0.4c0.3,0.3,0.6,0.6,0.8,1l1.3,2.1h-1.2l-1-1.6c-0.4-0.6-0.7-1.1-0.9-1.3
			s-0.4-0.4-0.6-0.4s-0.4-0.1-0.8-0.1h-1.1v3.5H49.1z M50.1-42.3h2.1c0.5,0,0.8,0,1.1-0.1s0.4-0.2,0.6-0.5c0.1-0.2,0.2-0.5,0.2-0.7
			c0-0.4-0.1-0.7-0.4-0.9s-0.7-0.3-1.2-0.3h-2.4V-42.3z"/>
		<path d="M56.4-41.7c0-1.3,0.3-2.4,1-3.1s1.5-1.1,2.5-1.1c0.7,0,1.3,0.2,1.8,0.5s1,0.8,1.3,1.4s0.5,1.3,0.5,2.2
			c0,1.2-0.3,2.1-0.9,2.9c-0.7,0.8-1.6,1.2-2.6,1.2c-1.1,0-2-0.4-2.7-1.2C56.7-39.7,56.4-40.7,56.4-41.7z M57.4-41.7
			c0,1,0.2,1.7,0.7,2.3c0.5,0.5,1.1,0.8,1.8,0.8c0.7,0,1.3-0.3,1.8-0.8c0.5-0.5,0.7-1.3,0.7-2.4c0-0.7-0.1-1.3-0.4-1.8
			c-0.2-0.4-0.5-0.7-0.9-1c-0.4-0.2-0.8-0.4-1.3-0.4c-0.7,0-1.4,0.3-1.8,0.8C57.6-43.7,57.4-42.8,57.4-41.7z"/>
	</g>
</g>
<g id="ARM_Button" class="st0">
	<path class="st13" d="M6.3-34.8c0,1.1-0.9,2-2,2h-28.1c-1.1,0-2-0.9-2-2v-14.8c0-1.1,0.9-2,2-2H4.3c1.1,0,2,0.9,2,2V-34.8z"/>
	<g class="st2">
		<path d="M-21.4-37.9l2.9-7.9h1.1l3,7.9h-1.1l-0.9-2.4h-3.1l-0.8,2.4H-21.4z M-19.2-41.1h2.5l-0.8-2.2c-0.2-0.7-0.4-1.2-0.5-1.6
			c-0.1,0.5-0.2,1-0.4,1.5L-19.2-41.1z"/>
		<path d="M-13.6-37.9v-7.9h3.3c0.7,0,1.2,0.1,1.5,0.2c0.3,0.1,0.6,0.4,0.8,0.7c0.2,0.3,0.3,0.7,0.3,1.2c0,0.6-0.2,1.1-0.5,1.4
			c-0.4,0.4-0.9,0.6-1.6,0.7c0.3,0.1,0.5,0.3,0.6,0.4c0.3,0.3,0.6,0.6,0.8,1l1.3,2.1h-1.2l-1-1.6c-0.4-0.6-0.7-1.1-0.9-1.3
			c-0.2-0.2-0.4-0.4-0.6-0.4c-0.2-0.1-0.4-0.1-0.8-0.1h-1.1v3.5H-13.6z M-12.6-42.3h2.1c0.5,0,0.8,0,1.1-0.1
			c0.2-0.1,0.4-0.2,0.6-0.5c0.1-0.2,0.2-0.5,0.2-0.7c0-0.4-0.1-0.7-0.4-0.9c-0.3-0.2-0.7-0.3-1.2-0.3h-2.4V-42.3z"/>
		<path d="M-6.1-37.9v-7.9h1.5l1.8,5.6l0.4,1.2c0.1-0.3,0.2-0.7,0.4-1.3l1.8-5.5H1v7.9H0v-6.6l-2.2,6.6H-3l-2.2-6.7v6.7H-6.1z"/>
	</g>
</g>
<g id="DN_Button" class="st0">
	<path class="st13" d="M-30.7,62.2c0,1.1-0.9,2-2,2h-28.1c-1.1,0-2-0.9-2-2V47.4c0-1.1,0.9-2,2-2h28.1c1.1,0,2,0.9,2,2V62.2z"/>
	<g class="st2">
		<path d="M-53.5,59.1v-7.9h2.6c0.6,0,1.1,0,1.4,0.1c0.4,0.1,0.8,0.4,1.1,0.7c0.3,0.3,0.6,0.8,0.7,1.3s0.3,1.1,0.3,1.8
			c0,0.9-0.2,1.6-0.5,2.3c-0.3,0.6-0.7,1.1-1.2,1.3s-1.1,0.4-1.9,0.4H-53.5z M-52.6,58.2h1.6c0.6,0,1.1-0.1,1.5-0.3
			c0.3-0.2,0.6-0.5,0.8-0.9c0.2-0.5,0.4-1.2,0.4-1.9c0-0.8-0.1-1.4-0.4-1.9c-0.3-0.5-0.6-0.8-1-0.9c-0.3-0.1-0.7-0.2-1.3-0.2h-1.6
			V58.2z"/>
		<path d="M-46,59.1v-7.9h1l3.9,6.2v-6.2h0.9v7.9h-1l-3.9-6.2v6.2H-46z"/>
	</g>
</g>
<g id="UP_Button" class="st0">
	<path class="st13" d="M-30.7,14.3c0,1.1-0.9,2-2,2h-28.1c-1.1,0-2-0.9-2-2V-0.5c0-1.1,0.9-2,2-2h28.1c1.1,0,2,0.9,2,2V14.3z"/>
	<g class="st2">
		<path d="M-48.3,3.3h1v4.5c0,0.8-0.1,1.4-0.3,1.9c-0.2,0.5-0.5,0.9-0.9,1.2s-1,0.4-1.7,0.4c-1,0-1.7-0.3-2.2-0.8
			c-0.5-0.5-0.7-1.4-0.7-2.7V3.3h1v4.5c0,0.7,0.1,1.2,0.2,1.5c0.1,0.3,0.3,0.6,0.6,0.7c0.3,0.2,0.6,0.3,1.1,0.3
			c0.7,0,1.2-0.2,1.5-0.5s0.5-1,0.5-2V3.3z"/>
		<path d="M-45.6,11.2V3.3h2.8c0.7,0,1.1,0,1.5,0.2c0.4,0.1,0.8,0.4,1,0.8c0.3,0.4,0.4,0.8,0.4,1.4c0,0.7-0.2,1.3-0.6,1.7
			C-41,7.8-41.7,8-42.7,8h-1.9v3.2H-45.6z M-44.7,7.1h1.9c0.6,0,1.1-0.1,1.3-0.4c0.3-0.2,0.4-0.6,0.4-1.1c0-0.3-0.1-0.6-0.2-0.8
			c-0.1-0.2-0.3-0.4-0.5-0.5c-0.2-0.1-0.6-0.1-1.1-0.1h-1.9V7.1z"/>
	</g>
</g>
<g id="ALT_Button" class="st0">
	<path class="st13" d="M-82.7,66.3c0,1.1-0.9,2-2,2h-28.1c-1.1,0-2-0.9-2-2V51.5c0-1.1,0.9-2,2-2h28.1c1.1,0,2,0.9,2,2V66.3z"/>
	<g class="st2">
		<path d="M-107.9,63.2l2.9-7.9h1.1l3,7.9h-1.1l-0.9-2.4h-3.1l-0.8,2.4H-107.9z M-105.8,60h2.5l-0.8-2.2c-0.2-0.7-0.4-1.2-0.5-1.6
			c-0.1,0.5-0.2,1-0.4,1.5L-105.8,60z"/>
		<path d="M-100.2,63.2v-7.9h1v6.9h3.7v0.9H-100.2z"/>
		<path d="M-93.2,63.2v-6.9h-2.5v-0.9h5.9v0.9h-2.5v6.9H-93.2z"/>
	</g>
</g>
<g id="REV_Button" class="st0">
	<path class="st13" d="M-142.7,66.3c0,1.1-0.9,2-2,2h-28.1c-1.1,0-2-0.9-2-2V51.5c0-1.1,0.9-2,2-2h28.1c1.1,0,2,0.9,2,2V66.3z"/>
	<g class="st2">
		<path d="M-168.7,63.2v-7.9h3.3c0.7,0,1.2,0.1,1.5,0.2c0.3,0.1,0.6,0.4,0.8,0.7c0.2,0.3,0.3,0.7,0.3,1.2c0,0.6-0.2,1.1-0.5,1.4
			c-0.4,0.4-0.9,0.6-1.6,0.7c0.3,0.1,0.5,0.3,0.6,0.4c0.3,0.3,0.6,0.6,0.8,1l1.3,2.1h-1.2l-1-1.6c-0.4-0.6-0.7-1.1-0.9-1.3
			c-0.2-0.2-0.4-0.4-0.6-0.4s-0.4-0.1-0.8-0.1h-1.1v3.5H-168.7z M-167.7,58.8h2.1c0.5,0,0.8,0,1.1-0.1c0.2-0.1,0.4-0.2,0.6-0.5
			c0.1-0.2,0.2-0.5,0.2-0.7c0-0.4-0.1-0.7-0.4-0.9c-0.3-0.2-0.7-0.3-1.2-0.3h-2.4V58.8z"/>
		<path d="M-161.2,63.2v-7.9h5.4v0.9h-4.4v2.4h4.1v0.9h-4.1v2.7h4.6v0.9H-161.2z"/>
		<path d="M-152.1,63.2l-2.9-7.9h1.1l1.9,5.7c0.1,0.4,0.3,0.9,0.4,1.3c0.1-0.4,0.2-0.9,0.4-1.3l2-5.7h1l-2.9,7.9H-152.1z"/>
	</g>
</g>
<g id="APR_Button" class="st0">
	<path class="st13" d="M-209.7,66.3c0,1.1-0.9,2-2,2h-28.1c-1.1,0-2-0.9-2-2V51.5c0-1.1,0.9-2,2-2h28.1c1.1,0,2,0.9,2,2V66.3z"/>
	<g class="st2">
		<path d="M-236.5,63.2l2.9-7.9h1.1l3,7.9h-1.1l-0.9-2.4h-3.1l-0.8,2.4H-236.5z M-234.4,60h2.5l-0.8-2.2c-0.2-0.7-0.4-1.2-0.5-1.6
			c-0.1,0.5-0.2,1-0.4,1.5L-234.4,60z"/>
		<path d="M-228.8,63.2v-7.9h2.8c0.7,0,1.1,0,1.5,0.2c0.4,0.1,0.8,0.4,1,0.8c0.3,0.4,0.4,0.8,0.4,1.4c0,0.7-0.2,1.3-0.6,1.7
			c-0.4,0.4-1.1,0.7-2.2,0.7h-1.9v3.2H-228.8z M-227.8,59.1h1.9c0.6,0,1.1-0.1,1.3-0.4s0.4-0.6,0.4-1.1c0-0.3-0.1-0.6-0.2-0.8
			c-0.1-0.2-0.3-0.4-0.5-0.5c-0.2-0.1-0.6-0.1-1.1-0.1h-1.9V59.1z"/>
		<path d="M-221.8,63.2v-7.9h3.3c0.7,0,1.2,0.1,1.5,0.2c0.3,0.1,0.6,0.4,0.8,0.7s0.3,0.7,0.3,1.2c0,0.6-0.2,1.1-0.5,1.4
			c-0.4,0.4-0.9,0.6-1.6,0.7c0.3,0.1,0.5,0.3,0.6,0.4c0.3,0.3,0.6,0.6,0.8,1l1.3,2.1h-1.2l-1-1.6c-0.4-0.6-0.7-1.1-0.9-1.3
			s-0.4-0.4-0.6-0.4c-0.2-0.1-0.4-0.1-0.8-0.1h-1.1v3.5H-221.8z M-220.8,58.8h2.1c0.5,0,0.8,0,1.1-0.1c0.2-0.1,0.4-0.2,0.6-0.5
			c0.1-0.2,0.2-0.5,0.2-0.7c0-0.4-0.1-0.7-0.4-0.9s-0.7-0.3-1.2-0.3h-2.4V58.8z"/>
	</g>
</g>
<g id="Nav_Button" class="st0">
	<path class="st13" d="M-278.7,66.3c0,1.1-0.9,2-2,2h-28.1c-1.1,0-2-0.9-2-2V51.5c0-1.1,0.9-2,2-2h28.1c1.1,0,2,0.9,2,2V66.3z"/>
	<g class="st2">
		<path d="M-304.3,63.2v-7.9h1l3.9,6.2v-6.2h0.9v7.9h-1l-3.9-6.2v6.2H-304.3z"/>
		<path d="M-297.6,63.2l2.9-7.9h1.1l3,7.9h-1.1l-0.9-2.4h-3.1l-0.8,2.4H-297.6z M-295.5,60h2.5l-0.8-2.2c-0.2-0.7-0.4-1.2-0.5-1.6
			c-0.1,0.5-0.2,1-0.4,1.5L-295.5,60z"/>
		<path d="M-288.5,63.2l-2.9-7.9h1.1l1.9,5.7c0.1,0.4,0.3,0.9,0.4,1.3c0.1-0.4,0.2-0.9,0.4-1.3l2-5.7h1l-2.9,7.9H-288.5z"/>
	</g>
</g>
<g id="HGD_Button" class="st0">
	<path class="st13" d="M-347,66.3c0,1.1-0.9,2-2,2h-28.1c-1.1,0-2-0.9-2-2V51.5c0-1.1,0.9-2,2-2h28.1c1.1,0,2,0.9,2,2V66.3z"/>
	<g class="st2">
		<path d="M-373.8,63.2v-7.9h1v3.2h3.9v-3.2h1v7.9h-1v-3.7h-3.9v3.7H-373.8z"/>
		<path d="M-366.3,63.2v-7.9h2.6c0.6,0,1.1,0,1.4,0.1c0.4,0.1,0.8,0.4,1.1,0.7c0.3,0.3,0.6,0.8,0.7,1.3c0.2,0.5,0.3,1.1,0.3,1.8
			c0,0.9-0.2,1.6-0.5,2.3c-0.3,0.6-0.7,1.1-1.2,1.3c-0.5,0.3-1.1,0.4-1.9,0.4H-366.3z M-365.3,62.3h1.6c0.6,0,1.1-0.1,1.5-0.3
			c0.3-0.2,0.6-0.5,0.8-0.9c0.2-0.5,0.4-1.2,0.4-1.9c0-0.8-0.1-1.4-0.4-1.9c-0.3-0.5-0.6-0.8-1-0.9c-0.3-0.1-0.7-0.2-1.3-0.2h-1.6
			V62.3z"/>
		<path d="M-355.3,60.1v-0.9l3.2,0v2.9c-0.5,0.4-1,0.7-1.5,0.9s-1,0.3-1.6,0.3c-0.7,0-1.4-0.2-1.9-0.5s-1-0.8-1.4-1.4
			s-0.5-1.3-0.5-2.2c0-0.9,0.2-1.6,0.5-2.2s0.8-1.1,1.3-1.4c0.5-0.3,1.2-0.5,1.9-0.5c0.5,0,1,0.1,1.4,0.3c0.4,0.2,0.7,0.4,1,0.7
			s0.5,0.8,0.6,1.3l-0.9,0.3c-0.1-0.4-0.3-0.8-0.5-1c-0.2-0.2-0.4-0.4-0.7-0.5c-0.3-0.1-0.6-0.2-1-0.2c-0.5,0-1,0.1-1.4,0.3
			c-0.4,0.2-0.7,0.6-0.9,1.1c-0.2,0.5-0.4,1.1-0.4,1.8c0,1.1,0.3,1.8,0.8,2.4c0.5,0.5,1.2,0.8,2,0.8c0.4,0,0.8-0.1,1.2-0.2
			c0.4-0.2,0.7-0.4,1-0.6v-1.5H-355.3z"/>
	</g>
</g>
<g id="AP_Button" class="st0">
	<path class="st13" d="M-450.9,67.3c0,1.1-0.9,2-2,2H-481c-1.1,0-2-0.9-2-2V52.5c0-1.1,0.9-2,2-2h28.1c1.1,0,2,0.9,2,2V67.3z"/>
	<g class="st2">
		<path d="M-474.5,64.2l2.9-7.9h1.1l3,7.9h-1.1l-0.9-2.4h-3.1l-0.8,2.4H-474.5z M-472.4,61h2.5l-0.8-2.2c-0.2-0.7-0.4-1.2-0.5-1.6
			c-0.1,0.5-0.2,1-0.4,1.5L-472.4,61z"/>
		<path d="M-466.7,64.2v-7.9h2.8c0.7,0,1.1,0,1.5,0.2c0.4,0.1,0.8,0.4,1,0.8c0.3,0.4,0.4,0.8,0.4,1.4c0,0.7-0.2,1.3-0.6,1.7
			c-0.4,0.4-1.1,0.7-2.2,0.7h-1.9v3.2H-466.7z M-465.8,60.1h1.9c0.6,0,1.1-0.1,1.3-0.4s0.4-0.6,0.4-1.1c0-0.3-0.1-0.6-0.2-0.8
			c-0.1-0.2-0.3-0.4-0.5-0.5c-0.2-0.1-0.6-0.1-1.1-0.1h-1.9V60.1z"/>
	</g>
</g>
<g id="Text" class="st0">
	<g class="st2">
		<rect x="-413.3" y="-47.2" class="st5" width="65" height="25.3"/>
		<path class="st14" d="M-407.8-35.3l-1.1,9.2l-1,0.8l-0.8-1l1.1-9.2l1-0.8L-407.8-35.3z M-399.5-24.8l0.8,1l-1,0.8l-9.1-1.1l-0.8-1
			l1-0.8L-399.5-24.8z M-406.4-46.7l-1.1,9.2l-1,0.8l-0.8-1l1.1-9.2l1-0.8L-406.4-46.7z M-403-35.2l0.3,1.4l-3.9,7.1l-1.2,0.5
			l-0.3-1.5l3.9-7L-403-35.2z M-396.8-47.5l0.8,1l-1,0.8l-9.1-1.1l-0.8-1l1-0.8L-396.8-47.5z M-397.8-45.1l0.3,1.4l-3.9,7.1
			l-1.2,0.5l-0.3-1.5l3.9-7L-397.8-45.1z M-396.4-33.9l-1.1,9.2l-1,0.8l-0.8-1l1.1-9.2l1-0.8L-396.4-33.9z M-395-45.3l-1.1,9.2
			l-1,0.8l-0.8-1l1.1-9.2l1-0.8L-395-45.3z"/>
		<path class="st14" d="M-386.2-35.3l-1.1,9.2l-1,0.8l-0.8-1l1.1-9.2l1-0.8L-386.2-35.3z M-377.9-24.8l0.8,1l-1,0.8l-9.1-1.1l-0.8-1
			l1-0.8L-377.9-24.8z M-384.8-46.7l-1.1,9.2l-1,0.8l-0.8-1l1.1-9.2l1-0.8L-384.8-46.7z M-381.4-35.2l0.3,1.4l-3.9,7.1l-1.2,0.5
			l-0.3-1.5l3.9-7L-381.4-35.2z M-375.2-47.5l0.8,1l-1,0.8l-9.1-1.1l-0.8-1l1-0.8L-375.2-47.5z M-376.2-45.1l0.3,1.4l-3.9,7.1
			l-1.2,0.5l-0.3-1.5l3.9-7L-376.2-45.1z M-374.8-33.9l-1.1,9.2l-1,0.8l-0.8-1l1.1-9.2l1-0.8L-374.8-33.9z M-373.4-45.3l-1.1,9.2
			l-1,0.8l-0.8-1l1.1-9.2l1-0.8L-373.4-45.3z"/>
		<path class="st14" d="M-364.5-35.3l-1.1,9.2l-1,0.8l-0.8-1l1.1-9.2l1-0.8L-364.5-35.3z M-356.3-24.8l0.8,1l-1,0.8l-9.1-1.1l-0.8-1
			l1-0.8L-356.3-24.8z M-363.1-46.7l-1.1,9.2l-1,0.8l-0.8-1l1.1-9.2l1-0.8L-363.1-46.7z M-359.8-35.2l0.3,1.4l-3.9,7.1l-1.2,0.5
			l-0.3-1.5l3.9-7L-359.8-35.2z M-353.6-47.5l0.8,1l-1,0.8l-9.1-1.1l-0.8-1l1-0.8L-353.6-47.5z M-354.6-45.1l0.3,1.4l-3.9,7.1
			l-1.2,0.5l-0.3-1.5l3.9-7L-354.6-45.1z M-353.2-33.9l-1.1,9.2l-1,0.8l-0.8-1l1.1-9.2l1-0.8L-353.2-33.9z M-351.8-45.3l-1.1,9.2
			l-1,0.8l-0.8-1l1.1-9.2l1-0.8L-351.8-45.3z"/>
	</g>
	<g class="st2">
		<rect x="-415.3" y="-13.2" class="st5" width="65" height="25.3"/>
		<path class="st14" d="M-411.6-12.1v9.3l-0.9,0.9l-0.9-0.9v-9.3l0.9-0.9L-411.6-12.1z M-411.6-0.7v9.3l-0.9,0.9l-0.9-0.9v-9.3
			l0.9-0.9L-411.6-0.7z M-402.2-14.1l0.9,0.9l-0.9,0.9h-9.2l-0.9-0.9l0.9-0.9H-402.2z M-402.1,8.8l0.9,0.9l-0.9,0.9h-9.2l-0.9-0.9
			l0.9-0.9H-402.1z M-406.9-1.2l0.5,1.3l-3,7.5l-1.2,0.6l-0.5-1.4l3-7.4L-406.9-1.2z M-402.9-11.6l0.5,1.3l-3,7.5l-1.2,0.6l-0.5-1.4
			l3-7.4L-402.9-11.6z M-400.2-12.1v9.3l-0.9,0.9l-0.9-0.9v-9.3l0.9-0.9L-400.2-12.1z M-400.2-0.7v9.3l-0.9,0.9l-0.9-0.9v-9.3
			l0.9-0.9L-400.2-0.7z"/>
		<path class="st14" d="M-388.7-12.1v9.3l-0.9,0.9l-0.9-0.9v-9.3l0.9-0.9L-388.7-12.1z M-388.7-0.7v9.3l-0.9,0.9l-0.9-0.9v-9.3
			l0.9-0.9L-388.7-0.7z M-379.3-14.1l0.9,0.9l-0.9,0.9h-9.2l-0.9-0.9l0.9-0.9H-379.3z M-379.3,8.8l0.9,0.9l-0.9,0.9h-9.2l-0.9-0.9
			l0.9-0.9H-379.3z M-384-1.2l0.5,1.3l-3,7.5l-1.2,0.6l-0.5-1.4l3-7.4L-384-1.2z M-380-11.6l0.5,1.3l-3,7.5l-1.2,0.6l-0.5-1.4l3-7.4
			L-380-11.6z M-377.3-12.1v9.3l-0.9,0.9l-0.9-0.9v-9.3l0.9-0.9L-377.3-12.1z M-377.3-0.7v9.3l-0.9,0.9l-0.9-0.9v-9.3l0.9-0.9
			L-377.3-0.7z"/>
		<path class="st14" d="M-365.9-12.1v9.3l-0.9,0.9l-0.9-0.9v-9.3l0.9-0.9L-365.9-12.1z M-365.9-0.7v9.3l-0.9,0.9l-0.9-0.9v-9.3
			l0.9-0.9L-365.9-0.7z M-356.5-14.1l0.9,0.9l-0.9,0.9h-9.2l-0.9-0.9l0.9-0.9H-356.5z M-356.4,8.8l0.9,0.9l-0.9,0.9h-9.2l-0.9-0.9
			l0.9-0.9H-356.4z M-361.2-1.2l0.5,1.3l-3,7.5l-1.2,0.6l-0.5-1.4l3-7.4L-361.2-1.2z M-357.2-11.6l0.5,1.3l-3,7.5l-1.2,0.6l-0.5-1.4
			l3-7.4L-357.2-11.6z M-354.4-12.1v9.3l-0.9,0.9l-0.9-0.9v-9.3l0.9-0.9L-354.4-12.1z M-354.4-0.7v9.3l-0.9,0.9l-0.9-0.9v-9.3
			l0.9-0.9L-354.4-0.7z"/>
	</g>
	<g class="st2">
		<rect x="-305.3" y="-47.2" class="st5" width="65" height="25.3"/>
		<path class="st14" d="M-299.8-35.3l-1.1,9.2l-1,0.8l-0.8-1l1.1-9.2l1-0.8L-299.8-35.3z M-291.5-24.8l0.8,1l-1,0.8l-9.1-1.1l-0.8-1
			l1-0.8L-291.5-24.8z M-298.4-46.7l-1.1,9.2l-1,0.8l-0.8-1l1.1-9.2l1-0.8L-298.4-46.7z M-295-35.2l0.3,1.4l-3.9,7.1l-1.2,0.5
			l-0.3-1.5l3.9-7L-295-35.2z M-288.8-47.5l0.8,1l-1,0.8l-9.1-1.1l-0.8-1l1-0.8L-288.8-47.5z M-289.8-45.1l0.3,1.4l-3.9,7.1
			l-1.2,0.5l-0.3-1.5l3.9-7L-289.8-45.1z M-288.4-33.9l-1.1,9.2l-1,0.8l-0.8-1l1.1-9.2l1-0.8L-288.4-33.9z M-287-45.3l-1.1,9.2
			l-1,0.8l-0.8-1l1.1-9.2l1-0.8L-287-45.3z"/>
		<path class="st14" d="M-278.2-35.3l-1.1,9.2l-1,0.8l-0.8-1l1.1-9.2l1-0.8L-278.2-35.3z M-269.9-24.8l0.8,1l-1,0.8l-9.1-1.1l-0.8-1
			l1-0.8L-269.9-24.8z M-276.8-46.7l-1.1,9.2l-1,0.8l-0.8-1l1.1-9.2l1-0.8L-276.8-46.7z M-273.4-35.2l0.3,1.4l-3.9,7.1l-1.2,0.5
			l-0.3-1.5l3.9-7L-273.4-35.2z M-267.2-47.5l0.8,1l-1,0.8l-9.1-1.1l-0.8-1l1-0.8L-267.2-47.5z M-268.2-45.1l0.3,1.4l-3.9,7.1
			l-1.2,0.5l-0.3-1.5l3.9-7L-268.2-45.1z M-266.8-33.9l-1.1,9.2l-1,0.8l-0.8-1l1.1-9.2l1-0.8L-266.8-33.9z M-265.4-45.3l-1.1,9.2
			l-1,0.8l-0.8-1l1.1-9.2l1-0.8L-265.4-45.3z"/>
		<path class="st14" d="M-256.5-35.3l-1.1,9.2l-1,0.8l-0.8-1l1.1-9.2l1-0.8L-256.5-35.3z M-248.3-24.8l0.8,1l-1,0.8l-9.1-1.1l-0.8-1
			l1-0.8L-248.3-24.8z M-255.1-46.7l-1.1,9.2l-1,0.8l-0.8-1l1.1-9.2l1-0.8L-255.1-46.7z M-251.8-35.2l0.3,1.4l-3.9,7.1l-1.2,0.5
			l-0.3-1.5l3.9-7L-251.8-35.2z M-245.6-47.5l0.8,1l-1,0.8l-9.1-1.1l-0.8-1l1-0.8L-245.6-47.5z M-246.6-45.1l0.3,1.4l-3.9,7.1
			l-1.2,0.5l-0.3-1.5l3.9-7L-246.6-45.1z M-245.2-33.9l-1.1,9.2l-1,0.8l-0.8-1l1.1-9.2l1-0.8L-245.2-33.9z M-243.8-45.3l-1.1,9.2
			l-1,0.8l-0.8-1l1.1-9.2l1-0.8L-243.8-45.3z"/>
	</g>
	<g class="st2">
		<rect x="-307.3" y="-13.2" class="st5" width="65" height="25.3"/>
		<path class="st14" d="M-303.6-12.1v9.3l-0.9,0.9l-0.9-0.9v-9.3l0.9-0.9L-303.6-12.1z M-303.6-0.7v9.3l-0.9,0.9l-0.9-0.9v-9.3
			l0.9-0.9L-303.6-0.7z M-294.2-14.1l0.9,0.9l-0.9,0.9h-9.2l-0.9-0.9l0.9-0.9H-294.2z M-294.1,8.8l0.9,0.9l-0.9,0.9h-9.2l-0.9-0.9
			l0.9-0.9H-294.1z M-298.9-1.2l0.5,1.3l-3,7.5l-1.2,0.6l-0.5-1.4l3-7.4L-298.9-1.2z M-294.9-11.6l0.5,1.3l-3,7.5l-1.2,0.6l-0.5-1.4
			l3-7.4L-294.9-11.6z M-292.2-12.1v9.3l-0.9,0.9l-0.9-0.9v-9.3l0.9-0.9L-292.2-12.1z M-292.2-0.7v9.3l-0.9,0.9l-0.9-0.9v-9.3
			l0.9-0.9L-292.2-0.7z"/>
		<path class="st14" d="M-280.7-12.1v9.3l-0.9,0.9l-0.9-0.9v-9.3l0.9-0.9L-280.7-12.1z M-280.7-0.7v9.3l-0.9,0.9l-0.9-0.9v-9.3
			l0.9-0.9L-280.7-0.7z M-271.3-14.1l0.9,0.9l-0.9,0.9h-9.2l-0.9-0.9l0.9-0.9H-271.3z M-271.3,8.8l0.9,0.9l-0.9,0.9h-9.2l-0.9-0.9
			l0.9-0.9H-271.3z M-276-1.2l0.5,1.3l-3,7.5l-1.2,0.6l-0.5-1.4l3-7.4L-276-1.2z M-272-11.6l0.5,1.3l-3,7.5l-1.2,0.6l-0.5-1.4l3-7.4
			L-272-11.6z M-269.3-12.1v9.3l-0.9,0.9l-0.9-0.9v-9.3l0.9-0.9L-269.3-12.1z M-269.3-0.7v9.3l-0.9,0.9l-0.9-0.9v-9.3l0.9-0.9
			L-269.3-0.7z"/>
		<path class="st14" d="M-257.9-12.1v9.3l-0.9,0.9l-0.9-0.9v-9.3l0.9-0.9L-257.9-12.1z M-257.9-0.7v9.3l-0.9,0.9l-0.9-0.9v-9.3
			l0.9-0.9L-257.9-0.7z M-248.5-14.1l0.9,0.9l-0.9,0.9h-9.2l-0.9-0.9l0.9-0.9H-248.5z M-248.4,8.8l0.9,0.9l-0.9,0.9h-9.2l-0.9-0.9
			l0.9-0.9H-248.4z M-253.2-1.2l0.5,1.3l-3,7.5l-1.2,0.6l-0.5-1.4l3-7.4L-253.2-1.2z M-249.2-11.6l0.5,1.3l-3,7.5l-1.2,0.6l-0.5-1.4
			l3-7.4L-249.2-11.6z M-246.4-12.1v9.3l-0.9,0.9l-0.9-0.9v-9.3l0.9-0.9L-246.4-12.1z M-246.4-0.7v9.3l-0.9,0.9l-0.9-0.9v-9.3
			l0.9-0.9L-246.4-0.7z"/>
	</g>
	<g class="st2">
		<rect x="-195.5" y="-47.2" class="st5" width="111.2" height="25.3"/>
		<path class="st14" d="M-190-35.3l-1.1,9.2l-1,0.8l-0.8-1l1.1-9.2l1-0.8L-190-35.3z M-181.8-24.8l0.8,1l-1,0.8l-9.1-1.1l-0.8-1
			l1-0.8L-181.8-24.8z M-188.6-46.7l-1.1,9.2l-1,0.8l-0.8-1l1.1-9.2l1-0.8L-188.6-46.7z M-185.3-35.2l0.3,1.4l-3.9,7.1l-1.2,0.5
			l-0.3-1.5l3.9-7L-185.3-35.2z M-179-47.5l0.8,1l-1,0.8l-9.1-1.1l-0.8-1l1-0.8L-179-47.5z M-180-45.1l0.3,1.4l-3.9,7.1l-1.2,0.5
			l-0.3-1.5l3.9-7L-180-45.1z M-178.7-33.9l-1.1,9.2l-1,0.8l-0.8-1l1.1-9.2l1-0.8L-178.7-33.9z M-177.3-45.3l-1.1,9.2l-1,0.8l-0.8-1
			l1.1-9.2l1-0.8L-177.3-45.3z"/>
		<path class="st14" d="M-168.4-35.3l-1.1,9.2l-1,0.8l-0.8-1l1.1-9.2l1-0.8L-168.4-35.3z M-160.2-24.8l0.8,1l-1,0.8l-9.1-1.1l-0.8-1
			l1-0.8L-160.2-24.8z M-167-46.7l-1.1,9.2l-1,0.8l-0.8-1l1.1-9.2l1-0.8L-167-46.7z M-163.7-35.2l0.3,1.4l-3.9,7.1l-1.2,0.5
			l-0.3-1.5l3.9-7L-163.7-35.2z M-157.4-47.5l0.8,1l-1,0.8l-9.1-1.1l-0.8-1l1-0.8L-157.4-47.5z M-158.4-45.1l0.3,1.4l-3.9,7.1
			l-1.2,0.5l-0.3-1.5l3.9-7L-158.4-45.1z M-157.1-33.9l-1.1,9.2l-1,0.8l-0.8-1l1.1-9.2l1-0.8L-157.1-33.9z M-155.7-45.3l-1.1,9.2
			l-1,0.8l-0.8-1l1.1-9.2l1-0.8L-155.7-45.3z"/>
		<path class="st14" d="M-146.8-35.3l-1.1,9.2l-1,0.8l-0.8-1l1.1-9.2l1-0.8L-146.8-35.3z M-138.5-24.8l0.8,1l-1,0.8l-9.1-1.1l-0.8-1
			l1-0.8L-138.5-24.8z M-145.4-46.7l-1.1,9.2l-1,0.8l-0.8-1l1.1-9.2l1-0.8L-145.4-46.7z M-142.1-35.2l0.3,1.4l-3.9,7.1l-1.2,0.5
			l-0.3-1.5l3.9-7L-142.1-35.2z M-135.8-47.5l0.8,1l-1,0.8l-9.1-1.1l-0.8-1l1-0.8L-135.8-47.5z M-136.8-45.1l0.3,1.4l-3.9,7.1
			l-1.2,0.5l-0.3-1.5l3.9-7L-136.8-45.1z M-135.5-33.9l-1.1,9.2l-1,0.8l-0.8-1l1.1-9.2l1-0.8L-135.5-33.9z M-134.1-45.3l-1.1,9.2
			l-1,0.8l-0.8-1l1.1-9.2l1-0.8L-134.1-45.3z"/>
		<path class="st14" d="M-125.2-35.3l-1.1,9.2l-1,0.8l-0.8-1l1.1-9.2l1-0.8L-125.2-35.3z M-116.9-24.8l0.8,1l-1,0.8l-9.1-1.1l-0.8-1
			l1-0.8L-116.9-24.8z M-123.8-46.7l-1.1,9.2l-1,0.8l-0.8-1l1.1-9.2l1-0.8L-123.8-46.7z M-120.5-35.2l0.3,1.4l-3.9,7.1l-1.2,0.5
			l-0.3-1.5l3.9-7L-120.5-35.2z M-114.2-47.5l0.8,1l-1,0.8l-9.1-1.1l-0.8-1l1-0.8L-114.2-47.5z M-115.2-45.1l0.3,1.4l-3.9,7.1
			l-1.2,0.5l-0.3-1.5l3.9-7L-115.2-45.1z M-113.8-33.9l-1.1,9.2l-1,0.8l-0.8-1l1.1-9.2l1-0.8L-113.8-33.9z M-112.4-45.3l-1.1,9.2
			l-1,0.8l-0.8-1l1.1-9.2l1-0.8L-112.4-45.3z"/>
		<path class="st14" d="M-103.6-35.3l-1.1,9.2l-1,0.8l-0.8-1l1.1-9.2l1-0.8L-103.6-35.3z M-95.3-24.8l0.8,1l-1,0.8l-9.1-1.1l-0.8-1
			l1-0.8L-95.3-24.8z M-102.2-46.7l-1.1,9.2l-1,0.8l-0.8-1l1.1-9.2l1-0.8L-102.2-46.7z M-98.8-35.2l0.3,1.4l-3.9,7.1l-1.2,0.5
			l-0.3-1.5l3.9-7L-98.8-35.2z M-92.6-47.5l0.8,1l-1,0.8l-9.1-1.1l-0.8-1l1-0.8L-92.6-47.5z M-93.6-45.1l0.3,1.4l-3.9,7.1l-1.2,0.5
			l-0.3-1.5l3.9-7L-93.6-45.1z M-92.2-33.9l-1.1,9.2l-1,0.8l-0.8-1l1.1-9.2l1-0.8L-92.2-33.9z M-90.8-45.3L-92-36l-1,0.8l-0.8-1
			l1.1-9.2l1-0.8L-90.8-45.3z"/>
	</g>
</g>
<g id="R_Flag" class="st0">
	<g class="st2">
		<rect x="-461.4" y="29.3" class="st5" width="12.6" height="13.5"/>
		<path class="st15" d="M-460.5,37.9v-8.6h3.7c0.9,0,1.6,0.1,2,0.2s0.7,0.4,1,0.8s0.4,0.8,0.4,1.4c0,0.6-0.2,1.2-0.6,1.6
			s-0.9,0.7-1.7,0.8c0.4,0.2,0.7,0.5,0.9,0.7s0.6,0.7,1,1.4l1,1.7h-2.1l-1.3-1.9c-0.4-0.7-0.8-1.1-0.9-1.3s-0.3-0.3-0.5-0.4
			s-0.5-0.1-0.9-0.1h-0.4v3.6H-460.5z M-458.8,33h1.3c0.8,0,1.4,0,1.6-0.1s0.4-0.2,0.5-0.4s0.2-0.4,0.2-0.6c0-0.3-0.1-0.5-0.2-0.7
			s-0.4-0.3-0.7-0.3c-0.1,0-0.6,0-1.3,0h-1.4V33z"/>
	</g>
</g>
<g id="P_Flag" class="st0">
	<g class="st2">
		<rect x="-480.3" y="29.3" class="st5" width="10" height="13.5"/>
		<path class="st15" d="M-479.4,37.9v-8.6h2.8c1.1,0,1.7,0,2.1,0.1c0.5,0.1,0.9,0.4,1.2,0.8s0.5,1,0.5,1.7c0,0.5-0.1,1-0.3,1.3
			s-0.4,0.6-0.7,0.8s-0.6,0.3-0.9,0.4c-0.4,0.1-1,0.1-1.8,0.1h-1.1v3.2H-479.4z M-477.6,30.8v2.4h0.9c0.7,0,1.1,0,1.4-0.1
			s0.4-0.2,0.5-0.4s0.2-0.4,0.2-0.7c0-0.3-0.1-0.6-0.3-0.8s-0.4-0.3-0.7-0.4c-0.2,0-0.6-0.1-1.2-0.1H-477.6z"/>
	</g>
</g>
<g id="L_Arm_Flag" class="st0">
	<g class="st2">
		<rect x="-346.3" y="-23.5" class="st5" width="9" height="37.5"/>
		<path class="st14" d="M-344.8-14.1l3-7.9h1.1l3.2,7.9h-1.2l-0.9-2.4h-3.3l-0.9,2.4H-344.8z M-342.6-17.3h2.7l-0.8-2.2
			c-0.3-0.7-0.4-1.2-0.6-1.6c-0.1,0.5-0.2,1-0.4,1.5L-342.6-17.3z"/>
		<path class="st14" d="M-344.2-1.4v-7.9h3.5c0.7,0,1.2,0.1,1.6,0.2c0.4,0.1,0.7,0.4,0.9,0.7c0.2,0.4,0.3,0.8,0.3,1.2
			c0,0.6-0.2,1-0.5,1.4s-0.9,0.6-1.7,0.7c0.3,0.1,0.5,0.3,0.6,0.4c0.3,0.3,0.6,0.6,0.9,1l1.4,2.1h-1.3l-1-1.6
			c-0.3-0.5-0.6-0.8-0.8-1.1c-0.2-0.3-0.4-0.4-0.5-0.5c-0.2-0.1-0.3-0.2-0.5-0.2c-0.1,0-0.3,0-0.6,0h-1.2v3.5H-344.2z M-343.2-5.8
			h2.2c0.5,0,0.8,0,1.1-0.1c0.3-0.1,0.5-0.3,0.6-0.5c0.1-0.2,0.2-0.5,0.2-0.7c0-0.4-0.1-0.7-0.4-0.9c-0.3-0.2-0.7-0.4-1.3-0.4h-2.5
			V-5.8z"/>
		<path class="st14" d="M-344.9,11.2V3.4h1.6l1.9,5.6c0.2,0.5,0.3,0.9,0.4,1.2c0.1-0.3,0.2-0.7,0.4-1.3l1.9-5.5h1.4v7.9h-1V4.6
			l-2.3,6.6h-0.9l-2.3-6.7v6.7H-344.9z"/>
	</g>
</g>
<g id="R_Arm_Flag" class="st0">
	<g class="st2">
		<rect x="-241.3" y="-24.2" class="st5" width="9" height="37.5"/>
		<path class="st14" d="M-239.8-14.8l3-7.9h1.1l3.2,7.9h-1.2l-0.9-2.4h-3.3l-0.9,2.4H-239.8z M-237.6-18h2.7l-0.8-2.2
			c-0.3-0.7-0.4-1.2-0.6-1.6c-0.1,0.5-0.2,1-0.4,1.5L-237.6-18z"/>
		<path class="st14" d="M-239.2-2.1V-10h3.5c0.7,0,1.2,0.1,1.6,0.2c0.4,0.1,0.7,0.4,0.9,0.7s0.3,0.8,0.3,1.2c0,0.6-0.2,1-0.5,1.4
			s-0.9,0.6-1.7,0.7c0.3,0.1,0.5,0.3,0.6,0.4c0.3,0.3,0.6,0.6,0.9,1l1.4,2.1h-1.3l-1-1.6c-0.3-0.5-0.6-0.8-0.8-1.1
			c-0.2-0.3-0.4-0.4-0.5-0.5c-0.2-0.1-0.3-0.2-0.5-0.2c-0.1,0-0.3,0-0.6,0h-1.2v3.5H-239.2z M-238.2-6.5h2.2c0.5,0,0.8,0,1.1-0.1
			c0.3-0.1,0.5-0.3,0.6-0.5c0.1-0.2,0.2-0.5,0.2-0.7c0-0.4-0.1-0.7-0.4-0.9s-0.7-0.4-1.3-0.4h-2.5V-6.5z"/>
		<path class="st14" d="M-239.9,10.5V2.7h1.6l1.9,5.6c0.2,0.5,0.3,0.9,0.4,1.2c0.1-0.3,0.2-0.7,0.4-1.3l1.9-5.5h1.4v7.9h-1V3.9
			l-2.3,6.6h-0.9l-2.3-6.7v6.7H-239.9z"/>
	</g>
</g>
<g id="PT_Down" class="st0">
	<polygon class="st16" points="-219.6,-1.4 -215.5,9.2 -211.4,-1.4 	"/>
</g>
<g id="PT_Up" class="st0">
	<polygon class="st16" points="-219.6,-34.5 -215.5,-45.2 -211.4,-34.5 	"/>
</g>
<g id="PT_Flag" class="st0">
	<g class="st2">
		<rect x="-220.8" y="-30.5" class="st5" width="9" height="26.7"/>
		<path class="st14" d="M-218.5-21.1v-7.9h3c0.5,0,0.9,0,1.2,0.1c0.4,0.1,0.7,0.2,1,0.4c0.3,0.2,0.5,0.4,0.6,0.8s0.2,0.7,0.2,1.1
			c0,0.7-0.2,1.2-0.6,1.7c-0.4,0.5-1.2,0.7-2.3,0.7h-2v3.2H-218.5z M-217.4-25.2h2c0.7,0,1.2-0.1,1.4-0.4s0.4-0.6,0.4-1.1
			c0-0.3-0.1-0.6-0.3-0.8c-0.2-0.2-0.4-0.4-0.7-0.5c-0.2,0-0.5-0.1-1-0.1h-2V-25.2z"/>
		<path class="st14" d="M-216.2-8.4v-6.9h-2.6v-0.9h6.2v0.9h-2.6v6.9H-216.2z"/>
	</g>
</g>
<g id="FPM_Flag" class="st0">
	<g class="st2">
		<rect x="-139.3" y="-13.9" class="st5" width="26.8" height="8.4"/>
		<path class="st14" d="M-138.4-6v-7.9h5.3v0.9h-4.3v2.4h3.7v0.9h-3.7V-6H-138.4z"/>
		<path class="st14" d="M-130.1-6v-7.9h3c0.5,0,0.9,0,1.2,0.1c0.4,0.1,0.7,0.2,1,0.4c0.3,0.2,0.5,0.4,0.6,0.8s0.2,0.7,0.2,1.1
			c0,0.7-0.2,1.2-0.6,1.7c-0.4,0.5-1.2,0.7-2.3,0.7h-2V-6H-130.1z M-129-10.1h2c0.7,0,1.2-0.1,1.4-0.4s0.4-0.6,0.4-1.1
			c0-0.3-0.1-0.6-0.3-0.8c-0.2-0.2-0.4-0.4-0.7-0.5c-0.2,0-0.5-0.1-1-0.1h-2V-10.1z"/>
		<path class="st14" d="M-121.1-6v-7.9h1.6l1.9,5.6c0.2,0.5,0.3,0.9,0.4,1.2c0.1-0.3,0.2-0.7,0.4-1.3l1.9-5.5h1.4V-6h-1v-6.6
			l-2.3,6.6h-0.9l-2.3-6.7V-6H-121.1z"/>
	</g>
</g>
<g id="ALERT_Flag" class="st0">
	<g class="st2">
		<rect x="-194" y="-13.9" class="st5" width="43.8" height="8.4"/>
		<path class="st14" d="M-194-6l3-7.9h1.1l3.2,7.9h-1.2l-0.9-2.4h-3.3l-0.9,2.4H-194z M-191.8-9.2h2.7l-0.8-2.2
			c-0.3-0.7-0.4-1.2-0.6-1.6c-0.1,0.5-0.2,1-0.4,1.5L-191.8-9.2z"/>
		<path class="st14" d="M-184.2-6v-7.9h1v6.9h3.9V-6H-184.2z"/>
		<path class="st14" d="M-176.4-6v-7.9h5.7v0.9h-4.7v2.4h4.4v0.9h-4.4v2.7h4.8V-6H-176.4z"/>
		<path class="st14" d="M-167.4-6v-7.9h3.5c0.7,0,1.2,0.1,1.6,0.2c0.4,0.1,0.7,0.4,0.9,0.7s0.3,0.8,0.3,1.2c0,0.6-0.2,1-0.5,1.4
			s-0.9,0.6-1.7,0.7c0.3,0.1,0.5,0.3,0.6,0.4c0.3,0.3,0.6,0.6,0.9,1l1.4,2.1h-1.3l-1-1.6c-0.3-0.5-0.6-0.8-0.8-1.1
			c-0.2-0.3-0.4-0.4-0.5-0.5c-0.2-0.1-0.3-0.2-0.5-0.2c-0.1,0-0.3,0-0.6,0h-1.2V-6H-167.4z M-166.3-10.4h2.2c0.5,0,0.8,0,1.1-0.1
			c0.3-0.1,0.5-0.3,0.6-0.5c0.1-0.2,0.2-0.5,0.2-0.7c0-0.4-0.1-0.7-0.4-0.9s-0.7-0.4-1.3-0.4h-2.5V-10.4z"/>
		<path class="st14" d="M-156-6V-13h-2.6v-0.9h6.2v0.9h-2.6V-6H-156z"/>
	</g>
</g>
<g id="HPA_Flag" class="st0">
	<g class="st2">
		<rect x="-178.3" y="-0.3" class="st5" width="25.8" height="8.4"/>
		<path class="st14" d="M-177.4,7.6v-7.9h1v3.2h4.1v-3.2h1v7.9h-1V3.9h-4.1v3.7H-177.4z"/>
		<path class="st14" d="M-167.9,7.6v-7.9h3c0.5,0,0.9,0,1.2,0.1c0.4,0.1,0.7,0.2,1,0.4c0.3,0.2,0.5,0.4,0.6,0.8s0.2,0.7,0.2,1.1
			c0,0.7-0.2,1.2-0.6,1.7c-0.4,0.5-1.2,0.7-2.3,0.7h-2v3.2H-167.9z M-166.8,3.4h2c0.7,0,1.2-0.1,1.4-0.4s0.4-0.6,0.4-1.1
			c0-0.3-0.1-0.6-0.3-0.8c-0.2-0.2-0.4-0.4-0.7-0.5c-0.2,0-0.5-0.1-1-0.1h-2V3.4z"/>
		<path class="st14" d="M-160.5,7.6l3-7.9h1.1l3.2,7.9h-1.2l-0.9-2.4h-3.3l-0.9,2.4H-160.5z M-158.3,4.3h2.7l-0.8-2.2
			c-0.3-0.7-0.4-1.2-0.6-1.6c-0.1,0.5-0.2,1-0.4,1.5L-158.3,4.3z"/>
	</g>
</g>
<g id="IN_HG_Flag" class="st0">
	<g class="st2">
		<rect x="-125.9" y="-0.3" class="st5" width="15.8" height="8.4"/>
		<path class="st14" d="M-124.9,7.6v-7.9h1v7.9H-124.9z"/>
		<path class="st14" d="M-120.3,7.6v-7.9h1.1l4.1,6.2v-6.2h1v7.9h-1.1l-4.1-6.2v6.2H-120.3z"/>
	</g>
	<g class="st2">
		<rect x="-106.8" y="-0.3" class="st5" width="19.7" height="8.4"/>
		<path class="st14" d="M-105.9,7.6v-7.9h1v3.2h4.1v-3.2h1v7.9h-1V3.9h-4.1v3.7H-105.9z"/>
		<path class="st14" d="M-92.6,4.5V3.6l3.3,0v2.9c-0.5,0.4-1,0.7-1.6,0.9c-0.5,0.2-1.1,0.3-1.7,0.3c-0.8,0-1.5-0.2-2.1-0.5
			c-0.6-0.3-1.1-0.8-1.4-1.4s-0.5-1.3-0.5-2.1c0-0.8,0.2-1.5,0.5-2.1c0.3-0.7,0.8-1.2,1.4-1.5s1.3-0.5,2.1-0.5
			c0.6,0,1.1,0.1,1.5,0.3c0.5,0.2,0.8,0.4,1.1,0.8s0.5,0.8,0.6,1.3l-0.9,0.3c-0.1-0.4-0.3-0.7-0.4-0.9s-0.4-0.4-0.8-0.6
			c-0.3-0.1-0.7-0.2-1.1-0.2c-0.5,0-0.9,0.1-1.2,0.2c-0.3,0.1-0.6,0.3-0.8,0.6s-0.4,0.5-0.5,0.8c-0.2,0.5-0.3,1-0.3,1.6
			c0,0.7,0.1,1.3,0.4,1.8c0.2,0.5,0.6,0.8,1.1,1.1c0.5,0.2,1,0.3,1.5,0.3c0.5,0,0.9-0.1,1.3-0.3c0.4-0.2,0.8-0.4,1-0.6V4.5H-92.6z"
			/>
	</g>
</g>
<g id="FT_Flag" class="st0">
	<g class="st2">
		<rect x="-106.8" y="-13.9" class="st5" width="15.8" height="8.4"/>
		<path class="st14" d="M-105.9-6v-7.9h5.3v0.9h-4.3v2.4h3.7v0.9h-3.7V-6H-105.9z"/>
		<path class="st14" d="M-95.5-6V-13h-2.6v-0.9h6.2v0.9h-2.6V-6H-95.5z"/>
	</g>
</g>
<g id="AP_Flag" class="st0">
	<g class="st2">
		<rect x="-330.5" y="-42.9" class="st5" width="16.8" height="8.4"/>
		<path class="st14" d="M-330.5-35l3-7.9h1.1l3.2,7.9h-1.2l-0.9-2.4h-3.3l-0.9,2.4H-330.5z M-328.3-38.2h2.7l-0.8-2.2
			c-0.3-0.7-0.4-1.2-0.6-1.6c-0.1,0.5-0.2,1-0.4,1.5L-328.3-38.2z"/>
		<path class="st14" d="M-320.7-35v-7.9h3c0.5,0,0.9,0,1.2,0.1c0.4,0.1,0.7,0.2,1,0.4c0.3,0.2,0.5,0.4,0.6,0.8s0.2,0.7,0.2,1.1
			c0,0.7-0.2,1.2-0.6,1.7c-0.4,0.5-1.2,0.7-2.3,0.7h-2v3.2H-320.7z M-319.6-39.1h2c0.7,0,1.2-0.1,1.4-0.4s0.4-0.6,0.4-1.1
			c0-0.3-0.1-0.6-0.3-0.8c-0.2-0.2-0.4-0.4-0.7-0.5c-0.2,0-0.5-0.1-1-0.1h-2V-39.1z"/>
	</g>
	<polygon class="st16" points="-314,-45.2 -330.9,-45.2 -332.4,-46.6 -312.7,-46.6 	"/>
	<polygon class="st16" points="-313.7,-32 -330.6,-32 -332.1,-30.6 -312.4,-30.6 	"/>
	<polygon class="st16" points="-313,-44.7 -313,-32.7 -311.5,-31.7 -311.5,-45.6 	"/>
	<polygon class="st16" points="-331.9,-44.7 -331.9,-32.7 -333.4,-31.7 -333.4,-45.6 	"/>
</g>
</svg>
