<?xml version="1.0" encoding="utf-8"?>
<!-- Generator: Adobe Illustrator 19.0.0, SVG Export Plug-In . SVG Version: 6.00 Build 0)  -->
<svg version="1.1" xmlns="http://www.w3.org/2000/svg" xmlns:xlink="http://www.w3.org/1999/xlink" x="0px" y="0px"
	 viewBox="0 0 45 45" style="enable-background:new 0 0 45 45;" xml:space="preserve">
<style type="text/css">
	.st0{display:none;}
	.st1{display:inline;fill:#282828;stroke:#E5E5E5;stroke-width:2;stroke-miterlimit:10;}
	.st2{display:inline;}
	.st3{display:inline;fill:#58595B;}
	.st4{display:inline;fill:none;stroke:#414042;stroke-width:2;stroke-miterlimit:10;}
	.st5{fill:none;}
	.st6{fill:#414042;}
	.st7{display:inline;fill:none;stroke:#FFFFFF;stroke-miterlimit:10;}
	.st8{fill:#FFFFFF;}
	.st9{display:inline;fill:#3F403F;stroke:#000000;stroke-miterlimit:10;}
	.st10{fill:none;stroke:#000000;stroke-width:1.5;stroke-miterlimit:10;stroke-dasharray:1.5093,1.5093;}
	.st11{fill:#3F403F;stroke:#000000;stroke-width:2;stroke-miterlimit:10;}
	.st12{fill:none;stroke:#000000;stroke-width:1.5;stroke-miterlimit:10;stroke-dasharray:1.5898,1.5898;}
	.st13{display:inline;fill:#FFFFFF;stroke:#FFFFFF;stroke-miterlimit:10;}
	.st14{fill:#F7941E;}
	.st15{fill:#ED1C24;}
	.st16{display:inline;fill:#F7941E;}
</style>
<g id="Layer_1" class="st0">
	<path id="XMLID_814_" class="st1" d="M76.5,77.6h-586.7c-1.7,0-3-0.9-3-2v-150c0-1.1,1.3-2,3-2H76.5c1.7,0,3,0.9,3,2v150
		C79.5,76.7,78.1,77.6,76.5,77.6z"/>
</g>
<g id="Base" class="st0">
	<path class="st2" d="M-94.3-0.6c0,4.3-2.1,7.8-4.7,7.8h-321.5c-2.6,0-4.7-3.5-4.7-7.8V-53c0-4.3,2.1-7.8,4.7-7.8H-99
		c2.6,0,4.7,3.5,4.7,7.8V-0.6z"/>
	<circle class="st3" cx="-56.8" cy="-41.9" r="5.7"/>
	<line class="st4" x1="-62.5" y1="-41.9" x2="-51" y2="-41.9"/>
	<g class="st2">
		<rect x="-471.3" y="19.4" class="st5" width="12.6" height="13.5"/>
		<path class="st6" d="M-470.5,28v-8.6h3.7c0.9,0,1.6,0.1,2,0.2s0.7,0.4,1,0.8s0.4,0.8,0.4,1.4c0,0.6-0.2,1.2-0.6,1.6
			s-0.9,0.7-1.7,0.8c0.4,0.2,0.7,0.5,0.9,0.7s0.6,0.7,1,1.4l1,1.7h-2.1l-1.3-1.9c-0.4-0.7-0.8-1.1-0.9-1.3s-0.3-0.3-0.5-0.4
			s-0.5-0.1-0.9-0.1h-0.4V28H-470.5z M-468.7,23h1.3c0.8,0,1.4,0,1.6-0.1s0.4-0.2,0.5-0.4s0.2-0.4,0.2-0.6c0-0.3-0.1-0.5-0.2-0.7
			s-0.4-0.3-0.7-0.3c-0.1,0-0.6,0-1.3,0h-1.4V23z"/>
	</g>
	<g class="st2">
		<rect x="-490.2" y="19.4" class="st5" width="10" height="13.5"/>
		<path class="st6" d="M-489.3,28v-8.6h2.8c1.1,0,1.7,0,2.1,0.1c0.5,0.1,0.9,0.4,1.2,0.8s0.5,1,0.5,1.7c0,0.5-0.1,1-0.3,1.3
			s-0.4,0.6-0.7,0.8s-0.6,0.3-0.9,0.4c-0.4,0.1-1,0.1-1.8,0.1h-1.1V28H-489.3z M-487.6,20.9v2.4h0.9c0.7,0,1.1,0,1.4-0.1
			s0.4-0.2,0.5-0.4s0.2-0.4,0.2-0.7c0-0.3-0.1-0.6-0.3-0.8s-0.4-0.3-0.7-0.4c-0.2,0-0.6-0.1-1.2-0.1H-487.6z"/>
	</g>
	<path class="st7" d="M-35.8,56.3c0,2.8-1.9,5.1-4.3,5.1h-34.4c-2.4,0-4.3-2.3-4.3-5.1v-70.9c0-2.8,1.9-5.1,4.3-5.1h34.4
		c2.4,0,4.3,2.3,4.3,5.1V56.3z"/>
</g>
<g id="Labels" class="st0">
	<g class="st2">
		<rect x="-492.1" y="-54.6" class="st5" width="41.6" height="9.1"/>
		<path class="st8" d="M-491.4-47.2v-7.4h1v3.7l3.7-3.7h1.3l-3.1,3l3.3,4.4h-1.3l-2.6-3.8l-1.2,1.2v2.6H-491.4z"/>
		<path class="st8" d="M-485.2-47.2l2.9-7.4h1.1l3,7.4h-1.1l-0.9-2.3h-3.1l-0.8,2.3H-485.2z M-483.1-50.3h2.5l-0.8-2.1
			c-0.2-0.6-0.4-1.1-0.5-1.5c-0.1,0.5-0.2,1-0.4,1.4L-483.1-50.3z"/>
		<path class="st8" d="M-477.5-47.2v-7.4h2.8c0.5,0,0.9,0,1.1,0.1c0.4,0.1,0.7,0.2,0.9,0.3s0.4,0.4,0.6,0.7s0.2,0.6,0.2,1
			c0,0.6-0.2,1.2-0.6,1.6c-0.4,0.4-1.1,0.7-2.2,0.7h-1.9v3H-477.5z M-476.5-51.1h1.9c0.6,0,1.1-0.1,1.4-0.4c0.3-0.2,0.4-0.6,0.4-1
			c0-0.3-0.1-0.6-0.2-0.8s-0.4-0.4-0.6-0.4c-0.2,0-0.5-0.1-0.9-0.1h-1.9V-51.1z"/>
		<path class="st8" d="M-464.8-47.2h-0.9V-53c-0.2,0.2-0.5,0.4-0.9,0.6s-0.7,0.4-1,0.5v-0.9c0.5-0.2,1-0.5,1.3-0.9
			c0.4-0.3,0.7-0.7,0.8-1h0.6V-47.2z"/>
		<path class="st8" d="M-459.5-47.2V-49h-3.2v-0.8l3.4-4.8h0.7v4.8h1v0.8h-1v1.8H-459.5z M-459.5-49.8v-3.4l-2.3,3.4H-459.5z"/>
		<path class="st8" d="M-456.7-50.9c0-0.9,0.1-1.6,0.3-2.1c0.2-0.5,0.4-0.9,0.8-1.2s0.8-0.4,1.3-0.4c0.4,0,0.7,0.1,1.1,0.2
			c0.3,0.2,0.5,0.4,0.7,0.7c0.2,0.3,0.4,0.7,0.5,1.1c0.1,0.4,0.2,1,0.2,1.8c0,0.9-0.1,1.6-0.3,2.1c-0.2,0.5-0.4,1-0.8,1.2
			c-0.4,0.3-0.8,0.4-1.4,0.4c-0.7,0-1.3-0.3-1.7-0.8C-456.4-48.5-456.7-49.5-456.7-50.9z M-455.7-50.9c0,1.2,0.1,2,0.4,2.4
			c0.3,0.4,0.6,0.6,1.1,0.6s0.8-0.2,1.1-0.6c0.3-0.4,0.4-1.2,0.4-2.4c0-1.2-0.1-2-0.4-2.4c-0.3-0.4-0.6-0.6-1.1-0.6
			c-0.4,0-0.8,0.2-1,0.5C-455.6-52.9-455.7-52.1-455.7-50.9z"/>
	</g>
	<g class="st2">
		<rect x="-504.3" y="-66.5" class="st5" width="59.6" height="7.2"/>
		<path class="st8" d="M-503.9-60.2l1.3-6.3h2.2c0.5,0,0.8,0,1,0c0.3,0,0.6,0.1,0.8,0.3c0.2,0.1,0.4,0.3,0.5,0.5
			c0.1,0.2,0.2,0.5,0.2,0.7c0,0.3-0.1,0.7-0.3,0.9c-0.2,0.3-0.5,0.5-0.9,0.6c0.3,0.1,0.6,0.2,0.8,0.5s0.3,0.5,0.3,0.8
			c0,0.4-0.1,0.7-0.3,1.1c-0.2,0.3-0.5,0.6-0.9,0.7s-0.9,0.2-1.5,0.2H-503.9z M-502.4-61.3h1.2c0.5,0,0.9,0,1.1-0.1
			c0.2-0.1,0.3-0.2,0.4-0.3c0.1-0.2,0.2-0.3,0.2-0.5c0-0.2-0.1-0.4-0.2-0.5c-0.2-0.1-0.4-0.2-0.8-0.2h-1.5L-502.4-61.3z M-501.8-64
			h1c0.4,0,0.8,0,1-0.1c0.2-0.1,0.3-0.2,0.4-0.3c0.1-0.1,0.1-0.3,0.1-0.5c0-0.2,0-0.3-0.1-0.4s-0.2-0.2-0.4-0.2c-0.1,0-0.3,0-0.7,0
			h-1L-501.8-64z"/>
		<path class="st8" d="M-497.5-60.2l1.3-6.3h4.7l-0.2,1.1h-3.4l-0.3,1.4h3.3l-0.2,1.1h-3.3l-0.4,1.7h3.7l-0.2,1.1H-497.5z"/>
		<path class="st8" d="M-486.6-60.2h-1.2l-1.7-4.2l-0.9,4.2h-1.2l1.3-6.3h1.2l1.7,4.2l0.9-4.2h1.2L-486.6-60.2z"/>
		<path class="st8" d="M-485.3-60.2l1.3-6.3h1.7c0.5,0,0.8,0,0.9,0c0.3,0,0.5,0.1,0.7,0.2c0.2,0.1,0.4,0.2,0.6,0.3s0.3,0.3,0.4,0.5
			s0.2,0.4,0.3,0.7c0.1,0.3,0.1,0.6,0.1,0.9c0,0.7-0.1,1.3-0.4,1.8c-0.3,0.5-0.6,0.9-1,1.3c-0.3,0.2-0.7,0.4-1.2,0.5
			c-0.3,0.1-0.7,0.1-1.2,0.1H-485.3z M-483.8-61.3h0.7c0.5,0,0.8,0,1-0.1c0.2-0.1,0.4-0.2,0.6-0.3c0.3-0.2,0.5-0.5,0.6-0.9
			c0.2-0.4,0.3-0.8,0.3-1.4c0-0.4-0.1-0.8-0.2-1s-0.3-0.4-0.5-0.4c-0.1-0.1-0.4-0.1-0.8-0.1h-0.8L-483.8-61.3z"/>
		<path class="st8" d="M-479-60.2l1.3-6.3h1.3l-1.3,6.3H-479z"/>
		<path class="st8" d="M-475.5-60.2h-1.7l2.8-3.2l-1.6-3.1h1.4l0.6,1.2c0,0,0.2,0.3,0.4,0.9c0,0,0,0.1,0.1,0.1
			c0.3-0.4,0.6-0.8,0.9-1l1-1.1h1.6l-2.9,3.3l1.5,3h-1.5l-0.5-0.9c-0.2-0.5-0.4-0.9-0.5-1.1c-0.1,0.2-0.4,0.5-0.9,1L-475.5-60.2z"/>
		<path class="st8" d="M-471.4-60.1l3.1-6.5h0.9l-3.1,6.5H-471.4z"/>
		<path class="st8" d="M-468.2-60.2l1.3-6.3h1.3l-0.6,2.7l2.9-2.7h1.7l-2.8,2.5l2.1,3.8h-1.5l-1.6-3l-1.2,1.1l-0.4,1.9H-468.2z"/>
		<path class="st8" d="M-461.9-60.2l1.3-6.3h1.3l-1.3,6.3H-461.9z"/>
		<path class="st8" d="M-454.4-60.2h-1.2l-1.7-4.2l-0.9,4.2h-1.2l1.3-6.3h1.2l1.7,4.2l0.9-4.2h1.2L-454.4-60.2z"/>
		<path class="st8" d="M-449.6-63.6h2.8l-0.6,2.7c-0.3,0.2-0.7,0.4-1.2,0.5c-0.5,0.1-1,0.2-1.5,0.2c-0.8,0-1.4-0.2-1.8-0.5
			c-0.6-0.5-0.9-1.2-0.9-2.1c0-0.6,0.1-1.2,0.4-1.8c0.3-0.7,0.7-1.2,1.2-1.6s1.2-0.6,1.9-0.6s1.3,0.2,1.7,0.5s0.7,0.8,0.9,1.5
			l-1.2,0.1c-0.1-0.4-0.3-0.6-0.5-0.8c-0.2-0.2-0.5-0.3-0.9-0.3c-0.4,0-0.8,0.1-1.2,0.3s-0.6,0.6-0.8,1c-0.2,0.5-0.3,1-0.3,1.5
			c0,0.5,0.1,0.9,0.4,1.2c0.2,0.3,0.6,0.4,1.1,0.4c0.3,0,0.6,0,0.9-0.1c0.3-0.1,0.5-0.2,0.8-0.3l0.2-0.9h-1.6L-449.6-63.6z"/>
	</g>
</g>
<g id="Outer_Knob_R" class="st0">
	<path class="st9" d="M53.4,22.5c0,17-13.8,30.9-30.9,30.9C5.5,53.4-8.4,39.6-8.4,22.5C-8.4,5.5,5.5-8.4,22.5-8.4
		C39.6-8.4,53.4,5.5,53.4,22.5z"/>
	<g class="st2">
		<g>
			<path class="st10" d="M54.2,22.5C54.2,40,40,54.2,22.5,54.2C5,54.2-9.2,40-9.2,22.5C-9.2,5,5-9.2,22.5-9.2
				C40-9.2,54.2,5,54.2,22.5z"/>
		</g>
	</g>
</g>
<g id="Inner_Knob_R">
	<g>
		<circle class="st11" cx="22.5" cy="22.5" r="20.8"/>
		<g>
			<path class="st12" d="M44.3,22.5c0,12-9.7,21.8-21.8,21.8S0.8,34.5,0.8,22.5c0-12,9.7-21.8,21.8-21.8S44.3,10.5,44.3,22.5z"/>
		</g>
	</g>
</g>
<g id="BARO_Button" class="st0">
	<path class="st13" d="M55.3-44.8c0,1.1-0.9,2-2,2H25.2c-1.1,0-2-0.9-2-2v-14.8c0-1.1,0.9-2,2-2h28.1c1.1,0,2,0.9,2,2V-44.8z"/>
	<g class="st2">
		<path d="M25.3-47.8v-7.9h2.8c0.6,0,1,0.1,1.3,0.2c0.3,0.2,0.6,0.4,0.8,0.7s0.3,0.7,0.3,1.1c0,0.4-0.1,0.7-0.3,1
			c-0.2,0.3-0.4,0.5-0.8,0.7c0.4,0.1,0.8,0.4,1,0.7c0.2,0.3,0.4,0.7,0.4,1.2c0,0.5-0.1,0.9-0.3,1.3s-0.5,0.6-0.9,0.8
			s-0.9,0.2-1.5,0.2H25.3z M26.3-52.4h1.6c0.4,0,0.7,0,0.9-0.1c0.3-0.1,0.5-0.2,0.6-0.4c0.1-0.2,0.2-0.4,0.2-0.7
			c0-0.3-0.1-0.5-0.2-0.7c-0.1-0.2-0.3-0.3-0.5-0.4c-0.2-0.1-0.6-0.1-1.1-0.1h-1.5V-52.4z M26.3-48.8h1.9c0.4,0,0.7,0,0.9-0.1
			c0.3-0.1,0.5-0.2,0.6-0.5s0.2-0.5,0.2-0.8c0-0.3-0.1-0.5-0.2-0.8s-0.3-0.4-0.6-0.5s-0.6-0.1-1.1-0.1h-1.7V-48.8z"/>
		<path d="M31.4-47.8l2.9-7.9h1.1l3,7.9h-1.1l-0.9-2.4h-3.1l-0.8,2.4H31.4z M33.6-51.1h2.5l-0.8-2.2c-0.2-0.7-0.4-1.2-0.5-1.6
			c-0.1,0.5-0.2,1-0.4,1.5L33.6-51.1z"/>
		<path d="M39.2-47.8v-7.9h3.3c0.7,0,1.2,0.1,1.5,0.2c0.3,0.1,0.6,0.4,0.8,0.7s0.3,0.7,0.3,1.2c0,0.6-0.2,1.1-0.5,1.4
			c-0.4,0.4-0.9,0.6-1.6,0.7c0.3,0.1,0.5,0.3,0.6,0.4c0.3,0.3,0.6,0.6,0.8,1l1.3,2.1h-1.2l-1-1.6c-0.4-0.6-0.7-1.1-0.9-1.3
			s-0.4-0.4-0.6-0.4s-0.4-0.1-0.8-0.1h-1.1v3.5H39.2z M40.2-52.2h2.1c0.5,0,0.8,0,1.1-0.1s0.4-0.2,0.6-0.5c0.1-0.2,0.2-0.5,0.2-0.7
			c0-0.4-0.1-0.7-0.4-0.9s-0.7-0.3-1.2-0.3h-2.4V-52.2z"/>
		<path d="M46.4-51.7c0-1.3,0.3-2.4,1-3.1s1.5-1.1,2.5-1.1c0.7,0,1.3,0.2,1.8,0.5s1,0.8,1.3,1.4s0.5,1.3,0.5,2.2
			c0,1.2-0.3,2.1-0.9,2.9c-0.7,0.8-1.6,1.2-2.6,1.2c-1.1,0-2-0.4-2.7-1.2C46.7-49.7,46.4-50.6,46.4-51.7z M47.4-51.7
			c0,1,0.2,1.7,0.7,2.3c0.5,0.5,1.1,0.8,1.8,0.8c0.7,0,1.3-0.3,1.8-0.8c0.5-0.5,0.7-1.3,0.7-2.4c0-0.7-0.1-1.3-0.4-1.8
			c-0.2-0.4-0.5-0.7-0.9-1C50.9-54.8,50.4-55,50-55c-0.7,0-1.4,0.3-1.8,0.8C47.7-53.6,47.4-52.8,47.4-51.7z"/>
	</g>
</g>
<g id="ARM_Button" class="st0">
	<path class="st13" d="M-3.7-44.8c0,1.1-0.9,2-2,2h-28.1c-1.1,0-2-0.9-2-2v-14.8c0-1.1,0.9-2,2-2h28.1c1.1,0,2,0.9,2,2V-44.8z"/>
	<g class="st2">
		<path d="M-31.3-47.8l2.9-7.9h1.1l3,7.9h-1.1l-0.9-2.4h-3.1l-0.8,2.4H-31.3z M-29.2-51.1h2.5l-0.8-2.2c-0.2-0.7-0.4-1.2-0.5-1.6
			c-0.1,0.5-0.2,1-0.4,1.5L-29.2-51.1z"/>
		<path d="M-23.6-47.8v-7.9h3.3c0.7,0,1.2,0.1,1.5,0.2c0.3,0.1,0.6,0.4,0.8,0.7c0.2,0.3,0.3,0.7,0.3,1.2c0,0.6-0.2,1.1-0.5,1.4
			c-0.4,0.4-0.9,0.6-1.6,0.7c0.3,0.1,0.5,0.3,0.6,0.4c0.3,0.3,0.6,0.6,0.8,1l1.3,2.1h-1.2l-1-1.6c-0.4-0.6-0.7-1.1-0.9-1.3
			c-0.2-0.2-0.4-0.4-0.6-0.4c-0.2-0.1-0.4-0.1-0.8-0.1h-1.1v3.5H-23.6z M-22.6-52.2h2.1c0.5,0,0.8,0,1.1-0.1
			c0.2-0.1,0.4-0.2,0.6-0.5c0.1-0.2,0.2-0.5,0.2-0.7c0-0.4-0.1-0.7-0.4-0.9c-0.3-0.2-0.7-0.3-1.2-0.3h-2.4V-52.2z"/>
		<path d="M-16.1-47.8v-7.9h1.5l1.8,5.6l0.4,1.2c0.1-0.3,0.2-0.7,0.4-1.3l1.8-5.5H-9v7.9h-0.9v-6.6l-2.2,6.6H-13l-2.2-6.7v6.7H-16.1
			z"/>
	</g>
</g>
<g id="DN_Button" class="st0">
	<path class="st13" d="M-40.7,52.2c0,1.1-0.9,2-2,2h-28.1c-1.1,0-2-0.9-2-2V37.4c0-1.1,0.9-2,2-2h28.1c1.1,0,2,0.9,2,2V52.2z"/>
	<g class="st2">
		<path d="M-63.5,49.2v-7.9h2.6c0.6,0,1.1,0,1.4,0.1c0.4,0.1,0.8,0.4,1.1,0.7c0.3,0.3,0.6,0.8,0.7,1.3s0.3,1.1,0.3,1.8
			c0,0.9-0.2,1.6-0.5,2.3c-0.3,0.6-0.7,1.1-1.2,1.3s-1.1,0.4-1.9,0.4H-63.5z M-62.5,48.2h1.6c0.6,0,1.1-0.1,1.5-0.3
			c0.3-0.2,0.6-0.5,0.8-0.9c0.2-0.5,0.4-1.2,0.4-1.9c0-0.8-0.1-1.4-0.4-1.9c-0.3-0.5-0.6-0.8-1-0.9c-0.3-0.1-0.7-0.2-1.3-0.2h-1.6
			V48.2z"/>
		<path d="M-56,49.2v-7.9h1l3.9,6.2v-6.2h0.9v7.9h-1L-55,43v6.2H-56z"/>
	</g>
</g>
<g id="UP_Button" class="st0">
	<path class="st13" d="M-40.7,4.3c0,1.1-0.9,2-2,2h-28.1c-1.1,0-2-0.9-2-2v-14.8c0-1.1,0.9-2,2-2h28.1c1.1,0,2,0.9,2,2V4.3z"/>
	<g class="st2">
		<path d="M-58.2-6.6h1v4.5c0,0.8-0.1,1.4-0.3,1.9C-57.7,0.3-58,0.7-58.4,1s-1,0.4-1.7,0.4c-1,0-1.7-0.3-2.2-0.8
			c-0.5-0.5-0.7-1.4-0.7-2.7v-4.5h1v4.5c0,0.7,0.1,1.2,0.2,1.5c0.1,0.3,0.3,0.6,0.6,0.7c0.3,0.2,0.6,0.3,1.1,0.3
			c0.7,0,1.2-0.2,1.5-0.5s0.5-1,0.5-2V-6.6z"/>
		<path d="M-55.6,1.3v-7.9h2.8c0.7,0,1.1,0,1.5,0.2c0.4,0.1,0.8,0.4,1,0.8c0.3,0.4,0.4,0.8,0.4,1.4c0,0.7-0.2,1.3-0.6,1.7
			c-0.4,0.4-1.1,0.7-2.2,0.7h-1.9v3.2H-55.6z M-54.6-2.9h1.9c0.6,0,1.1-0.1,1.3-0.4c0.3-0.2,0.4-0.6,0.4-1.1c0-0.3-0.1-0.6-0.2-0.8
			c-0.1-0.2-0.3-0.4-0.5-0.5c-0.2-0.1-0.6-0.1-1.1-0.1h-1.9V-2.9z"/>
	</g>
</g>
<g id="ALT_Button" class="st0">
	<path class="st13" d="M-92.7,56.3c0,1.1-0.9,2-2,2h-28.1c-1.1,0-2-0.9-2-2V41.5c0-1.1,0.9-2,2-2h28.1c1.1,0,2,0.9,2,2V56.3z"/>
	<g class="st2">
		<path d="M-117.8,53.3l2.9-7.9h1.1l3,7.9h-1.1l-0.9-2.4h-3.1l-0.8,2.4H-117.8z M-115.7,50h2.5l-0.8-2.2c-0.2-0.7-0.4-1.2-0.5-1.6
			c-0.1,0.5-0.2,1-0.4,1.5L-115.7,50z"/>
		<path d="M-110.1,53.3v-7.9h1v6.9h3.7v0.9H-110.1z"/>
		<path d="M-103.2,53.3v-6.9h-2.5v-0.9h5.9v0.9h-2.5v6.9H-103.2z"/>
	</g>
</g>
<g id="REV_Button" class="st0">
	<path class="st13" d="M-152.7,56.3c0,1.1-0.9,2-2,2h-28.1c-1.1,0-2-0.9-2-2V41.5c0-1.1,0.9-2,2-2h28.1c1.1,0,2,0.9,2,2V56.3z"/>
	<g class="st2">
		<path d="M-178.7,53.3v-7.9h3.3c0.7,0,1.2,0.1,1.5,0.2c0.3,0.1,0.6,0.4,0.8,0.7c0.2,0.3,0.3,0.7,0.3,1.2c0,0.6-0.2,1.1-0.5,1.4
			c-0.4,0.4-0.9,0.6-1.6,0.7c0.3,0.1,0.5,0.3,0.6,0.4c0.3,0.3,0.6,0.6,0.8,1l1.3,2.1h-1.2l-1-1.6c-0.4-0.6-0.7-1.1-0.9-1.3
			c-0.2-0.2-0.4-0.4-0.6-0.4s-0.4-0.1-0.8-0.1h-1.1v3.5H-178.7z M-177.7,48.9h2.1c0.5,0,0.8,0,1.1-0.1c0.2-0.1,0.4-0.2,0.6-0.5
			c0.1-0.2,0.2-0.5,0.2-0.7c0-0.4-0.1-0.7-0.4-0.9c-0.3-0.2-0.7-0.3-1.2-0.3h-2.4V48.9z"/>
		<path d="M-171.1,53.3v-7.9h5.4v0.9h-4.4v2.4h4.1v0.9h-4.1v2.7h4.6v0.9H-171.1z"/>
		<path d="M-162.1,53.3l-2.9-7.9h1.1l1.9,5.7c0.1,0.4,0.3,0.9,0.4,1.3c0.1-0.4,0.2-0.9,0.4-1.3l2-5.7h1l-2.9,7.9H-162.1z"/>
	</g>
</g>
<g id="APR_Button" class="st0">
	<path class="st13" d="M-219.7,56.3c0,1.1-0.9,2-2,2h-28.1c-1.1,0-2-0.9-2-2V41.5c0-1.1,0.9-2,2-2h28.1c1.1,0,2,0.9,2,2V56.3z"/>
	<g class="st2">
		<path d="M-246.5,53.3l2.9-7.9h1.1l3,7.9h-1.1l-0.9-2.4h-3.1l-0.8,2.4H-246.5z M-244.3,50h2.5l-0.8-2.2c-0.2-0.7-0.4-1.2-0.5-1.6
			c-0.1,0.5-0.2,1-0.4,1.5L-244.3,50z"/>
		<path d="M-238.7,53.3v-7.9h2.8c0.7,0,1.1,0,1.5,0.2c0.4,0.1,0.8,0.4,1,0.8c0.3,0.4,0.4,0.8,0.4,1.4c0,0.7-0.2,1.3-0.6,1.7
			c-0.4,0.4-1.1,0.7-2.2,0.7h-1.9v3.2H-238.7z M-237.7,49.1h1.9c0.6,0,1.1-0.1,1.3-0.4s0.4-0.6,0.4-1.1c0-0.3-0.1-0.6-0.2-0.8
			c-0.1-0.2-0.3-0.4-0.5-0.5c-0.2-0.1-0.6-0.1-1.1-0.1h-1.9V49.1z"/>
		<path d="M-231.8,53.3v-7.9h3.3c0.7,0,1.2,0.1,1.5,0.2c0.3,0.1,0.6,0.4,0.8,0.7s0.3,0.7,0.3,1.2c0,0.6-0.2,1.1-0.5,1.4
			c-0.4,0.4-0.9,0.6-1.6,0.7c0.3,0.1,0.5,0.3,0.6,0.4c0.3,0.3,0.6,0.6,0.8,1l1.3,2.1h-1.2l-1-1.6c-0.4-0.6-0.7-1.1-0.9-1.3
			s-0.4-0.4-0.6-0.4c-0.2-0.1-0.4-0.1-0.8-0.1h-1.1v3.5H-231.8z M-230.8,48.9h2.1c0.5,0,0.8,0,1.1-0.1c0.2-0.1,0.4-0.2,0.6-0.5
			c0.1-0.2,0.2-0.5,0.2-0.7c0-0.4-0.1-0.7-0.4-0.9s-0.7-0.3-1.2-0.3h-2.4V48.9z"/>
	</g>
</g>
<g id="Nav_Button" class="st0">
	<path class="st13" d="M-288.7,56.3c0,1.1-0.9,2-2,2h-28.1c-1.1,0-2-0.9-2-2V41.5c0-1.1,0.9-2,2-2h28.1c1.1,0,2,0.9,2,2V56.3z"/>
	<g class="st2">
		<path d="M-314.3,53.3v-7.9h1l3.9,6.2v-6.2h0.9v7.9h-1l-3.9-6.2v6.2H-314.3z"/>
		<path d="M-307.6,53.3l2.9-7.9h1.1l3,7.9h-1.1l-0.9-2.4h-3.1l-0.8,2.4H-307.6z M-305.4,50h2.5l-0.8-2.2c-0.2-0.7-0.4-1.2-0.5-1.6
			c-0.1,0.5-0.2,1-0.4,1.5L-305.4,50z"/>
		<path d="M-298.4,53.3l-2.9-7.9h1.1l1.9,5.7c0.1,0.4,0.3,0.9,0.4,1.3c0.1-0.4,0.2-0.9,0.4-1.3l2-5.7h1l-2.9,7.9H-298.4z"/>
	</g>
</g>
<g id="HGD_Button" class="st0">
	<path class="st13" d="M-356.9,56.3c0,1.1-0.9,2-2,2h-28.1c-1.1,0-2-0.9-2-2V41.5c0-1.1,0.9-2,2-2h28.1c1.1,0,2,0.9,2,2V56.3z"/>
	<g class="st2">
		<path d="M-383.7,53.3v-7.9h1v3.2h3.9v-3.2h1v7.9h-1v-3.7h-3.9v3.7H-383.7z"/>
		<path d="M-376.2,53.3v-7.9h2.6c0.6,0,1.1,0,1.4,0.1c0.4,0.1,0.8,0.4,1.1,0.7c0.3,0.3,0.6,0.8,0.7,1.3c0.2,0.5,0.3,1.1,0.3,1.8
			c0,0.9-0.2,1.6-0.5,2.3c-0.3,0.6-0.7,1.1-1.2,1.3c-0.5,0.3-1.1,0.4-1.9,0.4H-376.2z M-375.3,52.3h1.6c0.6,0,1.1-0.1,1.5-0.3
			c0.3-0.2,0.6-0.5,0.8-0.9c0.2-0.5,0.4-1.2,0.4-1.9c0-0.8-0.1-1.4-0.4-1.9c-0.3-0.5-0.6-0.8-1-0.9c-0.3-0.1-0.7-0.2-1.3-0.2h-1.6
			V52.3z"/>
		<path d="M-365.2,50.2v-0.9l3.2,0v2.9c-0.5,0.4-1,0.7-1.5,0.9s-1,0.3-1.6,0.3c-0.7,0-1.4-0.2-1.9-0.5s-1-0.8-1.4-1.4
			s-0.5-1.3-0.5-2.2c0-0.9,0.2-1.6,0.5-2.2s0.8-1.1,1.3-1.4c0.5-0.3,1.2-0.5,1.9-0.5c0.5,0,1,0.1,1.4,0.3c0.4,0.2,0.7,0.4,1,0.7
			s0.5,0.8,0.6,1.3l-0.9,0.3c-0.1-0.4-0.3-0.8-0.5-1c-0.2-0.2-0.4-0.4-0.7-0.5c-0.3-0.1-0.6-0.2-1-0.2c-0.5,0-1,0.1-1.4,0.3
			c-0.4,0.2-0.7,0.6-0.9,1.1c-0.2,0.5-0.4,1.1-0.4,1.8c0,1.1,0.3,1.8,0.8,2.4c0.5,0.5,1.2,0.8,2,0.8c0.4,0,0.8-0.1,1.2-0.2
			c0.4-0.2,0.7-0.4,1-0.6v-1.5H-365.2z"/>
	</g>
</g>
<g id="AP_Button" class="st0">
	<path class="st13" d="M-460.8,57.3c0,1.1-0.9,2-2,2H-491c-1.1,0-2-0.9-2-2V42.5c0-1.1,0.9-2,2-2h28.1c1.1,0,2,0.9,2,2V57.3z"/>
	<g class="st2">
		<path d="M-484.4,54.3l2.9-7.9h1.1l3,7.9h-1.1l-0.9-2.4h-3.1l-0.8,2.4H-484.4z M-482.3,51h2.5l-0.8-2.2c-0.2-0.7-0.4-1.2-0.5-1.6
			c-0.1,0.5-0.2,1-0.4,1.5L-482.3,51z"/>
		<path d="M-476.7,54.3v-7.9h2.8c0.7,0,1.1,0,1.5,0.2c0.4,0.1,0.8,0.4,1,0.8c0.3,0.4,0.4,0.8,0.4,1.4c0,0.7-0.2,1.3-0.6,1.7
			c-0.4,0.4-1.1,0.7-2.2,0.7h-1.9v3.2H-476.7z M-475.7,50.1h1.9c0.6,0,1.1-0.1,1.3-0.4s0.4-0.6,0.4-1.1c0-0.3-0.1-0.6-0.2-0.8
			c-0.1-0.2-0.3-0.4-0.5-0.5c-0.2-0.1-0.6-0.1-1.1-0.1h-1.9V50.1z"/>
	</g>
</g>
<g id="Text" class="st0">
	<g class="st2">
		<rect x="-423.2" y="-57.1" class="st5" width="65" height="25.3"/>
		<path class="st14" d="M-417.7-45.3l-1.1,9.2l-1,0.8l-0.8-1l1.1-9.2l1-0.8L-417.7-45.3z M-409.5-34.7l0.8,1l-1,0.8l-9.1-1.1l-0.8-1
			l1-0.8L-409.5-34.7z M-416.3-56.6l-1.1,9.2l-1,0.8l-0.8-1l1.1-9.2l1-0.8L-416.3-56.6z M-413-45.2l0.3,1.4l-3.9,7.1l-1.2,0.5
			l-0.3-1.5l3.9-7L-413-45.2z M-406.7-57.4l0.8,1l-1,0.8l-9.1-1.1l-0.8-1l1-0.8L-406.7-57.4z M-407.7-55.1l0.3,1.4l-3.9,7.1
			l-1.2,0.5l-0.3-1.5l3.9-7L-407.7-55.1z M-406.4-43.9l-1.1,9.2l-1,0.8l-0.8-1l1.1-9.2l1-0.8L-406.4-43.9z M-405-55.2l-1.1,9.2
			l-1,0.8l-0.8-1l1.1-9.2l1-0.8L-405-55.2z"/>
		<path class="st14" d="M-396.1-45.3l-1.1,9.2l-1,0.8l-0.8-1l1.1-9.2l1-0.8L-396.1-45.3z M-387.9-34.7l0.8,1l-1,0.8l-9.1-1.1l-0.8-1
			l1-0.8L-387.9-34.7z M-394.7-56.6l-1.1,9.2l-1,0.8l-0.8-1l1.1-9.2l1-0.8L-394.7-56.6z M-391.4-45.2l0.3,1.4l-3.9,7.1l-1.2,0.5
			l-0.3-1.5l3.9-7L-391.4-45.2z M-385.1-57.4l0.8,1l-1,0.8l-9.1-1.1l-0.8-1l1-0.8L-385.1-57.4z M-386.1-55.1l0.3,1.4l-3.9,7.1
			l-1.2,0.5l-0.3-1.5l3.9-7L-386.1-55.1z M-384.8-43.9l-1.1,9.2l-1,0.8l-0.8-1l1.1-9.2l1-0.8L-384.8-43.9z M-383.4-55.2l-1.1,9.2
			l-1,0.8l-0.8-1l1.1-9.2l1-0.8L-383.4-55.2z"/>
		<path class="st14" d="M-374.5-45.3l-1.1,9.2l-1,0.8l-0.8-1l1.1-9.2l1-0.8L-374.5-45.3z M-366.2-34.7l0.8,1l-1,0.8l-9.1-1.1l-0.8-1
			l1-0.8L-366.2-34.7z M-373.1-56.6l-1.1,9.2l-1,0.8l-0.8-1l1.1-9.2l1-0.8L-373.1-56.6z M-369.8-45.2l0.3,1.4l-3.9,7.1l-1.2,0.5
			l-0.3-1.5l3.9-7L-369.8-45.2z M-363.5-57.4l0.8,1l-1,0.8l-9.1-1.1l-0.8-1l1-0.8L-363.5-57.4z M-364.5-55.1l0.3,1.4l-3.9,7.1
			l-1.2,0.5l-0.3-1.5l3.9-7L-364.5-55.1z M-363.2-43.9l-1.1,9.2l-1,0.8l-0.8-1l1.1-9.2l1-0.8L-363.2-43.9z M-361.8-55.2l-1.1,9.2
			l-1,0.8l-0.8-1l1.1-9.2l1-0.8L-361.8-55.2z"/>
	</g>
	<g class="st2">
		<rect x="-425.2" y="-23.1" class="st5" width="65" height="25.3"/>
		<path class="st14" d="M-421.6-22.1v9.3l-0.9,0.9l-0.9-0.9v-9.3l0.9-0.9L-421.6-22.1z M-421.6-10.6v9.3l-0.9,0.9l-0.9-0.9v-9.3
			l0.9-0.9L-421.6-10.6z M-412.2-24l0.9,0.9l-0.9,0.9h-9.2l-0.9-0.9l0.9-0.9H-412.2z M-412.1-1.2l0.9,0.9l-0.9,0.9h-9.2l-0.9-0.9
			l0.9-0.9H-412.1z M-416.9-11.1l0.5,1.3l-3,7.5l-1.2,0.6l-0.5-1.4l3-7.4L-416.9-11.1z M-412.9-21.6l0.5,1.3l-3,7.5l-1.2,0.6
			l-0.5-1.4l3-7.4L-412.9-21.6z M-410.1-22.1v9.3l-0.9,0.9l-0.9-0.9v-9.3l0.9-0.9L-410.1-22.1z M-410.1-10.6v9.3l-0.9,0.9l-0.9-0.9
			v-9.3l0.9-0.9L-410.1-10.6z"/>
		<path class="st14" d="M-398.7-22.1v9.3l-0.9,0.9l-0.9-0.9v-9.3l0.9-0.9L-398.7-22.1z M-398.7-10.6v9.3l-0.9,0.9l-0.9-0.9v-9.3
			l0.9-0.9L-398.7-10.6z M-389.3-24l0.9,0.9l-0.9,0.9h-9.2l-0.9-0.9l0.9-0.9H-389.3z M-389.2-1.2l0.9,0.9l-0.9,0.9h-9.2l-0.9-0.9
			l0.9-0.9H-389.2z M-394-11.1l0.5,1.3l-3,7.5l-1.2,0.6l-0.5-1.4l3-7.4L-394-11.1z M-390-21.6l0.5,1.3l-3,7.5l-1.2,0.6l-0.5-1.4
			l3-7.4L-390-21.6z M-387.3-22.1v9.3l-0.9,0.9l-0.9-0.9v-9.3l0.9-0.9L-387.3-22.1z M-387.3-10.6v9.3l-0.9,0.9l-0.9-0.9v-9.3
			l0.9-0.9L-387.3-10.6z"/>
		<path class="st14" d="M-375.8-22.1v9.3l-0.9,0.9l-0.9-0.9v-9.3l0.9-0.9L-375.8-22.1z M-375.8-10.6v9.3l-0.9,0.9l-0.9-0.9v-9.3
			l0.9-0.9L-375.8-10.6z M-366.4-24l0.9,0.9l-0.9,0.9h-9.2l-0.9-0.9l0.9-0.9H-366.4z M-366.3-1.2l0.9,0.9l-0.9,0.9h-9.2l-0.9-0.9
			l0.9-0.9H-366.3z M-371.1-11.1l0.5,1.3l-3,7.5l-1.2,0.6l-0.5-1.4l3-7.4L-371.1-11.1z M-367.1-21.6l0.5,1.3l-3,7.5l-1.2,0.6
			l-0.5-1.4l3-7.4L-367.1-21.6z M-364.4-22.1v9.3l-0.9,0.9l-0.9-0.9v-9.3l0.9-0.9L-364.4-22.1z M-364.4-10.6v9.3l-0.9,0.9l-0.9-0.9
			v-9.3l0.9-0.9L-364.4-10.6z"/>
	</g>
	<g class="st2">
		<rect x="-315.2" y="-57.1" class="st5" width="65" height="25.3"/>
		<path class="st14" d="M-309.7-45.3l-1.1,9.2l-1,0.8l-0.8-1l1.1-9.2l1-0.8L-309.7-45.3z M-301.5-34.7l0.8,1l-1,0.8l-9.1-1.1l-0.8-1
			l1-0.8L-301.5-34.7z M-308.3-56.6l-1.1,9.2l-1,0.8l-0.8-1l1.1-9.2l1-0.8L-308.3-56.6z M-305-45.2l0.3,1.4l-3.9,7.1l-1.2,0.5
			l-0.3-1.5l3.9-7L-305-45.2z M-298.7-57.4l0.8,1l-1,0.8l-9.1-1.1l-0.8-1l1-0.8L-298.7-57.4z M-299.7-55.1l0.3,1.4l-3.9,7.1
			l-1.2,0.5l-0.3-1.5l3.9-7L-299.7-55.1z M-298.4-43.9l-1.1,9.2l-1,0.8l-0.8-1l1.1-9.2l1-0.8L-298.4-43.9z M-297-55.2l-1.1,9.2
			l-1,0.8l-0.8-1l1.1-9.2l1-0.8L-297-55.2z"/>
		<path class="st14" d="M-288.1-45.3l-1.1,9.2l-1,0.8l-0.8-1l1.1-9.2l1-0.8L-288.1-45.3z M-279.9-34.7l0.8,1l-1,0.8l-9.1-1.1l-0.8-1
			l1-0.8L-279.9-34.7z M-286.7-56.6l-1.1,9.2l-1,0.8l-0.8-1l1.1-9.2l1-0.8L-286.7-56.6z M-283.4-45.2l0.3,1.4l-3.9,7.1l-1.2,0.5
			l-0.3-1.5l3.9-7L-283.4-45.2z M-277.1-57.4l0.8,1l-1,0.8l-9.1-1.1l-0.8-1l1-0.8L-277.1-57.4z M-278.1-55.1l0.3,1.4l-3.9,7.1
			l-1.2,0.5l-0.3-1.5l3.9-7L-278.1-55.1z M-276.8-43.9l-1.1,9.2l-1,0.8l-0.8-1l1.1-9.2l1-0.8L-276.8-43.9z M-275.4-55.2l-1.1,9.2
			l-1,0.8l-0.8-1l1.1-9.2l1-0.8L-275.4-55.2z"/>
		<path class="st14" d="M-266.5-45.3l-1.1,9.2l-1,0.8l-0.8-1l1.1-9.2l1-0.8L-266.5-45.3z M-258.2-34.7l0.8,1l-1,0.8l-9.1-1.1l-0.8-1
			l1-0.8L-258.2-34.7z M-265.1-56.6l-1.1,9.2l-1,0.8l-0.8-1l1.1-9.2l1-0.8L-265.1-56.6z M-261.8-45.2l0.3,1.4l-3.9,7.1l-1.2,0.5
			l-0.3-1.5l3.9-7L-261.8-45.2z M-255.5-57.4l0.8,1l-1,0.8l-9.1-1.1l-0.8-1l1-0.8L-255.5-57.4z M-256.5-55.1l0.3,1.4l-3.9,7.1
			l-1.2,0.5l-0.3-1.5l3.9-7L-256.5-55.1z M-255.2-43.9l-1.1,9.2l-1,0.8l-0.8-1l1.1-9.2l1-0.8L-255.2-43.9z M-253.8-55.2l-1.1,9.2
			l-1,0.8l-0.8-1l1.1-9.2l1-0.8L-253.8-55.2z"/>
	</g>
	<g class="st2">
		<rect x="-317.2" y="-23.1" class="st5" width="65" height="25.3"/>
		<path class="st14" d="M-313.6-22.1v9.3l-0.9,0.9l-0.9-0.9v-9.3l0.9-0.9L-313.6-22.1z M-313.6-10.6v9.3l-0.9,0.9l-0.9-0.9v-9.3
			l0.9-0.9L-313.6-10.6z M-304.2-24l0.9,0.9l-0.9,0.9h-9.2l-0.9-0.9l0.9-0.9H-304.2z M-304.1-1.2l0.9,0.9l-0.9,0.9h-9.2l-0.9-0.9
			l0.9-0.9H-304.1z M-308.9-11.1l0.5,1.3l-3,7.5l-1.2,0.6l-0.5-1.4l3-7.4L-308.9-11.1z M-304.9-21.6l0.5,1.3l-3,7.5l-1.2,0.6
			l-0.5-1.4l3-7.4L-304.9-21.6z M-302.1-22.1v9.3l-0.9,0.9l-0.9-0.9v-9.3l0.9-0.9L-302.1-22.1z M-302.1-10.6v9.3l-0.9,0.9l-0.9-0.9
			v-9.3l0.9-0.9L-302.1-10.6z"/>
		<path class="st14" d="M-290.7-22.1v9.3l-0.9,0.9l-0.9-0.9v-9.3l0.9-0.9L-290.7-22.1z M-290.7-10.6v9.3l-0.9,0.9l-0.9-0.9v-9.3
			l0.9-0.9L-290.7-10.6z M-281.3-24l0.9,0.9l-0.9,0.9h-9.2l-0.9-0.9l0.9-0.9H-281.3z M-281.2-1.2l0.9,0.9l-0.9,0.9h-9.2l-0.9-0.9
			l0.9-0.9H-281.2z M-286-11.1l0.5,1.3l-3,7.5l-1.2,0.6l-0.5-1.4l3-7.4L-286-11.1z M-282-21.6l0.5,1.3l-3,7.5l-1.2,0.6l-0.5-1.4
			l3-7.4L-282-21.6z M-279.3-22.1v9.3l-0.9,0.9l-0.9-0.9v-9.3l0.9-0.9L-279.3-22.1z M-279.3-10.6v9.3l-0.9,0.9l-0.9-0.9v-9.3
			l0.9-0.9L-279.3-10.6z"/>
		<path class="st14" d="M-267.8-22.1v9.3l-0.9,0.9l-0.9-0.9v-9.3l0.9-0.9L-267.8-22.1z M-267.8-10.6v9.3l-0.9,0.9l-0.9-0.9v-9.3
			l0.9-0.9L-267.8-10.6z M-258.4-24l0.9,0.9l-0.9,0.9h-9.2l-0.9-0.9l0.9-0.9H-258.4z M-258.3-1.2l0.9,0.9l-0.9,0.9h-9.2l-0.9-0.9
			l0.9-0.9H-258.3z M-263.1-11.1l0.5,1.3l-3,7.5l-1.2,0.6l-0.5-1.4l3-7.4L-263.1-11.1z M-259.1-21.6l0.5,1.3l-3,7.5l-1.2,0.6
			l-0.5-1.4l3-7.4L-259.1-21.6z M-256.4-22.1v9.3l-0.9,0.9l-0.9-0.9v-9.3l0.9-0.9L-256.4-22.1z M-256.4-10.6v9.3l-0.9,0.9l-0.9-0.9
			v-9.3l0.9-0.9L-256.4-10.6z"/>
	</g>
	<g class="st2">
		<rect x="-205.5" y="-57.1" class="st5" width="111.2" height="25.3"/>
		<path class="st14" d="M-200-45.3l-1.1,9.2l-1,0.8l-0.8-1l1.1-9.2l1-0.8L-200-45.3z M-191.7-34.7l0.8,1l-1,0.8l-9.1-1.1l-0.8-1
			l1-0.8L-191.7-34.7z M-198.6-56.6l-1.1,9.2l-1,0.8l-0.8-1l1.1-9.2l1-0.8L-198.6-56.6z M-195.2-45.2l0.3,1.4l-3.9,7.1l-1.2,0.5
			l-0.3-1.5l3.9-7L-195.2-45.2z M-189-57.4l0.8,1l-1,0.8l-9.1-1.1l-0.8-1l1-0.8L-189-57.4z M-190-55.1l0.3,1.4l-3.9,7.1l-1.2,0.5
			l-0.3-1.5l3.9-7L-190-55.1z M-188.6-43.9l-1.1,9.2l-1,0.8l-0.8-1l1.1-9.2l1-0.8L-188.6-43.9z M-187.2-55.2l-1.1,9.2l-1,0.8l-0.8-1
			l1.1-9.2l1-0.8L-187.2-55.2z"/>
		<path class="st14" d="M-178.4-45.3l-1.1,9.2l-1,0.8l-0.8-1l1.1-9.2l1-0.8L-178.4-45.3z M-170.1-34.7l0.8,1l-1,0.8l-9.1-1.1l-0.8-1
			l1-0.8L-170.1-34.7z M-177-56.6l-1.1,9.2l-1,0.8l-0.8-1l1.1-9.2l1-0.8L-177-56.6z M-173.6-45.2l0.3,1.4l-3.9,7.1l-1.2,0.5
			l-0.3-1.5l3.9-7L-173.6-45.2z M-167.4-57.4l0.8,1l-1,0.8l-9.1-1.1l-0.8-1l1-0.8L-167.4-57.4z M-168.4-55.1l0.3,1.4l-3.9,7.1
			l-1.2,0.5l-0.3-1.5l3.9-7L-168.4-55.1z M-167-43.9l-1.1,9.2l-1,0.8l-0.8-1l1.1-9.2l1-0.8L-167-43.9z M-165.6-55.2l-1.1,9.2l-1,0.8
			l-0.8-1l1.1-9.2l1-0.8L-165.6-55.2z"/>
		<path class="st14" d="M-156.7-45.3l-1.1,9.2l-1,0.8l-0.8-1l1.1-9.2l1-0.8L-156.7-45.3z M-148.5-34.7l0.8,1l-1,0.8l-9.1-1.1l-0.8-1
			l1-0.8L-148.5-34.7z M-155.3-56.6l-1.1,9.2l-1,0.8l-0.8-1l1.1-9.2l1-0.8L-155.3-56.6z M-152-45.2l0.3,1.4l-3.9,7.1l-1.2,0.5
			l-0.3-1.5l3.9-7L-152-45.2z M-145.8-57.4l0.8,1l-1,0.8l-9.1-1.1l-0.8-1l1-0.8L-145.8-57.4z M-146.8-55.1l0.3,1.4l-3.9,7.1
			l-1.2,0.5l-0.3-1.5l3.9-7L-146.8-55.1z M-145.4-43.9l-1.1,9.2l-1,0.8l-0.8-1l1.1-9.2l1-0.8L-145.4-43.9z M-144-55.2l-1.1,9.2
			l-1,0.8l-0.8-1l1.1-9.2l1-0.8L-144-55.2z"/>
		<path class="st14" d="M-135.1-45.3l-1.1,9.2l-1,0.8l-0.8-1l1.1-9.2l1-0.8L-135.1-45.3z M-126.9-34.7l0.8,1l-1,0.8l-9.1-1.1l-0.8-1
			l1-0.8L-126.9-34.7z M-133.7-56.6l-1.1,9.2l-1,0.8l-0.8-1l1.1-9.2l1-0.8L-133.7-56.6z M-130.4-45.2l0.3,1.4l-3.9,7.1l-1.2,0.5
			l-0.3-1.5l3.9-7L-130.4-45.2z M-124.2-57.4l0.8,1l-1,0.8l-9.1-1.1l-0.8-1l1-0.8L-124.2-57.4z M-125.2-55.1l0.3,1.4l-3.9,7.1
			l-1.2,0.5l-0.3-1.5l3.9-7L-125.2-55.1z M-123.8-43.9l-1.1,9.2l-1,0.8l-0.8-1l1.1-9.2l1-0.8L-123.8-43.9z M-122.4-55.2l-1.1,9.2
			l-1,0.8l-0.8-1l1.1-9.2l1-0.8L-122.4-55.2z"/>
		<path class="st14" d="M-113.5-45.3l-1.1,9.2l-1,0.8l-0.8-1l1.1-9.2l1-0.8L-113.5-45.3z M-105.3-34.7l0.8,1l-1,0.8l-9.1-1.1l-0.8-1
			l1-0.8L-105.3-34.7z M-112.1-56.6l-1.1,9.2l-1,0.8l-0.8-1l1.1-9.2l1-0.8L-112.1-56.6z M-108.8-45.2l0.3,1.4l-3.9,7.1l-1.2,0.5
			l-0.3-1.5l3.9-7L-108.8-45.2z M-102.5-57.4l0.8,1l-1,0.8l-9.1-1.1l-0.8-1l1-0.8L-102.5-57.4z M-103.5-55.1l0.3,1.4l-3.9,7.1
			l-1.2,0.5l-0.3-1.5l3.9-7L-103.5-55.1z M-102.2-43.9l-1.1,9.2l-1,0.8l-0.8-1l1.1-9.2l1-0.8L-102.2-43.9z M-100.8-55.2l-1.1,9.2
			l-1,0.8l-0.8-1l1.1-9.2l1-0.8L-100.8-55.2z"/>
	</g>
</g>
<g id="R_Flag" class="st0">
	<g class="st2">
		<rect x="-471.3" y="19.4" class="st5" width="12.6" height="13.5"/>
		<path class="st15" d="M-470.5,28v-8.6h3.7c0.9,0,1.6,0.1,2,0.2s0.7,0.4,1,0.8s0.4,0.8,0.4,1.4c0,0.6-0.2,1.2-0.6,1.6
			s-0.9,0.7-1.7,0.8c0.4,0.2,0.7,0.5,0.9,0.7s0.6,0.7,1,1.4l1,1.7h-2.1l-1.3-1.9c-0.4-0.7-0.8-1.1-0.9-1.3s-0.3-0.3-0.5-0.4
			s-0.5-0.1-0.9-0.1h-0.4V28H-470.5z M-468.7,23h1.3c0.8,0,1.4,0,1.6-0.1s0.4-0.2,0.5-0.4s0.2-0.4,0.2-0.6c0-0.3-0.1-0.5-0.2-0.7
			s-0.4-0.3-0.7-0.3c-0.1,0-0.6,0-1.3,0h-1.4V23z"/>
	</g>
</g>
<g id="P_Flag" class="st0">
	<g class="st2">
		<rect x="-490.2" y="19.4" class="st5" width="10" height="13.5"/>
		<path class="st15" d="M-489.3,28v-8.6h2.8c1.1,0,1.7,0,2.1,0.1c0.5,0.1,0.9,0.4,1.2,0.8s0.5,1,0.5,1.7c0,0.5-0.1,1-0.3,1.3
			s-0.4,0.6-0.7,0.8s-0.6,0.3-0.9,0.4c-0.4,0.1-1,0.1-1.8,0.1h-1.1V28H-489.3z M-487.6,20.9v2.4h0.9c0.7,0,1.1,0,1.4-0.1
			s0.4-0.2,0.5-0.4s0.2-0.4,0.2-0.7c0-0.3-0.1-0.6-0.3-0.8s-0.4-0.3-0.7-0.4c-0.2,0-0.6-0.1-1.2-0.1H-487.6z"/>
	</g>
</g>
<g id="L_Arm_Flag" class="st0">
	<g class="st2">
		<rect x="-356.2" y="-33.5" class="st5" width="9" height="37.5"/>
		<path class="st14" d="M-354.8-24l3-7.9h1.1l3.2,7.9h-1.2l-0.9-2.4h-3.3l-0.9,2.4H-354.8z M-352.5-27.3h2.7l-0.8-2.2
			c-0.3-0.7-0.4-1.2-0.6-1.6c-0.1,0.5-0.2,1-0.4,1.5L-352.5-27.3z"/>
		<path class="st14" d="M-354.2-11.4v-7.9h3.5c0.7,0,1.2,0.1,1.6,0.2c0.4,0.1,0.7,0.4,0.9,0.7s0.3,0.8,0.3,1.2c0,0.6-0.2,1-0.5,1.4
			s-0.9,0.6-1.7,0.7c0.3,0.1,0.5,0.3,0.6,0.4c0.3,0.3,0.6,0.6,0.9,1l1.4,2.1h-1.3l-1-1.6c-0.3-0.5-0.6-0.8-0.8-1.1
			c-0.2-0.3-0.4-0.4-0.5-0.5c-0.2-0.1-0.3-0.2-0.5-0.2c-0.1,0-0.3,0-0.6,0h-1.2v3.5H-354.2z M-353.2-15.8h2.2c0.5,0,0.8,0,1.1-0.1
			c0.3-0.1,0.5-0.3,0.6-0.5c0.1-0.2,0.2-0.5,0.2-0.7c0-0.4-0.1-0.7-0.4-0.9s-0.7-0.4-1.3-0.4h-2.5V-15.8z"/>
		<path class="st14" d="M-354.9,1.3v-7.9h1.6l1.9,5.6c0.2,0.5,0.3,0.9,0.4,1.2c0.1-0.3,0.2-0.7,0.4-1.3l1.9-5.5h1.4v7.9h-1v-6.6
			l-2.3,6.6h-0.9l-2.3-6.7v6.7H-354.9z"/>
	</g>
</g>
<g id="R_Arm_Flag" class="st0">
	<g class="st2">
		<rect x="-251.2" y="-34.2" class="st5" width="9" height="37.5"/>
		<path class="st14" d="M-249.8-24.7l3-7.9h1.1l3.2,7.9h-1.2l-0.9-2.4h-3.3l-0.9,2.4H-249.8z M-247.5-28h2.7l-0.8-2.2
			c-0.3-0.7-0.4-1.2-0.6-1.6c-0.1,0.5-0.2,1-0.4,1.5L-247.5-28z"/>
		<path class="st14" d="M-249.2-12.1V-20h3.5c0.7,0,1.2,0.1,1.6,0.2c0.4,0.1,0.7,0.4,0.9,0.7s0.3,0.8,0.3,1.2c0,0.6-0.2,1-0.5,1.4
			s-0.9,0.6-1.7,0.7c0.3,0.1,0.5,0.3,0.6,0.4c0.3,0.3,0.6,0.6,0.9,1l1.4,2.1h-1.3l-1-1.6c-0.3-0.5-0.6-0.8-0.8-1.1
			c-0.2-0.3-0.4-0.4-0.5-0.5c-0.2-0.1-0.3-0.2-0.5-0.2c-0.1,0-0.3,0-0.6,0h-1.2v3.5H-249.2z M-248.2-16.5h2.2c0.5,0,0.8,0,1.1-0.1
			c0.3-0.1,0.5-0.3,0.6-0.5c0.1-0.2,0.2-0.5,0.2-0.7c0-0.4-0.1-0.7-0.4-0.9s-0.7-0.4-1.3-0.4h-2.5V-16.5z"/>
		<path class="st14" d="M-249.9,0.6v-7.9h1.6l1.9,5.6c0.2,0.5,0.3,0.9,0.4,1.2c0.1-0.3,0.2-0.7,0.4-1.3l1.9-5.5h1.4v7.9h-1V-6
			l-2.3,6.6h-0.9l-2.3-6.7v6.7H-249.9z"/>
	</g>
</g>
<g id="PT_Down" class="st0">
	<polygon class="st16" points="-229.6,-11.4 -225.5,-0.7 -221.3,-11.4 	"/>
</g>
<g id="PT_Up" class="st0">
	<polygon class="st16" points="-229.6,-44.5 -225.5,-55.1 -221.3,-44.5 	"/>
</g>
<g id="PT_Flag" class="st0">
	<g class="st2">
		<rect x="-230.7" y="-40.5" class="st5" width="9" height="26.7"/>
		<path class="st14" d="M-228.4-31v-7.9h3c0.5,0,0.9,0,1.2,0.1c0.4,0.1,0.7,0.2,1,0.4c0.3,0.2,0.5,0.4,0.6,0.8s0.2,0.7,0.2,1.1
			c0,0.7-0.2,1.2-0.6,1.7c-0.4,0.5-1.2,0.7-2.3,0.7h-2v3.2H-228.4z M-227.4-35.1h2c0.7,0,1.2-0.1,1.4-0.4s0.4-0.6,0.4-1.1
			c0-0.3-0.1-0.6-0.3-0.8c-0.2-0.2-0.4-0.4-0.7-0.5c-0.2,0-0.5-0.1-1-0.1h-2V-35.1z"/>
		<path class="st14" d="M-226.1-18.4v-6.9h-2.6v-0.9h6.2v0.9h-2.6v6.9H-226.1z"/>
	</g>
</g>
<g id="FPM_Flag" class="st0">
	<g class="st2">
		<rect x="-149.2" y="-23.8" class="st5" width="26.8" height="8.4"/>
		<path class="st14" d="M-148.3-16v-7.9h5.3v0.9h-4.3v2.4h3.7v0.9h-3.7v3.6H-148.3z"/>
		<path class="st14" d="M-140-16v-7.9h3c0.5,0,0.9,0,1.2,0.1c0.4,0.1,0.7,0.2,1,0.4c0.3,0.2,0.5,0.4,0.6,0.8s0.2,0.7,0.2,1.1
			c0,0.7-0.2,1.2-0.6,1.7c-0.4,0.5-1.2,0.7-2.3,0.7h-2v3.2H-140z M-139-20.1h2c0.7,0,1.2-0.1,1.4-0.4s0.4-0.6,0.4-1.1
			c0-0.3-0.1-0.6-0.3-0.8c-0.2-0.2-0.4-0.4-0.7-0.5c-0.2,0-0.5-0.1-1-0.1h-2V-20.1z"/>
		<path class="st14" d="M-131-16v-7.9h1.6l1.9,5.6c0.2,0.5,0.3,0.9,0.4,1.2c0.1-0.3,0.2-0.7,0.4-1.3l1.9-5.5h1.4v7.9h-1v-6.6
			l-2.3,6.6h-0.9l-2.3-6.7v6.7H-131z"/>
	</g>
</g>
<g id="ALERT_Flag" class="st0">
	<g class="st2">
		<rect x="-204" y="-23.8" class="st5" width="43.8" height="8.4"/>
		<path class="st14" d="M-204-16l3-7.9h1.1l3.2,7.9h-1.2l-0.9-2.4h-3.3l-0.9,2.4H-204z M-201.7-19.2h2.7l-0.8-2.2
			c-0.3-0.7-0.4-1.2-0.6-1.6c-0.1,0.5-0.2,1-0.4,1.5L-201.7-19.2z"/>
		<path class="st14" d="M-194.2-16v-7.9h1v6.9h3.9v0.9H-194.2z"/>
		<path class="st14" d="M-186.3-16v-7.9h5.7v0.9h-4.7v2.4h4.4v0.9h-4.4v2.7h4.8v0.9H-186.3z"/>
		<path class="st14" d="M-177.3-16v-7.9h3.5c0.7,0,1.2,0.1,1.6,0.2c0.4,0.1,0.7,0.4,0.9,0.7s0.3,0.8,0.3,1.2c0,0.6-0.2,1-0.5,1.4
			s-0.9,0.6-1.7,0.7c0.3,0.1,0.5,0.3,0.6,0.4c0.3,0.3,0.6,0.6,0.9,1l1.4,2.1h-1.3l-1-1.6c-0.3-0.5-0.6-0.8-0.8-1.1
			c-0.2-0.3-0.4-0.4-0.5-0.5c-0.2-0.1-0.3-0.2-0.5-0.2c-0.1,0-0.3,0-0.6,0h-1.2v3.5H-177.3z M-176.3-20.4h2.2c0.5,0,0.8,0,1.1-0.1
			c0.3-0.1,0.5-0.3,0.6-0.5c0.1-0.2,0.2-0.5,0.2-0.7c0-0.4-0.1-0.7-0.4-0.9s-0.7-0.4-1.3-0.4h-2.5V-20.4z"/>
		<path class="st14" d="M-165.9-16v-6.9h-2.6v-0.9h6.2v0.9h-2.6v6.9H-165.9z"/>
	</g>
</g>
<g id="HPA_Flag" class="st0">
	<g class="st2">
		<rect x="-188.3" y="-10.2" class="st5" width="25.8" height="8.4"/>
		<path class="st14" d="M-187.4-2.4v-7.9h1V-7h4.1v-3.2h1v7.9h-1v-3.7h-4.1v3.7H-187.4z"/>
		<path class="st14" d="M-177.8-2.4v-7.9h3c0.5,0,0.9,0,1.2,0.1c0.4,0.1,0.7,0.2,1,0.4c0.3,0.2,0.5,0.4,0.6,0.8s0.2,0.7,0.2,1.1
			c0,0.7-0.2,1.2-0.6,1.7c-0.4,0.5-1.2,0.7-2.3,0.7h-2v3.2H-177.8z M-176.8-6.5h2c0.7,0,1.2-0.1,1.4-0.4s0.4-0.6,0.4-1.1
			c0-0.3-0.1-0.6-0.3-0.8c-0.2-0.2-0.4-0.4-0.7-0.5c-0.2,0-0.5-0.1-1-0.1h-2V-6.5z"/>
		<path class="st14" d="M-170.5-2.4l3-7.9h1.1l3.2,7.9h-1.2l-0.9-2.4h-3.3l-0.9,2.4H-170.5z M-168.2-5.6h2.7l-0.8-2.2
			c-0.3-0.7-0.4-1.2-0.6-1.6c-0.1,0.5-0.2,1-0.4,1.5L-168.2-5.6z"/>
	</g>
</g>
<g id="IN_HG_Flag" class="st0">
	<g class="st2">
		<rect x="-135.8" y="-10.2" class="st5" width="15.8" height="8.4"/>
		<path class="st14" d="M-134.8-2.4v-7.9h1v7.9H-134.8z"/>
		<path class="st14" d="M-130.3-2.4v-7.9h1.1l4.1,6.2v-6.2h1v7.9h-1.1l-4.1-6.2v6.2H-130.3z"/>
	</g>
	<g class="st2">
		<rect x="-116.7" y="-10.2" class="st5" width="19.7" height="8.4"/>
		<path class="st14" d="M-115.8-2.4v-7.9h1V-7h4.1v-3.2h1v7.9h-1v-3.7h-4.1v3.7H-115.8z"/>
		<path class="st14" d="M-102.6-5.5v-0.9l3.3,0v2.9c-0.5,0.4-1,0.7-1.6,0.9c-0.5,0.2-1.1,0.3-1.7,0.3c-0.8,0-1.5-0.2-2.1-0.5
			c-0.6-0.3-1.1-0.8-1.4-1.4s-0.5-1.3-0.5-2.1c0-0.8,0.2-1.5,0.5-2.1c0.3-0.7,0.8-1.2,1.4-1.5s1.3-0.5,2.1-0.5
			c0.6,0,1.1,0.1,1.5,0.3c0.5,0.2,0.8,0.4,1.1,0.8s0.5,0.8,0.6,1.3l-0.9,0.3c-0.1-0.4-0.3-0.7-0.4-0.9s-0.4-0.4-0.8-0.6
			c-0.3-0.1-0.7-0.2-1.1-0.2c-0.5,0-0.9,0.1-1.2,0.2c-0.3,0.1-0.6,0.3-0.8,0.6s-0.4,0.5-0.5,0.8c-0.2,0.5-0.3,1-0.3,1.6
			c0,0.7,0.1,1.3,0.4,1.8c0.2,0.5,0.6,0.8,1.1,1.1c0.5,0.2,1,0.3,1.5,0.3c0.5,0,0.9-0.1,1.3-0.3c0.4-0.2,0.8-0.4,1-0.6v-1.5H-102.6z
			"/>
	</g>
</g>
<g id="FT_Flag" class="st0">
	<g class="st2">
		<rect x="-116.7" y="-23.8" class="st5" width="15.8" height="8.4"/>
		<path class="st14" d="M-115.8-16v-7.9h5.3v0.9h-4.3v2.4h3.7v0.9h-3.7v3.6H-115.8z"/>
		<path class="st14" d="M-105.5-16v-6.9h-2.6v-0.9h6.2v0.9h-2.6v6.9H-105.5z"/>
	</g>
</g>
<g id="AP_Flag" class="st0">
	<g class="st2">
		<rect x="-340.5" y="-52.8" class="st5" width="16.8" height="8.4"/>
		<path class="st14" d="M-340.5-45l3-7.9h1.1l3.2,7.9h-1.2l-0.9-2.4h-3.3l-0.9,2.4H-340.5z M-338.2-48.2h2.7l-0.8-2.2
			c-0.3-0.7-0.4-1.2-0.6-1.6c-0.1,0.5-0.2,1-0.4,1.5L-338.2-48.2z"/>
		<path class="st14" d="M-330.6-45v-7.9h3c0.5,0,0.9,0,1.2,0.1c0.4,0.1,0.7,0.2,1,0.4c0.3,0.2,0.5,0.4,0.6,0.8s0.2,0.7,0.2,1.1
			c0,0.7-0.2,1.2-0.6,1.7c-0.4,0.5-1.2,0.7-2.3,0.7h-2v3.2H-330.6z M-329.6-49.1h2c0.7,0,1.2-0.1,1.4-0.4s0.4-0.6,0.4-1.1
			c0-0.3-0.1-0.6-0.3-0.8c-0.2-0.2-0.4-0.4-0.7-0.5c-0.2,0-0.5-0.1-1-0.1h-2V-49.1z"/>
	</g>
	<polygon class="st16" points="-324,-55.1 -340.9,-55.1 -342.4,-56.5 -322.6,-56.5 	"/>
	<polygon class="st16" points="-323.6,-41.9 -340.6,-41.9 -342.1,-40.5 -322.3,-40.5 	"/>
	<polygon class="st16" points="-322.9,-54.6 -322.9,-42.7 -321.4,-41.6 -321.4,-55.5 	"/>
	<polygon class="st16" points="-341.8,-54.6 -341.8,-42.7 -343.3,-41.6 -343.3,-55.5 	"/>
</g>
</svg>
