<?xml version="1.0" encoding="utf-8"?>
<!-- Generator: Adobe Illustrator 19.0.0, SVG Export Plug-In . SVG Version: 6.00 Build 0)  -->
<svg version="1.1" xmlns="http://www.w3.org/2000/svg" xmlns:xlink="http://www.w3.org/1999/xlink" x="0px" y="0px"
	 viewBox="0 0 33.1 19.8" style="enable-background:new 0 0 33.1 19.8;" xml:space="preserve">
<style type="text/css">
	.st0{display:none;}
	.st1{display:inline;fill:#282828;stroke:#E5E5E5;stroke-width:2;stroke-miterlimit:10;}
	.st2{display:inline;}
	.st3{display:inline;fill:#58595B;}
	.st4{display:inline;fill:none;stroke:#414042;stroke-width:2;stroke-miterlimit:10;}
	.st5{fill:none;}
	.st6{fill:#414042;}
	.st7{display:inline;fill:none;stroke:#FFFFFF;stroke-miterlimit:10;}
	.st8{fill:#FFFFFF;}
	.st9{display:inline;fill:#3F403F;stroke:#000000;stroke-miterlimit:10;}
	.st10{fill:none;stroke:#000000;stroke-width:1.5;stroke-miterlimit:10;stroke-dasharray:1.5093,1.5093;}
	.st11{fill:#3F403F;stroke:#000000;stroke-width:2;stroke-miterlimit:10;}
	.st12{fill:none;stroke:#000000;stroke-width:1.5;stroke-miterlimit:10;stroke-dasharray:1.5898,1.5898;}
	.st13{fill:#FFFFFF;stroke:#FFFFFF;stroke-miterlimit:10;}
	.st14{fill:#F7941E;}
	.st15{fill:#ED1C24;}
	.st16{display:inline;fill:#F7941E;}
</style>
<g id="Layer_1" class="st0">
	<path id="XMLID_814_" class="st1" d="M261.8,38.5h-586.7c-1.7,0-3-0.9-3-2v-150c0-1.1,1.3-2,3-2h586.7c1.7,0,3,0.9,3,2v150
		C264.8,37.7,263.4,38.5,261.8,38.5z"/>
</g>
<g id="Base" class="st0">
	<path class="st2" d="M91-39.6c0,4.3-2.1,7.8-4.7,7.8h-321.5c-2.6,0-4.7-3.5-4.7-7.8V-92c0-4.3,2.1-7.8,4.7-7.8H86.3
		c2.6,0,4.7,3.5,4.7,7.8V-39.6z"/>
	<circle class="st3" cx="128.6" cy="-80.9" r="5.7"/>
	<line class="st4" x1="122.8" y1="-80.9" x2="134.3" y2="-80.9"/>
	<g class="st2">
		<rect x="-286" y="-19.6" class="st5" width="12.6" height="13.5"/>
		<path class="st6" d="M-285.1-11v-8.6h3.7c0.9,0,1.6,0.1,2,0.2s0.7,0.4,1,0.8s0.4,0.8,0.4,1.4c0,0.6-0.2,1.2-0.6,1.6
			c-0.4,0.4-0.9,0.7-1.7,0.8c0.4,0.2,0.7,0.5,0.9,0.7s0.6,0.7,1,1.4l1,1.7h-2.1l-1.3-1.9c-0.4-0.7-0.8-1.1-0.9-1.3s-0.3-0.3-0.5-0.4
			s-0.5-0.1-0.9-0.1h-0.4v3.6H-285.1z M-283.4-16h1.3c0.8,0,1.4,0,1.6-0.1s0.4-0.2,0.5-0.4s0.2-0.4,0.2-0.6c0-0.3-0.1-0.5-0.2-0.7
			s-0.4-0.3-0.7-0.3c-0.1,0-0.6,0-1.3,0h-1.4V-16z"/>
	</g>
	<g class="st2">
		<rect x="-304.9" y="-19.6" class="st5" width="10" height="13.5"/>
		<path class="st6" d="M-304-11v-8.6h2.8c1.1,0,1.7,0,2.1,0.1c0.5,0.1,0.9,0.4,1.2,0.8s0.5,1,0.5,1.7c0,0.5-0.1,1-0.3,1.3
			c-0.2,0.4-0.4,0.6-0.7,0.8s-0.6,0.3-0.9,0.4c-0.4,0.1-1,0.1-1.8,0.1h-1.1v3.2H-304z M-302.3-18.2v2.4h0.9c0.7,0,1.1,0,1.4-0.1
			s0.4-0.2,0.5-0.4s0.2-0.4,0.2-0.7c0-0.3-0.1-0.6-0.3-0.8s-0.4-0.3-0.7-0.4c-0.2,0-0.6-0.1-1.2-0.1H-302.3z"/>
	</g>
	<path class="st7" d="M149.5,17.3c0,2.8-1.9,5.1-4.3,5.1h-34.4c-2.4,0-4.3-2.3-4.3-5.1v-70.9c0-2.8,1.9-5.1,4.3-5.1h34.4
		c2.4,0,4.3,2.3,4.3,5.1V17.3z"/>
</g>
<g id="Labels" class="st0">
	<g class="st2">
		<rect x="-306.8" y="-93.7" class="st5" width="41.6" height="9.1"/>
		<path class="st8" d="M-306.1-86.2v-7.4h1v3.7l3.7-3.7h1.3l-3.1,3l3.3,4.4h-1.3l-2.6-3.8l-1.2,1.2v2.6H-306.1z"/>
		<path class="st8" d="M-299.9-86.2l2.9-7.4h1.1l3,7.4h-1.1l-0.9-2.3h-3.1l-0.8,2.3H-299.9z M-297.8-89.3h2.5l-0.8-2.1
			c-0.2-0.6-0.4-1.1-0.5-1.5c-0.1,0.5-0.2,1-0.4,1.4L-297.8-89.3z"/>
		<path class="st8" d="M-292.2-86.2v-7.4h2.8c0.5,0,0.9,0,1.1,0.1c0.4,0.1,0.7,0.2,0.9,0.3s0.4,0.4,0.6,0.7s0.2,0.6,0.2,1
			c0,0.6-0.2,1.2-0.6,1.6c-0.4,0.4-1.1,0.7-2.2,0.7h-1.9v3H-292.2z M-291.2-90.1h1.9c0.6,0,1.1-0.1,1.4-0.4c0.3-0.2,0.4-0.6,0.4-1
			c0-0.3-0.1-0.6-0.2-0.8s-0.4-0.4-0.6-0.4c-0.2,0-0.5-0.1-0.9-0.1h-1.9V-90.1z"/>
		<path class="st8" d="M-279.5-86.2h-0.9V-92c-0.2,0.2-0.5,0.4-0.9,0.6s-0.7,0.4-1,0.5v-0.9c0.5-0.2,1-0.5,1.3-0.9
			c0.4-0.3,0.7-0.7,0.8-1h0.6V-86.2z"/>
		<path class="st8" d="M-274.2-86.2V-88h-3.2v-0.8l3.4-4.8h0.7v4.8h1v0.8h-1v1.8H-274.2z M-274.2-88.8v-3.4l-2.3,3.4H-274.2z"/>
		<path class="st8" d="M-271.3-89.9c0-0.9,0.1-1.6,0.3-2.1c0.2-0.5,0.4-0.9,0.8-1.2s0.8-0.4,1.3-0.4c0.4,0,0.7,0.1,1.1,0.2
			c0.3,0.2,0.5,0.4,0.7,0.7c0.2,0.3,0.4,0.7,0.5,1.1c0.1,0.4,0.2,1,0.2,1.8c0,0.9-0.1,1.6-0.3,2.1c-0.2,0.5-0.4,1-0.8,1.2
			c-0.4,0.3-0.8,0.4-1.4,0.4c-0.7,0-1.3-0.3-1.7-0.8C-271.1-87.5-271.3-88.5-271.3-89.9z M-270.4-89.9c0,1.2,0.1,2,0.4,2.4
			c0.3,0.4,0.6,0.6,1.1,0.6s0.8-0.2,1.1-0.6c0.3-0.4,0.4-1.2,0.4-2.4c0-1.2-0.1-2-0.4-2.4c-0.3-0.4-0.6-0.6-1.1-0.6
			c-0.4,0-0.8,0.2-1,0.5C-270.2-91.9-270.4-91.1-270.4-89.9z"/>
	</g>
	<g class="st2">
		<rect x="-318.9" y="-105.5" class="st5" width="59.6" height="7.2"/>
		<path class="st8" d="M-318.6-99.3l1.3-6.3h2.2c0.5,0,0.8,0,1,0c0.3,0,0.6,0.1,0.8,0.3c0.2,0.1,0.4,0.3,0.5,0.5
			c0.1,0.2,0.2,0.5,0.2,0.7c0,0.3-0.1,0.7-0.3,0.9c-0.2,0.3-0.5,0.5-0.9,0.6c0.3,0.1,0.6,0.2,0.8,0.5s0.3,0.5,0.3,0.8
			c0,0.4-0.1,0.7-0.3,1.1c-0.2,0.3-0.5,0.6-0.9,0.7s-0.9,0.2-1.5,0.2H-318.6z M-317.1-100.3h1.2c0.5,0,0.9,0,1.1-0.1
			c0.2-0.1,0.3-0.2,0.4-0.3c0.1-0.2,0.2-0.3,0.2-0.5c0-0.2-0.1-0.4-0.2-0.5c-0.2-0.1-0.4-0.2-0.8-0.2h-1.5L-317.1-100.3z
			 M-316.5-103h1c0.4,0,0.8,0,1-0.1c0.2-0.1,0.3-0.2,0.4-0.3c0.1-0.1,0.1-0.3,0.1-0.5c0-0.2,0-0.3-0.1-0.4s-0.2-0.2-0.4-0.2
			c-0.1,0-0.3,0-0.7,0h-1L-316.5-103z"/>
		<path class="st8" d="M-312.2-99.3l1.3-6.3h4.7l-0.2,1.1h-3.4l-0.3,1.4h3.3l-0.2,1.1h-3.3l-0.4,1.7h3.7l-0.2,1.1H-312.2z"/>
		<path class="st8" d="M-301.3-99.3h-1.2l-1.7-4.2l-0.9,4.2h-1.2l1.3-6.3h1.2l1.7,4.2l0.9-4.2h1.2L-301.3-99.3z"/>
		<path class="st8" d="M-300-99.3l1.3-6.3h1.7c0.5,0,0.8,0,0.9,0c0.3,0,0.5,0.1,0.7,0.2c0.2,0.1,0.4,0.2,0.6,0.3s0.3,0.3,0.4,0.5
			s0.2,0.4,0.3,0.7c0.1,0.3,0.1,0.6,0.1,0.9c0,0.7-0.1,1.3-0.4,1.8c-0.3,0.5-0.6,0.9-1,1.3c-0.3,0.2-0.7,0.4-1.2,0.5
			c-0.3,0.1-0.7,0.1-1.2,0.1H-300z M-298.5-100.3h0.7c0.5,0,0.8,0,1-0.1c0.2-0.1,0.4-0.2,0.6-0.3c0.3-0.2,0.5-0.5,0.6-0.9
			c0.2-0.4,0.3-0.8,0.3-1.4c0-0.4-0.1-0.8-0.2-1s-0.3-0.4-0.5-0.4c-0.1-0.1-0.4-0.1-0.8-0.1h-0.8L-298.5-100.3z"/>
		<path class="st8" d="M-293.7-99.3l1.3-6.3h1.3l-1.3,6.3H-293.7z"/>
		<path class="st8" d="M-290.2-99.3h-1.7l2.8-3.2l-1.6-3.1h1.4l0.6,1.2c0,0,0.2,0.3,0.4,0.9c0,0,0,0.1,0.1,0.1
			c0.3-0.4,0.6-0.8,0.9-1l1-1.1h1.6l-2.9,3.3l1.5,3h-1.5l-0.5-0.9c-0.2-0.5-0.4-0.9-0.5-1.1c-0.1,0.2-0.4,0.5-0.9,1L-290.2-99.3z"/>
		<path class="st8" d="M-286.1-99.1l3.1-6.5h0.9l-3.1,6.5H-286.1z"/>
		<path class="st8" d="M-282.9-99.3l1.3-6.3h1.3l-0.6,2.7l2.9-2.7h1.7l-2.8,2.5l2.1,3.8h-1.5l-1.6-3l-1.2,1.1l-0.4,1.9H-282.9z"/>
		<path class="st8" d="M-276.6-99.3l1.3-6.3h1.3l-1.3,6.3H-276.6z"/>
		<path class="st8" d="M-269.1-99.3h-1.2l-1.7-4.2l-0.9,4.2h-1.2l1.3-6.3h1.2l1.7,4.2l0.9-4.2h1.2L-269.1-99.3z"/>
		<path class="st8" d="M-264.3-102.6h2.8l-0.6,2.7c-0.3,0.2-0.7,0.4-1.2,0.5c-0.5,0.1-1,0.2-1.5,0.2c-0.8,0-1.4-0.2-1.8-0.5
			c-0.6-0.5-0.9-1.2-0.9-2.1c0-0.6,0.1-1.2,0.4-1.8c0.3-0.7,0.7-1.2,1.2-1.6s1.2-0.6,1.9-0.6s1.3,0.2,1.7,0.5s0.7,0.8,0.9,1.5
			l-1.2,0.1c-0.1-0.4-0.3-0.6-0.5-0.8c-0.2-0.2-0.5-0.3-0.9-0.3c-0.4,0-0.8,0.1-1.2,0.3s-0.6,0.6-0.8,1c-0.2,0.5-0.3,1-0.3,1.5
			c0,0.5,0.1,0.9,0.4,1.2c0.2,0.3,0.6,0.4,1.1,0.4c0.3,0,0.6,0,0.9-0.1c0.3-0.1,0.5-0.2,0.8-0.3l0.2-0.9h-1.6L-264.3-102.6z"/>
	</g>
</g>
<g id="Outer_Knob_R" class="st0">
	<path class="st9" d="M238.7-16.5c0,17-13.8,30.9-30.9,30.9c-17.1,0-30.9-13.8-30.9-30.9c0-17.1,13.8-30.9,30.9-30.9
		C224.9-47.4,238.7-33.5,238.7-16.5z"/>
	<g class="st2">
		<g>
			<path class="st10" d="M239.6-16.5c0,17.5-14.2,31.7-31.7,31.7c-17.5,0-31.7-14.2-31.7-31.7c0-17.5,14.2-31.7,31.7-31.7
				C225.4-48.2,239.6-34,239.6-16.5z"/>
		</g>
	</g>
</g>
<g id="Inner_Knob_R" class="st0">
	<g class="st2">
		<circle class="st11" cx="207.8" cy="-16.5" r="20.8"/>
		<g>
			<path class="st12" d="M229.6-16.5c0,12-9.7,21.8-21.8,21.8s-21.8-9.7-21.8-21.8c0-12,9.7-21.8,21.8-21.8S229.6-28.5,229.6-16.5z"
				/>
		</g>
	</g>
</g>
<g id="BARO_Button">
	<path class="st13" d="M240.6-83.8c0,1.1-0.9,2-2,2h-28.1c-1.1,0-2-0.9-2-2v-14.8c0-1.1,0.9-2,2-2h28.1c1.1,0,2,0.9,2,2V-83.8z"/>
	<g>
		<path d="M210.6-86.8v-7.9h2.8c0.6,0,1,0.1,1.3,0.2c0.3,0.2,0.6,0.4,0.8,0.7s0.3,0.7,0.3,1.1c0,0.4-0.1,0.7-0.3,1
			c-0.2,0.3-0.4,0.5-0.8,0.7c0.4,0.1,0.8,0.4,1,0.7c0.2,0.3,0.4,0.7,0.4,1.2c0,0.5-0.1,0.9-0.3,1.3s-0.5,0.6-0.9,0.8
			s-0.9,0.2-1.5,0.2H210.6z M211.6-91.4h1.6c0.4,0,0.7,0,0.9-0.1c0.3-0.1,0.5-0.2,0.6-0.4c0.1-0.2,0.2-0.4,0.2-0.7
			c0-0.3-0.1-0.5-0.2-0.7c-0.1-0.2-0.3-0.3-0.5-0.4c-0.2-0.1-0.6-0.1-1.1-0.1h-1.5V-91.4z M211.6-87.8h1.9c0.4,0,0.7,0,0.9-0.1
			c0.3-0.1,0.5-0.2,0.6-0.5s0.2-0.5,0.2-0.8c0-0.3-0.1-0.5-0.2-0.8s-0.3-0.4-0.6-0.5s-0.6-0.1-1.1-0.1h-1.7V-87.8z"/>
		<path d="M216.8-86.8l2.9-7.9h1.1l3,7.9h-1.1l-0.9-2.4h-3.1l-0.8,2.4H216.8z M218.9-90.1h2.5l-0.8-2.2c-0.2-0.7-0.4-1.2-0.5-1.6
			c-0.1,0.5-0.2,1-0.4,1.5L218.9-90.1z"/>
		<path d="M224.5-86.8v-7.9h3.3c0.7,0,1.2,0.1,1.5,0.2c0.3,0.1,0.6,0.4,0.8,0.7s0.3,0.7,0.3,1.2c0,0.6-0.2,1.1-0.5,1.4
			c-0.4,0.4-0.9,0.6-1.6,0.7c0.3,0.1,0.5,0.3,0.6,0.4c0.3,0.3,0.6,0.6,0.8,1l1.3,2.1h-1.2l-1-1.6c-0.4-0.6-0.7-1.1-0.9-1.3
			s-0.4-0.4-0.6-0.4s-0.4-0.1-0.8-0.1h-1.1v3.5H224.5z M225.5-91.2h2.1c0.5,0,0.8,0,1.1-0.1s0.4-0.2,0.6-0.5
			c0.1-0.2,0.2-0.5,0.2-0.7c0-0.4-0.1-0.7-0.4-0.9s-0.7-0.3-1.2-0.3h-2.4V-91.2z"/>
		<path d="M231.7-90.7c0-1.3,0.3-2.4,1-3.1s1.5-1.1,2.5-1.1c0.7,0,1.3,0.2,1.8,0.5s1,0.8,1.3,1.4s0.5,1.3,0.5,2.2
			c0,1.2-0.3,2.1-0.9,2.9c-0.7,0.8-1.6,1.2-2.6,1.2c-1.1,0-2-0.4-2.7-1.2C232-88.7,231.7-89.6,231.7-90.7z M232.8-90.7
			c0,1,0.2,1.7,0.7,2.3c0.5,0.5,1.1,0.8,1.8,0.8c0.7,0,1.3-0.3,1.8-0.8c0.5-0.5,0.7-1.3,0.7-2.4c0-0.7-0.1-1.3-0.4-1.8
			c-0.2-0.4-0.5-0.7-0.9-1c-0.4-0.2-0.8-0.4-1.3-0.4c-0.7,0-1.4,0.3-1.8,0.8C233-92.6,232.8-91.8,232.8-90.7z"/>
	</g>
</g>
<g id="ARM_Button">
	<path class="st13" d="M181.6-83.8c0,1.1-0.9,2-2,2h-28.1c-1.1,0-2-0.9-2-2v-14.8c0-1.1,0.9-2,2-2h28.1c1.1,0,2,0.9,2,2V-83.8z"/>
	<g>
		<path d="M154-86.8l2.9-7.9h1.1l3,7.9h-1.1l-0.9-2.4h-3.1l-0.8,2.4H154z M156.1-90.1h2.5l-0.8-2.2c-0.2-0.7-0.4-1.2-0.5-1.6
			c-0.1,0.5-0.2,1-0.4,1.5L156.1-90.1z"/>
		<path d="M161.8-86.8v-7.9h3.3c0.7,0,1.2,0.1,1.5,0.2c0.3,0.1,0.6,0.4,0.8,0.7c0.2,0.3,0.3,0.7,0.3,1.2c0,0.6-0.2,1.1-0.5,1.4
			c-0.4,0.4-0.9,0.6-1.6,0.7c0.3,0.1,0.5,0.3,0.6,0.4c0.3,0.3,0.6,0.6,0.8,1l1.3,2.1h-1.2l-1-1.6c-0.4-0.6-0.7-1.1-0.9-1.3
			c-0.2-0.2-0.4-0.4-0.6-0.4c-0.2-0.1-0.4-0.1-0.8-0.1h-1.1v3.5H161.8z M162.7-91.2h2.1c0.5,0,0.8,0,1.1-0.1
			c0.2-0.1,0.4-0.2,0.6-0.5c0.1-0.2,0.2-0.5,0.2-0.7c0-0.4-0.1-0.7-0.4-0.9c-0.3-0.2-0.7-0.3-1.2-0.3h-2.4V-91.2z"/>
		<path d="M169.2-86.8v-7.9h1.5l1.8,5.6l0.4,1.2c0.1-0.3,0.2-0.7,0.4-1.3l1.8-5.5h1.3v7.9h-0.9v-6.6l-2.2,6.6h-0.9l-2.2-6.7v6.7
			H169.2z"/>
	</g>
</g>
<g id="DN_Button">
	<path class="st13" d="M144.6,13.2c0,1.1-0.9,2-2,2h-28.1c-1.1,0-2-0.9-2-2V-1.6c0-1.1,0.9-2,2-2h28.1c1.1,0,2,0.9,2,2V13.2z"/>
	<g>
		<path d="M121.8,10.2V2.3h2.6c0.6,0,1.1,0,1.4,0.1c0.4,0.1,0.8,0.4,1.1,0.7c0.3,0.3,0.6,0.8,0.7,1.3s0.3,1.1,0.3,1.8
			c0,0.9-0.2,1.6-0.5,2.3c-0.3,0.6-0.7,1.1-1.2,1.3s-1.1,0.4-1.9,0.4H121.8z M122.8,9.2h1.6c0.6,0,1.1-0.1,1.5-0.3
			c0.3-0.2,0.6-0.5,0.8-0.9c0.2-0.5,0.4-1.2,0.4-1.9c0-0.8-0.1-1.4-0.4-1.9c-0.3-0.5-0.6-0.8-1-0.9c-0.3-0.1-0.7-0.2-1.3-0.2h-1.6
			V9.2z"/>
		<path d="M129.3,10.2V2.3h1l3.9,6.2V2.3h0.9v7.9h-1L130.3,4v6.2H129.3z"/>
	</g>
</g>
<g id="UP_Button">
	<path class="st13" d="M144.6-34.7c0,1.1-0.9,2-2,2h-28.1c-1.1,0-2-0.9-2-2v-14.8c0-1.1,0.9-2,2-2h28.1c1.1,0,2,0.9,2,2V-34.7z"/>
	<g>
		<path d="M127.1-45.6h1v4.5c0,0.8-0.1,1.4-0.3,1.9c-0.2,0.5-0.5,0.9-0.9,1.2s-1,0.4-1.7,0.4c-1,0-1.7-0.3-2.2-0.8
			c-0.5-0.5-0.7-1.4-0.7-2.7v-4.5h1v4.5c0,0.7,0.1,1.2,0.2,1.5c0.1,0.3,0.3,0.6,0.6,0.7c0.3,0.2,0.6,0.3,1.1,0.3
			c0.7,0,1.2-0.2,1.5-0.5s0.5-1,0.5-2V-45.6z"/>
		<path d="M129.7-37.7v-7.9h2.8c0.7,0,1.1,0,1.5,0.2c0.4,0.1,0.8,0.4,1,0.8c0.3,0.4,0.4,0.8,0.4,1.4c0,0.7-0.2,1.3-0.6,1.7
			c-0.4,0.4-1.1,0.7-2.2,0.7h-1.9v3.2H129.7z M130.7-41.9h1.9c0.6,0,1.1-0.1,1.3-0.4c0.3-0.2,0.4-0.6,0.4-1.1c0-0.3-0.1-0.6-0.2-0.8
			c-0.1-0.2-0.3-0.4-0.5-0.5c-0.2-0.1-0.6-0.1-1.1-0.1h-1.9V-41.9z"/>
	</g>
</g>
<g id="ALT_Button">
	<path class="st13" d="M92.6,17.3c0,1.1-0.9,2-2,2H62.5c-1.1,0-2-0.9-2-2V2.5c0-1.1,0.9-2,2-2h28.1c1.1,0,2,0.9,2,2V17.3z"/>
	<g>
		<path d="M67.5,14.3l2.9-7.9h1.1l3,7.9h-1.1l-0.9-2.4h-3.1l-0.8,2.4H67.5z M69.6,11h2.5l-0.8-2.2c-0.2-0.7-0.4-1.2-0.5-1.6
			c-0.1,0.5-0.2,1-0.4,1.5L69.6,11z"/>
		<path d="M75.2,14.3V6.4h1v6.9h3.7v0.9H75.2z"/>
		<path d="M82.2,14.3V7.3h-2.5V6.4h5.9v0.9h-2.5v6.9H82.2z"/>
	</g>
</g>
<g id="REV_Button">
	<path class="st13" d="M32.6,17.3c0,1.1-0.9,2-2,2H2.5c-1.1,0-2-0.9-2-2V2.5c0-1.1,0.9-2,2-2h28.1c1.1,0,2,0.9,2,2V17.3z"/>
	<g>
		<path d="M6.7,14.3V6.4H10c0.7,0,1.2,0.1,1.5,0.2c0.3,0.1,0.6,0.4,0.8,0.7c0.2,0.3,0.3,0.7,0.3,1.2c0,0.6-0.2,1.1-0.5,1.4
			c-0.4,0.4-0.9,0.6-1.6,0.7c0.3,0.1,0.5,0.3,0.6,0.4c0.3,0.3,0.6,0.6,0.8,1l1.3,2.1H12l-1-1.6c-0.4-0.6-0.7-1.1-0.9-1.3
			c-0.2-0.2-0.4-0.4-0.6-0.4s-0.4-0.1-0.8-0.1H7.7v3.5H6.7z M7.7,9.9h2.1c0.5,0,0.8,0,1.1-0.1c0.2-0.1,0.4-0.2,0.6-0.5
			c0.1-0.2,0.2-0.5,0.2-0.7c0-0.4-0.1-0.7-0.4-0.9c-0.3-0.2-0.7-0.3-1.2-0.3H7.7V9.9z"/>
		<path d="M14.2,14.3V6.4h5.4v0.9h-4.4v2.4h4.1v0.9h-4.1v2.7h4.6v0.9H14.2z"/>
		<path d="M23.3,14.3l-2.9-7.9h1.1l1.9,5.7c0.1,0.4,0.3,0.9,0.4,1.3c0.1-0.4,0.2-0.9,0.4-1.3l2-5.7h1l-2.9,7.9H23.3z"/>
	</g>
</g>
<g id="APR_Button">
	<path class="st13" d="M-34.4,17.3c0,1.1-0.9,2-2,2h-28.1c-1.1,0-2-0.9-2-2V2.5c0-1.1,0.9-2,2-2h28.1c1.1,0,2,0.9,2,2V17.3z"/>
	<g>
		<path d="M-61.1,14.3l2.9-7.9h1.1l3,7.9h-1.1l-0.9-2.4h-3.1l-0.8,2.4H-61.1z M-59,11h2.5l-0.8-2.2c-0.2-0.7-0.4-1.2-0.5-1.6
			c-0.1,0.5-0.2,1-0.4,1.5L-59,11z"/>
		<path d="M-53.4,14.3V6.4h2.8c0.7,0,1.1,0,1.5,0.2c0.4,0.1,0.8,0.4,1,0.8c0.3,0.4,0.4,0.8,0.4,1.4c0,0.7-0.2,1.3-0.6,1.7
			c-0.4,0.4-1.1,0.7-2.2,0.7h-1.9v3.2H-53.4z M-52.4,10.1h1.9c0.6,0,1.1-0.1,1.3-0.4s0.4-0.6,0.4-1.1c0-0.3-0.1-0.6-0.2-0.8
			c-0.1-0.2-0.3-0.4-0.5-0.5c-0.2-0.1-0.6-0.1-1.1-0.1h-1.9V10.1z"/>
		<path d="M-46.4,14.3V6.4h3.3c0.7,0,1.2,0.1,1.5,0.2c0.3,0.1,0.6,0.4,0.8,0.7s0.3,0.7,0.3,1.2c0,0.6-0.2,1.1-0.5,1.4
			c-0.4,0.4-0.9,0.6-1.6,0.7c0.3,0.1,0.5,0.3,0.6,0.4c0.3,0.3,0.6,0.6,0.8,1l1.3,2.1h-1.2l-1-1.6c-0.4-0.6-0.7-1.1-0.9-1.3
			s-0.4-0.4-0.6-0.4c-0.2-0.1-0.4-0.1-0.8-0.1h-1.1v3.5H-46.4z M-45.5,9.9h2.1c0.5,0,0.8,0,1.1-0.1c0.2-0.1,0.4-0.2,0.6-0.5
			c0.1-0.2,0.2-0.5,0.2-0.7c0-0.4-0.1-0.7-0.4-0.9s-0.7-0.3-1.2-0.3h-2.4V9.9z"/>
	</g>
</g>
<g id="Nav_Button">
	<path class="st13" d="M-103.4,17.3c0,1.1-0.9,2-2,2h-28.1c-1.1,0-2-0.9-2-2V2.5c0-1.1,0.9-2,2-2h28.1c1.1,0,2,0.9,2,2V17.3z"/>
	<g>
		<path d="M-129,14.3V6.4h1l3.9,6.2V6.4h0.9v7.9h-1l-3.9-6.2v6.2H-129z"/>
		<path d="M-122.2,14.3l2.9-7.9h1.1l3,7.9h-1.1l-0.9-2.4h-3.1l-0.8,2.4H-122.2z M-120.1,11h2.5l-0.8-2.2c-0.2-0.7-0.4-1.2-0.5-1.6
			c-0.1,0.5-0.2,1-0.4,1.5L-120.1,11z"/>
		<path d="M-113.1,14.3l-2.9-7.9h1.1l1.9,5.7c0.1,0.4,0.3,0.9,0.4,1.3c0.1-0.4,0.2-0.9,0.4-1.3l2-5.7h1l-2.9,7.9H-113.1z"/>
	</g>
</g>
<g id="HGD_Button">
	<path class="st13" d="M-171.6,17.3c0,1.1-0.9,2-2,2h-28.1c-1.1,0-2-0.9-2-2V2.5c0-1.1,0.9-2,2-2h28.1c1.1,0,2,0.9,2,2V17.3z"/>
	<g>
		<path d="M-198.4,14.3V6.4h1v3.2h3.9V6.4h1v7.9h-1v-3.7h-3.9v3.7H-198.4z"/>
		<path d="M-190.9,14.3V6.4h2.6c0.6,0,1.1,0,1.4,0.1c0.4,0.1,0.8,0.4,1.1,0.7c0.3,0.3,0.6,0.8,0.7,1.3c0.2,0.5,0.3,1.1,0.3,1.8
			c0,0.9-0.2,1.6-0.5,2.3c-0.3,0.6-0.7,1.1-1.2,1.3c-0.5,0.3-1.1,0.4-1.9,0.4H-190.9z M-189.9,13.3h1.6c0.6,0,1.1-0.1,1.5-0.3
			c0.3-0.2,0.6-0.5,0.8-0.9c0.2-0.5,0.4-1.2,0.4-1.9c0-0.8-0.1-1.4-0.4-1.9c-0.3-0.5-0.6-0.8-1-0.9c-0.3-0.1-0.7-0.2-1.3-0.2h-1.6
			V13.3z"/>
		<path d="M-179.9,11.2v-0.9l3.2,0v2.9c-0.5,0.4-1,0.7-1.5,0.9s-1,0.3-1.6,0.3c-0.7,0-1.4-0.2-1.9-0.5s-1-0.8-1.4-1.4
			s-0.5-1.3-0.5-2.2c0-0.9,0.2-1.6,0.5-2.2s0.8-1.1,1.3-1.4c0.5-0.3,1.2-0.5,1.9-0.5c0.5,0,1,0.1,1.4,0.3c0.4,0.2,0.7,0.4,1,0.7
			s0.5,0.8,0.6,1.3l-0.9,0.3c-0.1-0.4-0.3-0.8-0.5-1c-0.2-0.2-0.4-0.4-0.7-0.5c-0.3-0.1-0.6-0.2-1-0.2c-0.5,0-1,0.1-1.4,0.3
			c-0.4,0.2-0.7,0.6-0.9,1.1c-0.2,0.5-0.4,1.1-0.4,1.8c0,1.1,0.3,1.8,0.8,2.4c0.5,0.5,1.2,0.8,2,0.8c0.4,0,0.8-0.1,1.2-0.2
			c0.4-0.2,0.7-0.4,1-0.6v-1.5H-179.9z"/>
	</g>
</g>
<g id="AP_Button">
	<path class="st13" d="M-275.5,18.3c0,1.1-0.9,2-2,2h-28.1c-1.1,0-2-0.9-2-2V3.5c0-1.1,0.9-2,2-2h28.1c1.1,0,2,0.9,2,2V18.3z"/>
	<g>
		<path d="M-299.1,15.3l2.9-7.9h1.1l3,7.9h-1.1l-0.9-2.4h-3.1l-0.8,2.4H-299.1z M-297,12h2.5l-0.8-2.2c-0.2-0.7-0.4-1.2-0.5-1.6
			c-0.1,0.5-0.2,1-0.4,1.5L-297,12z"/>
		<path d="M-291.4,15.3V7.4h2.8c0.7,0,1.1,0,1.5,0.2c0.4,0.1,0.8,0.4,1,0.8c0.3,0.4,0.4,0.8,0.4,1.4c0,0.7-0.2,1.3-0.6,1.7
			c-0.4,0.4-1.1,0.7-2.2,0.7h-1.9v3.2H-291.4z M-290.4,11.1h1.9c0.6,0,1.1-0.1,1.3-0.4s0.4-0.6,0.4-1.1c0-0.3-0.1-0.6-0.2-0.8
			c-0.1-0.2-0.3-0.4-0.5-0.5c-0.2-0.1-0.6-0.1-1.1-0.1h-1.9V11.1z"/>
	</g>
</g>
<g id="Text" class="st0">
	<g class="st2">
		<rect x="-237.9" y="-96.1" class="st5" width="65" height="25.3"/>
		<path class="st14" d="M-232.4-84.3l-1.1,9.2l-1,0.8l-0.8-1l1.1-9.2l1-0.8L-232.4-84.3z M-224.1-73.7l0.8,1l-1,0.8l-9.1-1.1l-0.8-1
			l1-0.8L-224.1-73.7z M-231-95.6l-1.1,9.2l-1,0.8l-0.8-1l1.1-9.2l1-0.8L-231-95.6z M-227.7-84.2l0.3,1.4l-3.9,7.1l-1.2,0.5
			l-0.3-1.5l3.9-7L-227.7-84.2z M-221.4-96.4l0.8,1l-1,0.8l-9.1-1.1l-0.8-1l1-0.8L-221.4-96.4z M-222.4-94.1l0.3,1.4l-3.9,7.1
			l-1.2,0.5l-0.3-1.5l3.9-7L-222.4-94.1z M-221-82.9l-1.1,9.2l-1,0.8l-0.8-1l1.1-9.2l1-0.8L-221-82.9z M-219.7-94.2l-1.1,9.2l-1,0.8
			l-0.8-1l1.1-9.2l1-0.8L-219.7-94.2z"/>
		<path class="st14" d="M-210.8-84.3l-1.1,9.2l-1,0.8l-0.8-1l1.1-9.2l1-0.8L-210.8-84.3z M-202.5-73.7l0.8,1l-1,0.8l-9.1-1.1l-0.8-1
			l1-0.8L-202.5-73.7z M-209.4-95.6l-1.1,9.2l-1,0.8l-0.8-1l1.1-9.2l1-0.8L-209.4-95.6z M-206-84.2l0.3,1.4l-3.9,7.1l-1.2,0.5
			l-0.3-1.5l3.9-7L-206-84.2z M-199.8-96.4l0.8,1l-1,0.8l-9.1-1.1l-0.8-1l1-0.8L-199.8-96.4z M-200.8-94.1l0.3,1.4l-3.9,7.1
			l-1.2,0.5l-0.3-1.5l3.9-7L-200.8-94.1z M-199.4-82.9l-1.1,9.2l-1,0.8l-0.8-1l1.1-9.2l1-0.8L-199.4-82.9z M-198-94.2l-1.1,9.2
			l-1,0.8l-0.8-1l1.1-9.2l1-0.8L-198-94.2z"/>
		<path class="st14" d="M-189.2-84.3l-1.1,9.2l-1,0.8l-0.8-1l1.1-9.2l1-0.8L-189.2-84.3z M-180.9-73.7l0.8,1l-1,0.8l-9.1-1.1l-0.8-1
			l1-0.8L-180.9-73.7z M-187.8-95.6l-1.1,9.2l-1,0.8l-0.8-1l1.1-9.2l1-0.8L-187.8-95.6z M-184.4-84.2l0.3,1.4l-3.9,7.1l-1.2,0.5
			l-0.3-1.5l3.9-7L-184.4-84.2z M-178.2-96.4l0.8,1l-1,0.8l-9.1-1.1l-0.8-1l1-0.8L-178.2-96.4z M-179.2-94.1l0.3,1.4l-3.9,7.1
			l-1.2,0.5l-0.3-1.5l3.9-7L-179.2-94.1z M-177.8-82.9l-1.1,9.2l-1,0.8l-0.8-1l1.1-9.2l1-0.8L-177.8-82.9z M-176.4-94.2l-1.1,9.2
			l-1,0.8l-0.8-1l1.1-9.2l1-0.8L-176.4-94.2z"/>
	</g>
	<g class="st2">
		<rect x="-239.9" y="-62.1" class="st5" width="65" height="25.3"/>
		<path class="st14" d="M-236.2-61.1v9.3l-0.9,0.9l-0.9-0.9v-9.3l0.9-0.9L-236.2-61.1z M-236.2-49.6v9.3l-0.9,0.9l-0.9-0.9v-9.3
			l0.9-0.9L-236.2-49.6z M-226.8-63.1l0.9,0.9l-0.9,0.9h-9.2l-0.9-0.9l0.9-0.9H-226.8z M-226.8-40.2l0.9,0.9l-0.9,0.9h-9.2l-0.9-0.9
			l0.9-0.9H-226.8z M-231.5-50.1l0.5,1.3l-3,7.5l-1.2,0.6l-0.5-1.4l3-7.4L-231.5-50.1z M-227.5-60.6l0.5,1.3l-3,7.5l-1.2,0.6
			l-0.5-1.4l3-7.4L-227.5-60.6z M-224.8-61.1v9.3l-0.9,0.9l-0.9-0.9v-9.3l0.9-0.9L-224.8-61.1z M-224.8-49.6v9.3l-0.9,0.9l-0.9-0.9
			v-9.3l0.9-0.9L-224.8-49.6z"/>
		<path class="st14" d="M-213.4-61.1v9.3l-0.9,0.9l-0.9-0.9v-9.3l0.9-0.9L-213.4-61.1z M-213.4-49.6v9.3l-0.9,0.9l-0.9-0.9v-9.3
			l0.9-0.9L-213.4-49.6z M-203.9-63.1l0.9,0.9l-0.9,0.9h-9.2l-0.9-0.9l0.9-0.9H-203.9z M-203.9-40.2l0.9,0.9l-0.9,0.9h-9.2l-0.9-0.9
			l0.9-0.9H-203.9z M-208.7-50.1l0.5,1.3l-3,7.5l-1.2,0.6l-0.5-1.4l3-7.4L-208.7-50.1z M-204.7-60.6l0.5,1.3l-3,7.5l-1.2,0.6
			l-0.5-1.4l3-7.4L-204.7-60.6z M-201.9-61.1v9.3l-0.9,0.9l-0.9-0.9v-9.3l0.9-0.9L-201.9-61.1z M-201.9-49.6v9.3l-0.9,0.9l-0.9-0.9
			v-9.3l0.9-0.9L-201.9-49.6z"/>
		<path class="st14" d="M-190.5-61.1v9.3l-0.9,0.9l-0.9-0.9v-9.3l0.9-0.9L-190.5-61.1z M-190.5-49.6v9.3l-0.9,0.9l-0.9-0.9v-9.3
			l0.9-0.9L-190.5-49.6z M-181.1-63.1l0.9,0.9l-0.9,0.9h-9.2l-0.9-0.9l0.9-0.9H-181.1z M-181-40.2l0.9,0.9l-0.9,0.9h-9.2l-0.9-0.9
			l0.9-0.9H-181z M-185.8-50.1l0.5,1.3l-3,7.5l-1.2,0.6l-0.5-1.4l3-7.4L-185.8-50.1z M-181.8-60.6l0.5,1.3l-3,7.5l-1.2,0.6l-0.5-1.4
			l3-7.4L-181.8-60.6z M-179.1-61.1v9.3l-0.9,0.9l-0.9-0.9v-9.3l0.9-0.9L-179.1-61.1z M-179.1-49.6v9.3l-0.9,0.9l-0.9-0.9v-9.3
			l0.9-0.9L-179.1-49.6z"/>
	</g>
	<g class="st2">
		<rect x="-129.9" y="-96.1" class="st5" width="65" height="25.3"/>
		<path class="st14" d="M-124.4-84.3l-1.1,9.2l-1,0.8l-0.8-1l1.1-9.2l1-0.8L-124.4-84.3z M-116.1-73.7l0.8,1l-1,0.8l-9.1-1.1l-0.8-1
			l1-0.8L-116.1-73.7z M-123-95.6l-1.1,9.2l-1,0.8l-0.8-1l1.1-9.2l1-0.8L-123-95.6z M-119.7-84.2l0.3,1.4l-3.9,7.1l-1.2,0.5
			l-0.3-1.5l3.9-7L-119.7-84.2z M-113.4-96.4l0.8,1l-1,0.8l-9.1-1.1l-0.8-1l1-0.8L-113.4-96.4z M-114.4-94.1l0.3,1.4l-3.9,7.1
			l-1.2,0.5l-0.3-1.5l3.9-7L-114.4-94.1z M-113-82.9l-1.1,9.2l-1,0.8l-0.8-1l1.1-9.2l1-0.8L-113-82.9z M-111.7-94.2l-1.1,9.2l-1,0.8
			l-0.8-1l1.1-9.2l1-0.8L-111.7-94.2z"/>
		<path class="st14" d="M-102.8-84.3l-1.1,9.2l-1,0.8l-0.8-1l1.1-9.2l1-0.8L-102.8-84.3z M-94.5-73.7l0.8,1l-1,0.8l-9.1-1.1l-0.8-1
			l1-0.8L-94.5-73.7z M-101.4-95.6l-1.1,9.2l-1,0.8l-0.8-1l1.1-9.2l1-0.8L-101.4-95.6z M-98-84.2l0.3,1.4l-3.9,7.1l-1.2,0.5
			l-0.3-1.5l3.9-7L-98-84.2z M-91.8-96.4l0.8,1l-1,0.8l-9.1-1.1l-0.8-1l1-0.8L-91.8-96.4z M-92.8-94.1l0.3,1.4l-3.9,7.1l-1.2,0.5
			l-0.3-1.5l3.9-7L-92.8-94.1z M-91.4-82.9l-1.1,9.2l-1,0.8l-0.8-1l1.1-9.2l1-0.8L-91.4-82.9z M-90-94.2l-1.1,9.2l-1,0.8l-0.8-1
			l1.1-9.2l1-0.8L-90-94.2z"/>
		<path class="st14" d="M-81.2-84.3l-1.1,9.2l-1,0.8l-0.8-1l1.1-9.2l1-0.8L-81.2-84.3z M-72.9-73.7l0.8,1l-1,0.8l-9.1-1.1l-0.8-1
			l1-0.8L-72.9-73.7z M-79.8-95.6l-1.1,9.2l-1,0.8l-0.8-1l1.1-9.2l1-0.8L-79.8-95.6z M-76.4-84.2l0.3,1.4l-3.9,7.1l-1.2,0.5
			l-0.3-1.5l3.9-7L-76.4-84.2z M-70.2-96.4l0.8,1l-1,0.8l-9.1-1.1l-0.8-1l1-0.8L-70.2-96.4z M-71.2-94.1l0.3,1.4l-3.9,7.1l-1.2,0.5
			l-0.3-1.5l3.9-7L-71.2-94.1z M-69.8-82.9l-1.1,9.2l-1,0.8l-0.8-1l1.1-9.2l1-0.8L-69.8-82.9z M-68.4-94.2l-1.1,9.2l-1,0.8l-0.8-1
			l1.1-9.2l1-0.8L-68.4-94.2z"/>
	</g>
	<g class="st2">
		<rect x="-131.9" y="-62.1" class="st5" width="65" height="25.3"/>
		<path class="st14" d="M-128.2-61.1v9.3l-0.9,0.9l-0.9-0.9v-9.3l0.9-0.9L-128.2-61.1z M-128.2-49.6v9.3l-0.9,0.9l-0.9-0.9v-9.3
			l0.9-0.9L-128.2-49.6z M-118.8-63.1l0.9,0.9l-0.9,0.9h-9.2l-0.9-0.9l0.9-0.9H-118.8z M-118.8-40.2l0.9,0.9l-0.9,0.9h-9.2l-0.9-0.9
			l0.9-0.9H-118.8z M-123.5-50.1l0.5,1.3l-3,7.5l-1.2,0.6l-0.5-1.4l3-7.4L-123.5-50.1z M-119.5-60.6l0.5,1.3l-3,7.5l-1.2,0.6
			l-0.5-1.4l3-7.4L-119.5-60.6z M-116.8-61.1v9.3l-0.9,0.9l-0.9-0.9v-9.3l0.9-0.9L-116.8-61.1z M-116.8-49.6v9.3l-0.9,0.9l-0.9-0.9
			v-9.3l0.9-0.9L-116.8-49.6z"/>
		<path class="st14" d="M-105.4-61.1v9.3l-0.9,0.9l-0.9-0.9v-9.3l0.9-0.9L-105.4-61.1z M-105.4-49.6v9.3l-0.9,0.9l-0.9-0.9v-9.3
			l0.9-0.9L-105.4-49.6z M-95.9-63.1l0.9,0.9l-0.9,0.9h-9.2l-0.9-0.9l0.9-0.9H-95.9z M-95.9-40.2l0.9,0.9l-0.9,0.9h-9.2l-0.9-0.9
			l0.9-0.9H-95.9z M-100.7-50.1l0.5,1.3l-3,7.5l-1.2,0.6l-0.5-1.4l3-7.4L-100.7-50.1z M-96.7-60.6l0.5,1.3l-3,7.5l-1.2,0.6l-0.5-1.4
			l3-7.4L-96.7-60.6z M-93.9-61.1v9.3l-0.9,0.9l-0.9-0.9v-9.3l0.9-0.9L-93.9-61.1z M-93.9-49.6v9.3l-0.9,0.9l-0.9-0.9v-9.3l0.9-0.9
			L-93.9-49.6z"/>
		<path class="st14" d="M-82.5-61.1v9.3l-0.9,0.9l-0.9-0.9v-9.3l0.9-0.9L-82.5-61.1z M-82.5-49.6v9.3l-0.9,0.9l-0.9-0.9v-9.3
			l0.9-0.9L-82.5-49.6z M-73.1-63.1l0.9,0.9l-0.9,0.9h-9.2l-0.9-0.9l0.9-0.9H-73.1z M-73-40.2l0.9,0.9l-0.9,0.9h-9.2l-0.9-0.9
			l0.9-0.9H-73z M-77.8-50.1l0.5,1.3l-3,7.5l-1.2,0.6l-0.5-1.4l3-7.4L-77.8-50.1z M-73.8-60.6l0.5,1.3l-3,7.5l-1.2,0.6l-0.5-1.4
			l3-7.4L-73.8-60.6z M-71.1-61.1v9.3l-0.9,0.9l-0.9-0.9v-9.3l0.9-0.9L-71.1-61.1z M-71.1-49.6v9.3l-0.9,0.9l-0.9-0.9v-9.3l0.9-0.9
			L-71.1-49.6z"/>
	</g>
	<g class="st2">
		<rect x="-20.1" y="-96.1" class="st5" width="111.2" height="25.3"/>
		<path class="st14" d="M-14.6-84.3l-1.1,9.2l-1,0.8l-0.8-1l1.1-9.2l1-0.8L-14.6-84.3z M-6.4-73.7l0.8,1l-1,0.8l-9.1-1.1l-0.8-1
			l1-0.8L-6.4-73.7z M-13.2-95.6l-1.1,9.2l-1,0.8l-0.8-1l1.1-9.2l1-0.8L-13.2-95.6z M-9.9-84.2l0.3,1.4l-3.9,7.1l-1.2,0.5l-0.3-1.5
			l3.9-7L-9.9-84.2z M-3.7-96.4l0.8,1l-1,0.8l-9.1-1.1l-0.8-1l1-0.8L-3.7-96.4z M-4.7-94.1l0.3,1.4l-3.9,7.1l-1.2,0.5l-0.3-1.5
			l3.9-7L-4.7-94.1z M-3.3-82.9l-1.1,9.2l-1,0.8l-0.8-1l1.1-9.2l1-0.8L-3.3-82.9z M-1.9-94.2L-3-85l-1,0.8l-0.8-1l1.1-9.2l1-0.8
			L-1.9-94.2z"/>
		<path class="st14" d="M7-84.3l-1.1,9.2l-1,0.8l-0.8-1l1.1-9.2l1-0.8L7-84.3z M15.2-73.7l0.8,1l-1,0.8l-9.1-1.1l-0.8-1l1-0.8
			L15.2-73.7z M8.4-95.6l-1.1,9.2l-1,0.8l-0.8-1l1.1-9.2l1-0.8L8.4-95.6z M11.7-84.2l0.3,1.4l-3.9,7.1l-1.2,0.5l-0.3-1.5l3.9-7
			L11.7-84.2z M17.9-96.4l0.8,1l-1,0.8l-9.1-1.1l-0.8-1l1-0.8L17.9-96.4z M16.9-94.1l0.3,1.4l-3.9,7.1l-1.2,0.5l-0.3-1.5l3.9-7
			L16.9-94.1z M18.3-82.9l-1.1,9.2l-1,0.8l-0.8-1l1.1-9.2l1-0.8L18.3-82.9z M19.7-94.2L18.6-85l-1,0.8l-0.8-1l1.1-9.2l1-0.8
			L19.7-94.2z"/>
		<path class="st14" d="M28.6-84.3l-1.1,9.2l-1,0.8l-0.8-1l1.1-9.2l1-0.8L28.6-84.3z M36.8-73.7l0.8,1l-1,0.8l-9.1-1.1l-0.8-1l1-0.8
			L36.8-73.7z M30-95.6l-1.1,9.2l-1,0.8l-0.8-1l1.1-9.2l1-0.8L30-95.6z M33.3-84.2l0.3,1.4l-3.9,7.1l-1.2,0.5l-0.3-1.5l3.9-7
			L33.3-84.2z M39.6-96.4l0.8,1l-1,0.8l-9.1-1.1l-0.8-1l1-0.8L39.6-96.4z M38.6-94.1l0.3,1.4l-3.9,7.1l-1.2,0.5l-0.3-1.5l3.9-7
			L38.6-94.1z M39.9-82.9l-1.1,9.2l-1,0.8l-0.8-1l1.1-9.2l1-0.8L39.9-82.9z M41.3-94.2L40.2-85l-1,0.8l-0.8-1l1.1-9.2l1-0.8
			L41.3-94.2z"/>
		<path class="st14" d="M50.2-84.3l-1.1,9.2l-1,0.8l-0.8-1l1.1-9.2l1-0.8L50.2-84.3z M58.4-73.7l0.8,1l-1,0.8l-9.1-1.1l-0.8-1l1-0.8
			L58.4-73.7z M51.6-95.6l-1.1,9.2l-1,0.8l-0.8-1l1.1-9.2l1-0.8L51.6-95.6z M54.9-84.2l0.3,1.4l-3.9,7.1l-1.2,0.5l-0.3-1.5l3.9-7
			L54.9-84.2z M61.2-96.4l0.8,1l-1,0.8l-9.1-1.1l-0.8-1l1-0.8L61.2-96.4z M60.2-94.1l0.3,1.4l-3.9,7.1l-1.2,0.5L55-86.6l3.9-7
			L60.2-94.1z M61.5-82.9l-1.1,9.2l-1,0.8l-0.8-1l1.1-9.2l1-0.8L61.5-82.9z M62.9-94.2L61.8-85l-1,0.8l-0.8-1l1.1-9.2l1-0.8
			L62.9-94.2z"/>
		<path class="st14" d="M71.8-84.3l-1.1,9.2l-1,0.8l-0.8-1l1.1-9.2l1-0.8L71.8-84.3z M80.1-73.7l0.8,1l-1,0.8l-9.1-1.1l-0.8-1l1-0.8
			L80.1-73.7z M73.2-95.6l-1.1,9.2l-1,0.8l-0.8-1l1.1-9.2l1-0.8L73.2-95.6z M76.5-84.2l0.3,1.4l-3.9,7.1l-1.2,0.5l-0.3-1.5l3.9-7
			L76.5-84.2z M82.8-96.4l0.8,1l-1,0.8l-9.1-1.1l-0.8-1l1-0.8L82.8-96.4z M81.8-94.1l0.3,1.4l-3.9,7.1l-1.2,0.5l-0.3-1.5l3.9-7
			L81.8-94.1z M83.2-82.9L82-73.7l-1,0.8l-0.8-1l1.1-9.2l1-0.8L83.2-82.9z M84.5-94.2L83.4-85l-1,0.8l-0.8-1l1.1-9.2l1-0.8
			L84.5-94.2z"/>
	</g>
</g>
<g id="R_Flag" class="st0">
	<g class="st2">
		<rect x="-286" y="-19.6" class="st5" width="12.6" height="13.5"/>
		<path class="st15" d="M-285.1-11v-8.6h3.7c0.9,0,1.6,0.1,2,0.2s0.7,0.4,1,0.8s0.4,0.8,0.4,1.4c0,0.6-0.2,1.2-0.6,1.6
			c-0.4,0.4-0.9,0.7-1.7,0.8c0.4,0.2,0.7,0.5,0.9,0.7s0.6,0.7,1,1.4l1,1.7h-2.1l-1.3-1.9c-0.4-0.7-0.8-1.1-0.9-1.3s-0.3-0.3-0.5-0.4
			s-0.5-0.1-0.9-0.1h-0.4v3.6H-285.1z M-283.4-16h1.3c0.8,0,1.4,0,1.6-0.1s0.4-0.2,0.5-0.4s0.2-0.4,0.2-0.6c0-0.3-0.1-0.5-0.2-0.7
			s-0.4-0.3-0.7-0.3c-0.1,0-0.6,0-1.3,0h-1.4V-16z"/>
	</g>
</g>
<g id="P_Flag" class="st0">
	<g class="st2">
		<rect x="-304.9" y="-19.6" class="st5" width="10" height="13.5"/>
		<path class="st15" d="M-304-11v-8.6h2.8c1.1,0,1.7,0,2.1,0.1c0.5,0.1,0.9,0.4,1.2,0.8s0.5,1,0.5,1.7c0,0.5-0.1,1-0.3,1.3
			c-0.2,0.4-0.4,0.6-0.7,0.8s-0.6,0.3-0.9,0.4c-0.4,0.1-1,0.1-1.8,0.1h-1.1v3.2H-304z M-302.3-18.2v2.4h0.9c0.7,0,1.1,0,1.4-0.1
			s0.4-0.2,0.5-0.4s0.2-0.4,0.2-0.7c0-0.3-0.1-0.6-0.3-0.8s-0.4-0.3-0.7-0.4c-0.2,0-0.6-0.1-1.2-0.1H-302.3z"/>
	</g>
</g>
<g id="L_Arm_Flag" class="st0">
	<g class="st2">
		<rect x="-170.9" y="-72.5" class="st5" width="9" height="37.5"/>
		<path class="st14" d="M-169.4-63.1l3-7.9h1.1l3.2,7.9h-1.2l-0.9-2.4h-3.3l-0.9,2.4H-169.4z M-167.2-66.3h2.7l-0.8-2.2
			c-0.3-0.7-0.4-1.2-0.6-1.6c-0.1,0.5-0.2,1-0.4,1.5L-167.2-66.3z"/>
		<path class="st14" d="M-168.9-50.4v-7.9h3.5c0.7,0,1.2,0.1,1.6,0.2c0.4,0.1,0.7,0.4,0.9,0.7s0.3,0.8,0.3,1.2c0,0.6-0.2,1-0.5,1.4
			s-0.9,0.6-1.7,0.7c0.3,0.1,0.5,0.3,0.6,0.4c0.3,0.3,0.6,0.6,0.9,1l1.4,2.1h-1.3l-1-1.6c-0.3-0.5-0.6-0.8-0.8-1.1
			c-0.2-0.3-0.4-0.4-0.5-0.5c-0.2-0.1-0.3-0.2-0.5-0.2c-0.1,0-0.3,0-0.6,0h-1.2v3.5H-168.9z M-167.8-54.8h2.2c0.5,0,0.8,0,1.1-0.1
			c0.3-0.1,0.5-0.3,0.6-0.5c0.1-0.2,0.2-0.5,0.2-0.7c0-0.4-0.1-0.7-0.4-0.9s-0.7-0.4-1.3-0.4h-2.5V-54.8z"/>
		<path class="st14" d="M-169.5-37.7v-7.9h1.6l1.9,5.6c0.2,0.5,0.3,0.9,0.4,1.2c0.1-0.3,0.2-0.7,0.4-1.3l1.9-5.5h1.4v7.9h-1v-6.6
			l-2.3,6.6h-0.9l-2.3-6.7v6.7H-169.5z"/>
	</g>
</g>
<g id="R_Arm_Flag" class="st0">
	<g class="st2">
		<rect x="-65.9" y="-73.2" class="st5" width="9" height="37.5"/>
		<path class="st14" d="M-64.4-63.8l3-7.9h1.1l3.2,7.9h-1.2l-0.9-2.4h-3.3l-0.9,2.4H-64.4z M-62.2-67h2.7l-0.8-2.2
			c-0.3-0.7-0.4-1.2-0.6-1.6c-0.1,0.5-0.2,1-0.4,1.5L-62.2-67z"/>
		<path class="st14" d="M-63.9-51.1V-59h3.5c0.7,0,1.2,0.1,1.6,0.2c0.4,0.1,0.7,0.4,0.9,0.7s0.3,0.8,0.3,1.2c0,0.6-0.2,1-0.5,1.4
			s-0.9,0.6-1.7,0.7c0.3,0.1,0.5,0.3,0.6,0.4c0.3,0.3,0.6,0.6,0.9,1l1.4,2.1h-1.3l-1-1.6c-0.3-0.5-0.6-0.8-0.8-1.1
			c-0.2-0.3-0.4-0.4-0.5-0.5c-0.2-0.1-0.3-0.2-0.5-0.2c-0.1,0-0.3,0-0.6,0h-1.2v3.5H-63.9z M-62.8-55.5h2.2c0.5,0,0.8,0,1.1-0.1
			c0.3-0.1,0.5-0.3,0.6-0.5c0.1-0.2,0.2-0.5,0.2-0.7c0-0.4-0.1-0.7-0.4-0.9s-0.7-0.4-1.3-0.4h-2.5V-55.5z"/>
		<path class="st14" d="M-64.5-38.4v-7.9h1.6l1.9,5.6c0.2,0.5,0.3,0.9,0.4,1.2c0.1-0.3,0.2-0.7,0.4-1.3l1.9-5.5h1.4v7.9h-1V-45
			l-2.3,6.6h-0.9l-2.3-6.7v6.7H-64.5z"/>
	</g>
</g>
<g id="PT_Down" class="st0">
	<polygon class="st16" points="-44.3,-50.4 -40.1,-39.8 -36,-50.4 	"/>
</g>
<g id="PT_Up" class="st0">
	<polygon class="st16" points="-44.3,-83.5 -40.1,-94.1 -36,-83.5 	"/>
</g>
<g id="PT_Flag" class="st0">
	<g class="st2">
		<rect x="-45.4" y="-79.5" class="st5" width="9" height="26.7"/>
		<path class="st14" d="M-43.1-70v-7.9h3c0.5,0,0.9,0,1.2,0.1c0.4,0.1,0.7,0.2,1,0.4c0.3,0.2,0.5,0.4,0.6,0.8s0.2,0.7,0.2,1.1
			c0,0.7-0.2,1.2-0.6,1.7c-0.4,0.5-1.2,0.7-2.3,0.7h-2v3.2H-43.1z M-42.1-74.2h2c0.7,0,1.2-0.1,1.4-0.4s0.4-0.6,0.4-1.1
			c0-0.3-0.1-0.6-0.3-0.8c-0.2-0.2-0.4-0.4-0.7-0.5c-0.2,0-0.5-0.1-1-0.1h-2V-74.2z"/>
		<path class="st14" d="M-40.8-57.4v-6.9h-2.6v-0.9h6.2v0.9h-2.6v6.9H-40.8z"/>
	</g>
</g>
<g id="FPM_Flag" class="st0">
	<g class="st2">
		<rect x="36.1" y="-62.9" class="st5" width="26.8" height="8.4"/>
		<path class="st14" d="M37-55v-7.9h5.3v0.9H38v2.4h3.7v0.9H38v3.6H37z"/>
		<path class="st14" d="M45.3-55v-7.9h3c0.5,0,0.9,0,1.2,0.1c0.4,0.1,0.7,0.2,1,0.4c0.3,0.2,0.5,0.4,0.6,0.8s0.2,0.7,0.2,1.1
			c0,0.7-0.2,1.2-0.6,1.7c-0.4,0.5-1.2,0.7-2.3,0.7h-2v3.2H45.3z M46.4-59.1h2c0.7,0,1.2-0.1,1.4-0.4s0.4-0.6,0.4-1.1
			c0-0.3-0.1-0.6-0.3-0.8c-0.2-0.2-0.4-0.4-0.7-0.5c-0.2,0-0.5-0.1-1-0.1h-2V-59.1z"/>
		<path class="st14" d="M54.3-55v-7.9h1.6l1.9,5.6c0.2,0.5,0.3,0.9,0.4,1.2c0.1-0.3,0.2-0.7,0.4-1.3l1.9-5.5h1.4v7.9h-1v-6.6
			L58.5-55h-0.9l-2.3-6.7v6.7H54.3z"/>
	</g>
</g>
<g id="ALERT_Flag" class="st0">
	<g class="st2">
		<rect x="-18.7" y="-62.9" class="st5" width="43.8" height="8.4"/>
		<path class="st14" d="M-18.7-55l3-7.9h1.1l3.2,7.9h-1.2l-0.9-2.4h-3.3l-0.9,2.4H-18.7z M-16.4-58.2h2.7l-0.8-2.2
			c-0.3-0.7-0.4-1.2-0.6-1.6c-0.1,0.5-0.2,1-0.4,1.5L-16.4-58.2z"/>
		<path class="st14" d="M-8.8-55v-7.9h1v6.9h3.9v0.9H-8.8z"/>
		<path class="st14" d="M-1-55v-7.9h5.7v0.9H0v2.4h4.4v0.9H0v2.7h4.8v0.9H-1z"/>
		<path class="st14" d="M8-55v-7.9h3.5c0.7,0,1.2,0.1,1.6,0.2c0.4,0.1,0.7,0.4,0.9,0.7s0.3,0.8,0.3,1.2c0,0.6-0.2,1-0.5,1.4
			s-0.9,0.6-1.7,0.7c0.3,0.1,0.5,0.3,0.6,0.4c0.3,0.3,0.6,0.6,0.9,1l1.4,2.1h-1.3l-1-1.6c-0.3-0.5-0.6-0.8-0.8-1.1
			c-0.2-0.3-0.4-0.4-0.5-0.5c-0.2-0.1-0.3-0.2-0.5-0.2c-0.1,0-0.3,0-0.6,0H9v3.5H8z M9-59.4h2.2c0.5,0,0.8,0,1.1-0.1
			c0.3-0.1,0.5-0.3,0.6-0.5c0.1-0.2,0.2-0.5,0.2-0.7c0-0.4-0.1-0.7-0.4-0.9S12.1-62,11.5-62H9V-59.4z"/>
		<path class="st14" d="M19.4-55v-6.9h-2.6v-0.9H23v0.9h-2.6v6.9H19.4z"/>
	</g>
</g>
<g id="HPA_Flag" class="st0">
	<g class="st2">
		<rect x="-2.9" y="-49.3" class="st5" width="25.8" height="8.4"/>
		<path class="st14" d="M-2-41.4v-7.9h1v3.2h4.1v-3.2h1v7.9h-1v-3.7H-1v3.7H-2z"/>
		<path class="st14" d="M7.5-41.4v-7.9h3c0.5,0,0.9,0,1.2,0.1c0.4,0.1,0.7,0.2,1,0.4c0.3,0.2,0.5,0.4,0.6,0.8s0.2,0.7,0.2,1.1
			c0,0.7-0.2,1.2-0.6,1.7c-0.4,0.5-1.2,0.7-2.3,0.7h-2v3.2H7.5z M8.6-45.5h2c0.7,0,1.2-0.1,1.4-0.4s0.4-0.6,0.4-1.1
			c0-0.3-0.1-0.6-0.3-0.8c-0.2-0.2-0.4-0.4-0.7-0.5c-0.2,0-0.5-0.1-1-0.1h-2V-45.5z"/>
		<path class="st14" d="M14.8-41.4l3-7.9H19l3.2,7.9H21l-0.9-2.4h-3.3l-0.9,2.4H14.8z M17.1-44.6h2.7L19-46.8
			c-0.3-0.7-0.4-1.2-0.6-1.6c-0.1,0.5-0.2,1-0.4,1.5L17.1-44.6z"/>
	</g>
</g>
<g id="IN_HG_Flag" class="st0">
	<g class="st2">
		<rect x="49.5" y="-49.3" class="st5" width="15.8" height="8.4"/>
		<path class="st14" d="M50.5-41.4v-7.9h1v7.9H50.5z"/>
		<path class="st14" d="M55-41.4v-7.9h1.1l4.1,6.2v-6.2h1v7.9h-1.1L56-47.6v6.2H55z"/>
	</g>
	<g class="st2">
		<rect x="68.6" y="-49.3" class="st5" width="19.7" height="8.4"/>
		<path class="st14" d="M69.5-41.4v-7.9h1v3.2h4.1v-3.2h1v7.9h-1v-3.7h-4.1v3.7H69.5z"/>
		<path class="st14" d="M82.7-44.5v-0.9l3.3,0v2.9c-0.5,0.4-1,0.7-1.6,0.9c-0.5,0.2-1.1,0.3-1.7,0.3c-0.8,0-1.5-0.2-2.1-0.5
			c-0.6-0.3-1.1-0.8-1.4-1.4s-0.5-1.3-0.5-2.1c0-0.8,0.2-1.5,0.5-2.1c0.3-0.7,0.8-1.2,1.4-1.5s1.3-0.5,2.1-0.5
			c0.6,0,1.1,0.1,1.5,0.3c0.5,0.2,0.8,0.4,1.1,0.8s0.5,0.8,0.6,1.3L85-46.8c-0.1-0.4-0.3-0.7-0.4-0.9s-0.4-0.4-0.8-0.6
			c-0.3-0.1-0.7-0.2-1.1-0.2c-0.5,0-0.9,0.1-1.2,0.2c-0.3,0.1-0.6,0.3-0.8,0.6s-0.4,0.5-0.5,0.8c-0.2,0.5-0.3,1-0.3,1.6
			c0,0.7,0.1,1.3,0.4,1.8c0.2,0.5,0.6,0.8,1.1,1.1c0.5,0.2,1,0.3,1.5,0.3c0.5,0,0.9-0.1,1.3-0.3c0.4-0.2,0.8-0.4,1-0.6v-1.5H82.7z"
			/>
	</g>
</g>
<g id="FT_Flag" class="st0">
	<g class="st2">
		<rect x="68.6" y="-62.9" class="st5" width="15.8" height="8.4"/>
		<path class="st14" d="M69.5-55v-7.9h5.3v0.9h-4.3v2.4h3.7v0.9h-3.7v3.6H69.5z"/>
		<path class="st14" d="M79.8-55v-6.9h-2.6v-0.9h6.2v0.9h-2.6v6.9H79.8z"/>
	</g>
</g>
<g id="AP_Flag" class="st0">
	<g class="st2">
		<rect x="-155.2" y="-91.9" class="st5" width="16.8" height="8.4"/>
		<path class="st14" d="M-155.2-84l3-7.9h1.1l3.2,7.9h-1.2l-0.9-2.4h-3.3l-0.9,2.4H-155.2z M-152.9-87.2h2.7l-0.8-2.2
			c-0.3-0.7-0.4-1.2-0.6-1.6c-0.1,0.5-0.2,1-0.4,1.5L-152.9-87.2z"/>
		<path class="st14" d="M-145.3-84v-7.9h3c0.5,0,0.9,0,1.2,0.1c0.4,0.1,0.7,0.2,1,0.4c0.3,0.2,0.5,0.4,0.6,0.8s0.2,0.7,0.2,1.1
			c0,0.7-0.2,1.2-0.6,1.7c-0.4,0.5-1.2,0.7-2.3,0.7h-2v3.2H-145.3z M-144.3-88.1h2c0.7,0,1.2-0.1,1.4-0.4s0.4-0.6,0.4-1.1
			c0-0.3-0.1-0.6-0.3-0.8c-0.2-0.2-0.4-0.4-0.7-0.5c-0.2,0-0.5-0.1-1-0.1h-2V-88.1z"/>
	</g>
	<polygon class="st16" points="-138.6,-94.1 -155.6,-94.1 -157.1,-95.6 -137.3,-95.6 	"/>
	<polygon class="st16" points="-138.3,-81 -155.3,-81 -156.8,-79.5 -137,-79.5 	"/>
	<polygon class="st16" points="-137.6,-93.6 -137.6,-81.7 -136.1,-80.7 -136.1,-94.6 	"/>
	<polygon class="st16" points="-156.5,-93.6 -156.5,-81.7 -158,-80.7 -158,-94.6 	"/>
</g>
</svg>
