<?xml version="1.0" encoding="utf-8"?>
<!-- Generator: Adobe Illustrator 19.0.0, SVG Export Plug-In . SVG Version: 6.00 Build 0)  -->
<svg version="1.1" id="Layer_1" xmlns="http://www.w3.org/2000/svg" xmlns:xlink="http://www.w3.org/1999/xlink" x="0px" y="0px"
	 viewBox="0 0 599 150.8" style="enable-background:new 0 0 599 150.8;" xml:space="preserve">
<style type="text/css">
	.st0{fill:#282828;stroke:#E5E5E5;stroke-width:2;stroke-miterlimit:10;}
	.st1{fill:#777C84;stroke:#C4C4C4;stroke-miterlimit:10;}
	.st2{fill:none;}
	.st3{fill:#FFFFFF;}
	.st4{fill:#1B9F49;}
	.st5{fill:#555555;}
	.st6{fill:#0B0B0B;stroke:#000000;stroke-width:3;stroke-miterlimit:10;}
	.st7{fill:#171617;}
	.st8{fill:#2E3192;}
	.st9{fill:#F15A29;}
	.st10{fill:#CCCACA;}
</style>
<path class="st0" d="M594.5,149.3H4.5c-1.7,0-3-1.3-3-3V4.5c0-1.7,1.3-3,3-3h590c1.6,0,3,1.4,3,3v141.8
	C597.5,148,596.2,149.3,594.5,149.3z"/>
<path class="st1" d="M229.8,65.8h-31c-3.9,0-7-3.2-7-7V29.4c0-3.9,3.1-7,7-7h31c3.8,0,7,3.1,7,7v29.3
	C236.8,62.6,233.6,65.8,229.8,65.8z"/>
<g id="XMLID_1_">
	<rect id="XMLID_224_" x="191.8" y="33.3" class="st2" width="45" height="10.8"/>
	<path id="XMLID_11_" class="st3" d="M204,38.8l1.1,0.3c-0.2,0.9-0.7,1.6-1.3,2.1s-1.4,0.7-2.3,0.7c-0.9,0-1.7-0.2-2.3-0.6
		s-1-0.9-1.3-1.6s-0.5-1.5-0.5-2.3c0-0.9,0.2-1.7,0.5-2.3s0.8-1.2,1.5-1.5s1.3-0.5,2.1-0.5c0.9,0,1.6,0.2,2.2,0.7s1,1.1,1.2,1.8
		l-1.1,0.3c-0.2-0.6-0.5-1.1-0.9-1.4s-0.9-0.4-1.4-0.4c-0.7,0-1.2,0.2-1.7,0.5s-0.8,0.7-0.9,1.3s-0.3,1.1-0.3,1.6
		c0,0.7,0.1,1.4,0.3,1.9s0.5,1,1,1.2s0.9,0.4,1.5,0.4c0.6,0,1.2-0.2,1.6-0.6S203.8,39.6,204,38.8z"/>
	<path id="XMLID_217_" class="st3" d="M206.2,37.7c0-1.4,0.4-2.5,1.1-3.3s1.8-1.2,3-1.2c0.8,0,1.5,0.2,2.1,0.6s1.1,0.9,1.5,1.6
		s0.5,1.4,0.5,2.3c0,0.9-0.2,1.7-0.5,2.3s-0.8,1.2-1.5,1.6S211,42,210.3,42c-0.8,0-1.5-0.2-2.2-0.6s-1.1-0.9-1.4-1.6
		S206.2,38.4,206.2,37.7z M207.3,37.7c0,1,0.3,1.9,0.8,2.4s1.3,0.9,2.1,0.9c0.9,0,1.6-0.3,2.1-0.9s0.8-1.5,0.8-2.6
		c0-0.7-0.1-1.3-0.4-1.8s-0.6-0.9-1-1.2s-1-0.4-1.5-0.4c-0.8,0-1.5,0.3-2.1,0.8S207.3,36.4,207.3,37.7z"/>
	<path id="XMLID_220_" class="st3" d="M215.8,41.8v-8.6h1.7l2,6.1c0.2,0.6,0.3,1,0.4,1.3c0.1-0.3,0.3-0.8,0.5-1.4l2.1-6h1.5v8.6
		h-1.1v-7.2l-2.5,7.2h-1l-2.5-7.3v7.3H215.8z"/>
	<path id="XMLID_222_" class="st3" d="M229.4,41.8h-1.1v-6.7c-0.3,0.2-0.6,0.5-1,0.7s-0.8,0.4-1.1,0.5v-1c0.6-0.3,1.1-0.6,1.5-1
		s0.8-0.8,0.9-1.1h0.7V41.8z"/>
</g>
<path class="st4" d="M228.5,57.7h-27.3c-1.7,0-3-1.4-3-3v0c0-1.7,1.3-3,3-3h27.3c1.6,0,3,1.3,3,3v0
	C231.5,56.3,230.1,57.7,228.5,57.7z"/>
<path class="st1" d="M443.4,65.8h-31c-3.9,0-7-3.2-7-7V29.4c0-3.9,3.1-7,7-7h31c3.9,0,7,3.1,7,7v29.3
	C450.4,62.6,447.3,65.8,443.4,65.8z"/>
<g id="XMLID_7_">
	<rect id="XMLID_215_" x="405.4" y="33.3" class="st2" width="45" height="10.8"/>
	<path id="XMLID_13_" class="st3" d="M413.6,41.8v-8.6h1.2l4.5,6.7v-6.7h1.1v8.6h-1.2l-4.5-6.8v6.8H413.6z"/>
	<path id="XMLID_208_" class="st3" d="M421.3,41.8l3.3-8.6h1.2l3.5,8.6h-1.3l-1-2.6h-3.6l-0.9,2.6H421.3z M423.8,38.3h2.9l-0.9-2.4
		c-0.3-0.7-0.5-1.3-0.6-1.8c-0.1,0.6-0.3,1.1-0.5,1.6L423.8,38.3z"/>
	<path id="XMLID_211_" class="st3" d="M431.8,41.8l-3.3-8.6h1.2l2.2,6.2c0.2,0.5,0.3,1,0.5,1.4c0.1-0.5,0.3-0.9,0.5-1.4l2.3-6.2h1.2
		l-3.4,8.6H431.8z"/>
	<path id="XMLID_213_" class="st3" d="M442.5,40.8v1h-5.7c0-0.3,0-0.5,0.1-0.7c0.1-0.4,0.4-0.8,0.7-1.1s0.8-0.8,1.4-1.3
		c0.9-0.8,1.6-1.4,1.9-1.8s0.5-0.9,0.5-1.3c0-0.4-0.1-0.8-0.4-1.1s-0.7-0.4-1.2-0.4c-0.5,0-0.9,0.2-1.2,0.5s-0.5,0.7-0.5,1.3
		l-1.1-0.1c0.1-0.8,0.4-1.4,0.8-1.8s1.1-0.6,2-0.6c0.8,0,1.5,0.2,2,0.7s0.7,1,0.7,1.7c0,0.3-0.1,0.7-0.2,1s-0.4,0.7-0.7,1
		s-0.9,0.9-1.6,1.5c-0.6,0.5-1,0.9-1.2,1.1s-0.3,0.4-0.4,0.6H442.5z"/>
</g>
<path class="st5" d="M442.1,57.7h-27.3c-1.6,0-3-1.4-3-3v0c0-1.7,1.4-3,3-3h27.3c1.7,0,3,1.3,3,3v0
	C445.1,56.3,443.8,57.7,442.1,57.7z"/>
<path class="st1" d="M390,65.8h-31c-3.8,0-7-3.2-7-7V29.4c0-3.9,3.2-7,7-7h31c3.9,0,7,3.1,7,7v29.3C397,62.6,393.9,65.8,390,65.8z"
	/>
<g id="XMLID_8_">
	<rect id="XMLID_206_" x="352" y="33.3" class="st2" width="45" height="10.8"/>
	<path id="XMLID_15_" class="st3" d="M360.2,41.8v-8.6h1.2l4.5,6.7v-6.7h1.1v8.6h-1.2l-4.5-6.8v6.8H360.2z"/>
	<path id="XMLID_199_" class="st3" d="M367.9,41.8l3.3-8.6h1.2l3.5,8.6h-1.3l-1-2.6h-3.6l-0.9,2.6H367.9z M370.4,38.3h2.9l-0.9-2.4
		c-0.3-0.7-0.5-1.3-0.6-1.8c-0.1,0.6-0.3,1.1-0.5,1.6L370.4,38.3z"/>
	<path id="XMLID_202_" class="st3" d="M378.4,41.8l-3.3-8.6h1.2l2.2,6.2c0.2,0.5,0.3,1,0.5,1.4c0.1-0.5,0.3-0.9,0.5-1.4l2.3-6.2h1.2
		l-3.4,8.6H378.4z"/>
	<path id="XMLID_204_" class="st3" d="M387.5,41.8h-1.1v-6.7c-0.3,0.2-0.6,0.5-1,0.7s-0.8,0.4-1.1,0.5v-1c0.6-0.3,1.1-0.6,1.5-1
		s0.8-0.8,0.9-1.1h0.7V41.8z"/>
</g>
<path class="st5" d="M388.7,57.7h-27.3c-1.6,0-3-1.4-3-3v0c0-1.7,1.4-3,3-3h27.3c1.6,0,3,1.3,3,3v0
	C391.7,56.3,390.4,57.7,388.7,57.7z"/>
<path class="st1" d="M336.6,65.8h-31c-3.9,0-7-3.2-7-7V29.4c0-3.9,3.1-7,7-7h31c3.9,0,7,3.1,7,7v29.3
	C343.6,62.6,340.4,65.8,336.6,65.8z"/>
<g id="XMLID_12_">
	<rect id="XMLID_197_" x="298.6" y="33.3" class="st2" width="45" height="10.8"/>
	<path id="XMLID_17_" class="st3" d="M310.8,38.8l1.1,0.3c-0.2,0.9-0.7,1.6-1.3,2.1s-1.4,0.7-2.3,0.7c-0.9,0-1.7-0.2-2.3-0.6
		s-1-0.9-1.3-1.6s-0.5-1.5-0.5-2.3c0-0.9,0.2-1.7,0.5-2.3s0.8-1.2,1.5-1.5s1.3-0.5,2.1-0.5c0.9,0,1.6,0.2,2.2,0.7s1,1.1,1.2,1.8
		l-1.1,0.3c-0.2-0.6-0.5-1.1-0.9-1.4s-0.9-0.4-1.4-0.4c-0.7,0-1.2,0.2-1.7,0.5s-0.8,0.7-0.9,1.3s-0.3,1.1-0.3,1.6
		c0,0.7,0.1,1.4,0.3,1.9s0.5,1,1,1.2s0.9,0.4,1.5,0.4c0.6,0,1.2-0.2,1.6-0.6S310.6,39.6,310.8,38.8z"/>
	<path id="XMLID_190_" class="st3" d="M313,37.7c0-1.4,0.4-2.5,1.1-3.3s1.8-1.2,3-1.2c0.8,0,1.5,0.2,2.1,0.6s1.1,0.9,1.5,1.6
		s0.5,1.4,0.5,2.3c0,0.9-0.2,1.7-0.5,2.3s-0.8,1.2-1.5,1.6s-1.3,0.5-2.1,0.5c-0.8,0-1.5-0.2-2.2-0.6s-1.1-0.9-1.4-1.6
		S313,38.4,313,37.7z M314.2,37.7c0,1,0.3,1.9,0.8,2.4s1.3,0.9,2.1,0.9c0.9,0,1.6-0.3,2.1-0.9s0.8-1.5,0.8-2.6
		c0-0.7-0.1-1.3-0.4-1.8s-0.6-0.9-1-1.2s-1-0.4-1.5-0.4c-0.8,0-1.5,0.3-2.1,0.8S314.2,36.4,314.2,37.7z"/>
	<path id="XMLID_193_" class="st3" d="M322.6,41.8v-8.6h1.7l2,6.1c0.2,0.6,0.3,1,0.4,1.3c0.1-0.3,0.3-0.8,0.5-1.4l2.1-6h1.5v8.6
		h-1.1v-7.2l-2.5,7.2h-1l-2.5-7.3v7.3H322.6z"/>
	<path id="XMLID_195_" class="st3" d="M332.2,39.6l1.1-0.1c0.1,0.6,0.3,1,0.6,1.3s0.6,0.4,1.1,0.4c0.5,0,0.9-0.2,1.3-0.5
		s0.5-0.8,0.5-1.3c0-0.5-0.2-0.9-0.5-1.2s-0.7-0.5-1.2-0.5c-0.2,0-0.4,0-0.7,0.1l0.1-0.9c0.1,0,0.1,0,0.2,0c0.4,0,0.9-0.1,1.2-0.4
		s0.5-0.6,0.5-1.1c0-0.4-0.1-0.7-0.4-1s-0.6-0.4-1-0.4c-0.4,0-0.8,0.1-1,0.4s-0.4,0.6-0.5,1.2l-1.1-0.2c0.1-0.7,0.4-1.3,0.9-1.6
		s1-0.6,1.7-0.6c0.5,0,0.9,0.1,1.3,0.3s0.7,0.5,0.9,0.8s0.3,0.7,0.3,1.1c0,0.4-0.1,0.7-0.3,1s-0.5,0.5-0.9,0.7
		c0.5,0.1,0.9,0.4,1.2,0.7s0.4,0.8,0.4,1.4c0,0.8-0.3,1.4-0.8,1.9S335.8,42,335,42c-0.8,0-1.4-0.2-1.9-0.7S332.3,40.3,332.2,39.6z"
		/>
</g>
<path class="st5" d="M335.3,57.7H308c-1.7,0-3-1.4-3-3v0c0-1.7,1.3-3,3-3h27.3c1.6,0,3,1.3,3,3v0C338.3,56.3,336.9,57.7,335.3,57.7z
	"/>
<path class="st1" d="M283.2,65.8h-31c-3.8,0-7-3.2-7-7V29.4c0-3.9,3.2-7,7-7h31c3.8,0,7,3.1,7,7v29.3
	C290.2,62.6,287,65.8,283.2,65.8z"/>
<g id="XMLID_14_">
	<rect id="XMLID_188_" x="245.2" y="33.3" class="st2" width="45" height="10.8"/>
	<path id="XMLID_19_" class="st3" d="M257.4,38.8l1.1,0.3c-0.2,0.9-0.7,1.6-1.3,2.1S255.9,42,255,42c-0.9,0-1.7-0.2-2.3-0.6
		s-1-0.9-1.3-1.6s-0.5-1.5-0.5-2.3c0-0.9,0.2-1.7,0.5-2.3s0.8-1.2,1.5-1.5s1.3-0.5,2.1-0.5c0.9,0,1.6,0.2,2.2,0.7s1,1.1,1.2,1.8
		l-1.1,0.3c-0.2-0.6-0.5-1.1-0.9-1.4s-0.9-0.4-1.4-0.4c-0.7,0-1.2,0.2-1.7,0.5s-0.8,0.7-0.9,1.3s-0.3,1.1-0.3,1.6
		c0,0.7,0.1,1.4,0.3,1.9s0.5,1,1,1.2s0.9,0.4,1.5,0.4c0.6,0,1.2-0.2,1.6-0.6S257.2,39.6,257.4,38.8z"/>
	<path id="XMLID_181_" class="st3" d="M259.6,37.7c0-1.4,0.4-2.5,1.1-3.3s1.8-1.2,3-1.2c0.8,0,1.5,0.2,2.1,0.6s1.1,0.9,1.5,1.6
		s0.5,1.4,0.5,2.3c0,0.9-0.2,1.7-0.5,2.3s-0.8,1.2-1.5,1.6s-1.3,0.5-2.1,0.5c-0.8,0-1.5-0.2-2.2-0.6s-1.1-0.9-1.4-1.6
		S259.6,38.4,259.6,37.7z M260.7,37.7c0,1,0.3,1.9,0.8,2.4s1.3,0.9,2.1,0.9c0.9,0,1.6-0.3,2.1-0.9s0.8-1.5,0.8-2.6
		c0-0.7-0.1-1.3-0.4-1.8s-0.6-0.9-1-1.2s-1-0.4-1.5-0.4c-0.8,0-1.5,0.3-2.1,0.8S260.7,36.4,260.7,37.7z"/>
	<path id="XMLID_184_" class="st3" d="M269.2,41.8v-8.6h1.7l2,6.1c0.2,0.6,0.3,1,0.4,1.3c0.1-0.3,0.3-0.8,0.5-1.4l2.1-6h1.5v8.6
		h-1.1v-7.2l-2.5,7.2h-1l-2.5-7.3v7.3H269.2z"/>
	<path id="XMLID_186_" class="st3" d="M284.4,40.8v1h-5.7c0-0.3,0-0.5,0.1-0.7c0.1-0.4,0.4-0.8,0.7-1.1s0.8-0.8,1.4-1.3
		c0.9-0.8,1.6-1.4,1.9-1.8s0.5-0.9,0.5-1.3c0-0.4-0.1-0.8-0.4-1.1s-0.7-0.4-1.2-0.4c-0.5,0-0.9,0.2-1.2,0.5s-0.5,0.7-0.5,1.3
		l-1.1-0.1c0.1-0.8,0.4-1.4,0.8-1.8s1.1-0.6,2-0.6c0.8,0,1.5,0.2,2,0.7s0.7,1,0.7,1.7c0,0.3-0.1,0.7-0.2,1s-0.4,0.7-0.7,1
		s-0.9,0.9-1.6,1.5c-0.6,0.5-1,0.9-1.2,1.1s-0.3,0.4-0.4,0.6H284.4z"/>
</g>
<path class="st5" d="M281.9,57.7h-27.2c-1.7,0-3-1.4-3-3v0c0-1.7,1.3-3,3-3h27.2c1.6,0,3,1.3,3,3v0
	C284.9,56.3,283.5,57.7,281.9,57.7z"/>
<path class="st1" d="M229.8,125.6h-31c-3.9,0-7-3.2-7-7V89.3c0-3.8,3.1-7,7-7h31c3.8,0,7,3.2,7,7v29.3
	C236.8,122.5,233.6,125.6,229.8,125.6z"/>
<g id="XMLID_16_">
	<rect id="XMLID_179_" x="191.8" y="93.1" class="st2" width="45" height="10.8"/>
	<path id="XMLID_21_" class="st3" d="M201.8,101.7v-8.6h1.7l2,6.1c0.2,0.6,0.3,1,0.4,1.3c0.1-0.3,0.3-0.8,0.5-1.4l2.1-6h1.5v8.6
		h-1.1v-7.2l-2.5,7.2h-1l-2.5-7.3v7.3H201.8z"/>
	<path id="XMLID_174_" class="st3" d="M211.8,101.7v-8.6h1.1v4.3l4.3-4.3h1.5l-3.6,3.5l3.8,5.1h-1.5l-3.1-4.3l-1.4,1.4v3H211.8z"/>
	<path id="XMLID_176_" class="st3" d="M219.9,101.7v-8.6h3.8c0.8,0,1.3,0.1,1.7,0.2s0.7,0.4,1,0.8s0.4,0.8,0.4,1.3
		c0,0.6-0.2,1.1-0.6,1.5s-1,0.7-1.8,0.8c0.3,0.1,0.5,0.3,0.7,0.4c0.3,0.3,0.6,0.7,0.9,1.1l1.5,2.3H226l-1.1-1.8
		c-0.3-0.5-0.6-0.9-0.8-1.2s-0.4-0.5-0.6-0.6s-0.3-0.2-0.5-0.2c-0.1,0-0.3,0-0.6,0H221v3.8H219.9z M221,96.9h2.4
		c0.5,0,0.9-0.1,1.2-0.2s0.5-0.3,0.7-0.5s0.2-0.5,0.2-0.8c0-0.4-0.1-0.7-0.4-1s-0.8-0.4-1.4-0.4H221V96.9z"/>
</g>
<path class="st4" d="M228.5,117.5h-27.3c-1.7,0-3-1.3-3-3v0c0-1.6,1.3-3,3-3h27.3c1.6,0,3,1.4,3,3v0
	C231.5,116.2,230.1,117.5,228.5,117.5z"/>
<path class="st1" d="M443.4,125.6h-31c-3.9,0-7-3.2-7-7V89.3c0-3.8,3.1-7,7-7h31c3.9,0,7,3.2,7,7v29.3
	C450.4,122.5,447.3,125.6,443.4,125.6z"/>
<g id="XMLID_18_">
	<rect id="XMLID_172_" x="405.4" y="93.1" class="st2" width="45" height="10.8"/>
	<path id="XMLID_23_" class="st3" d="M413.1,101.7v-8.6h1.7l2,6.1c0.2,0.6,0.3,1,0.4,1.3c0.1-0.3,0.3-0.8,0.5-1.4l2.1-6h1.5v8.6
		h-1.1v-7.2l-2.5,7.2h-1l-2.5-7.3v7.3H413.1z"/>
	<path id="XMLID_165_" class="st3" d="M422.8,97.5c0-1.4,0.4-2.5,1.1-3.3s1.8-1.2,3-1.2c0.8,0,1.5,0.2,2.1,0.6s1.1,0.9,1.5,1.6
		s0.5,1.4,0.5,2.3c0,0.9-0.2,1.7-0.5,2.3s-0.8,1.2-1.5,1.6s-1.3,0.5-2.1,0.5c-0.8,0-1.5-0.2-2.2-0.6s-1.1-0.9-1.4-1.6
		S422.8,98.3,422.8,97.5z M424,97.5c0,1,0.3,1.9,0.8,2.4s1.3,0.9,2.1,0.9c0.9,0,1.6-0.3,2.1-0.9s0.8-1.5,0.8-2.6
		c0-0.7-0.1-1.3-0.4-1.8s-0.6-0.9-1-1.2s-1-0.4-1.5-0.4c-0.8,0-1.5,0.3-2.1,0.8S424,96.2,424,97.5z"/>
	<path id="XMLID_168_" class="st3" d="M432.5,101.7v-8.6h1.2l4.5,6.7v-6.7h1.1v8.6h-1.2l-4.5-6.8v6.8H432.5z"/>
	<path id="XMLID_170_" class="st3" d="M441.4,101.7v-8.6h1.1v8.6H441.4z"/>
</g>
<path class="st5" d="M442.1,117.5h-27.3c-1.6,0-3-1.3-3-3v0c0-1.6,1.4-3,3-3h27.3c1.7,0,3,1.4,3,3v0
	C445.1,116.2,443.8,117.5,442.1,117.5z"/>
<path class="st1" d="M390,125.6h-31c-3.8,0-7-3.2-7-7V89.3c0-3.8,3.2-7,7-7h31c3.9,0,7,3.2,7,7v29.3
	C397,122.5,393.9,125.6,390,125.6z"/>
<g id="XMLID_20_">
	<rect id="XMLID_163_" x="352" y="93.1" class="st2" width="45" height="10.8"/>
	<path id="XMLID_25_" class="st3" d="M362.1,101.7l3.3-8.6h1.2l3.5,8.6h-1.3l-1-2.6h-3.6l-0.9,2.6H362.1z M364.6,98.2h2.9l-0.9-2.4
		c-0.3-0.7-0.5-1.3-0.6-1.8c-0.1,0.6-0.3,1.1-0.5,1.6L364.6,98.2z"/>
	<path id="XMLID_159_" class="st3" d="M376.7,93.1h1.1v5c0,0.9-0.1,1.5-0.3,2.1s-0.5,0.9-1.1,1.2s-1.2,0.5-2,0.5
		c-0.8,0-1.5-0.1-2-0.4s-0.9-0.7-1.1-1.2s-0.3-1.2-0.3-2.2v-5h1.1v5c0,0.7,0.1,1.3,0.2,1.6s0.4,0.6,0.7,0.8s0.8,0.3,1.2,0.3
		c0.8,0,1.4-0.2,1.8-0.6s0.5-1.1,0.5-2.2V93.1z"/>
	<path id="XMLID_161_" class="st3" d="M378.9,101.7l3.3-4.5l-2.9-4.1h1.4l1.6,2.2c0.3,0.5,0.6,0.8,0.7,1.1c0.2-0.3,0.4-0.6,0.7-1
		l1.7-2.3h1.2l-3,4l3.3,4.5h-1.4l-2.2-3.1c-0.1-0.2-0.2-0.4-0.4-0.6c-0.2,0.3-0.3,0.5-0.4,0.6l-2.2,3H378.9z"/>
</g>
<path class="st5" d="M388.7,117.5h-27.3c-1.6,0-3-1.3-3-3v0c0-1.6,1.4-3,3-3h27.3c1.6,0,3,1.4,3,3v0
	C391.7,116.2,390.4,117.5,388.7,117.5z"/>
<path class="st1" d="M336.6,125.6h-31c-3.9,0-7-3.2-7-7V89.3c0-3.8,3.1-7,7-7h31c3.9,0,7,3.2,7,7v29.3
	C343.6,122.5,340.4,125.6,336.6,125.6z"/>
<g id="XMLID_22_">
	<rect id="XMLID_156_" x="298.6" y="93.1" class="st2" width="45" height="10.8"/>
	<path id="XMLID_28_" class="st3" d="M309.1,101.7l3.3-8.6h1.2l3.5,8.6h-1.3l-1-2.6h-3.6l-0.9,2.6H309.1z M311.5,98.2h2.9l-0.9-2.4
		c-0.3-0.7-0.5-1.3-0.6-1.8c-0.1,0.6-0.3,1.1-0.5,1.6L311.5,98.2z"/>
	<path id="XMLID_151_" class="st3" d="M318,101.7v-8.6h3c0.7,0,1.2,0,1.5,0.1c0.5,0.1,0.9,0.3,1.3,0.6c0.5,0.4,0.8,0.9,1,1.5
		s0.3,1.3,0.3,2c0,0.7-0.1,1.2-0.2,1.7s-0.3,0.9-0.6,1.3s-0.5,0.6-0.8,0.8s-0.6,0.3-1,0.4s-0.9,0.1-1.4,0.1H318z M319.2,100.7h1.8
		c0.6,0,1-0.1,1.3-0.2s0.6-0.3,0.8-0.4c0.3-0.3,0.5-0.6,0.6-1.1s0.2-1,0.2-1.7c0-0.9-0.1-1.6-0.4-2.1s-0.7-0.8-1.1-1
		c-0.3-0.1-0.8-0.2-1.5-0.2h-1.8V100.7z"/>
	<path id="XMLID_154_" class="st3" d="M326.7,101.7v-8.6h5.8v1h-4.7v2.7h4v1h-4v3.9H326.7z"/>
</g>
<path class="st5" d="M335.3,117.5H308c-1.7,0-3-1.3-3-3v0c0-1.6,1.3-3,3-3h27.3c1.6,0,3,1.4,3,3v0
	C338.3,116.2,336.9,117.5,335.3,117.5z"/>
<path class="st1" d="M283.2,125.6h-31c-3.8,0-7-3.2-7-7V89.3c0-3.8,3.2-7,7-7h31c3.8,0,7,3.2,7,7v29.3
	C290.2,122.5,287,125.6,283.2,125.6z"/>
<g id="XMLID_24_">
	<rect id="XMLID_148_" x="245.2" y="93.1" class="st2" width="45" height="10.8"/>
	<path id="XMLID_104_" class="st3" d="M255.3,101.7v-8.6h3c0.7,0,1.2,0,1.5,0.1c0.5,0.1,0.9,0.3,1.3,0.6c0.5,0.4,0.8,0.9,1,1.5
		s0.3,1.3,0.3,2c0,0.7-0.1,1.2-0.2,1.7s-0.3,0.9-0.6,1.3s-0.5,0.6-0.8,0.8s-0.6,0.3-1,0.4s-0.9,0.1-1.4,0.1H255.3z M256.4,100.7h1.8
		c0.6,0,1-0.1,1.3-0.2s0.6-0.3,0.8-0.4c0.3-0.3,0.5-0.6,0.6-1.1s0.2-1,0.2-1.7c0-0.9-0.1-1.6-0.4-2.1s-0.7-0.8-1.1-1
		c-0.3-0.1-0.8-0.2-1.5-0.2h-1.8V100.7z"/>
	<path id="XMLID_144_" class="st3" d="M263.9,101.7v-8.6h1.7l2,6.1c0.2,0.6,0.3,1,0.4,1.3c0.1-0.3,0.3-0.8,0.5-1.4l2.1-6h1.5v8.6
		H271v-7.2l-2.5,7.2h-1l-2.5-7.3v7.3H263.9z"/>
	<path id="XMLID_146_" class="st3" d="M273.9,101.7v-8.6h6.2v1h-5.1v2.6h4.8v1h-4.8v2.9h5.3v1H273.9z"/>
</g>
<path class="st5" d="M281.9,117.5h-27.2c-1.7,0-3-1.3-3-3v0c0-1.6,1.3-3,3-3h27.2c1.6,0,3,1.4,3,3v0
	C284.9,116.2,283.5,117.5,281.9,117.5z"/>
<circle id="XMLID_102_" class="st6" cx="533.6" cy="82.4" r="37.7"/>
<circle id="XMLID_103_" class="st6" cx="533.6" cy="82.4" r="24.3"/>
<g id="XMLID_105_">
	<rect id="XMLID_141_" x="460.8" y="11.8" class="st2" width="22.5" height="10.5"/>
	<path id="XMLID_107_" class="st3" d="M461.7,20.4v-8.6h1.7l2,6.1c0.2,0.6,0.3,1,0.4,1.3c0.1-0.3,0.3-0.8,0.5-1.4l2.1-6h1.5v8.6
		h-1.1v-7.2l-2.5,7.2h-1l-2.5-7.3v7.3H461.7z"/>
	<path id="XMLID_137_" class="st3" d="M471.9,20.4v-8.6h1.1v8.6H471.9z"/>
	<path id="XMLID_139_" class="st3" d="M481.1,17.4l1.1,0.3c-0.2,0.9-0.7,1.6-1.3,2.1s-1.4,0.7-2.3,0.7c-0.9,0-1.7-0.2-2.3-0.6
		s-1-0.9-1.3-1.6s-0.5-1.5-0.5-2.3c0-0.9,0.2-1.7,0.5-2.3s0.8-1.2,1.5-1.5s1.3-0.5,2.1-0.5c0.9,0,1.6,0.2,2.2,0.7s1,1.1,1.2,1.8
		l-1.1,0.3c-0.2-0.6-0.5-1.1-0.9-1.4s-0.9-0.4-1.4-0.4c-0.7,0-1.2,0.2-1.7,0.5s-0.8,0.7-0.9,1.3s-0.3,1.1-0.3,1.6
		c0,0.7,0.1,1.4,0.3,1.9s0.5,1,1,1.2s0.9,0.4,1.5,0.4c0.6,0,1.2-0.2,1.6-0.6S481,18.1,481.1,17.4z"/>
</g>
<g id="XMLID_106_">
	<rect id="XMLID_135_" x="530" y="8.2" class="st2" width="59.5" height="7.3"/>
	<path id="XMLID_101_" class="st3" d="M532.1,15.4V8.2h0.9v3.5l3.6-3.5h1.3l-3,2.9l3.1,4.3h-1.3l-2.5-3.6l-1.2,1.1v2.5H532.1z"/>
	<path id="XMLID_111_" class="st3" d="M538.7,15.4V8.2h1.4l1.7,5.1c0.2,0.5,0.3,0.8,0.3,1.1c0.1-0.3,0.2-0.6,0.4-1.1l1.7-5h1.3v7.2
		h-0.9v-6l-2.1,6h-0.9l-2.1-6.1v6.1H538.7z"/>
	<path id="XMLID_115_" class="st3" d="M546.3,15.4l2.7-7.2h1l2.9,7.2h-1.1l-0.8-2.2h-3l-0.8,2.2H546.3z M548.4,12.4h2.4l-0.7-2
		c-0.2-0.6-0.4-1.1-0.5-1.5c-0.1,0.5-0.2,0.9-0.4,1.4L548.4,12.4z"/>
	<path id="XMLID_123_" class="st3" d="M560.3,14.5v0.8h-4.7c0-0.2,0-0.4,0.1-0.6c0.1-0.3,0.3-0.6,0.6-1c0.3-0.3,0.6-0.7,1.1-1.1
		c0.8-0.6,1.3-1.1,1.6-1.5s0.4-0.7,0.4-1.1c0-0.3-0.1-0.6-0.4-0.9c-0.3-0.2-0.6-0.4-1-0.4c-0.4,0-0.8,0.1-1,0.4s-0.4,0.6-0.4,1.1
		l-0.9-0.1c0.1-0.7,0.3-1.2,0.7-1.5s0.9-0.5,1.6-0.5c0.7,0,1.2,0.2,1.6,0.6s0.6,0.9,0.6,1.4c0,0.3-0.1,0.6-0.2,0.8s-0.3,0.6-0.6,0.9
		c-0.3,0.3-0.7,0.7-1.4,1.3c-0.5,0.4-0.9,0.7-1,0.9s-0.3,0.3-0.4,0.5H560.3z"/>
	<path id="XMLID_125_" class="st3" d="M565.8,10l-0.9,0.1c-0.1-0.3-0.2-0.6-0.3-0.8c-0.2-0.3-0.5-0.4-0.9-0.4
		c-0.3,0-0.5,0.1-0.7,0.2c-0.3,0.2-0.5,0.5-0.7,0.9S562,11,562,11.7c0.2-0.3,0.5-0.6,0.8-0.7s0.6-0.2,1-0.2c0.6,0,1.1,0.2,1.5,0.6
		c0.4,0.4,0.6,1,0.6,1.7c0,0.4-0.1,0.9-0.3,1.3c-0.2,0.4-0.5,0.7-0.8,0.9s-0.7,0.3-1.2,0.3c-0.7,0-1.3-0.3-1.8-0.8s-0.7-1.4-0.7-2.7
		c0-1.4,0.3-2.4,0.8-3c0.4-0.5,1-0.8,1.8-0.8c0.6,0,1,0.2,1.4,0.5C565.5,9,565.7,9.4,565.8,10z M562.2,13.1c0,0.3,0.1,0.6,0.2,0.9
		c0.1,0.3,0.3,0.5,0.5,0.6s0.5,0.2,0.7,0.2c0.4,0,0.7-0.1,1-0.4s0.4-0.7,0.4-1.2c0-0.5-0.1-0.9-0.4-1.2s-0.6-0.4-1-0.4
		c-0.4,0-0.7,0.1-1,0.4S562.2,12.6,562.2,13.1z"/>
	<path id="XMLID_128_" class="st3" d="M571.5,15.4V9.1h-2.4V8.2h5.7v0.8h-2.4v6.3H571.5z"/>
	<path id="XMLID_130_" class="st3" d="M575.5,13.1l0.9-0.1c0,0.4,0.1,0.7,0.3,0.9c0.2,0.2,0.4,0.4,0.7,0.6s0.7,0.2,1.1,0.2
		c0.4,0,0.7-0.1,1-0.2s0.5-0.3,0.6-0.4c0.1-0.2,0.2-0.4,0.2-0.6c0-0.2-0.1-0.4-0.2-0.6s-0.3-0.3-0.6-0.4c-0.2-0.1-0.6-0.2-1.3-0.3
		s-1.1-0.3-1.4-0.4c-0.3-0.2-0.6-0.4-0.8-0.7c-0.2-0.3-0.3-0.6-0.3-0.9c0-0.4,0.1-0.7,0.3-1s0.5-0.6,0.9-0.7s0.8-0.2,1.3-0.2
		c0.5,0,1,0.1,1.4,0.3c0.4,0.2,0.7,0.4,0.9,0.8s0.3,0.7,0.4,1.1l-0.9,0.1c0-0.5-0.2-0.8-0.5-1c-0.3-0.2-0.7-0.3-1.2-0.3
		c-0.6,0-1,0.1-1.3,0.3c-0.3,0.2-0.4,0.5-0.4,0.8c0,0.3,0.1,0.5,0.3,0.6c0.2,0.2,0.7,0.3,1.4,0.5c0.8,0.2,1.3,0.3,1.6,0.5
		c0.4,0.2,0.7,0.4,0.9,0.7s0.3,0.6,0.3,1c0,0.4-0.1,0.7-0.3,1.1s-0.5,0.6-0.9,0.8c-0.4,0.2-0.9,0.3-1.4,0.3c-0.6,0-1.2-0.1-1.6-0.3
		c-0.4-0.2-0.8-0.5-1-0.9C575.6,14,575.5,13.6,575.5,13.1z"/>
	<path id="XMLID_132_" class="st3" d="M582.2,11.9c0-1.2,0.3-2.1,1-2.8s1.5-1,2.5-1c0.7,0,1.3,0.2,1.8,0.5s0.9,0.8,1.2,1.3
		c0.3,0.6,0.4,1.2,0.4,1.9c0,0.7-0.1,1.4-0.4,1.9s-0.7,1-1.2,1.3s-1.1,0.4-1.7,0.4c-0.7,0-1.3-0.2-1.8-0.5s-0.9-0.8-1.2-1.3
		S582.2,12.5,582.2,11.9z M583.2,11.9c0,0.9,0.2,1.5,0.7,2c0.5,0.5,1,0.7,1.7,0.7c0.7,0,1.3-0.3,1.8-0.8c0.5-0.5,0.7-1.2,0.7-2.1
		c0-0.6-0.1-1.1-0.3-1.5c-0.2-0.4-0.5-0.8-0.9-1c-0.4-0.2-0.8-0.4-1.3-0.4c-0.7,0-1.2,0.2-1.7,0.7C583.4,10.1,583.2,10.8,583.2,11.9
		z"/>
</g>
<g id="XMLID_108_">
	<rect id="XMLID_100_" x="491.8" y="34.7" class="st2" width="15.5" height="9.4"/>
	<path id="XMLID_96_" class="st3" d="M498.9,40.2l1.1,0.3c-0.2,0.9-0.7,1.6-1.3,2.1s-1.4,0.7-2.3,0.7c-0.9,0-1.7-0.2-2.3-0.6
		s-1-0.9-1.3-1.6s-0.5-1.5-0.5-2.3c0-0.9,0.2-1.7,0.5-2.3s0.8-1.2,1.5-1.5s1.3-0.5,2.1-0.5c0.9,0,1.6,0.2,2.2,0.7s1,1.1,1.2,1.8
		l-1.1,0.3c-0.2-0.6-0.5-1.1-0.9-1.4s-0.9-0.4-1.4-0.4c-0.7,0-1.2,0.2-1.7,0.5s-0.8,0.7-0.9,1.3s-0.3,1.1-0.3,1.6
		c0,0.7,0.1,1.4,0.3,1.9s0.5,1,1,1.2s0.9,0.4,1.5,0.4c0.6,0,1.2-0.2,1.6-0.6S498.7,41,498.9,40.2z"/>
	<path id="XMLID_98_" class="st3" d="M505,43.2h-1.1v-6.7c-0.3,0.2-0.6,0.5-1,0.7s-0.8,0.4-1.1,0.5v-1c0.6-0.3,1.1-0.6,1.5-1
		s0.8-0.8,0.9-1.1h0.7V43.2z"/>
</g>
<g id="XMLID_110_">
	<rect id="XMLID_95_" x="523.8" y="26.3" class="st2" width="15.5" height="9.4"/>
	<path id="XMLID_91_" class="st3" d="M530.9,31.9l1.1,0.3c-0.2,0.9-0.7,1.6-1.3,2.1s-1.4,0.7-2.3,0.7c-0.9,0-1.7-0.2-2.3-0.6
		s-1-0.9-1.3-1.6s-0.5-1.5-0.5-2.3c0-0.9,0.2-1.7,0.5-2.3s0.8-1.2,1.5-1.5s1.3-0.5,2.1-0.5c0.9,0,1.6,0.2,2.2,0.7s1,1.1,1.2,1.8
		l-1.1,0.3c-0.2-0.6-0.5-1.1-0.9-1.4s-0.9-0.4-1.4-0.4c-0.7,0-1.2,0.2-1.7,0.5s-0.8,0.7-0.9,1.3s-0.3,1.1-0.3,1.6
		c0,0.7,0.1,1.4,0.3,1.9c0.2,0.5,0.5,1,1,1.2s0.9,0.4,1.5,0.4c0.6,0,1.2-0.2,1.6-0.6S530.7,32.6,530.9,31.9z"/>
	<path id="XMLID_93_" class="st3" d="M538.6,33.9v1h-5.7c0-0.3,0-0.5,0.1-0.7c0.1-0.4,0.4-0.8,0.7-1.1s0.8-0.8,1.4-1.3
		c0.9-0.8,1.6-1.4,1.9-1.8s0.5-0.9,0.5-1.3c0-0.4-0.1-0.8-0.4-1.1s-0.7-0.4-1.2-0.4c-0.5,0-0.9,0.2-1.2,0.5s-0.5,0.7-0.5,1.3
		l-1.1-0.1c0.1-0.8,0.4-1.4,0.8-1.8s1.1-0.6,2-0.6c0.8,0,1.5,0.2,2,0.7s0.7,1,0.7,1.7c0,0.3-0.1,0.7-0.2,1s-0.4,0.7-0.7,1
		s-0.9,0.9-1.6,1.5c-0.6,0.5-1,0.9-1.2,1.1s-0.3,0.4-0.4,0.6H538.6z"/>
</g>
<g id="XMLID_112_">
	<rect id="XMLID_90_" x="554.8" y="32" class="st2" width="15.5" height="9.4"/>
	<path id="XMLID_86_" class="st3" d="M561.8,37.6l1.1,0.3c-0.2,0.9-0.7,1.6-1.3,2.1s-1.4,0.7-2.3,0.7c-0.9,0-1.7-0.2-2.3-0.6
		s-1-0.9-1.3-1.6s-0.5-1.5-0.5-2.3c0-0.9,0.2-1.7,0.5-2.3s0.8-1.2,1.5-1.5s1.3-0.5,2.1-0.5c0.9,0,1.6,0.2,2.2,0.7s1,1.1,1.2,1.8
		l-1.1,0.3c-0.2-0.6-0.5-1.1-0.9-1.4s-0.9-0.4-1.4-0.4c-0.7,0-1.2,0.2-1.7,0.5s-0.8,0.7-0.9,1.3s-0.3,1.1-0.3,1.6
		c0,0.7,0.1,1.4,0.3,1.9s0.5,1,1,1.2s0.9,0.4,1.5,0.4c0.6,0,1.2-0.2,1.6-0.6S561.7,38.3,561.8,37.6z"/>
	<path id="XMLID_88_" class="st3" d="M563.9,38.4l1.1-0.1c0.1,0.6,0.3,1,0.6,1.3s0.6,0.4,1.1,0.4c0.5,0,0.9-0.2,1.3-0.5
		s0.5-0.8,0.5-1.3c0-0.5-0.2-0.9-0.5-1.2s-0.7-0.5-1.2-0.5c-0.2,0-0.4,0-0.7,0.1l0.1-0.9c0.1,0,0.1,0,0.2,0c0.4,0,0.9-0.1,1.2-0.4
		s0.5-0.6,0.5-1.1c0-0.4-0.1-0.7-0.4-1s-0.6-0.4-1-0.4c-0.4,0-0.8,0.1-1,0.4s-0.4,0.6-0.5,1.2l-1.1-0.2c0.1-0.7,0.4-1.3,0.9-1.6
		s1-0.6,1.7-0.6c0.5,0,0.9,0.1,1.3,0.3s0.7,0.5,0.9,0.8s0.3,0.7,0.3,1.1c0,0.4-0.1,0.7-0.3,1s-0.5,0.5-0.9,0.7
		c0.5,0.1,0.9,0.4,1.2,0.7s0.4,0.8,0.4,1.4c0,0.8-0.3,1.4-0.8,1.9s-1.2,0.8-2.1,0.8c-0.8,0-1.4-0.2-1.9-0.7S564,39.1,563.9,38.4z"/>
</g>
<g id="XMLID_114_">
	<rect id="XMLID_85_" x="575.2" y="51.2" class="st2" width="15.5" height="9.4"/>
	<path id="XMLID_79_" class="st3" d="M576.1,59.7v-8.6h3.2c0.6,0,1,0,1.3,0.1c0.4,0.1,0.8,0.2,1.1,0.4s0.5,0.5,0.7,0.8
		s0.3,0.7,0.3,1.2c0,0.7-0.2,1.3-0.7,1.9s-1.3,0.8-2.5,0.8h-2.2v3.5H576.1z M577.2,55.2h2.2c0.7,0,1.3-0.1,1.6-0.4s0.5-0.7,0.5-1.2
		c0-0.4-0.1-0.7-0.3-0.9s-0.4-0.4-0.7-0.5c-0.2-0.1-0.5-0.1-1.1-0.1h-2.2V55.2z"/>
	<path id="XMLID_82_" class="st3" d="M582.3,59.7l3.3-8.6h1.2l3.5,8.6H589l-1-2.6h-3.6l-0.9,2.6H582.3z M584.7,56.2h2.9l-0.9-2.4
		c-0.3-0.7-0.5-1.3-0.6-1.8c-0.1,0.6-0.3,1.1-0.5,1.6L584.7,56.2z"/>
</g>
<g id="XMLID_116_">
	<rect id="XMLID_78_" x="462.5" y="55.9" class="st2" width="28.1" height="9.4"/>
	<path id="XMLID_72_" class="st3" d="M463.5,64.5v-8.6h6.2v1h-5.1v2.6h4.8v1h-4.8v2.9h5.3v1H463.5z"/>
	<path id="XMLID_74_" class="st3" d="M471.4,64.5v-8.6h1.7l2,6.1c0.2,0.6,0.3,1,0.4,1.3c0.1-0.3,0.3-0.8,0.5-1.4l2.1-6h1.5v8.6h-1.1
		v-7.2l-2.5,7.2h-1l-2.5-7.3v7.3H471.4z"/>
	<path id="XMLID_76_" class="st3" d="M485.5,61.1v-1l3.6,0v3.2c-0.6,0.4-1.1,0.8-1.7,1s-1.2,0.3-1.8,0.3c-0.8,0-1.6-0.2-2.3-0.5
		s-1.2-0.9-1.6-1.6s-0.5-1.4-0.5-2.3c0-0.8,0.2-1.6,0.5-2.3s0.9-1.3,1.5-1.6s1.4-0.5,2.3-0.5c0.6,0,1.2,0.1,1.7,0.3s0.9,0.5,1.2,0.8
		s0.5,0.8,0.7,1.4l-1,0.3c-0.1-0.4-0.3-0.8-0.5-1s-0.5-0.5-0.8-0.6s-0.8-0.2-1.2-0.2c-0.5,0-1,0.1-1.3,0.2s-0.7,0.4-0.9,0.6
		s-0.4,0.5-0.5,0.8c-0.2,0.5-0.3,1.1-0.3,1.7c0,0.8,0.1,1.4,0.4,1.9s0.6,0.9,1.2,1.1s1,0.4,1.6,0.4c0.5,0,1-0.1,1.4-0.3
		s0.8-0.4,1.1-0.6v-1.6H485.5z"/>
</g>
<circle id="XMLID_119_" class="st6" cx="132" cy="77.6" r="22.2"/>
<circle id="XMLID_118_" class="st6" cx="132" cy="77.6" r="14.3"/>
<g id="XMLID_120_">
	<rect id="XMLID_71_" x="83.2" y="17.2" class="st2" width="97.5" height="10.5"/>
	<path id="XMLID_53_" class="st3" d="M96,27.2v-10h1.3v10H96z"/>
	<path id="XMLID_55_" class="st3" d="M99.6,27.2v-10h1.4l5.3,7.9v-7.9h1.3v10h-1.4l-5.3-7.9v7.9H99.6z"/>
	<path id="XMLID_57_" class="st3" d="M112.3,27.2v-8.8H109v-1.2h7.9v1.2h-3.3v8.8H112.3z"/>
	<path id="XMLID_59_" class="st3" d="M118.3,27.2v-10h7.2v1.2h-5.9v3.1h5.5v1.2h-5.5V26h6.2v1.2H118.3z"/>
	<path id="XMLID_61_" class="st3" d="M127.6,27.2v-10h4.4c0.9,0,1.6,0.1,2,0.3s0.8,0.5,1.1,1s0.4,1,0.4,1.5c0,0.7-0.2,1.3-0.7,1.8
		s-1.2,0.8-2.1,0.9c0.4,0.2,0.6,0.3,0.8,0.5c0.4,0.4,0.8,0.8,1.1,1.3l1.7,2.7h-1.7l-1.3-2.1c-0.4-0.6-0.7-1.1-1-1.4
		s-0.5-0.5-0.7-0.7c-0.2-0.1-0.4-0.2-0.6-0.3c-0.2,0-0.4,0-0.7,0H129v4.5H127.6z M129,21.6h2.9c0.6,0,1.1-0.1,1.4-0.2
		s0.6-0.3,0.8-0.6s0.3-0.6,0.3-0.9c0-0.5-0.2-0.9-0.5-1.2c-0.3-0.3-0.9-0.5-1.6-0.5H129V21.6z"/>
	<path id="XMLID_64_" class="st3" d="M144.9,23.7l1.3,0.3c-0.3,1.1-0.8,1.9-1.5,2.5c-0.7,0.6-1.6,0.9-2.6,0.9c-1.1,0-2-0.2-2.6-0.7
		c-0.7-0.4-1.2-1.1-1.5-1.9c-0.4-0.8-0.5-1.7-0.5-2.7c0-1,0.2-2,0.6-2.7c0.4-0.8,1-1.4,1.7-1.8c0.7-0.4,1.5-0.6,2.4-0.6
		c1,0,1.8,0.3,2.5,0.8s1.2,1.2,1.4,2.2l-1.3,0.3c-0.2-0.7-0.6-1.3-1-1.6s-1-0.5-1.7-0.5c-0.8,0-1.4,0.2-1.9,0.6
		c-0.5,0.4-0.9,0.9-1.1,1.5s-0.3,1.3-0.3,1.9c0,0.9,0.1,1.6,0.4,2.2c0.2,0.6,0.6,1.1,1.2,1.4s1.1,0.5,1.7,0.5c0.7,0,1.4-0.2,1.9-0.6
		S144.7,24.5,144.9,23.7z"/>
	<path id="XMLID_66_" class="st3" d="M147.4,22.3c0-1.7,0.4-3,1.3-3.9s2-1.4,3.5-1.4c0.9,0,1.8,0.2,2.5,0.7s1.3,1.1,1.7,1.8
		c0.4,0.8,0.6,1.7,0.6,2.7c0,1-0.2,1.9-0.6,2.7s-1,1.4-1.7,1.8s-1.6,0.6-2.4,0.6c-0.9,0-1.8-0.2-2.5-0.7s-1.3-1.1-1.7-1.9
		S147.4,23.2,147.4,22.3z M148.8,22.3c0,1.2,0.3,2.2,1,2.9c0.7,0.7,1.5,1,2.4,1c1,0,1.8-0.4,2.5-1.1c0.6-0.7,1-1.7,1-3
		c0-0.8-0.1-1.5-0.4-2.1c-0.3-0.6-0.7-1.1-1.2-1.4c-0.5-0.3-1.1-0.5-1.8-0.5c-0.9,0-1.7,0.3-2.4,1C149.1,19.8,148.8,20.8,148.8,22.3
		z"/>
	<path id="XMLID_69_" class="st3" d="M158.7,27.2v-10h2l2.4,7.1c0.2,0.7,0.4,1.2,0.5,1.5c0.1-0.4,0.3-0.9,0.5-1.6l2.4-7h1.8v10H167
		v-8.4l-2.9,8.4h-1.2l-2.9-8.5v8.5H158.7z"/>
</g>
<g id="XMLID_122_">
	<rect id="XMLID_52_" x="96.5" y="32.1" class="st2" width="71" height="10.5"/>
	<path id="XMLID_36_" class="st3" d="M106.9,39.3v-7.2h2.7c0.5,0,0.8,0,1.1,0.1c0.4,0.1,0.6,0.2,0.9,0.3s0.4,0.4,0.6,0.7
		c0.1,0.3,0.2,0.6,0.2,1c0,0.6-0.2,1.1-0.6,1.5s-1.1,0.6-2.1,0.6h-1.8v2.9H106.9z M107.9,35.5h1.9c0.6,0,1-0.1,1.3-0.3
		s0.4-0.5,0.4-1c0-0.3-0.1-0.6-0.2-0.8c-0.2-0.2-0.4-0.4-0.6-0.4c-0.2,0-0.5-0.1-0.9-0.1h-1.8V35.5z"/>
	<path id="XMLID_39_" class="st3" d="M118.3,32.1h0.9v4.1c0,0.7-0.1,1.3-0.2,1.7s-0.5,0.8-0.9,1c-0.4,0.3-1,0.4-1.7,0.4
		c-0.7,0-1.2-0.1-1.6-0.3s-0.7-0.6-0.9-1s-0.3-1-0.3-1.8v-4.1h0.9v4.1c0,0.6,0.1,1.1,0.2,1.4c0.1,0.3,0.3,0.5,0.6,0.7
		c0.3,0.2,0.6,0.2,1,0.2c0.7,0,1.2-0.2,1.5-0.5s0.4-0.9,0.4-1.8V32.1z"/>
	<path id="XMLID_41_" class="st3" d="M120.5,37l0.9-0.1c0,0.4,0.1,0.7,0.3,0.9c0.2,0.2,0.4,0.4,0.7,0.6s0.7,0.2,1.1,0.2
		c0.4,0,0.7-0.1,1-0.2s0.5-0.3,0.6-0.4c0.1-0.2,0.2-0.4,0.2-0.6c0-0.2-0.1-0.4-0.2-0.6s-0.3-0.3-0.6-0.4c-0.2-0.1-0.6-0.2-1.3-0.3
		s-1.1-0.3-1.4-0.4c-0.3-0.2-0.6-0.4-0.8-0.7c-0.2-0.3-0.3-0.6-0.3-0.9c0-0.4,0.1-0.7,0.3-1s0.5-0.6,0.9-0.7s0.8-0.2,1.3-0.2
		c0.5,0,1,0.1,1.4,0.3c0.4,0.2,0.7,0.4,0.9,0.8s0.3,0.7,0.4,1.1l-0.9,0.1c0-0.5-0.2-0.8-0.5-1c-0.3-0.2-0.7-0.3-1.2-0.3
		c-0.6,0-1,0.1-1.3,0.3c-0.3,0.2-0.4,0.5-0.4,0.8c0,0.3,0.1,0.5,0.3,0.6c0.2,0.2,0.7,0.3,1.4,0.5c0.8,0.2,1.3,0.3,1.6,0.5
		c0.4,0.2,0.7,0.4,0.9,0.7s0.3,0.6,0.3,1c0,0.4-0.1,0.7-0.3,1.1s-0.5,0.6-0.9,0.8c-0.4,0.2-0.9,0.3-1.4,0.3c-0.6,0-1.2-0.1-1.6-0.3
		c-0.4-0.2-0.8-0.5-1-0.9C120.6,37.9,120.5,37.5,120.5,37z"/>
	<path id="XMLID_43_" class="st3" d="M127.5,39.3v-7.2h0.9v2.9h3.7v-2.9h0.9v7.2h-0.9v-3.4h-3.7v3.4H127.5z"/>
	<path id="XMLID_45_" class="st3" d="M139.5,39.3l-2.8-7.2h1l1.9,5.2c0.1,0.4,0.3,0.8,0.4,1.2c0.1-0.4,0.2-0.8,0.4-1.2l1.9-5.2h1
		l-2.8,7.2H139.5z"/>
	<path id="XMLID_47_" class="st3" d="M143.9,35.8c0-1.2,0.3-2.1,1-2.8s1.5-1,2.5-1c0.7,0,1.3,0.2,1.8,0.5s0.9,0.8,1.2,1.3
		c0.3,0.6,0.4,1.2,0.4,1.9c0,0.7-0.1,1.4-0.4,1.9s-0.7,1-1.2,1.3s-1.1,0.4-1.7,0.4c-0.7,0-1.3-0.2-1.8-0.5s-0.9-0.8-1.2-1.3
		S143.9,36.4,143.9,35.8z M144.8,35.8c0,0.9,0.2,1.5,0.7,2c0.5,0.5,1,0.7,1.7,0.7c0.7,0,1.3-0.3,1.8-0.8c0.5-0.5,0.7-1.2,0.7-2.1
		c0-0.6-0.1-1.1-0.3-1.5c-0.2-0.4-0.5-0.8-0.9-1c-0.4-0.2-0.8-0.4-1.3-0.4c-0.7,0-1.2,0.2-1.7,0.7C145.1,34,144.8,34.7,144.8,35.8z"
		/>
	<path id="XMLID_50_" class="st3" d="M151.2,39.3l2.8-3.7l-2.4-3.4h1.1l1.3,1.8c0.3,0.4,0.5,0.7,0.6,0.9c0.2-0.3,0.3-0.5,0.6-0.8
		l1.4-1.9h1l-2.5,3.4l2.7,3.8h-1.2l-1.8-2.6c-0.1-0.1-0.2-0.3-0.3-0.5c-0.2,0.3-0.3,0.4-0.3,0.5l-1.8,2.5H151.2z"/>
</g>
<path id="XMLID_2_" class="st7" d="M45.8,118.1H35.4c-6.6,0-12-5.4-12-12V34.4c0-6.6,5.4-12,12-12h10.3c6.6,0,12,5.4,12,12v71.6
	C57.8,112.7,52.4,118.1,45.8,118.1z"/>
<path id="XMLID_3_" class="st8" d="M49.9,53.7H31.3c-1.1,0-2-0.9-2-2V32.1c0-1.1,0.9-2,2-2h18.7c1.1,0,2,0.9,2,2v19.6
	C51.9,52.8,51,53.7,49.9,53.7z"/>
<path id="XMLID_4_" class="st9" d="M49.9,81.8H31.3c-1.1,0-2-0.9-2-2V60.2c0-1.1,0.9-2,2-2h18.7c1.1,0,2,0.9,2,2v19.6
	C51.9,80.9,51,81.8,49.9,81.8z"/>
<path id="XMLID_5_" class="st10" d="M49.9,110H31.3c-1.1,0-2-0.9-2-2V88.5c0-1.1,0.9-2,2-2h18.6c1.1,0,2,0.9,2,2V108
	C51.9,109.1,51,110,49.9,110z"/>
<g id="XMLID_6_">
	<path id="XMLID_33_" class="st7" d="M47.5,42.7c0,5.2-3.2,7.9-7,7.9c-4,0-6.8-3.1-6.8-7.6c0-4.8,3-7.9,7-7.9
		C44.8,35.1,47.5,38.2,47.5,42.7z M35.8,42.9c0,3.2,1.7,6.1,4.8,6.1c3.1,0,4.8-2.8,4.8-6.3c0-3-1.6-6.1-4.8-6.1
		C37.4,36.7,35.8,39.6,35.8,42.9z"/>
</g>
<g id="XMLID_26_">
	<path id="XMLID_31_" class="st7" d="M46,72c-0.1-2.1-0.2-4.6-0.2-6.5h-0.1c-0.5,1.8-1.1,3.6-1.9,5.7l-2.7,7.3h-1.5l-2.4-7.2
		c-0.7-2.1-1.3-4.1-1.7-5.9h0c0,1.9-0.2,4.4-0.3,6.7l-0.4,6.5h-1.9L34,63.6h2.5l2.6,7.3c0.6,1.9,1.1,3.5,1.5,5.1h0.1
		c0.4-1.5,0.9-3.2,1.6-5.1l2.7-7.3h2.5l0.9,15.1h-1.9L46,72z"/>
</g>
<g id="XMLID_27_">
	<path id="XMLID_29_" class="st7" d="M41.6,91.7v15.1h-1.9V91.7H41.6z"/>
</g>
<g id="XMLID_9_">
</g>
<g id="XMLID_10_">
</g>
<g id="XMLID_225_">
</g>
<g id="XMLID_226_">
</g>
<g id="XMLID_227_">
</g>
<g id="XMLID_228_">
</g>
</svg>
