<?xml version="1.0" encoding="UTF-8" standalone="no"?>
<!-- Generator: Adobe Illustrator 19.0.0, SVG Export Plug-In . SVG Version: 6.00 Build 0)  -->

<svg
   xmlns:dc="http://purl.org/dc/elements/1.1/"
   xmlns:cc="http://creativecommons.org/ns#"
   xmlns:rdf="http://www.w3.org/1999/02/22-rdf-syntax-ns#"
   xmlns:svg="http://www.w3.org/2000/svg"
   xmlns="http://www.w3.org/2000/svg"
   xmlns:sodipodi="http://sodipodi.sourceforge.net/DTD/sodipodi-0.dtd"
   xmlns:inkscape="http://www.inkscape.org/namespaces/inkscape"
   version="1.1"
   x="0px"
   y="0px"
   viewBox="0 0 279.4 279.4"
   style="enable-background:new 0 0 279.4 279.4;"
   xml:space="preserve"
   id="svg2"
   inkscape:version="0.91 r13725"
   sodipodi:docname="single-axis-vor-base.svg"><metadata
     id="metadata499"><rdf:RDF><cc:Work
         rdf:about=""><dc:format>image/svg+xml</dc:format><dc:type
           rdf:resource="http://purl.org/dc/dcmitype/StillImage" /></cc:Work></rdf:RDF></metadata><defs
     id="defs497" /><sodipodi:namedview
     pagecolor="#ffffff"
     bordercolor="#666666"
     borderopacity="1"
     objecttolerance="10"
     gridtolerance="10"
     guidetolerance="10"
     inkscape:pageopacity="0"
     inkscape:pageshadow="2"
     inkscape:window-width="1920"
     inkscape:window-height="1137"
     id="namedview495"
     showgrid="false"
     inkscape:zoom="19.112636"
     inkscape:cx="25.796489"
     inkscape:cy="17.286108"
     inkscape:window-x="0"
     inkscape:window-y="30"
     inkscape:window-maximized="1"
     inkscape:current-layer="g7160_1_" /><style
     type="text/css"
     id="style4">
	.st0{fill:#212121;}
	.st1{fill:url(#path7250_2_);stroke:#010101;}
	.st2{fill:#010101;}
	.st3{fill:url(#path7183_2_);}
	.st4{fill:none;stroke:#010101;stroke-width:0.6;}
	.st5{fill:none;stroke:#010101;stroke-width:0.3;}
	.st6{fill:none;stroke:url(#path7220_2_);stroke-width:0.8342;}
	.st7{fill:#1A1A1A;stroke:url(#circle7224_2_);}
	.st8{fill:url(#circle7226_2_);stroke:#010101;stroke-width:0.8594;}
	.st9{fill:none;stroke:#FFFFFF;}
	.st10{fill:url(#circle7254_2_);stroke:#010101;stroke-width:0.5;}
	.st11{fill:url(#circle7261_2_);stroke:#010101;stroke-width:0.5;}
	.st12{fill:url(#circle7268_2_);stroke:#010101;stroke-width:0.5;}
	.st13{fill:none;stroke:#FFFFFF;stroke-width:4;}
	.st14{fill:none;}
	.st15{fill:#B46027;}
	.st16{fill:#FFFFFF;}
	.st17{display:none;}
	.st18{display:inline;}
	.st19{fill:#F15A29;}
	.st20{fill:#58595B;}
	.st21{display:inline;fill:#202020;}
	.st22{fill:none;stroke:#FFFFFF;stroke-width:3;}
	.st23{fill:none;stroke:#000000;stroke-width:3;}
	.st24{fill:#D7DF23;stroke:#D7DF23;stroke-miterlimit:10;}
	.st25{fill:#D7DF23;stroke:#D7DF23;}
	.st26{display:inline;fill:none;stroke:#FFFFFF;}
	.st27{fill:none;stroke:#FFFFFF;stroke-width:1.5;}
</style><g
     id="Base"><g
       id="Background"><path
         id="circle8194_1_"
         class="st0"
         d="M140.7,8.5C68.1,8.5,9.2,67.4,9.2,140c0,72.6,58.9,131.5,131.5,131.5    c72.6,0,131.5-58.9,131.5-131.5C272.1,67.4,213.3,8.5,140.7,8.5z" /><radialGradient
         id="path7250_2_"
         cx="771.468"
         cy="446.2323"
         r="279.7212"
         gradientTransform="matrix(-0.8277 0 0 0.8277 778.2643 -229.6243)"
         gradientUnits="userSpaceOnUse"><stop
           offset="0"
           style="stop-color:#969696"
           id="stop10" /><stop
           offset="1"
           style="stop-color:#010101"
           id="stop12" /></radialGradient><path
         id="path7250_1_"
         class="st1"
         d="M139.8,0.5L139.8,0.5C62.9,0.5,0.5,62.9,0.5,139.7c0,76.9,62.4,139.3,139.3,139.3    c76.8,0,139.2-62.4,139.2-139.3C278.9,62.9,216.7,0.5,139.8,0.5L139.8,0.5z M263.9,139.8c0,68.5-55.6,124.1-124.1,124.1    c-68.5,0-124.1-55.6-124.1-124.1c0-68.5,55.6-124.1,124.1-124.1C208.3,15.6,263.9,71.1,263.9,139.8z" /></g><g
       id="Knob"><g
         id="airspeedIndicatorFg_1_"><g
           id="g7150_1_"
           transform="matrix(0.5000001,0,0,0.5000001,-134.70902,185.34998)"><g
             id="g7160_1_"><polygon
               id="rect7162_1_"
               class="st2"
               points="300.9,135.8 328.3,163.2 389.9,101.6 362.5,74.2      " /><radialGradient
               id="path7183_2_"
               cx="1677.3711"
               cy="1555.5449"
               r="37.4708"
               gradientTransform="matrix(-0.3579 -0.2721 -0.2611 0.3434 1331.3179 31.3)"
               gradientUnits="userSpaceOnUse"><stop
                 offset="0"
                 style="stop-color:#5E5F5F"
                 id="stop21" /><stop
                 offset="1"
                 style="stop-color:#272727"
                 id="stop23" /></radialGradient><path
               id="path7183_1_"
               class="st3"
               d="M287.8,137.6v11h75.2v-11c0-20.8-16.8-37.6-37.6-37.6C304.5,100.1,287.8,117,287.8,137.6       L287.8,137.6z" /><path
               id="path7185_1_"
               class="st4"
               d="M325.9,100.1v10.6" /><g
               id="g7187_1_"
               transform="matrix(1.9999996,0,0,1.9999996,-39.145782,-371.62038)"><path
                 id="path7190_1_"
                 class="st5"
                 d="M179.7,235.8v5.4" /><path
                 id="path7192_1_"
                 class="st5"
                 d="M177,236.4v5.4" /><path
                 id="path7194_1_"
                 class="st5"
                 d="M173.7,237.7v5.4" /><path
                 id="path7197_1_"
                 class="st5"
                 d="M170.8,239.5v5.4" /><path
                 id="path7199_1_"
                 class="st5"
                 d="M168.5,241.6v5.4" /><path
                 id="path7201_1_"
                 class="st5"
                 d="M166.2,245.1v5.4" /></g><g
               id="g7203_1_"
               transform="matrix(-1.9999996,0,0,1.9999996,1326.5078,-370.77607)"><path
                 id="path7206_1_"
                 class="st5"
                 d="M497.6,235.4v6.2" /><path
                 id="path7208_1_"
                 class="st5"
                 d="M494.7,236.2v5.8" /><path
                 id="path7211_1_"
                 class="st5"
                 d="M491.6,237.6v5.8" /><path
                 id="path7213_1_"
                 class="st5"
                 d="M488.7,239.9v5.4" /><path
                 id="path7215_1_"
                 class="st5"
                 d="M486.2,242v5.4" /><path
                 id="path7218_1_"
                 class="st5"
                 d="M484.1,245.5v5.4" /></g><radialGradient
               id="path7220_2_"
               cx="2624.0608"
               cy="2115.2502"
               r="36.3276"
               gradientTransform="matrix(-0.4878 0 0 0.3149 1605.3535 -542.8633)"
               gradientUnits="userSpaceOnUse"><stop
                 offset="0"
                 style="stop-color:#5E5F5F"
                 id="stop42" /><stop
                 offset="1"
                 style="stop-color:#272727"
                 id="stop44" /></radialGradient><path
               id="path7220_1_"
               class="st6"
               d="M288.7,136.1v10.6h73.1v-10.6c0-20.2-16.4-36.6-36.6-36.6       C304.9,99.5,288.7,116.1,288.7,136.1z" /><g
               id="g7222_1_"
               transform="matrix(1.9999996,0,0,1.9999996,-35.222901,-365.00075)"><linearGradient
                 id="circle7224_2_"
                 gradientUnits="userSpaceOnUse"
                 x1="689.0068"
                 y1="444.7088"
                 x2="758.5045"
                 y2="444.7088"
                 gradientTransform="matrix(-1.0024 0 0 1.0024 888.3252 -189.7278)"><stop
                   offset="0"
                   style="stop-color:#202020"
                   id="stop49" /><stop
                   offset="1"
                   style="stop-color:#5E5E5E"
                   id="stop51" /></linearGradient><path
                 id="circle7224_1_"
                 class="st7"
                 d="M180.3,238.3c-9.8,0-17.7,7.9-17.7,17.7c0,9.8,7.9,17.7,17.7,17.7        c9.8,0,17.7-7.9,17.7-17.7C198,246.3,190.1,238.3,180.3,238.3z" /><radialGradient
                 id="circle7226_2_"
                 cx="678.6371"
                 cy="441.9566"
                 r="32.1978"
                 gradientTransform="matrix(-1.0024 0 0 1.0024 860.5088 -186.9709)"
                 gradientUnits="userSpaceOnUse"><stop
                   offset="0"
                   style="stop-color:#191919"
                   id="stop55" /><stop
                   offset="1"
                   style="stop-color:#010101;stop-opacity:0"
                   id="stop57" /></radialGradient><circle
                 id="circle7226_1_"
                 class="st8"
                 cx="180.3"
                 cy="256"
                 r="15.2" /></g><circle
               class="st9"
               cx="325.39999"
               cy="147.23965"
               id="circle60"
               r="30.601028"
               style="fill:none;stroke:#ffffff;stroke-width:2.00006723" /></g></g></g></g><g
       id="Screws"><g
         id="g7252_1_"
         transform="matrix(1.9999996,0,0,1.9999996,269.41922,-370.73392)"><radialGradient
           id="circle7254_2_"
           cx="-108.2473"
           cy="291.9502"
           r="25.0266"
           gradientTransform="matrix(-1.0024 0 0 1.0024 -115.7326 -94.0876)"
           gradientUnits="userSpaceOnUse"><stop
             offset="0"
             style="stop-color:#BCB8AE"
             id="stop65" /><stop
             offset="1"
             style="stop-color:#605B50"
             id="stop67" /></radialGradient><path
           id="circle7254_1_"
           class="st10"
           d="M-7.2,192.4c-3.4,0-6.1,2.7-6.1,6.1c0,3.4,2.7,6.1,6.1,6.1c3.4,0,6.1-2.7,6.1-6.1     C-1.1,195.2-3.8,192.4-7.2,192.4z" /><path
           id="path7257_1_"
           class="st2"
           d="M-8.9,194.9l2.1,2.4l2.7-1.2l0.5,0.9l-2.2,2l1.1,2.9l-0.9,0.5l-2-2.3l-2.8,1.1l-0.5-0.9     l2.2-1.9l-1.2-3L-8.9,194.9z" /></g><g
         id="g7259_1_"
         transform="matrix(1.9999996,0,0,-1.9999996,269.4192,-0.63523096)"><radialGradient
           id="circle7261_2_"
           cx="-108.2473"
           cy="-433.0105"
           r="25.0303"
           gradientTransform="matrix(-1.0024 0 0 1.0024 -115.7325 306.7443)"
           gradientUnits="userSpaceOnUse"><stop
             offset="0"
             style="stop-color:#BCB8AE"
             id="stop73" /><stop
             offset="1"
             style="stop-color:#605B50"
             id="stop75" /></radialGradient><path
           id="circle7261_1_"
           class="st11"
           d="M-7.2-133.4c-3.4,0-6.1,2.7-6.1,6.1c0,3.4,2.7,6.1,6.1,6.1c3.4,0,6.1-2.7,6.1-6.1     C-1.1-130.7-3.8-133.4-7.2-133.4z" /><path
           id="path7264_1_"
           class="st2"
           d="M-8.9-131l2.1,2.4l2.7-1.2l0.5,0.9l-2.2,2l1.1,2.9l-0.9,0.5l-2-2.3l-2.8,1.1l-0.5-0.9     l2.2-1.9l-1.2-3L-8.9-131z" /></g><g
         id="g7266_1_"
         transform="matrix(-1.9999996,0,0,1.9999996,786.56235,-370.7339)"><radialGradient
           id="circle7268_2_"
           cx="358.1868"
           cy="291.9502"
           r="25.0462"
           gradientTransform="matrix(-1.0024 0 0 1.0024 740.0603 -94.0876)"
           gradientUnits="userSpaceOnUse"><stop
             offset="0"
             style="stop-color:#BCB8AE"
             id="stop81" /><stop
             offset="1"
             style="stop-color:#605B50"
             id="stop83" /></radialGradient><path
           id="circle7268_1_"
           class="st12"
           d="M381,192.4c-3.4,0-6.1,2.7-6.1,6.1c0,3.4,2.7,6.1,6.1,6.1c3.4,0,6.1-2.7,6.1-6.1     C387.1,195.2,384.4,192.4,381,192.4z" /><path
           id="path7271_1_"
           class="st2"
           d="M379.3,194.9l2.1,2.4l2.7-1.2l0.5,0.9l-2.2,2l1.1,2.9l-0.9,0.5l-2-2.3l-2.8,1.1l-0.5-0.9     l2.2-1.9l-1.2-3L379.3,194.9z" /></g></g><circle
       class="st13"
       cx="139.7"
       cy="139.7"
       r="124.2"
       id="circle87" /><g
       id="g89"><rect
         x="14.1"
         y="255.1"
         class="st14"
         width="27.6"
         height="13.2"
         id="rect91" /><path
         class="st15"
         d="M17.5,258.7c0-0.7,0.1-1.3,0.3-1.8c0.2-0.4,0.4-0.7,0.7-1s0.6-0.5,0.9-0.6c0.4-0.2,1-0.3,1.5-0.3    c1.1,0,1.9,0.3,2.5,1s0.9,1.6,0.9,2.7c0,1.2-0.3,2.1-0.9,2.7c-0.6,0.7-1.5,1-2.5,1c-1.1,0-1.9-0.3-2.5-1    C17.8,260.8,17.5,259.9,17.5,258.7z M19,258.7c0,0.8,0.2,1.4,0.6,1.8c0.4,0.4,0.8,0.6,1.4,0.6s1-0.2,1.4-0.6    c0.4-0.4,0.6-1,0.6-1.9c0-0.8-0.2-1.4-0.5-1.8s-0.8-0.6-1.4-0.6s-1.1,0.2-1.4,0.6C19.2,257.2,19,257.9,19,258.7z"
         id="path93" /><path
         class="st15"
         d="M25.6,255.1h2.9c0.6,0,1,0,1.3,0.1c0.3,0,0.5,0.1,0.7,0.3s0.4,0.3,0.5,0.6c0.1,0.2,0.2,0.5,0.2,0.8    c0,0.3-0.1,0.6-0.3,0.9s-0.4,0.5-0.7,0.6c0.4,0.1,0.8,0.3,1,0.6s0.4,0.7,0.4,1.1c0,0.3-0.1,0.6-0.2,1c-0.2,0.3-0.4,0.6-0.6,0.7    c-0.3,0.2-0.6,0.3-1,0.3c-0.2,0-0.8,0-1.7,0h-2.4V255.1z M27,256.3v1.7H28c0.6,0,0.9,0,1,0c0.2,0,0.4-0.1,0.6-0.3    c0.1-0.1,0.2-0.3,0.2-0.6c0-0.2-0.1-0.4-0.2-0.5c-0.1-0.1-0.3-0.2-0.5-0.3c-0.1,0-0.6,0-1.2,0H27z M27,259.2v1.9h1.3    c0.5,0,0.9,0,1,0c0.2,0,0.4-0.1,0.5-0.3c0.1-0.2,0.2-0.4,0.2-0.6c0-0.2-0.1-0.4-0.2-0.5s-0.3-0.3-0.5-0.3s-0.6-0.1-1.3-0.1H27z"
         id="path95" /><path
         class="st15"
         d="M32.4,259.9l1.4-0.1c0.1,0.5,0.3,0.8,0.5,1s0.6,0.3,1,0.3c0.5,0,0.8-0.1,1.1-0.3c0.2-0.2,0.4-0.4,0.4-0.7    c0-0.2,0-0.3-0.1-0.4c-0.1-0.1-0.3-0.2-0.5-0.3c-0.2-0.1-0.6-0.2-1.2-0.3c-0.8-0.2-1.3-0.4-1.6-0.7c-0.4-0.4-0.7-0.9-0.7-1.4    c0-0.4,0.1-0.7,0.3-1c0.2-0.3,0.5-0.6,0.9-0.7s0.9-0.2,1.4-0.2c0.9,0,1.6,0.2,2,0.6s0.7,0.9,0.7,1.6l-1.4,0.1    c-0.1-0.4-0.2-0.6-0.4-0.8c-0.2-0.2-0.5-0.2-0.9-0.2c-0.4,0-0.7,0.1-1,0.3c-0.2,0.1-0.2,0.3-0.2,0.4c0,0.2,0.1,0.3,0.2,0.4    c0.2,0.2,0.6,0.3,1.3,0.5s1.2,0.3,1.6,0.5c0.3,0.2,0.6,0.4,0.8,0.7c0.2,0.3,0.3,0.7,0.3,1.1c0,0.4-0.1,0.8-0.3,1.2s-0.6,0.6-1,0.8    c-0.4,0.2-0.9,0.3-1.6,0.3c-0.9,0-1.6-0.2-2.1-0.6C32.8,261.4,32.5,260.7,32.4,259.9z"
         id="path97" /></g></g><g
     id="Arrow" /><g
     id="Center"><path
       d="M151.1,47.1c0,0-1,9.4-11.1,9.4c-9.3,0-11.1-9.4-11.1-9.4l11.1-1.5L151.1,47.1z"
       id="path101" /><circle
       class="st9"
       cx="139.7"
       cy="194.7"
       r="5.3"
       id="circle103" /><circle
       class="st16"
       cx="126.9"
       cy="194.5"
       r="2.5"
       id="circle105" /><circle
       class="st16"
       cx="114.3"
       cy="192.9"
       r="2.5"
       id="circle107" /><path
       class="st16"
       d="M104.2,190.8c-0.4,1.3-1.7,2.1-3.1,1.8c-1.3-0.4-2.2-1.7-1.8-3.1c0.4-1.3,1.7-2.1,3.1-1.8   C103.8,188,104.6,189.4,104.2,190.8z"
       id="path109" /><path
       class="st16"
       d="M92,187.1c-0.5,1.3-1.9,2-3.2,1.5c-1.3-0.5-2-1.9-1.5-3.2c0.5-1.3,1.9-2,3.2-1.5   C91.8,184.3,92.4,185.8,92,187.1z"
       id="path111" /><path
       class="st16"
       d="M80.1,182.4c-0.6,1.3-2.1,1.8-3.4,1.2c-1.3-0.6-1.8-2.1-1.2-3.4c0.6-1.3,2.1-1.8,3.4-1.2   C80.1,179.6,80.7,181.2,80.1,182.4z"
       id="path113" /><circle
       class="st16"
       cx="152.5"
       cy="194.6"
       r="2.5"
       id="circle115" /><circle
       class="st16"
       cx="165.2"
       cy="192.9"
       r="2.5"
       id="circle117" /><circle
       class="st16"
       cx="177.6"
       cy="190.1"
       r="2.5"
       id="circle119" /><circle
       class="st16"
       cx="189.8"
       cy="186.3"
       r="2.5"
       id="circle121" /><circle
       class="st16"
       cx="201.6"
       cy="181.4"
       r="2.5"
       id="circle123" /></g><g
     id="Nav_Flag"
     class="st17"><g
       class="st18"
       id="g126"><rect
         x="177.2"
         y="135.3"
         class="st16"
         width="21.3"
         height="4.3"
         id="rect128" /><polygon
         class="st19"
         points="177.2,139.6 180,139.6 182.6,135.3 179.8,135.3   "
         id="polygon130" /><polygon
         class="st19"
         points="182.6,139.6 185.3,139.6 187.9,135.3 185.1,135.3   "
         id="polygon132" /><polygon
         class="st19"
         points="187.9,139.6 190.6,139.6 193.2,135.3 190.5,135.3   "
         id="polygon134" /><polygon
         class="st19"
         points="193.2,139.6 195.9,139.6 198.5,135.3 195.8,135.3   "
         id="polygon136" /></g><g
       class="st18"
       id="g138"><rect
         x="177.3"
         y="131"
         class="st20"
         width="21.3"
         height="4.3"
         id="rect140" /><g
         id="g142"><path
           class="st16"
           d="M186.4,134.7v-2.4h-0.8v-0.5h2.3v0.5H187v2.4H186.4z"
           id="path144" /><path
           class="st16"
           d="M188,133.3c0-0.3,0-0.5,0.1-0.7c0.1-0.1,0.2-0.3,0.3-0.4c0.1-0.1,0.2-0.2,0.4-0.3c0.2-0.1,0.4-0.1,0.6-0.1     c0.4,0,0.8,0.1,1,0.4c0.3,0.3,0.4,0.6,0.4,1.1c0,0.5-0.1,0.8-0.4,1.1c-0.3,0.3-0.6,0.4-1,0.4c-0.4,0-0.8-0.1-1-0.4     C188.2,134.1,188,133.7,188,133.3z M188.6,133.3c0,0.3,0.1,0.6,0.2,0.7c0.1,0.2,0.3,0.3,0.6,0.3s0.4-0.1,0.6-0.2     c0.1-0.2,0.2-0.4,0.2-0.7c0-0.3-0.1-0.6-0.2-0.7c-0.1-0.2-0.3-0.2-0.6-0.2s-0.4,0.1-0.6,0.2C188.7,132.7,188.6,132.9,188.6,133.3     z"
           id="path146" /></g></g><g
       class="st18"
       id="g148"><rect
         x="177.3"
         y="139.6"
         class="st20"
         width="21.3"
         height="4.3"
         id="rect150" /><g
         id="g152"><path
           class="st16"
           d="M182.6,143.3v-2.9h2v0.5h-1.4v0.7h1.2v0.5h-1.2v1.2H182.6z"
           id="path154" /><path
           class="st16"
           d="M185.1,143.3v-2.9h1.2c0.3,0,0.5,0,0.7,0.1c0.1,0.1,0.2,0.1,0.3,0.3c0.1,0.1,0.1,0.3,0.1,0.5     c0,0.2-0.1,0.4-0.2,0.5c-0.1,0.1-0.3,0.2-0.6,0.3c0.1,0.1,0.2,0.2,0.3,0.2c0.1,0.1,0.2,0.2,0.3,0.5l0.3,0.6H187l-0.4-0.6     c-0.1-0.2-0.3-0.4-0.3-0.4c-0.1-0.1-0.1-0.1-0.2-0.1c-0.1,0-0.2,0-0.3,0h-0.1v1.2H185.1z M185.7,141.6h0.4c0.3,0,0.5,0,0.5,0     c0.1,0,0.1-0.1,0.2-0.1c0-0.1,0.1-0.1,0.1-0.2c0-0.1,0-0.2-0.1-0.2c-0.1-0.1-0.1-0.1-0.2-0.1c0,0-0.2,0-0.4,0h-0.5V141.6z"
           id="path156" /><path
           class="st16"
           d="M187.9,141.9c0-0.3,0-0.5,0.1-0.7c0.1-0.1,0.2-0.3,0.3-0.4c0.1-0.1,0.2-0.2,0.4-0.3     c0.2-0.1,0.4-0.1,0.6-0.1c0.4,0,0.8,0.1,1,0.4c0.3,0.3,0.4,0.6,0.4,1.1c0,0.5-0.1,0.8-0.4,1.1c-0.3,0.3-0.6,0.4-1,0.4     c-0.4,0-0.8-0.1-1-0.4C188,142.7,187.9,142.3,187.9,141.9z M188.4,141.8c0,0.3,0.1,0.6,0.2,0.7c0.1,0.2,0.3,0.3,0.6,0.3     s0.4-0.1,0.6-0.3c0.1-0.2,0.2-0.4,0.2-0.7c0-0.3-0.1-0.6-0.2-0.7c-0.1-0.2-0.3-0.2-0.6-0.2s-0.4,0.1-0.6,0.2     C188.5,141.3,188.4,141.5,188.4,141.8z"
           id="path158" /><path
           class="st16"
           d="M191.1,143.3v-2.9h0.9l0.5,2l0.5-2h0.9v2.9h-0.5V141l-0.6,2.3h-0.6l-0.6-2.3v2.3H191.1z"
           id="path160" /></g></g></g><g
     id="Nav_Mask"
     class="st17"><rect
       x="177.3"
       y="131"
       class="st18"
       width="21.4"
       height="4.3"
       id="rect163" /><rect
       x="177.2"
       y="139.6"
       class="st18"
       width="21.4"
       height="4.3"
       id="rect165" /><rect
       x="177.3"
       y="126.6"
       class="st21"
       width="21.4"
       height="4.3"
       id="rect167" /><rect
       x="177.3"
       y="143.9"
       class="st21"
       width="21.4"
       height="4.3"
       id="rect169" /></g><g
     id="Vert_Needle"
     class="st17"><g
       class="st18"
       id="g172"><line
         class="st22"
         x1="139.7"
         y1="50.9"
         x2="139.7"
         y2="199.7"
         id="line174" /><line
         class="st23"
         x1="139.7"
         y1="50.9"
         x2="139.7"
         y2="66.7"
         id="line176" /></g></g><g
     id="Arrow_1_"><g
       id="g179"><polygon
         class="st24"
         points="135.5,56 139.8,48.6 144.1,56   "
         id="polygon181" /><line
         class="st25"
         x1="139.8"
         y1="55.2"
         x2="139.7"
         y2="47.1"
         id="line183" /></g></g><g
     id="Ring"
     class="st17"><circle
       class="st26"
       cx="139.7"
       cy="139.7"
       r="93.8"
       id="circle186" /><g
       id="_x39_0_deg"
       class="st18"><line
         class="st22"
         x1="139.7"
         y1="39.3"
         x2="139.7"
         y2="45.9"
         id="line189" /><line
         class="st22"
         x1="39.3"
         y1="139.7"
         x2="45.9"
         y2="139.7"
         id="line191" /><line
         class="st22"
         x1="139.7"
         y1="240.1"
         x2="139.7"
         y2="233.5"
         id="line193" /><line
         class="st22"
         x1="240.1"
         y1="139.7"
         x2="233.5"
         y2="139.7"
         id="line195" /></g><g
       id="_x33_0_deg"
       class="st18"><line
         class="st27"
         x1="88.2"
         y1="50.5"
         x2="92.8"
         y2="58.5"
         id="line198" /><line
         class="st27"
         x1="50.5"
         y1="88.2"
         x2="58.5"
         y2="92.8"
         id="line200" /><path
         class="st27"
         d="M45.9,139.7"
         id="path202" /><line
         class="st27"
         x1="50.5"
         y1="191.2"
         x2="58.5"
         y2="186.6"
         id="line204" /><line
         class="st27"
         x1="88.2"
         y1="228.9"
         x2="92.8"
         y2="220.9"
         id="line206" /><line
         class="st27"
         x1="191.2"
         y1="228.9"
         x2="186.6"
         y2="220.9"
         id="line208" /><line
         class="st27"
         x1="228.9"
         y1="191.2"
         x2="220.9"
         y2="186.6"
         id="line210" /><line
         class="st27"
         x1="228.9"
         y1="88.2"
         x2="220.9"
         y2="92.8"
         id="line212" /><line
         class="st27"
         x1="191.2"
         y1="50.5"
         x2="186.6"
         y2="58.5"
         id="line214" /></g><g
       id="_x31_0_deg"
       class="st18"><line
         class="st27"
         x1="121"
         y1="33.6"
         x2="123.4"
         y2="47.4"
         id="line217" /><line
         class="st27"
         x1="102.9"
         y1="38.5"
         x2="107.6"
         y2="51.6"
         id="line219" /><line
         class="st27"
         x1="70.5"
         y1="57.2"
         x2="79.4"
         y2="67.9"
         id="line221" /><line
         class="st27"
         x1="57.2"
         y1="70.5"
         x2="67.9"
         y2="79.5"
         id="line223" /><line
         class="st27"
         x1="38.5"
         y1="102.9"
         x2="51.6"
         y2="107.7"
         id="line225" /><line
         class="st27"
         x1="33.6"
         y1="121"
         x2="47.4"
         y2="123.5"
         id="line227" /><line
         class="st27"
         x1="33.6"
         y1="158.4"
         x2="47.4"
         y2="156"
         id="line229" /><line
         class="st27"
         x1="38.5"
         y1="176.6"
         x2="51.6"
         y2="171.8"
         id="line231" /><line
         class="st27"
         x1="57.2"
         y1="209"
         x2="67.9"
         y2="200"
         id="line233" /><line
         class="st27"
         x1="70.5"
         y1="222.2"
         x2="79.5"
         y2="211.6"
         id="line235" /><line
         class="st27"
         x1="102.9"
         y1="240.9"
         x2="107.7"
         y2="227.8"
         id="line237" /><line
         class="st27"
         x1="121"
         y1="245.8"
         x2="123.5"
         y2="232.1"
         id="line239" /><line
         class="st27"
         x1="158.4"
         y1="245.8"
         x2="156"
         y2="232.1"
         id="line241" /><line
         class="st27"
         x1="176.6"
         y1="240.9"
         x2="171.8"
         y2="227.8"
         id="line243" /><line
         class="st27"
         x1="209"
         y1="222.2"
         x2="200"
         y2="211.5"
         id="line245" /><line
         class="st27"
         x1="222.2"
         y1="209"
         x2="211.6"
         y2="200"
         id="line247" /><line
         class="st27"
         x1="240.9"
         y1="176.6"
         x2="227.8"
         y2="171.8"
         id="line249" /><line
         class="st27"
         x1="245.8"
         y1="158.4"
         x2="232.1"
         y2="156"
         id="line251" /><line
         class="st27"
         x1="245.8"
         y1="121"
         x2="232.1"
         y2="123.4"
         id="line253" /><line
         class="st27"
         x1="240.9"
         y1="102.9"
         x2="227.8"
         y2="107.6"
         id="line255" /><line
         class="st27"
         x1="222.2"
         y1="70.5"
         x2="211.5"
         y2="79.4"
         id="line257" /><line
         class="st27"
         x1="209"
         y1="57.2"
         x2="200"
         y2="67.9"
         id="line259" /><line
         class="st27"
         x1="176.6"
         y1="38.5"
         x2="171.8"
         y2="51.6"
         id="line261" /><line
         class="st27"
         x1="158.4"
         y1="33.6"
         x2="156"
         y2="47.4"
         id="line263" /></g><g
       id="_x35__deg"
       class="st18"><line
         class="st27"
         x1="139.8"
         y1="40.5"
         x2="139.7"
         y2="45.9"
         id="line266" /><line
         class="st27"
         x1="131.1"
         y1="40.9"
         x2="131.6"
         y2="46.3"
         id="line268" /><line
         class="st27"
         x1="122.5"
         y1="42"
         x2="123.5"
         y2="47.4"
         id="line270" /><line
         class="st27"
         x1="114.1"
         y1="43.9"
         x2="115.5"
         y2="49.1"
         id="line272" /><line
         class="st27"
         x1="105.8"
         y1="46.5"
         x2="107.7"
         y2="51.6"
         id="line274" /><line
         class="st27"
         x1="97.8"
         y1="49.8"
         x2="100.1"
         y2="54.7"
         id="line276" /><line
         class="st27"
         x1="90.1"
         y1="53.8"
         x2="92.8"
         y2="58.5"
         id="line278" /><line
         class="st27"
         x1="82.8"
         y1="58.4"
         x2="85.9"
         y2="62.9"
         id="line280" /><line
         class="st27"
         x1="76"
         y1="63.7"
         x2="79.5"
         y2="67.9"
         id="line282" /><line
         class="st27"
         x1="69.6"
         y1="69.5"
         x2="73.4"
         y2="73.4"
         id="line284" /><line
         class="st27"
         x1="63.7"
         y1="75.9"
         x2="67.9"
         y2="79.4"
         id="line286" /><line
         class="st27"
         x1="58.5"
         y1="82.8"
         x2="62.9"
         y2="85.9"
         id="line288" /><line
         class="st27"
         x1="53.8"
         y1="90.1"
         x2="58.5"
         y2="92.8"
         id="line290" /><line
         class="st27"
         x1="49.8"
         y1="97.7"
         x2="54.7"
         y2="100.1"
         id="line292" /><line
         class="st27"
         x1="46.5"
         y1="105.7"
         x2="51.6"
         y2="107.6"
         id="line294" /><line
         class="st27"
         x1="43.9"
         y1="114"
         x2="49.1"
         y2="115.4"
         id="line296" /><line
         class="st27"
         x1="42"
         y1="122.4"
         x2="47.4"
         y2="123.4"
         id="line298" /><line
         class="st27"
         x1="40.9"
         y1="131"
         x2="46.3"
         y2="131.5"
         id="line300" /><line
         class="st27"
         x1="40.5"
         y1="139.7"
         x2="45.9"
         y2="139.7"
         id="line302" /><line
         class="st27"
         x1="40.9"
         y1="148.3"
         x2="46.3"
         y2="147.9"
         id="line304" /><line
         class="st27"
         x1="42"
         y1="156.9"
         x2="47.4"
         y2="156"
         id="line306" /><line
         class="st27"
         x1="43.9"
         y1="165.4"
         x2="49.1"
         y2="164"
         id="line308" /><line
         class="st27"
         x1="46.5"
         y1="173.6"
         x2="51.6"
         y2="171.8"
         id="line310" /><line
         class="st27"
         x1="49.8"
         y1="181.6"
         x2="54.7"
         y2="179.3"
         id="line312" /><line
         class="st27"
         x1="53.8"
         y1="189.3"
         x2="58.5"
         y2="186.6"
         id="line314" /><line
         class="st27"
         x1="58.4"
         y1="196.6"
         x2="62.9"
         y2="193.5"
         id="line316" /><line
         class="st27"
         x1="63.7"
         y1="203.5"
         x2="67.9"
         y2="200"
         id="line318" /><line
         class="st27"
         x1="69.5"
         y1="209.8"
         x2="73.4"
         y2="206"
         id="line320" /><line
         class="st27"
         x1="75.9"
         y1="215.7"
         x2="79.4"
         y2="211.5"
         id="line322" /><line
         class="st27"
         x1="82.8"
         y1="221"
         x2="85.9"
         y2="216.5"
         id="line324" /><line
         class="st27"
         x1="90.1"
         y1="225.6"
         x2="92.8"
         y2="220.9"
         id="line326" /><line
         class="st27"
         x1="97.7"
         y1="229.6"
         x2="100.1"
         y2="224.7"
         id="line328" /><line
         class="st27"
         x1="105.7"
         y1="232.9"
         x2="107.6"
         y2="227.8"
         id="line330" /><line
         class="st27"
         x1="114"
         y1="235.6"
         x2="115.4"
         y2="230.3"
         id="line332" /><line
         class="st27"
         x1="122.4"
         y1="237.4"
         x2="123.4"
         y2="232.1"
         id="line334" /><line
         class="st27"
         x1="131"
         y1="238.6"
         x2="131.5"
         y2="233.1"
         id="line336" /><line
         class="st27"
         x1="139.7"
         y1="238.9"
         x2="139.7"
         y2="233.5"
         id="line338" /><line
         class="st27"
         x1="148.3"
         y1="238.6"
         x2="147.9"
         y2="233.1"
         id="line340" /><line
         class="st27"
         x1="156.9"
         y1="237.4"
         x2="156"
         y2="232.1"
         id="line342" /><line
         class="st27"
         x1="165.4"
         y1="235.6"
         x2="164"
         y2="230.3"
         id="line344" /><line
         class="st27"
         x1="173.6"
         y1="233"
         x2="171.8"
         y2="227.9"
         id="line346" /><line
         class="st27"
         x1="181.6"
         y1="229.7"
         x2="179.3"
         y2="224.7"
         id="line348" /><line
         class="st27"
         x1="189.3"
         y1="225.7"
         x2="186.6"
         y2="221"
         id="line350" /><line
         class="st27"
         x1="196.6"
         y1="221"
         x2="193.5"
         y2="216.6"
         id="line352" /><line
         class="st27"
         x1="203.5"
         y1="215.8"
         x2="200"
         y2="211.6"
         id="line354" /><line
         class="st27"
         x1="209.8"
         y1="209.9"
         x2="206"
         y2="206.1"
         id="line356" /><line
         class="st27"
         x1="215.7"
         y1="203.5"
         x2="211.5"
         y2="200"
         id="line358" /><line
         class="st27"
         x1="221"
         y1="196.7"
         x2="216.5"
         y2="193.5"
         id="line360" /><line
         class="st27"
         x1="225.6"
         y1="189.4"
         x2="220.9"
         y2="186.6"
         id="line362" /><line
         class="st27"
         x1="229.6"
         y1="181.7"
         x2="224.7"
         y2="179.4"
         id="line364" /><line
         class="st27"
         x1="232.9"
         y1="173.7"
         x2="227.8"
         y2="171.8"
         id="line366" /><line
         class="st27"
         x1="235.5"
         y1="165.4"
         x2="230.3"
         y2="164"
         id="line368" /><line
         class="st27"
         x1="237.4"
         y1="157"
         x2="232.1"
         y2="156"
         id="line370" /><line
         class="st27"
         x1="238.6"
         y1="148.4"
         x2="233.1"
         y2="147.9"
         id="line372" /><line
         class="st27"
         x1="238.9"
         y1="139.8"
         x2="233.5"
         y2="139.7"
         id="line374" /><line
         class="st27"
         x1="238.6"
         y1="131.1"
         x2="233.1"
         y2="131.6"
         id="line376" /><line
         class="st27"
         x1="237.4"
         y1="122.5"
         x2="232.1"
         y2="123.5"
         id="line378" /><line
         class="st27"
         x1="235.6"
         y1="114.1"
         x2="230.3"
         y2="115.5"
         id="line380" /><line
         class="st27"
         x1="233"
         y1="105.8"
         x2="227.8"
         y2="107.7"
         id="line382" /><line
         class="st27"
         x1="229.7"
         y1="97.8"
         x2="224.7"
         y2="100.1"
         id="line384" /><line
         class="st27"
         x1="225.7"
         y1="90.1"
         x2="220.9"
         y2="92.9"
         id="line386" /><line
         class="st27"
         x1="221"
         y1="82.8"
         x2="216.6"
         y2="86"
         id="line388" /><line
         class="st27"
         x1="215.8"
         y1="76"
         x2="211.6"
         y2="79.5"
         id="line390" /><line
         class="st27"
         x1="209.9"
         y1="69.6"
         x2="206"
         y2="73.4"
         id="line392" /><line
         class="st27"
         x1="203.5"
         y1="63.7"
         x2="200"
         y2="67.9"
         id="line394" /><line
         class="st27"
         x1="196.7"
         y1="58.5"
         x2="193.5"
         y2="62.9"
         id="line396" /><line
         class="st27"
         x1="189.4"
         y1="53.8"
         x2="186.6"
         y2="58.5"
         id="line398" /><line
         class="st27"
         x1="181.7"
         y1="49.8"
         x2="179.4"
         y2="54.7"
         id="line400" /><line
         class="st27"
         x1="173.7"
         y1="46.5"
         x2="171.8"
         y2="51.6"
         id="line402" /><line
         class="st27"
         x1="165.4"
         y1="43.9"
         x2="164"
         y2="49.1"
         id="line404" /><line
         class="st27"
         x1="157"
         y1="42"
         x2="156"
         y2="47.4"
         id="line406" /><line
         class="st27"
         x1="148.4"
         y1="40.9"
         x2="147.9"
         y2="46.3"
         id="line408" /></g><g
       id="Labels"
       class="st18"><g
         id="g411"><rect
           x="131.1"
           y="23.5"
           class="st14"
           width="17.8"
           height="15"
           id="rect413" /><path
           class="st16"
           d="M135.1,35.7V23.5h2.4l5,8.1v-8.1h2.3v12.2h-2.5l-4.9-7.9v7.9H135.1z"
           id="path415" /></g><g
         id="g417"><rect
           x="74.5"
           y="37.9"
           transform="matrix(0.866 -0.5 0.5 0.866 -11.2421 48.8866)"
           class="st14"
           width="22.2"
           height="15"
           id="rect419" /><path
           class="st16"
           d="M78.8,51.1l1.2-0.9c0.6,0.6,1.1,1,1.7,1.1c0.5,0.1,1.1,0,1.6-0.3c0.6-0.4,1-0.9,1.2-1.5     c0.2-0.7,0.1-1.3-0.3-1.9c-0.3-0.6-0.8-1-1.4-1.1c-0.6-0.2-1.2-0.1-1.8,0.3c-0.2,0.1-0.5,0.4-0.8,0.7l-0.5-1.2     c0.1,0,0.2-0.1,0.2-0.1c0.6-0.3,1-0.7,1.2-1.3c0.3-0.5,0.2-1.1-0.1-1.7c-0.3-0.5-0.7-0.8-1.2-0.9s-1,0-1.5,0.3     c-0.5,0.3-0.8,0.7-1,1.2s-0.1,1.1,0.2,1.8L76,45.9c-0.3-1-0.4-1.8-0.1-2.6c0.3-0.8,0.8-1.4,1.7-1.9c0.6-0.3,1.2-0.5,1.8-0.5     s1.2,0.1,1.7,0.4c0.5,0.3,0.9,0.7,1.2,1.1c0.3,0.5,0.4,0.9,0.4,1.5c0,0.5-0.2,1-0.6,1.5c0.7-0.2,1.4-0.2,2,0.1     c0.6,0.3,1.1,0.7,1.5,1.4c0.5,0.9,0.6,1.9,0.3,2.9c-0.3,1-1,1.8-2,2.4c-0.9,0.5-1.9,0.7-2.8,0.5C80.1,52.4,79.4,51.9,78.8,51.1z"
           id="path421" /><path
           class="st16"
           d="M87,46.4l1.2-0.9c0.6,0.6,1.1,1,1.7,1.1c0.5,0.1,1.1,0,1.6-0.3c0.6-0.4,1-0.9,1.2-1.5     c0.2-0.7,0.1-1.3-0.3-1.9c-0.3-0.6-0.8-1-1.4-1.1c-0.6-0.2-1.2-0.1-1.8,0.3c-0.2,0.1-0.5,0.4-0.8,0.7l-0.5-1.2     c0.1,0,0.2-0.1,0.2-0.1c0.6-0.3,1-0.7,1.2-1.3s0.2-1.1-0.1-1.7c-0.3-0.5-0.7-0.8-1.2-0.9c-0.5-0.1-1,0-1.5,0.3     c-0.5,0.3-0.8,0.7-1,1.2c-0.2,0.5-0.1,1.1,0.2,1.8l-1.4,0.5c-0.3-1-0.4-1.8-0.1-2.6s0.8-1.4,1.7-1.9c0.6-0.3,1.2-0.5,1.8-0.5     c0.6,0,1.2,0.1,1.7,0.4c0.5,0.3,0.9,0.7,1.2,1.1c0.3,0.5,0.4,0.9,0.4,1.5c0,0.5-0.2,1-0.6,1.5c0.7-0.2,1.4-0.2,2,0.1     c0.6,0.3,1.1,0.7,1.5,1.4c0.5,0.9,0.6,1.9,0.3,2.9c-0.3,1-1,1.8-2,2.4c-0.9,0.5-1.9,0.7-2.8,0.5C88.3,47.7,87.6,47.2,87,46.4z"
           id="path423" /></g><g
         id="g425"><rect
           x="34"
           y="77.6"
           transform="matrix(0.5 -0.866 0.866 0.5 -50.8617 82.1364)"
           class="st14"
           width="23.5"
           height="15"
           id="rect427" /><path
           class="st16"
           d="M42.6,93.4l0.6-1.4c0.8,0.3,1.5,0.3,2,0.2c0.5-0.2,0.9-0.5,1.2-1c0.4-0.6,0.4-1.2,0.3-1.9     c-0.2-0.7-0.6-1.2-1.2-1.5c-0.6-0.3-1.2-0.4-1.8-0.3c-0.6,0.2-1.1,0.5-1.4,1.1c-0.1,0.2-0.3,0.6-0.4,1l-1.1-0.8     c0.1-0.1,0.1-0.1,0.1-0.2c0.3-0.6,0.5-1.1,0.4-1.7c0-0.6-0.3-1.1-0.9-1.4c-0.5-0.3-1-0.3-1.5-0.2c-0.5,0.1-0.9,0.5-1.2,1     c-0.3,0.5-0.4,1-0.3,1.5c0.1,0.5,0.5,1,1,1.5l-1,1.2c-0.8-0.7-1.2-1.4-1.4-2.2c-0.2-0.8,0-1.7,0.5-2.5c0.3-0.6,0.8-1,1.3-1.4     c0.5-0.3,1.1-0.5,1.7-0.5c0.6,0,1.1,0.1,1.6,0.4c0.5,0.3,0.8,0.6,1,1.1c0.2,0.5,0.3,1,0.3,1.6c0.5-0.5,1.1-0.9,1.7-0.9     c0.7-0.1,1.3,0.1,2,0.5c0.9,0.5,1.5,1.3,1.8,2.4c0.3,1,0.1,2.1-0.5,3.1c-0.5,0.9-1.3,1.5-2.2,1.8C44.5,93.9,43.6,93.8,42.6,93.4z     "
           id="path429" /><path
           class="st16"
           d="M44.9,83.8c-1.2-0.7-2.2-1.4-2.8-2.1c-0.6-0.7-1-1.4-1.1-2.2c-0.1-0.7,0-1.5,0.5-2.3c0.3-0.6,0.7-1,1.2-1.3     c0.5-0.3,1-0.5,1.6-0.5c0.6,0,1.2,0.1,1.9,0.3s1.6,0.6,2.6,1.2c1.2,0.7,2.2,1.4,2.8,2.1c0.6,0.7,1,1.4,1.1,2.2     c0.1,0.7,0,1.5-0.5,2.3c-0.6,1-1.4,1.6-2.5,1.8C48.5,85.4,46.9,84.9,44.9,83.8z M45.7,82.5c1.7,1,3,1.5,3.8,1.4     c0.8-0.1,1.4-0.4,1.7-1c0.3-0.6,0.3-1.3,0-2s-1.4-1.6-3.1-2.6c-1.7-1-3-1.5-3.8-1.4c-0.8,0.1-1.4,0.4-1.7,1     c-0.3,0.6-0.4,1.2-0.1,1.9C42.9,80.6,44,81.5,45.7,82.5z"
           id="path431" /></g><g
         id="g433"><rect
           x="23.5"
           y="130.6"
           class="st14"
           width="15"
           height="17.8"
           id="rect435" /><path
           class="st16"
           d="M35.7,144.5l-12.2,2.9v-2.5l8.4-1.8l-8.4-2.2v-2.9l8.5-2.1l-8.5-1.9v-2.5l12.2,3v2.6l-9.1,2.4l9.1,2.4     V144.5z"
           id="path437" /></g><g
         id="g439"><rect
           x="32.7"
           y="186.3"
           transform="matrix(-0.5 -0.866 0.866 -0.5 -99.749 330.0908)"
           class="st14"
           width="25.4"
           height="15"
           id="rect441" /><path
           class="st16"
           d="M48.7,193l1.2-0.7l4,7c-0.3,0.2-0.6,0.3-1,0.4c-0.6,0.1-1.2,0.1-1.9,0c-0.7-0.1-1.5-0.4-2.6-0.8     c-1.6-0.6-2.8-0.9-3.6-1s-1.4,0-1.9,0.3c-0.5,0.3-0.8,0.7-1,1.3c-0.1,0.6,0,1.2,0.3,1.7c0.4,0.6,0.8,1,1.4,1.2     c0.6,0.2,1.2,0,1.9-0.3l0.6,1.4c-1,0.5-2,0.6-2.9,0.3c-0.9-0.3-1.6-0.9-2.2-1.9c-0.6-1-0.8-2-0.5-2.9c0.2-0.9,0.7-1.6,1.6-2.1     c0.4-0.2,0.9-0.4,1.4-0.5s1.1,0,1.8,0.1c0.7,0.1,1.7,0.4,3,0.9c1.1,0.4,1.8,0.6,2.2,0.7c0.4,0.1,0.7,0.1,1,0.1L48.7,193z"
           id="path443" /><path
           class="st16"
           d="M46.8,186.7l-2.5,1.5l2.6,4.6l-1.2,0.7l-9.6-0.9l-0.6-1.1l6.8-3.9l-0.8-1.4l1.2-0.7l0.8,1.4l2.5-1.5     L46.8,186.7z M43,188.9l-4.8,2.7l6.7,0.6L43,188.9z"
           id="path445" /></g><g
         id="g447"><rect
           x="70.7"
           y="226.2"
           transform="matrix(-0.866 -0.5 0.5 -0.866 41.9494 478.7241)"
           class="st14"
           width="28.7"
           height="15"
           id="rect449" /><path
           class="st16"
           d="M87.5,231.4l0.7-1.2l7,4c-0.2,0.3-0.4,0.6-0.7,0.8c-0.5,0.4-1,0.7-1.7,0.9c-0.7,0.2-1.5,0.4-2.6,0.6     c-1.7,0.3-2.9,0.6-3.6,0.9c-0.7,0.3-1.2,0.7-1.5,1.2c-0.3,0.5-0.4,1.1-0.2,1.6c0.2,0.6,0.5,1,1.1,1.4c0.6,0.4,1.2,0.5,1.8,0.3     c0.6-0.2,1.1-0.6,1.5-1.2l1.3,0.9c-0.7,0.9-1.4,1.5-2.3,1.7c-0.9,0.2-1.8,0-2.8-0.6c-1-0.6-1.6-1.3-1.9-2.2     c-0.3-0.9-0.2-1.8,0.3-2.6c0.2-0.4,0.6-0.8,1-1.1s0.9-0.6,1.6-0.8c0.7-0.2,1.7-0.5,3.1-0.7c1.2-0.2,1.9-0.4,2.3-0.5     s0.7-0.2,1-0.4L87.5,231.4z"
           id="path451" /><path
           class="st16"
           d="M81.9,226.5l1.3,0.7l-4.8,8.2c0.5-0.1,1.1-0.2,1.7-0.2c0.7,0,1.3,0,1.7,0.1l-0.7,1.3     c-0.9-0.1-1.8,0-2.6,0.1c-0.8,0.2-1.5,0.4-2,0.7l-0.8-0.5L81.9,226.5z"
           id="path453" /></g><g
         id="g455"><rect
           x="130.6"
           y="240.9"
           class="st14"
           width="17.8"
           height="15"
           id="rect457" /><path
           class="st16"
           d="M144.5,247.7l-2.4,0.2c-0.1-0.8-0.4-1.4-0.9-1.8c-0.4-0.4-1-0.6-1.8-0.6c-0.8,0-1.4,0.2-1.8,0.5     c-0.4,0.3-0.6,0.7-0.6,1.2c0,0.3,0.1,0.5,0.3,0.7c0.2,0.2,0.5,0.4,0.9,0.5c0.3,0.1,0.9,0.3,2,0.5c1.3,0.3,2.2,0.7,2.8,1.2     c0.7,0.7,1.1,1.5,1.1,2.4c0,0.6-0.2,1.2-0.5,1.7c-0.4,0.5-0.9,1-1.5,1.2c-0.7,0.3-1.5,0.4-2.4,0.4c-1.5,0-2.7-0.3-3.4-1     c-0.8-0.7-1.2-1.6-1.2-2.7l2.5-0.1c0.1,0.6,0.3,1.1,0.7,1.3c0.3,0.3,0.9,0.4,1.6,0.4c0.7,0,1.3-0.1,1.7-0.4     c0.3-0.2,0.4-0.4,0.4-0.8c0-0.3-0.1-0.5-0.4-0.7c-0.3-0.3-1.1-0.5-2.3-0.8s-2.1-0.6-2.7-0.9c-0.6-0.3-1-0.7-1.3-1.2     c-0.3-0.5-0.5-1.2-0.5-1.9c0-0.7,0.2-1.3,0.6-2s0.9-1.1,1.6-1.4c0.7-0.3,1.6-0.4,2.6-0.4c1.5,0,2.7,0.4,3.5,1.1     S144.3,246.4,144.5,247.7z"
           id="path459" /></g><g
         id="g461"><rect
           x="180.9"
           y="226.5"
           transform="matrix(-0.866 0.5 -0.5 -0.866 478.724 339.7645)"
           class="st14"
           width="25.9"
           height="15"
           id="rect463" /><path
           class="st16"
           d="M194.2,228.4l1.3-0.7l4.8,8.2c0.1-0.5,0.4-1,0.7-1.6c0.3-0.6,0.7-1.1,1-1.5l0.7,1.3     c-0.5,0.8-0.9,1.5-1.2,2.3c-0.3,0.8-0.4,1.5-0.3,2.1l-0.8,0.5L194.2,228.4z"
           id="path465" /><path
           class="st16"
           d="M192.5,233.1l-1.3,0.9c-0.5-0.6-1-1-1.6-1.1c-0.6-0.1-1.1,0-1.6,0.3c-0.6,0.4-1,0.9-1.2,1.6     c-0.2,0.7,0,1.5,0.4,2.2c0.4,0.7,1,1.2,1.6,1.4c0.7,0.2,1.3,0.1,2-0.3c0.4-0.2,0.7-0.6,1-0.9c0.2-0.4,0.3-0.8,0.4-1.2l1.3-0.5     l2.1,6l-5.2,3l-0.7-1.2l4.2-2.4l-1.1-3.2c-0.4,0.8-0.9,1.4-1.6,1.8c-0.9,0.5-1.9,0.7-2.9,0.4c-1-0.3-1.8-0.9-2.4-1.9     c-0.5-1-0.7-1.9-0.6-3c0.2-1.2,0.9-2.2,2-2.9c1-0.6,1.9-0.7,2.8-0.5C191.1,231.7,191.9,232.2,192.5,233.1z"
           id="path467" /></g><g
         id="g469"><rect
           x="220.7"
           y="186.8"
           transform="matrix(-0.5 0.866 -0.866 -0.5 518.903 89.0704)"
           class="st14"
           width="26.1"
           height="15"
           id="rect471" /><path
           class="st16"
           d="M231.2,189.3l0.7-1.3l8.2,4.8c-0.1-0.5-0.2-1.1-0.2-1.7c0-0.7,0-1.3,0.1-1.7l1.3,0.7     c-0.1,0.9,0,1.8,0.1,2.6c0.2,0.8,0.4,1.5,0.7,2l-0.5,0.8L231.2,189.3z"
           id="path473" /><path
           class="st16"
           d="M226.6,200.2l-1.2-0.7l4-7c0.3,0.2,0.6,0.4,0.8,0.7c0.4,0.5,0.7,1,0.9,1.7s0.4,1.5,0.6,2.6     c0.3,1.7,0.6,2.9,0.9,3.6c0.3,0.7,0.7,1.2,1.2,1.5c0.5,0.3,1.1,0.4,1.6,0.2c0.6-0.2,1-0.5,1.4-1.1c0.4-0.6,0.5-1.2,0.3-1.8     c-0.2-0.6-0.6-1.1-1.2-1.5l0.9-1.3c0.9,0.7,1.5,1.4,1.7,2.3c0.2,0.9,0,1.8-0.6,2.8c-0.6,1-1.3,1.6-2.2,1.9     c-0.9,0.3-1.8,0.2-2.6-0.3c-0.4-0.2-0.8-0.6-1.1-1c-0.3-0.4-0.6-0.9-0.8-1.6c-0.2-0.7-0.5-1.7-0.7-3.1c-0.2-1.2-0.4-1.9-0.5-2.3     c-0.1-0.4-0.2-0.7-0.4-1L226.6,200.2z"
           id="path475" /></g><g
         id="g477"><rect
           x="240.9"
           y="131.1"
           class="st14"
           width="15"
           height="17.8"
           id="rect479" /><path
           class="st16"
           d="M243.8,135.6h12.2v9h-2.1V138h-2.7v6.1h-2.1V138h-3.3v6.8h-2V135.6z"
           id="path481" /></g><g
         id="g483"><rect
           x="225.1"
           y="78.1"
           transform="matrix(0.5 0.866 -0.866 0.5 191.1389 -159.8665)"
           class="st14"
           width="17.8"
           height="15"
           id="rect485" /><path
           class="st16"
           d="M239.8,86.6l-0.8-1.2c0.4-0.4,0.7-0.8,0.8-1.1c0.2-0.6,0.1-1.1-0.2-1.6c-0.2-0.4-0.6-0.7-1-0.9     c-0.5-0.2-1.2-0.3-1.9-0.2c-0.7,0.1-1.6,0.4-2.6,1c0.7,0,1.2,0.2,1.7,0.5c0.5,0.3,0.9,0.7,1.2,1.2c0.5,0.9,0.6,1.8,0.3,2.8     c-0.3,1-0.9,1.8-1.9,2.3c-0.7,0.4-1.4,0.6-2.1,0.6c-0.7,0-1.4-0.1-2-0.4s-1.1-0.8-1.4-1.4c-0.6-1.1-0.7-2.2-0.3-3.3     c0.4-1.1,1.5-2.2,3.3-3.3c2-1.2,3.7-1.7,5.1-1.4c1.2,0.2,2.1,0.8,2.7,2c0.5,0.8,0.6,1.6,0.5,2.4C241,85.3,240.5,86,239.8,86.6z      M232.2,84c-0.4,0.3-0.8,0.6-1.1,1c-0.3,0.4-0.5,0.9-0.5,1.3c0,0.5,0.1,0.9,0.3,1.3c0.3,0.5,0.8,0.9,1.5,1c0.7,0.1,1.4,0,2.1-0.4     c0.7-0.4,1.2-0.9,1.4-1.6s0.1-1.2-0.2-1.8c-0.3-0.6-0.8-1-1.5-1.1C233.5,83.4,232.8,83.6,232.2,84z"
           id="path487" /></g><g
         id="g489"><rect
           x="185.4"
           y="38.2"
           transform="matrix(0.866 0.5 -0.5 0.866 48.8831 -91.0379)"
           class="st14"
           width="17.8"
           height="15"
           id="rect491" /><path
           class="st16"
           d="M190.2,45l1.4,0.6c-0.3,0.8-0.3,1.5-0.2,2c0.2,0.5,0.5,0.9,1,1.2c0.6,0.4,1.2,0.4,1.9,0.3     c0.7-0.2,1.2-0.6,1.5-1.2c0.3-0.6,0.4-1.2,0.3-1.8c-0.2-0.6-0.5-1.1-1.1-1.4c-0.2-0.1-0.6-0.3-1-0.4l0.8-1.1     c0.1,0.1,0.1,0.1,0.2,0.1c0.6,0.3,1.1,0.5,1.7,0.4c0.6,0,1.1-0.3,1.4-0.9c0.3-0.5,0.3-1,0.2-1.5c-0.1-0.5-0.5-0.9-1-1.2     c-0.5-0.3-1-0.4-1.5-0.3c-0.5,0.1-1,0.5-1.5,1l-1.2-1c0.7-0.8,1.4-1.2,2.2-1.4s1.7,0,2.5,0.5c0.6,0.3,1,0.8,1.4,1.3     c0.3,0.5,0.5,1.1,0.5,1.7c0,0.6-0.1,1.1-0.4,1.6c-0.3,0.5-0.6,0.8-1.1,1c-0.5,0.2-1,0.3-1.6,0.3c0.5,0.5,0.9,1.1,0.9,1.7     s-0.1,1.3-0.5,2c-0.5,0.9-1.3,1.5-2.4,1.8c-1,0.3-2.1,0.1-3.1-0.5c-0.9-0.5-1.5-1.3-1.8-2.2C189.7,46.8,189.7,45.9,190.2,45z"
           id="path493" /></g></g></g></svg>