<?xml version="1.0" encoding="UTF-8" standalone="no"?>
<svg
   xmlns:dc="http://purl.org/dc/elements/1.1/"
   xmlns:cc="http://creativecommons.org/ns#"
   xmlns:rdf="http://www.w3.org/1999/02/22-rdf-syntax-ns#"
   xmlns:svg="http://www.w3.org/2000/svg"
   xmlns="http://www.w3.org/2000/svg"
   id="svg2"
   xml:space="preserve"
   style="enable-background:new 0 0 279.4 279.4;"
   viewBox="0 0 279.4 279.4"
   y="0px"
   x="0px"
   version="1.1"><metadata
     id="metadata499"><rdf:RDF><cc:Work
         rdf:about=""><dc:format>image/svg+xml</dc:format><dc:type
           rdf:resource="http://purl.org/dc/dcmitype/StillImage" /><dc:title></dc:title></cc:Work></rdf:RDF></metadata><defs
     id="defs497" /><style
     id="style4"
     type="text/css">
	.st0{fill:#212121;}
	.st1{fill:url(#path7250_2_);stroke:#010101;}
	.st2{fill:#010101;}
	.st3{fill:url(#path7183_2_);}
	.st4{fill:none;stroke:#010101;stroke-width:0.6;}
	.st5{fill:none;stroke:#010101;stroke-width:0.3;}
	.st6{fill:none;stroke:url(#path7220_2_);stroke-width:0.8342;}
	.st7{fill:#1A1A1A;stroke:url(#circle7224_2_);}
	.st8{fill:url(#circle7226_2_);stroke:#010101;stroke-width:0.8594;}
	.st9{fill:none;stroke:#FFFFFF;}
	.st10{fill:url(#circle7254_2_);stroke:#010101;stroke-width:0.5;}
	.st11{fill:url(#circle7261_2_);stroke:#010101;stroke-width:0.5;}
	.st12{fill:url(#circle7268_2_);stroke:#010101;stroke-width:0.5;}
	.st13{fill:none;stroke:#FFFFFF;stroke-width:4;}
	.st14{fill:none;}
	.st15{fill:#B46027;}
	.st16{fill:#FFFFFF;}
	.st17{display:none;}
	.st18{display:inline;}
	.st19{fill:#F15A29;}
	.st20{fill:#58595B;}
	.st21{display:inline;fill:#202020;}
	.st22{fill:none;stroke:#FFFFFF;stroke-width:3;}
	.st23{fill:none;stroke:#000000;stroke-width:3;}
	.st24{fill:#D7DF23;stroke:#D7DF23;stroke-miterlimit:10;}
	.st25{fill:#D7DF23;stroke:#D7DF23;}
	.st26{display:inline;fill:none;stroke:#FFFFFF;}
	.st27{fill:none;stroke:#FFFFFF;stroke-width:1.5;}
</style><g
     style="display:none"
     id="layer2"><g
       id="Base"><g
         id="Background"><path
           style="fill:#212121"
           d="M 140.7,8.5 C 68.1,8.5 9.2,67.4 9.2,140 c 0,72.6 58.9,131.5 131.5,131.5 72.6,0 131.5,-58.9 131.5,-131.5 C 272.1,67.4 213.3,8.5 140.7,8.5 Z"
           class="st0"
           id="circle8194_1_" /><radialGradient
           gradientUnits="userSpaceOnUse"
           gradientTransform="matrix(-0.8277,0,0,0.8277,778.2643,-229.6243)"
           r="279.72119"
           cy="446.2323"
           cx="771.46802"
           id="path7250_2_"><stop
             id="stop10"
             style="stop-color:#969696"
             offset="0" /><stop
             id="stop12"
             style="stop-color:#010101"
             offset="1" /></radialGradient><path
           style="fill:url(#path7250_2_);stroke:#010101"
           d="m 139.8,0.5 0,0 C 62.9,0.5 0.5,62.9 0.5,139.7 0.5,216.6 62.9,279 139.8,279 216.6,279 279,216.6 279,139.7 278.9,62.9 216.7,0.5 139.8,0.5 l 0,0 z m 124.1,139.3 c 0,68.5 -55.6,124.1 -124.1,124.1 C 71.3,263.9 15.7,208.3 15.7,139.8 15.7,71.3 71.3,15.7 139.8,15.7 208.3,15.6 263.9,71.1 263.9,139.8 Z"
           class="st1"
           id="path7250_1_" /></g><g
         id="Knob"><g
           id="airspeedIndicatorFg_1_"><g
             transform="matrix(0.5000001,0,0,0.5000001,-134.70902,185.34998)"
             id="g7150_1_"><g
               id="g7160_1_"><polygon
                 style="fill:#010101"
                 points="389.9,101.6 362.5,74.2 300.9,135.8 328.3,163.2 "
                 class="st2"
                 id="rect7162_1_" /><radialGradient
                 gradientUnits="userSpaceOnUse"
                 gradientTransform="matrix(-0.3579,-0.2721,-0.2611,0.3434,1331.3179,31.3)"
                 r="37.470798"
                 cy="1555.5449"
                 cx="1677.3711"
                 id="path7183_2_"><stop
                   id="stop21"
                   style="stop-color:#5E5F5F"
                   offset="0" /><stop
                   id="stop23"
                   style="stop-color:#272727"
                   offset="1" /></radialGradient><path
                 style="fill:url(#path7183_2_)"
                 d="m 287.8,137.6 0,11 75.2,0 0,-11 c 0,-20.8 -16.8,-37.6 -37.6,-37.6 -20.9,0.1 -37.6,17 -37.6,37.6 l 0,0 z"
                 class="st3"
                 id="path7183_1_" /><path
                 style="fill:none;stroke:#010101;stroke-width:0.60000002"
                 d="m 325.9,100.1 0,10.6"
                 class="st4"
                 id="path7185_1_" /><g
                 transform="matrix(1.9999996,0,0,1.9999996,-39.145782,-371.62038)"
                 id="g7187_1_"><path
                   style="fill:none;stroke:#010101;stroke-width:0.30000001"
                   d="m 179.7,235.8 0,5.4"
                   class="st5"
                   id="path7190_1_" /><path
                   style="fill:none;stroke:#010101;stroke-width:0.30000001"
                   d="m 177,236.4 0,5.4"
                   class="st5"
                   id="path7192_1_" /><path
                   style="fill:none;stroke:#010101;stroke-width:0.30000001"
                   d="m 173.7,237.7 0,5.4"
                   class="st5"
                   id="path7194_1_" /><path
                   style="fill:none;stroke:#010101;stroke-width:0.30000001"
                   d="m 170.8,239.5 0,5.4"
                   class="st5"
                   id="path7197_1_" /><path
                   style="fill:none;stroke:#010101;stroke-width:0.30000001"
                   d="m 168.5,241.6 0,5.4"
                   class="st5"
                   id="path7199_1_" /><path
                   style="fill:none;stroke:#010101;stroke-width:0.30000001"
                   d="m 166.2,245.1 0,5.4"
                   class="st5"
                   id="path7201_1_" /></g><g
                 transform="matrix(-1.9999996,0,0,1.9999996,1326.5078,-370.77607)"
                 id="g7203_1_"><path
                   style="fill:none;stroke:#010101;stroke-width:0.30000001"
                   d="m 497.6,235.4 0,6.2"
                   class="st5"
                   id="path7206_1_" /><path
                   style="fill:none;stroke:#010101;stroke-width:0.30000001"
                   d="m 494.7,236.2 0,5.8"
                   class="st5"
                   id="path7208_1_" /><path
                   style="fill:none;stroke:#010101;stroke-width:0.30000001"
                   d="m 491.6,237.6 0,5.8"
                   class="st5"
                   id="path7211_1_" /><path
                   style="fill:none;stroke:#010101;stroke-width:0.30000001"
                   d="m 488.7,239.9 0,5.4"
                   class="st5"
                   id="path7213_1_" /><path
                   style="fill:none;stroke:#010101;stroke-width:0.30000001"
                   d="m 486.2,242 0,5.4"
                   class="st5"
                   id="path7215_1_" /><path
                   style="fill:none;stroke:#010101;stroke-width:0.30000001"
                   d="m 484.1,245.5 0,5.4"
                   class="st5"
                   id="path7218_1_" /></g><radialGradient
                 gradientUnits="userSpaceOnUse"
                 gradientTransform="matrix(-0.4878,0,0,0.3149,1605.3535,-542.8633)"
                 r="36.327599"
                 cy="2115.2502"
                 cx="2624.0608"
                 id="path7220_2_"><stop
                   id="stop42"
                   style="stop-color:#5E5F5F"
                   offset="0" /><stop
                   id="stop44"
                   style="stop-color:#272727"
                   offset="1" /></radialGradient><path
                 style="fill:none;stroke:url(#path7220_2_);stroke-width:0.83420002"
                 d="m 288.7,136.1 0,10.6 73.1,0 0,-10.6 c 0,-20.2 -16.4,-36.6 -36.6,-36.6 -20.3,0 -36.5,16.6 -36.5,36.6 z"
                 class="st6"
                 id="path7220_1_" /><g
                 transform="matrix(1.9999996,0,0,1.9999996,-35.222901,-365.00075)"
                 id="g7222_1_"><linearGradient
                   gradientTransform="matrix(-1.0024,0,0,1.0024,888.3252,-189.7278)"
                   y2="444.7088"
                   x2="758.50452"
                   y1="444.7088"
                   x1="689.00677"
                   gradientUnits="userSpaceOnUse"
                   id="circle7224_2_"><stop
                     id="stop49"
                     style="stop-color:#202020"
                     offset="0" /><stop
                     id="stop51"
                     style="stop-color:#5E5E5E"
                     offset="1" /></linearGradient><path
                   style="fill:#1a1a1a;stroke:url(#circle7224_2_)"
                   d="m 180.3,238.3 c -9.8,0 -17.7,7.9 -17.7,17.7 0,9.8 7.9,17.7 17.7,17.7 9.8,0 17.7,-7.9 17.7,-17.7 0,-9.7 -7.9,-17.7 -17.7,-17.7 z"
                   class="st7"
                   id="circle7224_1_" /><radialGradient
                   gradientUnits="userSpaceOnUse"
                   gradientTransform="matrix(-1.0024,0,0,1.0024,860.5088,-186.9709)"
                   r="32.1978"
                   cy="441.9566"
                   cx="678.63708"
                   id="circle7226_2_"><stop
                     id="stop55"
                     style="stop-color:#191919"
                     offset="0" /><stop
                     id="stop57"
                     style="stop-color:#010101;stop-opacity:0"
                     offset="1" /></radialGradient><circle
                   style="fill:url(#circle7226_2_);stroke:#010101;stroke-width:0.85939997"
                   r="15.2"
                   cy="256"
                   cx="180.3"
                   class="st8"
                   id="circle7226_1_" /></g><circle
                 style="fill:none;stroke:#ffffff"
                 id="circle60"
                 r="15.3"
                 cy="148.60001"
                 cx="325.39999"
                 class="st9" /></g></g></g></g><g
         id="Screws"><g
           transform="matrix(1.9999996,0,0,1.9999996,269.41922,-370.73392)"
           id="g7252_1_"><radialGradient
             gradientUnits="userSpaceOnUse"
             gradientTransform="matrix(-1.0024,0,0,1.0024,-115.7326,-94.0876)"
             r="25.0266"
             cy="291.9502"
             cx="-108.2473"
             id="circle7254_2_"><stop
               id="stop65"
               style="stop-color:#BCB8AE"
               offset="0" /><stop
               id="stop67"
               style="stop-color:#605B50"
               offset="1" /></radialGradient><path
             style="fill:url(#circle7254_2_);stroke:#010101;stroke-width:0.5"
             d="m -7.2,192.4 c -3.4,0 -6.1,2.7 -6.1,6.1 0,3.4 2.7,6.1 6.1,6.1 3.4,0 6.1,-2.7 6.1,-6.1 0,-3.3 -2.7,-6.1 -6.1,-6.1 z"
             class="st10"
             id="circle7254_1_" /><path
             style="fill:#010101"
             d="m -8.9,194.9 2.1,2.4 2.7,-1.2 0.5,0.9 -2.2,2 1.1,2.9 -0.9,0.5 -2,-2.3 -2.8,1.1 -0.5,-0.9 2.2,-1.9 -1.2,-3 1,-0.5 z"
             class="st2"
             id="path7257_1_" /></g><g
           transform="matrix(1.9999996,0,0,-1.9999996,269.4192,-0.63523096)"
           id="g7259_1_"><radialGradient
             gradientUnits="userSpaceOnUse"
             gradientTransform="matrix(-1.0024,0,0,1.0024,-115.7325,306.7443)"
             r="25.0303"
             cy="-433.0105"
             cx="-108.2473"
             id="circle7261_2_"><stop
               id="stop73"
               style="stop-color:#BCB8AE"
               offset="0" /><stop
               id="stop75"
               style="stop-color:#605B50"
               offset="1" /></radialGradient><path
             style="fill:url(#circle7261_2_);stroke:#010101;stroke-width:0.5"
             d="m -7.2,-133.4 c -3.4,0 -6.1,2.7 -6.1,6.1 0,3.4 2.7,6.1 6.1,6.1 3.4,0 6.1,-2.7 6.1,-6.1 0,-3.4 -2.7,-6.1 -6.1,-6.1 z"
             class="st11"
             id="circle7261_1_" /><path
             style="fill:#010101"
             d="m -8.9,-131 2.1,2.4 2.7,-1.2 0.5,0.9 -2.2,2 1.1,2.9 -0.9,0.5 -2,-2.3 -2.8,1.1 -0.5,-0.9 2.2,-1.9 -1.2,-3 1,-0.5 z"
             class="st2"
             id="path7264_1_" /></g><g
           transform="matrix(-1.9999996,0,0,1.9999996,786.56235,-370.7339)"
           id="g7266_1_"><radialGradient
             gradientUnits="userSpaceOnUse"
             gradientTransform="matrix(-1.0024,0,0,1.0024,740.0603,-94.0876)"
             r="25.0462"
             cy="291.9502"
             cx="358.1868"
             id="circle7268_2_"><stop
               id="stop81"
               style="stop-color:#BCB8AE"
               offset="0" /><stop
               id="stop83"
               style="stop-color:#605B50"
               offset="1" /></radialGradient><path
             style="fill:url(#circle7268_2_);stroke:#010101;stroke-width:0.5"
             d="m 381,192.4 c -3.4,0 -6.1,2.7 -6.1,6.1 0,3.4 2.7,6.1 6.1,6.1 3.4,0 6.1,-2.7 6.1,-6.1 0,-3.3 -2.7,-6.1 -6.1,-6.1 z"
             class="st12"
             id="circle7268_1_" /><path
             style="fill:#010101"
             d="m 379.3,194.9 2.1,2.4 2.7,-1.2 0.5,0.9 -2.2,2 1.1,2.9 -0.9,0.5 -2,-2.3 -2.8,1.1 -0.5,-0.9 2.2,-1.9 -1.2,-3 1,-0.5 z"
             class="st2"
             id="path7271_1_" /></g></g><circle
         style="fill:none;stroke:#ffffff;stroke-width:4"
         id="circle87"
         r="124.2"
         cy="139.7"
         cx="139.7"
         class="st13" /><g
         id="g89"><rect
           style="fill:none"
           id="rect91"
           height="13.2"
           width="27.6"
           class="st14"
           y="255.10001"
           x="14.1" /><path
           style="fill:#b46027"
           id="path93"
           d="m 17.5,258.7 c 0,-0.7 0.1,-1.3 0.3,-1.8 0.2,-0.4 0.4,-0.7 0.7,-1 0.3,-0.3 0.6,-0.5 0.9,-0.6 0.4,-0.2 1,-0.3 1.5,-0.3 1.1,0 1.9,0.3 2.5,1 0.6,0.7 0.9,1.6 0.9,2.7 0,1.2 -0.3,2.1 -0.9,2.7 -0.6,0.7 -1.5,1 -2.5,1 -1.1,0 -1.9,-0.3 -2.5,-1 -0.6,-0.6 -0.9,-1.5 -0.9,-2.7 z m 1.5,0 c 0,0.8 0.2,1.4 0.6,1.8 0.4,0.4 0.8,0.6 1.4,0.6 0.6,0 1,-0.2 1.4,-0.6 0.4,-0.4 0.6,-1 0.6,-1.9 0,-0.8 -0.2,-1.4 -0.5,-1.8 -0.3,-0.4 -0.8,-0.6 -1.4,-0.6 -0.6,0 -1.1,0.2 -1.4,0.6 -0.5,0.4 -0.7,1.1 -0.7,1.9 z"
           class="st15" /><path
           style="fill:#b46027"
           id="path95"
           d="m 25.6,255.1 2.9,0 c 0.6,0 1,0 1.3,0.1 0.3,0 0.5,0.1 0.7,0.3 0.2,0.2 0.4,0.3 0.5,0.6 0.1,0.2 0.2,0.5 0.2,0.8 0,0.3 -0.1,0.6 -0.3,0.9 -0.2,0.3 -0.4,0.5 -0.7,0.6 0.4,0.1 0.8,0.3 1,0.6 0.2,0.3 0.4,0.7 0.4,1.1 0,0.3 -0.1,0.6 -0.2,1 -0.2,0.3 -0.4,0.6 -0.6,0.7 -0.3,0.2 -0.6,0.3 -1,0.3 -0.2,0 -0.8,0 -1.7,0 l -2.4,0 0,-7 z m 1.4,1.2 0,1.7 1,0 c 0.6,0 0.9,0 1,0 0.2,0 0.4,-0.1 0.6,-0.3 0.1,-0.1 0.2,-0.3 0.2,-0.6 0,-0.2 -0.1,-0.4 -0.2,-0.5 -0.1,-0.1 -0.3,-0.2 -0.5,-0.3 -0.1,0 -0.6,0 -1.2,0 l -0.9,0 z m 0,2.9 0,1.9 1.3,0 c 0.5,0 0.9,0 1,0 0.2,0 0.4,-0.1 0.5,-0.3 0.1,-0.2 0.2,-0.4 0.2,-0.6 0,-0.2 -0.1,-0.4 -0.2,-0.5 -0.1,-0.1 -0.3,-0.3 -0.5,-0.3 -0.2,0 -0.6,-0.1 -1.3,-0.1 l -1,0 z"
           class="st15" /><path
           style="fill:#b46027"
           id="path97"
           d="m 32.4,259.9 1.4,-0.1 c 0.1,0.5 0.3,0.8 0.5,1 0.2,0.2 0.6,0.3 1,0.3 0.5,0 0.8,-0.1 1.1,-0.3 0.2,-0.2 0.4,-0.4 0.4,-0.7 0,-0.2 0,-0.3 -0.1,-0.4 -0.1,-0.1 -0.3,-0.2 -0.5,-0.3 -0.2,-0.1 -0.6,-0.2 -1.2,-0.3 -0.8,-0.2 -1.3,-0.4 -1.6,-0.7 -0.4,-0.4 -0.7,-0.9 -0.7,-1.4 0,-0.4 0.1,-0.7 0.3,-1 0.2,-0.3 0.5,-0.6 0.9,-0.7 0.4,-0.1 0.9,-0.2 1.4,-0.2 0.9,0 1.6,0.2 2,0.6 0.4,0.4 0.7,0.9 0.7,1.6 l -1.4,0.1 c -0.1,-0.4 -0.2,-0.6 -0.4,-0.8 -0.2,-0.2 -0.5,-0.2 -0.9,-0.2 -0.4,0 -0.7,0.1 -1,0.3 -0.2,0.1 -0.2,0.3 -0.2,0.4 0,0.2 0.1,0.3 0.2,0.4 0.2,0.2 0.6,0.3 1.3,0.5 0.7,0.2 1.2,0.3 1.6,0.5 0.3,0.2 0.6,0.4 0.8,0.7 0.2,0.3 0.3,0.7 0.3,1.1 0,0.4 -0.1,0.8 -0.3,1.2 -0.2,0.4 -0.6,0.6 -1,0.8 -0.4,0.2 -0.9,0.3 -1.6,0.3 -0.9,0 -1.6,-0.2 -2.1,-0.6 -0.5,-0.6 -0.8,-1.3 -0.9,-2.1 z"
           class="st15" /></g></g><g
       id="Arrow" /><g
       id="Center"><path
         id="path101"
         d="m 151.1,47.1 c 0,0 -1,9.4 -11.1,9.4 -9.3,0 -11.1,-9.4 -11.1,-9.4 l 11.1,-1.5 11.1,1.5 z" /><circle
         style="fill:none;stroke:#ffffff"
         id="circle103"
         r="5.3000002"
         cy="194.7"
         cx="139.7"
         class="st9" /><circle
         style="fill:#ffffff"
         id="circle105"
         r="2.5"
         cy="194.5"
         cx="126.9"
         class="st16" /><circle
         style="fill:#ffffff"
         id="circle107"
         r="2.5"
         cy="192.89999"
         cx="114.3"
         class="st16" /><path
         style="fill:#ffffff"
         id="path109"
         d="m 104.2,190.8 c -0.4,1.3 -1.7,2.1 -3.1,1.8 -1.3,-0.4 -2.2,-1.7 -1.8,-3.1 0.4,-1.3 1.7,-2.1 3.1,-1.8 1.4,0.3 2.2,1.7 1.8,3.1 z"
         class="st16" /><path
         style="fill:#ffffff"
         id="path111"
         d="m 92,187.1 c -0.5,1.3 -1.9,2 -3.2,1.5 -1.3,-0.5 -2,-1.9 -1.5,-3.2 0.5,-1.3 1.9,-2 3.2,-1.5 1.3,0.4 1.9,1.9 1.5,3.2 z"
         class="st16" /><path
         style="fill:#ffffff"
         id="path113"
         d="m 80.1,182.4 c -0.6,1.3 -2.1,1.8 -3.4,1.2 -1.3,-0.6 -1.8,-2.1 -1.2,-3.4 0.6,-1.3 2.1,-1.8 3.4,-1.2 1.2,0.6 1.8,2.2 1.2,3.4 z"
         class="st16" /><circle
         style="fill:#ffffff"
         id="circle115"
         r="2.5"
         cy="194.60001"
         cx="152.5"
         class="st16" /><circle
         style="fill:#ffffff"
         id="circle117"
         r="2.5"
         cy="192.89999"
         cx="165.2"
         class="st16" /><circle
         style="fill:#ffffff"
         id="circle119"
         r="2.5"
         cy="190.10001"
         cx="177.60001"
         class="st16" /><circle
         style="fill:#ffffff"
         id="circle121"
         r="2.5"
         cy="186.3"
         cx="189.8"
         class="st16" /><circle
         style="fill:#ffffff"
         id="circle123"
         r="2.5"
         cy="181.39999"
         cx="201.60001"
         class="st16" /></g></g><g
     class="st17"
     id="Nav_Flag"><g
       id="g126"
       class="st18"><rect
         id="rect128"
         height="4.3"
         width="21.3"
         class="st16"
         y="135.3"
         x="177.2" /><polygon
         id="polygon130"
         points="177.2,139.6 180,139.6 182.6,135.3 179.8,135.3   "
         class="st19" /><polygon
         id="polygon132"
         points="182.6,139.6 185.3,139.6 187.9,135.3 185.1,135.3   "
         class="st19" /><polygon
         id="polygon134"
         points="187.9,139.6 190.6,139.6 193.2,135.3 190.5,135.3   "
         class="st19" /><polygon
         id="polygon136"
         points="193.2,139.6 195.9,139.6 198.5,135.3 195.8,135.3   "
         class="st19" /></g><g
       id="g138"
       class="st18"><rect
         id="rect140"
         height="4.3"
         width="21.3"
         class="st20"
         y="131"
         x="177.3" /><g
         id="g142"><path
           id="path144"
           d="M186.4,134.7v-2.4h-0.8v-0.5h2.3v0.5H187v2.4H186.4z"
           class="st16" /><path
           id="path146"
           d="M188,133.3c0-0.3,0-0.5,0.1-0.7c0.1-0.1,0.2-0.3,0.3-0.4c0.1-0.1,0.2-0.2,0.4-0.3c0.2-0.1,0.4-0.1,0.6-0.1     c0.4,0,0.8,0.1,1,0.4c0.3,0.3,0.4,0.6,0.4,1.1c0,0.5-0.1,0.8-0.4,1.1c-0.3,0.3-0.6,0.4-1,0.4c-0.4,0-0.8-0.1-1-0.4     C188.2,134.1,188,133.7,188,133.3z M188.6,133.3c0,0.3,0.1,0.6,0.2,0.7c0.1,0.2,0.3,0.3,0.6,0.3s0.4-0.1,0.6-0.2     c0.1-0.2,0.2-0.4,0.2-0.7c0-0.3-0.1-0.6-0.2-0.7c-0.1-0.2-0.3-0.2-0.6-0.2s-0.4,0.1-0.6,0.2C188.7,132.7,188.6,132.9,188.6,133.3     z"
           class="st16" /></g></g><g
       id="g148"
       class="st18"><rect
         id="rect150"
         height="4.3"
         width="21.3"
         class="st20"
         y="139.6"
         x="177.3" /><g
         id="g152"><path
           id="path154"
           d="M182.6,143.3v-2.9h2v0.5h-1.4v0.7h1.2v0.5h-1.2v1.2H182.6z"
           class="st16" /><path
           id="path156"
           d="M185.1,143.3v-2.9h1.2c0.3,0,0.5,0,0.7,0.1c0.1,0.1,0.2,0.1,0.3,0.3c0.1,0.1,0.1,0.3,0.1,0.5     c0,0.2-0.1,0.4-0.2,0.5c-0.1,0.1-0.3,0.2-0.6,0.3c0.1,0.1,0.2,0.2,0.3,0.2c0.1,0.1,0.2,0.2,0.3,0.5l0.3,0.6H187l-0.4-0.6     c-0.1-0.2-0.3-0.4-0.3-0.4c-0.1-0.1-0.1-0.1-0.2-0.1c-0.1,0-0.2,0-0.3,0h-0.1v1.2H185.1z M185.7,141.6h0.4c0.3,0,0.5,0,0.5,0     c0.1,0,0.1-0.1,0.2-0.1c0-0.1,0.1-0.1,0.1-0.2c0-0.1,0-0.2-0.1-0.2c-0.1-0.1-0.1-0.1-0.2-0.1c0,0-0.2,0-0.4,0h-0.5V141.6z"
           class="st16" /><path
           id="path158"
           d="M187.9,141.9c0-0.3,0-0.5,0.1-0.7c0.1-0.1,0.2-0.3,0.3-0.4c0.1-0.1,0.2-0.2,0.4-0.3     c0.2-0.1,0.4-0.1,0.6-0.1c0.4,0,0.8,0.1,1,0.4c0.3,0.3,0.4,0.6,0.4,1.1c0,0.5-0.1,0.8-0.4,1.1c-0.3,0.3-0.6,0.4-1,0.4     c-0.4,0-0.8-0.1-1-0.4C188,142.7,187.9,142.3,187.9,141.9z M188.4,141.8c0,0.3,0.1,0.6,0.2,0.7c0.1,0.2,0.3,0.3,0.6,0.3     s0.4-0.1,0.6-0.3c0.1-0.2,0.2-0.4,0.2-0.7c0-0.3-0.1-0.6-0.2-0.7c-0.1-0.2-0.3-0.2-0.6-0.2s-0.4,0.1-0.6,0.2     C188.5,141.3,188.4,141.5,188.4,141.8z"
           class="st16" /><path
           id="path160"
           d="M191.1,143.3v-2.9h0.9l0.5,2l0.5-2h0.9v2.9h-0.5V141l-0.6,2.3h-0.6l-0.6-2.3v2.3H191.1z"
           class="st16" /></g></g></g><g
     class="st17"
     id="Nav_Mask"><rect
       id="rect163"
       height="4.3"
       width="21.4"
       class="st18"
       y="131"
       x="177.3" /><rect
       id="rect165"
       height="4.3"
       width="21.4"
       class="st18"
       y="139.6"
       x="177.2" /><rect
       id="rect167"
       height="4.3"
       width="21.4"
       class="st21"
       y="126.6"
       x="177.3" /><rect
       id="rect169"
       height="4.3"
       width="21.4"
       class="st21"
       y="143.9"
       x="177.3" /></g><g
     class="st17"
     id="Vert_Needle"><g
       id="g172"
       class="st18"><line
         id="line174"
         y2="199.7"
         x2="139.7"
         y1="50.9"
         x1="139.7"
         class="st22" /><line
         id="line176"
         y2="66.7"
         x2="139.7"
         y1="50.9"
         x1="139.7"
         class="st23" /></g></g><g
     class="st17"
     id="Ring"><circle
       id="circle186"
       r="93.8"
       cy="139.7"
       cx="139.7"
       class="st26" /><g
       class="st18"
       id="_x39_0_deg"><line
         id="line189"
         y2="45.9"
         x2="139.7"
         y1="39.3"
         x1="139.7"
         class="st22" /><line
         id="line191"
         y2="139.7"
         x2="45.9"
         y1="139.7"
         x1="39.3"
         class="st22" /><line
         id="line193"
         y2="233.5"
         x2="139.7"
         y1="240.1"
         x1="139.7"
         class="st22" /><line
         id="line195"
         y2="139.7"
         x2="233.5"
         y1="139.7"
         x1="240.1"
         class="st22" /></g><g
       class="st18"
       id="_x33_0_deg"><line
         id="line198"
         y2="58.5"
         x2="92.8"
         y1="50.5"
         x1="88.2"
         class="st27" /><line
         id="line200"
         y2="92.8"
         x2="58.5"
         y1="88.2"
         x1="50.5"
         class="st27" /><path
         id="path202"
         d="M45.9,139.7"
         class="st27" /><line
         id="line204"
         y2="186.6"
         x2="58.5"
         y1="191.2"
         x1="50.5"
         class="st27" /><line
         id="line206"
         y2="220.9"
         x2="92.8"
         y1="228.9"
         x1="88.2"
         class="st27" /><line
         id="line208"
         y2="220.9"
         x2="186.6"
         y1="228.9"
         x1="191.2"
         class="st27" /><line
         id="line210"
         y2="186.6"
         x2="220.9"
         y1="191.2"
         x1="228.9"
         class="st27" /><line
         id="line212"
         y2="92.8"
         x2="220.9"
         y1="88.2"
         x1="228.9"
         class="st27" /><line
         id="line214"
         y2="58.5"
         x2="186.6"
         y1="50.5"
         x1="191.2"
         class="st27" /></g><g
       class="st18"
       id="_x31_0_deg"><line
         id="line217"
         y2="47.4"
         x2="123.4"
         y1="33.6"
         x1="121"
         class="st27" /><line
         id="line219"
         y2="51.6"
         x2="107.6"
         y1="38.5"
         x1="102.9"
         class="st27" /><line
         id="line221"
         y2="67.9"
         x2="79.4"
         y1="57.2"
         x1="70.5"
         class="st27" /><line
         id="line223"
         y2="79.5"
         x2="67.9"
         y1="70.5"
         x1="57.2"
         class="st27" /><line
         id="line225"
         y2="107.7"
         x2="51.6"
         y1="102.9"
         x1="38.5"
         class="st27" /><line
         id="line227"
         y2="123.5"
         x2="47.4"
         y1="121"
         x1="33.6"
         class="st27" /><line
         id="line229"
         y2="156"
         x2="47.4"
         y1="158.4"
         x1="33.6"
         class="st27" /><line
         id="line231"
         y2="171.8"
         x2="51.6"
         y1="176.6"
         x1="38.5"
         class="st27" /><line
         id="line233"
         y2="200"
         x2="67.9"
         y1="209"
         x1="57.2"
         class="st27" /><line
         id="line235"
         y2="211.6"
         x2="79.5"
         y1="222.2"
         x1="70.5"
         class="st27" /><line
         id="line237"
         y2="227.8"
         x2="107.7"
         y1="240.9"
         x1="102.9"
         class="st27" /><line
         id="line239"
         y2="232.1"
         x2="123.5"
         y1="245.8"
         x1="121"
         class="st27" /><line
         id="line241"
         y2="232.1"
         x2="156"
         y1="245.8"
         x1="158.4"
         class="st27" /><line
         id="line243"
         y2="227.8"
         x2="171.8"
         y1="240.9"
         x1="176.6"
         class="st27" /><line
         id="line245"
         y2="211.5"
         x2="200"
         y1="222.2"
         x1="209"
         class="st27" /><line
         id="line247"
         y2="200"
         x2="211.6"
         y1="209"
         x1="222.2"
         class="st27" /><line
         id="line249"
         y2="171.8"
         x2="227.8"
         y1="176.6"
         x1="240.9"
         class="st27" /><line
         id="line251"
         y2="156"
         x2="232.1"
         y1="158.4"
         x1="245.8"
         class="st27" /><line
         id="line253"
         y2="123.4"
         x2="232.1"
         y1="121"
         x1="245.8"
         class="st27" /><line
         id="line255"
         y2="107.6"
         x2="227.8"
         y1="102.9"
         x1="240.9"
         class="st27" /><line
         id="line257"
         y2="79.4"
         x2="211.5"
         y1="70.5"
         x1="222.2"
         class="st27" /><line
         id="line259"
         y2="67.9"
         x2="200"
         y1="57.2"
         x1="209"
         class="st27" /><line
         id="line261"
         y2="51.6"
         x2="171.8"
         y1="38.5"
         x1="176.6"
         class="st27" /><line
         id="line263"
         y2="47.4"
         x2="156"
         y1="33.6"
         x1="158.4"
         class="st27" /></g><g
       class="st18"
       id="_x35__deg"><line
         id="line266"
         y2="45.9"
         x2="139.7"
         y1="40.5"
         x1="139.8"
         class="st27" /><line
         id="line268"
         y2="46.3"
         x2="131.6"
         y1="40.9"
         x1="131.1"
         class="st27" /><line
         id="line270"
         y2="47.4"
         x2="123.5"
         y1="42"
         x1="122.5"
         class="st27" /><line
         id="line272"
         y2="49.1"
         x2="115.5"
         y1="43.9"
         x1="114.1"
         class="st27" /><line
         id="line274"
         y2="51.6"
         x2="107.7"
         y1="46.5"
         x1="105.8"
         class="st27" /><line
         id="line276"
         y2="54.7"
         x2="100.1"
         y1="49.8"
         x1="97.8"
         class="st27" /><line
         id="line278"
         y2="58.5"
         x2="92.8"
         y1="53.8"
         x1="90.1"
         class="st27" /><line
         id="line280"
         y2="62.9"
         x2="85.9"
         y1="58.4"
         x1="82.8"
         class="st27" /><line
         id="line282"
         y2="67.9"
         x2="79.5"
         y1="63.7"
         x1="76"
         class="st27" /><line
         id="line284"
         y2="73.4"
         x2="73.4"
         y1="69.5"
         x1="69.6"
         class="st27" /><line
         id="line286"
         y2="79.4"
         x2="67.9"
         y1="75.9"
         x1="63.7"
         class="st27" /><line
         id="line288"
         y2="85.9"
         x2="62.9"
         y1="82.8"
         x1="58.5"
         class="st27" /><line
         id="line290"
         y2="92.8"
         x2="58.5"
         y1="90.1"
         x1="53.8"
         class="st27" /><line
         id="line292"
         y2="100.1"
         x2="54.7"
         y1="97.7"
         x1="49.8"
         class="st27" /><line
         id="line294"
         y2="107.6"
         x2="51.6"
         y1="105.7"
         x1="46.5"
         class="st27" /><line
         id="line296"
         y2="115.4"
         x2="49.1"
         y1="114"
         x1="43.9"
         class="st27" /><line
         id="line298"
         y2="123.4"
         x2="47.4"
         y1="122.4"
         x1="42"
         class="st27" /><line
         id="line300"
         y2="131.5"
         x2="46.3"
         y1="131"
         x1="40.9"
         class="st27" /><line
         id="line302"
         y2="139.7"
         x2="45.9"
         y1="139.7"
         x1="40.5"
         class="st27" /><line
         id="line304"
         y2="147.9"
         x2="46.3"
         y1="148.3"
         x1="40.9"
         class="st27" /><line
         id="line306"
         y2="156"
         x2="47.4"
         y1="156.9"
         x1="42"
         class="st27" /><line
         id="line308"
         y2="164"
         x2="49.1"
         y1="165.4"
         x1="43.9"
         class="st27" /><line
         id="line310"
         y2="171.8"
         x2="51.6"
         y1="173.6"
         x1="46.5"
         class="st27" /><line
         id="line312"
         y2="179.3"
         x2="54.7"
         y1="181.6"
         x1="49.8"
         class="st27" /><line
         id="line314"
         y2="186.6"
         x2="58.5"
         y1="189.3"
         x1="53.8"
         class="st27" /><line
         id="line316"
         y2="193.5"
         x2="62.9"
         y1="196.6"
         x1="58.4"
         class="st27" /><line
         id="line318"
         y2="200"
         x2="67.9"
         y1="203.5"
         x1="63.7"
         class="st27" /><line
         id="line320"
         y2="206"
         x2="73.4"
         y1="209.8"
         x1="69.5"
         class="st27" /><line
         id="line322"
         y2="211.5"
         x2="79.4"
         y1="215.7"
         x1="75.9"
         class="st27" /><line
         id="line324"
         y2="216.5"
         x2="85.9"
         y1="221"
         x1="82.8"
         class="st27" /><line
         id="line326"
         y2="220.9"
         x2="92.8"
         y1="225.6"
         x1="90.1"
         class="st27" /><line
         id="line328"
         y2="224.7"
         x2="100.1"
         y1="229.6"
         x1="97.7"
         class="st27" /><line
         id="line330"
         y2="227.8"
         x2="107.6"
         y1="232.9"
         x1="105.7"
         class="st27" /><line
         id="line332"
         y2="230.3"
         x2="115.4"
         y1="235.6"
         x1="114"
         class="st27" /><line
         id="line334"
         y2="232.1"
         x2="123.4"
         y1="237.4"
         x1="122.4"
         class="st27" /><line
         id="line336"
         y2="233.1"
         x2="131.5"
         y1="238.6"
         x1="131"
         class="st27" /><line
         id="line338"
         y2="233.5"
         x2="139.7"
         y1="238.9"
         x1="139.7"
         class="st27" /><line
         id="line340"
         y2="233.1"
         x2="147.9"
         y1="238.6"
         x1="148.3"
         class="st27" /><line
         id="line342"
         y2="232.1"
         x2="156"
         y1="237.4"
         x1="156.9"
         class="st27" /><line
         id="line344"
         y2="230.3"
         x2="164"
         y1="235.6"
         x1="165.4"
         class="st27" /><line
         id="line346"
         y2="227.9"
         x2="171.8"
         y1="233"
         x1="173.6"
         class="st27" /><line
         id="line348"
         y2="224.7"
         x2="179.3"
         y1="229.7"
         x1="181.6"
         class="st27" /><line
         id="line350"
         y2="221"
         x2="186.6"
         y1="225.7"
         x1="189.3"
         class="st27" /><line
         id="line352"
         y2="216.6"
         x2="193.5"
         y1="221"
         x1="196.6"
         class="st27" /><line
         id="line354"
         y2="211.6"
         x2="200"
         y1="215.8"
         x1="203.5"
         class="st27" /><line
         id="line356"
         y2="206.1"
         x2="206"
         y1="209.9"
         x1="209.8"
         class="st27" /><line
         id="line358"
         y2="200"
         x2="211.5"
         y1="203.5"
         x1="215.7"
         class="st27" /><line
         id="line360"
         y2="193.5"
         x2="216.5"
         y1="196.7"
         x1="221"
         class="st27" /><line
         id="line362"
         y2="186.6"
         x2="220.9"
         y1="189.4"
         x1="225.6"
         class="st27" /><line
         id="line364"
         y2="179.4"
         x2="224.7"
         y1="181.7"
         x1="229.6"
         class="st27" /><line
         id="line366"
         y2="171.8"
         x2="227.8"
         y1="173.7"
         x1="232.9"
         class="st27" /><line
         id="line368"
         y2="164"
         x2="230.3"
         y1="165.4"
         x1="235.5"
         class="st27" /><line
         id="line370"
         y2="156"
         x2="232.1"
         y1="157"
         x1="237.4"
         class="st27" /><line
         id="line372"
         y2="147.9"
         x2="233.1"
         y1="148.4"
         x1="238.6"
         class="st27" /><line
         id="line374"
         y2="139.7"
         x2="233.5"
         y1="139.8"
         x1="238.9"
         class="st27" /><line
         id="line376"
         y2="131.6"
         x2="233.1"
         y1="131.1"
         x1="238.6"
         class="st27" /><line
         id="line378"
         y2="123.5"
         x2="232.1"
         y1="122.5"
         x1="237.4"
         class="st27" /><line
         id="line380"
         y2="115.5"
         x2="230.3"
         y1="114.1"
         x1="235.6"
         class="st27" /><line
         id="line382"
         y2="107.7"
         x2="227.8"
         y1="105.8"
         x1="233"
         class="st27" /><line
         id="line384"
         y2="100.1"
         x2="224.7"
         y1="97.8"
         x1="229.7"
         class="st27" /><line
         id="line386"
         y2="92.9"
         x2="220.9"
         y1="90.1"
         x1="225.7"
         class="st27" /><line
         id="line388"
         y2="86"
         x2="216.6"
         y1="82.8"
         x1="221"
         class="st27" /><line
         id="line390"
         y2="79.5"
         x2="211.6"
         y1="76"
         x1="215.8"
         class="st27" /><line
         id="line392"
         y2="73.4"
         x2="206"
         y1="69.6"
         x1="209.9"
         class="st27" /><line
         id="line394"
         y2="67.9"
         x2="200"
         y1="63.7"
         x1="203.5"
         class="st27" /><line
         id="line396"
         y2="62.9"
         x2="193.5"
         y1="58.5"
         x1="196.7"
         class="st27" /><line
         id="line398"
         y2="58.5"
         x2="186.6"
         y1="53.8"
         x1="189.4"
         class="st27" /><line
         id="line400"
         y2="54.7"
         x2="179.4"
         y1="49.8"
         x1="181.7"
         class="st27" /><line
         id="line402"
         y2="51.6"
         x2="171.8"
         y1="46.5"
         x1="173.7"
         class="st27" /><line
         id="line404"
         y2="49.1"
         x2="164"
         y1="43.9"
         x1="165.4"
         class="st27" /><line
         id="line406"
         y2="47.4"
         x2="156"
         y1="42"
         x1="157"
         class="st27" /><line
         id="line408"
         y2="46.3"
         x2="147.9"
         y1="40.9"
         x1="148.4"
         class="st27" /></g><g
       class="st18"
       id="Labels"><g
         id="g411"><rect
           id="rect413"
           height="15"
           width="17.8"
           class="st14"
           y="23.5"
           x="131.1" /><path
           id="path415"
           d="M135.1,35.7V23.5h2.4l5,8.1v-8.1h2.3v12.2h-2.5l-4.9-7.9v7.9H135.1z"
           class="st16" /></g><g
         id="g417"><rect
           id="rect419"
           height="15"
           width="22.2"
           class="st14"
           transform="matrix(0.866 -0.5 0.5 0.866 -11.2421 48.8866)"
           y="37.9"
           x="74.5" /><path
           id="path421"
           d="M78.8,51.1l1.2-0.9c0.6,0.6,1.1,1,1.7,1.1c0.5,0.1,1.1,0,1.6-0.3c0.6-0.4,1-0.9,1.2-1.5     c0.2-0.7,0.1-1.3-0.3-1.9c-0.3-0.6-0.8-1-1.4-1.1c-0.6-0.2-1.2-0.1-1.8,0.3c-0.2,0.1-0.5,0.4-0.8,0.7l-0.5-1.2     c0.1,0,0.2-0.1,0.2-0.1c0.6-0.3,1-0.7,1.2-1.3c0.3-0.5,0.2-1.1-0.1-1.7c-0.3-0.5-0.7-0.8-1.2-0.9s-1,0-1.5,0.3     c-0.5,0.3-0.8,0.7-1,1.2s-0.1,1.1,0.2,1.8L76,45.9c-0.3-1-0.4-1.8-0.1-2.6c0.3-0.8,0.8-1.4,1.7-1.9c0.6-0.3,1.2-0.5,1.8-0.5     s1.2,0.1,1.7,0.4c0.5,0.3,0.9,0.7,1.2,1.1c0.3,0.5,0.4,0.9,0.4,1.5c0,0.5-0.2,1-0.6,1.5c0.7-0.2,1.4-0.2,2,0.1     c0.6,0.3,1.1,0.7,1.5,1.4c0.5,0.9,0.6,1.9,0.3,2.9c-0.3,1-1,1.8-2,2.4c-0.9,0.5-1.9,0.7-2.8,0.5C80.1,52.4,79.4,51.9,78.8,51.1z"
           class="st16" /><path
           id="path423"
           d="M87,46.4l1.2-0.9c0.6,0.6,1.1,1,1.7,1.1c0.5,0.1,1.1,0,1.6-0.3c0.6-0.4,1-0.9,1.2-1.5     c0.2-0.7,0.1-1.3-0.3-1.9c-0.3-0.6-0.8-1-1.4-1.1c-0.6-0.2-1.2-0.1-1.8,0.3c-0.2,0.1-0.5,0.4-0.8,0.7l-0.5-1.2     c0.1,0,0.2-0.1,0.2-0.1c0.6-0.3,1-0.7,1.2-1.3s0.2-1.1-0.1-1.7c-0.3-0.5-0.7-0.8-1.2-0.9c-0.5-0.1-1,0-1.5,0.3     c-0.5,0.3-0.8,0.7-1,1.2c-0.2,0.5-0.1,1.1,0.2,1.8l-1.4,0.5c-0.3-1-0.4-1.8-0.1-2.6s0.8-1.4,1.7-1.9c0.6-0.3,1.2-0.5,1.8-0.5     c0.6,0,1.2,0.1,1.7,0.4c0.5,0.3,0.9,0.7,1.2,1.1c0.3,0.5,0.4,0.9,0.4,1.5c0,0.5-0.2,1-0.6,1.5c0.7-0.2,1.4-0.2,2,0.1     c0.6,0.3,1.1,0.7,1.5,1.4c0.5,0.9,0.6,1.9,0.3,2.9c-0.3,1-1,1.8-2,2.4c-0.9,0.5-1.9,0.7-2.8,0.5C88.3,47.7,87.6,47.2,87,46.4z"
           class="st16" /></g><g
         id="g425"><rect
           id="rect427"
           height="15"
           width="23.5"
           class="st14"
           transform="matrix(0.5 -0.866 0.866 0.5 -50.8617 82.1364)"
           y="77.6"
           x="34" /><path
           id="path429"
           d="M42.6,93.4l0.6-1.4c0.8,0.3,1.5,0.3,2,0.2c0.5-0.2,0.9-0.5,1.2-1c0.4-0.6,0.4-1.2,0.3-1.9     c-0.2-0.7-0.6-1.2-1.2-1.5c-0.6-0.3-1.2-0.4-1.8-0.3c-0.6,0.2-1.1,0.5-1.4,1.1c-0.1,0.2-0.3,0.6-0.4,1l-1.1-0.8     c0.1-0.1,0.1-0.1,0.1-0.2c0.3-0.6,0.5-1.1,0.4-1.7c0-0.6-0.3-1.1-0.9-1.4c-0.5-0.3-1-0.3-1.5-0.2c-0.5,0.1-0.9,0.5-1.2,1     c-0.3,0.5-0.4,1-0.3,1.5c0.1,0.5,0.5,1,1,1.5l-1,1.2c-0.8-0.7-1.2-1.4-1.4-2.2c-0.2-0.8,0-1.7,0.5-2.5c0.3-0.6,0.8-1,1.3-1.4     c0.5-0.3,1.1-0.5,1.7-0.5c0.6,0,1.1,0.1,1.6,0.4c0.5,0.3,0.8,0.6,1,1.1c0.2,0.5,0.3,1,0.3,1.6c0.5-0.5,1.1-0.9,1.7-0.9     c0.7-0.1,1.3,0.1,2,0.5c0.9,0.5,1.5,1.3,1.8,2.4c0.3,1,0.1,2.1-0.5,3.1c-0.5,0.9-1.3,1.5-2.2,1.8C44.5,93.9,43.6,93.8,42.6,93.4z     "
           class="st16" /><path
           id="path431"
           d="M44.9,83.8c-1.2-0.7-2.2-1.4-2.8-2.1c-0.6-0.7-1-1.4-1.1-2.2c-0.1-0.7,0-1.5,0.5-2.3c0.3-0.6,0.7-1,1.2-1.3     c0.5-0.3,1-0.5,1.6-0.5c0.6,0,1.2,0.1,1.9,0.3s1.6,0.6,2.6,1.2c1.2,0.7,2.2,1.4,2.8,2.1c0.6,0.7,1,1.4,1.1,2.2     c0.1,0.7,0,1.5-0.5,2.3c-0.6,1-1.4,1.6-2.5,1.8C48.5,85.4,46.9,84.9,44.9,83.8z M45.7,82.5c1.7,1,3,1.5,3.8,1.4     c0.8-0.1,1.4-0.4,1.7-1c0.3-0.6,0.3-1.3,0-2s-1.4-1.6-3.1-2.6c-1.7-1-3-1.5-3.8-1.4c-0.8,0.1-1.4,0.4-1.7,1     c-0.3,0.6-0.4,1.2-0.1,1.9C42.9,80.6,44,81.5,45.7,82.5z"
           class="st16" /></g><g
         id="g433"><rect
           id="rect435"
           height="17.8"
           width="15"
           class="st14"
           y="130.6"
           x="23.5" /><path
           id="path437"
           d="M35.7,144.5l-12.2,2.9v-2.5l8.4-1.8l-8.4-2.2v-2.9l8.5-2.1l-8.5-1.9v-2.5l12.2,3v2.6l-9.1,2.4l9.1,2.4     V144.5z"
           class="st16" /></g><g
         id="g439"><rect
           id="rect441"
           height="15"
           width="25.4"
           class="st14"
           transform="matrix(-0.5 -0.866 0.866 -0.5 -99.749 330.0908)"
           y="186.3"
           x="32.7" /><path
           id="path443"
           d="M48.7,193l1.2-0.7l4,7c-0.3,0.2-0.6,0.3-1,0.4c-0.6,0.1-1.2,0.1-1.9,0c-0.7-0.1-1.5-0.4-2.6-0.8     c-1.6-0.6-2.8-0.9-3.6-1s-1.4,0-1.9,0.3c-0.5,0.3-0.8,0.7-1,1.3c-0.1,0.6,0,1.2,0.3,1.7c0.4,0.6,0.8,1,1.4,1.2     c0.6,0.2,1.2,0,1.9-0.3l0.6,1.4c-1,0.5-2,0.6-2.9,0.3c-0.9-0.3-1.6-0.9-2.2-1.9c-0.6-1-0.8-2-0.5-2.9c0.2-0.9,0.7-1.6,1.6-2.1     c0.4-0.2,0.9-0.4,1.4-0.5s1.1,0,1.8,0.1c0.7,0.1,1.7,0.4,3,0.9c1.1,0.4,1.8,0.6,2.2,0.7c0.4,0.1,0.7,0.1,1,0.1L48.7,193z"
           class="st16" /><path
           id="path445"
           d="M46.8,186.7l-2.5,1.5l2.6,4.6l-1.2,0.7l-9.6-0.9l-0.6-1.1l6.8-3.9l-0.8-1.4l1.2-0.7l0.8,1.4l2.5-1.5     L46.8,186.7z M43,188.9l-4.8,2.7l6.7,0.6L43,188.9z"
           class="st16" /></g><g
         id="g447"><rect
           id="rect449"
           height="15"
           width="28.7"
           class="st14"
           transform="matrix(-0.866 -0.5 0.5 -0.866 41.9494 478.7241)"
           y="226.2"
           x="70.7" /><path
           id="path451"
           d="M87.5,231.4l0.7-1.2l7,4c-0.2,0.3-0.4,0.6-0.7,0.8c-0.5,0.4-1,0.7-1.7,0.9c-0.7,0.2-1.5,0.4-2.6,0.6     c-1.7,0.3-2.9,0.6-3.6,0.9c-0.7,0.3-1.2,0.7-1.5,1.2c-0.3,0.5-0.4,1.1-0.2,1.6c0.2,0.6,0.5,1,1.1,1.4c0.6,0.4,1.2,0.5,1.8,0.3     c0.6-0.2,1.1-0.6,1.5-1.2l1.3,0.9c-0.7,0.9-1.4,1.5-2.3,1.7c-0.9,0.2-1.8,0-2.8-0.6c-1-0.6-1.6-1.3-1.9-2.2     c-0.3-0.9-0.2-1.8,0.3-2.6c0.2-0.4,0.6-0.8,1-1.1s0.9-0.6,1.6-0.8c0.7-0.2,1.7-0.5,3.1-0.7c1.2-0.2,1.9-0.4,2.3-0.5     s0.7-0.2,1-0.4L87.5,231.4z"
           class="st16" /><path
           id="path453"
           d="M81.9,226.5l1.3,0.7l-4.8,8.2c0.5-0.1,1.1-0.2,1.7-0.2c0.7,0,1.3,0,1.7,0.1l-0.7,1.3     c-0.9-0.1-1.8,0-2.6,0.1c-0.8,0.2-1.5,0.4-2,0.7l-0.8-0.5L81.9,226.5z"
           class="st16" /></g><g
         id="g455"><rect
           id="rect457"
           height="15"
           width="17.8"
           class="st14"
           y="240.9"
           x="130.6" /><path
           id="path459"
           d="M144.5,247.7l-2.4,0.2c-0.1-0.8-0.4-1.4-0.9-1.8c-0.4-0.4-1-0.6-1.8-0.6c-0.8,0-1.4,0.2-1.8,0.5     c-0.4,0.3-0.6,0.7-0.6,1.2c0,0.3,0.1,0.5,0.3,0.7c0.2,0.2,0.5,0.4,0.9,0.5c0.3,0.1,0.9,0.3,2,0.5c1.3,0.3,2.2,0.7,2.8,1.2     c0.7,0.7,1.1,1.5,1.1,2.4c0,0.6-0.2,1.2-0.5,1.7c-0.4,0.5-0.9,1-1.5,1.2c-0.7,0.3-1.5,0.4-2.4,0.4c-1.5,0-2.7-0.3-3.4-1     c-0.8-0.7-1.2-1.6-1.2-2.7l2.5-0.1c0.1,0.6,0.3,1.1,0.7,1.3c0.3,0.3,0.9,0.4,1.6,0.4c0.7,0,1.3-0.1,1.7-0.4     c0.3-0.2,0.4-0.4,0.4-0.8c0-0.3-0.1-0.5-0.4-0.7c-0.3-0.3-1.1-0.5-2.3-0.8s-2.1-0.6-2.7-0.9c-0.6-0.3-1-0.7-1.3-1.2     c-0.3-0.5-0.5-1.2-0.5-1.9c0-0.7,0.2-1.3,0.6-2s0.9-1.1,1.6-1.4c0.7-0.3,1.6-0.4,2.6-0.4c1.5,0,2.7,0.4,3.5,1.1     S144.3,246.4,144.5,247.7z"
           class="st16" /></g><g
         id="g461"><rect
           id="rect463"
           height="15"
           width="25.9"
           class="st14"
           transform="matrix(-0.866 0.5 -0.5 -0.866 478.724 339.7645)"
           y="226.5"
           x="180.9" /><path
           id="path465"
           d="M194.2,228.4l1.3-0.7l4.8,8.2c0.1-0.5,0.4-1,0.7-1.6c0.3-0.6,0.7-1.1,1-1.5l0.7,1.3     c-0.5,0.8-0.9,1.5-1.2,2.3c-0.3,0.8-0.4,1.5-0.3,2.1l-0.8,0.5L194.2,228.4z"
           class="st16" /><path
           id="path467"
           d="M192.5,233.1l-1.3,0.9c-0.5-0.6-1-1-1.6-1.1c-0.6-0.1-1.1,0-1.6,0.3c-0.6,0.4-1,0.9-1.2,1.6     c-0.2,0.7,0,1.5,0.4,2.2c0.4,0.7,1,1.2,1.6,1.4c0.7,0.2,1.3,0.1,2-0.3c0.4-0.2,0.7-0.6,1-0.9c0.2-0.4,0.3-0.8,0.4-1.2l1.3-0.5     l2.1,6l-5.2,3l-0.7-1.2l4.2-2.4l-1.1-3.2c-0.4,0.8-0.9,1.4-1.6,1.8c-0.9,0.5-1.9,0.7-2.9,0.4c-1-0.3-1.8-0.9-2.4-1.9     c-0.5-1-0.7-1.9-0.6-3c0.2-1.2,0.9-2.2,2-2.9c1-0.6,1.9-0.7,2.8-0.5C191.1,231.7,191.9,232.2,192.5,233.1z"
           class="st16" /></g><g
         id="g469"><rect
           id="rect471"
           height="15"
           width="26.1"
           class="st14"
           transform="matrix(-0.5 0.866 -0.866 -0.5 518.903 89.0704)"
           y="186.8"
           x="220.7" /><path
           id="path473"
           d="M231.2,189.3l0.7-1.3l8.2,4.8c-0.1-0.5-0.2-1.1-0.2-1.7c0-0.7,0-1.3,0.1-1.7l1.3,0.7     c-0.1,0.9,0,1.8,0.1,2.6c0.2,0.8,0.4,1.5,0.7,2l-0.5,0.8L231.2,189.3z"
           class="st16" /><path
           id="path475"
           d="M226.6,200.2l-1.2-0.7l4-7c0.3,0.2,0.6,0.4,0.8,0.7c0.4,0.5,0.7,1,0.9,1.7s0.4,1.5,0.6,2.6     c0.3,1.7,0.6,2.9,0.9,3.6c0.3,0.7,0.7,1.2,1.2,1.5c0.5,0.3,1.1,0.4,1.6,0.2c0.6-0.2,1-0.5,1.4-1.1c0.4-0.6,0.5-1.2,0.3-1.8     c-0.2-0.6-0.6-1.1-1.2-1.5l0.9-1.3c0.9,0.7,1.5,1.4,1.7,2.3c0.2,0.9,0,1.8-0.6,2.8c-0.6,1-1.3,1.6-2.2,1.9     c-0.9,0.3-1.8,0.2-2.6-0.3c-0.4-0.2-0.8-0.6-1.1-1c-0.3-0.4-0.6-0.9-0.8-1.6c-0.2-0.7-0.5-1.7-0.7-3.1c-0.2-1.2-0.4-1.9-0.5-2.3     c-0.1-0.4-0.2-0.7-0.4-1L226.6,200.2z"
           class="st16" /></g><g
         id="g477"><rect
           id="rect479"
           height="17.8"
           width="15"
           class="st14"
           y="131.1"
           x="240.9" /><path
           id="path481"
           d="M243.8,135.6h12.2v9h-2.1V138h-2.7v6.1h-2.1V138h-3.3v6.8h-2V135.6z"
           class="st16" /></g><g
         id="g483"><rect
           id="rect485"
           height="15"
           width="17.8"
           class="st14"
           transform="matrix(0.5 0.866 -0.866 0.5 191.1389 -159.8665)"
           y="78.1"
           x="225.1" /><path
           id="path487"
           d="M239.8,86.6l-0.8-1.2c0.4-0.4,0.7-0.8,0.8-1.1c0.2-0.6,0.1-1.1-0.2-1.6c-0.2-0.4-0.6-0.7-1-0.9     c-0.5-0.2-1.2-0.3-1.9-0.2c-0.7,0.1-1.6,0.4-2.6,1c0.7,0,1.2,0.2,1.7,0.5c0.5,0.3,0.9,0.7,1.2,1.2c0.5,0.9,0.6,1.8,0.3,2.8     c-0.3,1-0.9,1.8-1.9,2.3c-0.7,0.4-1.4,0.6-2.1,0.6c-0.7,0-1.4-0.1-2-0.4s-1.1-0.8-1.4-1.4c-0.6-1.1-0.7-2.2-0.3-3.3     c0.4-1.1,1.5-2.2,3.3-3.3c2-1.2,3.7-1.7,5.1-1.4c1.2,0.2,2.1,0.8,2.7,2c0.5,0.8,0.6,1.6,0.5,2.4C241,85.3,240.5,86,239.8,86.6z      M232.2,84c-0.4,0.3-0.8,0.6-1.1,1c-0.3,0.4-0.5,0.9-0.5,1.3c0,0.5,0.1,0.9,0.3,1.3c0.3,0.5,0.8,0.9,1.5,1c0.7,0.1,1.4,0,2.1-0.4     c0.7-0.4,1.2-0.9,1.4-1.6s0.1-1.2-0.2-1.8c-0.3-0.6-0.8-1-1.5-1.1C233.5,83.4,232.8,83.6,232.2,84z"
           class="st16" /></g><g
         id="g489"><rect
           id="rect491"
           height="15"
           width="17.8"
           class="st14"
           transform="matrix(0.866 0.5 -0.5 0.866 48.8831 -91.0379)"
           y="38.2"
           x="185.4" /><path
           id="path493"
           d="M190.2,45l1.4,0.6c-0.3,0.8-0.3,1.5-0.2,2c0.2,0.5,0.5,0.9,1,1.2c0.6,0.4,1.2,0.4,1.9,0.3     c0.7-0.2,1.2-0.6,1.5-1.2c0.3-0.6,0.4-1.2,0.3-1.8c-0.2-0.6-0.5-1.1-1.1-1.4c-0.2-0.1-0.6-0.3-1-0.4l0.8-1.1     c0.1,0.1,0.1,0.1,0.2,0.1c0.6,0.3,1.1,0.5,1.7,0.4c0.6,0,1.1-0.3,1.4-0.9c0.3-0.5,0.3-1,0.2-1.5c-0.1-0.5-0.5-0.9-1-1.2     c-0.5-0.3-1-0.4-1.5-0.3c-0.5,0.1-1,0.5-1.5,1l-1.2-1c0.7-0.8,1.4-1.2,2.2-1.4s1.7,0,2.5,0.5c0.6,0.3,1,0.8,1.4,1.3     c0.3,0.5,0.5,1.1,0.5,1.7c0,0.6-0.1,1.1-0.4,1.6c-0.3,0.5-0.6,0.8-1.1,1c-0.5,0.2-1,0.3-1.6,0.3c0.5,0.5,0.9,1.1,0.9,1.7     s-0.1,1.3-0.5,2c-0.5,0.9-1.3,1.5-2.4,1.8c-1,0.3-2.1,0.1-3.1-0.5c-0.9-0.5-1.5-1.3-1.8-2.2C189.7,46.8,189.7,45.9,190.2,45z"
           class="st16" /></g></g></g><g
     style="display:inline"
     id="layer1"><g
       id="Arrow_1_"><g
         id="g179"><polygon
           style="fill:#d7df23;stroke:#d7df23;stroke-miterlimit:10"
           id="polygon181"
           points="139.8,48.6 144.1,56 135.5,56 "
           class="st24" /><line
           style="fill:#d7df23;stroke:#d7df23"
           id="line183"
           y2="47.099998"
           x2="139.7"
           y1="55.200001"
           x1="139.8"
           class="st25" /></g></g></g></svg>