<?xml version="1.0" encoding="UTF-8" standalone="no"?>
<svg
   xmlns:dc="http://purl.org/dc/elements/1.1/"
   xmlns:cc="http://creativecommons.org/ns#"
   xmlns:rdf="http://www.w3.org/1999/02/22-rdf-syntax-ns#"
   xmlns:svg="http://www.w3.org/2000/svg"
   xmlns="http://www.w3.org/2000/svg"
   viewBox="0 0 589.36749 92.947128"
   height="92.947128"
   width="589.36749"
   xml:space="preserve"
   version="1.1"
   id="svg4136"><metadata
     id="metadata4142"><rdf:RDF><cc:Work
         rdf:about=""><dc:format>image/svg+xml</dc:format><dc:type
           rdf:resource="http://purl.org/dc/dcmitype/StillImage" /><dc:title></dc:title></cc:Work></rdf:RDF></metadata><defs
     id="defs4140"><radialGradient
       id="radialGradient4158"
       spreadMethod="pad"
       gradientTransform="matrix(17.787371,0.5428703,-0.5339397,17.494753,451.94763,31.565206)"
       gradientUnits="userSpaceOnUse"
       r="1"
       cy="0"
       cx="0"
       fy="0"
       fx="0"><stop
         id="stop4160"
         offset="0"
         style="stop-opacity:1;stop-color:#292929" /><stop
         id="stop4162"
         offset="1"
         style="stop-opacity:1;stop-color:#3c3c3c" /></radialGradient><clipPath
       id="clipPath4170"
       clipPathUnits="userSpaceOnUse"><path
         id="path4172"
         d="m 0,74.358 471.494,0 L 471.494,0 0,0 0,74.358 Z" /></clipPath><radialGradient
       id="radialGradient4190"
       spreadMethod="pad"
       gradientTransform="matrix(4.9729815,4.1873155,-5.1544509,6.1215806,452.04767,31.564337)"
       gradientUnits="userSpaceOnUse"
       r="1"
       cy="0"
       cx="0"
       fy="0"
       fx="0"><stop
         id="stop4192"
         offset="0"
         style="stop-opacity:1;stop-color:#3b3b3a" /><stop
         id="stop4194"
         offset="1"
         style="stop-opacity:1;stop-color:#363735" /></radialGradient><clipPath
       id="clipPath4202"
       clipPathUnits="userSpaceOnUse"><path
         id="path4204"
         d="m 0,74.358 471.494,0 L 471.494,0 0,0 0,74.358 Z" /></clipPath><linearGradient
       id="linearGradient4208"
       spreadMethod="pad"
       gradientTransform="matrix(12.1952,16.0527,16.0527,-12.1952,-6.8327,74.1954)"
       gradientUnits="userSpaceOnUse"
       y2="0"
       x2="1"
       y1="0"
       x1="0"><stop
         id="stop4210"
         offset="0"
         style="stop-opacity:1;stop-color:#dddcdc" /><stop
         id="stop4212"
         offset="1"
         style="stop-opacity:1;stop-color:#292929" /></linearGradient><linearGradient
       id="linearGradient4228"
       spreadMethod="pad"
       gradientTransform="matrix(0,-62.758282,62.758282,0,208.07503,64.482658)"
       gradientUnits="userSpaceOnUse"
       y2="0"
       x2="1"
       y1="0"
       x1="0"><stop
         id="stop4230"
         offset="0"
         style="stop-opacity:1;stop-color:#2c2d2d" /><stop
         id="stop4232"
         offset="1"
         style="stop-opacity:1;stop-color:#323131" /></linearGradient><clipPath
       id="clipPath4240"
       clipPathUnits="userSpaceOnUse"><path
         id="path4242"
         d="m 0,74.358 471.494,0 L 471.494,0 0,0 0,74.358 Z" /></clipPath><linearGradient
       id="linearGradient4260"
       spreadMethod="pad"
       gradientTransform="matrix(0.3749991,24.749996,-24.749996,0.3749991,56.971203,9.7899675)"
       gradientUnits="userSpaceOnUse"
       y2="0"
       x2="1"
       y1="0"
       x1="0"><stop
         id="stop4262"
         offset="0"
         style="stop-opacity:1;stop-color:#4f3534" /><stop
         id="stop4264"
         offset="1"
         style="stop-opacity:1;stop-color:#453b36" /></linearGradient><clipPath
       id="clipPath4272"
       clipPathUnits="userSpaceOnUse"><path
         id="path4274"
         d="m 0,74.358 471.494,0 L 471.494,0 0,0 0,74.358 Z" /></clipPath><linearGradient
       id="linearGradient4292"
       spreadMethod="pad"
       gradientTransform="matrix(0.3749977,24.749998,-24.749901,0.3749992,158.62701,39.71796)"
       gradientUnits="userSpaceOnUse"
       y2="0"
       x2="1"
       y1="0"
       x1="0"><stop
         id="stop4294"
         offset="0"
         style="stop-opacity:1;stop-color:#4f3534" /><stop
         id="stop4296"
         offset="1"
         style="stop-opacity:1;stop-color:#453b36" /></linearGradient><clipPath
       id="clipPath4304"
       clipPathUnits="userSpaceOnUse"><path
         id="path4306"
         d="m 0,74.358 471.494,0 L 471.494,0 0,0 0,74.358 Z" /></clipPath><linearGradient
       id="linearGradient4324"
       spreadMethod="pad"
       gradientTransform="matrix(0.3749977,24.749998,-24.749901,0.3749992,158.62701,9.7899656)"
       gradientUnits="userSpaceOnUse"
       y2="0"
       x2="1"
       y1="0"
       x1="0"><stop
         id="stop4326"
         offset="0"
         style="stop-opacity:1;stop-color:#4f3534" /><stop
         id="stop4328"
         offset="1"
         style="stop-opacity:1;stop-color:#453b36" /></linearGradient><clipPath
       id="clipPath4336"
       clipPathUnits="userSpaceOnUse"><path
         id="path4338"
         d="m 0,74.358 471.494,0 L 471.494,0 0,0 0,74.358 Z" /></clipPath><linearGradient
       id="linearGradient4356"
       spreadMethod="pad"
       gradientTransform="matrix(0.3749991,24.749996,-24.749996,0.3749991,260.81717,39.717964)"
       gradientUnits="userSpaceOnUse"
       y2="0"
       x2="1"
       y1="0"
       x1="0"><stop
         id="stop4358"
         offset="0"
         style="stop-opacity:1;stop-color:#4f3534" /><stop
         id="stop4360"
         offset="1"
         style="stop-opacity:1;stop-color:#453b36" /></linearGradient><clipPath
       id="clipPath4368"
       clipPathUnits="userSpaceOnUse"><path
         id="path4370"
         d="m 0,74.358 471.494,0 L 471.494,0 0,0 0,74.358 Z" /></clipPath><linearGradient
       id="linearGradient4388"
       spreadMethod="pad"
       gradientTransform="matrix(0.3749991,24.749996,-24.749996,0.3749991,260.81717,9.7899694)"
       gradientUnits="userSpaceOnUse"
       y2="0"
       x2="1"
       y1="0"
       x1="0"><stop
         id="stop4390"
         offset="0"
         style="stop-opacity:1;stop-color:#4f3534" /><stop
         id="stop4392"
         offset="1"
         style="stop-opacity:1;stop-color:#453b36" /></linearGradient><clipPath
       id="clipPath4400"
       clipPathUnits="userSpaceOnUse"><path
         id="path4402"
         d="m 0,74.358 471.494,0 L 471.494,0 0,0 0,74.358 Z" /></clipPath><linearGradient
       id="linearGradient4420"
       spreadMethod="pad"
       gradientTransform="matrix(0.3749977,24.749998,-24.749901,0.3749992,362.47299,39.717964)"
       gradientUnits="userSpaceOnUse"
       y2="0"
       x2="1"
       y1="0"
       x1="0"><stop
         id="stop4422"
         offset="0"
         style="stop-opacity:1;stop-color:#4f3534" /><stop
         id="stop4424"
         offset="1"
         style="stop-opacity:1;stop-color:#453b36" /></linearGradient><clipPath
       id="clipPath4432"
       clipPathUnits="userSpaceOnUse"><path
         id="path4434"
         d="m 0,74.358 471.494,0 L 471.494,0 0,0 0,74.358 Z" /></clipPath><linearGradient
       id="linearGradient4452"
       spreadMethod="pad"
       gradientTransform="matrix(0.3749977,24.749998,-24.749901,0.3749992,362.47299,9.7899675)"
       gradientUnits="userSpaceOnUse"
       y2="0"
       x2="1"
       y1="0"
       x1="0"><stop
         id="stop4454"
         offset="0"
         style="stop-opacity:1;stop-color:#4f3534" /><stop
         id="stop4456"
         offset="1"
         style="stop-opacity:1;stop-color:#453b36" /></linearGradient><clipPath
       id="clipPath4464"
       clipPathUnits="userSpaceOnUse"><path
         id="path4466"
         d="m 0,74.358 471.494,0 L 471.494,0 0,0 0,74.358 Z" /></clipPath><linearGradient
       id="linearGradient4484"
       spreadMethod="pad"
       gradientTransform="matrix(0.3749991,24.749996,-24.749996,0.3749991,56.971203,39.71796)"
       gradientUnits="userSpaceOnUse"
       y2="0"
       x2="1"
       y1="0"
       x1="0"><stop
         id="stop4486"
         offset="0"
         style="stop-opacity:1;stop-color:#4f3534" /><stop
         id="stop4488"
         offset="1"
         style="stop-opacity:1;stop-color:#453b36" /></linearGradient><clipPath
       id="clipPath4496"
       clipPathUnits="userSpaceOnUse"><path
         id="path4498"
         d="m 0,74.358 471.494,0 L 471.494,0 0,0 0,74.358 Z" /></clipPath></defs><g
     transform="matrix(1.25,0,0,-1.25,0,92.947125)"
     id="g4144"><g
       id="g4146"><g
         id="g4148"><g
           id="g4154"><g
             id="g4156"><path
               id="path4164"
               style="fill:url(#radialGradient4158);stroke:none"
               d="m 433.026,31.565 c 0,-10.45 8.472,-18.922 18.922,-18.922 l 0,0 c 10.449,0 18.921,8.472 18.921,18.922 l 0,0 c 0,10.451 -8.472,18.922 -18.921,18.922 l 0,0 c -10.45,0 -18.922,-8.471 -18.922,-18.922" /></g></g></g></g><g
       id="g4166"><g
         clip-path="url(#clipPath4170)"
         id="g4168"><g
           transform="translate(451.9476,50.4869)"
           id="g4174"><path
             id="path4176"
             style="fill:none;stroke:#ffffff;stroke-width:1.25;stroke-linecap:butt;stroke-linejoin:miter;stroke-miterlimit:4;stroke-dasharray:none;stroke-opacity:1"
             d="m 0,0 c 10.45,0 18.922,-8.472 18.922,-18.922 0,-10.45 -8.472,-18.921 -18.922,-18.921 -10.45,0 -18.922,8.471 -18.922,18.921 C -18.922,-8.472 -10.45,0 0,0 Z" /></g></g></g><g
       id="g4178"><g
         id="g4180"><g
           id="g4186"><g
             id="g4188"><path
               id="path4196"
               style="fill:url(#radialGradient4190);stroke:none"
               d="m 443.169,31.564 c 0,-4.877 3.975,-8.831 8.878,-8.831 l 0,0 c 4.904,0 8.879,3.954 8.879,8.831 l 0,0 c 0,4.878 -3.975,8.832 -8.879,8.832 l 0,0 c -4.903,0 -8.878,-3.954 -8.878,-8.832" /></g></g></g></g><g
       id="g4198"><g
         clip-path="url(#clipPath4202)"
         id="g4200"><g
           transform="translate(452.0477,40.3957)"
           id="g4206"><path
             id="path4214"
             style="fill:none;stroke:url(#linearGradient4208);stroke-width:0.44999999;stroke-linecap:butt;stroke-linejoin:miter;stroke-miterlimit:4;stroke-dasharray:none;stroke-opacity:1"
             d="m 0,0 c 4.903,0 8.878,-3.954 8.878,-8.831 0,-4.878 -3.975,-8.832 -8.878,-8.832 -4.903,0 -8.878,3.954 -8.878,8.832 C -8.878,-3.954 -4.903,0 0,0 Z" /></g></g></g><g
       id="g4216"><g
         id="g4218"><g
           id="g4224"><g
             id="g4226"><path
               id="path4234"
               style="fill:url(#linearGradient4228);stroke:none"
               d="m 7.25,73.607 c -3.59,0 -6.5,-2.909 -6.5,-6.499 l 0,0 0,-59.858 c 0,-3.59 2.91,-6.5 6.5,-6.5 l 0,0 401.65,0 c 3.59,0 6.5,2.91 6.5,6.5 l 0,0 0,59.858 c 0,3.59 -2.91,6.499 -6.5,6.499 l 0,0 -401.65,0 z" /></g></g></g></g><g
       id="g4236"><g
         clip-path="url(#clipPath4240)"
         id="g4238"><g
           transform="translate(7.25,73.6077)"
           id="g4244"><path
             id="path4246"
             style="fill:none;stroke:#292929;stroke-width:1.5;stroke-linecap:butt;stroke-linejoin:miter;stroke-miterlimit:4;stroke-dasharray:none;stroke-opacity:1"
             d="m 0,0 401.65,0 c 3.59,0 6.5,-2.91 6.5,-6.5 l 0,-59.858 c 0,-3.59 -2.91,-6.5 -6.5,-6.5 l -401.65,0 c -3.59,0 -6.5,2.91 -6.5,6.5 l 0,59.858 C -6.5,-2.91 -3.59,0 0,0 Z" /></g></g></g><g
       id="g4248"><g
         id="g4250"><g
           id="g4256"><g
             id="g4258"><path
               id="path4266"
               style="fill:url(#linearGradient4260);stroke:none"
               d="m 16.638,34.555 c -2.906,0 -5.262,-2.357 -5.262,-5.263 l 0,0 0,-14.225 c 0,-2.906 2.356,-5.262 5.262,-5.262 l 0,0 81.042,0 c 2.906,0 5.262,2.356 5.262,5.262 l 0,0 0,14.225 c 0,2.906 -2.356,5.263 -5.262,5.263 l 0,0 -81.042,0 z" /></g></g></g></g><g
       id="g4268"><g
         clip-path="url(#clipPath4272)"
         id="g4270"><g
           transform="translate(16.6383,34.5547)"
           id="g4276"><path
             id="path4278"
             style="fill:none;stroke:#302f30;stroke-width:1;stroke-linecap:butt;stroke-linejoin:miter;stroke-miterlimit:4;stroke-dasharray:none;stroke-opacity:1"
             d="m 0,0 81.041,0 c 2.907,0 5.263,-2.356 5.263,-5.263 l 0,-14.224 c 0,-2.907 -2.356,-5.263 -5.263,-5.263 L 0,-24.75 c -2.906,0 -5.263,2.356 -5.263,5.263 l 0,14.224 C -5.263,-2.356 -2.906,0 0,0 Z" /></g></g></g><g
       id="g4280"><g
         id="g4282"><g
           id="g4288"><g
             id="g4290"><path
               id="path4298"
               style="fill:url(#linearGradient4292);stroke:none"
               d="m 118.294,64.482 c -2.906,0 -5.262,-2.356 -5.262,-5.262 l 0,0 0,-14.225 c 0,-2.906 2.356,-5.263 5.262,-5.263 l 0,0 81.041,0 c 2.907,0 5.263,2.357 5.263,5.263 l 0,0 0,14.225 c 0,2.906 -2.356,5.262 -5.263,5.262 l 0,0 -81.041,0 z" /></g></g></g></g><g
       id="g4300"><g
         clip-path="url(#clipPath4304)"
         id="g4302"><g
           transform="translate(118.2943,64.4827)"
           id="g4308"><path
             id="path4310"
             style="fill:none;stroke:#302f30;stroke-width:1;stroke-linecap:butt;stroke-linejoin:miter;stroke-miterlimit:4;stroke-dasharray:none;stroke-opacity:1"
             d="m 0,0 81.041,0 c 2.906,0 5.262,-2.356 5.262,-5.263 l 0,-14.224 c 0,-2.907 -2.356,-5.263 -5.262,-5.263 L 0,-24.75 c -2.906,0 -5.263,2.356 -5.263,5.263 l 0,14.224 C -5.263,-2.356 -2.906,0 0,0 Z" /></g></g></g><g
       id="g4312"><g
         id="g4314"><g
           id="g4320"><g
             id="g4322"><path
               id="path4330"
               style="fill:url(#linearGradient4324);stroke:none"
               d="m 118.294,34.555 c -2.906,0 -5.262,-2.357 -5.262,-5.263 l 0,0 0,-14.225 c 0,-2.906 2.356,-5.262 5.262,-5.262 l 0,0 81.041,0 c 2.907,0 5.263,2.356 5.263,5.262 l 0,0 0,14.225 c 0,2.906 -2.356,5.263 -5.263,5.263 l 0,0 -81.041,0 z" /></g></g></g></g><g
       id="g4332"><g
         clip-path="url(#clipPath4336)"
         id="g4334"><g
           transform="translate(118.2943,34.5547)"
           id="g4340"><path
             id="path4342"
             style="fill:none;stroke:#302f30;stroke-width:1;stroke-linecap:butt;stroke-linejoin:miter;stroke-miterlimit:4;stroke-dasharray:none;stroke-opacity:1"
             d="m 0,0 81.041,0 c 2.906,0 5.262,-2.356 5.262,-5.263 l 0,-14.224 c 0,-2.907 -2.356,-5.263 -5.262,-5.263 L 0,-24.75 c -2.906,0 -5.263,2.356 -5.263,5.263 l 0,14.224 C -5.263,-2.356 -2.906,0 0,0 Z" /></g></g></g><g
       id="g4344"><g
         id="g4346"><g
           id="g4352"><g
             id="g4354"><path
               id="path4362"
               style="fill:url(#linearGradient4356);stroke:none"
               d="m 220.485,64.482 c -2.907,0 -5.264,-2.356 -5.264,-5.262 l 0,0 0,-14.225 c 0,-2.906 2.357,-5.263 5.264,-5.263 l 0,0 81.04,0 c 2.907,0 5.263,2.357 5.263,5.263 l 0,0 0,14.225 c 0,2.906 -2.356,5.262 -5.263,5.262 l 0,0 -81.04,0 z" /></g></g></g></g><g
       id="g4364"><g
         clip-path="url(#clipPath4368)"
         id="g4366"><g
           transform="translate(220.4843,64.4827)"
           id="g4372"><path
             id="path4374"
             style="fill:none;stroke:#302f30;stroke-width:1;stroke-linecap:butt;stroke-linejoin:miter;stroke-miterlimit:4;stroke-dasharray:none;stroke-opacity:1"
             d="m 0,0 81.041,0 c 2.907,0 5.263,-2.356 5.263,-5.263 l 0,-14.224 c 0,-2.907 -2.356,-5.263 -5.263,-5.263 L 0,-24.75 c -2.906,0 -5.263,2.356 -5.263,5.263 l 0,14.224 C -5.263,-2.356 -2.906,0 0,0 Z" /></g></g></g><g
       id="g4376"><g
         id="g4378"><g
           id="g4384"><g
             id="g4386"><path
               id="path4394"
               style="fill:url(#linearGradient4388);stroke:none"
               d="m 220.485,34.555 c -2.907,0 -5.264,-2.357 -5.264,-5.263 l 0,0 0,-14.225 c 0,-2.906 2.357,-5.262 5.264,-5.262 l 0,0 81.04,0 c 2.907,0 5.263,2.356 5.263,5.262 l 0,0 0,14.225 c 0,2.906 -2.356,5.263 -5.263,5.263 l 0,0 -81.04,0 z" /></g></g></g></g><g
       id="g4396"><g
         clip-path="url(#clipPath4400)"
         id="g4398"><g
           transform="translate(220.4843,34.5547)"
           id="g4404"><path
             id="path4406"
             style="fill:none;stroke:#302f30;stroke-width:1;stroke-linecap:butt;stroke-linejoin:miter;stroke-miterlimit:4;stroke-dasharray:none;stroke-opacity:1"
             d="m 0,0 81.041,0 c 2.907,0 5.263,-2.356 5.263,-5.263 l 0,-14.224 c 0,-2.907 -2.356,-5.263 -5.263,-5.263 L 0,-24.75 c -2.906,0 -5.263,2.356 -5.263,5.263 l 0,14.224 C -5.263,-2.356 -2.906,0 0,0 Z" /></g></g></g><g
       id="g4408"><g
         id="g4410"><g
           id="g4416"><g
             id="g4418"><path
               id="path4426"
               style="fill:url(#linearGradient4420);stroke:none"
               d="m 322.141,64.482 c -2.907,0 -5.264,-2.356 -5.264,-5.262 l 0,0 0,-14.225 c 0,-2.906 2.357,-5.263 5.264,-5.263 l 0,0 81.04,0 c 2.906,0 5.262,2.357 5.262,5.263 l 0,0 0,14.225 c 0,2.906 -2.356,5.262 -5.262,5.262 l 0,0 -81.04,0 z" /></g></g></g></g><g
       id="g4428"><g
         clip-path="url(#clipPath4432)"
         id="g4430"><g
           transform="translate(322.1403,64.4827)"
           id="g4436"><path
             id="path4438"
             style="fill:none;stroke:#302f30;stroke-width:1;stroke-linecap:butt;stroke-linejoin:miter;stroke-miterlimit:4;stroke-dasharray:none;stroke-opacity:1"
             d="m 0,0 81.041,0 c 2.906,0 5.262,-2.356 5.262,-5.263 l 0,-14.224 c 0,-2.907 -2.356,-5.263 -5.262,-5.263 L 0,-24.75 c -2.906,0 -5.263,2.356 -5.263,5.263 l 0,14.224 C -5.263,-2.356 -2.906,0 0,0 Z" /></g></g></g><g
       id="g4440"><g
         id="g4442"><g
           id="g4448"><g
             id="g4450"><path
               id="path4458"
               style="fill:url(#linearGradient4452);stroke:none"
               d="m 322.141,34.555 c -2.907,0 -5.264,-2.357 -5.264,-5.263 l 0,0 0,-14.225 c 0,-2.906 2.357,-5.262 5.264,-5.262 l 0,0 81.04,0 c 2.906,0 5.262,2.356 5.262,5.262 l 0,0 0,14.225 c 0,2.906 -2.356,5.263 -5.262,5.263 l 0,0 -81.04,0 z" /></g></g></g></g><g
       id="g4460"><g
         clip-path="url(#clipPath4464)"
         id="g4462"><g
           transform="translate(322.1403,34.5547)"
           id="g4468"><path
             id="path4470"
             style="fill:none;stroke:#302f30;stroke-width:1;stroke-linecap:butt;stroke-linejoin:miter;stroke-miterlimit:4;stroke-dasharray:none;stroke-opacity:1"
             d="m 0,0 81.041,0 c 2.906,0 5.262,-2.356 5.262,-5.263 l 0,-14.224 c 0,-2.907 -2.356,-5.263 -5.262,-5.263 L 0,-24.75 c -2.906,0 -5.263,2.356 -5.263,5.263 l 0,14.224 C -5.263,-2.356 -2.906,0 0,0 Z" /></g></g></g><g
       id="g4472"><g
         id="g4474"><g
           id="g4480"><g
             id="g4482"><path
               id="path4490"
               style="fill:url(#linearGradient4484);stroke:none"
               d="m 16.638,64.482 c -2.906,0 -5.262,-2.356 -5.262,-5.262 l 0,0 0,-14.225 c 0,-2.906 2.356,-5.263 5.262,-5.263 l 0,0 81.042,0 c 2.906,0 5.262,2.357 5.262,5.263 l 0,0 0,14.225 c 0,2.906 -2.356,5.262 -5.262,5.262 l 0,0 -81.042,0 z" /></g></g></g></g><g
       id="g4492"><g
         clip-path="url(#clipPath4496)"
         id="g4494"><g
           transform="translate(16.6383,64.4827)"
           id="g4500"><path
             id="path4502"
             style="fill:none;stroke:#302f30;stroke-width:1;stroke-linecap:butt;stroke-linejoin:miter;stroke-miterlimit:4;stroke-dasharray:none;stroke-opacity:1"
             d="m 0,0 81.041,0 c 2.907,0 5.263,-2.356 5.263,-5.263 l 0,-14.224 c 0,-2.907 -2.356,-5.263 -5.263,-5.263 L 0,-24.75 c -2.906,0 -5.263,2.356 -5.263,5.263 l 0,14.224 C -5.263,-2.356 -2.906,0 0,0 Z" /></g><g
           transform="translate(21.0377,50.8195)"
           id="g4504"><path
             id="path4506"
             style="fill:#292929;fill-opacity:1;fill-rule:nonzero;stroke:none"
             d="M 0,0 -1.072,3.129 -2.145,0 0,0 Z m 3.475,-3.363 -2.327,0 -0.603,1.763 -3.235,0 -0.603,-1.763 -2.268,0 3.223,8.725 2.59,0 3.223,-8.725 z" /></g><g
           transform="translate(31.2729,47.4561)"
           id="g4508"><path
             id="path4510"
             style="fill:#292929;fill-opacity:1;fill-rule:nonzero;stroke:none"
             d="m 0,0 -6.293,0 0,8.725 2.25,0 0,-7.037 L 0,1.688 0,0 Z" /></g><g
           transform="translate(38.6485,54.4936)"
           id="g4512"><path
             id="path4514"
             style="fill:#292929;fill-opacity:1;fill-rule:nonzero;stroke:none"
             d="m 0,0 -2.725,0 0,-7.037 -2.25,0 0,7.037 -2.725,0 0,1.688 7.7,0 L 0,0 Z" /></g><g
           transform="translate(45.5144,47.4561)"
           id="g4516"><path
             id="path4518"
             style="fill:#292929;fill-opacity:1;fill-rule:nonzero;stroke:none"
             d="m 0,0 -6.311,0 0,8.725 6.311,0 0,-1.688 -4.072,0 0,-1.505 3.779,0 0,-1.688 -3.779,0 0,-2.156 L 0,1.688 0,0 Z" /></g><g
           transform="translate(55.0112,47.4561)"
           id="g4520"><path
             id="path4522"
             style="fill:#292929;fill-opacity:1;fill-rule:nonzero;stroke:none"
             d="m 0,0 -2.748,0 -2.379,3.199 -1.037,0 0,-3.199 -2.239,0 0,8.725 3.774,0 c 0.515,0 0.959,-0.029 1.33,-0.088 0.371,-0.058 0.719,-0.185 1.043,-0.381 0.328,-0.195 0.588,-0.449 0.779,-0.761 0.196,-0.309 0.293,-0.698 0.293,-1.167 0,-0.644 -0.15,-1.17 -0.451,-1.576 C -1.932,4.346 -2.358,4.008 -2.912,3.738 L 0,0 Z m -3.51,6.053 c 0,0.219 -0.045,0.406 -0.135,0.563 -0.09,0.156 -0.244,0.279 -0.463,0.369 C -4.26,7.047 -4.438,7.084 -4.641,7.096 -4.844,7.112 -5.08,7.12 -5.35,7.12 l -0.814,0 0,-2.35 0.691,0 c 0.359,0 0.66,0.017 0.902,0.053 0.243,0.035 0.446,0.115 0.61,0.24 0.156,0.121 0.269,0.254 0.34,0.398 0.074,0.149 0.111,0.346 0.111,0.592 z" /></g><g
           transform="translate(63.1427,47.4561)"
           id="g4524"><path
             id="path4526"
             style="fill:#292929;fill-opacity:1;fill-rule:nonzero;stroke:none"
             d="m 0,0 -2.168,0 -3.703,5.989 0,-5.989 -2.063,0 0,8.725 2.69,0 3.181,-4.998 0,4.998 L 0,8.725 0,0 Z" /></g><g
           transform="translate(69.1706,50.8195)"
           id="g4528"><path
             id="path4530"
             style="fill:#292929;fill-opacity:1;fill-rule:nonzero;stroke:none"
             d="M 0,0 -1.072,3.129 -2.145,0 0,0 Z m 3.475,-3.363 -2.327,0 -0.603,1.763 -3.235,0 -0.603,-1.763 -2.268,0 3.223,8.725 2.59,0 3.223,-8.725 z" /></g><g
           transform="translate(79.939,54.4936)"
           id="g4532"><path
             id="path4534"
             style="fill:#292929;fill-opacity:1;fill-rule:nonzero;stroke:none"
             d="m 0,0 -2.725,0 0,-7.037 -2.25,0 0,7.037 -2.725,0 0,1.688 7.7,0 L 0,0 Z" /></g><g
           transform="translate(85.9962,49.6066)"
           id="g4536"><path
             id="path4538"
             style="fill:#292929;fill-opacity:1;fill-rule:nonzero;stroke:none"
             d="M 0,0 C 0.219,0.266 0.381,0.578 0.486,0.938 0.592,1.301 0.645,1.727 0.645,2.215 0.645,2.738 0.584,3.184 0.463,3.551 0.342,3.918 0.184,4.215 -0.012,4.442 -0.211,4.676 -0.441,4.846 -0.703,4.951 -0.961,5.057 -1.231,5.11 -1.512,5.11 -1.797,5.11 -2.066,5.059 -2.32,4.957 -2.57,4.856 -2.801,4.688 -3.012,4.453 -3.207,4.235 -3.367,3.932 -3.492,3.545 -3.613,3.162 -3.674,2.717 -3.674,2.209 c 0,-0.519 0.059,-0.963 0.176,-1.33 0.121,-0.363 0.279,-0.66 0.474,-0.891 0.196,-0.23 0.424,-0.4 0.686,-0.51 0.262,-0.109 0.537,-0.164 0.826,-0.164 0.289,0 0.565,0.055 0.827,0.164 C -0.424,-0.408 -0.195,-0.234 0,0 Z m 2.983,2.209 c 0,-1.391 -0.399,-2.496 -1.196,-3.316 -0.797,-0.817 -1.898,-1.225 -3.305,-1.225 -1.402,0 -2.502,0.408 -3.299,1.225 -0.797,0.82 -1.195,1.925 -1.195,3.316 0,1.403 0.398,2.51 1.195,3.323 0.797,0.816 1.897,1.224 3.299,1.224 1.399,0 2.498,-0.408 3.299,-1.224 0.801,-0.813 1.202,-1.92 1.202,-3.323" /></g><g
           transform="translate(98.294,47.4561)"
           id="g4540"><path
             id="path4542"
             style="fill:#292929;fill-opacity:1;fill-rule:nonzero;stroke:none"
             d="m 0,0 -2.748,0 -2.379,3.199 -1.037,0 0,-3.199 -2.239,0 0,8.725 3.774,0 c 0.515,0 0.959,-0.029 1.33,-0.088 0.371,-0.058 0.719,-0.185 1.043,-0.381 0.328,-0.195 0.588,-0.449 0.779,-0.761 0.196,-0.309 0.293,-0.698 0.293,-1.167 0,-0.644 -0.15,-1.17 -0.451,-1.576 C -1.932,4.346 -2.358,4.008 -2.912,3.738 L 0,0 Z m -3.51,6.053 c 0,0.219 -0.045,0.406 -0.135,0.563 -0.09,0.156 -0.244,0.279 -0.463,0.369 C -4.26,7.047 -4.438,7.084 -4.641,7.096 -4.844,7.112 -5.08,7.12 -5.35,7.12 l -0.814,0 0,-2.35 0.691,0 c 0.359,0 0.66,0.017 0.902,0.053 0.243,0.035 0.446,0.115 0.61,0.24 0.156,0.121 0.269,0.254 0.34,0.398 0.074,0.149 0.111,0.346 0.111,0.592 z" /></g><g
           transform="translate(136.3835,49.9811)"
           id="g4544"><path
             id="path4546"
             style="fill:#292929;fill-opacity:1;fill-rule:nonzero;stroke:none"
             d="m 0,0 c 0,0.277 -0.055,0.49 -0.164,0.639 -0.106,0.152 -0.287,0.265 -0.545,0.34 -0.176,0.05 -0.418,0.078 -0.727,0.082 -0.308,0.003 -0.631,0.005 -0.966,0.005 l -0.493,0 0,-2.173 0.164,0 c 0.633,0 1.086,10e-4 1.36,0.005 0.273,0.004 0.525,0.055 0.756,0.153 0.234,0.097 0.394,0.226 0.48,0.386 C -0.045,-0.398 0,-0.211 0,0 m -0.551,3.551 c 0,0.144 -0.037,0.289 -0.111,0.434 -0.07,0.144 -0.197,0.252 -0.381,0.322 -0.164,0.062 -0.369,0.096 -0.615,0.099 -0.242,0.008 -0.584,0.012 -1.026,0.012 l -0.211,0 0,-1.846 0.352,0 c 0.355,0 0.658,0.006 0.908,0.018 0.25,0.012 0.447,0.051 0.592,0.117 0.203,0.09 0.336,0.205 0.398,0.346 0.063,0.144 0.094,0.31 0.094,0.498 M 2.332,-0.035 C 2.332,-0.457 2.246,-0.834 2.074,-1.166 1.906,-1.498 1.674,-1.774 1.377,-1.992 1.033,-2.25 0.654,-2.434 0.24,-2.543 -0.17,-2.652 -0.691,-2.707 -1.324,-2.707 l -3.809,0 0,8.725 3.387,0 c 0.703,0 1.217,-0.024 1.541,-0.07 C 0.123,5.901 0.447,5.797 0.768,5.637 1.1,5.469 1.346,5.242 1.506,4.957 1.67,4.676 1.752,4.354 1.752,3.99 1.752,3.569 1.641,3.195 1.418,2.871 1.195,2.551 0.881,2.301 0.475,2.121 l 0,-0.047 C 1.045,1.961 1.496,1.727 1.828,1.371 2.164,1.016 2.332,0.547 2.332,-0.035" /></g><g
           transform="translate(144.1811,50.6374)"
           id="g4548"><path
             id="path4550"
             style="fill:#292929;fill-opacity:1;fill-rule:nonzero;stroke:none"
             d="M 0,0 -1.072,3.129 -2.145,0 0,0 Z m 3.475,-3.363 -2.327,0 -0.603,1.763 -3.235,0 -0.603,-1.763 -2.268,0 3.223,8.725 2.59,0 3.223,-8.725 z" /></g><g
           transform="translate(154.9494,54.3114)"
           id="g4552"><path
             id="path4554"
             style="fill:#292929;fill-opacity:1;fill-rule:nonzero;stroke:none"
             d="m 0,0 -2.725,0 0,-7.037 -2.25,0 0,7.037 -2.725,0 0,1.688 7.7,0 L 0,0 Z" /></g><g
           transform="translate(162.3309,54.3114)"
           id="g4556"><path
             id="path4558"
             style="fill:#292929;fill-opacity:1;fill-rule:nonzero;stroke:none"
             d="m 0,0 -2.725,0 0,-7.037 -2.25,0 0,7.037 -2.725,0 0,1.688 7.7,0 L 0,0 Z" /></g><g
           transform="translate(169.1968,47.2739)"
           id="g4560"><path
             id="path4562"
             style="fill:#292929;fill-opacity:1;fill-rule:nonzero;stroke:none"
             d="m 0,0 -6.311,0 0,8.725 6.311,0 0,-1.688 -4.072,0 0,-1.505 3.779,0 0,-1.688 -3.779,0 0,-2.156 L 0,1.688 0,0 Z" /></g><g
           transform="translate(178.6936,47.2739)"
           id="g4564"><path
             id="path4566"
             style="fill:#292929;fill-opacity:1;fill-rule:nonzero;stroke:none"
             d="m 0,0 -2.748,0 -2.379,3.199 -1.037,0 0,-3.199 -2.239,0 0,8.725 3.774,0 c 0.516,0 0.959,-0.029 1.33,-0.088 0.371,-0.058 0.719,-0.185 1.043,-0.381 0.328,-0.195 0.588,-0.449 0.779,-0.761 0.196,-0.309 0.293,-0.698 0.293,-1.167 0,-0.644 -0.15,-1.17 -0.451,-1.576 C -1.932,4.346 -2.358,4.008 -2.912,3.738 L 0,0 Z m -3.51,6.053 c 0,0.219 -0.045,0.406 -0.135,0.563 -0.09,0.156 -0.244,0.279 -0.463,0.369 C -4.26,7.047 -4.438,7.084 -4.641,7.096 -4.844,7.112 -5.08,7.12 -5.35,7.12 l -0.814,0 0,-2.35 0.691,0 c 0.359,0 0.66,0.017 0.902,0.053 0.243,0.035 0.446,0.115 0.61,0.24 0.156,0.121 0.269,0.254 0.34,0.398 0.074,0.149 0.111,0.346 0.111,0.592" /></g><g
           transform="translate(186.5673,55.999)"
           id="g4568"><path
             id="path4570"
             style="fill:#292929;fill-opacity:1;fill-rule:nonzero;stroke:none"
             d="m 0,0 -3.217,-5.35 0,-3.375 -2.25,0 0,3.27 L -8.737,0 -6.182,0 -4.295,-3.375 -2.473,0 0,0 Z" /></g><g
           transform="translate(237.6707,54.3269)"
           id="g4572"><path
             id="path4574"
             style="fill:#292929;fill-opacity:1;fill-rule:nonzero;stroke:none"
             d="m 0,0 -4.014,0 0,-1.623 3.721,0 0,-1.688 -3.721,0 0,-3.726 -2.238,0 0,8.725 L 0,1.688 0,0 Z" /></g><g
           transform="translate(246.0659,50.4478)"
           id="g4576"><path
             id="path4578"
             style="fill:#292929;fill-opacity:1;fill-rule:nonzero;stroke:none"
             d="m 0,0 c 0,-1.078 -0.328,-1.904 -0.984,-2.479 -0.657,-0.574 -1.624,-0.861 -2.901,-0.861 -1.277,0 -2.244,0.287 -2.9,0.861 -0.653,0.575 -0.979,1.399 -0.979,2.473 l 0,5.573 2.262,0 0,-5.444 c 0,-0.605 0.127,-1.057 0.381,-1.354 0.254,-0.296 0.666,-0.445 1.236,-0.445 0.563,0 0.973,0.143 1.231,0.428 0.261,0.285 0.392,0.742 0.392,1.371 l 0,5.444 L 0,5.567 0,0 Z" /></g><g
           transform="translate(253.6876,47.2894)"
           id="g4580"><path
             id="path4582"
             style="fill:#292929;fill-opacity:1;fill-rule:nonzero;stroke:none"
             d="m 0,0 -6.311,0 0,8.725 6.311,0 0,-1.688 -4.072,0 0,-1.505 3.779,0 0,-1.688 -3.779,0 0,-2.156 L 0,1.688 0,0 Z" /></g><g
           transform="translate(261.075,47.2894)"
           id="g4584"><path
             id="path4586"
             style="fill:#292929;fill-opacity:1;fill-rule:nonzero;stroke:none"
             d="m 0,0 -6.293,0 0,8.725 2.25,0 0,-7.037 L 0,1.688 0,0 Z" /></g><g
           transform="translate(270.6697,47.3949)"
           id="g4588"><path
             id="path4590"
             style="fill:#292929;fill-opacity:1;fill-rule:nonzero;stroke:none"
             d="M 0,0 C 0.016,-0.387 0.121,-0.664 0.316,-0.832 0.512,-1 0.846,-1.084 1.318,-1.084 c 0.161,0 0.35,0.027 0.569,0.082 0.219,0.055 0.371,0.104 0.457,0.146 l 0.223,0 0,-1.546 C 2.348,-2.453 2.109,-2.498 1.852,-2.537 1.598,-2.576 1.207,-2.596 0.68,-2.596 c -0.465,0 -0.871,0.059 -1.219,0.176 -0.344,0.113 -0.631,0.275 -0.861,0.486 -0.227,0.207 -0.397,0.452 -0.51,0.733 -0.114,0.281 -0.18,0.594 -0.199,0.937 -1.305,0.075 -2.323,0.51 -3.053,1.307 -0.727,0.801 -1.09,1.871 -1.09,3.211 0,1.403 0.398,2.51 1.195,3.323 0.797,0.816 1.897,1.224 3.299,1.224 1.399,0 2.498,-0.408 3.299,-1.224 C 2.342,6.764 2.742,5.657 2.742,4.254 2.742,3.219 2.508,2.324 2.039,1.57 1.57,0.82 0.891,0.297 0,0 m -0.24,2.045 c 0.219,0.266 0.381,0.578 0.486,0.938 0.106,0.363 0.158,0.789 0.158,1.277 0,0.523 -0.06,0.969 -0.181,1.336 -0.121,0.367 -0.28,0.664 -0.475,0.891 -0.199,0.234 -0.43,0.404 -0.691,0.509 -0.258,0.106 -0.528,0.159 -0.809,0.159 -0.285,0 -0.555,-0.051 -0.809,-0.153 C -2.811,6.901 -3.041,6.733 -3.252,6.498 -3.447,6.28 -3.608,5.977 -3.733,5.59 -3.854,5.207 -3.914,4.762 -3.914,4.254 c 0,-0.519 0.058,-0.963 0.176,-1.33 0.121,-0.363 0.279,-0.66 0.474,-0.891 0.195,-0.23 0.424,-0.4 0.686,-0.509 0.261,-0.11 0.537,-0.165 0.826,-0.165 0.289,0 0.564,0.055 0.826,0.165 0.262,0.113 0.49,0.287 0.686,0.521" /></g><g
           transform="translate(281.151,54.3269)"
           id="g4592"><path
             id="path4594"
             style="fill:#292929;fill-opacity:1;fill-rule:nonzero;stroke:none"
             d="m 0,0 -2.725,0 0,-7.037 -2.25,0 0,7.037 -2.725,0 0,1.688 7.7,0 L 0,0 Z" /></g><g
           transform="translate(289.3821,56.0145)"
           id="g4596"><path
             id="path4598"
             style="fill:#292929;fill-opacity:1;fill-rule:nonzero;stroke:none"
             d="m 0,0 -3.217,-5.35 0,-3.375 -2.25,0 0,3.27 L -8.737,0 -6.182,0 -4.295,-3.375 -2.473,0 0,0 Z" /></g><g
           transform="translate(344.4638,50.1393)"
           id="g4600"><path
             id="path4602"
             style="fill:#292929;fill-opacity:1;fill-rule:nonzero;stroke:none"
             d="m 0,0 c 0,0.277 -0.055,0.49 -0.164,0.639 -0.106,0.152 -0.287,0.265 -0.545,0.34 -0.176,0.05 -0.418,0.078 -0.727,0.082 -0.308,0.003 -0.63,0.005 -0.966,0.005 l -0.493,0 0,-2.173 0.164,0 c 0.633,0 1.086,10e-4 1.36,0.005 0.273,0.004 0.525,0.055 0.756,0.153 0.234,0.097 0.394,0.226 0.48,0.386 C -0.045,-0.398 0,-0.211 0,0 m -0.551,3.551 c 0,0.144 -0.037,0.289 -0.111,0.434 -0.07,0.144 -0.197,0.252 -0.381,0.322 -0.164,0.062 -0.369,0.096 -0.615,0.099 -0.242,0.008 -0.584,0.012 -1.026,0.012 l -0.211,0 0,-1.846 0.352,0 c 0.355,0 0.658,0.006 0.908,0.018 0.25,0.012 0.447,0.051 0.592,0.117 0.203,0.09 0.336,0.205 0.398,0.346 0.063,0.144 0.094,0.31 0.094,0.498 M 2.332,-0.035 C 2.332,-0.457 2.246,-0.834 2.074,-1.166 1.906,-1.498 1.674,-1.774 1.377,-1.992 1.033,-2.25 0.654,-2.434 0.24,-2.543 -0.17,-2.652 -0.691,-2.707 -1.324,-2.707 l -3.809,0 0,8.725 3.387,0 c 0.703,0 1.217,-0.024 1.541,-0.07 C 0.123,5.901 0.447,5.797 0.768,5.637 1.1,5.469 1.346,5.242 1.506,4.957 1.67,4.676 1.752,4.354 1.752,3.99 1.752,3.569 1.641,3.195 1.418,2.871 1.195,2.551 0.881,2.301 0.475,2.121 l 0,-0.047 C 1.045,1.961 1.496,1.727 1.828,1.371 2.164,1.016 2.332,0.547 2.332,-0.035" /></g><g
           transform="translate(356.076,47.4322)"
           id="g4604"><path
             id="path4606"
             style="fill:#292929;fill-opacity:1;fill-rule:nonzero;stroke:none"
             d="m 0,0 -2.748,0 -2.379,3.199 -1.037,0 0,-3.199 -2.239,0 0,8.725 3.774,0 c 0.516,0 0.959,-0.029 1.33,-0.088 0.371,-0.058 0.719,-0.185 1.043,-0.381 0.328,-0.195 0.588,-0.449 0.779,-0.761 0.196,-0.309 0.293,-0.698 0.293,-1.167 0,-0.644 -0.15,-1.17 -0.451,-1.576 C -1.932,4.346 -2.358,4.008 -2.912,3.738 L 0,0 Z m -3.51,6.053 c 0,0.219 -0.045,0.406 -0.135,0.563 -0.09,0.156 -0.244,0.279 -0.463,0.369 -0.152,0.062 -0.33,0.099 -0.533,0.111 -0.203,0.016 -0.439,0.023 -0.709,0.023 l -0.814,0 0,-2.349 0.691,0 c 0.359,0 0.66,0.017 0.902,0.053 0.243,0.035 0.446,0.115 0.61,0.24 0.156,0.121 0.269,0.254 0.34,0.398 0.074,0.149 0.111,0.346 0.111,0.592" /></g><g
           transform="translate(360.8616,50.7956)"
           id="g4608"><path
             id="path4610"
             style="fill:#292929;fill-opacity:1;fill-rule:nonzero;stroke:none"
             d="M 0,0 -1.072,3.129 -2.145,0 0,0 Z m 3.475,-3.363 -2.327,0 -0.603,1.763 -3.235,0 -0.603,-1.763 -2.268,0 3.223,8.725 2.59,0 3.223,-8.725 z" /></g><g
           transform="translate(372.9485,47.4322)"
           id="g4612"><path
             id="path4614"
             style="fill:#292929;fill-opacity:1;fill-rule:nonzero;stroke:none"
             d="m 0,0 -2.76,0 -2.607,3.492 -0.528,-0.638 0,-2.854 -2.25,0 0,8.725 2.25,0 0,-3.949 3.118,3.949 2.607,0 L -3.58,4.688 0,0 Z" /></g><g
           transform="translate(379.5741,47.4322)"
           id="g4616"><path
             id="path4618"
             style="fill:#292929;fill-opacity:1;fill-rule:nonzero;stroke:none"
             d="m 0,0 -6.311,0 0,8.725 6.311,0 0,-1.688 -4.072,0 0,-1.505 3.779,0 0,-1.688 -3.779,0 0,-2.156 L 0,1.688 0,0 Z" /></g><g
           transform="translate(387.6529,50.1745)"
           id="g4620"><path
             id="path4622"
             style="fill:#292929;fill-opacity:1;fill-rule:nonzero;stroke:none"
             d="m 0,0 c 0,-0.859 -0.365,-1.559 -1.096,-2.098 -0.726,-0.535 -1.715,-0.803 -2.965,-0.803 -0.722,0 -1.353,0.063 -1.892,0.188 -0.536,0.129 -1.038,0.291 -1.506,0.486 l 0,2.092 0.246,0 c 0.465,-0.371 0.984,-0.656 1.558,-0.855 0.579,-0.2 1.133,-0.299 1.665,-0.299 0.136,0 0.316,0.012 0.539,0.035 0.222,0.023 0.404,0.063 0.545,0.117 0.171,0.071 0.312,0.158 0.422,0.264 0.113,0.105 0.169,0.262 0.169,0.469 0,0.191 -0.082,0.355 -0.246,0.492 -0.16,0.141 -0.396,0.248 -0.709,0.322 -0.328,0.078 -0.676,0.151 -1.043,0.217 -0.363,0.07 -0.705,0.158 -1.025,0.264 -0.735,0.238 -1.264,0.56 -1.588,0.967 -0.32,0.41 -0.481,0.918 -0.481,1.523 0,0.813 0.364,1.475 1.09,1.986 0.731,0.516 1.668,0.774 2.813,0.774 0.574,0 1.141,-0.057 1.699,-0.17 0.563,-0.109 1.049,-0.248 1.459,-0.416 l 0,-2.01 -0.24,0 C -0.938,3.826 -1.369,4.061 -1.881,4.248 -2.389,4.44 -2.908,4.535 -3.44,4.535 -3.627,4.535 -3.815,4.522 -4.002,4.494 -4.186,4.471 -4.364,4.424 -4.535,4.354 -4.688,4.295 -4.819,4.205 -4.928,4.084 -5.037,3.967 -5.092,3.832 -5.092,3.68 c 0,-0.231 0.088,-0.408 0.264,-0.533 0.175,-0.121 0.507,-0.233 0.996,-0.334 0.32,-0.067 0.627,-0.131 0.92,-0.194 C -2.615,2.557 -2.297,2.471 -1.957,2.361 -1.289,2.143 -0.797,1.844 -0.48,1.465 -0.16,1.09 0,0.602 0,0" /></g><g
           transform="translate(30.6105,19.7495)"
           id="g4624"><path
             id="path4626"
             style="fill:#292929;fill-opacity:1;fill-rule:nonzero;stroke:none"
             d="M 0,0 C 0.219,0.266 0.381,0.578 0.486,0.938 0.592,1.301 0.645,1.727 0.645,2.215 0.645,2.738 0.584,3.184 0.463,3.551 0.342,3.918 0.184,4.215 -0.012,4.442 -0.211,4.676 -0.441,4.846 -0.703,4.951 -0.961,5.057 -1.231,5.11 -1.512,5.11 -1.797,5.11 -2.067,5.059 -2.32,4.957 -2.57,4.856 -2.801,4.688 -3.012,4.453 -3.207,4.235 -3.367,3.932 -3.492,3.545 -3.613,3.162 -3.674,2.717 -3.674,2.209 c 0,-0.519 0.059,-0.963 0.176,-1.33 0.121,-0.363 0.279,-0.66 0.474,-0.891 0.196,-0.23 0.424,-0.4 0.686,-0.51 0.262,-0.109 0.537,-0.164 0.826,-0.164 0.289,0 0.565,0.055 0.826,0.164 C -0.424,-0.408 -0.195,-0.234 0,0 m 2.983,2.209 c 0,-1.391 -0.399,-2.496 -1.196,-3.316 -0.797,-0.817 -1.898,-1.225 -3.305,-1.225 -1.402,0 -2.502,0.408 -3.299,1.225 -0.797,0.82 -1.195,1.925 -1.195,3.316 0,1.403 0.398,2.51 1.195,3.323 0.797,0.816 1.897,1.224 3.299,1.224 1.399,0 2.499,-0.408 3.299,-1.224 0.801,-0.813 1.202,-1.92 1.202,-3.323" /></g><g
           transform="translate(39.2225,17.599)"
           id="g4628"><path
             id="path4630"
             style="fill:#292929;fill-opacity:1;fill-rule:nonzero;stroke:none"
             d="m 0,0 -5.11,0 0,1.547 1.43,0 0,5.631 -1.43,0 0,1.547 5.11,0 0,-1.547 -1.43,0 0,-5.631 1.43,0 L 0,0 Z" /></g><g
           transform="translate(46.563,17.599)"
           id="g4632"><path
             id="path4634"
             style="fill:#292929;fill-opacity:1;fill-rule:nonzero;stroke:none"
             d="m 0,0 -6.293,0 0,8.725 2.25,0 0,-7.037 L 0,1.688 0,0 Z" /></g><g
           transform="translate(55.2905,23.5173)"
           id="g4636"><path
             id="path4638"
             style="fill:#292929;fill-opacity:1;fill-rule:nonzero;stroke:none"
             d="m 0,0 c 0,0.246 -0.066,0.457 -0.199,0.633 -0.133,0.18 -0.287,0.305 -0.463,0.375 -0.235,0.094 -0.463,0.144 -0.686,0.152 -0.222,0.012 -0.519,0.018 -0.89,0.018 l -0.387,0 0,-2.614 0.644,0 c 0.383,0 0.698,0.024 0.944,0.071 0.25,0.047 0.459,0.14 0.627,0.281 0.144,0.125 0.248,0.273 0.31,0.445 C -0.033,-0.463 0,-0.25 0,0 M 2.326,0.053 C 2.326,-0.338 2.258,-0.721 2.121,-1.096 1.984,-1.467 1.789,-1.779 1.535,-2.033 1.188,-2.377 0.799,-2.637 0.369,-2.813 -0.057,-2.988 -0.588,-3.076 -1.225,-3.076 l -1.4,0 0,-2.842 -2.25,0 0,8.725 3.703,0 C -0.617,2.807 -0.15,2.758 0.229,2.66 0.611,2.567 0.949,2.424 1.242,2.233 1.594,2.002 1.861,1.707 2.045,1.348 2.233,0.988 2.326,0.557 2.326,0.053" /></g><g
           transform="translate(66.8089,17.599)"
           id="g4640"><path
             id="path4642"
             style="fill:#292929;fill-opacity:1;fill-rule:nonzero;stroke:none"
             d="m 0,0 -2.748,0 -2.379,3.199 -1.037,0 0,-3.199 -2.239,0 0,8.725 3.774,0 c 0.516,0 0.959,-0.029 1.33,-0.088 0.371,-0.058 0.719,-0.185 1.043,-0.381 0.328,-0.195 0.588,-0.449 0.779,-0.761 0.196,-0.309 0.293,-0.698 0.293,-1.167 0,-0.644 -0.15,-1.17 -0.451,-1.576 C -1.932,4.346 -2.358,4.008 -2.912,3.738 L 0,0 Z m -3.51,6.053 c 0,0.219 -0.045,0.406 -0.135,0.563 -0.09,0.156 -0.244,0.279 -0.463,0.369 C -4.26,7.047 -4.438,7.084 -4.641,7.096 -4.844,7.112 -5.08,7.12 -5.35,7.12 l -0.814,0 0,-2.35 0.691,0 c 0.359,0 0.66,0.017 0.902,0.053 0.243,0.035 0.446,0.115 0.61,0.24 0.156,0.121 0.269,0.254 0.34,0.398 0.074,0.149 0.111,0.346 0.111,0.592" /></g><g
           transform="translate(73.3173,17.599)"
           id="g4644"><path
             id="path4646"
             style="fill:#292929;fill-opacity:1;fill-rule:nonzero;stroke:none"
             d="m 0,0 -6.311,0 0,8.725 6.311,0 0,-1.688 -4.072,0 0,-1.505 3.779,0 0,-1.688 -3.779,0 0,-2.156 L 0,1.688 0,0 Z" /></g><g
           transform="translate(81.3961,20.3413)"
           id="g4648"><path
             id="path4650"
             style="fill:#292929;fill-opacity:1;fill-rule:nonzero;stroke:none"
             d="m 0,0 c 0,-0.859 -0.365,-1.559 -1.096,-2.098 -0.726,-0.535 -1.715,-0.803 -2.965,-0.803 -0.722,0 -1.353,0.063 -1.892,0.188 -0.536,0.129 -1.038,0.291 -1.506,0.486 l 0,2.092 0.246,0 c 0.465,-0.371 0.984,-0.656 1.558,-0.855 0.579,-0.199 1.133,-0.299 1.665,-0.299 0.136,0 0.316,0.012 0.539,0.035 0.222,0.023 0.404,0.063 0.545,0.117 0.171,0.071 0.312,0.158 0.422,0.264 0.113,0.105 0.169,0.262 0.169,0.469 0,0.191 -0.082,0.355 -0.246,0.492 -0.16,0.141 -0.396,0.248 -0.709,0.322 -0.328,0.078 -0.676,0.151 -1.043,0.217 -0.363,0.07 -0.705,0.158 -1.025,0.264 -0.735,0.238 -1.264,0.56 -1.588,0.967 -0.32,0.41 -0.481,0.918 -0.481,1.523 0,0.813 0.364,1.475 1.09,1.986 0.731,0.516 1.668,0.774 2.813,0.774 0.574,0 1.141,-0.057 1.699,-0.17 0.563,-0.109 1.049,-0.248 1.459,-0.416 l 0,-2.01 -0.24,0 C -0.938,3.826 -1.369,4.061 -1.881,4.248 -2.389,4.44 -2.908,4.535 -3.44,4.535 -3.627,4.535 -3.815,4.522 -4.002,4.494 -4.186,4.471 -4.364,4.424 -4.535,4.354 -4.688,4.295 -4.819,4.205 -4.928,4.084 -5.037,3.967 -5.092,3.832 -5.092,3.68 c 0,-0.231 0.088,-0.408 0.264,-0.533 0.175,-0.121 0.507,-0.233 0.996,-0.334 0.32,-0.067 0.627,-0.131 0.92,-0.194 C -2.615,2.557 -2.297,2.471 -1.957,2.361 -1.289,2.143 -0.797,1.844 -0.48,1.465 -0.16,1.09 0,0.602 0,0" /></g><g
           transform="translate(89.1292,20.3413)"
           id="g4652"><path
             id="path4654"
             style="fill:#292929;fill-opacity:1;fill-rule:nonzero;stroke:none"
             d="m 0,0 c 0,-0.859 -0.365,-1.559 -1.096,-2.098 -0.726,-0.535 -1.715,-0.803 -2.965,-0.803 -0.722,0 -1.353,0.063 -1.892,0.188 -0.536,0.129 -1.038,0.291 -1.506,0.486 l 0,2.092 0.246,0 c 0.465,-0.371 0.984,-0.656 1.558,-0.855 0.579,-0.199 1.133,-0.299 1.665,-0.299 0.136,0 0.316,0.012 0.539,0.035 0.222,0.023 0.404,0.063 0.545,0.117 0.171,0.071 0.312,0.158 0.421,0.264 0.114,0.105 0.17,0.262 0.17,0.469 0,0.191 -0.082,0.355 -0.246,0.492 -0.16,0.141 -0.396,0.248 -0.709,0.322 -0.328,0.078 -0.676,0.151 -1.043,0.217 -0.363,0.07 -0.705,0.158 -1.025,0.264 -0.735,0.238 -1.264,0.56 -1.588,0.967 -0.32,0.41 -0.481,0.918 -0.481,1.523 0,0.813 0.364,1.475 1.09,1.986 0.731,0.516 1.668,0.774 2.813,0.774 0.574,0 1.141,-0.057 1.699,-0.17 0.563,-0.109 1.049,-0.248 1.459,-0.416 l 0,-2.01 -0.24,0 C -0.938,3.826 -1.369,4.061 -1.881,4.248 -2.389,4.44 -2.908,4.535 -3.44,4.535 -3.627,4.535 -3.815,4.522 -4.002,4.494 -4.186,4.471 -4.364,4.424 -4.535,4.354 -4.688,4.295 -4.819,4.205 -4.928,4.084 -5.037,3.967 -5.092,3.832 -5.092,3.68 c 0,-0.231 0.088,-0.408 0.264,-0.533 0.175,-0.121 0.507,-0.233 0.996,-0.334 0.32,-0.067 0.627,-0.131 0.92,-0.194 C -2.615,2.557 -2.297,2.471 -1.957,2.361 -1.289,2.143 -0.797,1.844 -0.48,1.465 -0.16,1.09 0,0.602 0,0" /></g><g
           transform="translate(135.797,19.7492)"
           id="g4656"><path
             id="path4658"
             style="fill:#292929;fill-opacity:1;fill-rule:nonzero;stroke:none"
             d="M 0,0 C 0.219,0.266 0.381,0.578 0.486,0.938 0.592,1.301 0.645,1.727 0.645,2.215 0.645,2.738 0.584,3.184 0.463,3.551 0.342,3.918 0.184,4.215 -0.012,4.442 -0.211,4.676 -0.441,4.846 -0.703,4.951 -0.961,5.057 -1.231,5.11 -1.512,5.11 -1.797,5.11 -2.067,5.059 -2.32,4.957 -2.57,4.856 -2.801,4.688 -3.012,4.453 -3.207,4.235 -3.367,3.932 -3.492,3.545 -3.613,3.162 -3.674,2.717 -3.674,2.209 c 0,-0.519 0.059,-0.963 0.176,-1.33 0.121,-0.363 0.279,-0.66 0.474,-0.891 0.196,-0.23 0.424,-0.4 0.686,-0.51 0.262,-0.109 0.537,-0.164 0.826,-0.164 0.289,0 0.565,0.055 0.826,0.164 C -0.424,-0.408 -0.195,-0.234 0,0 m 2.983,2.209 c 0,-1.391 -0.399,-2.496 -1.196,-3.316 -0.797,-0.817 -1.898,-1.225 -3.305,-1.225 -1.402,0 -2.502,0.408 -3.299,1.225 -0.797,0.82 -1.195,1.925 -1.195,3.316 0,1.403 0.398,2.51 1.195,3.323 0.797,0.816 1.897,1.224 3.299,1.224 1.399,0 2.499,-0.408 3.299,-1.224 0.801,-0.813 1.202,-1.92 1.202,-3.323" /></g><g
           transform="translate(144.409,17.5987)"
           id="g4660"><path
             id="path4662"
             style="fill:#292929;fill-opacity:1;fill-rule:nonzero;stroke:none"
             d="m 0,0 -5.11,0 0,1.547 1.43,0 0,5.631 -1.43,0 0,1.547 5.11,0 0,-1.547 -1.43,0 0,-5.631 1.43,0 L 0,0 Z" /></g><g
           transform="translate(151.7495,17.5987)"
           id="g4664"><path
             id="path4666"
             style="fill:#292929;fill-opacity:1;fill-rule:nonzero;stroke:none"
             d="m 0,0 -6.293,0 0,8.725 2.25,0 0,-7.037 L 0,1.688 0,0 Z" /></g><g
           transform="translate(162.4283,24.6362)"
           id="g4668"><path
             id="path4670"
             style="fill:#292929;fill-opacity:1;fill-rule:nonzero;stroke:none"
             d="m 0,0 -2.725,0 0,-7.037 -2.25,0 0,7.037 -2.725,0 0,1.688 7.7,0 L 0,0 Z" /></g><g
           transform="translate(169.2941,17.5987)"
           id="g4672"><path
             id="path4674"
             style="fill:#292929;fill-opacity:1;fill-rule:nonzero;stroke:none"
             d="m 0,0 -6.311,0 0,8.725 6.311,0 0,-1.688 -4.072,0 0,-1.505 3.779,0 0,-1.688 -3.779,0 0,-2.156 L 0,1.688 0,0 Z" /></g><g
           transform="translate(179.5352,17.5987)"
           id="g4676"><path
             id="path4678"
             style="fill:#292929;fill-opacity:1;fill-rule:nonzero;stroke:none"
             d="m 0,0 -2.238,0 0,5.842 -1.618,-3.791 -1.552,0 -1.618,3.791 0,-5.842 -2.121,0 0,8.725 2.613,0 1.963,-4.377 1.958,4.377 L 0,8.725 0,0 Z" /></g><g
           transform="translate(185.8326,23.517)"
           id="g4680"><path
             id="path4682"
             style="fill:#292929;fill-opacity:1;fill-rule:nonzero;stroke:none"
             d="m 0,0 c 0,0.246 -0.066,0.457 -0.199,0.633 -0.133,0.18 -0.287,0.305 -0.463,0.375 -0.235,0.094 -0.463,0.144 -0.686,0.152 -0.222,0.012 -0.519,0.018 -0.89,0.018 l -0.387,0 0,-2.614 0.644,0 c 0.383,0 0.698,0.024 0.944,0.071 0.25,0.047 0.459,0.14 0.627,0.281 0.144,0.125 0.248,0.273 0.31,0.445 C -0.033,-0.463 0,-0.25 0,0 M 2.326,0.053 C 2.326,-0.338 2.258,-0.721 2.121,-1.096 1.984,-1.467 1.789,-1.779 1.535,-2.033 1.188,-2.377 0.799,-2.637 0.369,-2.813 -0.057,-2.988 -0.588,-3.076 -1.225,-3.076 l -1.4,0 0,-2.842 -2.25,0 0,8.725 3.703,0 C -0.617,2.807 -0.15,2.758 0.229,2.66 0.611,2.567 0.949,2.424 1.242,2.233 1.594,2.002 1.861,1.707 2.045,1.348 2.233,0.988 2.326,0.557 2.326,0.053" /></g><g
           transform="translate(224.9476,17.5987)"
           id="g4684"><path
             id="path4686"
             style="fill:#292929;fill-opacity:1;fill-rule:nonzero;stroke:none"
             d="m 0,0 -6.293,0 0,8.725 2.25,0 0,-7.037 L 0,1.688 0,0 Z" /></g><g
           transform="translate(230.9989,19.7492)"
           id="g4688"><path
             id="path4690"
             style="fill:#292929;fill-opacity:1;fill-rule:nonzero;stroke:none"
             d="M 0,0 C 0.219,0.266 0.381,0.578 0.486,0.938 0.592,1.301 0.645,1.727 0.645,2.215 0.645,2.738 0.584,3.184 0.463,3.551 0.342,3.918 0.184,4.215 -0.012,4.442 -0.211,4.676 -0.441,4.846 -0.703,4.951 -0.961,5.057 -1.231,5.11 -1.512,5.11 -1.797,5.11 -2.067,5.059 -2.32,4.957 -2.57,4.856 -2.801,4.688 -3.012,4.453 -3.207,4.235 -3.367,3.932 -3.492,3.545 -3.613,3.162 -3.674,2.717 -3.674,2.209 c 0,-0.519 0.059,-0.963 0.176,-1.33 0.121,-0.363 0.279,-0.66 0.474,-0.891 0.196,-0.23 0.424,-0.4 0.686,-0.51 0.262,-0.109 0.537,-0.164 0.826,-0.164 0.289,0 0.565,0.055 0.826,0.164 C -0.424,-0.408 -0.195,-0.234 0,0 m 2.983,2.209 c 0,-1.391 -0.399,-2.496 -1.196,-3.316 -0.797,-0.817 -1.898,-1.225 -3.305,-1.225 -1.402,0 -2.502,0.408 -3.299,1.225 -0.797,0.82 -1.195,1.925 -1.195,3.316 0,1.403 0.398,2.51 1.195,3.323 0.797,0.816 1.897,1.224 3.299,1.224 1.399,0 2.499,-0.408 3.299,-1.224 0.801,-0.813 1.202,-1.92 1.202,-3.323" /></g><g
           transform="translate(246.9356,26.3238)"
           id="g4692"><path
             id="path4694"
             style="fill:#292929;fill-opacity:1;fill-rule:nonzero;stroke:none"
             d="m 0,0 -2.35,-8.725 -2.49,0 -1.565,5.684 -1.523,-5.684 -2.491,0 L -12.768,0 -10.419,0 -9.077,-6.006 -7.471,0 -5.227,0 -3.697,-6.006 -2.291,0 0,0 Z" /></g><g
           transform="translate(258.8566,26.3238)"
           id="g4696"><path
             id="path4698"
             style="fill:#292929;fill-opacity:1;fill-rule:nonzero;stroke:none"
             d="m 0,0 -3.182,-8.725 -2.519,0 L -8.883,0 -6.522,0 -4.412,-6.129 -2.303,0 0,0 Z" /></g><g
           transform="translate(263.9001,20.9622)"
           id="g4700"><path
             id="path4702"
             style="fill:#292929;fill-opacity:1;fill-rule:nonzero;stroke:none"
             d="M 0,0 -1.072,3.129 -2.145,0 0,0 Z m 3.475,-3.363 -2.327,0 -0.603,1.763 -3.235,0 -0.603,-1.763 -2.268,0 3.223,8.725 2.59,0 3.223,-8.725 z" /></g><g
           transform="translate(271.7855,17.4288)"
           id="g4704"><path
             id="path4706"
             style="fill:#292929;fill-opacity:1;fill-rule:nonzero;stroke:none"
             d="m 0,0 c -0.648,0 -1.248,0.096 -1.799,0.287 -0.547,0.192 -1.018,0.477 -1.412,0.856 -0.395,0.379 -0.701,0.851 -0.92,1.418 -0.215,0.566 -0.322,1.22 -0.322,1.963 0,0.691 0.103,1.318 0.31,1.881 0.207,0.562 0.508,1.045 0.903,1.447 0.379,0.387 0.847,0.686 1.406,0.896 0.562,0.211 1.176,0.317 1.84,0.317 C 0.373,9.065 0.703,9.043 0.996,9 1.293,8.961 1.566,8.909 1.816,8.842 2.078,8.768 2.315,8.684 2.526,8.59 2.74,8.5 2.928,8.416 3.088,8.338 l 0,-2.115 -0.258,0 C 2.721,6.317 2.582,6.428 2.414,6.557 2.25,6.686 2.063,6.813 1.852,6.938 1.637,7.063 1.404,7.168 1.154,7.254 0.904,7.34 0.637,7.383 0.352,7.383 0.035,7.383 -0.266,7.332 -0.551,7.231 -0.836,7.133 -1.1,6.969 -1.342,6.739 -1.572,6.516 -1.76,6.221 -1.904,5.854 -2.045,5.487 -2.115,5.041 -2.115,4.518 c 0,-0.547 0.076,-1.004 0.228,-1.371 0.156,-0.368 0.352,-0.657 0.586,-0.868 0.238,-0.214 0.504,-0.369 0.797,-0.463 0.293,-0.089 0.582,-0.134 0.867,-0.134 0.274,0 0.543,0.041 0.809,0.123 0.269,0.082 0.518,0.193 0.744,0.334 0.192,0.113 0.369,0.234 0.533,0.363 0.164,0.129 0.299,0.24 0.405,0.334 l 0.234,0 0,-2.086 C 2.869,0.652 2.66,0.561 2.461,0.475 2.262,0.389 2.053,0.314 1.834,0.252 1.549,0.17 1.281,0.107 1.031,0.064 0.781,0.021 0.437,0 0,0" /></g><g
           transform="translate(283.3801,20.7571)"
           id="g4708"><path
             id="path4710"
             style="fill:#292929;fill-opacity:1;fill-rule:nonzero;stroke:none"
             d="m 0,0 c 0,-1.078 -0.328,-1.904 -0.984,-2.479 -0.657,-0.574 -1.624,-0.861 -2.901,-0.861 -1.277,0 -2.244,0.287 -2.901,0.861 -0.652,0.575 -0.978,1.399 -0.978,2.473 l 0,5.573 2.262,0 0,-5.444 c 0,-0.605 0.127,-1.057 0.381,-1.354 0.254,-0.296 0.666,-0.445 1.236,-0.445 0.563,0 0.973,0.143 1.231,0.428 0.261,0.285 0.392,0.742 0.392,1.371 l 0,5.444 L 0,5.567 0,0 Z" /></g><g
           transform="translate(292.332,20.7571)"
           id="g4712"><path
             id="path4714"
             style="fill:#292929;fill-opacity:1;fill-rule:nonzero;stroke:none"
             d="m 0,0 c 0,-1.078 -0.328,-1.904 -0.984,-2.479 -0.657,-0.574 -1.624,-0.861 -2.901,-0.861 -1.277,0 -2.244,0.287 -2.9,0.861 -0.653,0.575 -0.979,1.399 -0.979,2.473 l 0,5.573 2.262,0 0,-5.444 c 0,-0.605 0.127,-1.057 0.381,-1.354 0.254,-0.296 0.666,-0.445 1.236,-0.445 0.563,0 0.973,0.143 1.231,0.428 0.261,0.285 0.392,0.742 0.392,1.371 l 0,5.444 L 0,5.567 0,0 Z" /></g><g
           transform="translate(302.7898,17.5987)"
           id="g4716"><path
             id="path4718"
             style="fill:#292929;fill-opacity:1;fill-rule:nonzero;stroke:none"
             d="m 0,0 -2.238,0 0,5.842 -1.618,-3.791 -1.552,0 -1.618,3.791 0,-5.842 -2.121,0 0,8.725 2.613,0 1.963,-4.377 1.958,4.377 L 0,8.725 0,0 Z" /></g><g
           transform="translate(333.4843,20.9622)"
           id="g4720"><path
             id="path4722"
             style="fill:#292929;fill-opacity:1;fill-rule:nonzero;stroke:none"
             d="M 0,0 -1.072,3.129 -2.145,0 0,0 Z m 3.475,-3.363 -2.327,0 -0.603,1.763 -3.235,0 -0.603,-1.763 -2.268,0 3.223,8.725 2.59,0 3.223,-8.725 z" /></g><g
           transform="translate(342.3015,23.517)"
           id="g4724"><path
             id="path4726"
             style="fill:#292929;fill-opacity:1;fill-rule:nonzero;stroke:none"
             d="m 0,0 c 0,0.246 -0.066,0.457 -0.199,0.633 -0.133,0.18 -0.287,0.305 -0.463,0.375 -0.235,0.094 -0.463,0.144 -0.686,0.152 -0.222,0.012 -0.519,0.018 -0.89,0.018 l -0.387,0 0,-2.614 0.644,0 c 0.383,0 0.698,0.024 0.944,0.071 0.25,0.047 0.459,0.14 0.627,0.281 0.144,0.125 0.248,0.273 0.31,0.445 C -0.033,-0.463 0,-0.25 0,0 M 2.326,0.053 C 2.326,-0.338 2.258,-0.721 2.121,-1.096 1.984,-1.467 1.789,-1.779 1.535,-2.033 1.188,-2.377 0.799,-2.637 0.369,-2.813 -0.057,-2.988 -0.588,-3.076 -1.225,-3.076 l -1.4,0 0,-2.842 -2.25,0 0,8.725 3.703,0 C -0.617,2.807 -0.15,2.758 0.229,2.66 0.611,2.567 0.949,2.424 1.242,2.233 1.594,2.002 1.861,1.707 2.045,1.348 2.233,0.988 2.326,0.557 2.326,0.053" /></g><g
           transform="translate(354.6385,21.97)"
           id="g4728"><path
             id="path4730"
             style="fill:#292929;fill-opacity:1;fill-rule:nonzero;stroke:none"
             d="m 0,0 c 0,0.574 -0.105,1.064 -0.316,1.471 -0.207,0.41 -0.538,0.73 -0.991,0.961 -0.23,0.113 -0.467,0.189 -0.709,0.228 -0.238,0.043 -0.599,0.065 -1.084,0.065 l -0.568,0 0,-5.461 0.568,0 c 0.535,0 0.928,0.023 1.178,0.07 0.25,0.051 0.494,0.14 0.732,0.269 0.411,0.235 0.711,0.547 0.903,0.938 C -0.096,-1.065 0,-0.578 0,0 M 2.326,-0.018 C 2.326,-0.83 2.141,-1.559 1.77,-2.203 1.398,-2.844 0.93,-3.336 0.363,-3.68 c -0.425,-0.258 -0.892,-0.437 -1.4,-0.539 -0.508,-0.102 -1.11,-0.152 -1.805,-0.152 l -3.076,0 0,8.725 3.164,0 c 0.711,0 1.324,-0.061 1.84,-0.182 C -0.398,4.055 0.035,3.887 0.387,3.668 0.988,3.301 1.461,2.805 1.805,2.18 2.152,1.559 2.326,0.826 2.326,-0.018" /></g><g
           transform="translate(362.6002,17.5987)"
           id="g4732"><path
             id="path4734"
             style="fill:#292929;fill-opacity:1;fill-rule:nonzero;stroke:none"
             d="m 0,0 -5.11,0 0,1.547 1.43,0 0,5.631 -1.43,0 0,1.547 5.11,0 0,-1.547 -1.43,0 0,-5.631 1.43,0 L 0,0 Z" /></g><g
           transform="translate(370.6321,20.341)"
           id="g4736"><path
             id="path4738"
             style="fill:#292929;fill-opacity:1;fill-rule:nonzero;stroke:none"
             d="m 0,0 c 0,-0.859 -0.365,-1.559 -1.096,-2.098 -0.726,-0.535 -1.715,-0.803 -2.965,-0.803 -0.722,0 -1.353,0.063 -1.892,0.188 -0.536,0.129 -1.038,0.291 -1.506,0.486 l 0,2.092 0.246,0 c 0.465,-0.371 0.984,-0.656 1.558,-0.855 0.579,-0.2 1.133,-0.299 1.665,-0.299 0.136,0 0.316,0.012 0.539,0.035 0.222,0.023 0.404,0.063 0.545,0.117 0.171,0.071 0.312,0.158 0.422,0.264 0.113,0.105 0.169,0.262 0.169,0.469 0,0.191 -0.082,0.355 -0.246,0.492 -0.16,0.141 -0.396,0.248 -0.709,0.322 -0.328,0.078 -0.676,0.151 -1.043,0.217 -0.363,0.07 -0.705,0.158 -1.025,0.264 -0.735,0.238 -1.264,0.56 -1.588,0.967 -0.32,0.41 -0.481,0.918 -0.481,1.523 0,0.813 0.364,1.475 1.09,1.986 0.731,0.516 1.668,0.774 2.813,0.774 0.574,0 1.141,-0.057 1.699,-0.17 0.563,-0.109 1.049,-0.248 1.459,-0.416 l 0,-2.01 -0.24,0 C -0.938,3.826 -1.369,4.061 -1.881,4.248 -2.389,4.44 -2.908,4.535 -3.44,4.535 -3.627,4.535 -3.815,4.522 -4.002,4.494 -4.186,4.471 -4.364,4.424 -4.535,4.354 -4.688,4.295 -4.819,4.205 -4.928,4.084 -5.037,3.967 -5.092,3.832 -5.092,3.68 c 0,-0.231 0.088,-0.408 0.264,-0.533 0.175,-0.121 0.507,-0.233 0.996,-0.334 0.32,-0.067 0.627,-0.131 0.92,-0.194 C -2.615,2.557 -2.297,2.471 -1.957,2.361 -1.289,2.143 -0.797,1.844 -0.48,1.465 -0.16,1.09 0,0.602 0,0" /></g><g
           transform="translate(375.324,17.4288)"
           id="g4740"><path
             id="path4742"
             style="fill:#292929;fill-opacity:1;fill-rule:nonzero;stroke:none"
             d="m 0,0 c -0.648,0 -1.248,0.096 -1.799,0.287 -0.547,0.192 -1.018,0.477 -1.412,0.856 -0.395,0.379 -0.701,0.851 -0.92,1.418 -0.215,0.566 -0.322,1.22 -0.322,1.963 0,0.691 0.103,1.318 0.31,1.881 0.207,0.562 0.508,1.045 0.903,1.447 0.379,0.387 0.847,0.686 1.406,0.896 0.562,0.211 1.176,0.317 1.84,0.317 C 0.373,9.065 0.703,9.043 0.996,9 1.293,8.961 1.566,8.909 1.816,8.842 2.078,8.768 2.315,8.684 2.526,8.59 2.74,8.5 2.928,8.416 3.088,8.338 l 0,-2.115 -0.258,0 C 2.721,6.317 2.582,6.428 2.414,6.557 2.25,6.686 2.063,6.813 1.852,6.938 1.637,7.063 1.404,7.168 1.154,7.254 0.904,7.34 0.637,7.383 0.352,7.383 0.035,7.383 -0.266,7.332 -0.551,7.231 -0.836,7.133 -1.1,6.969 -1.342,6.739 -1.572,6.516 -1.76,6.221 -1.904,5.854 -2.045,5.487 -2.115,5.041 -2.115,4.518 c 0,-0.547 0.076,-1.004 0.228,-1.371 0.156,-0.368 0.352,-0.657 0.586,-0.868 0.238,-0.214 0.504,-0.369 0.797,-0.463 0.293,-0.089 0.582,-0.134 0.867,-0.134 0.274,0 0.543,0.041 0.809,0.123 0.269,0.082 0.518,0.193 0.744,0.334 0.192,0.113 0.369,0.234 0.533,0.363 0.164,0.129 0.299,0.24 0.405,0.334 l 0.234,0 0,-2.086 C 2.869,0.652 2.66,0.561 2.461,0.475 2.262,0.389 2.053,0.314 1.834,0.252 1.549,0.17 1.281,0.107 1.031,0.064 0.781,0.021 0.438,0 0,0" /></g><g
           transform="translate(384.7798,19.7492)"
           id="g4744"><path
             id="path4746"
             style="fill:#292929;fill-opacity:1;fill-rule:nonzero;stroke:none"
             d="M 0,0 C 0.219,0.266 0.381,0.578 0.486,0.938 0.592,1.301 0.645,1.727 0.645,2.215 0.645,2.738 0.584,3.184 0.463,3.551 0.342,3.918 0.184,4.215 -0.012,4.442 -0.211,4.676 -0.441,4.846 -0.703,4.951 -0.961,5.057 -1.231,5.11 -1.512,5.11 -1.797,5.11 -2.066,5.059 -2.32,4.957 -2.57,4.856 -2.801,4.688 -3.012,4.453 -3.207,4.235 -3.367,3.932 -3.492,3.545 -3.613,3.162 -3.674,2.717 -3.674,2.209 c 0,-0.519 0.059,-0.963 0.176,-1.33 0.121,-0.363 0.279,-0.66 0.474,-0.891 0.196,-0.23 0.424,-0.4 0.686,-0.51 0.262,-0.109 0.537,-0.164 0.826,-0.164 0.289,0 0.565,0.055 0.826,0.164 C -0.424,-0.408 -0.195,-0.234 0,0 m 2.983,2.209 c 0,-1.391 -0.399,-2.496 -1.196,-3.316 -0.797,-0.817 -1.898,-1.225 -3.305,-1.225 -1.402,0 -2.502,0.408 -3.299,1.225 -0.797,0.82 -1.195,1.925 -1.195,3.316 0,1.403 0.398,2.51 1.195,3.323 0.797,0.816 1.897,1.224 3.299,1.224 1.399,0 2.499,-0.408 3.299,-1.224 0.801,-0.813 1.202,-1.92 1.202,-3.323" /></g><g
           transform="translate(396.6088,17.5987)"
           id="g4748"><path
             id="path4750"
             style="fill:#292929;fill-opacity:1;fill-rule:nonzero;stroke:none"
             d="m 0,0 -2.168,0 -3.703,5.989 0,-5.989 -2.063,0 0,8.725 2.69,0 3.181,-4.998 0,4.998 L 0,8.725 0,0 Z" /></g></g></g></g></svg>